<svg xmlns="http://www.w3.org/2000/svg" xmlns:xlink="http://www.w3.org/1999/xlink" version="1.1" baseProfile="full" viewBox="0 0 200 200" width="200" height="200">
<g fill="black">
<path d="M 64.0 104.0 L 67.0 106.0 L 64.0 107.8 L 64.0 126.0 L 63.2 135.4 L 61.4 144.3 L 58.7 152.5 L 55.0 159.9 L 50.4 166.7 L 44.8 172.6 L 38.4 177.7 L 31.2 182.0 L 23.1 185.4 L 14.2 187.8 L 13.7 186.1 L 21.5 181.9 L 28.4 177.4 L 34.4 172.6 L 39.4 167.4 L 43.5 161.7 L 46.8 155.6 L 49.3 149.1 L 50.9 142.0 L 51.8 134.3 L 52.0 126.0 L 52.0 102.0 Z M 181.0 145.0 L 183.0 145.0 L 181.0 170.0 L 184.6 172.4 L 187.0 176.0 L 184.6 179.6 L 181.0 182.0 L 148.0 182.0 L 145.4 181.8 L 142.9 181.4 L 140.5 180.6 L 138.2 179.3 L 136.2 177.7 L 134.6 175.7 L 133.3 173.4 L 132.5 171.0 L 132.1 168.5 L 132.0 166.0 L 132.0 100.0 L 144.0 102.0 L 147.0 104.0 L 144.0 105.8 L 144.0 167.2 L 144.2 168.1 L 144.5 169.0 L 144.9 169.4 L 145.8 169.7 L 146.7 169.9 L 148.0 170.0 L 175.0 170.0 Z M 104.0 105.0 L 107.0 107.0 L 104.0 108.8 L 104.0 171.0 L 92.0 177.0 L 92.0 103.0 Z M 156.7 90.5 L 153.3 85.9 L 150.424467086792 82.22570791244507 L 140.9 83.8 L 128.7 85.5 L 116.5 87.0 L 104.2 88.3 L 79.6 90.5 L 67.3 91.5 L 54.9 92.4 L 42.5 93.2 L 34.17987070083618 93.6696846961975 L 32.2 96.9 L 30.1 93.9 L 27.8 82.0 L 29.8 81.9 L 42.1 81.8 L 54.5 81.6 L 62.885629940032956 81.46364831924438 L 64.0 79.4 L 66.7 74.7 L 69.3 70.2 L 71.8 65.8 L 74.2 61.6 L 76.4 57.5 L 78.5 53.5 L 80.4 49.6 L 81.5945945739746 47.0 L 18.0 47.0 L 18.0 43.0 L 94.0 43.0 L 94.0 13.0 L 106.0 15.0 L 109.0 17.0 L 106.0 18.8 L 106.0 43.0 L 160.0 43.0 L 170.0 33.0 L 182.0 43.0 L 182.0 47.0 L 94.64615383148194 47.0 L 94.3 47.6 L 92.1 51.3 L 89.6 55.0 L 87.0 58.7 L 84.2 62.5 L 81.2 66.3 L 78.0 70.2 L 74.5 74.0 L 70.9 77.9 L 67.22297067642212 81.3931778907776 L 79.2 81.2 L 91.5 81.0 L 103.8 80.7 L 116.0 80.4 L 140.6 80.0 L 148.57462682724 80.0648344039917 L 145.6 76.8 L 141.2 72.2 L 136.4 67.6 L 131.4 63.0 L 126.0 58.2 L 120.3 53.2 L 121.3 51.7 L 128.1 55.0 L 134.5 58.6 L 140.5 62.5 L 146.2 66.5 L 151.4 70.6 L 156.3 74.9 L 160.9 79.3 L 165.1 83.8 L 169.0 88.5 L 172.5 93.3 L 173.2 97.8 L 170.5 101.5 L 166.0 102.2 L 162.3 99.5 L 159.7 95.0 Z " />
</g>
</svg>
