<svg xmlns="http://www.w3.org/2000/svg" xmlns:xlink="http://www.w3.org/1999/xlink" version="1.1" baseProfile="full" viewBox="0 0 200 200" width="200" height="200">
<g fill="black">
<path d="M 161.8 121.0 L 156.8 124.0 L 153.56202268600464 125.3491572380066 L 123.4 182.2 L 110.0 181.8 L 142.8203821182251 121.0 L 42.7 121.0 L 42.7 117.0 L 144.8 117.0 L 150.8 112.0 Z M 158.0 86.4 L 149.3 80.3 L 140.9 73.7 L 132.8 66.4 L 125.0 58.5 L 117.6 50.1 L 110.5 41.0 L 103.9 31.2 L 101.82920942306518 27.66947183609009 L 99.3 31.6 L 91.4 42.5 L 83.1 52.7 L 74.3 62.2 L 65.0 71.1 L 55.2 79.3 L 45.0 86.8 L 34.3 93.5 L 23.1 99.4 L 11.3 104.5 L 10.6 102.9 L 21.2 96.1 L 31.3 89.0 L 41.1 81.5 L 50.3 73.5 L 59.1 65.0 L 67.5 55.9 L 75.4 46.3 L 82.8 36.1 L 89.7 25.4 L 96.2 14.1 L 96.23705883026123 14.121176433563232 L 96.8 13.2 L 106.7 20.1 L 108.3 23.3 L 104.60052156448364 23.362703037261962 L 103.701939868927 24.759147453308106 L 107.2 28.7 L 115.0 37.2 L 122.9 45.2 L 130.8 52.6 L 138.9 59.4 L 147.1 65.6 L 155.5 71.2 L 164.1 76.3 L 172.8 80.8 L 181.6 84.7 L 187.7 87.4 L 176.3 96.8 L 167.0 91.9 Z M 137.0 86.1 L 137.0 90.1 L 59.4 90.1 L 59.4 86.1 L 115.0 86.1 L 125.0 76.1 Z " />
</g>
</svg>
