<svg xmlns="http://www.w3.org/2000/svg" xmlns:xlink="http://www.w3.org/1999/xlink" version="1.1" baseProfile="full" viewBox="0 0 200 200" width="200" height="200">
<g fill="black">
<path d="M 63.0 176.0 L 75.0 176.0 L 76.2 175.9 L 77.1 175.7 L 78.0 175.4 L 78.4 175.0 L 78.7 174.1 L 78.9 173.2 L 79.0 172.0 L 79.0 149.0 L 38.0 149.0 L 38.0 183.0 L 26.0 189.0 L 26.0 92.0 L 38.0 98.0 L 79.0 98.0 L 85.0 93.0 L 96.0 102.0 L 91.0 106.0 L 91.0 172.0 L 90.8 174.5 L 90.4 177.0 L 89.6 179.4 L 88.3 181.7 L 86.7 183.7 L 84.7 185.3 L 82.4 186.6 L 80.0 187.4 L 77.5 187.8 L 75.0 188.0 L 75.0 182.0 L 63.0 179.0 Z M 183.0 153.5 L 185.0 153.5 L 183.0 174.5 L 186.3 176.7 L 188.5 180.0 L 186.3 183.3 L 183.0 185.5 L 127.0 185.5 L 124.4 185.4 L 122.0 185.0 L 119.6 184.2 L 117.4 183.1 L 115.4 181.5 L 113.7 179.6 L 112.5 177.4 L 111.6 175.0 L 111.1 172.5 L 111.0 170.0 L 111.0 79.0 L 123.0 85.0 L 165.0 85.0 L 165.0 61.0 L 123.0 61.0 L 123.0 68.0 L 111.0 74.0 L 111.0 13.0 L 123.0 15.0 L 126.0 17.0 L 123.0 18.8 L 123.0 34.0 L 163.0 34.0 L 173.0 24.0 L 185.0 34.0 L 185.0 38.0 L 123.0 38.0 L 123.0 57.0 L 165.0 57.0 L 171.0 52.0 L 182.0 61.0 L 177.0 65.0 L 177.0 91.0 L 165.0 97.0 L 165.0 89.0 L 123.0 89.0 L 123.0 108.0 L 156.8181818008423 108.0 L 165.0 99.0 L 175.0 108.0 L 175.0 112.0 L 123.0 112.0 L 123.0 129.0 L 156.8181818008423 129.0 L 165.0 120.0 L 175.0 129.0 L 175.0 133.0 L 123.0 133.0 L 123.0 150.0 L 156.8181818008423 150.0 L 165.0 141.0 L 175.0 150.0 L 175.0 154.0 L 123.0 154.0 L 123.0 171.2 L 123.1 172.1 L 123.2 172.7 L 123.4 173.1 L 123.5 173.4 L 123.7 173.6 L 124.1 173.9 L 124.7 174.1 L 125.7 174.3 L 127.0 174.5 L 177.5 174.5 Z M 38.0 126.0 L 38.0 145.0 L 79.0 145.0 L 79.0 126.0 Z M 38.0 102.0 L 38.0 122.0 L 79.0 122.0 L 79.0 102.0 Z M 88.2 48.0 L 90.3 50.9 L 86.22341775894165 51.68670883178711 L 84.9 54.1 L 83.1 57.2 L 81.2 60.3 L 79.1 63.5 L 76.9 66.6 L 74.6 69.8 L 72.1 73.0 L 69.4 76.1 L 68.66363639831543 77.0 L 82.0 77.0 L 92.0 67.0 L 104.0 77.0 L 104.0 81.0 L 14.0 81.0 L 14.0 77.0 L 65.81538457870484 77.0 L 66.8 74.6 L 68.2 70.7 L 69.5 67.0 L 70.8 63.4 L 72.1 59.9 L 73.2 56.5 L 74.3 53.2 L 75.3 50.0 L 76.2 46.8 L 76.74871797561646 44.74230766296387 L 76.6 44.7 L 77.5 42.4 Z M 37.4 65.1 L 36.8 62.3 L 36.0 59.7 L 35.1 57.0 L 34.2 54.4 L 33.1 51.8 L 31.9 49.3 L 30.7 46.6 L 29.0 44.3 L 30.3 43.0 L 32.6 44.9 L 35.1 46.7 L 37.5 48.7 L 39.7 50.9 L 41.7 53.3 L 43.6 55.8 L 45.4 58.5 L 47.1 61.4 L 48.6 64.3 L 49.9 67.5 L 49.3 72.0 L 45.8 74.8 L 41.2 74.2 L 38.4 70.7 L 37.9 67.8 Z M 16.0 36.0 L 53.0 36.0 L 53.0 13.0 L 65.0 15.0 L 68.0 17.0 L 65.0 18.8 L 65.0 36.0 L 80.0 36.0 L 90.0 26.0 L 102.0 36.0 L 102.0 40.0 L 16.0 40.0 Z " />
</g>
</svg>
