<svg xmlns="http://www.w3.org/2000/svg" xmlns:xlink="http://www.w3.org/1999/xlink" version="1.1" baseProfile="full" viewBox="0 0 200 200" width="200" height="200">
<g fill="black">
<path d="M 70.0 175.8 L 90.0 175.8 L 91.2 175.7 L 92.1 175.5 L 93.0 175.2 L 93.4 174.8 L 93.7 173.9 L 93.9 173.0 L 94.0 171.8 L 94.0 132.6 L 17.0 132.6 L 17.0 128.6 L 161.0 128.6 L 171.0 118.6 L 183.0 128.6 L 183.0 132.6 L 106.0 132.6 L 106.0 171.8 L 105.8 174.3 L 105.4 176.8 L 104.6 179.2 L 103.3 181.5 L 101.7 183.5 L 99.7 185.1 L 97.4 186.4 L 95.0 187.2 L 92.5 187.6 L 90.0 187.8 L 90.0 181.8 L 70.0 178.8 Z M 68.2 149.0 L 69.5 152.3 L 65.60621242523193 151.96432867050171 L 64.7 153.0 L 60.8 156.9 L 56.6 160.7 L 52.1 164.4 L 47.2 167.9 L 42.0 171.4 L 36.4 174.7 L 30.5 177.8 L 24.1 180.7 L 17.4 183.4 L 16.5 181.8 L 22.2 177.4 L 27.6 173.3 L 32.7 169.2 L 37.5 165.3 L 41.9 161.3 L 46.0 157.4 L 49.6 153.5 L 53.0 149.6 L 55.9 145.7 L 57.93710374832153 142.72269449234008 L 57.9 142.7 L 58.30740737915039 142.1814814567566 L 58.5 141.9 L 58.518139362335205 141.91327724456787 L 59.0 141.3 Z M 159.3 171.6 L 156.3 168.1 L 152.9 164.7 L 149.1 161.4 L 144.9 158.1 L 140.3 154.9 L 135.4 151.7 L 130.2 148.4 L 124.6 145.0 L 125.2 143.3 L 131.7 144.9 L 137.8 146.8 L 143.5 149.1 L 148.9 151.7 L 153.9 154.4 L 158.7 157.5 L 163.0 160.7 L 167.1 164.1 L 170.8 167.8 L 174.1 171.7 L 175.1 176.2 L 172.7 180.1 L 168.2 181.0 L 164.3 178.6 L 162.0 175.1 Z M 160.0 105.5 L 160.0 109.5 L 40.0 109.5 L 40.0 105.5 L 141.8181818008423 105.5 L 150.0 96.5 Z M 46.0 89.8 L 34.0 95.8 L 34.0 43.6 L 46.0 49.6 L 74.0 49.6 L 74.0 29.3 L 17.0 29.3 L 17.0 25.3 L 161.0 25.3 L 171.0 15.3 L 183.0 25.3 L 183.0 29.3 L 126.0 29.3 L 126.0 49.6 L 154.0 49.6 L 160.0 44.6 L 171.0 53.6 L 166.0 57.6 L 166.0 88.8 L 154.0 94.8 L 154.0 86.8 L 46.0 86.8 Z M 46.0 53.6 L 46.0 82.8 L 74.0 82.8 L 74.0 53.6 Z M 86.0 53.6 L 86.0 82.8 L 114.0 82.8 L 114.0 53.6 Z M 126.0 53.6 L 126.0 82.8 L 154.0 82.8 L 154.0 53.6 Z M 86.0 29.3 L 86.0 49.6 L 114.0 49.6 L 114.0 29.3 Z " />
</g>
</svg>
