<svg xmlns="http://www.w3.org/2000/svg" xmlns:xlink="http://www.w3.org/1999/xlink" version="1.1" baseProfile="full" viewBox="0 0 200 200" width="200" height="200">
<g fill="black">
<path d="M 156.1 181.1 L 147.1 177.4 L 138.6 173.1 L 130.6 168.2 L 123.3 162.6 L 116.6 156.4 L 110.5 149.6 L 105.2 142.2 L 101.75893621444702 135.86531438827515 L 98.6 143.9 L 92.3 154.3 L 84.2 163.3 L 74.5 170.9 L 63.2 177.1 L 50.3 181.9 L 36.0 185.3 L 20.1 187.2 L 19.8 185.4 L 35.1 181.6 L 48.5 176.8 L 60.2 171.2 L 70.1 164.7 L 78.2 157.3 L 84.7 149.0 L 89.5 139.7 L 91.11747570037842 134.8 L 18.0 134.8 L 18.0 130.8 L 92.437864112854 130.8 L 92.9 129.4 L 94.7 118.0 L 94.98678417205811 106.05066080093384 L 94.9 103.1 L 107.0 105.3 L 110.0 107.3 L 106.71641788482665 109.27014923095703 L 106.0 119.3 L 103.50387592315674 130.8 L 163.0 130.8 L 173.0 120.8 L 185.0 130.8 L 185.0 134.8 L 103.92153844833373 134.8 L 108.5 139.6 L 114.8 145.6 L 121.4 151.0 L 128.3 155.9 L 135.5 160.2 L 143.2 164.0 L 151.2 167.2 L 159.7 169.8 L 168.7 171.9 L 178.0 173.5 L 187.7 175.1 L 175.9 186.5 L 165.7 184.1 Z M 138.1 120.2 L 137.1 118.7 L 135.8 117.0 L 132.4 113.6 L 130.4 111.9 L 128.1 110.0 L 125.5 108.1 L 122.6 106.6 L 123.2 105.0 L 126.5 105.9 L 129.7 106.5 L 132.7 107.2 L 135.6 108.1 L 138.3 109.2 L 140.8 110.3 L 143.2 111.6 L 145.4 113.0 L 147.4 114.6 L 149.3 116.4 L 150.1 120.9 L 147.6 124.7 L 143.1 125.6 L 139.3 123.1 L 138.8 121.7 Z M 156.3 92.7 L 148.5 89.0 L 141.1 85.0 L 134.1 80.7 L 127.5 76.1 L 121.3 71.2 L 115.6 66.1 L 110.5 60.5 L 106.53389825820923 55.3 L 106.0 55.3 L 106.0 94.0 L 94.0 100.0 L 94.0 63.953125 L 88.2 69.3 L 81.2 74.9 L 73.7 80.1 L 65.7 85.0 L 57.2 89.5 L 48.3 93.6 L 38.8 97.3 L 28.8 100.5 L 18.2 103.1 L 17.7 101.4 L 27.4 96.9 L 36.6 92.3 L 45.4 87.7 L 53.6 82.8 L 61.2 77.8 L 68.3 72.6 L 74.8 67.1 L 80.9 61.4 L 86.3 55.6 L 86.53478260040283 55.3 L 18.0 55.3 L 18.0 51.3 L 94.0 51.3 L 94.0 12.5 L 106.0 14.5 L 109.0 16.5 L 106.0 18.3 L 106.0 51.3 L 160.0 51.3 L 170.0 41.3 L 182.0 51.3 L 182.0 55.3 L 110.2268292427063 55.3 L 119.3 61.5 L 125.5 65.4 L 132.0 69.1 L 138.7 72.6 L 145.7 75.8 L 153.0 78.9 L 160.6 81.7 L 168.6 84.3 L 176.9 86.7 L 184.6 89.1 L 173.0 99.3 L 164.4 96.1 Z M 150.5 20.2 L 151.9 23.5 L 147.9729166984558 23.43229169845581 L 142.8 29.6 L 140.1 32.7 L 137.3 35.7 L 134.4 38.7 L 131.4 41.6 L 128.2 44.4 L 124.9 47.1 L 121.6 49.9 L 120.3 48.7 L 122.5 45.1 L 124.6 41.4 L 126.7 37.8 L 130.9 30.8 L 132.9 27.4 L 134.8 24.0 L 136.7 20.5 L 138.6 17.1 L 139.9272967338562 14.666622638702393 L 139.8 14.6 L 140.9 13.0 Z M 64.5 38.7 L 63.2 35.7 L 61.8 32.6 L 60.2 29.6 L 58.4 26.5 L 56.4 23.3 L 54.2 20.1 L 51.8 16.7 L 49.1 13.5 L 50.3 12.1 L 53.9 14.5 L 57.4 16.9 L 60.7 19.4 L 63.7 22.1 L 66.5 24.8 L 69.2 27.7 L 71.6 30.7 L 73.8 33.8 L 75.7 37.1 L 77.5 40.4 L 77.3 44.9 L 74.0 48.1 L 69.4 47.9 L 66.3 44.6 L 65.5 41.7 Z " />
</g>
</svg>
