<svg xmlns="http://www.w3.org/2000/svg" xmlns:xlink="http://www.w3.org/1999/xlink" version="1.1" baseProfile="full" viewBox="0 0 200 200" width="200" height="200">
<g fill="black">
<path d="M 12.8 149.9 L 18.6 148.8 L 24.6 147.6 L 27.2 147.04590167999268 L 27.2 30.0 L 12.3 30.0 L 12.3 26.0 L 85.3 26.0 L 95.3 16.0 L 107.3 26.0 L 107.3 30.0 L 85.8 30.0 L 85.8 183.0 L 73.8 189.0 L 73.8 139.9 L 73.0 140.3 L 66.1 143.4 L 59.3 146.3 L 52.6 149.0 L 46.1 151.5 L 39.7 153.8 L 33.4 155.9 L 27.3 157.9 L 21.4 159.8 L 19.591254329681398 160.36133489608764 L 18.2 164.0 L 15.6 161.6 L 10.9 150.3 Z M 118.6 45.6 L 169.3 45.6 L 175.3 40.6 L 186.3 49.6 L 181.3 53.6 L 181.3 153.3 L 169.3 159.3 L 169.3 147.3 L 118.6 147.3 L 118.6 159.3 L 106.6 165.3 L 106.6 39.6 Z M 39.2 106.0 L 39.2 144.31538457870482 L 43.6 143.3 L 50.3 141.7 L 57.3 140.1 L 64.4 138.4 L 71.8 136.7 L 73.8 136.28441562652588 L 73.8 106.0 Z M 118.6 49.6 L 118.6 143.3 L 169.3 143.3 L 169.3 49.6 Z M 39.2 68.0 L 39.2 102.0 L 73.8 102.0 L 73.8 68.0 Z M 39.2 30.0 L 39.2 64.0 L 73.8 64.0 L 73.8 30.0 Z " />
</g>
</svg>
