<svg xmlns="http://www.w3.org/2000/svg" xmlns:xlink="http://www.w3.org/1999/xlink" version="1.1" baseProfile="full" viewBox="0 0 200 200" width="200" height="200">
<g fill="black">
<path d="M 19.3 183.4 L 18.9 178.8 L 21.7 175.2 L 24.5 173.8 L 27.2 172.1 L 29.7 169.9 L 32.0 167.2 L 34.1 164.1 L 36.1 160.5 L 37.9 156.4 L 39.4 151.7 L 40.9 146.6 L 42.0 140.9 L 43.8 141.0 L 44.2 146.9 L 44.3 152.5 L 43.9 157.8 L 42.9 162.9 L 41.6 167.6 L 39.7 171.9 L 37.4 176.0 L 34.6 179.7 L 31.2 182.9 L 27.5 185.8 L 22.9 186.2 Z M 168.5 173.7 L 167.1 170.1 L 165.3 166.4 L 163.1 162.7 L 160.6 158.8 L 157.7 154.9 L 154.5 150.8 L 151.0 146.6 L 147.2 142.3 L 148.3 140.9 L 153.4 143.9 L 158.1 147.1 L 162.3 150.5 L 166.2 154.0 L 169.8 157.6 L 172.9 161.4 L 175.8 165.2 L 178.2 169.2 L 180.3 173.3 L 181.9 177.5 L 181.3 182.0 L 177.7 184.8 L 173.2 184.2 L 170.4 180.6 L 169.6 177.2 Z M 121.2 171.3 L 120.6 168.0 L 119.6 164.8 L 118.4 161.4 L 116.7 157.9 L 114.8 154.4 L 112.6 150.8 L 110.1 147.0 L 107.1 143.3 L 108.3 141.9 L 112.3 144.8 L 116.1 147.6 L 119.5 150.7 L 122.6 154.0 L 125.3 157.4 L 127.7 160.9 L 129.7 164.6 L 131.4 168.4 L 132.7 172.3 L 133.6 176.4 L 132.2 180.7 L 128.2 182.9 L 123.9 181.5 L 121.7 177.5 L 121.6 174.4 Z M 80.7 182.9 L 76.7 180.7 L 75.3 176.4 L 75.8 173.3 L 76.1 170.2 L 76.1 167.1 L 75.9 163.9 L 75.5 160.7 L 74.7 157.4 L 73.7 154.0 L 72.4 150.5 L 70.9 146.8 L 68.9 143.3 L 70.3 142.1 L 73.3 145.1 L 76.2 148.1 L 78.8 151.3 L 81.0 154.6 L 82.9 158.1 L 84.5 161.8 L 85.7 165.6 L 86.5 169.4 L 87.1 173.4 L 87.2 177.5 L 85.0 181.5 Z M 18.0 124.8 L 94.0 124.8 L 94.0 96.8 L 41.0 96.8 L 41.0 92.8 L 94.0 92.8 L 94.0 66.3 L 21.0 66.3 L 21.0 62.3 L 94.0 62.3 L 94.0 37.9 L 43.0 37.9 L 43.0 33.9 L 94.0 33.9 L 94.0 13.6 L 106.0 15.6 L 109.0 17.6 L 106.0 19.4 L 106.0 33.9 L 142.0 33.9 L 148.0 28.9 L 159.0 37.9 L 154.0 41.9 L 154.0 62.3 L 161.0 62.3 L 171.0 52.3 L 183.0 62.3 L 183.0 66.3 L 154.0 66.3 L 154.0 102.8 L 142.0 108.8 L 142.0 96.8 L 106.0 96.8 L 106.0 124.8 L 160.0 124.8 L 170.0 114.8 L 182.0 124.8 L 182.0 128.8 L 18.0 128.8 Z M 106.0 66.3 L 106.0 92.8 L 142.0 92.8 L 142.0 66.3 Z M 106.0 37.9 L 106.0 62.3 L 142.0 62.3 L 142.0 37.9 Z " />
</g>
</svg>
