<svg xmlns="http://www.w3.org/2000/svg" xmlns:xlink="http://www.w3.org/1999/xlink" version="1.1" baseProfile="full" viewBox="0 0 200 200" width="200" height="200">
<g fill="black">
<path d="M 69.9 77.3 L 68.9 85.4 L 67.1 93.1 L 64.6 100.5 L 61.5 107.5 L 57.6 114.1 L 53.1 120.2 L 47.9 125.9 L 42.1 131.1 L 35.6 135.7 L 28.5 139.7 L 27.4 138.2 L 33.2 132.7 L 38.4 127.2 L 43.0 121.5 L 47.0 115.8 L 50.3 109.8 L 53.0 103.7 L 55.1 97.3 L 56.6 90.7 L 57.6 83.8 L 58.0 76.6 L 58.0 60.0 L 70.0 62.0 L 73.0 64.0 L 70.0 65.8 L 70.0 77.0 L 69.80377359390259 77.29433965682983 Z M 149.0 62.0 L 152.0 64.0 L 149.0 65.8 L 149.0 133.0 L 137.0 139.0 L 137.0 60.0 Z " />
</g>
</svg>
