<svg xmlns="http://www.w3.org/2000/svg" xmlns:xlink="http://www.w3.org/1999/xlink" version="1.1" baseProfile="full" viewBox="0 0 200 200" width="200" height="200">
<g fill="black">
<path d="M 112.5 17.5 L 114.8 20.2 L 110.97441864013672 21.293023300170898 L 109.6 24.5 L 108.0 28.2 L 106.3 31.9 L 104.4 35.6 L 102.4 39.5 L 100.3 43.3 L 98.0 47.3 L 94.68500003814697 52.4 L 113.4 52.4 L 119.4 47.4 L 130.4 56.4 L 125.4 60.4 L 125.4 168.6 L 113.4 174.6 L 113.4 168.6 L 86.5 168.6 L 86.5 180.6 L 74.5 186.6 L 74.5 46.4 L 86.5 52.4 L 91.70851068496704 52.4 L 92.4 49.9 L 93.5 45.4 L 94.7 41.0 L 95.8 36.8 L 97.8 28.8 L 98.7 25.0 L 99.5 21.3 L 100.3 17.7 L 100.71962661743164 15.322115802764893 L 100.6 15.3 L 100.88965520858764 14.358620643615723 L 100.9 14.3 L 100.90709047317505 14.30195598602295 L 101.4 12.7 Z M 170.1350254058838 158.77664976119996 L 166.5 161.2 L 161.9 164.0 L 157.3 166.7 L 152.6 169.2 L 147.9 171.6 L 138.5 176.2 L 133.7 178.3 L 132.82505970001222 178.69093074798585 L 131.9 182.5 L 129.0 180.4 L 123.1 169.8 L 124.9 169.1 L 129.8 167.6 L 134.6 166.1 L 136.04091424942015 165.65890378952025 L 137.6 160.0 L 140.4 149.9 L 143.4 139.3 L 146.6 128.3 L 149.7 116.8 L 152.12298421859742 107.78952732086182 L 150.3 109.3 L 145.7 108.8 L 142.8 105.2 L 141.6 100.4 L 140.4 95.7 L 139.0 91.1 L 137.5 86.7 L 135.9 82.4 L 132.5 74.0 L 128.9 66.0 L 127.0 62.0 L 128.4 60.9 L 131.8 63.9 L 135.0 67.2 L 138.0 70.8 L 138.47685012817382 71.44715366363525 L 139.3 67.4 L 140.6 61.5 L 143.4 49.5 L 144.8 43.4 L 147.6 31.0 L 150.0138030052185 19.302339458465575 L 150.0 19.3 L 150.6 16.6 L 161.8 21.3 L 164.3 24.0 L 160.67320098876954 25.036228275299074 L 159.9 27.6 L 157.9 33.8 L 155.9 39.9 L 153.7 46.0 L 149.3 57.8 L 146.9 63.5 L 144.4 69.1 L 141.7 74.6 L 141.28313207626343 75.36186208724976 L 143.4 78.7 L 145.9 82.9 L 148.2 87.4 L 150.4 92.0 L 152.4 96.8 L 153.9568199157715 100.89689445495605 L 156.2 92.4 L 159.4 79.5 L 162.7 66.1 L 166.0 52.2 L 166.03966102600097 52.20983047485352 L 166.5 50.5 L 177.7 55.1 L 180.1 57.8 L 176.61891889572144 58.85675678253174 L 173.7 69.0 L 169.8 82.3 L 165.8 95.2 L 161.8 107.5 L 157.8 119.4 L 153.8 130.7 L 149.7 141.4 L 145.5 151.7 L 141.1 161.4 L 139.5 164.6 L 144.3 163.0 L 149.3 161.4 L 154.2 159.7 L 159.2 158.0 L 164.2 156.4 L 169.3 154.8 L 169.57612380981445 154.7270616531372 L 169.1 151.5 L 167.1 139.3 L 166.0 133.2 L 164.8 127.1 L 163.7 120.9 L 162.6 114.6 L 164.3 114.0 L 167.3 119.7 L 169.9 125.5 L 172.3 131.5 L 174.4 137.4 L 176.4 143.5 L 178.2 149.6 L 179.8 155.7 L 181.3 161.9 L 182.6 168.1 L 183.8 174.3 L 182.5 178.7 L 178.6 181.0 L 174.2 179.8 L 171.9 175.8 L 171.4 169.8 Z M 58.13502540588379 158.77664976119996 L 54.5 161.2 L 49.9 164.0 L 45.3 166.7 L 40.6 169.2 L 35.9 171.6 L 26.5 176.2 L 21.7 178.3 L 20.825059700012208 178.69093074798585 L 19.9 182.5 L 17.0 180.4 L 11.1 169.8 L 12.9 169.1 L 17.8 167.6 L 22.6 166.1 L 24.040914249420165 165.65890378952025 L 25.6 160.0 L 28.4 149.9 L 31.4 139.3 L 34.6 128.3 L 37.7 116.8 L 40.12298421859741 107.78952732086182 L 38.3 109.3 L 33.7 108.8 L 30.8 105.2 L 29.6 100.4 L 28.4 95.7 L 27.0 91.1 L 25.5 86.7 L 23.9 82.4 L 20.5 74.0 L 16.9 66.0 L 15.0 62.0 L 16.4 60.9 L 19.8 63.9 L 23.0 67.2 L 26.0 70.8 L 26.47685012817383 71.44715366363525 L 27.3 67.4 L 28.6 61.5 L 31.4 49.5 L 32.8 43.4 L 35.6 31.0 L 38.013803005218506 19.302339458465575 L 38.0 19.3 L 38.6 16.6 L 49.8 21.3 L 52.3 24.0 L 48.67320098876953 25.036228275299074 L 47.9 27.6 L 45.9 33.8 L 43.9 39.9 L 41.7 46.0 L 37.3 57.8 L 34.9 63.5 L 32.4 69.1 L 29.7 74.6 L 29.283132076263428 75.36186208724976 L 31.4 78.7 L 33.9 82.9 L 36.2 87.4 L 38.4 92.0 L 40.4 96.8 L 41.95681991577148 100.89689445495605 L 44.2 92.4 L 47.4 79.5 L 50.7 66.1 L 54.0 52.2 L 54.03966102600098 52.20983047485352 L 54.5 50.5 L 65.7 55.1 L 68.1 57.8 L 64.61891889572144 58.85675678253174 L 61.7 69.0 L 57.8 82.3 L 53.8 95.2 L 49.8 107.5 L 45.8 119.4 L 41.8 130.7 L 37.7 141.4 L 33.5 151.7 L 29.1 161.4 L 27.5 164.6 L 32.3 163.0 L 37.3 161.4 L 42.2 159.7 L 47.2 158.0 L 52.2 156.4 L 57.3 154.8 L 57.576123809814455 154.7270616531372 L 57.1 151.5 L 55.1 139.3 L 54.0 133.2 L 52.8 127.1 L 51.7 120.9 L 50.6 114.6 L 52.3 114.0 L 55.3 119.7 L 57.9 125.5 L 60.3 131.5 L 62.4 137.4 L 64.4 143.5 L 66.2 149.6 L 67.8 155.7 L 69.3 161.9 L 70.6 168.1 L 71.8 174.3 L 70.5 178.7 L 66.6 181.0 L 62.2 179.8 L 59.9 175.8 L 59.4 169.8 Z M 86.5 110.8 L 86.5 164.6 L 113.4 164.6 L 113.4 110.8 Z M 86.5 56.4 L 86.5 106.8 L 113.4 106.8 L 113.4 56.4 Z " />
</g>
</svg>
