<svg xmlns="http://www.w3.org/2000/svg" xmlns:xlink="http://www.w3.org/1999/xlink" version="1.1" baseProfile="full" viewBox="0 0 200 200" width="200" height="200">
<g fill="black">
<path d="M 120.4 174.8 L 140.4 174.8 L 141.7 174.7 L 142.6 174.5 L 143.5 174.2 L 143.7 174.0 L 143.8 173.8 L 144.0 173.5 L 144.2 172.9 L 144.4 172.0 L 144.4 133.1068965911865 L 136.1 137.4 L 127.4 141.4 L 118.7 145.1 L 110.0 148.5 L 101.4 151.6 L 92.9 154.5 L 84.4 157.1 L 76.0 159.5 L 67.7 161.6 L 63.4246018409729 162.6302164077759 L 61.9 166.1 L 59.4 163.6 L 55.3 152.1 L 57.3 151.8 L 65.4 150.5 L 73.6 149.0 L 81.9 147.4 L 90.4 145.5 L 99.0 143.5 L 107.7 141.2 L 116.6 138.9 L 125.6 136.4 L 134.8 133.8 L 144.2 131.2 L 144.4 131.76666669845582 L 144.4 101.6 L 53.5 101.6 L 53.5 133.0 L 53.36885242462158 133.19672126770018 L 53.5 133.2 L 52.8 140.7 L 51.7 147.8 L 50.2 154.5 L 48.3 160.7 L 46.0 166.5 L 43.3 171.8 L 40.2 176.5 L 36.6 180.8 L 32.6 184.3 L 28.3 187.2 L 27.1 185.8 L 29.9 181.7 L 32.3 177.6 L 34.5 173.2 L 36.4 168.5 L 38.0 163.5 L 39.4 158.2 L 40.4 152.5 L 41.0 146.3 L 41.4 139.8 L 41.5 132.9 L 41.5 91.6 L 53.5 97.6 L 144.4 97.6 L 150.4 92.6 L 161.4 101.6 L 156.4 105.6 L 156.4 170.8 L 156.3 173.3 L 155.9 175.8 L 155.0 178.2 L 153.8 180.5 L 152.2 182.5 L 150.2 184.2 L 147.9 185.4 L 145.5 186.2 L 143.0 186.6 L 140.4 186.8 L 140.4 180.8 L 120.4 177.8 Z M 100.8 130.8 L 97.6 129.2 L 93.7 127.6 L 89.0 125.9 L 83.6 124.4 L 77.5 122.8 L 70.8 121.2 L 63.4 119.5 L 55.3 117.8 L 55.5 116.0 L 63.8 115.8 L 71.5 115.9 L 78.6 116.3 L 85.0 116.9 L 90.9 117.7 L 96.2 118.6 L 101.0 119.7 L 105.2 121.1 L 109.0 122.6 L 112.3 124.6 L 114.4 128.6 L 113.2 133.0 L 109.1 135.1 L 104.7 133.9 L 103.2 132.4 Z M 14.0 74.2 L 64.0 74.2 L 64.0 43.0 L 28.0 43.0 L 28.0 39.0 L 64.0 39.0 L 64.0 12.5 L 76.0 14.5 L 79.0 16.5 L 76.0 18.3 L 76.0 39.0 L 124.0 39.0 L 124.0 12.5 L 136.0 14.5 L 139.0 16.5 L 136.0 18.3 L 136.0 39.0 L 150.0 39.0 L 160.0 29.0 L 172.0 39.0 L 172.0 43.0 L 136.0 43.0 L 136.0 74.2 L 164.0 74.2 L 174.0 64.2 L 186.0 74.2 L 186.0 78.2 L 14.0 78.2 Z M 76.0 43.0 L 76.0 74.2 L 124.0 74.2 L 124.0 43.0 Z " />
</g>
</svg>
