<svg xmlns="http://www.w3.org/2000/svg" xmlns:xlink="http://www.w3.org/1999/xlink" version="1.1" baseProfile="full" viewBox="0 0 200 200" width="200" height="200">
<g fill="black">
<path d="M 139.6 183.4 L 137.6 184.4 L 135.5 185.4 L 133.3 186.2 L 131.1 186.8 L 128.9 187.3 L 126.6 187.7 L 124.3 187.9 L 122.0 188.0 L 122.0 182.0 L 102.0 179.0 L 102.0 176.0 L 122.0 176.0 L 123.6 175.9 L 125.1 175.8 L 126.7 175.5 L 128.1 175.2 L 129.6 174.8 L 132.4 173.6 L 133.7 172.9 L 135.1 172.1 L 136.4 171.2 L 140.0 167.9 L 143.5 163.6 L 146.7 158.1 L 149.7 151.4 L 152.5 143.5 L 154.9 134.4 L 156.9 124.2 L 158.6 112.8 L 160.0 100.3 L 160.82481756210328 89.0 L 108.58666667938232 89.0 L 104.8 103.2 L 100.0 117.1 L 94.4 130.0 L 87.9 141.7 L 80.7 152.4 L 72.6 161.9 L 63.7 170.3 L 54.0 177.4 L 43.5 183.3 L 32.3 187.8 L 31.6 186.1 L 41.6 180.0 L 50.8 173.1 L 59.2 165.4 L 66.9 156.9 L 73.7 147.5 L 79.9 137.1 L 85.3 125.8 L 89.9 113.4 L 93.9 100.1 L 96.35725193023681 89.0 L 58.67839431762695 89.0 L 56.2 101.8 L 43.2 105.4 L 61.3 12.8 L 72.6 17.1 L 75.2 19.6 L 71.92447538375855 20.58883762359619 L 66.61700115203857 48.0 L 158.0 48.0 L 168.0 38.0 L 180.0 48.0 L 180.0 52.0 L 65.84250297546387 52.0 L 59.45289258956909 85.0 L 161.0 85.0 L 167.0 80.0 L 178.0 89.0 L 173.0 92.0 L 172.5509202003479 92.18711652755738 L 171.9 101.3 L 170.5 114.3 L 168.8 126.2 L 166.6 137.1 L 164.0 146.9 L 160.9 155.8 L 157.4 163.6 L 153.4 170.4 L 148.8 176.1 L 143.6 180.8 L 141.6 182.2 Z " />
</g>
</svg>
