<svg xmlns="http://www.w3.org/2000/svg" xmlns:xlink="http://www.w3.org/1999/xlink" version="1.1" baseProfile="full" viewBox="0 0 200 200" width="200" height="200">
<g fill="black">
<path d="M 20.0 175.0 L 93.0 175.0 L 93.0 144.0 L 41.0 144.0 L 41.0 140.0 L 93.0 140.0 L 93.0 113.0 L 29.0 113.0 L 29.0 109.0 L 93.0 109.0 L 93.0 80.0 L 50.0 80.0 L 50.0 92.0 L 38.0 98.0 L 38.0 36.0 L 50.0 42.0 L 93.0 42.0 L 93.0 16.0 L 105.0 16.0 L 105.0 42.0 L 148.0 42.0 L 154.0 37.0 L 165.0 46.0 L 160.0 50.0 L 160.0 86.0 L 148.0 92.0 L 148.0 80.0 L 105.0 80.0 L 105.0 109.0 L 149.0 109.0 L 159.0 99.0 L 171.0 109.0 L 171.0 113.0 L 105.0 113.0 L 105.0 140.0 L 136.0 140.0 L 146.0 130.0 L 158.0 140.0 L 158.0 144.0 L 105.0 144.0 L 105.0 175.0 L 162.0 175.0 L 172.0 165.0 L 184.0 175.0 L 184.0 179.0 L 20.0 179.0 Z M 50.0 46.0 L 50.0 76.0 L 93.0 76.0 L 93.0 46.0 Z M 105.0 46.0 L 105.0 76.0 L 148.0 76.0 L 148.0 46.0 Z " />
</g>
</svg>
