<svg xmlns="http://www.w3.org/2000/svg" xmlns:xlink="http://www.w3.org/1999/xlink" version="1.1" baseProfile="full" viewBox="0 0 200 200" width="200" height="200">
<g fill="black">
<path d="M 120.6 153.4 L 113.2 144.7 L 105.3 136.4 L 97.0 128.4 L 88.3 120.8 L 79.2 113.5 L 69.6 106.5 L 59.7 99.8 L 49.4 93.2 L 50.2 91.6 L 61.6 96.5 L 72.5 102.0 L 82.9 108.1 L 92.9 114.8 L 102.5 122.0 L 111.7 129.6 L 120.4 137.8 L 128.7 146.4 L 136.6 155.5 L 144.1 165.0 L 145.1 169.5 L 142.7 173.4 L 138.2 174.4 L 134.3 172.0 L 127.7 162.5 Z M 119.4 78.4 L 113.2 71.7 L 106.5 65.2 L 99.4 58.8 L 91.7 52.5 L 83.6 46.4 L 75.0 40.3 L 65.9 34.3 L 56.4 28.2 L 57.2 26.6 L 67.7 30.9 L 77.7 35.7 L 87.1 40.9 L 96.1 46.4 L 104.6 52.1 L 112.6 58.2 L 120.1 64.5 L 127.2 71.0 L 133.8 77.8 L 139.9 84.9 L 141.0 89.4 L 138.8 93.3 L 134.3 94.5 L 130.4 92.2 L 125.1 85.2 Z " />
</g>
</svg>
