<svg xmlns="http://www.w3.org/2000/svg" xmlns:xlink="http://www.w3.org/1999/xlink" version="1.1" baseProfile="full" viewBox="0 0 200 200" width="200" height="200">
<g fill="black">
<path d="M 164.5 170.8 L 158.4 165.3 L 152.5 159.4 L 146.9 153.1 L 141.6 146.4 L 136.5 139.3 L 131.8 131.8 L 127.5 123.8 L 125.0 118.20789470672608 L 125.0 183.0 L 113.0 189.0 L 113.0 116.0 L 87.0 116.0 L 87.0 183.0 L 75.0 189.0 L 75.0 129.24901962280273 L 72.8 132.7 L 67.3 140.2 L 61.2 147.5 L 54.5 154.4 L 47.4 160.9 L 39.7 167.0 L 31.5 172.7 L 22.7 178.0 L 13.4 182.7 L 12.5 181.2 L 20.6 174.8 L 28.3 168.4 L 35.5 162.0 L 42.2 155.3 L 48.4 148.5 L 54.0 141.5 L 59.2 134.3 L 63.8 126.9 L 67.9 119.3 L 69.39433965682983 116.0 L 32.0 116.0 L 32.0 112.0 L 75.0 112.0 L 75.0 84.0 L 14.0 84.0 L 14.0 80.0 L 75.0 80.0 L 75.0 50.0 L 32.0 50.0 L 32.0 46.0 L 75.0 46.0 L 75.0 13.0 L 87.0 15.0 L 90.0 17.0 L 87.0 18.8 L 87.0 46.0 L 113.0 46.0 L 113.0 13.0 L 125.0 15.0 L 128.0 17.0 L 125.0 18.8 L 125.0 46.0 L 152.0 46.0 L 158.0 41.0 L 169.0 50.0 L 164.0 54.0 L 164.0 80.0 L 167.8181818008423 80.0 L 176.0 71.0 L 186.0 80.0 L 186.0 84.0 L 164.0 84.0 L 164.0 122.0 L 152.0 128.0 L 152.0 116.0 L 126.50704221725464 116.0 L 131.0 121.5 L 136.6 128.4 L 142.3 134.9 L 148.0 141.0 L 153.7 146.7 L 159.6 152.0 L 165.6 157.0 L 171.7 161.5 L 178.0 165.6 L 184.4 169.3 L 188.7 171.9 L 177.5 180.6 L 170.9 175.9 Z M 87.0 84.0 L 87.0 112.0 L 113.0 112.0 L 113.0 84.0 Z M 125.0 84.0 L 125.0 112.0 L 152.0 112.0 L 152.0 84.0 Z M 87.0 50.0 L 87.0 80.0 L 113.0 80.0 L 113.0 50.0 Z M 125.0 50.0 L 125.0 80.0 L 152.0 80.0 L 152.0 50.0 Z " />
</g>
</svg>
