<svg xmlns="http://www.w3.org/2000/svg" xmlns:xlink="http://www.w3.org/1999/xlink" version="1.1" baseProfile="full" viewBox="0 0 200 200" width="200" height="200">
<g fill="black">
<path d="M 156.0 22.0 L 159.0 24.0 L 156.0 25.8 L 156.0 96.0 L 163.0 96.0 L 173.0 86.0 L 185.0 96.0 L 185.0 100.0 L 156.0 100.0 L 156.0 178.0 L 144.0 184.0 L 144.0 100.0 L 106.0 100.0 L 106.0 178.0 L 94.0 184.0 L 94.0 100.0 L 56.0 100.0 L 56.0 178.0 L 44.0 184.0 L 44.0 100.0 L 15.0 100.0 L 15.0 96.0 L 44.0 96.0 L 44.0 20.0 L 56.0 22.0 L 59.0 24.0 L 56.0 25.8 L 56.0 96.0 L 94.0 96.0 L 94.0 20.0 L 106.0 22.0 L 109.0 24.0 L 106.0 25.8 L 106.0 96.0 L 144.0 96.0 L 144.0 20.0 Z " />
</g>
</svg>
