<svg xmlns="http://www.w3.org/2000/svg" xmlns:xlink="http://www.w3.org/1999/xlink" version="1.1" baseProfile="full" viewBox="0 0 200 200" width="200" height="200">
<g fill="black">
<path d="M 40.0 180.0 L 28.0 186.0 L 28.0 96.7 L 40.0 98.7 L 43.0 100.7 L 40.0 102.5 L 40.0 169.0 L 94.0 169.0 L 94.0 69.3 L 106.0 71.3 L 109.0 73.3 L 106.0 75.1 L 106.0 169.0 L 160.0 169.0 L 160.0 96.7 L 172.0 98.7 L 175.0 100.7 L 172.0 102.5 L 172.0 177.0 L 160.0 183.0 L 160.0 173.0 L 40.0 173.0 Z M 150.6 18.9 L 152.2 22.1 L 148.34536542892457 22.165332794189453 L 147.7 23.1 L 144.6 27.3 L 141.3 31.6 L 137.9 35.9 L 134.2 40.2 L 130.4 44.5 L 126.4 48.9 L 122.1 53.2 L 117.5 57.4 L 115.58780488967895 59.0 L 166.0 59.0 L 176.0 49.0 L 188.0 59.0 L 188.0 63.0 L 12.0 63.0 L 12.0 59.0 L 112.15555553436279 59.0 L 114.6 55.0 L 117.9 49.8 L 121.2 44.8 L 124.4 39.9 L 127.4 35.1 L 130.3 30.5 L 133.0 25.9 L 135.6 21.4 L 138.0 17.1 L 139.85710382461548 13.628023242950439 L 139.8 13.6 L 140.8 11.9 Z M 64.0 44.2 L 62.4 41.2 L 60.6 38.1 L 58.5 34.8 L 56.1 31.4 L 53.5 27.9 L 50.6 24.2 L 47.5 20.2 L 44.1 16.3 L 45.3 14.9 L 49.7 17.8 L 53.9 20.7 L 57.8 23.6 L 61.4 26.6 L 64.7 29.6 L 67.7 32.6 L 70.4 35.6 L 72.9 38.6 L 75.1 41.6 L 77.1 44.7 L 77.3 49.2 L 74.2 52.7 L 69.7 52.8 L 66.2 49.8 L 65.2 47.1 Z " />
</g>
</svg>
