<svg xmlns="http://www.w3.org/2000/svg" xmlns:xlink="http://www.w3.org/1999/xlink" version="1.1" baseProfile="full" viewBox="0 0 200 200" width="200" height="200">
<g fill="black">
<path d="M 104.5 102.0 L 107.5 104.0 L 104.5 105.8 L 104.5 123.7 L 141.5 123.7 L 151.5 113.7 L 163.5 123.7 L 163.5 127.7 L 104.5 127.7 L 104.5 151.5 L 163.1 151.5 L 173.1 141.5 L 185.1 151.5 L 185.1 155.5 L 104.5 155.5 L 104.5 182.5 L 92.5 188.5 L 92.5 155.5 L 13.7 155.5 L 13.7 151.5 L 92.5 151.5 L 92.5 127.7 L 45.87272729873657 127.7 L 45.0 128.9 L 41.5 133.0 L 37.5 136.9 L 33.2 140.6 L 28.4 144.0 L 23.2 147.0 L 22.0 145.6 L 25.9 141.1 L 29.4 136.8 L 32.6 132.5 L 35.5 128.3 L 38.0 124.1 L 40.1 119.9 L 41.9 115.7 L 43.3 111.5 L 44.4 107.2 L 44.936564445495605 103.90396118164062 L 44.9 103.9 L 45.0745454788208 103.05636367797851 L 45.1 102.9 L 45.1066291809082 102.9012921333313 L 45.5 101.0 L 56.9 105.2 L 59.4 107.8 L 55.68128747940064 109.08464612960816 L 55.3 110.3 L 53.4 115.2 L 51.0 120.0 L 48.69777774810791 123.7 L 92.5 123.7 L 92.5 100.0 Z M 107.0 13.1 L 110.0 15.1 L 107.0 16.9 L 107.0 90.3 L 95.0 96.3 L 95.0 11.1 Z M 19.5 69.7 L 22.8 69.0 L 27.0 68.0 L 31.9 66.6 L 37.6 64.8 L 44.1 62.6 L 51.3 60.1 L 59.2 57.2 L 67.8 54.0 L 77.3 50.5 L 87.6 46.9 L 88.3 48.5 L 78.9 54.0 L 70.1 58.9 L 61.8 63.2 L 54.2 67.0 L 47.3 70.4 L 41.1 73.4 L 35.4 76.0 L 30.5 78.2 L 26.495046424865723 79.7473684310913 L 25.1 83.7 L 22.4 81.3 L 17.5 70.2 Z M 169.8 74.9 L 166.3 73.2 L 162.1 71.5 L 157.1 69.7 L 151.3 67.9 L 144.7 66.0 L 137.5 64.1 L 129.5 62.0 L 120.8 59.7 L 121.1 57.9 L 130.1 58.2 L 138.4 58.8 L 146.0 59.6 L 152.9 60.5 L 159.1 61.5 L 164.7 62.6 L 169.6 63.7 L 174.0 65.0 L 177.8 66.5 L 181.1 68.2 L 183.4 72.1 L 182.4 76.5 L 178.4 78.9 L 174.0 77.8 L 172.4 76.5 Z M 65.1 45.4 L 62.2 43.6 L 58.5 41.7 L 54.3 39.8 L 49.4 37.7 L 43.8 35.6 L 37.7 33.4 L 31.0 31.0 L 23.7 28.4 L 24.1 26.6 L 31.9 27.3 L 39.0 28.2 L 45.6 29.3 L 51.5 30.5 L 57.0 31.7 L 61.9 33.0 L 66.2 34.4 L 70.1 35.9 L 73.5 37.5 L 76.5 39.3 L 78.6 43.3 L 77.3 47.7 L 73.2 49.8 L 68.8 48.5 L 67.3 47.1 Z M 175.5956521987915 23.38695650100708 L 184.9 31.3 L 185.1 34.4 L 181.01139240264894 32.596202564239505 L 178.9 33.3 L 174.2 34.5 L 169.3 35.6 L 164.2 36.8 L 158.8 37.9 L 153.3 38.9 L 147.5 40.0 L 141.5 40.9 L 135.3 41.8 L 128.9 42.4 L 122.1 42.9 L 121.8 41.1 L 128.0 38.7 L 134.1 36.5 L 140.0 34.5 L 145.7 32.6 L 151.1 30.7 L 156.4 28.9 L 161.4 27.1 L 166.2 25.4 L 170.8 23.6 L 174.2202441215515 22.247810459136964 L 174.2 22.2 L 174.24480113983154 22.238101863861083 L 175.1 21.9 Z " />
</g>
</svg>
