<svg xmlns="http://www.w3.org/2000/svg" xmlns:xlink="http://www.w3.org/1999/xlink" version="1.1" baseProfile="full" viewBox="0 0 200 200" width="200" height="200">
<g fill="black">
<path d="M 142.5 177.3 L 128.3 172.8 L 114.9 167.4 L 102.4 161.0 L 101.71075620651246 160.57219352722169 L 91.2 166.2 L 77.6 172.1 L 63.1 177.1 L 47.9 181.1 L 31.9 184.0 L 15.1 185.8 L 14.8 184.1 L 31.1 180.3 L 46.5 175.9 L 61.0 170.9 L 74.6 165.1 L 87.2 158.7 L 92.99634380340576 155.16324787139894 L 90.8 153.8 L 80.1 145.6 L 70.3 136.4 L 69.82621555328369 135.85622463226318 L 66.8 138.4 L 59.4 143.8 L 51.5 148.7 L 43.0 153.3 L 33.9 157.3 L 24.3 160.8 L 23.6 159.1 L 32.2 153.9 L 40.3 148.6 L 47.9 143.2 L 54.9 137.7 L 61.3 132.0 L 64.0392294883728 129.21434288024903 L 61.5 126.3 L 53.8 115.3 L 55.3 114.2 L 64.6 123.5 L 67.29475030899047 125.88916006088257 L 72.5 119.8 L 77.3 113.4 L 81.5 106.8 L 84.70833330154419 100.9036036491394 L 84.7 100.9 L 85.7 99.0 L 95.8 105.7 L 97.4 108.9 L 93.65661840438842 109.02908210754394 L 91.1 113.0 L 88.02753620147705 117.0 L 135.8333333015442 117.0 L 137.2 115.3 L 137.637020778656 115.6358160018921 L 142.0 112.0 L 153.0 121.0 L 148.0 124.0 L 143.96907730102538 125.67955112457275 L 137.3 133.2 L 127.0 142.9 L 115.9 151.6 L 111.16674318313599 154.67661695480348 L 118.9 158.0 L 131.8 162.3 L 145.3 165.9 L 159.6 168.5 L 174.7 170.4 L 185.1 171.6 L 173.2 183.5 L 157.4 180.9 Z M 84.85 121.0 L 80.1 126.5 L 74.26093158721923 132.06536207199096 L 74.3 132.1 L 84.5 139.8 L 95.3 146.7 L 101.2604995727539 149.86165628433227 L 109.9 143.6 L 119.8 134.9 L 129.0 125.5 L 132.61764707565308 121.0 Z M 161.0 95.3 L 158.8 91.6 L 158.6474575996399 91.38033895492553 L 149.5 92.6 L 136.0 94.2 L 109.2 96.8 L 95.9 97.9 L 69.5 100.1 L 56.3 101.0 L 43.2 102.0 L 34.30003881454468 102.61615114212036 L 32.4 105.8 L 30.2 102.9 L 27.7 91.0 L 29.7 90.9 L 42.7 90.6 L 55.8 90.3 L 71.06672878265381 89.95302886962891 L 73.5 87.7 L 81.5 80.3 L 89.4 73.0 L 97.1 65.8 L 104.7 58.7 L 112.2 51.6 L 119.4 44.5 L 126.5 37.5 L 133.3 30.4 L 139.3165609359741 24.114040756225585 L 139.3 24.1 L 140.3 23.1 L 148.5 31.9 L 149.2 35.4 L 145.67041645050048 34.53308477401733 L 141.3 38.6 L 133.8 45.3 L 126.2 51.9 L 118.4 58.5 L 110.3 65.1 L 102.1 71.6 L 93.6 78.1 L 84.9 84.4 L 76.9456958770752 89.81941604614258 L 82.2 89.7 L 95.5 89.5 L 108.8 89.2 L 122.2 89.0 L 135.7 88.8 L 149.3 88.8 L 156.97309684753418 88.96925945281983 L 156.3 88.0 L 153.4 84.4 L 150.1 80.9 L 146.5 77.3 L 142.5 73.7 L 138.1 70.0 L 133.4 66.2 L 134.3 64.6 L 140.0 66.8 L 145.4 69.2 L 150.4 72.0 L 155.1 75.1 L 159.3 78.3 L 163.2 81.8 L 166.8 85.5 L 170.0 89.4 L 172.8 93.5 L 175.3 97.8 L 175.3 102.4 L 172.1 105.7 L 167.6 105.7 L 164.3 102.6 L 162.8 98.9 Z M 66.2 62.8 L 63.8 59.6 L 61.2 56.4 L 58.2 53.4 L 55.0 50.4 L 51.6 47.6 L 47.8 44.8 L 43.8 41.9 L 39.5 39.2 L 40.2 37.5 L 45.3 38.8 L 50.2 40.3 L 54.8 42.2 L 59.2 44.4 L 63.4 46.9 L 63.948648643493655 47.29390163421631 L 65.3 45.7 L 69.1 41.5 L 72.9 37.4 L 76.6 33.5 L 80.2 29.7 L 87.0 22.5 L 90.1 19.0 L 93.1 15.7 L 95.34862213134765 13.14122314453125 L 95.3 13.1 L 96.3 12.1 L 104.5 20.9 L 105.2 24.4 L 101.47050256729126 23.48398313522339 L 101.1 23.8 L 97.5 26.8 L 93.8 29.8 L 89.9 32.9 L 85.9 36.0 L 81.6 39.2 L 77.2 42.4 L 72.6 45.5 L 67.7 48.6 L 66.62871284484864 49.21805028915405 L 67.3 49.7 L 70.9 52.7 L 74.4 56.0 L 77.6 59.5 L 80.5 63.2 L 81.2 67.8 L 78.5 71.5 L 74.0 72.2 L 70.3 69.6 L 68.4 66.1 Z " />
</g>
</svg>
