<svg xmlns="http://www.w3.org/2000/svg" xmlns:xlink="http://www.w3.org/1999/xlink" version="1.1" baseProfile="full" viewBox="0 0 200 200" width="200" height="200">
<g fill="black">
<path d="M 154.0 178.9 L 143.7 173.0 L 134.4 166.2 L 125.9 158.6 L 118.3 150.3 L 111.8 141.1 L 106.2 131.2 L 101.7 120.6 L 101.16191339492798 118.74115524291992 L 96.2 131.0 L 89.3 142.6 L 80.6 153.1 L 70.2 162.3 L 58.2 170.5 L 44.5 177.5 L 29.2 183.3 L 12.2 187.8 L 11.7 186.1 L 27.8 179.7 L 42.1 172.7 L 54.6 165.0 L 65.4 156.5 L 74.3 147.3 L 81.5 137.5 L 87.1 126.8 L 91.0 115.4 L 91.54227638244629 112.5 L 38.0 112.5 L 38.0 108.5 L 92.29024391174316 108.5 L 93.3 103.1 L 94.0 89.9 L 94.0 78.2 L 11.3 78.2 L 11.3 74.2 L 94.0 74.2 L 94.0 43.8 L 41.0 43.8 L 41.0 39.8 L 94.0 39.8 L 94.0 12.0 L 106.0 14.0 L 109.0 16.0 L 106.0 17.8 L 106.0 39.8 L 144.7 39.8 L 150.7 34.8 L 161.7 43.8 L 156.7 47.8 L 156.7 74.2 L 165.6 74.2 L 175.6 64.2 L 187.6 74.2 L 187.6 78.2 L 156.7 78.2 L 156.7 118.5 L 144.7 124.5 L 144.7 112.5 L 102.67810220718384 112.5 L 102.51368989944459 113.20389003753662 L 105.5 118.9 L 111.3 128.3 L 117.7 136.9 L 124.6 144.7 L 132.2 151.7 L 140.5 158.0 L 149.4 163.5 L 159.1 168.3 L 169.5 172.3 L 180.7 175.6 L 188.8 177.9 L 177.2 188.3 L 165.2 184.0 Z M 104.5 104.7 L 103.61240873336791 108.5 L 144.7 108.5 L 144.7 78.2 L 106.0 78.2 L 106.0 90.0 L 105.88333330154418 90.175 Z M 106.0 43.8 L 106.0 74.2 L 144.7 74.2 L 144.7 43.8 Z " />
</g>
</svg>
