<svg xmlns="http://www.w3.org/2000/svg" xmlns:xlink="http://www.w3.org/1999/xlink" version="1.1" baseProfile="full" viewBox="0 0 200 200" width="200" height="200">
<g fill="black">
<path d="M 96.6 16.2 L 99.1 18.7 L 95.71113090515136 19.87070026397705 L 91.2 38.5 L 85.3 59.8 L 84.90597019195556 61.0 L 164.0 61.0 L 174.0 51.0 L 186.0 61.0 L 186.0 65.0 L 83.59253730773926 65.0 L 78.7 79.9 L 71.5 98.8 L 63.8 116.7 L 55.4 133.3 L 46.5 148.8 L 36.9 163.0 L 26.6 176.0 L 15.6 187.6 L 14.3 186.3 L 23.6 173.6 L 32.4 160.0 L 40.8 145.5 L 48.7 129.9 L 56.0 113.2 L 62.9 95.5 L 69.2 76.7 L 72.551256275177 65.0 L 14.0 65.0 L 14.0 61.0 L 73.69698495864868 61.0 L 74.9 56.8 L 80.2 35.8 L 84.9 13.7 L 84.91366024017334 13.702918815612794 L 85.3 11.9 Z " />
</g>
</svg>
