<svg xmlns="http://www.w3.org/2000/svg" xmlns:xlink="http://www.w3.org/1999/xlink" version="1.1" baseProfile="full" viewBox="0 0 200 200" width="200" height="200">
<g fill="black">
<path d="M 168.9 161.4 L 163.8 154.1 L 159.49564476013182 148.92018270492554 L 153.6 150.7 L 137.7 155.3 L 122.0 159.5 L 106.5 163.6 L 91.1 167.5 L 75.8 171.3 L 60.8 174.9 L 45.9 178.4 L 31.2 181.8 L 20.6011661529541 184.1230320930481 L 19.2 187.6 L 16.6 185.0 L 12.3 173.6 L 14.3 173.3 L 20.8 172.09794521331787 L 20.8 42.0 L 32.06604652404785 47.633023262023926 L 40.6 45.3 L 54.6 41.7 L 68.6 38.2 L 82.7 34.7 L 96.7 31.2 L 110.8 27.6 L 124.8 24.1 L 138.8 20.4 L 152.9 16.8 L 166.9 13.0 L 167.22800722122193 14.32333927154541 L 177.4 22.8 L 177.8 25.8 L 173.50769233703613 23.773076915740965 L 169.8 24.7 L 155.5 27.8 L 141.3 30.9 L 127.0 33.9 L 112.8 36.7 L 98.5 39.5 L 84.3 42.1 L 70.0 44.6 L 55.7 47.0 L 41.4 49.1 L 32.8 50.175 L 32.8 169.88851346969605 L 43.7 167.9 L 58.7 165.1 L 73.9 162.2 L 89.2 159.2 L 104.8 156.2 L 120.5 153.1 L 136.5 150.1 L 152.7 147.1 L 157.20362691879274 146.30362691879273 L 151.1 140.2 L 143.4 133.5 L 134.8 127.0 L 125.4 120.7 L 115.1 114.4 L 103.9 108.3 L 104.6 106.6 L 116.7 111.0 L 128.0 116.0 L 138.4 121.5 L 147.9 127.4 L 156.6 133.7 L 164.5 140.5 L 168.2443272590637 144.35130796432495 L 169.1 144.2 L 169.42017736434937 145.5607539176941 L 171.5 147.7 L 177.7 155.3 L 183.0 163.4 L 187.5 171.9 L 187.5 176.4 L 184.3 179.7 L 179.7 179.7 L 176.4 176.5 L 173.1 168.9 Z " />
</g>
</svg>
