<svg xmlns="http://www.w3.org/2000/svg" xmlns:xlink="http://www.w3.org/1999/xlink" version="1.1" baseProfile="full" viewBox="0 0 200 200" width="200" height="200">
<g fill="black">
<path d="M 72.33305721282959 57.0 L 134.0 57.0 L 140.0 52.0 L 151.0 61.0 L 146.0 64.0 L 144.56394910812378 64.59835453033448 L 134.0 176.0 L 121.9 176.0 L 133.6948718070984 61.0 L 71.7663628578186 61.0 L 60.9 137.7 L 48.2 141.9 L 65.9 17.0 L 78.0 17.0 Z M 93.0 143.9 L 91.2 140.7 L 89.2 137.6 L 87.1 134.7 L 84.7 132.0 L 82.2 129.4 L 79.6 126.8 L 76.7 124.3 L 73.5 122.2 L 74.2 120.5 L 78.1 121.6 L 82.0 122.9 L 85.7 124.6 L 89.2 126.6 L 92.6 129.0 L 95.8 131.7 L 98.9 134.8 L 101.8 138.1 L 104.5 141.7 L 107.0 145.6 L 107.2 150.1 L 104.3 153.6 L 99.7 153.9 L 96.2 151.0 L 94.7 147.3 Z M 102.1 105.0 L 100.6 102.3 L 98.8 99.7 L 96.6 97.1 L 94.1 94.6 L 91.3 92.2 L 88.1 89.7 L 84.6 87.3 L 80.6 85.1 L 81.2 83.4 L 85.7 84.5 L 90.1 85.6 L 94.2 87.1 L 98.1 88.9 L 101.7 91.0 L 105.0 93.4 L 108.0 96.1 L 110.8 99.1 L 113.2 102.3 L 115.3 105.9 L 115.3 110.4 L 112.1 113.7 L 107.5 113.7 L 104.3 110.5 L 103.3 107.7 Z " />
</g>
</svg>
