<svg xmlns="http://www.w3.org/2000/svg" xmlns:xlink="http://www.w3.org/1999/xlink" version="1.1" baseProfile="full" viewBox="0 0 200 200" width="200" height="200">
<g fill="black">
<path d="M 170.0 163.5 L 168.4 165.4 L 166.7 167.2 L 164.7 168.7 L 162.6 169.9 L 160.3 170.8 L 157.9 171.5 L 155.5 171.8 L 153.0 172.0 L 153.0 166.0 L 133.0 163.0 L 133.0 160.0 L 153.0 160.0 L 154.3 159.9 L 155.5 159.7 L 156.5 159.4 L 157.3 159.1 L 158.1 158.6 L 158.8 158.1 L 159.5 157.5 L 160.1 156.6 L 160.7 155.6 L 161.3 154.4 L 163.0 149.6 L 164.5 143.3 L 165.8 135.5 L 166.9 126.2 L 167.7 115.5 L 168.3 103.4 L 168.6 89.9 L 168.6 75.1 L 168.4 58.8 L 168.22164182662965 50.907649230957034 L 168.0 51.0 L 168.0 43.0 L 141.89789476394654 43.0 L 141.7 61.8 L 140.4 79.9 L 137.9 97.0 L 134.4 113.1 L 129.7 128.3 L 124.0 142.4 L 117.1 155.4 L 109.0 167.3 L 99.9 178.1 L 89.6 187.6 L 88.3 186.3 L 97.0 175.6 L 104.6 164.3 L 111.3 152.3 L 117.0 139.4 L 121.7 125.6 L 125.3 111.0 L 128.0 95.4 L 129.7 79.0 L 130.3 61.5 L 130.0 43.1 L 133.9666666984558 43.0 L 103.0 43.0 L 103.0 39.0 L 168.0 39.0 L 174.0 34.0 L 185.0 43.0 L 180.04611110687256 45.97233333587646 L 180.4 58.5 L 180.6 75.0 L 180.6 90.1 L 180.3 103.8 L 179.7 116.3 L 178.8 127.4 L 177.7 137.2 L 176.3 145.7 L 174.5 153.0 L 172.4 159.1 L 171.3 161.4 Z M 83.4 148.1 L 81.7 139.6 L 79.7 131.4 L 79.58449325561523 130.9437481880188 L 78.0 132.1 L 70.6 137.1 L 63.4 141.7 L 56.3 146.1 L 49.4 150.1 L 42.6 154.0 L 36.0 157.6 L 29.5 161.0 L 23.3 164.1 L 20.958885192871094 165.25136795043946 L 20.2 169.1 L 17.2 167.1 L 10.7 156.8 L 12.6 156.0 L 18.7 153.7 L 25.1 151.2 L 29.0 149.6045454978943 L 29.0 48.0 L 38.19750003814697 52.598750019073485 L 41.3 50.5 L 47.8 46.2 L 54.1 42.2 L 60.0 38.3 L 65.6 34.6 L 71.0 31.1 L 75.9 27.8 L 80.6 24.5 L 84.8 21.5 L 88.8 18.5 L 92.35202159881592 23.881850814819337 L 96.1 28.0 L 96.3 31.6 L 92.67687292099 30.04723129272461 L 91.0 31.0 L 86.2 33.7 L 81.1 36.4 L 75.6 39.2 L 69.8 42.0 L 63.7 45.0 L 57.2 47.9 L 50.3 50.9 L 43.1 53.9 L 41.0 54.69090909957886 L 41.0 144.52857141494752 L 45.5 142.6 L 52.8 139.3 L 60.3 135.9 L 68.1 132.4 L 76.1 128.8 L 78.75383358001709 127.66264276504516 L 77.7 123.5 L 75.5 116.0 L 73.1 108.7 L 70.7 101.7 L 68.2 94.9 L 65.7 88.3 L 67.2 87.4 L 71.5 93.1 L 75.5 99.4 L 79.2 106.1 L 82.6 113.3 L 85.7 120.8 L 88.7 128.7 L 91.4 137.0 L 93.9 145.6 L 96.2 154.6 L 98.3 163.9 L 97.3 168.4 L 93.5 170.9 L 89.0 169.9 L 86.5 166.1 L 85.1 156.9 Z " />
</g>
</svg>
