<svg xmlns="http://www.w3.org/2000/svg" xmlns:xlink="http://www.w3.org/1999/xlink" version="1.1" baseProfile="full" viewBox="0 0 200 200" width="200" height="200">
<g fill="black">
<path d="M 185.0 172.0 L 185.0 176.0 L 15.0 176.0 L 15.0 172.0 L 163.0 172.0 L 173.0 162.0 Z M 46.0 154.4 L 34.0 160.4 L 34.0 79.2 L 46.0 85.2 L 94.0 85.2 L 94.0 54.2 L 20.0 54.2 L 20.0 50.2 L 94.0 50.2 L 94.0 17.8 L 106.0 19.8 L 109.0 21.8 L 106.0 23.6 L 106.0 50.2 L 158.0 50.2 L 168.0 40.2 L 180.0 50.2 L 180.0 54.2 L 106.0 54.2 L 106.0 85.2 L 154.0 85.2 L 160.0 80.2 L 171.0 89.2 L 166.0 93.2 L 166.0 148.4 L 154.0 154.4 L 154.0 142.4 L 46.0 142.4 Z M 46.0 89.2 L 46.0 138.4 L 74.0 138.4 L 74.0 89.2 Z M 86.0 138.4 L 114.0 138.4 L 114.0 89.2 L 86.0 89.2 Z M 126.0 89.2 L 126.0 138.4 L 154.0 138.4 L 154.0 89.2 Z " />
</g>
</svg>
