<svg xmlns="http://www.w3.org/2000/svg" xmlns:xlink="http://www.w3.org/1999/xlink" version="1.1" baseProfile="full" viewBox="0 0 200 200" width="200" height="200">
<g fill="black">
<path d="M 145.8 181.5 L 131.7 176.9 L 118.7 171.3 L 106.8 164.9 L 102.4980357170105 161.99219074249268 L 98.5 164.3 L 85.0 170.6 L 70.3 176.2 L 54.5 181.0 L 37.4 184.9 L 19.1 188.0 L 18.8 186.2 L 36.5 181.2 L 52.9 175.9 L 68.0 170.1 L 81.8 163.7 L 94.4 156.9 L 94.85483274459838 156.5994854927063 L 86.5 149.3 L 78.2 140.2 L 71.2 130.2 L 66.05648145675659 120.1 L 47.0 120.1 L 47.0 116.1 L 137.0 116.1 L 137.06339626312257 116.0471697807312 L 137.8 114.9 L 138.1690929412842 115.12575588226318 L 143.0 111.1 L 154.0 120.1 L 149.0 123.1 L 145.68833923339844 124.47985868453979 L 140.6 131.4 L 131.9 140.8 L 122.0 149.4 L 111.38596029281616 156.79192056655884 L 111.4 156.8 L 122.8 162.0 L 135.3 166.4 L 148.7 170.1 L 163.2 172.9 L 178.8 175.0 L 189.0 176.3 L 177.1 188.1 L 160.9 185.3 Z M 68.4731183052063 120.1 L 74.6 127.8 L 82.5 136.3 L 91.3 143.9 L 100.8 150.7 L 102.39476699829102 151.6177433013916 L 105.6 149.5 L 115.6 141.7 L 124.2 133.3 L 131.7 124.4 L 134.46105260848998 120.1 Z M 13.3 120.8 L 12.9 116.3 L 15.7 112.7 L 17.7 111.9 L 19.6 110.7 L 21.4 109.1 L 23.1 107.1 L 24.7 104.6 L 26.2 101.6 L 27.5 98.1 L 28.6 94.1 L 29.6 89.6 L 30.1 84.7 L 31.9 84.6 L 32.5 89.7 L 32.80208330154419 92.6 L 170.0 92.6 L 170.55652170181276 92.13623189926147 L 171.0 91.2 L 171.37275743484497 91.4560354232788 L 176.0 87.6 L 187.0 96.6 L 182.0 99.6 L 177.17931032180786 101.60862064361572 L 175.3 103.3 L 173.2 105.3 L 170.8 107.3 L 168.3 109.4 L 165.7 111.5 L 162.8 113.8 L 159.6 116.0 L 156.6 118.6 L 155.3 117.3 L 157.7 114.2 L 159.7 110.9 L 161.6 107.9 L 163.4 105.0 L 165.1 102.3 L 166.6 99.8 L 167.9 97.4 L 168.33636360168458 96.6 L 33.046666622161865 96.6 L 33.1 99.0 L 32.8 103.3 L 32.0 107.3 L 30.9 111.1 L 29.3 114.7 L 27.1 117.9 L 24.5 120.8 L 21.5 123.2 L 16.9 123.7 Z M 157.6 29.7 L 152.6 33.7 L 152.6 50.3 L 169.4181818008423 50.3 L 177.6 41.3 L 187.6 50.3 L 187.6 54.3 L 152.6 54.3 L 152.6 78.9 L 140.6 84.9 L 140.6 78.9 L 38.0 78.9 L 38.0 74.9 L 140.6 74.9 L 140.6 54.3 L 11.3 54.3 L 11.3 50.3 L 140.6 50.3 L 140.6 29.7 L 40.0 29.7 L 40.0 25.7 L 140.6 25.7 L 146.6 20.7 Z " />
</g>
</svg>
