<svg xmlns="http://www.w3.org/2000/svg" xmlns:xlink="http://www.w3.org/1999/xlink" version="1.1" baseProfile="full" viewBox="0 0 200 200" width="200" height="200">
<g fill="black">
<path d="M 107.9 24.6 L 108.9 28.0 L 105.15272550582885 27.408325099945067 L 103.4 29.2 L 98.5 33.5 L 93.4 37.5 L 87.9 41.3 L 82.1 44.7 L 75.9 47.9 L 69.5 50.7 L 63.06800003051758 53.1 L 154.4 53.1 L 160.4 48.1 L 171.4 57.1 L 166.4 61.1 L 166.4 130.5 L 154.4 136.5 L 154.4 124.5 L 94.8725664138794 124.5 L 90.2 133.3 L 82.8 143.5 L 74.1 152.8 L 64.0 160.9 L 52.7 168.0 L 40.1 173.9 L 26.3 178.6 L 25.6 176.9 L 38.5 170.4 L 49.9 163.4 L 60.0 155.7 L 68.7 147.4 L 76.1 138.4 L 82.2 128.6 L 84.07428569793701 124.5 L 45.5 124.5 L 45.5 136.5 L 33.5 142.5 L 33.5 47.1 L 45.5 53.1 L 51.58235292434692 53.1 L 54.3 51.7 L 60.6 48.2 L 66.6 44.8 L 72.2 41.2 L 77.5 37.6 L 82.4 33.7 L 87.0 29.8 L 91.3 25.6 L 95.1 21.3 L 98.11721315383912 17.612295055389403 L 98.1 17.6 L 99.1 16.4 Z M 45.5 89.8 L 45.5 120.5 L 85.90285711288452 120.5 L 87.0 118.1 L 90.5 106.8 L 92.9 94.6 L 93.3061538696289 89.8 Z M 104.94255323410034 89.8 L 104.1 96.4 L 100.9 109.7 L 96.7731707572937 120.5 L 154.4 120.5 L 154.4 89.8 Z M 45.5 57.1 L 45.5 85.8 L 93.64461536407471 85.8 L 94.0 81.6 L 94.0 57.1 Z M 105.9 82.3 L 105.45319147109986 85.8 L 154.4 85.8 L 154.4 57.1 L 106.0 57.1 L 106.0 82.0 L 105.80377359390259 82.29433965682983 Z " />
</g>
</svg>
