<svg xmlns="http://www.w3.org/2000/svg" xmlns:xlink="http://www.w3.org/1999/xlink" version="1.1" baseProfile="full" viewBox="0 0 200 200" width="200" height="200">
<g fill="black">
<path d="M 59.8 111.6 L 139.1 111.6 L 145.1 106.6 L 156.1 115.6 L 151.1 119.6 L 151.1 176.5 L 139.1 182.5 L 139.1 172.5 L 59.8 172.5 L 59.8 179.5 L 47.8 185.5 L 47.8 105.6 Z M 59.8 144.1 L 59.8 168.5 L 139.1 168.5 L 139.1 144.1 Z M 59.8 115.6 L 59.8 140.1 L 139.1 140.1 L 139.1 115.6 Z M 39.2 100.7 L 27.2 106.7 L 27.2 23.8 L 39.2 29.8 L 158.8 29.8 L 164.8 24.8 L 175.8 33.8 L 170.8 37.8 L 170.8 94.7 L 158.8 100.7 L 158.8 88.7 L 39.2 88.7 Z M 39.2 33.8 L 39.2 84.7 L 93.0 84.7 L 93.0 33.8 Z M 105.0 33.8 L 105.0 84.7 L 158.8 84.7 L 158.8 33.8 Z M 146.5 49.0 L 147.8 52.4 L 143.93973512649535 52.06721858978271 L 141.4 54.9 L 135.8 61.1 L 132.8 64.2 L 129.7 67.3 L 126.4 70.5 L 123.0 73.7 L 115.6 79.9 L 114.2 78.8 L 116.8 74.6 L 119.2 70.5 L 121.7 66.6 L 124.1 62.8 L 126.4 59.1 L 128.6 55.5 L 130.8 52.1 L 132.9 48.7 L 134.8 45.3 L 136.19271230697632 42.95437927246094 L 136.1 42.9 L 137.2 41.4 Z M 65.5 66.8 L 64.1 63.7 L 62.5 60.6 L 60.8 57.6 L 58.9 54.6 L 56.8 51.6 L 54.5 48.6 L 52.1 45.6 L 49.4 42.8 L 50.5 41.4 L 57.5 45.2 L 60.9 47.5 L 64.0 49.9 L 66.9 52.6 L 69.7 55.4 L 72.3 58.5 L 74.7 61.7 L 76.9 65.1 L 78.9 68.6 L 78.8 73.2 L 75.7 76.5 L 71.1 76.5 L 67.8 73.3 L 66.7 70.0 Z " />
</g>
</svg>
