<svg xmlns="http://www.w3.org/2000/svg" xmlns:xlink="http://www.w3.org/1999/xlink" version="1.1" baseProfile="full" viewBox="0 0 200 200" width="200" height="200">
<g fill="black">
<path d="M 95.1 16.2 L 97.0 19.3 L 93.34511518478394 19.74110679626465 L 89.5 27.5 L 83.6 38.1 L 81.75454549789428 41.0 L 154.0 41.0 L 160.0 36.0 L 171.0 45.0 L 166.0 48.0 L 163.94584875106813 48.855896377563475 L 157.1 64.4 L 147.3 82.5 L 136.3 99.3 L 124.0 114.9 L 110.5 129.2 L 95.7 142.2 L 79.7 153.9 L 62.4 164.3 L 44.0 173.3 L 24.3 180.8 L 23.6 179.1 L 42.3 169.9 L 59.7 159.7 L 75.9 148.6 L 90.8 136.4 L 104.4 123.2 L 116.9 108.9 L 128.0 93.6 L 138.0 77.1 L 146.8 59.5 L 152.61550798416138 45.0 L 79.20909090042115 45.0 L 77.3 48.0 L 70.5 57.3 L 63.4 65.9 L 55.8 73.8 L 47.8 81.0 L 39.5 87.4 L 30.6 93.0 L 21.4 97.7 L 20.5 96.2 L 28.5 89.9 L 36.1 83.2 L 43.4 76.1 L 50.3 68.6 L 56.8 60.5 L 63.0 51.8 L 68.8 42.6 L 74.3 32.8 L 79.3 22.5 L 83.6135425567627 12.404474925994872 L 83.6 12.4 L 83.85757579803467 11.83333330154419 L 84.0 11.5 L 84.00762367248535 11.503227996826173 L 84.6 10.2 Z M 32.9 120.9 L 41.3 119.6 L 49.4 118.4 L 57.1 117.3 L 64.4 116.2 L 71.3 115.3 L 77.9 114.3 L 84.1 113.5 L 90.0 112.8 L 95.5 112.3 L 100.7 112.1 L 101.2 113.8 L 96.4 116.0 L 91.2 118.0 L 85.5 119.9 L 79.5 121.8 L 73.1 123.6 L 66.2 125.4 L 59.0 127.2 L 51.4 129.0 L 43.4 130.8 L 39.01883001327515 131.79097890853882 L 37.5 135.3 L 35.0 132.7 L 30.9 121.2 Z M 98.9 91.2 L 95.9 86.9 L 92.7 82.7 L 89.4 78.7 L 85.8 74.9 L 81.9 71.1 L 77.9 67.5 L 73.8 63.9 L 69.4 60.2 L 70.3 58.6 L 75.7 60.6 L 81.0 63.1 L 85.9 65.9 L 90.7 69.1 L 95.2 72.6 L 99.5 76.4 L 103.6 80.5 L 107.5 84.8 L 111.2 89.4 L 114.6 94.3 L 115.2 98.8 L 112.5 102.5 L 107.9 103.1 L 104.3 100.4 L 101.7 95.7 Z " />
</g>
</svg>
