<svg xmlns="http://www.w3.org/2000/svg" xmlns:xlink="http://www.w3.org/1999/xlink" version="1.1" baseProfile="full" viewBox="0 0 200 200" width="200" height="200">
<g fill="black">
<path d="M 16.4 119.9 L 21.7 118.8 L 27.0 117.8 L 30.178361701965333 117.14034004211426 L 31.9 114.1 L 36.4 106.0 L 40.9 98.0 L 45.1 90.2 L 49.2 82.5 L 53.0 75.0 L 56.6 67.5 L 60.0 60.0 L 63.1 52.7 L 65.63309526443481 46.41093587875366 L 65.6 46.4 L 65.92926826477051 45.67560977935791 L 66.0 45.5 L 66.00762367248535 45.50322799682617 L 66.6 44.2 L 77.1 50.2 L 79.0 53.3 L 75.35424413681031 53.740005016326904 L 73.5 57.5 L 69.6 64.8 L 65.5 72.1 L 61.2 79.4 L 56.5 86.8 L 51.6 94.2 L 46.4 101.6 L 40.9 109.0 L 35.145126056671145 116.12043733596802 L 43.1 114.5 L 53.9 112.5 L 59.4 111.5 L 65.0 110.7 L 66.91085195541382 110.49885768890381 L 68.6 102.2 L 69.85806455612183 90.78064517974853 L 70.1 88.2 L 81.8 91.5 L 84.6 93.8 L 81.18401556015014 95.4423002243042 L 79.8 104.3 L 76.7 116.4 L 72.5 127.9 L 67.3 138.8 L 61.0 149.0 L 53.7 158.5 L 45.4 167.2 L 36.1 175.2 L 25.8 182.4 L 14.4 188.7 L 13.5 187.2 L 23.5 179.3 L 32.6 171.2 L 40.7 162.7 L 47.8 153.8 L 53.9 144.4 L 59.0 134.6 L 63.1 124.3 L 66.02327871322632 114.43393440246582 L 60.9 116.7 L 55.7 118.8 L 50.5 120.8 L 40.1 124.6 L 34.9 126.4 L 29.8 128.1 L 23.409718704223632 130.18913040161132 L 22.1 133.9 L 19.4 131.5 L 14.5 120.4 Z M 107.6 181.0 L 95.6 187.0 L 95.6 66.1979591369629 L 92.0 70.9 L 86.8 76.9 L 81.2 82.4 L 75.4 87.6 L 74.1 86.3 L 78.3 80.0 L 82.5 73.6 L 86.6 67.1 L 90.5 60.4 L 94.3 53.5 L 95.6 50.86285715103149 L 95.6 50.0 L 95.94124298095703 50.17062149047852 L 97.8 46.4 L 101.2 39.1 L 104.4 31.6 L 107.4 23.8 L 110.1 15.8 L 110.14554920196534 15.816929817199707 L 110.7 14.4 L 121.4 20.0 L 123.5 22.9 L 119.84187145233155 23.60595464706421 L 117.9 28.1 L 114.2 36.0 L 110.2 43.6 L 106.0 50.9 L 103.94347829818726 54.17173910140991 L 107.6 56.0 L 134.63829784393312 56.0 L 136.0 52.8 L 137.8 48.2 L 139.7 43.8 L 141.5 39.6 L 143.3 35.6 L 144.9 31.8 L 146.5 28.1 L 148.0 24.6 L 149.4 21.3 L 150.31501207351684 19.04766263961792 L 150.2 19.0 L 151.2 17.0 L 161.3 23.6 L 163.1 26.8 L 159.1252449989319 27.0055908203125 L 157.3 29.7 L 155.1 32.9 L 152.8 36.2 L 150.3 39.7 L 147.7 43.3 L 145.0 46.9 L 142.0 50.7 L 138.8 54.5 L 137.5307692527771 56.0 L 161.4 56.0 L 171.4 46.0 L 183.4 56.0 L 183.4 60.0 L 145.9 60.0 L 145.9 92.0 L 159.3 92.0 L 169.3 82.0 L 181.3 92.0 L 181.3 96.0 L 145.9 96.0 L 145.9 129.0 L 159.3 129.0 L 169.3 119.0 L 181.3 129.0 L 181.3 133.0 L 145.9 133.0 L 145.9 170.0 L 165.5 170.0 L 175.5 160.0 L 187.5 170.0 L 187.5 174.0 L 107.6 174.0 Z M 107.6 133.0 L 107.6 170.0 L 133.9 170.0 L 133.9 133.0 Z M 107.6 96.0 L 107.6 129.0 L 133.9 129.0 L 133.9 96.0 Z M 107.6 60.0 L 107.6 92.0 L 133.9 92.0 L 133.9 60.0 Z M 32.1 73.1 L 31.1 70.0 L 29.9 67.0 L 28.3 64.0 L 26.5 61.0 L 24.4 58.1 L 22.1 55.1 L 19.4 52.1 L 16.3 49.2 L 17.3 47.7 L 21.2 49.6 L 25.0 51.6 L 28.5 53.9 L 28.942757987976073 54.24590463638306 L 29.8 52.6 L 32.4 47.9 L 37.6 38.9 L 40.1 34.5 L 42.5 30.2 L 44.8 25.8 L 49.2 17.2 L 50.79821424484253 13.84375 L 50.7 13.8 L 51.7 12.0 L 61.7 18.7 L 63.4 21.9 L 59.6387583732605 22.029697990417482 L 59.1 22.9 L 53.3 31.1 L 50.3 35.2 L 47.1 39.3 L 43.8 43.3 L 40.3 47.3 L 36.7 51.2 L 32.8 54.9 L 31.359945487976074 56.134332466125485 L 31.7 56.4 L 34.6 59.2 L 37.3 62.3 L 39.7 65.5 L 41.8 69.0 L 43.6 72.7 L 45.1 76.6 L 44.3 81.1 L 40.6 83.9 L 36.1 83.1 L 33.4 79.4 L 32.9 76.2 Z " />
</g>
</svg>
