<svg xmlns="http://www.w3.org/2000/svg" xmlns:xlink="http://www.w3.org/1999/xlink" version="1.1" baseProfile="full" viewBox="0 0 200 200" width="200" height="200">
<g fill="black">
<path d="M 15.6 175.1 L 93.5 175.1 L 93.5 136.9 L 31.2 136.9 L 31.2 132.9 L 145.7 132.9 L 155.7 122.9 L 167.7 132.9 L 167.7 136.9 L 105.5 136.9 L 105.5 175.1 L 161.3 175.1 L 171.3 165.1 L 183.3 175.1 L 183.3 179.1 L 15.6 179.1 Z M 187.7 106.0 L 182.7 109.0 L 176.130508518219 111.73728809356689 L 175.9 111.9 L 174.1 113.1 L 172.2 114.4 L 170.2 115.6 L 168.0 116.8 L 165.6 118.0 L 163.4 119.6 L 162.2 118.3 L 164.1 116.4 L 165.5 114.1 L 166.7 112.0 L 167.8 110.1 L 168.8 108.3 L 169.7 106.5 L 169.91875 106.0 L 12.7 106.0 L 12.7 102.0 L 170.7 102.0 L 171.41612901687623 101.40322580337525 L 171.5 100.9 L 171.80519189834595 101.07900676727294 L 176.7 97.0 Z M 28.0 72.0 L 94.0 72.0 L 94.0 42.8 L 16.0 42.8 L 16.0 38.8 L 94.0 38.8 L 94.0 11.6 L 106.0 13.6 L 109.0 15.6 L 106.0 17.4 L 106.0 38.8 L 162.0 38.8 L 172.0 28.8 L 184.0 38.8 L 184.0 42.8 L 106.0 42.8 L 106.0 72.0 L 150.0 72.0 L 160.0 62.0 L 172.0 72.0 L 172.0 76.0 L 28.0 76.0 Z " />
</g>
</svg>
