<svg xmlns="http://www.w3.org/2000/svg" xmlns:xlink="http://www.w3.org/1999/xlink" version="1.1" baseProfile="full" viewBox="0 0 200 200" width="200" height="200">
<g fill="black">
<path d="M 63.06557378768921 112.0 L 141.0 112.0 L 141.0 64.0 L 64.0 64.0 L 64.0 97.0 L 63.3 109.8 Z M 64.0 14.0 L 67.0 16.0 L 64.0 17.8 L 64.0 60.0 L 141.0 60.0 L 141.0 12.0 L 153.0 14.0 L 156.0 16.0 L 153.0 17.8 L 153.0 182.0 L 141.0 188.0 L 141.0 116.0 L 62.639344215393066 116.0 L 62.0 122.0 L 60.1 133.3 L 57.5 143.8 L 54.2 153.6 L 50.3 162.5 L 45.6 170.5 L 40.3 177.6 L 34.2 183.7 L 27.5 188.6 L 26.4 187.3 L 31.5 181.1 L 35.9 174.4 L 39.9 167.2 L 43.3 159.4 L 46.2 150.8 L 48.5 141.6 L 50.2 131.6 L 51.4 120.8 L 52.0 109.3 L 52.0 12.0 Z " />
</g>
</svg>
