<svg xmlns="http://www.w3.org/2000/svg" xmlns:xlink="http://www.w3.org/1999/xlink" version="1.1" baseProfile="full" viewBox="0 0 200 200" width="200" height="200">
<g fill="black">
<path d="M 14.0 176.0 L 68.0 176.0 L 68.0 146.0 L 32.0 146.0 L 32.0 142.0 L 68.0 142.0 L 68.0 113.0 L 23.0 113.0 L 23.0 109.0 L 68.0 109.0 L 68.0 79.0 L 80.0 81.0 L 83.0 83.0 L 80.0 84.8 L 80.0 109.0 L 120.0 109.0 L 120.0 79.15 L 108.9 84.7 L 108.9 16.2 L 120.9 22.2 L 153.0 22.2 L 159.0 17.2 L 170.0 26.2 L 165.0 30.2 L 165.0 72.7 L 153.0 78.7 L 153.0 66.7 L 120.9 66.7 L 120.9 78.7 L 120.225 79.0375 L 132.0 81.0 L 135.0 83.0 L 132.0 84.8 L 132.0 109.0 L 155.0 109.0 L 165.0 99.0 L 177.0 109.0 L 177.0 113.0 L 132.0 113.0 L 132.0 142.0 L 146.0 142.0 L 156.0 132.0 L 168.0 142.0 L 168.0 146.0 L 132.0 146.0 L 132.0 176.0 L 164.0 176.0 L 174.0 166.0 L 186.0 176.0 L 186.0 180.0 L 14.0 180.0 Z M 80.0 146.0 L 80.0 176.0 L 120.0 176.0 L 120.0 146.0 Z M 80.0 113.0 L 80.0 142.0 L 120.0 142.0 L 120.0 113.0 Z M 46.9 22.2 L 79.0 22.2 L 85.0 17.2 L 96.0 26.2 L 91.0 30.2 L 91.0 72.7 L 79.0 78.7 L 79.0 66.7 L 46.9 66.7 L 46.9 78.7 L 34.9 84.7 L 34.9 16.2 Z M 120.9 26.2 L 120.9 62.7 L 153.0 62.7 L 153.0 26.2 Z M 46.9 26.2 L 46.9 62.7 L 79.0 62.7 L 79.0 26.2 Z " />
</g>
</svg>
