<svg xmlns="http://www.w3.org/2000/svg" xmlns:xlink="http://www.w3.org/1999/xlink" version="1.1" baseProfile="full" viewBox="0 0 200 200" width="200" height="200">
<g fill="black">
<path d="M 14.0 175.7 L 94.0 175.7 L 94.0 153.6 L 27.0 153.6 L 27.0 149.6 L 94.0 149.6 L 94.0 131.7 L 106.0 133.7 L 109.0 135.7 L 106.0 137.5 L 106.0 149.6 L 154.8181818008423 149.6 L 163.0 140.6 L 173.0 149.6 L 173.0 153.6 L 106.0 153.6 L 106.0 175.7 L 164.0 175.7 L 174.0 165.7 L 186.0 175.7 L 186.0 179.7 L 14.0 179.7 Z M 173.0 112.5 L 175.0 112.5 L 173.0 125.5 L 175.7 127.3 L 177.5 130.0 L 175.7 132.7 L 173.0 134.5 L 131.5 134.5 L 129.2 134.2 L 126.9 133.6 L 124.7 132.6 L 122.7 131.2 L 121.1 129.3 L 119.7 127.2 L 118.8 124.9 L 118.2 122.5 L 118.0 120.0 L 118.0 102.5 L 82.74615383148193 102.5 L 81.9 107.5 L 79.5 113.5 L 75.9 119.0 L 71.0 123.8 L 65.2 128.1 L 58.3 132.0 L 50.4 135.4 L 41.4 138.4 L 31.3 140.8 L 20.2 142.8 L 19.7 141.1 L 30.2 137.2 L 39.6 133.3 L 47.7 129.4 L 54.6 125.4 L 60.2 121.3 L 64.6 117.1 L 67.8 113.0 L 69.8 109.0 L 70.8 105.0 L 70.925 102.5 L 20.2 102.5 L 20.2 98.5 L 94.0 98.5 L 94.0 81.8 L 35.4 81.8 L 35.4 77.8 L 94.0 77.8 L 94.0 62.2 L 53.7 62.2 L 53.7 65.2 L 41.7 71.2 L 41.7 10.8 L 53.7 16.8 L 146.2 16.8 L 152.2 11.8 L 163.2 20.8 L 158.2 24.8 L 158.2 64.2 L 146.2 70.2 L 146.2 62.2 L 106.0 62.2 L 106.0 77.8 L 146.4181818008423 77.8 L 154.6 68.8 L 164.6 77.8 L 164.6 81.8 L 106.0 81.8 L 106.0 98.5 L 157.8 98.5 L 167.8 88.5 L 179.8 98.5 L 179.8 102.5 L 130.0 102.5 L 130.0 120.0 L 129.9 121.2 L 129.9 122.2 L 130.0 122.9 L 130.0 123.4 L 130.2 123.7 L 130.4 124.1 L 130.8 124.5 L 131.5 124.9 L 132.6 125.2 L 134.0 125.5 L 168.5 125.5 Z M 53.7 41.5 L 53.7 58.2 L 94.0 58.2 L 94.0 41.5 Z M 106.0 41.5 L 106.0 58.2 L 146.2 58.2 L 146.2 41.5 Z M 53.7 20.8 L 53.7 37.5 L 94.0 37.5 L 94.0 20.8 Z M 106.0 20.8 L 106.0 37.5 L 146.2 37.5 L 146.2 20.8 Z " />
</g>
</svg>
