<svg xmlns="http://www.w3.org/2000/svg" xmlns:xlink="http://www.w3.org/1999/xlink" version="1.1" baseProfile="full" viewBox="0 0 200 200" width="200" height="200">
<g fill="black">
<path d="M 14.0 166.0 L 94.0 166.0 L 94.0 61.0 L 22.0 61.0 L 22.0 57.0 L 94.0 57.0 L 94.0 16.0 L 106.0 18.0 L 109.0 20.0 L 106.0 21.8 L 106.0 57.0 L 159.8181818008423 57.0 L 168.0 48.0 L 178.0 57.0 L 178.0 61.0 L 106.0 61.0 L 106.0 166.0 L 164.0 166.0 L 174.0 156.0 L 186.0 166.0 L 186.0 170.0 L 14.0 170.0 Z M 46.6 81.3 L 69.4 81.3 L 75.4 76.3 L 86.4 85.3 L 81.4 89.3 L 81.4 143.6 L 69.4 149.6 L 69.4 137.6 L 46.6 137.6 L 46.6 149.6 L 34.6 155.6 L 34.6 75.3 Z M 130.6 81.3 L 153.4 81.3 L 159.4 76.3 L 170.4 85.3 L 165.4 89.3 L 165.4 143.6 L 153.4 149.6 L 153.4 137.6 L 130.6 137.6 L 130.6 149.6 L 118.6 155.6 L 118.6 75.3 Z M 130.6 85.3 L 130.6 133.6 L 153.4 133.6 L 153.4 85.3 Z M 46.6 85.3 L 46.6 133.6 L 69.4 133.6 L 69.4 85.3 Z " />
</g>
</svg>
