<svg xmlns="http://www.w3.org/2000/svg" xmlns:xlink="http://www.w3.org/1999/xlink" version="1.1" baseProfile="full" viewBox="0 0 200 200" width="200" height="200">
<g fill="black">
<path d="M 141.0 180.0 L 127.0 174.2 L 114.1 167.4 L 102.27847356796265 159.5189824104309 L 101.3 160.2 L 87.5 167.7 L 72.4 174.1 L 56.2 179.3 L 38.7 183.3 L 20.1 186.1 L 19.8 184.3 L 37.9 179.6 L 54.6 174.2 L 69.9 168.0 L 84.0 160.9 L 95.35597829818725 153.7799818992615 L 91.3 150.4 L 81.6 140.3 L 73.0 129.2 L 65.6 117.0 L 60.145454502105714 105.0 L 35.0 105.0 L 35.0 101.0 L 140.0 101.0 L 140.42757005691527 100.64369163513183 L 140.5 100.5 L 140.56404228210448 100.52996473312378 L 146.0 96.0 L 157.0 105.0 L 152.0 108.0 L 149.44226293563844 109.06572380065919 L 144.0 118.7 L 135.2 130.8 L 125.2 141.7 L 113.8 151.5 L 110.77293252944946 153.60683898925782 L 119.0 158.4 L 131.4 164.1 L 144.7 168.9 L 158.9 172.6 L 174.0 175.3 L 183.7 176.9 L 171.9 188.4 L 155.9 184.7 Z M 62.555932235717776 105.0 L 69.2 114.8 L 77.7 125.6 L 86.8 135.3 L 96.8 144.0 L 102.76672744750977 148.29381322860718 L 108.0 144.3 L 118.0 134.7 L 126.8 124.2 L 134.3 112.8 L 138.2317072868347 105.0 Z M 161.0 28.0 L 156.0 32.0 L 156.0 81.0 L 144.0 87.0 L 144.0 77.0 L 40.0 77.0 L 40.0 73.0 L 144.0 73.0 L 144.0 28.0 L 41.0 28.0 L 41.0 24.0 L 144.0 24.0 L 150.0 19.0 Z " />
</g>
</svg>
