<svg xmlns="http://www.w3.org/2000/svg" xmlns:xlink="http://www.w3.org/1999/xlink" version="1.1" baseProfile="full" viewBox="0 0 200 200" width="200" height="200">
<g fill="black">
<path d="M 65.1 86.2 L 63.0 83.2 L 60.5 80.2 L 57.6 77.2 L 54.4 74.1 L 50.8 71.0 L 46.9 67.9 L 42.6 64.6 L 39.74569721221924 62.59591503143311 L 39.2 63.7 L 34.6 71.9 L 29.8 79.4 L 24.6 86.3 L 19.0 92.5 L 13.1 97.9 L 11.8 96.7 L 16.0 90.1 L 20.2 83.2 L 24.1 76.0 L 27.9 68.3 L 31.5 60.1 L 34.9 51.4 L 38.0 42.2 L 40.9 32.5 L 43.6 22.2 L 46.1 11.4 L 46.12110004425049 11.40504961013794 L 46.5 9.7 L 57.8 14.2 L 60.2 16.9 L 56.71069955825806 17.97851104736328 L 54.6 25.3 L 51.2 35.7 L 49.81717176437378 39.4 L 89.3 39.4 L 95.3 34.4 L 106.3 43.4 L 101.3 46.4 L 100.64697675704956 46.67209300994873 L 98.7 60.9 L 94.7 79.0 L 89.4 96.1 L 82.6 112.3 L 74.6 127.5 L 65.2 141.7 L 54.4 154.9 L 42.3 167.0 L 28.9 178.0 L 14.1 187.8 L 13.1 186.3 L 26.5 175.1 L 38.6 163.2 L 49.4 150.7 L 58.9 137.4 L 67.2 123.4 L 74.2 108.6 L 79.8 92.9 L 84.3 76.4 L 87.4 59.1 L 89.03901100158691 43.4 L 48.8 43.4 L 48.8 42.12162160873413 L 47.5 45.6 L 43.5 55.0 L 40.832128047943115 60.3977873802185 L 44.2 61.5 L 49.4 63.5 L 54.2 65.7 L 58.7 68.2 L 62.9 70.8 L 66.7 73.6 L 70.2 76.5 L 73.4 79.6 L 76.2 82.8 L 78.7 86.3 L 79.1 90.8 L 76.3 94.4 L 71.8 94.9 L 68.2 92.0 L 66.8 89.2 Z M 138.0 15.0 L 141.0 17.0 L 138.0 18.8 L 138.0 49.0 L 137.0 68.2 L 135.72584266662597 79.0 L 166.0 79.0 L 176.0 69.0 L 188.0 79.0 L 188.0 83.0 L 135.25393257141113 83.0 L 134.9 86.0 L 131.4 102.2 L 126.7 117.0 L 120.8 130.3 L 113.5 142.0 L 105.0 152.1 L 95.2 160.5 L 84.3 167.1 L 72.3 171.8 L 71.6 170.1 L 82.4 163.8 L 91.9 156.3 L 100.1 147.7 L 107.2 137.8 L 113.1 126.6 L 118.0 114.0 L 121.7 99.9 L 124.2 84.4 L 124.3235294342041 83.0 L 100.0 83.0 L 100.0 79.0 L 124.6764705657959 79.0 L 125.7 67.4 L 126.0 49.0 L 126.0 13.0 Z M 167.0 150.9 L 164.1 144.5 L 160.9 138.3 L 157.6 132.3 L 154.0 126.4 L 150.3 120.8 L 146.3 115.2 L 142.3 109.7 L 138.1 104.3 L 139.3 103.0 L 145.0 107.1 L 150.3 111.6 L 155.4 116.6 L 160.1 121.9 L 164.6 127.6 L 168.9 133.5 L 172.9 139.7 L 176.6 146.2 L 180.2 152.9 L 183.4 160.0 L 183.3 164.5 L 180.1 167.7 L 175.5 167.6 L 172.3 164.4 L 169.7 157.5 Z M 20.0 126.4 L 25.3 124.4 L 30.5 122.2 L 41.1 117.6 L 46.3 115.1 L 62.2 107.3 L 67.7 104.6 L 73.2 102.0 L 74.2 103.5 L 69.8 107.8 L 65.1 111.8 L 60.4 115.5 L 55.5 119.1 L 50.5 122.5 L 45.5 125.7 L 40.4 128.8 L 35.3 131.8 L 30.1 134.7 L 28.540617561340333 135.50967931747437 L 27.9 139.3 L 24.9 137.4 L 18.2 127.2 Z M 166.7 50.8 L 165.1 47.6 L 163.3 44.4 L 161.4 41.3 L 159.2 38.2 L 156.8 35.2 L 154.2 32.2 L 151.4 29.1 L 148.3 26.2 L 149.3 24.7 L 157.1 28.5 L 160.7 30.8 L 164.2 33.3 L 167.4 36.0 L 170.4 39.0 L 173.2 42.1 L 175.8 45.5 L 178.1 49.1 L 180.3 52.8 L 180.3 57.4 L 177.1 60.7 L 172.6 60.7 L 169.3 57.6 L 168.1 54.2 Z " />
</g>
</svg>
