<svg xmlns="http://www.w3.org/2000/svg" xmlns:xlink="http://www.w3.org/1999/xlink" version="1.1" baseProfile="full" viewBox="0 0 200 200" width="200" height="200">
<g fill="black">
<path d="M 91.5 24.4 L 94.0 27.0 L 90.42514286041259 28.085224533081053 L 88.0 36.4 L 84.1 48.1 L 80.36578950881957 58.0 L 143.0 58.0 L 149.0 53.0 L 160.0 62.0 L 155.0 65.0 L 153.77840270996094 65.50899887084961 L 151.0 77.5 L 146.6 93.1 L 141.7 107.8 L 136.1 121.8 L 130.0 135.0 L 123.4 147.3 L 116.1 158.8 L 108.2 169.4 L 99.7 179.0 L 90.6 187.6 L 89.3 186.3 L 96.8 176.5 L 103.9 166.2 L 110.5 155.3 L 116.7 143.7 L 122.4 131.4 L 127.5 118.4 L 132.2 104.6 L 136.3 90.1 L 139.9 74.9 L 142.4639751434326 62.0 L 78.74144144058228 62.0 L 75.1 70.6 L 70.0 81.5 L 64.5 92.0 L 58.5 102.2 L 52.1 112.0 L 45.1 121.5 L 37.7 130.5 L 36.2 129.4 L 42.0 119.4 L 47.5 109.2 L 52.7 99.0 L 57.7 88.6 L 62.3 77.9 L 66.5 67.1 L 70.4 56.0 L 73.9 44.8 L 77.1 33.2 L 79.65845031738282 22.509332370758056 L 79.6 22.5 L 80.3 19.8 Z " />
</g>
</svg>
