<svg xmlns="http://www.w3.org/2000/svg" xmlns:xlink="http://www.w3.org/1999/xlink" version="1.1" baseProfile="full" viewBox="0 0 200 200" width="200" height="200">
<g fill="black">
<path d="M 22.4 172.9 L 38.0 171.8 L 38.0 42.0 L 49.30117645263672 47.65058822631836 L 60.5 44.7 L 76.3 40.7 L 91.1 36.8 L 105.0 33.2 L 118.0 29.7 L 129.9 26.2 L 140.9 22.9 L 150.9 19.7 L 160.0 16.6 L 167.11431350708008 13.93213243484497 L 167.1 13.9 L 167.13020133972168 13.926174449920655 L 168.0 13.6 L 168.55148935317993 15.157957458496094 L 177.6 23.0 L 177.8 26.1 L 173.77500848770143 24.29776496887207 L 172.0 24.9 L 163.4 27.5 L 154.0 30.0 L 143.6 32.6 L 132.2 35.2 L 120.0 37.9 L 106.7 40.6 L 92.5 43.3 L 77.4 45.9 L 61.2 48.4 L 50.0 49.97192983627319 L 50.0 101.0 L 153.0 101.0 L 163.0 91.0 L 175.0 101.0 L 175.0 105.0 L 50.0 105.0 L 50.0 170.95384616851806 L 53.6 170.7 L 69.2 169.5 L 84.7 168.4 L 100.3 167.2 L 115.8 166.0 L 146.8 163.8 L 162.3 162.8 L 177.8 162.1 L 178.1 163.8 L 162.8 166.6 L 147.4 169.1 L 132.0 171.4 L 116.6 173.6 L 101.1 175.6 L 85.7 177.6 L 70.1 179.5 L 54.6 181.4 L 39.1 183.1 L 27.525860023498534 184.3612844467163 L 25.7 187.7 L 23.5 184.8 L 20.4 173.1 Z " />
</g>
</svg>
