<svg xmlns="http://www.w3.org/2000/svg" xmlns:xlink="http://www.w3.org/1999/xlink" version="1.1" baseProfile="full" viewBox="0 0 200 200" width="200" height="200">
<g fill="black">
<path d="M 164.5 182.3 L 162.7 183.9 L 160.7 185.2 L 158.6 186.4 L 156.4 187.3 L 154.2 188.0 L 151.8 188.5 L 149.4 188.9 L 147.0 189.0 L 147.0 183.0 L 127.0 180.0 L 127.0 177.0 L 147.0 177.0 L 148.4 176.9 L 149.8 176.7 L 151.1 176.4 L 152.2 176.1 L 153.3 175.6 L 154.4 175.0 L 155.4 174.3 L 156.4 173.5 L 157.4 172.5 L 158.4 171.4 L 159.2 170.0 L 160.2 167.7 L 161.1 164.6 L 161.9 160.7 L 162.5 156.1 L 163.0 150.7 L 163.3 144.6 L 163.4 137.8 L 163.31982078552247 131.86674127578735 L 163.0 132.0 L 163.0 124.0 L 62.0 124.0 L 62.0 136.0 L 50.0 142.0 L 50.0 30.0 L 62.0 36.0 L 86.129629611969 36.0 L 86.9 34.7 L 88.3 31.8 L 89.7 29.0 L 92.5 23.6 L 94.0 20.9 L 95.4 18.3 L 96.7 15.6 L 98.1 13.0 L 98.97761192321778 11.244776153564453 L 98.9 11.2 L 99.3 10.6 L 99.4 10.4 L 99.42286376953125 10.415704345703125 L 99.9 9.7 L 109.3 17.2 L 110.6 20.5 L 106.48976373672485 20.287401580810545 L 105.2 21.7 L 100.8 26.1 L 98.6 28.2 L 96.3 30.3 L 91.5 34.5 L 89.52631578445434 36.0 L 139.0 36.0 L 145.0 31.0 L 156.0 40.0 L 151.0 44.0 L 151.0 86.0 L 139.0 92.0 L 139.0 84.0 L 62.0 84.0 L 62.0 100.0 L 166.8181818008423 100.0 L 175.0 91.0 L 185.0 100.0 L 185.0 104.0 L 62.0 104.0 L 62.0 120.0 L 163.0 120.0 L 169.0 115.0 L 180.0 124.0 L 175.08741254806517 126.94755249023437 L 175.2 130.1 L 175.4 137.8 L 175.3 145.0 L 175.0 151.5 L 174.4 157.4 L 173.7 162.7 L 172.7 167.5 L 171.5 171.7 L 169.9 175.4 L 167.8 178.7 L 166.2 180.6 Z M 62.0 62.0 L 62.0 80.0 L 139.0 80.0 L 139.0 62.0 Z M 62.0 40.0 L 62.0 58.0 L 139.0 58.0 L 139.0 40.0 Z " />
</g>
</svg>
