<svg xmlns="http://www.w3.org/2000/svg" xmlns:xlink="http://www.w3.org/1999/xlink" version="1.1" baseProfile="full" viewBox="0 0 200 200" width="200" height="200">
<g fill="black">
<path d="M 141.7 162.4 L 137.1 156.5 L 132.2 150.8 L 132.0329571723938 150.61985578536988 L 131.5 150.9 L 123.2 154.9 L 114.4 158.7 L 105.3 162.5 L 95.8 166.2 L 85.9 169.8 L 75.6 173.5 L 65.0 177.1 L 54.0 180.8 L 46.45318069458008 183.18320608139038 L 45.3 186.8 L 42.6 184.4 L 37.3 173.5 L 39.2 172.9 L 50.7 169.9 L 51.0 169.81891889572142 L 51.0 20.0 L 63.0 26.0 L 141.0 26.0 L 147.0 21.0 L 158.0 30.0 L 153.0 34.0 L 153.0 110.0 L 141.0 116.0 L 141.0 104.0 L 63.0 104.0 L 63.0 166.5666666984558 L 72.6 163.9 L 83.0 161.0 L 93.1 158.1 L 102.8 155.3 L 112.2 152.5 L 121.3 149.9 L 129.26677026748658 147.6367130279541 L 127.1 145.3 L 121.8 140.0 L 116.2 134.9 L 110.5 130.0 L 104.5 125.1 L 98.4 120.2 L 99.3 118.7 L 106.5 121.9 L 113.5 125.6 L 120.2 129.7 L 126.7 134.2 L 132.9 139.1 L 138.8 144.3 L 144.5 149.8 L 150.0 155.6 L 155.2 161.7 L 160.2 168.1 L 161.1 172.6 L 158.6 176.4 L 154.2 177.3 L 150.3 174.9 L 146.1 168.5 Z M 63.0 65.0 L 63.0 100.0 L 141.0 100.0 L 141.0 65.0 Z M 63.0 30.0 L 63.0 61.0 L 141.0 61.0 L 141.0 30.0 Z " />
</g>
</svg>
