<svg xmlns="http://www.w3.org/2000/svg" xmlns:xlink="http://www.w3.org/1999/xlink" version="1.1" baseProfile="full" viewBox="0 0 200 200" width="200" height="200">
<g fill="black">
<path d="M 138.0 176.6 L 158.0 176.6 L 159.2 176.5 L 160.1 176.3 L 161.0 176.0 L 161.4 175.6 L 161.7 174.7 L 161.9 173.8 L 162.0 172.6 L 162.0 52.3 L 38.0 52.3 L 38.0 183.0 L 26.0 189.0 L 26.0 42.3 L 38.0 48.3 L 54.860975646972655 48.3 L 56.5 46.2 L 59.5 42.2 L 62.7 38.3 L 65.7 34.5 L 68.7 30.8 L 71.7 27.0 L 74.5 23.2 L 77.3 19.5 L 80.0 15.8 L 82.03608808517455 12.824178981781007 L 82.0 12.8 L 82.275 12.475 L 82.6 12.0 L 82.64592084884643 12.03663902282715 L 83.1 11.5 L 92.0 19.5 L 93.2 22.9 L 89.37392826080323 22.372266006469726 L 88.8 23.0 L 85.5 26.4 L 82.0 29.9 L 78.5 33.2 L 71.1 39.8 L 67.2 42.9 L 63.2 46.0 L 59.868965530395506 48.3 L 162.0 48.3 L 168.0 43.3 L 179.0 52.3 L 174.0 56.3 L 174.0 172.6 L 173.8 175.1 L 173.4 177.6 L 172.6 180.0 L 171.3 182.3 L 169.7 184.3 L 167.7 185.9 L 165.4 187.2 L 163.0 188.0 L 160.5 188.4 L 158.0 188.6 L 158.0 182.6 L 138.0 179.6 Z " />
</g>
</svg>
