<svg xmlns="http://www.w3.org/2000/svg" xmlns:xlink="http://www.w3.org/1999/xlink" version="1.1" baseProfile="full" viewBox="0 0 200 200" width="200" height="200">
<g fill="black">
<path d="M 133.4 182.8 L 130.9 182.4 L 128.5 181.6 L 126.2 180.3 L 124.2 178.7 L 122.6 176.7 L 121.3 174.4 L 120.5 172.0 L 120.1 169.5 L 120.0 167.0 L 120.0 105.0 L 79.83333330154419 105.0 L 79.0 115.0 L 76.7 126.4 L 73.2 137.1 L 68.3 147.1 L 62.1 156.2 L 54.8 164.5 L 46.2 171.9 L 36.4 178.5 L 25.4 184.1 L 13.3 188.8 L 12.6 187.1 L 23.6 180.7 L 33.4 174.0 L 41.9 166.9 L 49.2 159.3 L 55.3 151.2 L 60.1 142.7 L 63.8 133.6 L 66.3 124.0 L 67.7 113.8 L 67.9444444656372 105.0 L 14.0 105.0 L 14.0 101.0 L 68.0 101.0 L 68.0 41.0 L 21.0 41.0 L 21.0 37.0 L 157.0 37.0 L 167.0 27.0 L 179.0 37.0 L 179.0 41.0 L 132.0 41.0 L 132.0 101.0 L 164.0 101.0 L 174.0 91.0 L 186.0 101.0 L 186.0 105.0 L 132.0 105.0 L 132.0 168.2 L 132.2 169.1 L 132.5 170.0 L 132.9 170.4 L 133.8 170.7 L 134.7 170.9 L 136.0 171.0 L 176.0 171.0 L 182.0 146.0 L 184.0 146.0 L 182.0 171.0 L 185.6 173.4 L 188.0 177.0 L 185.6 180.6 L 182.0 183.0 L 136.0 183.0 Z M 80.0 41.0 L 80.0 101.0 L 120.0 101.0 L 120.0 41.0 Z " />
</g>
</svg>
