<svg xmlns="http://www.w3.org/2000/svg" xmlns:xlink="http://www.w3.org/1999/xlink" version="1.1" baseProfile="full" viewBox="0 0 200 200" width="200" height="200">
<g fill="black">
<path d="M 70.0 176.1 L 90.0 176.1 L 91.2 176.0 L 92.1 175.8 L 93.0 175.5 L 93.4 175.1 L 93.7 174.2 L 93.9 173.3 L 94.0 172.1 L 94.0 125.76585369110107 L 92.3 127.3 L 84.2 134.3 L 76.4 140.8 L 68.9 146.9 L 61.6 152.6 L 54.7 158.0 L 48.0 163.0 L 41.7 167.7 L 35.7 172.1 L 33.40810136795044 173.70834989547728 L 33.3 177.6 L 30.0 176.1 L 21.9 167.0 L 23.6 166.0 L 29.5 162.6 L 35.8 158.8 L 42.4 154.8 L 49.4 150.4 L 56.7 145.7 L 64.4 140.7 L 72.5 135.5 L 81.0 130.0 L 90.0 124.3 L 94.0 121.8319149017334 L 94.0 57.9 L 106.0 59.9 L 109.0 61.9 L 106.0 63.7 L 106.0 124.37191009521484 L 110.1 125.8 L 115.66470584869384 128.06470584869385 L 115.3 127.7 L 118.1 123.2 L 120.9 118.8 L 123.7 114.6 L 126.4 110.4 L 129.0 106.4 L 131.5 102.3 L 133.9 98.4 L 138.3 90.6 L 139.8623785018921 87.63148078918456 L 139.8 87.6 L 140.8 85.9 L 150.5 93.0 L 152.1 96.3 L 148.18108110427858 96.3 L 147.9 96.7 L 145.0 100.4 L 142.0 104.1 L 138.9 107.8 L 135.7 111.5 L 128.7 118.7 L 124.9 122.2 L 120.9 125.7 L 117.07227725982666 128.63755464553833 L 118.7 129.3 L 126.8 133.3 L 134.5 137.5 L 141.9 142.1 L 149.0 147.0 L 155.7 152.2 L 162.0 157.6 L 168.0 163.4 L 173.7 169.4 L 175.0 173.8 L 172.9 177.8 L 168.5 179.1 L 164.4 177.0 L 159.6 171.1 L 154.5 165.3 L 149.0 159.7 L 143.2 154.3 L 137.0 149.0 L 130.4 143.9 L 123.4 138.9 L 116.1 134.0 L 108.5 129.2 L 106.0 127.66875 L 106.0 172.1 L 105.8 174.6 L 105.4 177.1 L 104.6 179.5 L 103.3 181.8 L 101.7 183.8 L 99.7 185.5 L 97.4 186.7 L 95.0 187.5 L 92.5 187.9 L 90.0 188.1 L 90.0 182.1 L 70.0 179.1 Z M 64.3 114.7 L 62.6 111.3 L 60.7 107.9 L 58.7 104.5 L 56.5 101.2 L 54.1 97.8 L 51.6 94.5 L 49.0 91.1 L 46.2 87.8 L 47.3 86.4 L 51.1 88.6 L 54.9 91.0 L 58.5 93.6 L 61.8 96.4 L 65.0 99.4 L 67.9 102.5 L 70.7 105.8 L 73.4 109.3 L 75.8 112.8 L 78.1 116.5 L 78.3 121.1 L 75.2 124.5 L 70.7 124.7 L 67.2 121.7 L 65.9 118.2 Z M 158.1 82.3 L 149.4 76.5 L 141.0 70.1 L 132.9 63.2 L 125.1 55.7 L 117.6 47.7 L 110.5 39.0 L 103.9 29.7 L 101.82534523010254 26.33293743133545 L 99.2 30.2 L 91.4 40.5 L 83.0 50.2 L 74.2 59.2 L 64.9 67.6 L 55.2 75.4 L 44.9 82.5 L 34.2 88.8 L 23.0 94.4 L 11.3 99.2 L 10.6 97.6 L 21.2 91.1 L 31.4 84.3 L 41.1 77.1 L 50.4 69.5 L 59.2 61.4 L 67.6 52.8 L 75.4 43.6 L 82.8 34.0 L 89.8 23.8 L 96.3 13.1 L 96.8 12.2 L 106.6 19.3 L 108.1 22.6 L 104.35963306427001 22.6 L 103.77615165710449 23.45945234298706 L 107.2 27.1 L 115.0 35.1 L 122.8 42.6 L 130.8 49.6 L 138.8 56.0 L 147.0 61.9 L 155.4 67.3 L 164.0 72.0 L 172.7 76.3 L 181.5 80.0 L 187.8 82.7 L 176.4 92.2 L 167.1 87.5 Z " />
</g>
</svg>
