<svg xmlns="http://www.w3.org/2000/svg" xmlns:xlink="http://www.w3.org/1999/xlink" version="1.1" baseProfile="full" viewBox="0 0 200 200" width="200" height="200">
<g fill="black">
<path d="M 106.0 148.0 L 162.0 148.0 L 172.0 138.0 L 184.0 148.0 L 184.0 152.0 L 106.0 152.0 L 106.0 183.0 L 94.0 189.0 L 94.0 152.0 L 16.0 152.0 L 16.0 148.0 L 94.0 148.0 L 94.0 116.0 L 25.0 116.0 L 25.0 112.0 L 54.0 112.0 L 54.0 75.0 L 15.0 75.0 L 15.0 71.0 L 54.0 71.0 L 54.0 34.0 L 30.0 34.0 L 30.0 30.0 L 148.0 30.0 L 158.0 20.0 L 170.0 30.0 L 170.0 34.0 L 146.0 34.0 L 146.0 71.0 L 163.0 71.0 L 173.0 61.0 L 185.0 71.0 L 185.0 75.0 L 146.0 75.0 L 146.0 112.0 L 153.0 112.0 L 163.0 102.0 L 175.0 112.0 L 175.0 116.0 L 106.0 116.0 Z M 66.0 75.0 L 66.0 112.0 L 94.0 112.0 L 94.0 75.0 Z M 106.0 75.0 L 106.0 112.0 L 134.0 112.0 L 134.0 75.0 Z M 66.0 34.0 L 66.0 71.0 L 94.0 71.0 L 94.0 34.0 Z M 106.0 34.0 L 106.0 71.0 L 134.0 71.0 L 134.0 34.0 Z " />
</g>
</svg>
