<svg xmlns="http://www.w3.org/2000/svg" xmlns:xlink="http://www.w3.org/1999/xlink" version="1.1" baseProfile="full" viewBox="0 0 200 200" width="200" height="200">
<g fill="black">
<path d="M 164.7 181.9 L 153.9 176.4 L 141.8 167.7 L 134.59397592544556 160.49397592544557 L 126.1 167.0 L 116.3 173.4 L 106.0 178.9 L 95.2 183.5 L 83.9 187.2 L 72.2 189.8 L 71.7 188.1 L 82.7 183.6 L 93.0 178.6 L 102.9 173.1 L 112.2 167.0 L 121.0 160.3 L 128.29848680496215 153.79291534423828 L 117.2 138.2 L 106.4 116.2 L 102.91014490127563 105.0 L 14.0 105.0 L 14.0 101.0 L 101.66376810073852 101.0 L 97.8 88.6 L 92.0 54.7 L 90.0489396095276 14.99592170715332 L 90.0 15.0 L 90.0 11.6 L 102.0 14.0 L 105.0 16.0 L 102.18719215393067 17.687684726715087 L 104.0 53.4 L 109.5 85.8 L 114.23538465499878 101.0 L 146.4333333015442 101.0 L 144.3 99.4 L 143.7 97.7 L 143.0 96.0 L 142.1 94.2 L 141.0 92.5 L 139.7 90.8 L 138.3 89.0 L 136.7 87.2 L 134.9 85.4 L 133.75714282989503 84.37142858505248 L 131.9 84.8 L 127.1 85.8 L 122.8 86.6 L 119.56857147216797 87.18000001907349 L 117.5 90.8 L 115.3 87.9 L 112.6 76.0 L 114.6 75.9 L 117.9 76.0 L 121.7 75.9 L 125.9 75.8 L 127.16381273269653 75.74622077941895 L 128.9 73.7 L 134.2 67.5 L 139.3 61.8 L 144.0 56.3 L 148.5 51.2 L 152.6 46.3 L 156.4 41.8 L 159.9 37.5 L 163.0 33.6 L 165.15862941741943 30.641878128051758 L 165.1 30.6 L 166.1 29.4 L 174.9 37.6 L 175.9 41.0 L 172.17140941619874 40.41127519607544 L 171.6 41.0 L 167.8 44.7 L 163.8 48.6 L 159.4 52.8 L 154.6 57.1 L 149.4 61.7 L 143.9 66.4 L 137.9 71.4 L 132.84624376296998 75.4272120475769 L 135.8 75.2 L 141.5 74.8 L 147.6 74.4 L 154.2 73.9 L 161.2 73.4 L 166.83870964050294 73.1774193763733 L 166.1 71.7 L 164.7 69.2 L 163.1 66.6 L 161.3 64.1 L 159.5 61.5 L 157.2 59.3 L 158.3 57.8 L 161.2 59.4 L 164.2 61.0 L 167.0 62.8 L 169.6 64.8 L 172.2 67.1 L 174.5 69.5 L 176.7 72.1 L 178.8 74.9 L 180.7 77.9 L 182.5 81.0 L 182.3 85.5 L 179.0 88.7 L 174.5 88.6 L 171.3 85.3 L 170.5 82.5 L 169.6 79.7 L 168.6 77.0 L 167.812903213501 75.2290322303772 L 161.9 77.2 L 155.1 79.2 L 142.7 82.3 L 139.66271190643312 83.00508470535279 L 141.9 83.9 L 144.4 85.0 L 146.7 86.4 L 148.9 87.9 L 150.9 89.5 L 152.8 91.3 L 154.6 93.3 L 155.2 97.9 L 152.875 101.0 L 164.0 101.0 L 174.0 91.0 L 186.0 101.0 L 186.0 105.0 L 115.48153848648072 105.0 L 117.6 111.8 L 127.5 132.1 L 136.78103017807007 145.1275011062622 L 137.0 144.9 L 144.3 136.2 L 151.0 126.8 L 156.80075302124024 117.50038003921509 L 156.8 117.5 L 157.8 115.8 L 167.5 122.9 L 169.1 126.2 L 165.23714284896852 126.2 L 160.3 133.4 L 152.6 143.0 L 144.3 151.8 L 143.51428575515746 152.51428575515746 L 149.5 158.5 L 160.0 166.1 L 169.3 170.8 L 174.5589949607849 172.57768840789794 L 180.0 149.0 L 182.0 149.0 L 180.0831792831421 173.91866912841797 L 180.5 174.0 L 184.5 176.1 L 185.9 180.5 L 183.8 184.5 L 179.4 185.9 L 173.4 184.8 Z M 77.1 83.0 L 76.6 80.7 L 75.98888893127442 78.86666669845582 L 72.1 80.2 L 65.3 82.2 L 58.8 83.8 L 52.6 85.3 L 46.8 86.6 L 41.2 87.8 L 36.0 88.8 L 31.1 89.6 L 26.5 90.3 L 26.487684154510497 90.30171852111816 L 24.4 93.8 L 22.2 90.9 L 19.7 79.0 L 21.7 78.9 L 25.7 79.0 L 30.1 78.9 L 34.9 78.8 L 38.01485147476196 78.68019800186157 L 40.1 75.9 L 44.7 69.9 L 49.2 64.2 L 53.5 58.8 L 57.6 53.6 L 61.5 48.6 L 65.2 43.9 L 68.6 39.3 L 71.7 35.1 L 74.02316732406616 31.81552209854126 L 74.0 31.8 L 74.20810813903809 31.554054069519044 L 74.6 31.0 L 74.64592084884643 31.03663902282715 L 75.1 30.5 L 84.0 38.5 L 85.1 41.9 L 81.34541063308716 41.382125568389895 L 80.5 42.3 L 76.8 46.3 L 72.8 50.4 L 68.5 54.7 L 63.9 59.2 L 59.1 63.9 L 54.0 68.7 L 48.6 73.6 L 43.04876890182495 78.38554410934448 L 45.6 78.2 L 51.5 77.8 L 57.8 77.4 L 64.4 76.9 L 71.4 76.4 L 75.01289663314819 76.25353126525879 L 74.8 75.7 L 73.6 73.0 L 72.1 70.2 L 70.4 67.3 L 68.5 64.2 L 66.1 61.3 L 67.3 60.0 L 70.4 62.4 L 73.5 64.5 L 76.3 66.8 L 78.8 69.1 L 81.2 71.5 L 83.3 74.0 L 85.1 76.6 L 86.8 79.3 L 88.1 82.0 L 89.2 84.8 L 88.3 89.3 L 84.5 91.9 L 80.1 91.0 L 77.5 87.2 L 77.4 85.2 Z M 126.8 52.5 L 125.3 50.3 L 123.6 48.1 L 121.8 45.9 L 119.9 43.7 L 117.8 41.5 L 115.5 39.4 L 113.2 37.1 L 110.4 35.2 L 111.2 33.6 L 114.4 34.8 L 117.7 35.8 L 120.8 37.0 L 123.8 38.4 L 126.6 40.0 L 127.78631076812744 40.72026014328003 L 127.8 40.7 L 129.9 37.0 L 132.0 33.5 L 133.9 30.2 L 135.7 27.0 L 137.4 24.1 L 138.8 21.3 L 140.2 18.6 L 141.3 16.1 L 141.8901803970337 14.742585182189941 L 141.8 14.7 L 142.8 12.9 L 152.6 19.8 L 154.2 23.1 L 149.97391300201417 23.1 L 148.9 24.4 L 146.7 26.8 L 144.4 29.3 L 139.3 34.4 L 136.4 37.1 L 133.3 39.8 L 130.29225091934205 42.35202951431275 L 132.0 43.6 L 134.5 45.6 L 136.9 47.7 L 139.1 50.0 L 140.1 54.5 L 137.7 58.4 L 133.2 59.4 L 129.3 57.0 L 128.1 54.7 Z M 37.8 52.5 L 36.2 50.3 L 34.5 48.1 L 32.6 45.9 L 30.6 43.8 L 28.3 41.6 L 25.9 39.4 L 23.4 37.1 L 20.5 35.2 L 21.2 33.6 L 24.6 34.7 L 28.0 35.7 L 31.3 37.0 L 34.4 38.4 L 37.3 39.9 L 40.04008073806763 41.60073976516723 L 40.6 40.7 L 42.5 37.0 L 44.4 33.5 L 46.2 30.3 L 47.9 27.1 L 49.5 24.1 L 52.2 18.7 L 53.3 16.1 L 53.89018039703369 14.742585182189941 L 53.8 14.7 L 54.8 12.9 L 64.6 19.8 L 66.2 23.1 L 61.99090909957886 23.1 L 60.9 24.3 L 58.9 26.7 L 56.6 29.2 L 54.2 31.7 L 51.7 34.3 L 48.9 37.0 L 46.0 39.8 L 42.8 42.5 L 42.21818180084229 43.04545450210571 L 42.9 43.5 L 45.4 45.5 L 47.8 47.7 L 50.1 50.0 L 51.1 54.5 L 48.7 58.4 L 44.2 59.4 L 40.3 57.0 L 39.1 54.8 Z " />
</g>
</svg>
