<svg xmlns="http://www.w3.org/2000/svg" xmlns:xlink="http://www.w3.org/1999/xlink" version="1.1" baseProfile="full" viewBox="0 0 200 200" width="200" height="200">
<g fill="black">
<path d="M 122.0 175.0 L 142.0 175.0 L 143.2 174.9 L 144.1 174.7 L 145.0 174.4 L 145.4 174.0 L 145.7 173.1 L 145.9 172.2 L 146.0 171.0 L 146.0 119.0 L 54.0 119.0 L 54.0 182.0 L 42.0 188.0 L 42.0 21.0 L 54.0 27.0 L 146.0 27.0 L 152.0 22.0 L 163.0 31.0 L 158.0 35.0 L 158.0 171.0 L 157.8 173.5 L 157.4 176.0 L 156.6 178.4 L 155.3 180.7 L 153.7 182.7 L 151.7 184.3 L 149.4 185.6 L 147.0 186.4 L 144.5 186.8 L 142.0 187.0 L 142.0 181.0 L 122.0 178.0 Z M 54.0 75.0 L 54.0 115.0 L 146.0 115.0 L 146.0 75.0 Z M 54.0 31.0 L 54.0 71.0 L 146.0 71.0 L 146.0 31.0 Z " />
</g>
</svg>
