<svg xmlns="http://www.w3.org/2000/svg" xmlns:xlink="http://www.w3.org/1999/xlink" version="1.1" baseProfile="full" viewBox="0 0 200 200" width="200" height="200">
<g fill="black">
<path d="M 176.2 105.8 L 177.4 109.2 L 173.65127897262573 108.87683439254761 L 165.1 119.2 L 152.9 131.4 L 139.8 142.5 L 125.7 152.5 L 110.6 161.4 L 94.6 169.1 L 77.7 175.8 L 59.7 181.2 L 40.9 185.4 L 21.1 188.3 L 20.8 186.6 L 40.0 181.7 L 58.2 176.1 L 75.3 169.6 L 91.4 162.3 L 106.5 154.0 L 120.5 144.8 L 133.5 134.7 L 145.5 123.7 L 156.5 111.7 L 166.5 98.7 L 166.5181393623352 98.71327724456788 L 167.0 98.1 Z M 70.0 138.8 L 91.2 138.8 L 92.1 138.6 L 92.7 138.4 L 93.0 138.2 L 93.2 138.1 L 93.4 137.9 L 93.7 137.0 L 93.9 136.1 L 94.0 134.8 L 94.0 69.0 L 35.0 69.0 L 35.0 65.0 L 133.0 65.0 L 143.0 55.0 L 155.0 65.0 L 155.0 69.0 L 107.65 69.0 L 109.0 69.9 L 106.0 71.7 L 106.0 134.8 L 105.8 137.4 L 105.4 139.9 L 104.6 142.3 L 103.3 144.6 L 101.7 146.6 L 99.7 148.2 L 97.4 149.4 L 95.0 150.2 L 92.5 150.7 L 90.0 150.8 L 90.0 144.8 L 70.0 141.8 Z M 65.9 93.2 L 67.8 96.3 L 63.974507331848145 96.62978382110596 L 62.7 98.9 L 59.1 104.6 L 55.3 110.1 L 51.1 115.4 L 46.7 120.7 L 41.9 125.7 L 36.9 130.7 L 31.5 135.4 L 25.7 139.9 L 19.5 144.0 L 18.4 142.7 L 23.1 137.1 L 27.7 131.6 L 32.0 126.2 L 36.2 120.8 L 40.0 115.4 L 43.6 110.0 L 46.9 104.6 L 49.9 99.1 L 52.6 93.6 L 55.1 88.0 L 55.104109573364255 88.00197868347168 L 55.6 86.9 Z M 13.4 69.6 L 12.8 65.1 L 15.5 61.4 L 17.5 60.5 L 19.4 59.2 L 21.2 57.4 L 23.0 55.2 L 24.6 52.5 L 26.1 49.2 L 27.4 45.4 L 28.5 41.1 L 29.5 36.3 L 30.1 31.0 L 31.9 30.9 L 32.5 36.4 L 32.88823528289795 39.7 L 94.0 39.7 L 94.0 13.1 L 106.0 15.1 L 109.0 17.1 L 106.0 18.9 L 106.0 39.7 L 170.0 39.7 L 170.5039999961853 39.28000001907348 L 170.9 38.4 L 171.27240219116212 38.639664840698245 L 176.0 34.7 L 187.0 43.7 L 182.0 46.7 L 177.68000001907347 48.5 L 177.5 48.7 L 175.4 50.7 L 173.3 52.8 L 170.9 55.0 L 168.4 57.2 L 165.7 59.6 L 162.8 62.0 L 159.7 64.4 L 156.6 67.2 L 155.3 66.0 L 157.7 62.6 L 159.6 59.2 L 161.5 56.0 L 163.3 53.0 L 165.0 50.1 L 166.5 47.5 L 167.8 45.0 L 168.45 43.7 L 33.14583330154419 43.7 L 33.2 46.3 L 32.8 50.8 L 32.1 55.1 L 30.9 59.1 L 29.3 62.8 L 27.2 66.2 L 24.7 69.2 L 21.6 71.8 L 17.0 72.4 Z " />
</g>
</svg>
