<svg xmlns="http://www.w3.org/2000/svg" xmlns:xlink="http://www.w3.org/1999/xlink" version="1.1" baseProfile="full" viewBox="0 0 200 200" width="200" height="200">
<g fill="black">
<path d="M 126.7 183.0 L 124.6 184.1 L 122.6 185.1 L 120.4 186.0 L 118.2 186.7 L 115.9 187.3 L 113.7 187.6 L 111.3 187.9 L 109.0 188.0 L 109.0 182.0 L 89.0 179.0 L 89.0 176.0 L 109.0 176.0 L 110.5 175.9 L 112.1 175.7 L 113.5 175.5 L 115.0 175.2 L 116.4 174.7 L 117.7 174.2 L 120.3 172.8 L 122.9 171.0 L 123.4 170.2 L 124.8 167.3 L 126.5 162.7 L 128.2 156.4 L 130.0 148.6 L 131.8 139.3 L 133.6 128.5 L 135.4 116.2 L 137.2 102.5 L 138.68026313781738 90.0 L 64.69252109527588 90.0 L 62.5 102.8 L 49.7 106.6 L 65.2 16.0 L 76.7 19.9 L 79.3 22.4 L 76.09572286605835 23.427787017822265 L 71.88673095703125 48.0 L 143.0 48.0 L 153.0 38.0 L 165.0 48.0 L 165.0 52.0 L 71.20156812667847 52.0 L 65.37768392562866 86.0 L 139.0 86.0 L 145.0 81.0 L 156.0 90.0 L 151.0 93.0 L 150.354266166687 93.26905574798585 L 149.1 104.0 L 147.3 117.9 L 145.5 130.4 L 143.6 141.4 L 141.8 151.1 L 139.9 159.4 L 137.9 166.3 L 135.9 172.0 L 133.6 176.5 L 130.5 180.2 L 128.6 181.7 Z " />
</g>
</svg>
