<svg xmlns="http://www.w3.org/2000/svg" xmlns:xlink="http://www.w3.org/1999/xlink" version="1.1" baseProfile="full" viewBox="0 0 200 200" width="200" height="200">
<g fill="black">
<path d="M 157.5 72.5 L 159.9 75.2 L 156.3915563583374 76.18482627868653 L 153.8 84.8 L 150.0 96.9 L 146.2 108.8 L 142.2 120.5 L 138.2 132.0 L 134.0 143.3 L 129.8 154.4 L 125.3 165.3 L 120.7 175.9 L 115.8 186.3 L 114.1 185.6 L 117.1 174.6 L 120.3 163.5 L 123.5 152.3 L 126.8 140.9 L 130.1 129.4 L 133.3 117.7 L 136.5 105.9 L 139.7 93.9 L 142.8 81.7 L 145.66991319656373 70.31292514801025 L 145.6 70.3 L 146.3 67.7 Z M 59.8 144.5 L 58.1 134.2 L 55.8 124.2 L 53.1 114.6 L 49.8 105.4 L 46.0 96.5 L 41.8 87.9 L 37.1 79.5 L 31.9 71.3 L 33.3 70.1 L 40.1 77.3 L 46.3 85.0 L 51.8 93.4 L 56.7 102.3 L 61.0 111.7 L 64.8 121.5 L 67.9 131.9 L 70.4 142.7 L 72.4 153.9 L 73.7 165.6 L 72.2 169.9 L 68.1 171.9 L 63.8 170.4 L 61.8 166.3 L 61.1 155.2 Z M 15.0 51.0 L 94.0 51.0 L 94.0 15.0 L 106.0 17.0 L 109.0 19.0 L 106.0 20.8 L 106.0 51.0 L 163.0 51.0 L 173.0 41.0 L 185.0 51.0 L 185.0 55.0 L 15.0 55.0 Z " />
</g>
</svg>
