<svg xmlns="http://www.w3.org/2000/svg" xmlns:xlink="http://www.w3.org/1999/xlink" version="1.1" baseProfile="full" viewBox="0 0 200 200" width="200" height="200">
<g fill="black">
<path d="M 180.0 148.4 L 182.0 148.4 L 180.0 173.4 L 183.6 175.8 L 186.0 179.4 L 183.6 183.0 L 180.0 185.4 L 126.0 185.4 L 123.4 185.2 L 120.9 184.8 L 118.5 184.0 L 116.2 182.8 L 114.2 181.1 L 112.6 179.1 L 111.3 176.8 L 110.5 174.4 L 110.1 171.9 L 110.0 169.4 L 110.0 134.2 L 87.61612901687622 134.2 L 89.9 134.8 L 92.7 137.0 L 89.1397515296936 138.78012418746948 L 88.2 143.7 L 85.0 151.9 L 80.5 159.3 L 74.6 165.8 L 67.4 171.4 L 59.1 176.1 L 49.6 180.1 L 39.0 183.2 L 27.1 185.4 L 14.1 186.8 L 13.8 185.0 L 26.3 181.7 L 37.4 178.0 L 47.1 174.0 L 55.5 169.5 L 62.4 164.6 L 68.0 159.2 L 72.2 153.6 L 75.2 147.5 L 77.1 141.0 L 77.86279067993163 134.23023252487184 L 77.865625 134.2 L 59.0 134.2 L 59.0 146.2 L 47.0 152.2 L 47.0 84.1 L 59.0 90.1 L 143.0 90.1 L 149.0 85.1 L 160.0 94.1 L 155.0 98.1 L 155.0 140.2 L 143.0 146.2 L 143.0 134.2 L 122.0 134.2 L 122.0 170.6 L 122.2 171.5 L 122.4 172.1 L 122.5 172.5 L 122.7 172.6 L 122.9 172.8 L 123.2 173.0 L 123.8 173.2 L 124.7 173.3 L 126.0 173.4 L 174.0 173.4 Z M 59.0 94.1 L 59.0 130.2 L 143.0 130.2 L 143.0 94.1 Z M 144.7 43.5 L 146.3 46.7 L 142.14539003372192 46.843262386322024 L 140.9 48.4 L 138.6 51.1 L 136.2 53.8 L 133.5 56.7 L 130.7 59.7 L 127.5 62.8 L 124.1 66.1 L 120.4 69.3 L 119.31428575515747 70.3 L 163.0 70.3 L 173.0 60.3 L 185.0 70.3 L 185.0 74.3 L 15.0 74.3 L 15.0 70.3 L 116.15909090042115 70.3 L 118.0 67.3 L 120.5 63.1 L 122.9 59.1 L 125.1 55.4 L 127.1 51.9 L 129.0 48.6 L 130.6 45.6 L 132.0 42.7 L 133.2 40.1 L 133.81846151351928 38.553846168518064 L 133.7 38.5 L 134.1052631378174 37.83684206008911 L 134.2 37.6 L 134.23721933364868 37.62091379165649 L 134.8 36.7 Z M 68.0 59.8 L 67.0 57.3 L 65.8 54.8 L 64.5 52.2 L 62.9 49.7 L 61.1 47.1 L 59.1 44.5 L 56.9 41.8 L 54.3 39.3 L 55.3 37.8 L 58.5 39.6 L 61.8 41.2 L 64.8 43.1 L 67.7 45.1 L 70.3 47.3 L 72.8 49.7 L 75.1 52.2 L 77.1 54.9 L 79.0 57.7 L 80.6 60.7 L 80.3 65.3 L 77.0 68.4 L 72.4 68.1 L 69.3 64.8 L 68.7 62.3 Z M 26.0 31.8 L 94.0 31.8 L 94.0 12.8 L 106.0 14.8 L 109.0 16.8 L 106.0 18.6 L 106.0 31.8 L 152.0 31.8 L 162.0 21.8 L 174.0 31.8 L 174.0 35.8 L 26.0 35.8 Z " />
</g>
</svg>
