<svg xmlns="http://www.w3.org/2000/svg" xmlns:xlink="http://www.w3.org/1999/xlink" version="1.1" baseProfile="full" viewBox="0 0 200 200" width="200" height="200">
<g fill="black">
<path d="M 145.6 181.4 L 143.6 182.5 L 141.5 183.4 L 139.3 184.2 L 137.1 184.8 L 134.9 185.3 L 132.6 185.7 L 130.3 185.9 L 128.0 186.0 L 128.0 180.0 L 108.0 177.0 L 108.0 174.0 L 128.0 174.0 L 129.6 173.9 L 131.1 173.8 L 132.7 173.5 L 134.1 173.2 L 135.6 172.8 L 138.4 171.6 L 139.8 170.9 L 141.1 170.1 L 142.4 169.2 L 147.2 164.8 L 151.7 158.8 L 155.8 151.1 L 159.5 141.7 L 162.6 130.6 L 165.2 117.7 L 167.3 103.3 L 168.8 87.1 L 169.7 69.4 L 169.9690721511841 52.0 L 123.65217390060425 52.0 L 120.1 69.2 L 114.7 86.6 L 107.6 103.1 L 98.9 118.4 L 88.6 132.8 L 76.7 146.0 L 63.2 158.2 L 48.1 169.3 L 31.5 179.1 L 13.3 187.8 L 12.6 186.1 L 29.6 175.8 L 45.0 164.9 L 58.9 153.2 L 71.2 140.8 L 81.8 127.6 L 90.9 113.6 L 98.5 98.8 L 104.5 83.1 L 109.0 66.6 L 111.46265058517456 52.0 L 68.95544557571411 52.0 L 65.0 60.5 L 59.6 69.8 L 53.5 78.5 L 46.8 86.3 L 39.3 93.4 L 31.2 99.5 L 22.4 104.7 L 21.5 103.2 L 28.8 96.5 L 35.6 89.5 L 41.8 82.0 L 47.3 74.1 L 52.2 65.6 L 56.6 56.5 L 59.0 50.20810813903809 L 59.0 48.0 L 59.84226808547974 48.0 L 60.3 46.8 L 63.4 36.5 L 65.9 25.6 L 67.72723407745362 15.00204257965088 L 67.7 15.0 L 68.2 12.0 L 79.7 15.9 L 82.4 18.3 L 78.88924732208253 19.70430107116699 L 77.1 28.1 L 73.7 39.6 L 70.58888893127441 48.0 L 170.0 48.0 L 176.0 43.0 L 187.0 52.0 L 182.0 55.0 L 181.89761095046998 55.042662143707275 L 181.6 69.7 L 180.7 88.0 L 179.2 104.6 L 177.1 119.8 L 174.3 133.4 L 170.9 145.5 L 166.7 156.1 L 161.9 165.2 L 156.2 172.8 L 149.6 178.8 L 147.6 180.2 Z " />
</g>
</svg>
