<svg xmlns="http://www.w3.org/2000/svg" xmlns:xlink="http://www.w3.org/1999/xlink" version="1.1" baseProfile="full" viewBox="0 0 200 200" width="200" height="200">
<g fill="black">
<path d="M 13.4 146.1 L 17.2 144.6 L 21.1 143.0 L 25.2 141.1 L 29.3 139.0 L 33.6 136.8 L 38.0 134.4 L 42.6 131.8 L 47.3 129.0 L 52.2 126.2 L 52.5 126.03269233703614 L 52.5 72.0 L 15.0 72.0 L 15.0 68.0 L 52.5 68.0 L 52.5 13.0 L 63.5 15.0 L 66.2 17.0 L 63.5 18.723404216766358 L 63.5 181.2 L 52.5 186.7 L 52.5 131.25121955871583 L 50.5 133.3 L 46.4 137.1 L 42.3 140.6 L 38.3 143.9 L 34.2 147.0 L 30.2 149.8 L 26.2 152.4 L 22.2 154.8 L 22.08167667388916 154.8667465209961 L 21.4 158.9 L 18.3 157.0 L 11.6 146.9 Z M 86.9 34.1 L 116.0 34.1 L 121.5 29.1 L 132.0 38.1 L 127.0 41.6 L 127.0 168.8 L 116.0 174.3 L 116.0 162.8 L 86.9 162.8 L 86.9 174.8 L 75.9 180.3 L 75.9 28.6 Z M 184.3 137.4 L 186.3 137.4 L 184.3 162.4 L 187.9 164.8 L 190.3 168.4 L 187.9 172.0 L 184.3 174.4 L 154.7 174.4 L 152.1 174.2 L 149.7 173.7 L 147.3 172.8 L 145.1 171.6 L 143.1 169.9 L 141.6 167.9 L 140.4 165.7 L 139.7 163.3 L 139.3 160.9 L 139.2 158.4 L 139.2 12.6 L 150.2 14.6 L 153.0 16.6 L 150.2 18.35 L 150.2 85.9 L 150.9 85.2 L 154.2 81.8 L 157.5 78.2 L 160.9 74.4 L 164.2 70.2 L 167.5 65.9 L 170.8 61.2 L 174.1 56.3 L 177.3 51.0 L 177.34405288696288 51.02951545715332 L 177.8 50.3 L 187.3 57.7 L 188.7 61.1 L 184.8357590675354 60.90351314544678 L 183.3 62.9 L 179.3 67.8 L 175.2 72.3 L 171.1 76.5 L 166.9 80.3 L 162.7 83.8 L 158.4 86.9 L 154.1 89.5 L 150.2 91.40666666030884 L 150.2 158.4 L 150.3 159.6 L 150.5 160.6 L 151.0 161.6 L 151.3 161.8 L 151.9 162.1 L 152.5 162.2 L 153.5 162.3 L 154.7 162.4 L 178.3 162.4 Z M 86.9 38.1 L 86.9 158.8 L 116.0 158.8 L 116.0 38.1 Z " />
</g>
</svg>
