<svg xmlns="http://www.w3.org/2000/svg" xmlns:xlink="http://www.w3.org/1999/xlink" version="1.1" baseProfile="full" viewBox="0 0 200 200" width="200" height="200">
<g fill="black">
<path d="M 28.8 184.0 L 16.8 190.0 L 16.8 23.0 L 28.8 29.0 L 69.2 29.0 L 79.2 19.0 L 91.2 29.0 L 91.2 33.0 L 60.0 33.0 L 60.0 72.0 L 74.5 72.0 L 80.5 67.0 L 91.5 76.0 L 86.5 80.0 L 86.5 131.0 L 74.5 137.0 L 74.5 125.0 L 60.0 125.0 L 60.0 168.0 L 71.5 168.0 L 81.5 158.0 L 93.5 168.0 L 93.5 172.0 L 28.8 172.0 Z M 114.5 181.8 L 103.5 187.3 L 103.5 111.5 L 114.5 117.0 L 171.0 117.0 L 176.5 112.0 L 187.0 121.0 L 182.0 124.5 L 182.0 175.8 L 171.0 181.3 L 171.0 169.8 L 114.5 169.8 Z M 28.8 125.0 L 28.8 168.0 L 48.0 168.0 L 48.0 125.0 Z M 114.5 121.0 L 114.5 165.8 L 126.3 165.8 L 126.3 121.0 Z M 136.3 121.0 L 136.3 165.8 L 149.1 165.8 L 149.1 121.0 Z M 159.1 121.0 L 159.1 165.8 L 171.0 165.8 L 171.0 121.0 Z M 28.8 121.0 L 74.5 121.0 L 74.5 76.0 L 28.8 76.0 Z M 120.1 15.4 L 122.9 17.6 L 119.5612244606018 19.26938772201538 L 119.0 23.3 L 117.5 31.5 L 115.7 39.7 L 113.5 48.2 L 112.598837184906 51.3 L 164.9 51.3 L 174.9 41.3 L 186.9 51.3 L 186.9 55.3 L 111.43604650497437 55.3 L 111.0 56.8 L 108.2 65.5 L 105.0 74.4 L 101.4 83.4 L 97.3 92.6 L 92.8 101.8 L 91.1 101.1 L 93.8 91.3 L 96.3 81.7 L 98.7 72.4 L 100.9 63.4 L 102.8 54.7 L 104.5 46.1 L 105.8 37.8 L 106.9 29.8 L 107.7 21.9 L 108.13419179916382 15.300284957885742 L 108.1 15.3 L 108.4 12.2 Z M 182.9 86.0 L 182.9 90.0 L 105.8 90.0 L 105.8 86.0 L 160.9 86.0 L 170.9 76.0 Z M 28.8 33.0 L 28.8 72.0 L 48.0 72.0 L 48.0 33.0 Z " />
</g>
</svg>
