<svg xmlns="http://www.w3.org/2000/svg" xmlns:xlink="http://www.w3.org/1999/xlink" version="1.1" baseProfile="full" viewBox="0 0 200 200" width="200" height="200">
<g fill="black">
<path d="M 129.2 167.8 L 111.8 153.2 L 95.8 137.2 L 81.1 119.9 L 67.9 101.2 L 56.0 81.2 L 45.6 59.9 L 36.7 37.2 L 29.4 13.2 L 31.1 12.6 L 40.6 35.7 L 45.5115740776062 46.0 L 137.0 46.0 L 137.3619047164917 45.69841270446777 L 137.4 45.6 L 137.4530466079712 45.62246112823486 L 143.0 41.0 L 154.0 50.0 L 149.0 53.0 L 146.59004974365234 54.00414590835571 L 145.2 56.7 L 141.5 63.4 L 137.2 70.3 L 132.5 77.3 L 127.2 84.6 L 121.4 92.1 L 115.1 99.7 L 108.2 107.5 L 100.8 115.5 L 94.9897292137146 121.16855678558349 L 103.2 130.1 L 119.1 144.9 L 136.2 158.3 L 154.5 170.4 L 174.0 181.1 L 179.2 183.8 L 167.9 192.8 L 147.9 181.0 Z M 47.41898145675659 50.0 L 50.9 57.3 L 62.3 77.6 L 74.8 96.5 L 88.4 114.0 L 93.38260765075684 119.4202691078186 L 97.8 113.1 L 104.1 104.2 L 109.9 95.7 L 115.3 87.6 L 120.2 79.8 L 124.6 72.3 L 128.6 65.2 L 132.0 58.3 L 135.0 51.8 L 135.69677419662474 50.0 Z " />
</g>
</svg>
