<svg xmlns="http://www.w3.org/2000/svg" xmlns:xlink="http://www.w3.org/1999/xlink" version="1.1" baseProfile="full" viewBox="0 0 200 200" width="200" height="200">
<g fill="black">
<path d="M 104.2 113.0 L 100.97674417495728 125.6 L 148.0 125.6 L 154.0 120.6 L 165.0 129.6 L 160.0 132.6 L 159.7016722679138 132.72430324554443 L 159.6 135.3 L 159.1 142.4 L 158.3 149.0 L 157.2 155.1 L 155.9 160.7 L 154.3 165.8 L 152.4 170.5 L 150.1 174.7 L 147.5 178.3 L 144.4 181.5 L 142.6 183.0 L 140.7 184.4 L 138.7 185.6 L 136.6 186.6 L 134.4 187.5 L 132.2 188.3 L 130.0 188.8 L 127.7 189.2 L 125.3 189.5 L 123.0 189.6 L 123.0 183.6 L 103.0 180.6 L 103.0 177.6 L 123.0 177.6 L 124.5 177.5 L 127.5 177.1 L 128.9 176.7 L 130.2 176.3 L 132.8 175.1 L 134.1 174.3 L 135.3 173.4 L 136.5 172.4 L 138.2 170.7 L 139.9 168.3 L 141.5 165.4 L 143.0 161.8 L 144.3 157.6 L 145.4 152.7 L 146.4 147.3 L 147.1 141.3 L 147.6 134.6 L 147.87777776718139 129.6 L 99.3764705657959 129.6 L 96.0 137.8 L 89.6 148.6 L 81.6 158.2 L 72.1 166.7 L 61.3 174.0 L 49.0 180.1 L 35.3 185.0 L 20.2 188.6 L 19.7 186.9 L 34.0 181.4 L 46.6 175.3 L 57.7 168.4 L 67.3 160.9 L 75.3 152.5 L 81.8 143.4 L 86.9 133.5 L 90.7 122.8 L 93.0 111.2 L 93.75365858078003 100.9 L 17.0 100.9 L 17.0 96.9 L 94.0 96.9 L 94.0 69.2 L 106.0 71.2 L 109.0 73.2 L 106.0 75.0 L 106.0 96.9 L 161.0 96.9 L 171.0 86.9 L 183.0 96.9 L 183.0 100.9 L 105.67985610961914 100.9 Z M 31.0 64.9 L 94.5 64.9 L 94.5 40.3 L 19.4 40.3 L 19.4 36.3 L 94.5 36.3 L 94.5 13.0 L 106.5 15.0 L 109.5 17.0 L 106.5 18.8 L 106.5 36.3 L 159.5 36.3 L 169.5 26.3 L 181.5 36.3 L 181.5 40.3 L 106.5 40.3 L 106.5 64.9 L 147.9 64.9 L 157.9 54.9 L 169.9 64.9 L 169.9 68.9 L 31.0 68.9 Z " />
</g>
</svg>
