<svg xmlns="http://www.w3.org/2000/svg" xmlns:xlink="http://www.w3.org/1999/xlink" version="1.1" baseProfile="full" viewBox="0 0 200 200" width="200" height="200">
<g fill="black">
<path d="M 16.0 171.0 L 44.0 171.0 L 44.0 85.0 L 56.0 87.0 L 59.0 89.0 L 56.0 90.8 L 56.0 171.0 L 94.0 171.0 L 94.0 44.175362300872806 L 88.2 45.1 L 73.8 47.2 L 58.6 49.0 L 42.7 50.6 L 26.1 51.8 L 25.8 50.1 L 42.1 46.8 L 57.7 43.7 L 72.7 40.7 L 86.9 37.7 L 100.4 34.6 L 113.2 31.5 L 125.3 28.4 L 136.6 25.2 L 147.3 21.9 L 156.21563386917114 18.838065147399902 L 156.2 18.8 L 156.2363380432129 18.83095464706421 L 157.2 18.5 L 157.69169960021972 20.070707035064697 L 167.0 28.0 L 167.3 31.1 L 163.1583282470703 29.239248943328857 L 160.8 30.0 L 150.4 32.8 L 139.3 35.5 L 127.6 38.1 L 115.2 40.6 L 106.0 42.203030300140384 L 106.0 99.0 L 150.0 99.0 L 160.0 89.0 L 172.0 99.0 L 172.0 103.0 L 106.0 103.0 L 106.0 171.0 L 162.0 171.0 L 172.0 161.0 L 184.0 171.0 L 184.0 175.0 L 16.0 175.0 Z " />
</g>
</svg>
