<svg xmlns="http://www.w3.org/2000/svg" xmlns:xlink="http://www.w3.org/1999/xlink" version="1.1" baseProfile="full" viewBox="0 0 200 200" width="200" height="200">
<g fill="black">
<path d="M 134.0 176.0 L 154.0 176.0 L 155.2 175.9 L 156.1 175.7 L 157.0 175.4 L 157.4 175.0 L 157.7 174.1 L 157.9 173.2 L 158.0 172.0 L 158.0 32.0 L 26.0 32.0 L 26.0 28.0 L 158.0 28.0 L 164.0 23.0 L 175.0 32.0 L 170.0 36.0 L 170.0 172.0 L 169.8 174.5 L 169.4 177.0 L 168.6 179.4 L 167.3 181.7 L 165.7 183.7 L 163.7 185.3 L 161.4 186.6 L 159.0 187.4 L 156.5 187.8 L 154.0 188.0 L 154.0 182.0 L 134.0 179.0 Z M 55.2 69.3 L 115.7 69.3 L 121.7 64.3 L 132.7 73.3 L 127.7 77.3 L 127.7 143.6 L 115.7 149.6 L 115.7 137.6 L 55.2 137.6 L 55.2 149.6 L 43.2 155.6 L 43.2 63.3 Z M 55.2 73.3 L 55.2 133.6 L 115.7 133.6 L 115.7 73.3 Z " />
</g>
</svg>
