<svg xmlns="http://www.w3.org/2000/svg" xmlns:xlink="http://www.w3.org/1999/xlink" version="1.1" baseProfile="full" viewBox="0 0 200 200" width="200" height="200">
<g fill="black">
<path d="M 107.4 176.8 L 128.6 176.8 L 129.5 176.6 L 130.1 176.4 L 130.4 176.2 L 130.6 176.1 L 130.8 175.9 L 131.1 175.0 L 131.3 174.1 L 131.4 172.8 L 131.4 125.2 L 13.1 125.2 L 13.1 121.2 L 131.4 121.2 L 131.4 93.1 L 143.4 95.1 L 146.4 97.1 L 143.4 98.9 L 143.4 121.2 L 164.9 121.2 L 174.9 111.2 L 186.9 121.2 L 186.9 125.2 L 143.4 125.2 L 143.4 172.8 L 143.2 175.4 L 142.8 177.9 L 142.0 180.3 L 140.7 182.6 L 139.1 184.6 L 137.1 186.2 L 134.8 187.5 L 132.4 188.3 L 129.9 188.7 L 127.4 188.8 L 127.4 182.8 L 107.4 179.8 Z M 74.4 159.8 L 72.9 157.6 L 70.9 155.2 L 68.3 152.5 L 65.2 149.7 L 61.6 146.8 L 57.4 143.7 L 52.8 140.3 L 47.7 137.0 L 48.4 135.4 L 54.3 137.4 L 59.8 139.4 L 64.7 141.6 L 69.2 143.8 L 73.2 146.0 L 76.8 148.4 L 79.9 150.8 L 82.7 153.3 L 85.0 156.0 L 86.9 159.0 L 86.7 163.6 L 83.4 166.8 L 78.9 166.6 L 75.7 163.4 L 75.3 161.8 Z M 100.6 63.3 L 98.1 61.5 L 95.2 59.6 L 91.9 57.7 L 88.2 55.7 L 84.1 53.6 L 79.7 51.5 L 75.0 49.1 L 72.80026931762696 48.16934471130371 L 70.5 49.6 L 61.7 54.5 L 52.5 59.1 L 50.92233505249023 59.77614212036133 L 54.0 60.3 L 58.5 61.3 L 62.8 62.5 L 66.8 63.8 L 70.7 65.2 L 74.3 66.7 L 77.7 68.3 L 80.9 70.1 L 84.0 71.9 L 86.1 76.0 L 84.8 80.4 L 80.8 82.5 L 76.4 81.3 L 74.3 79.2 L 72.0 77.2 L 69.4 75.2 L 66.5 73.1 L 63.4 71.0 L 60.0 69.0 L 56.3 66.9 L 52.4 64.7 L 48.3 62.5 L 46.55605535507202 61.6474048614502 L 42.7 63.3 L 32.3 67.1 L 21.4 70.6 L 20.7 68.9 L 30.8 63.7 L 40.4 58.5 L 49.4 53.2 L 57.9 47.9 L 65.9 42.5 L 73.3 36.9 L 80.2 31.2 L 86.5 25.4 L 92.3 19.4 L 96.8111478805542 14.108076572418213 L 96.8 14.1 L 97.05744676589966 13.819148921966553 L 97.5 13.3 L 97.5185619354248 13.316114234924317 L 97.9 12.9 L 106.6 21.2 L 107.5 24.6 L 103.84179105758668 23.95820894241333 L 100.4 27.4 L 93.92333335876465 33.2 L 158.92909088134766 33.2 L 160.5 31.4 L 160.88165941238404 31.71528387069702 L 165.1 28.2 L 176.1 37.2 L 171.1 40.2 L 166.95114049911498 41.92869148254395 L 159.0 50.4 L 147.3 60.9 L 134.7 70.5 L 121.0 79.3 L 106.3 87.2 L 90.7 94.3 L 74.1 100.4 L 56.5 105.7 L 37.9 110.0 L 18.4 113.3 L 18.0 111.5 L 37.0 106.3 L 54.9 100.6 L 71.8 94.3 L 87.6 87.3 L 102.4 79.7 L 116.1 71.4 L 128.7 62.4 L 140.3 52.8 L 150.9 42.4 L 155.4381817817688 37.2 L 88.9 37.2 L 86.5 39.1 L 78.7 44.5 L 76.20496950149536 46.051787281036376 L 81.2 46.9 L 86.1 47.9 L 90.7 49.0 L 95.0 50.2 L 99.0 51.5 L 102.6 52.8 L 105.9 54.2 L 109.0 55.7 L 111.7 57.3 L 113.9 61.3 L 112.7 65.7 L 108.7 67.9 L 104.3 66.7 L 102.6 65.1 Z " />
</g>
</svg>
