<svg xmlns="http://www.w3.org/2000/svg" xmlns:xlink="http://www.w3.org/1999/xlink" version="1.1" baseProfile="full" viewBox="0 0 200 200" width="200" height="200">
<g fill="black">
<path d="M 43.0 47.0 L 96.0 47.0 L 96.0 13.0 L 108.0 15.0 L 111.0 17.0 L 108.0 18.8 L 108.0 47.0 L 162.0 47.0 L 172.0 37.0 L 184.0 47.0 L 184.0 51.0 L 43.0 51.0 L 43.0 102.0 L 42.4 113.5 L 41.2 124.5 L 39.5 135.0 L 37.2 144.8 L 34.3 154.0 L 30.8 162.5 L 26.7 170.4 L 21.9 177.6 L 16.6 184.0 L 10.6 189.6 L 9.3 188.3 L 13.6 181.7 L 17.4 174.8 L 20.8 167.5 L 23.7 159.7 L 26.1 151.4 L 28.1 142.7 L 29.6 133.3 L 30.5 123.4 L 31.0 113.0 L 31.0 41.0 Z M 164.2 165.4 L 161.2 158.9 L 160.03435678482055 156.63935861587524 L 148.6 159.0 L 133.9 161.7 L 120.1 164.2 L 107.0 166.4 L 94.7 168.4 L 83.3 170.2 L 72.6 171.9 L 62.8 173.3 L 53.8 174.7 L 49.57436208724975 175.2600242614746 L 47.8 178.6 L 45.5 175.8 L 42.4 164.1 L 44.3 163.9 L 52.6 163.3 L 61.6 162.7 L 69.56132011413574 162.05666103363038 L 71.6 156.9 L 75.2 148.2 L 78.8 139.3 L 82.4 130.2 L 86.0 120.8 L 89.5 111.2 L 92.9 101.3 L 96.3 91.1 L 99.7 80.7 L 102.60087213516235 71.00020875930787 L 102.6 71.0 L 102.61428575515747 70.95535717010497 L 102.9 70.0 L 102.91807231903076 70.00602407455445 L 103.4 68.5 L 114.3 73.8 L 116.6 76.6 L 112.96476964950561 77.42908763885498 L 110.4 84.4 L 106.4 94.8 L 102.3 104.9 L 98.1 114.6 L 93.8 124.1 L 89.3 133.2 L 84.7 142.1 L 80.0 150.6 L 75.0 158.7 L 72.87793102264405 161.78300580978393 L 82.1 161.0 L 93.7 160.0 L 106.0 158.9 L 119.2 157.7 L 133.2 156.4 L 148.1 155.2 L 158.90194988250732 154.44317550659179 L 157.9 152.5 L 154.3 146.0 L 150.4 139.6 L 146.2 133.1 L 141.7 126.6 L 136.9 120.0 L 132.0 113.3 L 133.3 112.0 L 139.7 117.5 L 145.8 123.2 L 151.3 129.1 L 156.5 135.1 L 161.4 141.3 L 165.9 147.6 L 170.0 154.1 L 173.8 160.6 L 177.3 167.2 L 180.5 174.0 L 180.3 178.5 L 177.0 181.7 L 172.5 181.6 L 169.3 178.3 L 166.9 171.8 Z " />
</g>
</svg>
