<svg xmlns="http://www.w3.org/2000/svg" xmlns:xlink="http://www.w3.org/1999/xlink" version="1.1" baseProfile="full" viewBox="0 0 200 200" width="200" height="200">
<g fill="black">
<path d="M 155.3 177.9 L 145.3 171.7 L 136.2 164.9 L 128.1 157.3 L 120.9 149.2 L 114.6 140.3 L 109.4 130.9 L 105.3 120.8 L 102.61886796951293 111.0 L 101.0875 111.0 L 96.8 123.6 L 90.1 136.7 L 81.5 148.6 L 71.2 159.1 L 59.2 168.4 L 45.6 176.3 L 30.2 182.7 L 13.2 187.8 L 12.7 186.1 L 28.8 179.2 L 43.0 171.6 L 55.4 163.0 L 66.0 153.6 L 74.9 143.3 L 82.0 132.1 L 87.4 119.9 L 90.00977439880371 111.0 L 13.0 111.0 L 13.0 107.0 L 91.18270673751832 107.0 L 91.3 106.6 L 93.4 92.4 L 93.92207794189453 79.0 L 32.0 79.0 L 32.0 75.0 L 94.0 75.0 L 94.0 46.0 L 22.0 46.0 L 22.0 42.0 L 94.0 42.0 L 94.0 12.0 L 106.0 14.0 L 109.0 16.0 L 106.0 17.8 L 106.0 42.0 L 156.0 42.0 L 166.0 32.0 L 178.0 42.0 L 178.0 46.0 L 106.0 46.0 L 106.0 75.0 L 146.0 75.0 L 156.0 65.0 L 168.0 75.0 L 168.0 79.0 L 105.84337348937989 79.0 L 104.7 93.6 L 102.12307691574097 107.0 L 165.0 107.0 L 175.0 97.0 L 187.0 107.0 L 187.0 111.0 L 104.83684206008911 111.0 L 109.1 119.1 L 114.6 128.0 L 120.5 136.2 L 127.2 143.7 L 134.5 150.5 L 142.5 156.8 L 151.2 162.4 L 160.7 167.4 L 171.0 171.9 L 182.1 175.7 L 189.4 178.2 L 177.8 188.2 L 166.1 183.4 Z " />
</g>
</svg>
