<svg xmlns="http://www.w3.org/2000/svg" xmlns:xlink="http://www.w3.org/1999/xlink" version="1.1" baseProfile="full" viewBox="0 0 200 200" width="200" height="200">
<g fill="black">
<path d="M 13.8 163.9 L 20.7 162.7 L 28.1 161.4 L 29.0 161.21538457870483 L 29.0 56.0 L 41.0 58.0 L 44.0 60.0 L 41.0 61.8 L 41.0 158.68048782348632 L 44.1 158.0 L 52.8 156.1 L 58.0 154.842857170105 L 58.0 14.0 L 70.0 16.0 L 73.0 18.0 L 70.0 19.8 L 70.0 79.0 L 84.77777776718139 79.0 L 91.0 72.0 L 99.0 79.0 L 99.0 83.0 L 70.0 83.0 L 70.0 151.93894739151 L 71.4 151.6 L 81.3 149.1 L 91.8 146.6 L 102.7 144.1 L 103.2 145.8 L 92.9 150.2 L 83.0 154.3 L 73.3 157.9 L 64.0 161.2 L 55.1 164.2 L 46.5 167.0 L 38.4 169.5 L 30.6 171.8 L 23.2 173.8 L 20.16284246444702 174.56998357772827 L 18.7 178.2 L 16.1 175.6 L 11.8 164.3 Z " />
</g>
</svg>
