<svg xmlns="http://www.w3.org/2000/svg" xmlns:xlink="http://www.w3.org/1999/xlink" version="1.1" baseProfile="full" viewBox="0 0 200 200" width="200" height="200">
<g fill="black">
<path d="M 83.1 141.4 L 84.2 144.9 L 80.44343938827515 144.38185367584228 L 78.2 146.9 L 72.9 152.1 L 67.3 157.2 L 61.3 162.2 L 54.9 167.0 L 48.2 171.6 L 41.1 176.0 L 33.6 180.2 L 25.7 184.1 L 17.4 187.7 L 16.5 186.2 L 23.8 180.9 L 30.8 175.7 L 37.4 170.6 L 43.7 165.5 L 49.6 160.3 L 55.2 155.2 L 60.4 150.0 L 65.2 144.7 L 69.6 139.4 L 73.0049913406372 134.80326166152955 L 73.0 134.8 L 73.2 134.53999996185303 L 73.6 134.0 L 73.60962028503418 134.007493686676 L 74.0 133.5 Z M 14.0 123.0 L 64.0 123.0 L 64.0 65.0 L 20.0 65.0 L 20.0 61.0 L 64.0 61.0 L 64.0 15.0 L 76.0 17.0 L 79.0 19.0 L 76.0 20.8 L 76.0 61.0 L 124.0 61.0 L 124.0 15.0 L 136.0 17.0 L 139.0 19.0 L 136.0 20.8 L 136.0 61.0 L 158.0 61.0 L 168.0 51.0 L 180.0 61.0 L 180.0 65.0 L 136.0 65.0 L 136.0 123.0 L 164.0 123.0 L 174.0 113.0 L 186.0 123.0 L 186.0 127.0 L 14.0 127.0 Z M 76.0 65.0 L 76.0 123.0 L 124.0 123.0 L 124.0 65.0 Z " />
</g>
</svg>
