<svg xmlns="http://www.w3.org/2000/svg" xmlns:xlink="http://www.w3.org/1999/xlink" version="1.1" baseProfile="full" viewBox="0 0 200 200" width="200" height="200">
<g fill="black">
<path d="M 161.0 169.2 L 154.0 160.0 L 148.1 150.0 L 143.2 139.4 L 139.3 128.1 L 136.6 116.2 L 134.9 103.7 L 134.67792654037476 98.85139694213868 L 134.6 99.4 L 130.6 115.6 L 125.0 130.3 L 117.8 143.5 L 109.1 155.2 L 98.8 165.3 L 87.1 173.8 L 73.8 180.5 L 59.2 185.5 L 58.7 183.8 L 72.2 177.1 L 84.1 169.3 L 94.4 160.5 L 103.2 150.4 L 110.6 139.2 L 116.5 126.7 L 121.0 112.8 L 124.1 97.6 L 125.7 81.0 L 125.98936166763306 63.6382978439331 L 125.9 60.6 L 138.0 62.9 L 141.0 64.8 L 137.81550540924073 66.77438669204712 L 137.209787273407 79.49446811676026 L 138.5 90.3 L 140.7 102.8 L 143.6 114.6 L 147.3 125.5 L 151.7 135.6 L 156.9 144.9 L 163.0 153.5 L 169.8 161.4 L 177.4 168.5 L 185.9 174.9 L 189.0 177.2 L 178.0 185.6 L 169.0 177.8 Z M 85.2 138.0 L 83.2 134.7 L 80.9 131.3 L 78.3 127.8 L 75.4 124.3 L 72.2 120.6 L 68.8 116.8 L 65.2 112.9 L 62.73410701751709 110.37245969772339 L 62.4 112.3 L 58.7 126.2 L 53.9 138.8 L 47.9 150.0 L 40.9 160.0 L 32.8 168.5 L 23.6 175.6 L 13.4 181.0 L 12.5 179.5 L 21.3 172.5 L 29.0 164.8 L 35.6 156.1 L 41.3 146.3 L 46.0 135.5 L 49.8 123.6 L 52.6 110.4 L 54.3 96.1 L 55.2 80.6 L 55.01188945770264 64.79871196746826 L 55.0 64.8 L 54.9 61.4 L 67.0 63.5 L 70.0 65.4 L 66.88764114379883 67.43256092071533 L 66.5 81.0 L 65.0 97.3 L 63.168080997467044 107.86876373291015 L 67.3 110.1 L 72.1 112.9 L 76.5 115.9 L 80.5 119.0 L 84.3 122.1 L 87.8 125.3 L 91.0 128.6 L 93.9 131.9 L 96.5 135.3 L 98.9 138.8 L 99.2 143.4 L 96.3 146.9 L 91.8 147.2 L 88.2 144.4 L 86.8 141.2 Z M 15.0 48.3 L 94.0 48.3 L 94.0 14.2 L 106.0 16.2 L 109.0 18.2 L 106.0 20.0 L 106.0 48.3 L 163.0 48.3 L 173.0 38.3 L 185.0 48.3 L 185.0 52.3 L 15.0 52.3 Z " />
</g>
</svg>
