<svg xmlns="http://www.w3.org/2000/svg" xmlns:xlink="http://www.w3.org/1999/xlink" version="1.1" baseProfile="full" viewBox="0 0 200 200" width="200" height="200">
<g fill="black">
<path d="M 159.2 122.1 L 150.4 116.6 L 141.9 110.5 L 133.7 103.8 L 125.8 96.4 L 118.2 88.4 L 110.9 79.8 L 104.1 70.4 L 101.00010604858399 65.43032875061036 L 100.9 65.6 L 94.2 75.3 L 86.7 84.5 L 78.4 93.2 L 69.5 101.5 L 59.8 109.4 L 49.3 116.8 L 38.1 123.7 L 26.1 130.0 L 13.4 135.8 L 12.5 134.1 L 24.2 126.7 L 35.2 119.2 L 45.5 111.5 L 55.0 103.5 L 63.7 95.3 L 71.7 86.8 L 78.9 78.1 L 85.4 69.1 L 91.1 59.7 L 95.71792802810668 51.00742959976196 L 95.7 51.0 L 96.7 49.0 L 106.8 55.6 L 108.6 58.7 L 104.81707401275635 58.96089143753052 L 102.60541973114013 62.70945806503296 L 107.4 67.8 L 115.3 75.8 L 123.3 83.3 L 131.4 90.2 L 139.5 96.5 L 147.8 102.2 L 156.2 107.2 L 164.7 111.7 L 173.4 115.5 L 182.2 118.8 L 189.2 121.3 L 177.7 131.1 L 168.3 127.0 Z " />
</g>
</svg>
