<svg xmlns="http://www.w3.org/2000/svg" xmlns:xlink="http://www.w3.org/1999/xlink" version="1.1" baseProfile="full" viewBox="0 0 200 200" width="200" height="200">
<g fill="black">
<path d="M 160.0 149.5 L 152.2 142.2 L 145.0 134.5 L 138.4 126.4 L 132.5 117.8 L 128.57111110687256 111.0 L 75.84253730773926 111.0 L 73.7 114.3 L 63.8 126.7 L 52.9 138.0 L 40.9 148.1 L 27.7 157.0 L 13.4 164.7 L 12.5 163.2 L 25.5 153.9 L 37.4 144.0 L 48.3 133.3 L 58.0 121.9 L 65.62113819122314 111.0 L 14.0 111.0 L 14.0 107.0 L 68.09696969985961 107.0 L 74.2 96.4 L 80.7 82.4 L 81.58590602874756 80.0 L 47.0 80.0 L 47.0 76.0 L 83.06241607666016 76.0 L 86.2 67.5 L 90.5 51.6 L 93.71986751556396 35.784768199920656 L 94.2 33.0 L 105.7 37.0 L 108.3 39.5 L 104.80131216049195 40.83586263656616 L 101.6 54.5 L 96.3 71.0 L 94.22207794189453 76.0 L 131.0 76.0 L 141.0 66.0 L 153.0 76.0 L 153.0 80.0 L 118.83763437271118 80.0 L 123.0 87.9 L 128.1 96.7 L 133.5 105.1 L 134.91898736953735 107.0 L 164.0 107.0 L 174.0 97.0 L 186.0 107.0 L 186.0 111.0 L 137.90632915496826 111.0 L 139.4 113.0 L 145.6 120.5 L 152.4 127.5 L 159.6 134.1 L 167.4 140.3 L 175.6 146.0 L 184.4 151.3 L 188.6 153.9 L 177.5 162.6 L 168.4 156.3 Z M 92.55974025726319 80.0 L 89.9 86.4 L 82.4 100.9 L 78.43955221176148 107.0 L 126.45744676589966 107.0 L 122.9 99.4 L 119.2 89.5 L 116.61747570037842 80.0 Z M 74.5 44.0 L 76.0 47.3 L 72.13631677627563 47.23451385498047 L 70.7 49.2 L 66.6 54.2 L 62.4 59.1 L 57.8 63.7 L 53.1 68.1 L 48.1 72.4 L 42.9 76.4 L 37.4 80.2 L 31.6 83.6 L 25.5 86.7 L 24.4 85.2 L 29.3 80.5 L 34.0 76.0 L 38.6 71.4 L 42.9 66.8 L 47.0 62.2 L 51.0 57.5 L 54.6 52.6 L 58.1 47.7 L 61.3 42.7 L 63.822488403320314 38.41176967620849 L 63.8 38.4 L 64.00370368957519 38.1037036895752 L 64.3 37.6 L 64.33493146896362 37.62191781997681 L 64.9 36.8 Z M 157.6 69.8 L 154.9 65.8 L 152.0 61.8 L 148.8 58.0 L 145.4 54.2 L 141.7 50.4 L 137.8 46.8 L 133.7 43.0 L 129.4 39.2 L 130.3 37.7 L 135.7 39.8 L 140.9 42.4 L 145.8 45.3 L 150.4 48.5 L 154.8 51.9 L 158.9 55.6 L 162.7 59.4 L 166.3 63.5 L 169.6 67.9 L 172.7 72.4 L 173.2 76.9 L 170.4 80.6 L 165.9 81.0 L 162.2 78.3 L 160.1 74.0 Z " />
</g>
</svg>
