<svg xmlns="http://www.w3.org/2000/svg" xmlns:xlink="http://www.w3.org/1999/xlink" version="1.1" baseProfile="full" viewBox="0 0 200 200" width="200" height="200">
<g fill="black">
<path d="M 106.0 16.0 L 109.0 18.0 L 106.0 19.8 L 106.0 38.0 L 138.0 38.0 L 148.0 28.0 L 160.0 38.0 L 160.0 42.0 L 106.0 42.0 L 106.0 63.0 L 134.0 63.0 L 140.0 58.0 L 151.0 67.0 L 146.0 71.0 L 146.0 129.0 L 134.0 135.0 L 134.0 125.0 L 106.0 125.0 L 106.0 148.0 L 143.0 148.0 L 153.0 138.0 L 165.0 148.0 L 165.0 152.0 L 106.0 152.0 L 106.0 182.0 L 94.0 188.0 L 94.0 152.0 L 35.0 152.0 L 35.0 148.0 L 94.0 148.0 L 94.0 125.0 L 66.0 125.0 L 66.0 132.0 L 54.0 138.0 L 54.0 57.0 L 66.0 63.0 L 94.0 63.0 L 94.0 42.0 L 40.0 42.0 L 40.0 38.0 L 94.0 38.0 L 94.0 14.0 Z M 66.0 96.0 L 66.0 121.0 L 134.0 121.0 L 134.0 96.0 Z M 66.0 92.0 L 134.0 92.0 L 134.0 67.0 L 66.0 67.0 Z " />
</g>
</svg>
