<svg xmlns="http://www.w3.org/2000/svg" xmlns:xlink="http://www.w3.org/1999/xlink" version="1.1" baseProfile="full" viewBox="0 0 200 200" width="200" height="200">
<g fill="black">
<path d="M 154.4 183.9 L 145.4 180.0 L 137.1 175.6 L 129.4 170.7 L 122.4 165.4 L 116.2 159.7 L 110.8 153.5 L 106.2 146.8 L 103.0450704574585 140.4 L 102.97600002288819 140.4 L 100.0 146.6 L 95.2 153.6 L 89.3 159.9 L 82.3 165.7 L 74.2 171.0 L 65.2 175.8 L 55.0 180.1 L 43.8 183.8 L 31.5 187.0 L 18.2 189.6 L 17.7 187.9 L 30.4 183.4 L 42.0 178.8 L 52.4 174.0 L 61.6 169.1 L 69.7 163.9 L 76.5 158.5 L 82.1 152.9 L 86.6 147.1 L 90.0 141.3 L 90.33934421539307 140.4 L 18.0 140.4 L 18.0 136.4 L 91.84754095077514 136.4 L 92.05668439865113 135.84531526565553 L 93.78125 106.8 L 56.3659574508667 106.8 L 55.1 108.5 L 51.2 113.0 L 47.0 117.3 L 42.4 121.4 L 37.5 125.2 L 32.2 128.7 L 26.5 131.9 L 25.4 130.4 L 29.8 125.8 L 33.9 121.2 L 37.8 116.7 L 41.3 112.3 L 44.5 107.7 L 47.5 103.2 L 50.1 98.6 L 52.3 93.9 L 54.3 89.2 L 55.673813056945804 85.32099857330323 L 55.6 85.3 L 56.5 83.0 L 67.2 88.6 L 69.3 91.5 L 65.48477783203126 92.23627090454102 L 64.7 93.9 L 61.8 98.9 L 59.25306119918823 102.8 L 146.0 102.8 L 156.0 92.8 L 168.0 102.8 L 168.0 106.8 L 105.87155961990356 106.8 L 103.97064218521118 136.4 L 160.0 136.4 L 170.0 126.4 L 182.0 136.4 L 182.0 140.4 L 105.80892858505248 140.4 L 109.5 144.3 L 115.1 149.5 L 121.0 154.3 L 127.4 158.7 L 134.3 162.8 L 141.7 166.5 L 149.8 169.8 L 158.4 172.8 L 167.6 175.3 L 177.4 177.5 L 186.2 179.5 L 174.5 190.4 L 164.1 187.4 Z M 158.0 48.6 L 160.0 48.6 L 158.0 69.6 L 161.3 71.8 L 163.5 75.1 L 161.3 78.4 L 158.0 80.6 L 55.0 80.6 L 52.4 80.5 L 50.0 80.1 L 47.6 79.4 L 45.4 78.3 L 43.4 76.7 L 41.7 74.7 L 40.5 72.5 L 39.6 70.1 L 39.1 67.7 L 39.0 65.1 L 39.0 12.2 L 51.0 14.2 L 54.0 16.2 L 51.0 18.0 L 51.0 42.790909099578855 L 55.9 41.9 L 66.9 40.0 L 77.8 38.2 L 88.6 36.4 L 99.4 34.5 L 110.0 32.5 L 120.6 30.4 L 131.0 28.2 L 141.4 25.9 L 150.80266370773316 23.709088039398193 L 150.8 23.7 L 150.80912885665893 23.707581615448 L 151.7 23.5 L 151.9435941696167 24.649764728546142 L 162.6 33.5 L 163.0 36.5 L 158.5966941833496 34.35785121917725 L 154.2 35.3 L 143.6 37.1 L 133.0 38.8 L 122.2 40.3 L 111.4 41.7 L 100.6 42.9 L 89.6 43.9 L 78.6 44.8 L 67.5 45.4 L 56.3 45.7 L 51.0 45.7 L 51.0 66.4 L 51.1 67.3 L 51.2 67.9 L 51.5 68.5 L 51.7 68.8 L 52.7 69.3 L 53.7 69.5 L 55.0 69.6 L 152.5 69.6 Z " />
</g>
</svg>
