<svg xmlns="http://www.w3.org/2000/svg" xmlns:xlink="http://www.w3.org/1999/xlink" version="1.1" baseProfile="full" viewBox="0 0 200 200" width="200" height="200">
<g fill="black">
<path d="M 182.0 144.4 L 184.0 144.4 L 182.0 169.4 L 185.6 171.8 L 188.0 175.4 L 185.6 179.0 L 182.0 181.4 L 129.0 181.4 L 126.4 181.3 L 123.9 180.8 L 121.5 180.0 L 119.2 178.8 L 117.2 177.2 L 115.6 175.1 L 114.3 172.9 L 113.5 170.5 L 113.1 168.0 L 113.0 165.4 L 113.0 111.9 L 75.725 111.9 L 85.8 115.0 L 88.5 117.3 L 85.01020784378052 118.88028326034546 L 83.5 126.3 L 80.0 136.8 L 75.4 146.4 L 69.6 155.2 L 62.8 163.0 L 54.9 169.9 L 45.9 175.8 L 36.0 180.7 L 25.1 184.6 L 13.2 187.4 L 12.7 185.7 L 23.8 181.0 L 33.6 175.9 L 42.4 170.3 L 50.0 164.0 L 56.6 157.2 L 62.0 149.8 L 66.5 141.8 L 69.9 133.1 L 72.4 123.7 L 73.75262136459351 114.50217447280883 L 73.7 114.5 L 74.03548383712769 111.9 L 19.0 111.9 L 19.0 107.9 L 159.0 107.9 L 169.0 97.9 L 181.0 107.9 L 181.0 111.9 L 125.0 111.9 L 125.0 166.7 L 125.2 167.6 L 125.5 168.5 L 125.7 168.7 L 125.9 168.8 L 126.2 169.0 L 126.8 169.2 L 127.7 169.4 L 176.0 169.4 Z M 46.6 93.2 L 34.6 99.2 L 34.6 30.1 L 46.6 32.1 L 49.6 34.1 L 46.6 35.9 L 46.6 77.2 L 94.0 77.2 L 94.0 12.1 L 106.0 14.1 L 109.0 16.1 L 106.0 17.9 L 106.0 77.2 L 153.4 77.2 L 153.4 30.1 L 165.4 32.1 L 168.4 34.1 L 165.4 35.9 L 165.4 87.2 L 153.4 93.2 L 153.4 81.2 L 46.6 81.2 Z " />
</g>
</svg>
