<svg xmlns="http://www.w3.org/2000/svg" xmlns:xlink="http://www.w3.org/1999/xlink" version="1.1" baseProfile="full" viewBox="0 0 200 200" width="200" height="200">
<g fill="black">
<path d="M 101.9 143.2 L 99.2 140.6 L 96.0 137.9 L 92.4 135.2 L 88.2 132.4 L 83.7 129.6 L 78.6 126.7 L 73.2 123.6 L 69.44032678604125 121.49713191986083 L 64.6 125.0 L 56.4 130.2 L 47.7 135.1 L 38.2 139.6 L 28.1 143.7 L 27.4 142.1 L 36.4 136.2 L 44.9 130.5 L 52.8 124.7 L 60.0 118.9 L 66.7 113.0 L 72.7 107.1 L 78.1 101.0 L 82.8 94.8 L 86.9 88.6 L 90.4 82.3 L 90.41595134735107 82.30881128311157 L 91.0 81.3 L 100.9 88.1 L 102.6 91.3 L 98.69474754333496 91.43238143920898 L 96.4 94.9 L 92.85454549789429 99.4 L 155.7 99.4 L 161.7 94.4 L 172.7 103.4 L 167.7 106.4 L 165.2557692527771 107.41842947006225 L 160.0 117.2 L 151.2 129.6 L 140.9 140.9 L 129.1 151.1 L 115.8 160.2 L 101.1 168.2 L 84.9 175.1 L 67.4 180.9 L 48.4 185.5 L 27.9 188.9 L 27.6 187.1 L 47.4 181.8 L 65.7 175.8 L 82.4 169.0 L 97.6 161.4 L 111.2 153.0 L 123.2 143.9 L 133.7 133.9 L 142.7 123.1 L 150.2 111.4 L 154.0709677696228 103.4 L 89.45322580337525 103.4 L 85.5 107.7 L 79.1 113.7 L 72.2 119.5 L 72.13384456634522 119.5478756904602 L 74.6 120.1 L 80.7 121.8 L 86.5 123.7 L 91.7 125.7 L 96.6 127.9 L 101.1 130.2 L 105.2 132.5 L 108.8 135.0 L 112.2 137.6 L 115.1 140.4 L 116.3 144.8 L 114.2 148.9 L 109.8 150.1 L 105.7 148.0 L 104.1 145.6 Z M 51.2 68.1 L 49.7 65.3 L 48.1 62.6 L 46.3 59.8 L 44.3 57.1 L 42.2 54.4 L 39.9 51.7 L 37.5 48.9 L 34.8 46.3 L 35.363934421539305 45.454098320007326 L 35.0 45.7 L 33.8 44.4 L 36.7 41.0 L 39.2 37.6 L 41.7 34.3 L 44.0 31.1 L 46.2 28.1 L 48.2 25.1 L 50.1 22.2 L 51.9 19.4 L 53.5 16.6 L 54.42992124557495 14.873003387451172 L 54.3 14.8 L 55.4 13.2 L 64.8 20.7 L 66.2 24.0 L 62.130091953277585 23.78948755264282 L 60.2 25.8 L 57.6 28.4 L 54.9 30.9 L 52.0 33.4 L 49.0 35.9 L 45.8 38.4 L 42.4 40.9 L 38.7 43.2 L 36.098285007476804 44.9579155921936 L 39.2 46.6 L 42.6 48.2 L 45.9 50.1 L 49.0 52.2 L 51.9 54.5 L 54.7 56.9 L 57.4 59.5 L 59.8 62.2 L 62.2 65.1 L 64.3 68.1 L 64.7 72.6 L 61.8 76.2 L 57.3 76.6 L 53.7 73.7 L 52.5 70.9 Z M 100.1 68.1 L 98.6 65.3 L 96.9 62.6 L 95.1 59.8 L 93.2 57.1 L 88.8 51.7 L 86.4 48.9 L 83.6 46.3 L 84.08196725845337 45.57704916000366 L 83.9 45.7 L 82.7 44.4 L 85.5 41.0 L 88.1 37.6 L 90.5 34.3 L 92.9 31.1 L 95.1 28.1 L 97.1 25.1 L 99.0 22.2 L 100.8 19.4 L 102.4 16.6 L 103.32992124557495 14.873003387451172 L 103.2 14.8 L 104.3 13.2 L 113.7 20.7 L 115.1 24.0 L 111.03009195327759 23.78948755264282 L 109.1 25.8 L 106.5 28.4 L 103.8 30.9 L 100.9 33.4 L 97.9 35.9 L 94.6 38.4 L 91.2 40.9 L 87.6 43.2 L 84.95885791778565 44.98455553054809 L 88.1 46.6 L 91.5 48.2 L 94.8 50.1 L 97.9 52.2 L 100.8 54.5 L 103.6 56.9 L 106.2 59.5 L 108.7 62.2 L 111.0 65.1 L 113.2 68.1 L 113.6 72.6 L 110.7 76.2 L 106.2 76.6 L 102.6 73.7 L 101.4 70.9 Z M 149.0 68.1 L 147.5 65.3 L 145.8 62.6 L 144.0 59.8 L 142.1 57.1 L 137.7 51.7 L 135.3 48.9 L 132.5 46.3 L 132.98196725845338 45.57704916000366 L 132.8 45.7 L 131.6 44.4 L 134.4 41.0 L 137.0 37.6 L 139.4 34.3 L 141.8 31.1 L 144.0 28.1 L 146.0 25.1 L 147.9 22.2 L 149.7 19.4 L 151.2 16.6 L 152.2045642852783 14.858755207061767 L 152.1 14.8 L 153.2 13.2 L 162.6 20.7 L 164.0 24.0 L 159.83148031234742 23.788041400909425 L 157.9 25.8 L 155.4 28.4 L 152.7 30.9 L 149.8 33.4 L 146.7 35.9 L 143.5 38.4 L 140.1 40.9 L 136.5 43.2 L 133.8543535232544 44.987598991394044 L 136.9 46.6 L 140.4 48.2 L 143.7 50.1 L 146.8 52.2 L 149.7 54.5 L 152.5 56.9 L 155.1 59.5 L 157.6 62.2 L 159.9 65.1 L 162.1 68.1 L 162.5 72.6 L 159.6 76.2 L 155.1 76.6 L 151.5 73.7 L 150.3 70.9 Z " />
</g>
</svg>
