<svg xmlns="http://www.w3.org/2000/svg" xmlns:xlink="http://www.w3.org/1999/xlink" version="1.1" baseProfile="full" viewBox="0 0 200 200" width="200" height="200">
<g fill="black">
<path d="M 166.5 68.0 L 166.5 72.0 L 106.0 72.0 L 106.0 115.2 L 158.7 115.2 L 168.7 105.2 L 180.7 115.2 L 180.7 119.2 L 106.0 119.2 L 106.0 181.7 L 94.0 187.7 L 94.0 119.2 L 19.2 119.2 L 19.2 115.2 L 94.0 115.2 L 94.0 72.0 L 33.5 72.0 L 33.5 68.0 L 144.5 68.0 L 154.5 58.0 Z M 153.5 21.7 L 155.1 25.0 L 151.2432801246643 24.934631824493408 L 150.5 26.0 L 144.1 34.6 L 137.3 43.0 L 133.7 47.2 L 130.0 51.3 L 126.1 55.3 L 122.0 59.2 L 117.6 63.0 L 116.3 61.9 L 119.0 56.9 L 121.9 52.0 L 124.7 47.3 L 127.6 42.7 L 130.4 38.1 L 133.1 33.5 L 135.8 29.0 L 138.4 24.4 L 140.9 19.9 L 142.8157585144043 16.307952880859375 L 142.8 16.3 L 143.01428575515746 15.93571424484253 L 143.3 15.4 L 143.32157363891602 15.41332483291626 L 143.8 14.6 Z M 69.4 47.9 L 67.6 44.3 L 65.4 40.7 L 62.9 37.1 L 60.0 33.7 L 56.9 30.3 L 53.4 26.9 L 49.6 23.4 L 45.4 20.0 L 46.3 18.4 L 51.4 20.4 L 56.3 22.7 L 60.8 25.3 L 65.1 28.2 L 68.9 31.4 L 72.5 34.9 L 75.8 38.6 L 78.7 42.6 L 81.3 46.8 L 83.5 51.3 L 83.3 55.8 L 80.0 59.0 L 75.4 58.8 L 72.3 55.5 L 71.0 51.7 Z " />
</g>
</svg>
