<svg xmlns="http://www.w3.org/2000/svg" xmlns:xlink="http://www.w3.org/1999/xlink" version="1.1" baseProfile="full" viewBox="0 0 200 200" width="200" height="200">
<g fill="black">
<path d="M 156.1 169.4 L 146.9 160.7 L 138.8 151.1 L 136.88876066207885 148.20583753585817 L 130.0 157.0 L 119.2 167.4 L 107.3 176.2 L 94.2 183.3 L 80.0 188.8 L 79.4 187.1 L 92.4 180.0 L 104.2 171.8 L 114.8 162.5 L 124.2 152.1 L 132.05707855224608 140.8892903327942 L 131.8 140.5 L 125.8 128.9 L 120.9 116.5 L 117.1 103.2 L 114.5 89.1 L 113.72768697738647 80.18869562149048 L 109.3 86.7 L 103.9 93.9 L 98.0 100.5 L 96.6 99.4 L 100.7 91.7 L 104.7 84.0 L 108.6 76.0 L 112.2 67.9 L 115.5 59.5 L 118.6 50.9 L 121.4 42.0 L 124.0 32.8 L 126.2 23.4 L 128.01404371261597 14.601888179779053 L 128.0 14.6 L 128.6 11.8 L 139.9 16.2 L 142.4 18.8 L 138.86861839294434 20.01993179321289 L 137.2 26.2 L 134.3 35.9 L 130.9 45.2 L 127.3 54.2 L 124.1735631942749 61.0 L 165.9 61.0 L 175.9 51.0 L 187.9 61.0 L 187.9 65.0 L 167.7654450416565 65.0 L 164.8 82.7 L 160.4 100.4 L 154.6 116.7 L 147.7 131.6 L 142.79226121902465 139.52333736419678 L 146.8 144.7 L 154.7 152.9 L 163.5 160.2 L 173.1 166.6 L 183.5 172.0 L 188.9 174.7 L 177.6 183.9 L 166.4 177.2 Z M 35.94285717010498 42.57142858505249 L 36.8 42.3 L 42.6 40.3 L 48.3 38.2 L 53.8 35.9 L 59.1 33.4 L 64.3 30.7 L 69.4 27.8 L 74.3 24.6 L 79.1 21.1 L 83.01567964553833 18.017443656921387 L 83.0 18.0 L 83.8 17.3 L 91.0 26.9 L 91.2 30.5 L 87.62439498901367 29.109486961364745 L 85.5 30.5 L 79.9 33.7 L 74.1 36.6 L 68.3 39.1 L 62.3 41.3 L 56.3 43.1 L 50.1 44.5 L 43.8 45.5 L 37.5 46.0 L 37.0 46.0 L 37.0 64.6 L 84.4 64.6 L 90.4 59.6 L 101.4 68.6 L 96.4 72.6 L 96.4 115.8 L 84.4 121.8 L 84.4 109.8 L 36.908256912231444 109.8 L 36.5 118.7 L 35.6 128.9 L 34.3 138.5 L 32.6 147.5 L 30.5 155.8 L 28.0 163.5 L 25.0 170.5 L 21.6 176.7 L 17.7 182.2 L 13.3 186.7 L 11.9 185.6 L 14.5 180.2 L 16.8 174.3 L 18.9 168.1 L 20.7 161.2 L 22.2 153.9 L 23.4 145.9 L 24.3 137.3 L 24.9 128.1 L 25.1 118.3 L 25.0 107.8 L 25.0 37.1 Z M 122.21204814910888 65.0 L 119.0 71.2 L 115.70454921722413 76.93121871948242 L 118.6 88.2 L 122.8 101.6 L 127.6 113.9 L 133.2 125.2 L 137.1741268157959 131.53376455307006 L 139.4 127.4 L 145.3 113.1 L 150.0 97.6 L 153.6 80.6 L 155.73114757537843 65.0 Z M 37.0 68.6 L 37.0 105.8 L 84.4 105.8 L 84.4 68.6 Z " />
</g>
</svg>
