<svg xmlns="http://www.w3.org/2000/svg" xmlns:xlink="http://www.w3.org/1999/xlink" version="1.1" baseProfile="full" viewBox="0 0 200 200" width="200" height="200">
<g fill="black">
<path d="M 53.3 114.5 L 146.6 114.5 L 152.6 109.5 L 163.6 118.5 L 158.6 122.5 L 158.6 176.2 L 146.6 182.2 L 146.6 172.2 L 53.3 172.2 L 53.3 179.2 L 41.3 185.2 L 41.3 108.5 Z M 53.3 145.4 L 53.3 168.2 L 146.6 168.2 L 146.6 145.4 Z M 53.3 118.5 L 53.3 141.4 L 146.6 141.4 L 146.6 118.5 Z M 84.5 77.9 L 82.8 75.1 L 80.9 72.5 L 78.7 69.9 L 76.4 67.3 L 73.8 64.8 L 70.9 62.3 L 69.0 60.65333337783814 L 69.0 105.0 L 57.0 111.0 L 57.0 64.32195119857788 L 54.3 68.8 L 49.7 75.3 L 44.8 81.3 L 39.5 86.9 L 33.8 92.0 L 27.8 96.7 L 21.3 100.8 L 14.4 104.2 L 13.5 102.7 L 19.1 97.7 L 24.3 92.6 L 29.2 87.3 L 33.9 81.8 L 38.1 76.1 L 42.0 70.0 L 45.6 63.7 L 48.8 57.1 L 51.7 50.2 L 52.80769233703613 47.0 L 18.0 47.0 L 18.0 43.0 L 57.0 43.0 L 57.0 14.7 L 69.0 16.7 L 72.0 18.7 L 69.0 20.5 L 69.0 43.0 L 77.0 43.0 L 87.0 33.0 L 99.0 43.0 L 99.0 47.0 L 69.0 47.0 L 69.0 57.00487804412842 L 69.3 57.1 L 73.2 58.4 L 77.0 60.0 L 80.5 61.8 L 83.9 63.9 L 87.1 66.2 L 90.0 68.8 L 92.8 71.5 L 95.4 74.5 L 97.7 77.7 L 98.2 82.2 L 95.4 85.8 L 90.9 86.3 L 87.2 83.5 L 86.0 80.6 Z M 166.1 93.3 L 161.5 88.5 L 157.3 83.3 L 153.4 77.9 L 149.8 72.1 L 146.5 66.1 L 143.7 59.8 L 143.0 57.875 L 143.0 105.0 L 131.0 111.0 L 131.0 64.32195119857788 L 128.3 68.8 L 123.7 75.3 L 118.8 81.3 L 113.5 86.9 L 107.8 92.0 L 101.8 96.7 L 95.3 100.8 L 88.4 104.2 L 87.5 102.7 L 93.1 97.7 L 98.3 92.6 L 103.2 87.3 L 107.9 81.8 L 112.1 76.1 L 116.0 70.0 L 119.6 63.7 L 122.8 57.1 L 125.7 50.2 L 126.80769233703613 47.0 L 101.0 47.0 L 101.0 43.0 L 131.0 43.0 L 131.0 14.7 L 143.0 16.7 L 146.0 18.7 L 143.0 20.5 L 143.0 43.0 L 160.0 43.0 L 170.0 33.0 L 182.0 43.0 L 182.0 47.0 L 143.0 47.0 L 143.0 48.22307691574097 L 145.1 51.4 L 148.9 57.0 L 152.7 62.4 L 156.6 67.4 L 160.7 72.1 L 165.0 76.6 L 169.4 80.7 L 174.0 84.5 L 178.7 88.0 L 183.7 91.3 L 187.2 93.7 L 176.2 102.1 L 171.0 97.9 Z " />
</g>
</svg>
