<svg xmlns="http://www.w3.org/2000/svg" xmlns:xlink="http://www.w3.org/1999/xlink" version="1.1" baseProfile="full" viewBox="0 0 200 200" width="200" height="200">
<g fill="black">
<path d="M 176.7 69.7 L 178.4 72.9 L 174.67723293304442 73.0283712387085 L 165.7 87.8 L 153.5 104.5 L 140.4 119.8 L 126.3 133.5 L 111.2 145.8 L 95.1 156.5 L 78.0 165.8 L 60.0 173.4 L 41.0 179.5 L 21.2 183.8 L 20.7 182.1 L 39.9 175.8 L 58.0 168.5 L 75.0 159.9 L 91.0 150.1 L 106.0 139.1 L 120.0 126.7 L 133.0 113.0 L 145.0 98.0 L 156.1 81.7 L 165.734686088562 64.8154510498047 L 165.7 64.8 L 166.7 63.0 Z M 106.0 20.0 L 109.0 22.0 L 106.0 23.8 L 106.0 122.0 L 94.0 128.0 L 94.0 18.0 Z M 66.3 52.9 L 68.5 55.8 L 64.77411680221557 56.50663299560547 L 63.0 60.7 L 59.5 68.4 L 55.6 76.0 L 51.5 83.3 L 47.0 90.6 L 42.3 97.6 L 37.2 104.5 L 31.7 111.1 L 25.9 117.5 L 19.6 123.5 L 18.3 122.4 L 22.9 115.1 L 27.4 107.9 L 31.7 100.8 L 35.8 93.6 L 39.7 86.3 L 43.3 79.0 L 46.6 71.6 L 49.7 64.1 L 52.4 56.6 L 54.657370471954344 49.914710426330565 L 54.6 49.9 L 55.5 47.5 Z " />
</g>
</svg>
