<svg xmlns="http://www.w3.org/2000/svg" xmlns:xlink="http://www.w3.org/1999/xlink" version="1.1" baseProfile="full" viewBox="0 0 200 200" width="200" height="200">
<g fill="black">
<path d="M 85.8 95.2 L 83.1 92.5 L 80.3 89.8 L 77.3 87.2 L 74.1 84.6 L 70.7 82.1 L 67.2 79.6 L 63.6 77.0 L 61.177364349365234 75.50914726257324 L 58.8 79.8 L 53.8 86.4 L 47.9 92.0 L 41.3 96.8 L 34.7528302192688 100.07358493804932 L 35.5 105.1 L 35.89130430221557 110.5 L 170.3 110.5 L 176.3 105.5 L 187.3 114.5 L 182.3 117.5 L 179.34615383148193 118.7307692527771 L 178.3 120.3 L 176.3 123.2 L 174.2 126.1 L 171.9 129.2 L 169.4 132.5 L 166.7 135.8 L 163.8 139.3 L 160.6 142.8 L 157.4 146.6 L 155.9 145.6 L 158.0 141.1 L 159.8 136.8 L 161.7 132.7 L 163.4 128.8 L 165.0 125.2 L 166.5 121.7 L 167.8 118.5 L 169.0 115.4 L 169.3214285850525 114.5 L 36.0390625 114.5 L 36.1 118.4 L 35.7 124.4 L 35.0 129.9 L 33.9 135.0 L 32.3 139.6 L 30.3 143.9 L 27.8 147.7 L 24.8 151.0 L 20.4 152.2 L 16.4 150.1 L 15.2 145.7 L 17.3 141.6 L 19.3 140.1 L 21.4 138.0 L 23.3 135.3 L 25.1 131.8 L 26.8 127.8 L 28.2 123.0 L 29.5 117.7 L 30.6 111.6 L 31.7 105.0 L 32.19492063522339 101.04063491821289 L 25.7 103.1 L 25.1 101.5 L 32.1 97.1 L 38.2 92.4 L 43.4 87.3 L 47.8 81.7 L 51.4 75.6 L 54.3 68.8 L 56.4 61.5 L 57.8 53.5 L 58.5 44.8 L 58.41062698364258 36.39893732070923 L 58.4 36.4 L 58.3 33.1 L 70.4 35.2 L 73.4 37.1 L 70.17258653640747 39.141833019256595 L 69.8 45.6 L 68.4 55.3 L 66.1 64.2 L 62.9 72.4 L 62.35781536102295 73.37857713699341 L 64.9 74.0 L 69.4 75.3 L 73.6 76.8 L 77.8 78.5 L 81.7 80.4 L 85.6 82.5 L 89.2 84.8 L 92.8 87.2 L 96.2 89.8 L 99.4 92.6 L 101.0 96.9 L 99.2 101.1 L 94.9 102.7 L 90.7 100.8 L 88.3 98.0 Z M 160.8 95.2 L 158.1 92.5 L 155.3 89.8 L 152.3 87.2 L 149.1 84.6 L 145.7 82.1 L 142.2 79.6 L 138.6 77.0 L 136.17736434936523 75.50914726257324 L 133.8 79.8 L 128.8 86.4 L 122.9 92.0 L 116.3 96.8 L 108.9 100.5 L 100.7 103.1 L 100.1 101.5 L 107.1 97.1 L 113.2 92.4 L 118.4 87.3 L 122.8 81.7 L 126.4 75.6 L 129.3 68.8 L 131.4 61.5 L 132.8 53.5 L 133.5 44.8 L 133.41062698364257 36.39893732070923 L 133.4 36.4 L 133.3 33.1 L 145.4 35.2 L 148.4 37.1 L 145.17258653640747 39.141833019256595 L 144.8 45.6 L 143.4 55.3 L 141.1 64.2 L 137.9 72.4 L 137.35781536102294 73.37857713699341 L 139.9 74.0 L 144.4 75.3 L 148.6 76.8 L 152.8 78.5 L 156.7 80.4 L 160.6 82.5 L 164.2 84.8 L 167.8 87.2 L 171.2 89.8 L 174.4 92.6 L 176.0 96.9 L 174.2 101.1 L 169.9 102.7 L 165.7 100.8 L 163.3 98.0 Z M 31.1 74.0 L 29.0 70.0 L 30.2 65.6 L 31.8 64.2 L 33.2 62.8 L 34.5 61.3 L 35.6 59.8 L 36.6 58.1 L 37.5 56.3 L 38.2 54.4 L 38.8 52.4 L 39.3 50.1 L 39.0 47.8 L 40.8 47.4 L 41.5 49.7 L 42.6 52.1 L 43.3 54.6 L 43.6 57.1 L 43.7 59.7 L 43.5 62.4 L 43.0 65.1 L 42.1 67.8 L 41.0 70.5 L 39.6 73.1 L 35.5 75.3 Z M 106.1 74.0 L 104.0 70.0 L 105.2 65.6 L 106.8 64.2 L 108.2 62.8 L 109.5 61.3 L 110.6 59.8 L 111.6 58.1 L 112.5 56.3 L 113.2 54.4 L 113.8 52.4 L 114.3 50.1 L 114.0 47.8 L 115.8 47.4 L 116.5 49.7 L 117.6 52.1 L 118.3 54.6 L 118.6 57.1 L 118.7 59.7 L 118.5 62.4 L 118.0 65.1 L 117.1 67.8 L 116.0 70.5 L 114.6 73.1 L 110.5 75.3 Z M 173.0 47.9 L 174.6 51.2 L 170.26544904708862 51.27473363876343 L 169.2 52.5 L 167.0 54.7 L 164.8 56.8 L 162.4 58.8 L 159.9 60.8 L 157.2 62.7 L 154.4 64.5 L 151.4 66.2 L 148.5 68.1 L 147.3 66.8 L 149.6 64.2 L 151.5 61.5 L 153.4 58.9 L 155.1 56.3 L 156.7 53.8 L 158.1 51.3 L 159.5 48.9 L 160.7 46.5 L 161.7 44.2 L 162.22494945526122 42.85846261978149 L 162.1 42.8 L 162.5109889984131 42.127472496032716 L 162.6 41.9 L 162.6369668006897 41.92132701873779 L 163.2 41.0 Z M 98.0 47.9 L 99.6 51.2 L 95.26544904708862 51.27473363876343 L 94.2 52.5 L 92.0 54.7 L 89.8 56.8 L 87.4 58.8 L 84.9 60.8 L 82.2 62.7 L 79.4 64.5 L 76.4 66.2 L 73.5 68.1 L 72.3 66.8 L 74.6 64.2 L 76.5 61.5 L 78.4 58.9 L 80.1 56.3 L 81.7 53.8 L 83.1 51.3 L 84.5 48.9 L 85.7 46.5 L 86.7 44.2 L 87.22494945526122 42.85846261978149 L 87.1 42.8 L 87.51098899841308 42.127472496032716 L 87.6 41.9 L 87.63696680068969 41.92132701873779 L 88.2 41.0 Z " />
</g>
</svg>
