<svg xmlns="http://www.w3.org/2000/svg" xmlns:xlink="http://www.w3.org/1999/xlink" version="1.1" baseProfile="full" viewBox="0 0 200 200" width="200" height="200">
<g fill="black">
<path d="M 75.3 117.3 L 73.6 114.9 L 71.6 112.6 L 69.4 110.3 L 67.1 108.0 L 64.5 105.8 L 61.7 103.5 L 59.0 101.35862064361572 L 59.0 183.0 L 47.0 189.0 L 47.0 106.08888893127441 L 43.6 114.4 L 39.6 122.9 L 35.2 131.1 L 30.5 138.8 L 25.3 146.2 L 19.7 153.1 L 13.7 159.5 L 12.2 158.4 L 16.6 150.9 L 20.8 143.3 L 24.8 135.6 L 28.4 127.6 L 31.8 119.5 L 34.9 111.1 L 37.7 102.4 L 40.1 93.4 L 42.3 84.2 L 43.434146308898924 78.0 L 13.0 78.0 L 13.0 74.0 L 47.0 74.0 L 47.0 40.38571424484253 L 41.5 41.6 L 33.3 43.2 L 24.5 44.6 L 15.2 45.8 L 14.7 44.1 L 23.6 40.9 L 32.0 38.0 L 39.8 35.2 L 47.0 32.6 L 53.7 30.0 L 59.8 27.5 L 65.3 25.1 L 70.2 22.7 L 74.5 20.4 L 77.31683416366577 18.72512559890747 L 77.3 18.7 L 77.322190284729 18.721940898895262 L 78.2 18.2 L 79.8917236328125 21.262603187561034 L 86.2 27.5 L 86.3 30.8 L 82.61637477874756 29.301576137542725 L 79.4 30.7 L 74.4 32.6 L 68.9 34.5 L 62.9 36.3 L 59.0 37.36363639831543 L 59.0 74.0 L 68.0 74.0 L 78.0 64.0 L 90.0 74.0 L 90.0 78.0 L 59.0 78.0 L 59.0 98.31052627563477 L 63.8 99.7 L 67.4 100.9 L 70.8 102.4 L 74.0 104.1 L 77.2 105.9 L 80.1 107.9 L 82.9 110.1 L 85.5 112.5 L 88.0 115.0 L 89.0 119.4 L 86.7 123.4 L 82.3 124.4 L 78.3 122.1 L 76.9 119.7 Z M 162.4 179.6 L 160.6 181.1 L 158.6 182.4 L 156.5 183.5 L 154.3 184.4 L 152.0 185.1 L 149.7 185.6 L 147.3 185.9 L 144.8 186.0 L 144.8 180.0 L 124.8 177.0 L 124.8 174.0 L 144.8 174.0 L 146.3 173.9 L 147.7 173.7 L 149.0 173.4 L 150.2 173.1 L 151.4 172.6 L 152.5 172.0 L 153.6 171.3 L 154.6 170.5 L 155.6 169.5 L 156.6 168.4 L 159.2 164.6 L 161.7 158.8 L 164.1 151.2 L 166.2 141.8 L 168.0 130.7 L 169.5 117.9 L 170.7 103.4 L 171.5 87.2 L 172.0 69.4 L 172.17938146591186 52.0 L 148.3021978378296 52.0 L 146.1 68.7 L 142.6 86.0 L 138.2 102.3 L 132.7 117.7 L 126.2 132.0 L 118.7 145.3 L 110.2 157.6 L 100.7 168.8 L 90.1 178.8 L 78.5 187.7 L 77.4 186.2 L 87.5 176.1 L 96.6 165.3 L 104.8 153.8 L 112.2 141.5 L 118.5 128.4 L 124.0 114.4 L 128.5 99.5 L 132.1 83.7 L 134.8 67.1 L 136.21286554336547 52.0 L 114.11683168411255 52.0 L 111.8 59.8 L 108.4 69.1 L 104.5 77.8 L 100.1 85.7 L 95.3 92.9 L 90.0 99.2 L 84.1 104.6 L 82.8 103.3 L 86.9 96.9 L 90.8 90.0 L 94.3 82.7 L 97.5 74.8 L 100.4 66.3 L 102.9 57.2 L 105.1 47.4 L 106.9 37.1 L 108.3 26.0 L 109.31463203430175 15.300243854522705 L 109.3 15.3 L 109.6 12.2 L 121.3 15.5 L 124.1 17.8 L 120.75519371032715 19.377738857269286 L 119.6 27.6 L 117.4 39.0 L 115.2130841255188 48.0 L 172.2 48.0 L 178.2 43.0 L 189.2 52.0 L 184.2 55.0 L 184.14876174926758 55.02134923934936 L 184.0 69.6 L 183.5 87.7 L 182.7 104.2 L 181.4 119.1 L 179.9 132.4 L 178.0 144.1 L 175.7 154.3 L 173.0 163.0 L 169.7 170.2 L 165.8 176.1 L 164.2 177.9 Z " />
</g>
</svg>
