<svg xmlns="http://www.w3.org/2000/svg" xmlns:xlink="http://www.w3.org/1999/xlink" version="1.1" baseProfile="full" viewBox="0 0 200 200" width="200" height="200">
<g fill="black">
<path d="M 20.0 176.0 L 94.0 176.0 L 94.0 122.0 L 34.0 122.0 L 34.0 118.0 L 94.0 118.0 L 94.0 71.0 L 28.0 71.0 L 28.0 67.0 L 149.0 67.0 L 159.0 57.0 L 171.0 67.0 L 171.0 71.0 L 106.0 71.0 L 106.0 118.0 L 142.0 118.0 L 152.0 108.0 L 164.0 118.0 L 164.0 122.0 L 106.0 122.0 L 106.0 176.0 L 158.0 176.0 L 168.0 166.0 L 180.0 176.0 L 180.0 180.0 L 20.0 180.0 Z M 156.1 26.6 L 157.2 30.1 L 153.00615386962892 29.593846130371094 L 150.6 32.0 L 148.1 34.6 L 145.3 37.6 L 142.1 41.0 L 138.6 44.7 L 134.7 48.9 L 130.3 53.3 L 125.7 58.2 L 124.2 57.1 L 127.7 51.3 L 130.8 45.9 L 133.7 41.0 L 136.4 36.6 L 140.9 29.1 L 142.8 26.0 L 144.3 23.3 L 145.6 21.1 L 146.11458673477173 20.17374391555786 L 146.0 20.1 L 147.0 18.7 Z M 61.0 47.3 L 59.6 43.9 L 58.0 40.5 L 56.2 37.3 L 54.2 34.1 L 52.0 30.9 L 49.7 27.8 L 47.1 24.6 L 44.2 21.5 L 45.3 20.1 L 49.1 22.1 L 52.8 24.3 L 56.3 26.7 L 59.5 29.4 L 62.6 32.4 L 65.4 35.5 L 68.0 38.9 L 70.4 42.5 L 72.6 46.2 L 74.6 50.2 L 74.3 54.7 L 71.0 57.9 L 66.4 57.6 L 63.3 54.3 L 62.2 50.7 Z " />
</g>
</svg>
