<svg xmlns="http://www.w3.org/2000/svg" xmlns:xlink="http://www.w3.org/1999/xlink" version="1.1" baseProfile="full" viewBox="0 0 200 200" width="200" height="200">
<g fill="black">
<path d="M 57.0 68.9 L 60.6 71.0 L 64.0 73.3 L 67.1 75.8 L 70.0 78.5 L 72.7 81.3 L 75.1 84.3 L 77.2 87.5 L 79.1 90.8 L 80.8 94.3 L 80.3 98.8 L 77.80666666030884 101.0 L 117.98235292434693 101.0 L 119.1 99.0 L 120.9 95.5 L 122.8 92.0 L 124.7 88.6 L 126.6 85.3 L 128.6 81.9 L 130.5 78.5 L 135.99621534347534 69.15643396377564 L 135.9 69.1 L 137.0 67.6 L 146.3 75.2 L 147.6 78.6 L 143.67370128631592 78.32922077178955 L 141.0 81.3 L 138.4 84.2 L 135.7 87.2 L 133.0 90.1 L 130.2 92.9 L 124.6 98.3 L 121.6 100.9 L 121.4884614944458 101.0 L 151.0 101.0 L 161.0 91.0 L 173.0 101.0 L 173.0 105.0 L 106.0 105.0 L 106.0 128.0 L 142.0 128.0 L 152.0 118.0 L 164.0 128.0 L 164.0 132.0 L 106.0 132.0 L 106.0 155.0 L 161.0 155.0 L 171.0 145.0 L 183.0 155.0 L 183.0 159.0 L 106.0 159.0 L 106.0 184.0 L 94.0 190.0 L 94.0 159.0 L 21.0 159.0 L 21.0 155.0 L 94.0 155.0 L 94.0 132.0 L 36.0 132.0 L 36.0 128.0 L 94.0 128.0 L 94.0 105.0 L 30.0 105.0 L 30.0 101.0 L 71.95714282989502 101.0 L 69.3 97.9 L 68.7 95.0 L 67.8 92.1 L 66.7 89.2 L 65.4 86.2 L 63.8 83.3 L 62.0 80.3 L 60.0 77.4 L 57.7 74.3 L 55.2 71.2 L 52.2 68.3 L 53.15333337783814 67.0 L 19.0 67.0 L 19.0 63.0 L 94.0 63.0 L 94.0 40.0 L 31.0 40.0 L 31.0 36.0 L 94.0 36.0 L 94.0 14.0 L 106.0 16.0 L 109.0 18.0 L 106.0 19.8 L 106.0 36.0 L 148.0 36.0 L 158.0 26.0 L 170.0 36.0 L 170.0 40.0 L 106.0 40.0 L 106.0 63.0 L 161.0 63.0 L 171.0 53.0 L 183.0 63.0 L 183.0 67.0 L 53.65238094329834 67.0 Z " />
</g>
</svg>
