<svg xmlns="http://www.w3.org/2000/svg" xmlns:xlink="http://www.w3.org/1999/xlink" version="1.1" baseProfile="full" viewBox="0 0 200 200" width="200" height="200">
<g fill="black">
<path d="M 38.0 184.0 L 26.0 190.0 L 26.0 23.0 L 38.0 29.0 L 153.0 29.0 L 163.0 19.0 L 175.0 29.0 L 175.0 33.0 L 114.0 33.0 L 114.0 72.0 L 150.0 72.0 L 156.0 67.0 L 167.0 76.0 L 162.0 80.0 L 162.0 131.0 L 150.0 137.0 L 150.0 125.0 L 114.0 125.0 L 114.0 168.0 L 162.0 168.0 L 172.0 158.0 L 184.0 168.0 L 184.0 172.0 L 38.0 172.0 Z M 38.0 33.0 L 38.0 168.0 L 102.0 168.0 L 102.0 115.0 L 114.0 121.0 L 150.0 121.0 L 150.0 76.0 L 114.0 76.0 L 114.0 88.0 L 102.0 94.0 L 102.0 33.0 Z M 76.0 61.0 L 79.0 63.0 L 76.0 64.8 L 76.0 134.0 L 64.0 140.0 L 64.0 59.0 Z " />
</g>
</svg>
