<svg xmlns="http://www.w3.org/2000/svg" xmlns:xlink="http://www.w3.org/1999/xlink" version="1.1" baseProfile="full" viewBox="0 0 200 200" width="200" height="200">
<g fill="black">
<path d="M 106.0 14.0 L 109.0 16.0 L 106.0 17.8 L 106.0 183.0 L 94.0 189.0 L 94.0 12.0 Z M 77.52349462509156 34.9543044090271 L 85.4 42.1 L 85.6 45.3 L 81.69666986465454 43.71427211761475 L 81.5 43.8 L 77.8 45.1 L 74.0 46.4 L 70.0 47.6 L 65.8 48.9 L 61.5 50.1 L 57.0 51.4 L 52.4 52.6 L 47.5 53.8 L 43.0 54.7 L 43.0 93.0 L 61.81818180084228 93.0 L 70.0 84.0 L 80.0 93.0 L 80.0 97.0 L 43.0 97.0 L 43.0 138.0 L 63.81818180084228 138.0 L 72.0 129.0 L 82.0 138.0 L 82.0 142.0 L 43.0 142.0 L 43.0 154.0 L 31.0 160.0 L 31.0 47.0 L 40.68282823562622 51.84141416549683 L 41.3 51.5 L 45.8 49.0 L 50.1 46.7 L 54.4 44.6 L 58.5 42.5 L 62.4 40.4 L 66.2 38.5 L 69.8 36.5 L 73.3 34.7 L 75.73858947753907 33.36986026763916 L 75.7 33.3 L 75.76258068084717 33.35677423477173 L 76.6 32.9 Z M 173.0 54.0 L 168.0 58.0 L 168.0 148.0 L 156.0 154.0 L 156.0 142.0 L 120.0 142.0 L 120.0 138.0 L 156.0 138.0 L 156.0 97.0 L 119.0 97.0 L 119.0 93.0 L 156.0 93.0 L 156.0 54.0 L 119.0 54.0 L 119.0 50.0 L 156.0 50.0 L 162.0 45.0 Z " />
</g>
</svg>
