<svg xmlns="http://www.w3.org/2000/svg" xmlns:xlink="http://www.w3.org/1999/xlink" version="1.1" baseProfile="full" viewBox="0 0 200 200" width="200" height="200">
<g fill="black">
<path d="M 162.9 155.3 L 156.3 149.8 L 150.3 143.6 L 144.7 136.6 L 139.6 129.0 L 134.9 120.6 L 130.8 111.5 L 127.3 101.7 L 124.42585439682007 91.29361066818237 L 120.2 93.7 L 116.06298341751099 95.82154693603516 L 116.6 97.0 L 120.7 112.4 L 122.3 127.0 L 121.8 140.5 L 119.8 152.5 L 116.9 162.7 L 113.5 170.9 L 109.9 176.9 L 108.3 178.7 L 106.5 180.4 L 104.7 181.9 L 102.7 183.3 L 100.6 184.4 L 98.4 185.3 L 96.1 186.0 L 93.8 186.6 L 91.4 186.9 L 89.0 187.0 L 89.0 181.0 L 69.0 178.0 L 69.0 175.0 L 89.0 175.0 L 90.4 174.9 L 91.8 174.7 L 93.1 174.4 L 94.3 174.1 L 95.4 173.6 L 96.5 173.0 L 97.5 172.3 L 98.6 171.5 L 99.5 170.5 L 100.5 169.4 L 103.3 165.4 L 106.5 158.8 L 109.6 149.9 L 111.8 139.3 L 112.9 127.1 L 112.3502269744873 117.89130201339722 L 111.9 118.4 L 103.5 126.6 L 94.6 134.3 L 85.1 141.5 L 75.1 148.2 L 64.5 154.4 L 53.3 160.2 L 41.5 165.3 L 29.2 169.9 L 16.3 173.8 L 15.6 172.1 L 27.7 166.4 L 39.3 160.5 L 50.2 154.4 L 60.6 147.9 L 70.3 141.2 L 79.5 134.1 L 88.1 126.7 L 96.0 118.9 L 103.4 110.7 L 109.81321573257446 102.79966173171997 L 109.1 99.4 L 103.4 84.4 L 102.08589506149292 82.12221813201904 L 98.6 85.4 L 91.4 91.4 L 83.8 97.2 L 75.6 102.8 L 67.0 108.0 L 57.8 113.0 L 48.2 117.8 L 38.1 122.2 L 27.5 126.2 L 16.3 129.8 L 15.6 128.1 L 25.9 122.7 L 35.8 117.3 L 45.2 111.9 L 54.1 106.5 L 62.4 100.9 L 70.3 95.1 L 77.6 89.3 L 84.5 83.3 L 90.8 77.1 L 95.95686912536621 71.49857320785523 L 94.4 68.8 L 82.35323991775513 52.77003698348999 L 82.2 52.9 L 73.6 59.3 L 64.4 65.4 L 54.4 71.1 L 43.8 76.4 L 32.4 81.3 L 20.3 85.8 L 19.6 84.1 L 30.8 77.9 L 41.3 71.7 L 51.1 65.4 L 60.1 59.1 L 68.5 52.5 L 76.1 45.9 L 83.0 39.0 L 89.2 32.0 L 94.6 24.9 L 98.85503377914429 18.42880277633667 L 98.8 18.4 L 99.9 16.8 L 109.5 24.0 L 110.9 27.3 L 107.0641025543213 27.233863830566406 L 103.7 31.7 L 97.2 39.1 L 90.1 46.2 L 83.83842210769653 51.51045217514038 L 98.7 65.6 L 109.4 81.2 L 114.91502075195312 93.30240659713745 L 118.1 90.6 L 124.3 85.3 L 130.1 80.2 L 135.5 75.3 L 140.5 70.5 L 145.0 65.8 L 149.1 61.3 L 152.7 56.8 L 155.8 52.5 L 158.4 48.4 L 158.42286376953126 48.415704345703126 L 158.9 47.7 L 168.3 55.2 L 169.7 58.5 L 165.779030418396 58.29719123840332 L 164.8 59.5 L 160.8 63.9 L 156.3 68.2 L 151.4 72.5 L 146.1 76.8 L 140.3 81.1 L 134.1 85.4 L 127.4 89.6 L 124.900377368927 91.0233962059021 L 126.1 90.6 L 131.1 100.1 L 136.1 108.9 L 141.2 117.0 L 146.4 124.2 L 151.9 130.7 L 157.6 136.5 L 163.5 141.4 L 169.6 145.6 L 175.9 149.1 L 182.5 151.9 L 188.9 154.5 L 177.4 164.0 L 169.9 160.1 Z " />
</g>
</svg>
