<svg xmlns="http://www.w3.org/2000/svg" xmlns:xlink="http://www.w3.org/1999/xlink" version="1.1" baseProfile="full" viewBox="0 0 200 200" width="200" height="200">
<g fill="black">
<path d="M 84.7 161.4 L 84.9 165.0 L 81.32992067337037 163.47941064834595 L 80.0 164.3 L 74.8 167.1 L 69.1 169.9 L 62.9 172.7 L 56.3 175.4 L 49.1 178.0 L 41.4 180.6 L 33.3 183.1 L 24.5 185.5 L 15.2 187.6 L 14.7 185.9 L 23.3 181.9 L 31.4 178.1 L 39.0 174.5 L 46.1 171.0 L 52.7 167.6 L 58.8 164.3 L 64.3 161.1 L 69.3 157.9 L 73.7 154.7 L 76.8080080986023 152.30922451019288 L 76.8 152.3 L 77.6 151.7 Z M 162.0 179.9 L 157.7 177.0 L 152.8 174.1 L 147.3 171.2 L 141.2 168.4 L 134.4 165.6 L 127.1 162.9 L 119.2 160.0 L 110.7 157.0 L 111.1 155.3 L 120.1 156.3 L 128.5 157.7 L 136.4 159.4 L 143.7 161.3 L 150.5 163.4 L 156.8 165.7 L 162.5 168.2 L 167.8 170.9 L 172.6 173.8 L 176.8 177.0 L 178.7 181.2 L 177.2 185.5 L 173.0 187.3 L 168.7 185.8 L 165.7 182.9 Z M 106.0 16.0 L 109.0 18.0 L 106.0 19.8 L 106.0 68.2 L 144.0 68.2 L 150.0 63.2 L 161.0 72.2 L 156.0 76.2 L 156.0 146.8 L 144.0 152.8 L 144.0 144.8 L 56.0 144.8 L 56.0 151.8 L 44.0 157.8 L 44.0 62.2 L 56.0 68.2 L 94.0 68.2 L 94.0 14.0 Z M 56.0 120.6 L 56.0 140.8 L 144.0 140.8 L 144.0 120.6 Z M 56.0 96.4 L 56.0 116.6 L 144.0 116.6 L 144.0 96.4 Z M 56.0 72.2 L 56.0 92.4 L 144.0 92.4 L 144.0 72.2 Z M 74.7 30.7 L 75.6 34.2 L 71.85048666000367 33.48888540267944 L 70.0 35.3 L 65.0 39.8 L 59.8 44.2 L 54.4 48.5 L 48.7 52.7 L 42.8 56.8 L 36.6 60.8 L 30.2 64.7 L 23.5 68.3 L 16.4 71.7 L 15.5 70.2 L 21.4 65.1 L 32.8 55.5 L 38.2 50.8 L 43.4 46.1 L 48.3 41.4 L 53.1 36.7 L 57.6 32.0 L 61.8 27.3 L 65.20127382278443 23.40097885131836 L 65.2 23.4 L 65.2526315689087 23.342105293273924 L 65.9 22.6 L 65.91484813690185 22.613667011260986 L 66.2 22.3 Z M 159.1 53.8 L 155.9 50.6 L 152.2 47.4 L 148.2 44.3 L 143.9 41.3 L 139.1 38.3 L 134.0 35.3 L 128.5 32.2 L 122.6 29.1 L 123.2 27.4 L 129.8 28.7 L 136.1 30.3 L 141.9 32.3 L 147.5 34.6 L 152.7 37.1 L 157.6 39.8 L 162.1 42.7 L 166.3 45.9 L 170.2 49.3 L 173.8 52.9 L 175.0 57.3 L 172.8 61.3 L 168.4 62.5 L 164.4 60.4 L 161.9 57.0 Z " />
</g>
</svg>
