<svg xmlns="http://www.w3.org/2000/svg" xmlns:xlink="http://www.w3.org/1999/xlink" version="1.1" baseProfile="full" viewBox="0 0 200 200" width="200" height="200">
<g fill="black">
<path d="M 132.2 181.3 L 130.5 183.1 L 128.6 184.6 L 126.6 185.9 L 124.4 187.0 L 122.2 187.8 L 119.8 188.4 L 117.4 188.8 L 114.9 188.9 L 114.9 182.9 L 94.9 179.9 L 94.9 176.9 L 114.9 176.9 L 116.3 176.8 L 118.7 176.4 L 119.7 176.0 L 120.7 175.5 L 121.6 174.9 L 122.4 174.2 L 123.2 173.4 L 124.0 172.4 L 124.8 171.2 L 125.5 169.9 L 126.2 168.0 L 126.8 165.6 L 127.4 162.7 L 127.9 159.3 L 128.3 155.5 L 128.5 151.2 L 128.7 146.5 L 128.7 145.6583333015442 L 128.6 145.7 L 128.6 137.7 L 93.35172414779663 137.7 L 92.4 144.6 L 89.8 152.6 L 86.0 159.9 L 81.0 166.4 L 74.9 172.1 L 67.7 176.9 L 59.6 180.9 L 50.5 184.0 L 40.4 186.4 L 29.5 187.8 L 29.1 186.0 L 39.5 182.7 L 48.7 179.0 L 56.7 175.0 L 63.6 170.5 L 69.3 165.7 L 73.9 160.4 L 77.4 154.9 L 79.8 148.9 L 81.2 142.5 L 81.474285697937 137.7 L 53.6 137.7 L 53.6 133.7 L 128.6 133.7 L 134.6 128.7 L 145.6 137.7 L 140.68854169845582 140.646875 L 140.7 141.3 L 140.7 146.8 L 140.5 151.8 L 140.2 156.4 L 139.8 160.7 L 139.2 164.7 L 138.5 168.3 L 137.6 171.6 L 136.5 174.6 L 135.1 177.3 L 133.8 179.4 Z M 161.9 145.1 L 155.5 141.6 L 149.3 137.7 L 143.3 133.4 L 137.4 128.7 L 131.7 123.5 L 126.1 117.9 L 120.9 111.8 L 116.5119402885437 105.8 L 81.91176471710205 105.8 L 80.8 107.2 L 75.7 113.4 L 70.2 119.1 L 64.4 124.4 L 58.1 129.4 L 51.4 133.9 L 44.3 138.0 L 36.9 141.7 L 29.1 144.9 L 20.9 147.6 L 12.2 149.7 L 11.7 148.0 L 19.4 144.1 L 26.8 140.0 L 33.8 135.9 L 40.4 131.5 L 46.5 127.0 L 52.2 122.1 L 57.5 117.1 L 62.5 111.7 L 67.0 106.1 L 67.20869569778442 105.8 L 13.0 105.8 L 13.0 101.8 L 46.0 101.8 L 46.0 39.7 L 58.0 45.7 L 87.95 45.7 L 88.5 44.6 L 89.3 41.8 L 90.9 36.6 L 91.7 34.1 L 92.9 29.3 L 93.5 27.0 L 93.56956520080567 26.6 L 17.0 26.6 L 17.0 22.6 L 161.0 22.6 L 171.0 12.6 L 183.0 22.6 L 183.0 26.6 L 105.6 26.6 L 104.3 28.8 L 101.5 33.2 L 99.9 35.4 L 98.2 37.5 L 96.5 39.7 L 92.7 43.9 L 90.71999998092652 45.7 L 138.0 45.7 L 144.0 40.7 L 155.0 49.7 L 150.0 53.7 L 150.0 101.8 L 165.0 101.8 L 175.0 91.8 L 187.0 101.8 L 187.0 105.8 L 119.82040815353393 105.8 L 123.8 108.8 L 130.1 113.5 L 136.2 117.9 L 142.4 122.0 L 148.4 125.6 L 154.5 128.9 L 160.6 131.8 L 166.7 134.3 L 172.8 136.4 L 178.9 138.1 L 186.6 140.5 L 175.0 150.8 L 168.4 148.1 Z M 58.0 86.0 L 58.0 101.8 L 138.0 101.8 L 138.0 86.0 Z M 58.0 67.3 L 58.0 82.0 L 138.0 82.0 L 138.0 67.3 Z M 58.0 49.7 L 58.0 63.3 L 138.0 63.3 L 138.0 49.7 Z " />
</g>
</svg>
