<svg xmlns="http://www.w3.org/2000/svg" xmlns:xlink="http://www.w3.org/1999/xlink" version="1.1" baseProfile="full" viewBox="0 0 200 200" width="200" height="200">
<g fill="black">
<path d="M 14.0 173.0 L 40.0 173.0 L 40.0 125.0 L 52.0 131.0 L 148.0 131.0 L 154.0 126.0 L 165.0 135.0 L 160.0 139.0 L 160.0 173.0 L 164.0 173.0 L 174.0 163.0 L 186.0 173.0 L 186.0 177.0 L 14.0 177.0 Z M 52.0 135.0 L 52.0 173.0 L 76.0 173.0 L 76.0 135.0 Z M 88.0 135.0 L 88.0 173.0 L 112.0 173.0 L 112.0 135.0 Z M 124.0 135.0 L 124.0 173.0 L 148.0 173.0 L 148.0 135.0 Z M 65.4 66.8 L 134.6 66.8 L 140.6 61.8 L 151.6 70.8 L 146.6 74.8 L 146.6 112.1 L 134.6 118.1 L 134.6 108.1 L 65.4 108.1 L 65.4 115.1 L 53.4 121.1 L 53.4 60.8 Z M 65.4 70.8 L 65.4 104.1 L 134.6 104.1 L 134.6 70.8 Z M 69.2 18.4 L 71.0 21.5 L 67.32239303588867 21.880442142486572 L 65.1 26.0 L 60.9 33.2 L 56.4 40.1 L 54.87272729873657 42.2 L 158.0 42.2 L 168.0 32.2 L 180.0 42.2 L 180.0 46.2 L 51.96363639831543 46.2 L 51.6 46.7 L 46.6 52.9 L 41.4 58.8 L 35.9 64.3 L 30.1 69.5 L 24.0 74.2 L 17.7 78.3 L 16.5 77.0 L 21.5 71.3 L 26.3 65.7 L 31.0 59.9 L 35.5 53.9 L 39.8 47.8 L 44.0 41.4 L 47.9 34.8 L 51.5 27.9 L 55.0 20.8 L 57.93333330154419 14.222222232818604 L 58.8 12.2 Z " />
</g>
</svg>
