<svg xmlns="http://www.w3.org/2000/svg" xmlns:xlink="http://www.w3.org/1999/xlink" version="1.1" baseProfile="full" viewBox="0 0 200 200" width="200" height="200">
<g fill="black">
<path d="M 59.0 185.0 L 47.0 191.0 L 47.0 109.45 L 46.4 110.0 L 36.2 118.4 L 25.2 126.3 L 13.5 133.7 L 12.4 132.2 L 22.9 123.3 L 32.7 114.3 L 41.9 105.2 L 50.5 95.9 L 58.5 86.4 L 65.8 76.7 L 70.9333333015442 69.0 L 16.0 69.0 L 16.0 65.0 L 73.45882349014282 65.0 L 78.4 56.6 L 83.7 46.2 L 86.49756097793579 40.0 L 55.087234020233154 40.0 L 52.5 43.2 L 48.4 47.7 L 44.0 52.1 L 39.2 56.2 L 34.1 60.1 L 28.5 63.6 L 27.4 62.3 L 31.5 57.3 L 35.4 52.5 L 39.1 47.7 L 42.6 42.9 L 45.7 38.2 L 48.5 33.4 L 51.1 28.5 L 53.3 23.7 L 55.3 18.8 L 56.68570976257324 14.724382972717285 L 56.6 14.7 L 57.5 12.4 L 68.2 18.0 L 70.3 20.9 L 66.48477783203126 21.636270904541014 L 65.7 23.3 L 62.9 28.5 L 59.8 33.6 L 58.08571424484253 36.0 L 146.0 36.0 L 156.0 26.0 L 168.0 36.0 L 168.0 40.0 L 99.54347829818725 40.0 L 99.4 40.3 L 93.9 51.4 L 87.7 62.1 L 85.72912616729737 65.0 L 162.0 65.0 L 172.0 55.0 L 184.0 65.0 L 184.0 69.0 L 83.01067962646485 69.0 L 80.7 72.4 L 73.2 82.4 L 64.9 92.0 L 60.06304349899292 97.0 L 103.94666662216187 97.0 L 104.8 95.4 L 106.1 92.3 L 107.4 89.3 L 108.7 86.4 L 109.9 83.6 L 111.1 80.9 L 112.2 78.2 L 113.3 75.7 L 114.3 73.2 L 114.90444869995117 71.74932298660278 L 114.8 71.7 L 115.8 69.9 L 125.6 76.8 L 127.2 80.1 L 122.91818180084229 80.1 L 122.1 81.1 L 118.3 85.5 L 116.2 87.8 L 114.1 90.0 L 111.9 92.3 L 109.5 94.6 L 107.0 96.9 L 106.9115385055542 97.0 L 152.0 97.0 L 162.0 87.0 L 174.0 97.0 L 174.0 101.0 L 112.0 101.0 L 112.0 122.0 L 146.0 122.0 L 156.0 112.0 L 168.0 122.0 L 168.0 126.0 L 112.0 126.0 L 112.0 147.0 L 146.0 147.0 L 156.0 137.0 L 168.0 147.0 L 168.0 151.0 L 112.0 151.0 L 112.0 174.0 L 161.0 174.0 L 171.0 164.0 L 183.0 174.0 L 183.0 178.0 L 59.0 178.0 Z M 59.0 151.0 L 59.0 174.0 L 100.0 174.0 L 100.0 151.0 Z M 59.0 126.0 L 59.0 147.0 L 100.0 147.0 L 100.0 126.0 Z M 59.0 101.0 L 59.0 122.0 L 100.0 122.0 L 100.0 101.0 Z " />
</g>
</svg>
