<svg xmlns="http://www.w3.org/2000/svg" xmlns:xlink="http://www.w3.org/1999/xlink" version="1.1" baseProfile="full" viewBox="0 0 200 200" width="200" height="200">
<g fill="black">
<path d="M 72.0 70.0 L 75.0 72.0 L 72.0 73.8 L 72.0 115.0 L 71.1 125.6 L 69.1 135.6 L 66.0 144.8 L 61.7 153.3 L 56.4 161.0 L 49.9 167.8 L 42.5 173.7 L 34.0 178.7 L 24.6 182.7 L 14.2 185.8 L 13.7 184.1 L 23.0 179.3 L 31.3 174.1 L 38.5 168.5 L 44.5 162.4 L 49.5 155.9 L 53.5 148.9 L 56.6 141.3 L 58.6 133.2 L 59.8 124.4 L 60.0 115.0 L 60.0 68.0 Z M 180.0 142.0 L 182.0 142.0 L 180.0 167.0 L 183.6 169.4 L 186.0 173.0 L 183.6 176.6 L 180.0 179.0 L 136.0 179.0 L 133.4 178.8 L 130.9 178.4 L 128.5 177.6 L 126.2 176.3 L 124.2 174.7 L 122.6 172.7 L 121.3 170.4 L 120.5 168.0 L 120.1 165.5 L 120.0 163.0 L 120.0 68.0 L 132.0 70.0 L 135.0 72.0 L 132.0 73.8 L 132.0 164.2 L 132.2 165.1 L 132.5 166.0 L 132.9 166.4 L 133.8 166.7 L 134.7 166.9 L 136.0 167.0 L 174.0 167.0 Z M 13.5 65.1 L 12.5 60.6 L 14.9 56.7 L 16.9 55.4 L 18.9 53.6 L 20.8 51.2 L 22.7 48.1 L 24.3 44.5 L 25.8 40.3 L 27.1 35.4 L 28.2 30.0 L 29.3 23.9 L 30.1 17.3 L 31.9 17.3 L 32.8 24.0 L 33.173015880584714 28.7 L 170.0 28.7 L 170.4457142829895 28.32857141494751 L 170.6 27.9 L 170.821125125885 28.01572904586792 L 176.0 23.7 L 187.0 32.7 L 182.0 35.7 L 178.67428569793702 37.08571424484253 L 177.8 38.3 L 175.8 40.8 L 173.6 43.5 L 171.3 46.3 L 168.7 49.2 L 166.0 52.2 L 163.1 55.4 L 159.9 58.5 L 156.7 62.0 L 155.2 60.9 L 157.5 56.8 L 159.4 52.8 L 161.2 49.0 L 163.0 45.4 L 164.6 42.0 L 166.1 38.8 L 167.5 35.8 L 168.7 33.0 L 168.81538457870482 32.7 L 33.34067792892456 32.7 L 33.4 36.2 L 33.0 41.7 L 32.3 46.8 L 31.2 51.5 L 29.6 55.9 L 27.5 59.8 L 25.0 63.4 L 21.9 66.5 L 17.4 67.5 Z " />
</g>
</svg>
