<svg xmlns="http://www.w3.org/2000/svg" xmlns:xlink="http://www.w3.org/1999/xlink" version="1.1" baseProfile="full" viewBox="0 0 200 200" width="200" height="200">
<g fill="black">
<path d="M 107.0 23.0 L 110.0 25.0 L 107.0 26.8 L 107.0 102.0 L 106.13043479919433 114.0 L 154.0 114.0 L 154.0 49.0 L 166.0 51.0 L 169.0 53.0 L 166.0 54.8 L 166.0 124.0 L 154.0 130.0 L 154.0 118.0 L 105.5875 118.0 L 103.6 128.6 L 99.8 140.4 L 94.6 151.0 L 88.1 160.5 L 80.2 168.8 L 71.0 175.7 L 60.6 181.4 L 49.0 185.8 L 36.2 188.8 L 35.7 187.1 L 47.6 182.3 L 58.1 176.7 L 67.2 170.4 L 74.9 163.3 L 81.3 155.4 L 86.5 146.6 L 90.4 136.9 L 93.1 126.3 L 94.17327585220337 118.0 L 47.0 118.0 L 47.0 130.0 L 35.0 136.0 L 35.0 48.0 L 47.0 50.0 L 50.0 52.0 L 47.0 53.8 L 47.0 114.0 L 94.62204723358154 114.0 L 95.0 102.0 L 95.0 21.0 Z " />
</g>
</svg>
