<svg xmlns="http://www.w3.org/2000/svg" xmlns:xlink="http://www.w3.org/1999/xlink" version="1.1" baseProfile="full" viewBox="0 0 200 200" width="200" height="200">
<g fill="black">
<path d="M 154.3 159.4 L 148.2 155.4 L 141.9 151.6 L 135.6 148.0 L 129.0 144.6 L 122.4 141.4 L 115.6 138.4 L 108.7 135.4 L 106.9 134.66478872299194 L 106.9 180.6 L 94.9 186.6 L 94.9 81.8 L 106.9 83.8 L 109.9 85.8 L 106.9 87.6 L 106.9 131.3947368621826 L 109.7 131.8 L 117.3 133.3 L 124.7 135.3 L 132.0 137.6 L 139.1 140.3 L 146.2 143.3 L 153.1 146.6 L 159.9 150.2 L 166.6 154.1 L 173.2 158.3 L 175.6 162.2 L 174.6 166.7 L 170.7 169.1 L 166.2 168.1 L 160.3 163.6 Z M 22.2 155.3 L 29.5 153.4 L 36.7 151.4 L 43.9 149.5 L 51.1 147.5 L 58.2 145.6 L 65.4 143.6 L 79.6 139.8 L 86.7 138.1 L 93.9 136.5 L 94.6 138.2 L 88.0 141.6 L 81.4 144.9 L 74.6 147.9 L 67.8 150.8 L 60.9 153.6 L 54.0 156.3 L 40.0 161.7 L 32.9 164.3 L 29.61357192993164 165.44112091064454 L 28.5 169.1 L 25.7 166.8 L 20.3 155.9 Z M 61.2 122.9 L 58.6 120.1 L 55.7 117.3 L 52.7 114.6 L 49.5 111.9 L 46.1 109.2 L 42.5 106.4 L 38.8 103.6 L 34.9 100.8 L 35.7 99.2 L 40.3 100.6 L 44.9 102.1 L 49.2 103.9 L 53.4 105.8 L 57.3 107.9 L 61.1 110.1 L 64.8 112.5 L 68.3 114.9 L 71.6 117.5 L 74.7 120.3 L 76.3 124.6 L 74.5 128.7 L 70.2 130.3 L 66.0 128.5 L 63.7 125.7 Z M 168.3 103.7 L 169.2 107.2 L 165.35761394500733 106.45848693847657 L 165.1 106.7 L 161.6 109.5 L 158.0 112.3 L 154.1 114.9 L 150.0 117.5 L 145.7 120.0 L 141.1 122.4 L 136.4 124.6 L 131.3 126.7 L 126.0 128.5 L 125.2 127.0 L 129.5 123.5 L 133.7 120.2 L 137.7 117.0 L 141.5 113.9 L 145.0 110.8 L 148.4 107.7 L 151.5 104.7 L 154.4 101.6 L 157.0 98.6 L 159.4 95.6 L 159.4696478843689 95.66338739395141 L 159.8 95.3 Z M 40.4 79.8 L 28.4 85.8 L 28.4 19.5 L 40.4 25.5 L 159.5 25.5 L 165.5 20.5 L 176.5 29.5 L 171.5 33.5 L 171.5 76.8 L 159.5 82.8 L 159.5 72.8 L 40.4 72.8 Z M 40.4 29.5 L 40.4 68.8 L 72.1 68.8 L 72.1 29.5 Z M 84.1 29.5 L 84.1 68.8 L 115.8 68.8 L 115.8 29.5 Z M 127.8 29.5 L 127.8 68.8 L 159.5 68.8 L 159.5 29.5 Z " />
</g>
</svg>
