<svg xmlns="http://www.w3.org/2000/svg" xmlns:xlink="http://www.w3.org/1999/xlink" version="1.1" baseProfile="full" viewBox="0 0 200 200" width="200" height="200">
<g fill="black">
<path d="M 45.0 23.0 L 161.0 23.0 L 167.0 18.0 L 178.0 27.0 L 173.0 31.0 L 173.0 72.0 L 161.0 78.0 L 161.0 66.0 L 45.0 66.0 L 45.0 87.0 L 44.4 99.7 L 43.3 111.8 L 41.7 123.3 L 39.5 134.2 L 36.8 144.5 L 33.6 154.1 L 29.7 163.1 L 25.4 171.4 L 20.3 178.8 L 14.7 185.5 L 13.2 184.4 L 17.1 176.9 L 20.6 169.0 L 23.7 160.6 L 26.3 151.8 L 28.6 142.4 L 30.4 132.5 L 31.7 122.0 L 32.6 110.9 L 33.0 99.2 L 33.0 17.0 Z M 174.2 146.6 L 176.2 146.6 L 174.2 171.6 L 177.7 174.0 L 180.2 177.6 L 177.7 181.2 L 174.2 183.6 L 82.5 183.6 L 79.9 183.5 L 77.4 183.1 L 75.0 182.2 L 72.7 181.0 L 70.7 179.4 L 69.1 177.4 L 67.8 175.1 L 67.0 172.7 L 66.6 170.2 L 66.5 167.6 L 66.5 74.0 L 78.5 76.0 L 81.5 78.0 L 78.5 79.8 L 78.5 124.77171716690063 L 82.2 123.8 L 92.0 121.3 L 101.7 118.7 L 111.3 116.0 L 120.9 113.1 L 130.3 110.1 L 139.7 106.9 L 149.1 103.5 L 158.3 100.0 L 166.50532217025756 96.61084518432617 L 166.5 96.6 L 166.51014585494994 96.60885276794434 L 167.5 96.2 L 168.23468475341798 98.11359748840331 L 176.7 105.5 L 176.9 108.7 L 172.9696536064148 106.94646081924438 L 171.8 107.4 L 162.2 110.7 L 152.5 113.7 L 142.7 116.5 L 132.9 119.0 L 123.0 121.3 L 113.1 123.3 L 103.1 125.1 L 93.0 126.5 L 82.8 127.6 L 78.5 127.85294113159179 L 78.5 168.9 L 78.7 169.8 L 79.0 170.7 L 79.2 170.9 L 79.4 171.0 L 79.7 171.2 L 80.3 171.4 L 81.2 171.6 L 168.2 171.6 Z M 45.0 27.0 L 45.0 62.0 L 161.0 62.0 L 161.0 27.0 Z " />
</g>
</svg>
