<svg xmlns="http://www.w3.org/2000/svg" xmlns:xlink="http://www.w3.org/1999/xlink" version="1.1" baseProfile="full" viewBox="0 0 200 200" width="200" height="200">
<g fill="black">
<path d="M 116.6 174.8 L 132.6 174.8 L 133.8 174.7 L 134.7 174.5 L 135.3 174.3 L 135.7 174.2 L 135.8 174.0 L 136.0 173.8 L 136.2 173.5 L 136.4 172.9 L 136.5 172.0 L 136.6 170.8 L 136.6 151.2 L 63.3 151.2 L 63.3 181.6 L 51.3 187.6 L 51.3 91.6 L 63.3 97.6 L 136.6 97.6 L 142.6 92.6 L 153.6 101.6 L 148.6 105.6 L 148.6 170.8 L 148.5 173.3 L 148.0 175.8 L 147.2 178.2 L 146.0 180.5 L 144.3 182.5 L 142.3 184.2 L 140.1 185.4 L 137.6 186.2 L 135.2 186.6 L 132.6 186.8 L 132.6 180.8 L 116.6 177.8 Z M 63.3 126.4 L 63.3 147.2 L 136.6 147.2 L 136.6 126.4 Z M 63.3 101.6 L 63.3 122.4 L 136.6 122.4 L 136.6 101.6 Z M 13.5 110.8 L 12.6 106.3 L 15.0 102.4 L 17.0 101.2 L 19.0 99.5 L 20.9 97.2 L 22.7 94.3 L 24.4 90.9 L 25.9 86.8 L 27.2 82.1 L 28.3 76.9 L 29.3 71.1 L 30.1 64.8 L 31.9 64.7 L 32.7 71.2 L 33.13278684616089 75.6 L 47.0 75.6 L 47.0 16.0 L 59.0 22.0 L 141.0 22.0 L 147.0 17.0 L 158.0 26.0 L 153.0 30.0 L 153.0 75.6 L 170.0 75.6 L 170.57419357299804 75.12150535583496 L 170.7 74.8 L 170.85743942260743 74.88546714782714 L 176.0 70.6 L 187.0 79.6 L 182.0 82.6 L 178.47272729873657 84.06969699859619 L 177.7 85.1 L 175.7 87.5 L 173.5 90.1 L 171.2 92.8 L 168.7 95.6 L 166.0 98.5 L 163.0 101.4 L 159.8 104.5 L 156.7 107.8 L 155.2 106.7 L 157.5 102.7 L 159.4 98.8 L 161.3 95.1 L 163.1 91.7 L 164.7 88.4 L 166.2 85.3 L 167.6 82.4 L 168.8 79.7 L 168.8384614944458 79.6 L 33.3 79.6 L 33.3 82.9 L 33.0 88.2 L 32.3 93.2 L 31.1 97.8 L 29.6 102.0 L 27.5 105.8 L 24.9 109.3 L 21.8 112.3 L 17.4 113.2 Z M 59.0 26.0 L 59.0 75.6 L 92.0 75.6 L 92.0 39.0 L 104.0 45.0 L 141.0 45.0 L 141.0 26.0 Z M 104.0 49.0 L 104.0 75.6 L 141.0 75.6 L 141.0 49.0 Z " />
</g>
</svg>
