<svg xmlns="http://www.w3.org/2000/svg" xmlns:xlink="http://www.w3.org/1999/xlink" version="1.1" baseProfile="full" viewBox="0 0 200 200" width="200" height="200">
<g fill="black">
<path d="M 70.0 176.2 L 90.0 176.2 L 91.2 176.1 L 92.1 175.9 L 93.0 175.6 L 93.4 175.2 L 93.7 174.3 L 93.9 173.4 L 94.0 172.2 L 94.0 134.6 L 17.0 134.6 L 17.0 130.6 L 161.0 130.6 L 171.0 120.6 L 183.0 130.6 L 183.0 134.6 L 106.0 134.6 L 106.0 172.2 L 105.8 174.7 L 105.4 177.2 L 104.6 179.6 L 103.3 181.9 L 101.7 183.9 L 99.7 185.5 L 97.4 186.8 L 95.0 187.6 L 92.5 188.0 L 90.0 188.2 L 90.0 182.2 L 70.0 179.2 Z M 68.2 150.6 L 69.3 154.0 L 65.43690032958985 153.59335794448853 L 64.6 154.5 L 60.8 158.2 L 56.6 161.9 L 52.0 165.5 L 47.2 168.9 L 41.9 172.2 L 36.4 175.4 L 30.4 178.4 L 24.1 181.2 L 17.4 183.7 L 16.5 182.2 L 22.2 177.9 L 27.7 173.8 L 32.8 169.9 L 37.5 166.0 L 41.9 162.2 L 46.0 158.4 L 49.7 154.6 L 53.0 150.8 L 56.0 147.1 L 58.02625961303711 144.21647663116454 L 58.0 144.2 L 59.0 142.7 Z M 159.4 172.4 L 156.3 169.1 L 152.9 165.8 L 149.1 162.5 L 144.9 159.4 L 140.4 156.2 L 135.5 153.1 L 130.2 149.8 L 124.6 146.5 L 125.2 144.9 L 131.7 146.3 L 137.7 148.2 L 143.5 150.4 L 148.8 152.8 L 153.9 155.5 L 158.6 158.4 L 163.0 161.5 L 167.0 164.9 L 170.7 168.4 L 174.1 172.2 L 175.1 176.7 L 172.7 180.6 L 168.2 181.6 L 164.3 179.2 L 162.0 175.8 Z M 160.0 108.2 L 160.0 112.2 L 40.0 112.2 L 40.0 108.2 L 138.0 108.2 L 148.0 98.2 Z M 166.3 84.2 L 161.7 79.8 L 157.5 75.0 L 153.5 70.1 L 149.9 64.8 L 146.6 59.3 L 143.8 53.5 L 143.0 51.46666669845581 L 143.0 93.9 L 131.0 99.9 L 131.0 57.51904764175415 L 128.1 61.8 L 123.6 67.7 L 118.7 73.1 L 113.4 78.2 L 107.7 82.8 L 101.7 86.9 L 95.2 90.5 L 88.4 93.6 L 87.5 92.0 L 93.1 87.4 L 98.4 82.7 L 103.4 77.8 L 108.0 72.8 L 112.2 67.6 L 116.2 62.1 L 119.7 56.3 L 122.9 50.3 L 125.8 44.1 L 126.65581398010254 41.8 L 101.0 41.8 L 101.0 37.8 L 131.0 37.8 L 131.0 12.2 L 143.0 14.2 L 146.0 16.2 L 143.0 18.0 L 143.0 37.8 L 160.0 37.8 L 170.0 27.8 L 182.0 37.8 L 182.0 41.8 L 143.0 41.8 L 143.0 42.7 L 145.1 45.5 L 148.8 50.5 L 152.6 55.2 L 156.5 59.7 L 160.6 64.0 L 164.8 67.9 L 169.2 71.6 L 173.8 75.0 L 178.5 78.2 L 183.5 81.1 L 187.5 83.6 L 176.4 92.3 L 171.2 88.4 Z M 84.6 70.0 L 82.9 67.5 L 81.0 65.1 L 78.9 62.7 L 76.5 60.3 L 73.9 58.0 L 71.0 55.6 L 69.0 54.0 L 69.0 93.9 L 57.0 99.9 L 57.0 57.51904764175415 L 54.1 61.8 L 49.6 67.7 L 44.7 73.1 L 39.4 78.2 L 33.7 82.8 L 27.7 86.9 L 21.2 90.5 L 14.4 93.6 L 13.5 92.0 L 19.1 87.4 L 24.4 82.7 L 29.4 77.8 L 34.0 72.8 L 38.2 67.6 L 42.2 62.1 L 45.7 56.3 L 48.9 50.3 L 51.8 44.1 L 52.655813980102536 41.8 L 18.0 41.8 L 18.0 37.8 L 57.0 37.8 L 57.0 12.2 L 69.0 14.2 L 72.0 16.2 L 69.0 18.0 L 69.0 37.8 L 77.0 37.8 L 87.0 27.8 L 99.0 37.8 L 99.0 41.8 L 69.0 41.8 L 69.0 50.54499998092651 L 69.2 50.6 L 73.1 51.7 L 76.8 53.1 L 80.4 54.7 L 83.7 56.5 L 86.9 58.6 L 89.8 60.8 L 92.6 63.2 L 95.1 65.9 L 97.5 68.7 L 98.2 73.3 L 95.5 77.0 L 91.0 77.6 L 87.3 75.0 L 86.0 72.5 Z " />
</g>
</svg>
