<svg xmlns="http://www.w3.org/2000/svg" xmlns:xlink="http://www.w3.org/1999/xlink" version="1.1" baseProfile="full" viewBox="0 0 200 200" width="200" height="200">
<g fill="black">
<path d="M 40.0 35.0 L 98.0 35.0 L 98.0 12.0 L 110.0 14.0 L 113.0 16.0 L 110.0 17.8 L 110.0 35.0 L 167.8181818008423 35.0 L 176.0 26.0 L 186.0 35.0 L 186.0 39.0 L 40.0 39.0 L 40.0 102.0 L 39.4 113.7 L 38.3 124.8 L 36.7 135.3 L 34.5 145.2 L 31.8 154.4 L 28.5 162.9 L 24.7 170.8 L 20.3 177.9 L 15.2 184.2 L 9.6 189.5 L 8.3 188.4 L 12.2 181.9 L 15.6 175.2 L 18.7 168.0 L 21.4 160.3 L 23.6 152.0 L 25.4 143.2 L 26.7 133.8 L 27.6 123.8 L 28.0 113.2 L 28.0 29.0 Z M 37.1 178.9 L 106.0 178.9 L 106.0 161.8 L 48.4 161.8 L 48.4 157.8 L 106.0 157.8 L 106.0 143.5 L 118.0 145.5 L 121.0 147.5 L 118.0 149.3 L 118.0 157.8 L 157.3181818008423 157.8 L 165.5 148.8 L 175.5 157.8 L 175.5 161.8 L 118.0 161.8 L 118.0 178.9 L 164.8 178.9 L 174.8 168.9 L 186.8 178.9 L 186.8 182.9 L 37.1 182.9 Z M 140.5 145.9 L 138.3 145.7 L 136.1 145.3 L 133.9 144.4 L 132.0 143.1 L 130.3 141.4 L 128.9 139.4 L 127.9 137.2 L 127.2 134.8 L 126.8 132.3 L 126.8 120.4 L 97.6381817817688 120.4 L 97.0 124.3 L 94.8 129.5 L 91.4 134.1 L 87.1 138.0 L 81.9 141.5 L 75.8 144.6 L 68.9 147.3 L 61.1 149.6 L 52.3 151.4 L 42.6 152.8 L 42.1 151.1 L 51.3 147.8 L 59.3 144.5 L 66.4 141.2 L 72.3 137.9 L 77.2 134.5 L 80.9 131.1 L 83.5 127.8 L 85.2 124.7 L 85.9 121.7 L 85.9 120.4 L 42.5 120.4 L 42.5 116.4 L 106.0 116.4 L 106.0 103.6 L 55.7 103.6 L 55.7 99.6 L 106.0 99.6 L 106.0 87.7 L 72.5 87.7 L 60.5 93.7 L 60.5 44.2 L 72.5 50.2 L 151.4 50.2 L 157.4 45.2 L 168.4 54.2 L 163.4 58.2 L 163.4 87.7 L 151.4 93.7 L 151.4 87.7 L 118.0 87.7 L 118.0 99.6 L 150.01818180084229 99.6 L 158.2 90.6 L 168.2 99.6 L 168.2 103.6 L 118.0 103.6 L 118.0 116.4 L 163.21818180084227 116.4 L 171.4 107.4 L 181.4 116.4 L 181.4 120.4 L 138.8 120.4 L 138.8 132.3 L 138.6 133.5 L 138.6 135.9 L 138.7 136.4 L 138.9 136.9 L 139.4 137.4 L 140.2 138.0 L 141.3 138.4 L 142.8 138.8 L 172.0 138.8 L 175.5 133.8 L 177.5 133.8 L 175.5 138.8 L 177.6 140.2 L 179.0 142.3 L 177.6 144.4 L 175.5 145.8 L 142.8 145.8 Z M 72.5 71.0 L 72.5 83.7 L 106.0 83.7 L 106.0 71.0 Z M 118.0 71.0 L 118.0 83.7 L 151.4 83.7 L 151.4 71.0 Z M 72.5 54.2 L 72.5 67.0 L 106.0 67.0 L 106.0 54.2 Z M 118.0 54.2 L 118.0 67.0 L 151.4 67.0 L 151.4 54.2 Z " />
</g>
</svg>
