<svg xmlns="http://www.w3.org/2000/svg" xmlns:xlink="http://www.w3.org/1999/xlink" version="1.1" baseProfile="full" viewBox="0 0 200 200" width="200" height="200">
<g fill="black">
<path d="M 98.32173910140992 130.8869565010071 L 97.7 136.2 L 95.78863639831543 142.0 L 149.0 142.0 L 155.0 137.0 L 166.0 146.0 L 161.0 149.0 L 160.72701425552367 149.11374406814576 L 160.7 149.6 L 160.1 154.6 L 159.3 159.3 L 158.3 163.6 L 156.9 167.7 L 155.3 171.4 L 153.3 174.7 L 151.0 177.8 L 148.3 180.4 L 145.3 182.5 L 143.3 183.6 L 141.2 184.6 L 139.1 185.5 L 137.0 186.3 L 134.8 186.9 L 130.4 187.9 L 128.2 188.2 L 123.6 188.4 L 123.6 182.4 L 103.6 179.4 L 103.6 176.4 L 123.6 176.4 L 125.3 176.3 L 126.9 176.2 L 128.5 176.0 L 130.1 175.7 L 131.7 175.3 L 133.2 174.9 L 136.2 173.7 L 137.7 173.0 L 139.2 172.1 L 140.6 171.1 L 142.0 169.8 L 143.3 168.1 L 144.6 165.9 L 145.7 163.4 L 146.7 160.3 L 147.6 156.9 L 148.3 152.9 L 148.7 148.6 L 148.8625 146.0 L 94.2375 146.0 L 90.3 153.0 L 84.3 160.2 L 76.8 166.5 L 67.9 172.0 L 57.7 176.7 L 46.0 180.7 L 33.0 183.8 L 18.5 186.2 L 18.2 184.4 L 32.0 180.2 L 44.3 175.6 L 55.0 170.8 L 64.1 165.5 L 71.6 159.9 L 77.5 153.9 L 81.9 147.6 L 84.8 141.1 L 86.5 134.2 L 86.8 126.8 L 86.8 126.3 L 15.3 126.3 L 15.3 122.3 L 94.0 122.3 L 94.0 104.9 L 93.6 105.1 L 93.6 91.7 L 46.6 91.7 L 46.6 104.9 L 34.6 110.9 L 34.6 43.5 L 46.6 49.5 L 93.6 49.5 L 93.6 36.3 L 15.6 36.3 L 15.6 32.3 L 93.6 32.3 L 93.6 11.4 L 105.6 13.4 L 108.6 15.4 L 105.6 17.2 L 105.6 32.3 L 163.8 32.3 L 173.8 22.3 L 185.8 32.3 L 185.8 36.3 L 105.6 36.3 L 105.6 49.5 L 150.3 49.5 L 156.3 44.5 L 167.3 53.5 L 162.3 57.5 L 162.3 102.0 L 150.3 108.0 L 150.3 91.7 L 105.6 91.7 L 105.6 99.1 L 95.95 103.925 L 106.0 105.6 L 109.0 107.6 L 106.0 109.4 L 106.0 122.3 L 162.6 122.3 L 172.6 112.3 L 184.6 122.3 L 184.6 126.3 L 96.3 126.3 L 98.8 126.8 L 101.8 128.8 Z M 46.6 72.6 L 46.6 87.7 L 93.6 87.7 L 93.6 72.6 Z M 105.6 72.6 L 105.6 87.7 L 150.3 87.7 L 150.3 72.6 Z M 46.6 53.5 L 46.6 68.6 L 93.6 68.6 L 93.6 53.5 Z M 105.6 53.5 L 105.6 68.6 L 150.3 68.6 L 150.3 53.5 Z M 145.7 26.4 L 144.2 24.9 L 142.3 23.4 L 140.0 21.8 L 137.5 20.2 L 134.6 18.6 L 131.4 16.8 L 128.0 15.0 L 124.2 13.5 L 124.6 11.8 L 128.7 12.5 L 132.7 12.9 L 136.4 13.4 L 139.9 14.1 L 143.1 14.9 L 146.1 15.7 L 148.8 16.7 L 151.4 17.7 L 153.8 18.9 L 156.0 20.3 L 157.8 24.5 L 156.2 28.8 L 152.0 30.6 L 147.8 29.0 L 146.9 27.8 Z " />
</g>
</svg>
