<svg xmlns="http://www.w3.org/2000/svg" xmlns:xlink="http://www.w3.org/1999/xlink" version="1.1" baseProfile="full" viewBox="0 0 200 200" width="200" height="200">
<g fill="black">
<path d="M 39.0 42.0 L 97.0 42.0 L 97.0 12.0 L 109.0 14.0 L 112.0 16.0 L 109.0 17.8 L 109.0 42.0 L 164.0 42.0 L 174.0 32.0 L 186.0 42.0 L 186.0 46.0 L 39.0 46.0 L 39.0 106.0 L 38.4 117.1 L 37.3 127.7 L 35.8 137.7 L 33.7 147.1 L 31.0 155.9 L 27.9 164.0 L 24.2 171.5 L 19.9 178.3 L 15.0 184.4 L 9.6 189.5 L 8.3 188.4 L 12.0 182.1 L 15.3 175.6 L 18.2 168.7 L 20.8 161.4 L 22.9 153.5 L 24.6 145.1 L 25.8 136.2 L 26.6 126.7 L 27.0 116.6 L 27.0 36.0 Z M 94.7 126.5 L 92.6 124.0 L 90.4 121.6 L 88.1 119.2 L 85.7 116.9 L 83.3 114.7880000114441 L 83.3 183.2 L 71.3 189.2 L 71.3 126.37027025222778 L 69.7 129.7 L 65.7 136.9 L 61.4 143.8 L 56.9 150.2 L 52.1 156.3 L 46.9 161.8 L 41.4 166.7 L 40.1 165.6 L 44.0 159.4 L 47.7 153.1 L 51.4 146.7 L 54.8 140.0 L 58.1 133.0 L 61.2 125.8 L 64.1 118.2 L 66.8 110.3 L 69.2 102.2 L 71.3 94.43913040161132 L 71.3 94.2 L 43.2 94.2 L 43.2 90.2 L 71.3 90.2 L 71.3 54.3 L 83.3 56.3 L 86.3 58.3 L 83.3 60.1 L 83.3 90.2 L 88.5 90.2 L 98.5 80.2 L 110.5 90.2 L 110.5 94.2 L 83.3 94.2 L 83.3 110.3 L 85.4 110.9 L 88.7 112.2 L 92.0 113.7 L 95.2 115.4 L 98.3 117.4 L 101.3 119.5 L 104.2 121.8 L 107.1 124.3 L 109.9 126.9 L 111.1 131.3 L 109.0 135.4 L 104.7 136.6 L 100.6 134.5 L 96.8 129.1 Z M 168.1 153.4 L 163.8 146.7 L 159.9 139.7 L 156.6 132.5 L 153.6 125.0 L 151.1 117.3 L 150.5 114.77368421554566 L 150.5 183.2 L 138.5 189.2 L 138.5 118.225 L 137.5 120.4 L 133.2 128.6 L 128.4 136.3 L 123.4 143.6 L 118.0 150.5 L 112.2 156.8 L 106.0 162.5 L 99.5 167.6 L 98.2 166.3 L 103.3 159.9 L 108.1 153.3 L 112.7 146.5 L 117.1 139.5 L 121.1 132.1 L 124.9 124.3 L 128.4 116.2 L 131.6 107.8 L 134.5 99.0 L 136.03999996185303 93.5 L 114.6 93.5 L 114.6 89.5 L 138.5 89.5 L 138.5 53.5 L 150.5 55.5 L 153.5 57.5 L 150.5 59.3 L 150.5 89.5 L 162.3 89.5 L 172.3 79.5 L 184.3 89.5 L 184.3 93.5 L 150.5 93.5 L 150.5 96.60344829559327 L 151.8 100.1 L 154.8 107.6 L 157.9 114.8 L 161.3 121.7 L 164.9 128.3 L 168.8 134.6 L 173.0 140.6 L 177.5 146.4 L 182.3 151.8 L 187.4 157.0 L 188.6 158.2 L 177.9 166.1 L 172.8 159.9 Z " />
</g>
</svg>
