<svg xmlns="http://www.w3.org/2000/svg" xmlns:xlink="http://www.w3.org/1999/xlink" version="1.1" baseProfile="full" viewBox="0 0 200 200" width="200" height="200">
<g fill="black">
<path d="M 14.0 131.6 L 17.6 129.2 L 25.0 124.0 L 28.8 121.4 L 32.7 118.6 L 36.7 115.8 L 44.9 110.0 L 49.3 107.1 L 50.7 106.22888889312745 L 50.7 13.0 L 62.7 15.0 L 65.7 17.0 L 62.7 18.8 L 62.7 182.0 L 50.7 188.0 L 50.7 111.19411764144897 L 48.4 113.9 L 45.0 117.8 L 38.2 125.0 L 34.8 128.4 L 28.0 135.0 L 24.7 138.1 L 24.526247024536133 138.25795726776124 L 24.8 142.2 L 21.4 141.1 L 12.4 132.8 Z M 129.4 176.0 L 149.4 176.0 L 150.6 175.9 L 151.5 175.7 L 152.4 175.4 L 152.8 175.0 L 153.1 174.1 L 153.3 173.2 L 153.4 172.0 L 153.4 117.0 L 73.3 117.0 L 73.3 113.0 L 153.4 113.0 L 153.4 89.0 L 165.4 91.0 L 168.4 93.0 L 165.4 94.8 L 165.4 113.0 L 167.8181818008423 113.0 L 176.0 104.0 L 186.0 113.0 L 186.0 117.0 L 165.4 117.0 L 165.4 172.0 L 165.2 174.5 L 164.8 177.0 L 164.0 179.4 L 162.7 181.7 L 161.1 183.7 L 159.1 185.3 L 156.8 186.6 L 154.4 187.4 L 151.9 187.8 L 149.4 188.0 L 149.4 182.0 L 129.4 179.0 Z M 115.0 148.3 L 113.4 145.4 L 111.8 142.6 L 109.9 139.8 L 108.0 137.1 L 105.9 134.3 L 103.7 131.6 L 101.4 128.8 L 98.8 126.3 L 99.8 124.8 L 103.1 126.5 L 106.5 128.2 L 109.7 130.1 L 112.8 132.2 L 115.7 134.5 L 118.5 137.0 L 121.1 139.6 L 123.6 142.4 L 126.0 145.4 L 128.2 148.4 L 128.6 153.0 L 125.8 156.6 L 121.2 157.0 L 117.6 154.2 L 116.4 151.2 Z M 93.9 77.0 L 93.2 73.6 L 92.4 70.2 L 91.4 66.8 L 90.3 63.5 L 87.7 56.9 L 86.2 53.5 L 84.4 50.3 L 85.8 49.1 L 91.4 54.3 L 94.0 57.2 L 96.4 60.3 L 98.5 63.5 L 100.5 66.9 L 102.3 70.4 L 103.9 74.1 L 105.3 77.9 L 106.6 81.9 L 105.6 86.3 L 101.8 88.9 L 97.3 87.9 L 94.8 84.1 L 94.4 80.6 Z M 176.2 41.2 L 178.7 43.8 L 175.1020173072815 45.04293947219848 L 174.6 46.8 L 172.9 52.2 L 171.0 57.4 L 169.1 62.4 L 167.0 67.2 L 164.7 71.7 L 162.3 76.1 L 159.7 80.2 L 156.9 84.0 L 153.8 87.4 L 152.3 86.5 L 153.6 82.2 L 154.9 77.8 L 156.3 73.4 L 157.7 68.9 L 159.0 64.2 L 160.2 59.4 L 161.4 54.5 L 162.5 49.4 L 163.5 44.1 L 164.33252353668212 39.604372882843016 L 164.3 39.6 L 164.9 36.8 Z M 124.0 57.6 L 123.2 54.7 L 122.5 51.8 L 121.8 49.0 L 120.6 46.3 L 122.1 45.3 L 124.1 47.6 L 126.2 49.9 L 128.2 52.3 L 130.0 55.0 L 131.7 57.8 L 133.3 60.7 L 134.8 63.8 L 136.2 67.0 L 137.5 70.3 L 138.7 73.8 L 137.8 78.3 L 134.1 80.9 L 129.6 80.0 L 127.0 76.2 L 125.8 66.6 Z M 35.4 67.6 L 33.8 64.0 L 32.0 60.5 L 30.0 57.2 L 27.8 54.0 L 25.5 50.9 L 23.0 48.0 L 20.3 45.0 L 17.3 42.2 L 18.2 40.7 L 22.1 42.3 L 25.9 44.2 L 29.6 46.5 L 33.0 49.1 L 36.2 52.1 L 39.2 55.3 L 42.1 58.8 L 44.7 62.6 L 47.2 66.7 L 49.4 70.9 L 49.3 75.5 L 46.0 78.7 L 41.4 78.6 L 38.2 75.4 L 36.9 71.4 Z M 175.10361442565917 16.044979953765868 L 182.8 23.1 L 182.9 26.4 L 179.14079742431642 24.82356023788452 L 169.4 28.7 L 159.5 32.2 L 149.4 35.2 L 139.2 37.7 L 128.9 39.7 L 118.4 41.2 L 107.8 42.3 L 97.1 42.8 L 86.3 42.6 L 75.4 41.9 L 75.4 40.1 L 86.1 38.8 L 96.7 37.4 L 107.0 35.7 L 117.1 33.8 L 127.1 31.4 L 136.9 28.7 L 146.4 25.6 L 155.8 22.1 L 165.1 18.2 L 173.2134663581848 14.323566055297851 L 173.2 14.3 L 173.2215139389038 14.319721126556397 L 174.1 13.9 Z " />
</g>
</svg>
