<svg xmlns="http://www.w3.org/2000/svg" xmlns:xlink="http://www.w3.org/1999/xlink" version="1.1" baseProfile="full" viewBox="0 0 200 200" width="200" height="200">
<g fill="black">
<path d="M 13.4 170.7 L 21.1 169.5 L 29.3 168.0 L 30.8 167.7241379737854 L 30.8 58.2 L 42.8 60.2 L 45.8 62.2 L 42.8 64.0 L 42.8 165.40869569778442 L 47.2 164.5 L 56.8 162.5 L 63.0 161.08811883926393 L 63.0 14.6 L 75.0 16.6 L 78.0 18.6 L 75.0 20.4 L 75.0 82.2 L 89.61818180084228 82.2 L 97.8 73.2 L 107.8 82.2 L 107.8 86.2 L 75.0 86.2 L 75.0 158.34857139587402 L 77.4 157.8 L 88.4 155.2 L 100.0 152.6 L 112.0 149.9 L 112.5 151.6 L 101.1 156.2 L 89.9 160.3 L 79.2 164.1 L 68.9 167.5 L 58.9 170.7 L 49.4 173.5 L 40.3 176.1 L 31.7 178.5 L 23.4 180.6 L 19.57097053527832 181.53271226882936 L 18.1 185.0 L 15.6 182.5 L 11.4 171.0 Z M 179.3 143.0 L 181.3 143.0 L 179.3 168.0 L 182.9 170.4 L 185.3 174.0 L 182.9 177.6 L 179.3 180.0 L 132.7 180.0 L 130.2 179.8 L 127.7 179.4 L 125.3 178.6 L 123.0 177.3 L 121.0 175.7 L 119.3 173.7 L 118.1 171.4 L 117.3 169.0 L 116.9 166.5 L 116.7 164.0 L 116.7 19.0 L 128.7 21.0 L 131.7 23.0 L 128.7 24.8 L 128.7 89.3 L 131.9 86.9 L 136.7 83.2 L 141.5 79.3 L 146.3 75.3 L 151.0 71.0 L 155.7 66.5 L 160.3 61.8 L 164.9 56.8 L 168.84755659103394 52.33754472732544 L 168.8 52.3 L 169.8 51.2 L 178.3 59.8 L 179.1 63.3 L 175.41282272338867 62.52375211715698 L 173.0 64.8 L 167.7 69.6 L 162.3 74.0 L 156.9 78.2 L 151.4 82.0 L 145.9 85.5 L 140.3 88.7 L 134.7 91.5 L 128.9 93.9 L 128.7 93.96551723480225 L 128.7 164.0 L 128.8 165.2 L 129.0 166.1 L 129.1 166.7 L 129.3 167.0 L 129.7 167.4 L 130.6 167.7 L 131.5 167.9 L 132.7 168.0 L 173.3 168.0 Z " />
</g>
</svg>
