<svg xmlns="http://www.w3.org/2000/svg" xmlns:xlink="http://www.w3.org/1999/xlink" version="1.1" baseProfile="full" viewBox="0 0 200 200" width="200" height="200">
<g fill="black">
<path d="M 102.4 180.8 L 99.9 180.4 L 97.5 179.6 L 95.2 178.3 L 93.2 176.7 L 91.6 174.7 L 90.3 172.4 L 89.5 170.0 L 89.1 167.5 L 89.0 165.0 L 89.0 120.0 L 47.0 120.0 L 47.0 132.0 L 35.0 138.0 L 35.0 24.0 L 47.0 30.0 L 145.0 30.0 L 151.0 25.0 L 162.0 34.0 L 157.0 38.0 L 157.0 126.0 L 145.0 132.0 L 145.0 120.0 L 101.0 120.0 L 101.0 166.2 L 101.2 167.1 L 101.5 168.0 L 101.9 168.4 L 102.8 168.7 L 103.7 168.9 L 105.0 169.0 L 166.0 169.0 L 172.0 144.0 L 174.0 144.0 L 172.0 169.0 L 175.6 171.4 L 178.0 175.0 L 175.6 178.6 L 172.0 181.0 L 105.0 181.0 Z M 47.0 75.0 L 47.0 116.0 L 89.0 116.0 L 89.0 75.0 Z M 101.0 75.0 L 101.0 116.0 L 145.0 116.0 L 145.0 75.0 Z M 47.0 34.0 L 47.0 71.0 L 89.0 71.0 L 89.0 34.0 Z M 101.0 34.0 L 101.0 71.0 L 145.0 71.0 L 145.0 34.0 Z " />
</g>
</svg>
