<svg xmlns="http://www.w3.org/2000/svg" xmlns:xlink="http://www.w3.org/1999/xlink" version="1.1" baseProfile="full" viewBox="0 0 200 200" width="200" height="200">
<g fill="black">
<path d="M 142.7 64.7 L 140.6 65.9 L 138.5 66.9 L 136.4 67.7 L 134.2 68.4 L 131.9 68.9 L 129.6 69.3 L 127.3 69.5 L 125.0 69.6 L 125.0 63.6 L 105.0 60.6 L 105.0 57.6 L 125.0 57.6 L 126.5 57.5 L 128.1 57.4 L 129.6 57.1 L 131.0 56.8 L 132.4 56.4 L 133.8 55.8 L 135.1 55.2 L 136.5 54.5 L 137.8 53.6 L 139.0 52.7 L 140.6 51.2 L 142.1 49.5 L 143.4 47.6 L 144.7 45.3 L 145.8 42.7 L 146.8 39.7 L 147.6 36.4 L 148.2 32.8 L 148.7 28.8 L 148.84651165008546 26.7 L 91.64285717010497 26.7 L 91.6 26.8 L 87.9 34.6 L 83.4 42.2 L 78.2 49.5 L 72.2 56.4 L 65.4 63.1 L 58.575767993927 68.90981912612915 L 69.6 73.3 L 72.1 75.9 L 68.45180721282959 77.0726333618164 L 67.5 80.2 L 65.1 87.0 L 62.4 93.7 L 59.3484375 100.0 L 94.0 100.0 L 94.0 67.8 L 106.0 69.8 L 109.0 71.8 L 106.0 73.6 L 106.0 100.0 L 143.0 100.0 L 153.0 90.0 L 165.0 100.0 L 165.0 104.0 L 106.0 104.0 L 106.0 139.6 L 162.0 139.6 L 172.0 129.6 L 184.0 139.6 L 184.0 143.6 L 106.0 143.6 L 106.0 181.4 L 94.0 187.4 L 94.0 143.6 L 16.0 143.6 L 16.0 139.6 L 94.0 139.6 L 94.0 104.0 L 57.16129035949707 104.0 L 55.9 106.3 L 52.2 112.3 L 48.2 118.0 L 43.7 123.6 L 38.9 128.8 L 33.6 133.6 L 32.3 132.4 L 35.9 126.4 L 39.3 120.5 L 42.6 114.5 L 45.6 108.5 L 48.4 102.5 L 50.8 96.3 L 53.0 90.0 L 54.9 83.7 L 56.5 77.2 L 57.9 70.6 L 57.91361255645752 70.60314140319824 L 58.209681224823 69.22148761749267 L 58.0 69.4 L 49.7 75.5 L 40.7 81.2 L 30.9 86.5 L 20.4 91.4 L 19.5 89.8 L 29.0 83.3 L 37.7 76.7 L 45.7 70.3 L 53.0 63.7 L 59.5 57.1 L 65.1 50.4 L 70.1 43.6 L 74.2 36.7 L 77.6 29.7 L 78.68000001907349 26.7 L 39.0 26.7 L 39.0 22.7 L 149.0 22.7 L 155.0 17.7 L 166.0 26.7 L 161.0 29.7 L 160.60209426879882 29.865794086456297 L 160.6 29.9 L 160.1 34.5 L 159.3 38.9 L 158.3 43.0 L 157.0 46.8 L 155.5 50.5 L 153.7 53.8 L 151.6 56.9 L 149.2 59.6 L 146.5 62.1 L 144.6 63.5 Z " />
</g>
</svg>
