<svg xmlns="http://www.w3.org/2000/svg" xmlns:xlink="http://www.w3.org/1999/xlink" version="1.1" baseProfile="full" viewBox="0 0 200 200" width="200" height="200">
<g fill="black">
<path d="M 70.0 175.0 L 90.0 175.0 L 91.2 174.9 L 92.1 174.7 L 93.0 174.4 L 93.4 174.0 L 93.7 173.1 L 93.9 172.2 L 94.0 171.0 L 94.0 103.0 L 53.0 103.0 L 53.0 115.0 L 41.0 121.0 L 41.0 21.0 L 53.0 27.0 L 147.0 27.0 L 153.0 22.0 L 164.0 31.0 L 159.0 35.0 L 159.0 109.0 L 147.0 115.0 L 147.0 103.0 L 106.0 103.0 L 106.0 171.0 L 105.8 173.5 L 105.4 176.0 L 104.6 178.4 L 103.3 180.7 L 101.7 182.7 L 99.7 184.3 L 97.4 185.6 L 95.0 186.4 L 92.5 186.8 L 90.0 187.0 L 90.0 181.0 L 70.0 178.0 Z M 67.8 129.6 L 69.6 132.7 L 65.7820143699646 132.96330938339233 L 64.2 135.6 L 60.2 141.5 L 56.0 147.2 L 51.4 152.7 L 46.6 157.9 L 41.4 163.0 L 35.9 167.9 L 30.2 172.5 L 24.0 176.7 L 17.5 180.7 L 16.4 179.2 L 21.6 173.8 L 26.6 168.5 L 31.3 163.2 L 35.9 157.8 L 40.1 152.4 L 44.1 146.9 L 47.8 141.4 L 51.2 135.7 L 54.3 129.9 L 56.74141788482666 125.01716413497925 L 56.7 125.0 L 57.7 123.0 Z M 159.4 164.1 L 156.4 159.5 L 153.0 154.8 L 149.2 150.1 L 145.1 145.4 L 140.6 140.5 L 135.8 135.6 L 130.7 130.5 L 125.2 125.3 L 126.3 123.8 L 133.0 127.5 L 139.2 131.5 L 145.0 135.6 L 150.4 139.9 L 155.4 144.3 L 160.0 148.7 L 164.3 153.3 L 168.1 157.9 L 171.7 162.6 L 174.8 167.5 L 175.2 172.0 L 172.4 175.6 L 167.8 176.0 L 164.2 173.2 L 162.0 168.6 Z M 53.0 67.0 L 53.0 99.0 L 147.0 99.0 L 147.0 67.0 Z M 53.0 31.0 L 53.0 63.0 L 147.0 63.0 L 147.0 31.0 Z " />
</g>
</svg>
