<svg xmlns="http://www.w3.org/2000/svg" xmlns:xlink="http://www.w3.org/1999/xlink" version="1.1" baseProfile="full" viewBox="0 0 200 200" width="200" height="200">
<g fill="black">
<path d="M 138.0 176.6 L 158.0 176.6 L 159.2 176.5 L 160.1 176.3 L 161.0 176.0 L 161.4 175.6 L 161.7 174.7 L 161.9 173.8 L 162.0 172.6 L 162.0 52.3 L 38.0 52.3 L 38.0 183.0 L 26.0 189.0 L 26.0 42.3 L 38.0 48.3 L 79.47804880142212 48.3 L 82.9 42.2 L 85.2 38.3 L 89.8 30.7 L 94.2 23.3 L 96.3 19.6 L 98.4 16.0 L 99.90882959365845 13.35954828262329 L 99.8 13.3 L 100.9 11.7 L 110.4 19.1 L 111.8 22.4 L 107.8125 22.2625 L 105.0 25.7 L 102.2 29.0 L 99.3 32.3 L 93.3 38.9 L 90.1 42.1 L 86.7 45.3 L 83.31290321350097 48.3 L 162.0 48.3 L 168.0 43.3 L 179.0 52.3 L 174.0 56.3 L 174.0 172.6 L 173.8 175.1 L 173.4 177.6 L 172.6 180.0 L 171.3 182.3 L 169.7 184.3 L 167.7 185.9 L 165.4 187.2 L 163.0 188.0 L 160.5 188.4 L 158.0 188.6 L 158.0 182.6 L 138.0 179.6 Z M 133.2 156.3 L 130.4 152.7 L 127.2 149.2 L 123.7 145.8 L 119.9 142.5 L 115.7 139.2 L 111.2 135.9 L 106.5 132.6 L 105.5 131.9333333015442 L 105.5 177.5 L 93.5 183.5 L 93.5 131.2800000190735 L 93.1 131.9 L 88.7 137.9 L 83.9 143.7 L 78.7 149.3 L 73.1 154.7 L 67.1 159.8 L 60.7 164.7 L 53.8 169.3 L 46.5 173.5 L 45.5 172.0 L 51.5 166.3 L 57.2 160.6 L 62.6 155.0 L 67.6 149.4 L 72.3 143.7 L 76.6 137.9 L 80.5 132.1 L 84.0 126.2 L 87.1 120.2 L 87.71764707565308 118.8 L 43.3 118.8 L 43.3 114.8 L 93.5 114.8 L 93.5 79.2375 L 86.6 80.1 L 76.8 81.1 L 67.0 81.7 L 57.0 82.0 L 46.9 81.8 L 46.8 80.0 L 66.4 76.4 L 75.9 74.6 L 85.4 72.6 L 94.7 70.6 L 103.8 68.4 L 112.8 66.0 L 121.7 63.5 L 130.4 60.8 L 138.00908927917482 58.32262210845947 L 138.0 58.3 L 138.02187156677246 58.318460369110106 L 139.0 58.0 L 139.4685453414917 59.539506149291995 L 148.9 67.5 L 149.2 70.6 L 145.00749111175537 68.71640901565551 L 142.5 69.5 L 133.5 71.8 L 124.3 73.9 L 115.1 75.8 L 105.7 77.5 L 105.5 77.52947368621827 L 105.5 114.8 L 112.86666669845582 114.8 L 115.2 107.3 L 116.7 103.0 L 118.3 98.8 L 121.3 90.6 L 125.8 78.9 L 126.83979873657226 76.15196056365967 L 126.7 76.1 L 127.7 74.0 L 138.0 80.3 L 139.9 83.4 L 135.99785928726197 83.80366973876953 L 133.9 87.4 L 129.5 94.6 L 127.2 98.3 L 124.8 102.1 L 122.3 105.8 L 119.6 109.6 L 116.8 113.4 L 115.73157892227172 114.8 L 133.6 114.8 L 143.6 104.8 L 155.6 114.8 L 155.6 118.8 L 105.5 118.8 L 105.5 128.46333332061766 L 108.1 129.2 L 113.8 131.2 L 119.2 133.6 L 124.2 136.2 L 128.9 139.1 L 133.4 142.3 L 137.5 145.6 L 141.4 149.3 L 144.9 153.1 L 148.1 157.2 L 148.8 161.7 L 146.3 165.5 L 141.8 166.2 L 138.0 163.7 L 135.8 159.9 Z M 73.4 103.3 L 72.7 100.9 L 71.8 98.4 L 70.8 96.0 L 69.5 93.7 L 68.0 91.3 L 66.3 88.9 L 64.5 86.5 L 62.1 84.4 L 63.1 82.9 L 66.0 84.4 L 69.0 85.8 L 71.8 87.4 L 74.4 89.3 L 76.8 91.5 L 79.0 93.8 L 81.1 96.4 L 82.9 99.2 L 84.5 102.1 L 85.9 105.3 L 85.3 109.8 L 81.7 112.6 L 77.2 112.0 L 74.4 108.4 L 74.0 105.9 Z " />
</g>
</svg>
