<svg xmlns="http://www.w3.org/2000/svg" xmlns:xlink="http://www.w3.org/1999/xlink" version="1.1" baseProfile="full" viewBox="0 0 200 200" width="200" height="200">
<g fill="black">
<path d="M 142.5 180.3 L 128.3 175.8 L 114.9 170.4 L 102.4 164.0 L 101.71075620651246 163.57219352722169 L 91.2 169.2 L 77.6 175.1 L 63.1 180.1 L 47.9 184.1 L 31.9 187.0 L 15.1 188.8 L 14.8 187.1 L 31.1 183.3 L 46.5 178.9 L 61.0 173.9 L 74.6 168.1 L 87.2 161.7 L 92.99634380340576 158.16324787139894 L 90.8 156.8 L 80.1 148.6 L 70.3 139.4 L 69.82621555328369 138.85622463226318 L 66.8 141.4 L 59.4 146.8 L 51.5 151.7 L 43.0 156.3 L 33.9 160.3 L 24.3 163.8 L 23.6 162.1 L 32.2 156.9 L 40.3 151.6 L 47.9 146.2 L 54.9 140.7 L 61.3 135.0 L 64.0392294883728 132.21434288024903 L 61.5 129.3 L 53.8 118.3 L 55.3 117.2 L 64.6 126.5 L 67.29475030899047 128.88916006088257 L 72.5 122.8 L 77.3 116.4 L 81.5 109.8 L 84.70833330154419 103.9036036491394 L 84.7 103.9 L 85.7 102.0 L 95.8 108.7 L 97.4 111.9 L 93.65661840438842 112.02908210754394 L 91.1 116.0 L 88.02753620147705 120.0 L 135.8333333015442 120.0 L 137.2 118.3 L 137.637020778656 118.6358160018921 L 142.0 115.0 L 153.0 124.0 L 148.0 127.0 L 143.96907730102538 128.67955112457275 L 137.3 136.2 L 127.0 145.9 L 115.9 154.6 L 111.16674318313599 157.67661695480348 L 118.9 161.0 L 131.8 165.3 L 145.3 168.9 L 159.6 171.5 L 174.7 173.4 L 185.1 174.6 L 173.2 186.5 L 157.4 183.9 Z M 84.85 124.0 L 80.1 129.5 L 74.26093158721923 135.06536207199096 L 74.3 135.1 L 84.5 142.8 L 95.3 149.7 L 101.2604995727539 152.86165628433227 L 109.9 146.6 L 119.8 137.9 L 129.0 128.5 L 132.61764707565308 124.0 Z M 75.5 99.8 L 73.0 99.4 L 70.7 98.7 L 68.4 97.6 L 66.4 96.0 L 64.8 94.0 L 63.5 91.8 L 62.7 89.4 L 62.2 87.0 L 62.0 84.4 L 62.0 46.0 L 74.0 48.0 L 77.0 50.0 L 74.0 51.8 L 74.0 85.7 L 74.1 86.6 L 74.3 87.2 L 74.4 87.6 L 74.5 87.8 L 74.7 88.1 L 75.7 88.6 L 76.7 88.8 L 78.0 88.9 L 139.8 88.9 L 145.3 67.9 L 147.3 67.9 L 145.3 88.9 L 148.6 91.1 L 150.8 94.4 L 148.6 97.7 L 145.3 99.9 L 78.0 99.9 Z M 19.6 92.3 L 18.9 87.8 L 21.5 84.0 L 24.1 82.5 L 26.6 80.5 L 28.9 78.1 L 31.1 75.3 L 33.0 71.9 L 34.7 68.0 L 36.2 63.6 L 37.5 58.6 L 38.6 53.1 L 39.4 47.1 L 41.2 47.0 L 42.0 53.2 L 42.5 59.1 L 42.4 64.6 L 41.8 69.8 L 40.7 74.8 L 39.2 79.4 L 37.1 83.7 L 34.6 87.6 L 31.5 91.1 L 27.9 94.2 L 23.4 94.9 Z M 167.3 77.5 L 165.8 74.0 L 164.0 70.4 L 161.9 66.9 L 159.5 63.4 L 156.8 59.9 L 153.7 56.4 L 150.4 52.8 L 146.6 49.2 L 147.2709677696228 48.193548393249515 L 146.4 48.6 L 145.5 47.1 L 149.2 43.9 L 152.5 40.7 L 155.7 37.7 L 158.7 34.8 L 161.4 32.0 L 163.9 29.3 L 166.1 26.7 L 167.2199999809265 25.3 L 18.0 25.3 L 18.0 21.3 L 170.0 21.3 L 170.32631578445435 21.028070163726806 L 171.3 19.6 L 171.67606554031372 19.903278732299803 L 176.0 16.3 L 187.0 25.3 L 182.0 28.3 L 177.07462682724 30.352238845825195 L 175.6 31.6 L 172.8 33.8 L 169.7 36.0 L 166.5 38.2 L 163.0 40.3 L 159.2 42.4 L 155.2 44.5 L 150.9 46.5 L 147.95947132110595 47.872246742248535 L 152.4 50.0 L 156.9 52.5 L 161.1 55.3 L 164.9 58.4 L 168.4 61.7 L 171.5 65.3 L 174.4 69.0 L 176.9 73.0 L 179.0 77.1 L 180.8 81.5 L 180.3 86.0 L 176.7 88.9 L 172.2 88.4 L 169.3 84.8 L 168.4 81.1 Z M 108.0 63.7 L 106.2 60.9 L 104.3 58.1 L 102.2 55.4 L 99.9 52.8 L 97.3 50.2 L 94.6 47.6 L 91.8 45.0 L 88.5 42.6 L 89.3 41.0 L 93.2 42.4 L 97.1 43.7 L 100.7 45.4 L 104.2 47.4 L 107.5 49.6 L 110.6 52.0 L 113.6 54.6 L 116.4 57.4 L 119.0 60.5 L 121.4 63.7 L 121.9 68.3 L 119.1 71.9 L 114.6 72.4 L 110.9 69.6 L 109.5 66.6 Z " />
</g>
</svg>
