<svg xmlns="http://www.w3.org/2000/svg" xmlns:xlink="http://www.w3.org/1999/xlink" version="1.1" baseProfile="full" viewBox="0 0 200 200" width="200" height="200">
<g fill="black">
<path d="M 159.9 168.8 L 151.6 163.9 L 143.7 158.7 L 136.2 153.2 L 129.0 147.3 L 122.3 141.1 L 115.9 134.5 L 110.1 127.5 L 106.0 121.5865385055542 L 106.0 181.2 L 94.0 187.2 L 94.0 128.4262294769287 L 92.8 130.0 L 86.1 137.5 L 78.8 144.5 L 71.0 151.1 L 62.7 157.1 L 53.9 162.7 L 44.5 167.8 L 34.7 172.3 L 24.2 176.3 L 13.3 179.6 L 12.6 177.9 L 22.7 172.8 L 32.3 167.5 L 41.3 162.1 L 49.8 156.3 L 57.7 150.3 L 65.0 144.0 L 71.8 137.3 L 78.1 130.3 L 83.8 123.0 L 85.29767446517944 120.7 L 18.0 120.7 L 18.0 116.7 L 94.0 116.7 L 94.0 91.3 L 106.0 93.3 L 109.0 95.3 L 106.0 97.1 L 106.0 116.7 L 160.0 116.7 L 170.0 106.7 L 182.0 116.7 L 182.0 120.7 L 108.4473684310913 120.7 L 113.1 124.6 L 120.0 130.2 L 127.0 135.6 L 134.1 140.7 L 141.5 145.5 L 149.2 150.1 L 157.1 154.3 L 165.3 158.3 L 173.7 162.0 L 182.4 165.4 L 188.9 168.0 L 177.5 177.6 L 168.5 173.4 Z M 55.0 99.5 L 43.0 105.5 L 43.0 46.8 L 13.0 46.8 L 13.0 42.8 L 43.0 42.8 L 43.0 11.8 L 55.0 13.8 L 58.0 15.8 L 55.0 17.6 L 55.0 42.8 L 94.0 42.8 L 94.0 11.8 L 106.0 13.8 L 109.0 15.8 L 106.0 17.6 L 106.0 42.8 L 145.0 42.8 L 145.0 11.8 L 157.0 13.8 L 160.0 15.8 L 157.0 17.6 L 157.0 42.8 L 165.0 42.8 L 175.0 32.8 L 187.0 42.8 L 187.0 46.8 L 157.0 46.8 L 157.0 93.5 L 145.0 99.5 L 145.0 87.5 L 55.0 87.5 Z M 55.0 46.8 L 55.0 83.5 L 94.0 83.5 L 94.0 46.8 Z M 106.0 46.8 L 106.0 83.5 L 145.0 83.5 L 145.0 46.8 Z " />
</g>
</svg>
