<svg xmlns="http://www.w3.org/2000/svg" xmlns:xlink="http://www.w3.org/1999/xlink" version="1.1" baseProfile="full" viewBox="0 0 200 200" width="200" height="200">
<g fill="black">
<path d="M 13.1 176.6 L 20.5 171.2 L 28.2 165.6 L 35.9 159.6 L 43.9 153.3 L 52.1 146.6 L 60.4 139.7 L 69.0 132.5 L 77.8 124.9 L 86.9 117.2 L 96.3 109.3 L 97.6 110.6 L 89.6 119.9 L 81.5 128.8 L 73.5 137.3 L 65.6 145.3 L 57.7 153.0 L 50.0 160.3 L 42.4 167.3 L 34.9 173.9 L 27.6 180.2 L 23.538090896606445 183.52850885391234 L 23.8 187.3 L 20.4 186.1 L 11.5 177.8 Z M 166.6 162.9 L 160.9 155.4 L 155.0 148.3 L 148.8 141.5 L 142.4 135.0 L 135.7 128.7 L 128.8 122.7 L 121.7 116.9 L 114.4 111.2 L 115.3 109.7 L 123.7 113.7 L 131.9 118.4 L 139.8 123.6 L 147.4 129.3 L 154.7 135.4 L 161.7 141.9 L 168.5 148.9 L 175.1 156.2 L 181.3 164.0 L 187.3 172.1 L 188.1 176.6 L 185.6 180.5 L 181.1 181.3 L 177.3 178.7 L 172.1 170.7 Z M 182.1 20.4 L 183.2 23.8 L 179.63194952011108 23.36937322616577 L 175.7 28.1 L 169.3 35.6 L 162.9 43.0 L 156.5 50.2 L 150.0 57.4 L 143.5 64.4 L 137.0 71.2 L 130.3 77.9 L 123.6 84.4 L 116.6 90.6 L 115.3 89.3 L 120.7 81.8 L 126.3 74.4 L 132.0 66.9 L 137.8 59.5 L 143.5 51.9 L 149.3 44.3 L 155.2 36.6 L 161.0 28.9 L 172.0085965156555 13.905532360076904 L 172.0 13.9 L 173.0 12.5 Z M 69.3 66.9 L 65.7 59.7 L 61.7 52.8 L 57.3 46.3 L 52.5 40.0 L 47.3 34.0 L 41.7 28.3 L 35.7 22.7 L 29.3 17.2 L 30.3 15.7 L 37.9 19.6 L 45.1 24.1 L 51.8 29.3 L 58.1 34.9 L 64.0 41.0 L 69.4 47.5 L 74.3 54.5 L 78.9 62.0 L 82.9 69.8 L 86.6 78.1 L 86.3 82.6 L 83.0 85.8 L 78.4 85.5 L 75.3 82.2 L 72.5 74.4 Z " />
</g>
</svg>
