<svg xmlns="http://www.w3.org/2000/svg" xmlns:xlink="http://www.w3.org/1999/xlink" version="1.1" baseProfile="full" viewBox="0 0 200 200" width="200" height="200">
<g fill="black">
<path d="M 161.0 15.0 L 164.0 17.0 L 161.0 18.8 L 161.0 95.0 L 166.0 95.0 L 176.0 85.0 L 188.0 95.0 L 188.0 99.0 L 161.0 99.0 L 161.0 181.0 L 149.0 187.0 L 149.0 99.0 L 124.0 99.0 L 124.0 181.0 L 112.0 187.0 L 112.0 99.0 L 87.0 99.0 L 87.0 181.0 L 75.0 187.0 L 75.0 99.0 L 48.0 99.0 L 48.0 181.0 L 36.0 187.0 L 36.0 99.0 L 12.0 99.0 L 12.0 95.0 L 36.0 95.0 L 36.0 13.0 L 48.0 15.0 L 51.0 17.0 L 48.0 18.8 L 48.0 95.0 L 75.0 95.0 L 75.0 13.0 L 87.0 15.0 L 90.0 17.0 L 87.0 18.8 L 87.0 95.0 L 112.0 95.0 L 112.0 13.0 L 124.0 15.0 L 127.0 17.0 L 124.0 18.8 L 124.0 95.0 L 149.0 95.0 L 149.0 13.0 Z " />
</g>
</svg>
