<svg xmlns="http://www.w3.org/2000/svg" xmlns:xlink="http://www.w3.org/1999/xlink" version="1.1" baseProfile="full" viewBox="0 0 200 200" width="200" height="200">
<g fill="black">
<path d="M 136.0 166.9 L 132.2 162.8 L 128.0 158.7 L 123.3 154.3 L 121.76718006134033 152.9775671005249 L 110.5 157.6 L 99.5 162.0 L 89.3 166.0 L 79.8 169.6 L 63.0 175.9 L 55.8 178.7 L 49.4 181.2 L 43.7 183.4 L 42.61291389465332 183.82152318954468 L 41.6 187.5 L 38.8 185.3 L 33.1 174.6 L 35.0 173.9 L 40.1 172.6 L 46.0 171.0 L 51.0 169.58208951950073 L 51.0 38.0 L 63.0 44.0 L 98.0 44.0 L 98.0 15.0 L 110.0 17.0 L 113.0 19.0 L 110.0 20.8 L 110.0 44.0 L 141.0 44.0 L 147.0 39.0 L 158.0 48.0 L 153.0 52.0 L 153.0 117.0 L 141.0 123.0 L 141.0 111.0 L 63.0 111.0 L 63.0 166.29638557434083 L 68.4 164.8 L 77.4 162.4 L 87.2 159.7 L 97.9 156.9 L 109.4 154.0 L 120.04357862472534 151.49053840637208 L 118.2 149.9 L 112.8 145.3 L 107.0 140.5 L 100.8 135.5 L 94.3 130.2 L 95.3 128.7 L 102.9 132.3 L 110.0 136.1 L 116.6 139.9 L 122.8 143.8 L 128.6 147.7 L 133.9 151.5 L 138.9 155.4 L 143.5 159.2 L 147.7 163.0 L 151.6 166.8 L 152.9 171.1 L 150.9 175.2 L 146.5 176.6 L 142.4 174.6 L 139.5 170.8 Z M 63.0 79.0 L 63.0 107.0 L 141.0 107.0 L 141.0 79.0 Z M 63.0 75.0 L 141.0 75.0 L 141.0 48.0 L 63.0 48.0 Z " />
</g>
</svg>
