<svg xmlns="http://www.w3.org/2000/svg" xmlns:xlink="http://www.w3.org/1999/xlink" version="1.1" baseProfile="full" viewBox="0 0 200 200" width="200" height="200">
<g fill="black">
<path d="M 147.1 165.6 L 135.6 152.8 L 125.8 138.3 L 117.7 122.2 L 111.3 104.6 L 106.6 85.4 L 103.6 64.6 L 102.86632328033447 51.026980018615724 L 100.9 67.3 L 96.3 89.3 L 90.0 109.4 L 82.0 127.6 L 72.2 143.7 L 60.7 157.9 L 47.5 169.9 L 32.6 179.7 L 16.2 187.3 L 15.4 185.6 L 30.6 176.5 L 44.0 165.8 L 55.7 153.5 L 65.9 139.5 L 74.4 123.8 L 81.3 106.3 L 86.6 86.9 L 90.3 65.7 L 92.4 42.6 L 93.0 17.5 L 93.0 15.1 L 105.0 17.5 L 108.0 19.5 L 104.9955138206482 21.302691650390624 L 106.5 42.1 L 109.5 63.9 L 113.7 83.8 L 119.3 102.0 L 126.2 118.3 L 134.5 132.9 L 144.1 145.8 L 155.1 157.0 L 167.5 166.5 L 181.2 174.4 L 186.4 177.1 L 175.1 186.1 L 160.3 176.8 Z M 12.9 114.2 L 19.1 111.1 L 25.5 107.8 L 32.1 104.3 L 38.9 100.6 L 45.9 96.7 L 53.1 92.7 L 60.5 88.5 L 68.2 84.1 L 76.2 79.7 L 84.4 75.2 L 85.5 76.7 L 78.3 82.8 L 71.2 88.6 L 64.2 94.0 L 57.2 99.1 L 50.4 103.9 L 43.8 108.5 L 37.3 112.9 L 30.9 117.1 L 24.7 121.0 L 22.22269401550293 122.52767200469971 L 21.9 126.4 L 18.7 124.7 L 11.2 115.2 Z M 165.7 109.7 L 160.8 105.3 L 155.7 101.0 L 150.3 96.8 L 144.7 92.8 L 138.8 88.8 L 132.6 85.0 L 126.2 81.1 L 119.5 77.2 L 120.2 75.5 L 127.7 77.6 L 135.0 80.1 L 141.9 83.0 L 148.6 86.2 L 155.0 89.7 L 161.1 93.4 L 167.0 97.4 L 172.7 101.6 L 178.1 106.0 L 183.2 110.6 L 184.8 114.9 L 183.0 119.1 L 178.8 120.7 L 174.5 118.9 L 170.2 114.2 Z M 179.1 27.2 L 179.5 30.7 L 176.01166667938233 29.55836362838745 L 173.6 31.4 L 168.0 35.6 L 162.4 39.7 L 156.8 43.7 L 151.1 47.7 L 145.4 51.6 L 139.6 55.4 L 133.7 59.0 L 127.6 62.5 L 121.5 65.7 L 120.4 64.2 L 125.4 59.4 L 130.5 54.7 L 135.6 50.1 L 140.8 45.6 L 145.9 41.0 L 151.0 36.5 L 166.3 22.7 L 170.52696571350097 18.726652240753175 L 170.5 18.7 L 171.4 17.9 Z M 60.5 52.7 L 57.5 48.6 L 54.2 44.7 L 50.4 40.9 L 46.2 37.3 L 41.7 33.7 L 36.7 30.2 L 31.3 26.7 L 25.6 23.2 L 26.2 21.5 L 32.9 23.2 L 39.2 25.4 L 45.1 28.0 L 50.6 31.0 L 55.7 34.3 L 60.5 37.9 L 64.9 41.9 L 69.0 46.1 L 72.6 50.6 L 75.8 55.5 L 76.2 60.0 L 73.4 63.6 L 68.8 64.0 L 65.2 61.2 L 63.0 56.9 Z " />
</g>
</svg>
