<svg xmlns="http://www.w3.org/2000/svg" xmlns:xlink="http://www.w3.org/1999/xlink" version="1.1" baseProfile="full" viewBox="0 0 200 200" width="200" height="200">
<g fill="black">
<path d="M 44.0 182.0 L 32.0 188.0 L 32.0 87.0 L 44.0 93.0 L 73.0 93.0 L 73.0 59.0 L 15.0 59.0 L 15.0 55.0 L 73.0 55.0 L 73.0 16.0 L 85.0 18.0 L 88.0 20.0 L 85.0 21.8 L 85.0 55.0 L 115.0 55.0 L 115.0 16.0 L 127.0 18.0 L 130.0 20.0 L 127.0 21.8 L 127.0 55.0 L 163.0 55.0 L 173.0 45.0 L 185.0 55.0 L 185.0 59.0 L 127.0 59.0 L 127.0 93.0 L 156.0 93.0 L 162.0 88.0 L 173.0 97.0 L 168.0 101.0 L 168.0 179.0 L 156.0 185.0 L 156.0 175.0 L 44.0 175.0 Z M 44.0 136.0 L 44.0 171.0 L 73.0 171.0 L 73.0 136.0 Z M 85.0 136.0 L 85.0 171.0 L 115.0 171.0 L 115.0 136.0 Z M 127.0 136.0 L 127.0 171.0 L 156.0 171.0 L 156.0 136.0 Z M 44.0 97.0 L 44.0 132.0 L 73.0 132.0 L 73.0 97.0 Z M 85.0 97.0 L 85.0 132.0 L 115.0 132.0 L 115.0 97.0 Z M 127.0 97.0 L 127.0 132.0 L 156.0 132.0 L 156.0 97.0 Z M 85.0 59.0 L 85.0 93.0 L 115.0 93.0 L 115.0 59.0 Z " />
</g>
</svg>
