<svg xmlns="http://www.w3.org/2000/svg" xmlns:xlink="http://www.w3.org/1999/xlink" version="1.1" baseProfile="full" viewBox="0 0 200 200" width="200" height="200">
<g fill="black">
<path d="M 156.2 176.0 L 147.9 172.4 L 140.0 168.5 L 132.7 164.4 L 125.9 159.9 L 119.6 155.2 L 113.9 150.1 L 108.9 144.8 L 106.0 140.79523811340331 L 106.0 183.1 L 94.0 189.1 L 94.0 148.52857141494752 L 89.5 152.1 L 82.5 156.9 L 75.0 161.3 L 66.9 165.4 L 58.2 169.1 L 48.9 172.5 L 39.1 175.6 L 28.6 178.2 L 17.5 180.3 L 17.0 178.6 L 27.5 174.5 L 37.3 170.5 L 46.5 166.4 L 55.1 162.2 L 63.0 157.9 L 70.2 153.3 L 76.8 148.6 L 82.8 143.8 L 87.16800003051758 139.6 L 20.1 139.6 L 20.1 135.6 L 94.0 135.6 L 94.0 120.39435482025146 L 82.9 121.2 L 70.2 122.0 L 57.0 122.5 L 43.5 122.8 L 29.5 122.8 L 29.4 121.1 L 43.2 119.1 L 56.6 117.2 L 69.6 115.4 L 82.1 113.6 L 94.3 111.8 L 106.0 110.0 L 117.3 108.1 L 128.2 106.1 L 138.6 104.1 L 147.60260753631593 102.20945243835449 L 147.6 102.2 L 147.60972595214844 102.20795755386352 L 148.6 102.0 L 148.8239999771118 103.20145454406739 L 159.7 112.1 L 160.1 115.1 L 155.60459718704223 112.88226795196533 L 150.8 113.8 L 140.5 115.3 L 129.8 116.7 L 118.7 118.0 L 107.2 119.2 L 106.0 119.31092433929443 L 106.0 135.6 L 157.9 135.6 L 167.9 125.6 L 179.9 135.6 L 179.9 139.6 L 108.70749998092651 139.6 L 111.7 141.7 L 117.6 145.5 L 123.7 149.2 L 130.2 152.8 L 137.1 156.1 L 144.4 159.3 L 152.1 162.2 L 160.2 164.9 L 168.8 167.4 L 177.8 169.7 L 186.0 172.0 L 174.4 182.5 L 165.0 179.4 Z M 13.4 104.1 L 12.8 99.6 L 15.4 95.9 L 17.4 94.9 L 19.3 93.5 L 21.2 91.7 L 23.0 89.4 L 24.6 86.6 L 26.1 83.2 L 27.4 79.3 L 28.5 74.8 L 29.5 69.9 L 30.1 64.5 L 31.9 64.4 L 32.6 70.0 L 32.92692308425903 73.4 L 169.9 73.4 L 175.9 68.4 L 186.9 77.4 L 181.9 80.4 L 178.23164558410645 81.92848100662232 L 177.0 83.6 L 175.5 85.6 L 173.9 87.8 L 172.0 90.2 L 170.0 92.9 L 167.8 95.7 L 165.7 99.0 L 164.1 98.1 L 165.6 94.6 L 166.5 91.1 L 167.4 87.9 L 168.2 85.0 L 168.8 82.4 L 169.4 80.0 L 169.8 77.9 L 169.88333330154418 77.4 L 33.14489793777466 77.4 L 33.2 80.1 L 32.9 84.8 L 32.1 89.1 L 31.0 93.2 L 29.4 97.0 L 27.3 100.4 L 24.7 103.5 L 21.6 106.1 L 17.1 106.8 Z M 155.2 94.0 L 155.2 98.0 L 42.7 98.0 L 42.7 94.0 L 133.2 94.0 L 143.2 84.0 Z M 27.8 52.8 L 93.5 52.8 L 93.5 35.5 L 15.9 35.5 L 15.9 31.5 L 93.5 31.5 L 93.5 12.2 L 105.5 14.2 L 108.5 16.2 L 105.5 18.0 L 105.5 31.5 L 161.0 31.5 L 171.0 21.5 L 183.0 31.5 L 183.0 35.5 L 105.5 35.5 L 105.5 52.8 L 152.9181818008423 52.8 L 161.1 43.8 L 171.1 52.8 L 171.1 56.8 L 27.8 56.8 Z " />
</g>
</svg>
