<svg xmlns="http://www.w3.org/2000/svg" xmlns:xlink="http://www.w3.org/1999/xlink" version="1.1" baseProfile="full" viewBox="0 0 200 200" width="200" height="200">
<g fill="black">
<path d="M 135.2 184.8 L 116.7 183.0 L 100.4 180.3 L 86.2 176.4 L 74.1 171.5 L 64.2 165.4 L 56.6 158.1 L 51.6 149.8 L 51.248407649993894 148.40891723632814 L 49.5 152.1 L 45.0 159.3 L 39.9 166.0 L 34.1 172.3 L 27.6 178.0 L 20.4 183.2 L 12.5 187.8 L 11.4 186.3 L 18.0 180.2 L 24.0 174.1 L 29.2 167.9 L 33.9 161.5 L 37.8 154.9 L 41.1 148.1 L 43.7 141.0 L 45.8 133.7 L 47.1 126.1 L 47.81578950881958 119.03157892227173 L 48.1 116.0 L 59.8 119.3 L 62.6 121.6 L 59.12301836013794 123.27162580490112 L 58.3 128.1 L 56.1 136.5 L 53.22043399810791 144.1788426399231 L 55.2 147.8 L 60.9 154.0 L 68.2 159.4 L 77.5 163.8 L 88.8 167.5 L 94.0 168.53999996185303 L 94.0 88.1 L 22.0 88.1 L 22.0 84.1 L 164.0 84.1 L 164.0638298034668 84.04680852890014 L 164.1 84.0 L 165.7 81.9 L 166.13003225326537 82.32497310638428 L 170.0 79.1 L 181.0 88.1 L 176.0 91.1 L 169.61758241653442 93.75934066772462 L 167.2 95.5 L 164.6 97.4 L 161.8 99.3 L 158.9 101.3 L 155.8 103.4 L 152.5 105.4 L 149.0 107.5 L 145.5 109.9 L 144.4 108.5 L 147.1 105.4 L 149.6 102.2 L 152.0 99.2 L 154.4 96.3 L 156.6 93.6 L 158.6 91.0 L 160.6 88.6 L 160.975 88.1 L 106.0 88.1 L 106.0 127.6 L 147.0 127.6 L 157.0 117.6 L 169.0 127.6 L 169.0 131.6 L 106.0 131.6 L 106.0 170.65064105987548 L 117.9 172.1 L 135.6 173.0 L 155.6 172.9 L 177.6 171.9 L 188.8 171.3 L 178.3 185.1 L 155.7 185.4 Z M 104.9 73.3 L 102.3 70.4 L 99.4 67.5 L 96.1 64.6 L 92.4 61.7 L 88.3 58.8 L 83.8 55.8 L 79.0 52.8 L 73.9 49.8 L 74.5 48.1 L 80.5 49.5 L 86.1 51.1 L 91.3 53.1 L 96.2 55.2 L 100.8 57.6 L 105.0 60.2 L 105.87073822021485 60.802818775177 L 107.1 59.8 L 111.3 56.6 L 115.7 53.4 L 120.4 50.1 L 125.3 46.5 L 130.5 42.8 L 135.9 38.9 L 141.5 34.7 L 144.1818181991577 32.7 L 36.9 32.7 L 36.9 28.7 L 149.5217391014099 28.7 L 153.5 25.7 L 153.86402568817138 26.229978561401367 L 156.9 23.7 L 167.9 32.7 L 162.9 35.7 L 154.77305393218995 39.08622751235962 L 153.8 39.7 L 147.5 43.6 L 141.4 47.3 L 135.5 50.6 L 129.8 53.7 L 124.3 56.6 L 119.0 59.1 L 113.9 61.3 L 109.06759777069092 63.039664840698244 L 112.5 65.9 L 115.8 69.0 L 118.8 72.4 L 119.6 76.9 L 117.2 80.7 L 112.7 81.6 L 108.9 79.2 L 107.0 76.3 Z " />
</g>
</svg>
