<svg xmlns="http://www.w3.org/2000/svg" xmlns:xlink="http://www.w3.org/1999/xlink" version="1.1" baseProfile="full" viewBox="0 0 200 200" width="200" height="200">
<g fill="black">
<path d="M 80.3 159.1 L 80.8 162.6 L 77.25475635528565 161.52376537323 L 75.4 163.0 L 70.3 166.7 L 65.0 170.2 L 59.6 173.6 L 54.0 176.7 L 48.3 179.7 L 42.3 182.4 L 36.2 184.9 L 29.8 187.0 L 23.3 188.8 L 22.6 187.1 L 28.3 183.6 L 33.8 180.1 L 39.2 176.6 L 44.4 173.1 L 49.5 169.5 L 54.4 165.9 L 59.1 162.1 L 63.6 158.2 L 68.0 154.3 L 71.44266176223755 150.9393063545227 L 71.4 150.9 L 72.4 150.0 Z M 155.5 179.4 L 152.4 176.3 L 148.9 173.2 L 145.1 170.0 L 140.9 166.8 L 136.3 163.6 L 131.4 160.3 L 126.1 156.8 L 120.5 153.2 L 121.2 151.5 L 127.7 153.4 L 133.8 155.5 L 139.5 157.8 L 144.8 160.3 L 149.8 162.9 L 154.4 165.7 L 158.7 168.5 L 162.7 171.5 L 166.3 174.6 L 169.6 177.8 L 170.9 182.2 L 168.9 186.3 L 164.5 187.6 L 160.4 185.5 L 158.1 182.5 Z M 70.36903619766235 22.651674652099608 L 71.8 24.3 L 72.0 27.8 L 68.32053842544556 26.26131601333618 L 67.9 26.5 L 64.2 28.3 L 60.5 30.0 L 56.7 31.5 L 52.8 32.7 L 49.0 33.8 L 45.1 34.7 L 41.1 35.3 L 38.974139022827146 35.45943956375122 L 39.85341730117798 67.0 L 53.81818180084228 67.0 L 62.0 58.0 L 72.0 67.0 L 72.0 71.0 L 39.96492805480957 71.0 L 40.8570143699646 103.0 L 54.81818180084228 103.0 L 63.0 94.0 L 73.0 103.0 L 73.0 107.0 L 40.96852521896362 107.0 L 41.94424457550049 142.0 L 157.97079648971558 142.0 L 159.20973453521728 107.0 L 132.0 107.0 L 132.0 103.0 L 159.351327419281 103.0 L 160.51946907043458 70.0 L 134.0 70.0 L 134.0 66.0 L 160.66106195449828 66.0 L 161.82920351028443 33.0 L 135.0 33.0 L 135.0 29.0 L 162.0 29.0 L 168.0 24.0 L 179.0 33.0 L 174.0 36.0 L 172.8803611755371 36.466516208648684 L 170.0535714149475 142.0 L 174.7777777671814 142.0 L 181.0 135.0 L 189.0 142.0 L 189.0 146.0 L 12.0 146.0 L 12.0 142.0 L 29.845252323150635 142.0 L 26.7 27.1 L 37.33388214111328 32.06828918457031 L 39.8 30.8 L 43.1 29.1 L 46.4 27.3 L 49.6 25.5 L 52.8 23.5 L 55.9 21.4 L 58.9 19.3 L 61.8 17.0 L 63.93069086074829 15.236669635772705 L 63.9 15.2 L 63.93135614395142 15.236119079589844 L 64.7 14.6 Z " />
</g>
</svg>
