<svg xmlns="http://www.w3.org/2000/svg" xmlns:xlink="http://www.w3.org/1999/xlink" version="1.1" baseProfile="full" viewBox="0 0 200 200" width="200" height="200">
<g fill="black">
<path d="M 84.3 153.0 L 84.8 156.6 L 81.09350004196168 155.5409999847412 L 79.0 157.2 L 73.5 161.2 L 67.5 165.1 L 61.3 168.9 L 54.7 172.5 L 47.7 176.0 L 40.5 179.3 L 32.8 182.4 L 24.7 185.2 L 16.3 187.8 L 15.6 186.1 L 23.2 181.8 L 30.5 177.6 L 37.5 173.4 L 44.1 169.3 L 50.3 165.2 L 56.2 161.1 L 61.8 156.9 L 66.9 152.7 L 71.7 148.5 L 75.43454227447509 144.93143739700318 L 75.4 144.9 L 76.4 144.0 Z M 161.1 176.4 L 156.9 172.4 L 152.4 168.6 L 147.4 164.8 L 142.2 161.2 L 136.5 157.6 L 130.5 154.2 L 124.2 150.7 L 117.6 147.1 L 118.2 145.4 L 125.6 147.1 L 132.7 149.3 L 139.5 151.8 L 145.9 154.6 L 151.9 157.6 L 157.7 160.9 L 163.1 164.5 L 168.2 168.3 L 173.0 172.4 L 177.5 176.7 L 178.9 181.1 L 176.9 185.2 L 172.6 186.6 L 168.5 184.6 L 165.0 180.4 Z M 52.0 145.0 L 40.0 151.0 L 40.0 49.0 L 52.0 55.0 L 94.0 55.0 L 94.0 26.0 L 33.0 26.0 L 33.0 22.0 L 145.0 22.0 L 155.0 12.0 L 167.0 22.0 L 167.0 26.0 L 106.0 26.0 L 106.0 55.0 L 148.0 55.0 L 154.0 50.0 L 165.0 59.0 L 160.0 63.0 L 160.0 137.0 L 148.0 143.0 L 148.0 133.0 L 52.0 133.0 Z M 52.0 96.0 L 52.0 129.0 L 94.0 129.0 L 94.0 96.0 Z M 106.0 96.0 L 106.0 129.0 L 148.0 129.0 L 148.0 96.0 Z M 52.0 59.0 L 52.0 92.0 L 94.0 92.0 L 94.0 59.0 Z M 106.0 59.0 L 106.0 92.0 L 148.0 92.0 L 148.0 59.0 Z " />
</g>
</svg>
