<svg xmlns="http://www.w3.org/2000/svg" xmlns:xlink="http://www.w3.org/1999/xlink" version="1.1" baseProfile="full" viewBox="0 0 200 200" width="200" height="200">
<g fill="black">
<path d="M 35.6 184.0 L 23.6 190.0 L 23.6 23.0 L 35.6 29.0 L 79.7 29.0 L 89.7 19.0 L 101.7 29.0 L 101.7 33.0 L 68.5 33.0 L 68.5 72.0 L 84.4 72.0 L 90.4 67.0 L 101.4 76.0 L 96.4 80.0 L 96.4 131.0 L 84.4 137.0 L 84.4 125.0 L 68.5 125.0 L 68.5 168.0 L 82.1 168.0 L 92.1 158.0 L 104.1 168.0 L 104.1 172.0 L 35.6 172.0 Z M 35.6 125.0 L 35.6 168.0 L 56.5 168.0 L 56.5 125.0 Z M 182.0 149.0 L 182.0 153.0 L 110.0 153.0 L 110.0 149.0 L 160.0 149.0 L 170.0 139.0 Z M 35.6 121.0 L 84.4 121.0 L 84.4 76.0 L 35.6 76.0 Z M 135.7 19.9 L 138.3 22.4 L 134.89490442276002 23.72420377731323 L 133.7 29.4 L 131.5 38.7 L 129.0 47.5 L 126.73255815505982 55.0 L 160.0 55.0 L 170.0 45.0 L 182.0 55.0 L 182.0 59.0 L 125.33902435302734 59.0 L 123.4 64.3 L 120.3 72.1 L 116.9 79.5 L 113.2 86.6 L 109.1 93.2 L 104.7 99.4 L 103.2 98.5 L 105.8 91.5 L 108.3 84.4 L 110.8 77.1 L 113.2 69.5 L 115.4 61.6 L 117.4 53.5 L 119.3 45.1 L 121.0 36.3 L 122.5 27.3 L 123.74891014099121 19.003668308258057 L 123.7 19.0 L 124.2 16.0 Z M 35.6 33.0 L 35.6 72.0 L 56.5 72.0 L 56.5 33.0 Z " />
</g>
</svg>
