<svg xmlns="http://www.w3.org/2000/svg" xmlns:xlink="http://www.w3.org/1999/xlink" version="1.1" baseProfile="full" viewBox="0 0 200 200" width="200" height="200">
<g fill="black">
<path d="M 81.9 118.1 L 84.9 120.1 L 81.45567426681518 122.05853815078736 L 80.8 127.9 L 78.47659578323365 137.0 L 143.0 137.0 L 149.0 132.0 L 160.0 141.0 L 155.0 144.0 L 154.84654731750487 144.0639386177063 L 154.8 145.6 L 154.3 151.7 L 153.6 157.3 L 152.4 162.4 L 150.9 167.1 L 149.0 171.3 L 146.6 175.0 L 143.7 178.2 L 140.2 180.7 L 136.3 182.5 L 134.2 183.1 L 132.2 183.7 L 130.0 184.2 L 127.9 184.7 L 125.8 185.1 L 123.6 185.4 L 121.5 185.6 L 119.3 185.8 L 117.1 185.9 L 115.0 186.0 L 115.0 180.0 L 95.0 177.0 L 95.0 174.0 L 115.0 174.0 L 116.8 173.9 L 118.5 173.8 L 120.3 173.7 L 122.1 173.5 L 123.9 173.2 L 125.6 172.9 L 127.4 172.6 L 132.5 171.1 L 134.2 170.4 L 135.6 169.3 L 137.1 167.7 L 138.4 165.6 L 139.7 162.8 L 140.8 159.3 L 141.7 155.2 L 142.4 150.4 L 142.8 145.0 L 142.9333333015442 141.0 L 76.86896553039551 141.0 L 74.8 146.0 L 69.9 154.1 L 63.9 161.5 L 56.8 168.2 L 48.5 174.2 L 39.2 179.5 L 28.8 184.0 L 17.3 187.8 L 16.6 186.1 L 27.2 180.6 L 36.5 174.8 L 44.7 168.8 L 51.7 162.5 L 57.5 155.9 L 62.1 149.0 L 65.6 141.8 L 68.1 134.2 L 69.5 126.3 L 69.9 117.8 L 69.93028011322022 117.80075702667236 L 69.95454549789429 117.0 L 17.0 117.0 L 17.0 113.0 L 91.0 113.0 L 91.0 89.2 L 49.4 89.2 L 49.4 96.2 L 37.4 102.2 L 37.4 28.9 L 49.4 34.9 L 85.80769233703613 34.9 L 86.4 33.8 L 87.3 31.0 L 88.2 28.3 L 89.1 25.8 L 90.0 23.4 L 90.7 21.0 L 91.4 18.8 L 92.0 16.6 L 92.6 14.5 L 92.80557374954223 13.472131156921387 L 92.6 13.4 L 92.97931032180786 12.603448295593262 L 93.0 12.5 L 93.02357139587403 12.510499954223633 L 93.6 11.3 L 104.0 17.4 L 105.9 20.5 L 101.30737047195434 21.054282855987548 L 101.2 21.2 L 99.7 23.2 L 98.0 25.1 L 96.3 27.1 L 94.5 29.1 L 92.6 31.1 L 90.6 33.1 L 88.61999998092651 34.9 L 146.5 34.9 L 152.5 29.9 L 163.5 38.9 L 158.5 42.9 L 158.5 93.2 L 146.5 99.2 L 146.5 89.2 L 92.2 89.2 L 103.0 91.0 L 106.0 93.0 L 103.0 94.8 L 103.0 113.0 L 158.0 113.0 L 168.0 103.0 L 180.0 113.0 L 180.0 117.0 L 76.86538457870483 117.0 Z M 49.4 63.6 L 49.4 85.2 L 146.5 85.2 L 146.5 63.6 Z M 49.4 38.9 L 49.4 59.6 L 146.5 59.6 L 146.5 38.9 Z " />
</g>
</svg>
