<svg xmlns="http://www.w3.org/2000/svg" xmlns:xlink="http://www.w3.org/1999/xlink" version="1.1" baseProfile="full" viewBox="0 0 200 200" width="200" height="200">
<g fill="black">
<path d="M 122.0 176.0 L 142.0 176.0 L 143.2 175.9 L 144.1 175.7 L 145.0 175.4 L 145.4 175.0 L 145.7 174.1 L 145.9 173.2 L 146.0 172.0 L 146.0 40.0 L 22.0 40.0 L 22.0 36.0 L 162.0 36.0 L 172.0 26.0 L 184.0 36.0 L 184.0 40.0 L 158.0 40.0 L 158.0 172.0 L 157.8 174.5 L 157.4 177.0 L 156.6 179.4 L 155.3 181.7 L 153.7 183.7 L 151.7 185.3 L 149.4 186.6 L 147.0 187.4 L 144.5 187.8 L 142.0 188.0 L 142.0 182.0 L 122.0 179.0 Z " />
</g>
</svg>
