<svg xmlns="http://www.w3.org/2000/svg" xmlns:xlink="http://www.w3.org/1999/xlink" version="1.1" baseProfile="full" viewBox="0 0 200 200" width="200" height="200">
<g fill="black">
<path d="M 163.0 95.5 L 156.1 86.3 L 148.8 77.4 L 141.0 68.6 L 132.8 60.1 L 124.0 51.7 L 114.9 43.5 L 106.0 35.990625 L 106.0 182.0 L 94.0 188.0 L 94.0 43.72405061721802 L 91.6 47.4 L 83.3 58.8 L 74.5 69.5 L 65.2 79.5 L 55.4 88.7 L 45.1 97.1 L 34.4 104.7 L 23.1 111.4 L 11.4 117.2 L 10.5 115.6 L 21.1 108.2 L 31.2 100.4 L 40.9 92.0 L 50.2 83.1 L 59.0 73.7 L 67.3 63.6 L 75.2 52.9 L 82.6 41.6 L 89.6 29.6 L 95.72356691360474 17.909554100036623 L 95.7 17.9 L 96.7 15.9 L 106.8 22.4 L 108.6 25.6 L 104.84250345230103 25.859137725830077 L 102.75577030181884 29.546652412414552 L 105.26000003814697 31.0 L 106.0 31.0 L 106.0 31.429464244842528 L 107.5 32.3 L 118.1 39.3 L 128.3 46.7 L 137.9 54.5 L 147.0 62.6 L 155.7 71.1 L 163.8 79.9 L 171.5 89.1 L 178.7 98.5 L 185.5 108.3 L 186.2 112.8 L 183.5 116.6 L 179.0 117.2 L 175.3 114.6 L 169.4 105.0 Z " />
</g>
</svg>
