<svg xmlns="http://www.w3.org/2000/svg" xmlns:xlink="http://www.w3.org/1999/xlink" version="1.1" baseProfile="full" viewBox="0 0 200 200" width="200" height="200">
<g fill="black">
<path d="M 142.0 18.0 L 145.0 20.0 L 142.0 21.8 L 142.0 56.0 L 157.0 56.0 L 167.0 46.0 L 179.0 56.0 L 179.0 60.0 L 142.0 60.0 L 142.0 186.0 L 130.0 186.0 L 130.0 144.0 L 70.0 144.0 L 70.0 186.0 L 58.0 186.0 L 58.0 60.0 L 21.0 60.0 L 21.0 56.0 L 58.0 56.0 L 58.0 16.0 L 70.0 18.0 L 73.0 20.0 L 70.0 21.8 L 70.0 56.0 L 130.0 56.0 L 130.0 16.0 Z M 70.0 102.0 L 70.0 140.0 L 130.0 140.0 L 130.0 102.0 Z M 70.0 60.0 L 70.0 98.0 L 130.0 98.0 L 130.0 60.0 Z " />
</g>
</svg>
