<svg xmlns="http://www.w3.org/2000/svg" xmlns:xlink="http://www.w3.org/1999/xlink" version="1.1" baseProfile="full" viewBox="0 0 200 200" width="200" height="200">
<g fill="black">
<path d="M 13.5 105.1 L 12.6 100.6 L 15.1 96.8 L 17.1 95.6 L 19.1 94.0 L 21.0 91.8 L 22.8 89.0 L 24.4 85.7 L 25.9 81.7 L 27.2 77.2 L 28.3 72.2 L 29.4 66.6 L 30.1 60.4 L 31.9 60.3 L 32.7 66.6 L 33.06440677642822 70.9 L 133.41538457870485 70.9 L 132.4 69.7 L 135.0 66.5 L 137.4 63.2 L 139.7 60.0 L 141.9 56.8 L 143.9 53.5 L 145.8 50.2 L 147.6 46.8 L 149.2 43.3 L 150.7 39.8 L 151.70973720550538 37.203532981872556 L 151.7 37.2 L 151.81999998092653 36.91999998092651 L 152.1 36.2 L 152.1237991333008 36.211135387420654 L 152.6 35.1 L 163.0 41.3 L 164.9 44.3 L 160.93142566680908 44.778965854644774 L 160.8 45.0 L 158.4 48.6 L 155.8 52.0 L 153.1 55.3 L 150.3 58.4 L 147.2 61.3 L 144.1 64.1 L 140.7 66.6 L 137.1 68.9 L 133.6714285850525 70.9 L 170.0 70.9 L 170.45806455612183 70.51827955245972 L 170.7 69.9 L 170.99863481521606 70.06780433654785 L 176.0 65.9 L 187.0 74.9 L 182.0 77.9 L 178.29032258987428 79.44569892883301 L 177.7 80.2 L 175.7 82.6 L 173.5 85.1 L 171.2 87.7 L 168.6 90.4 L 165.9 93.2 L 163.0 96.1 L 159.8 99.0 L 156.7 102.2 L 155.2 101.1 L 157.5 97.2 L 159.5 93.4 L 161.3 89.8 L 163.1 86.4 L 167.6 77.4 L 168.7111110687256 74.9 L 33.24285717010498 74.9 L 33.3 78.1 L 33.0 83.2 L 32.2 88.0 L 31.1 92.5 L 29.5 96.7 L 27.5 100.4 L 24.9 103.8 L 21.8 106.7 L 17.3 107.6 Z M 51.0 60.3 L 50.0 58.1 L 48.7 55.8 L 47.2 53.5 L 45.4 51.1 L 43.3 48.6 L 41.0 46.1 L 38.4 43.4 L 35.4 41.1 L 36.3 39.5 L 39.8 41.2 L 43.4 42.6 L 46.7 44.3 L 49.8 46.1 L 52.6 48.1 L 55.2 50.2 L 57.6 52.4 L 59.8 54.8 L 61.7 57.4 L 63.4 60.1 L 63.3 64.7 L 60.1 67.9 L 55.5 67.8 L 52.3 64.6 L 51.7 62.5 Z M 97.2 54.9 L 96.4 52.9 L 95.5 50.8 L 94.5 48.8 L 93.4 46.7 L 92.1 44.6 L 90.7 42.5 L 89.2 40.3 L 87.2 38.5 L 88.3 37.0 L 90.7 38.4 L 93.2 39.6 L 95.7 40.9 L 98.0 42.4 L 100.2 44.0 L 102.2 45.8 L 104.2 47.7 L 106.0 49.7 L 107.7 51.9 L 109.2 54.1 L 109.3 58.7 L 106.2 62.0 L 101.6 62.1 L 98.3 59.0 L 97.8 56.9 Z M 165.97788019180297 14.650460815429687 L 176.5 23.3 L 176.8 26.3 L 172.4137188911438 24.19698848724365 L 168.3 25.1 L 154.5 27.6 L 140.6 29.8 L 126.5 31.7 L 112.2 33.3 L 97.6 34.5 L 82.9 35.4 L 68.0 35.9 L 52.8 36.0 L 37.5 35.7 L 22.0 34.9 L 22.0 33.1 L 37.4 31.9 L 52.6 30.7 L 67.6 29.3 L 82.3 27.8 L 96.8 26.0 L 111.0 24.0 L 125.0 21.8 L 138.8 19.2 L 152.4 16.4 L 164.70747480392455 13.623877906799317 L 164.7 13.6 L 164.72440242767334 13.620059585571289 L 165.7 13.4 Z " />
</g>
</svg>
