<svg xmlns="http://www.w3.org/2000/svg" xmlns:xlink="http://www.w3.org/1999/xlink" version="1.1" baseProfile="full" viewBox="0 0 200 200" width="200" height="200">
<g fill="black">
<path d="M 128.6 181.4 L 126.7 182.7 L 124.6 183.8 L 122.5 184.8 L 120.3 185.6 L 118.0 186.2 L 115.7 186.6 L 113.3 186.9 L 111.0 187.0 L 111.0 181.0 L 91.0 178.0 L 91.0 175.0 L 111.0 175.0 L 112.5 174.9 L 114.0 174.7 L 115.4 174.5 L 116.7 174.1 L 118.0 173.6 L 119.2 173.1 L 120.5 172.4 L 121.7 171.6 L 122.8 170.7 L 124.0 169.7 L 127.9 165.3 L 131.8 159.9 L 135.5 153.4 L 139.2 145.8 L 142.6 137.1 L 145.9 127.4 L 149.0 116.6 L 151.9 104.8 L 154.6 91.9 L 156.4820143699646 81.0 L 50.64576272964477 81.0 L 44.4 94.2 L 31.0 94.4 L 68.0 16.5 L 77.9 23.4 L 79.8 26.5 L 76.1098503112793 27.183361053466797 L 52.5384181022644 77.0 L 157.0 77.0 L 163.0 72.0 L 174.0 81.0 L 169.0 84.0 L 168.08524589538575 84.38114757537842 L 166.3 94.2 L 163.6 107.4 L 160.6 119.7 L 157.4 131.0 L 153.9 141.3 L 150.2 150.6 L 146.2 159.0 L 141.9 166.4 L 137.3 172.8 L 132.3 178.3 L 130.5 179.9 Z " />
</g>
</svg>
