<svg xmlns="http://www.w3.org/2000/svg" xmlns:xlink="http://www.w3.org/1999/xlink" version="1.1" baseProfile="full" viewBox="0 0 200 200" width="200" height="200">
<g fill="black">
<path d="M 84.7 161.4 L 84.9 165.0 L 81.32992067337037 163.47941064834595 L 80.0 164.3 L 74.8 167.1 L 69.1 169.9 L 62.9 172.7 L 56.3 175.4 L 49.1 178.0 L 41.4 180.6 L 33.3 183.1 L 24.5 185.5 L 15.2 187.6 L 14.7 185.9 L 23.3 181.9 L 31.4 178.1 L 39.0 174.5 L 46.1 171.0 L 52.7 167.6 L 58.8 164.3 L 64.3 161.1 L 69.3 157.9 L 73.7 154.7 L 76.8080080986023 152.30922451019288 L 76.8 152.3 L 77.6 151.7 Z M 162.0 179.9 L 157.7 177.0 L 152.8 174.1 L 147.3 171.2 L 141.2 168.4 L 134.4 165.6 L 127.1 162.9 L 119.2 160.0 L 110.7 157.0 L 111.1 155.3 L 120.1 156.3 L 128.5 157.7 L 136.4 159.4 L 143.7 161.3 L 150.5 163.4 L 156.8 165.7 L 162.5 168.2 L 167.8 170.9 L 172.6 173.8 L 176.8 177.0 L 178.7 181.2 L 177.2 185.5 L 173.0 187.3 L 168.7 185.8 L 165.7 182.9 Z M 56.0 68.2 L 144.0 68.2 L 150.0 63.2 L 161.0 72.2 L 156.0 76.2 L 156.0 146.8 L 144.0 152.8 L 144.0 144.8 L 56.0 144.8 L 56.0 151.8 L 44.0 157.8 L 44.0 62.2 Z M 56.0 120.6 L 56.0 140.8 L 144.0 140.8 L 144.0 120.6 Z M 56.0 96.4 L 56.0 116.6 L 144.0 116.6 L 144.0 96.4 Z M 56.0 72.2 L 56.0 92.4 L 144.0 92.4 L 144.0 72.2 Z M 106.0 16.0 L 109.0 18.0 L 106.0 19.8 L 106.0 68.0 L 94.0 68.0 L 94.0 14.0 Z M 172.6 27.8 L 173.5 31.3 L 169.64316234588622 30.488034152984618 L 169.3 30.8 L 165.6 34.0 L 161.6 37.2 L 157.2 40.6 L 152.5 44.1 L 147.5 47.7 L 142.1 51.4 L 136.3 55.2 L 130.1 58.9 L 123.5 62.7 L 122.4 61.2 L 127.8 55.9 L 133.0 50.9 L 138.0 46.3 L 142.7 41.9 L 147.0 37.6 L 151.1 33.6 L 154.8 29.8 L 158.2 26.2 L 161.2 22.8 L 163.2653685569763 20.352155780792238 L 163.2 20.3 L 164.2 19.2 Z M 57.0 50.3 L 54.0 46.3 L 50.8 42.6 L 47.3 38.9 L 43.6 35.4 L 39.7 32.0 L 35.5 28.8 L 31.1 25.5 L 26.5 22.2 L 27.2 20.5 L 32.8 22.1 L 38.2 24.1 L 43.3 26.5 L 48.1 29.3 L 52.8 32.4 L 57.2 35.8 L 61.3 39.5 L 65.3 43.5 L 68.9 47.7 L 72.4 52.2 L 73.1 56.7 L 70.6 60.5 L 66.1 61.2 L 62.3 58.7 L 59.7 54.4 Z " />
</g>
</svg>
