<svg xmlns="http://www.w3.org/2000/svg" xmlns:xlink="http://www.w3.org/1999/xlink" version="1.1" baseProfile="full" viewBox="0 0 200 200" width="200" height="200">
<g fill="black">
<path d="M 137.0 161.0 L 151.0 161.0 L 152.2 160.9 L 153.1 160.7 L 154.0 160.4 L 154.4 160.0 L 154.7 159.1 L 154.9 158.2 L 155.0 157.0 L 155.0 106.0 L 106.0 106.0 L 106.0 184.0 L 94.0 190.0 L 94.0 106.0 L 47.0 106.0 L 47.0 168.0 L 35.0 174.0 L 35.0 96.0 L 47.0 102.0 L 94.0 102.0 L 94.0 74.0 L 12.0 74.0 L 12.0 70.0 L 94.0 70.0 L 94.0 44.0 L 20.0 44.0 L 20.0 40.0 L 94.0 40.0 L 94.0 11.0 L 106.0 13.0 L 109.0 15.0 L 106.0 16.8 L 106.0 40.0 L 158.0 40.0 L 168.0 30.0 L 180.0 40.0 L 180.0 44.0 L 106.0 44.0 L 106.0 70.0 L 168.0 70.0 L 178.0 60.0 L 190.0 70.0 L 190.0 74.0 L 106.0 74.0 L 106.0 102.0 L 155.0 102.0 L 161.0 97.0 L 172.0 106.0 L 167.0 110.0 L 167.0 157.0 L 166.8 159.5 L 166.4 162.0 L 165.6 164.4 L 164.3 166.7 L 162.7 168.7 L 160.7 170.3 L 158.4 171.6 L 156.0 172.4 L 153.5 172.8 L 151.0 173.0 L 151.0 167.0 L 137.0 164.0 Z " />
</g>
</svg>
