<svg xmlns="http://www.w3.org/2000/svg" xmlns:xlink="http://www.w3.org/1999/xlink" version="1.1" baseProfile="full" viewBox="0 0 200 200" width="200" height="200">
<g fill="black">
<path d="M 104.8 110.7 L 110.8 120.2 L 117.2 129.2 L 124.1 137.5 L 129.45077695846558 143.14397020339965 L 135.2 136.8 L 143.9 127.5 L 146.8 124.5 L 149.7 121.4 L 152.5 118.4 L 155.3 115.3 L 157.4756986618042 112.96889429092407 L 157.4 112.9 L 158.3 112.0 L 166.3 121.0 L 166.9 124.6 L 163.10645160675048 123.51612901687622 L 163.0 123.6 L 156.2 128.8 L 152.7 131.3 L 149.1 133.7 L 145.6 136.1 L 141.9 138.4 L 138.2 140.6 L 134.3 142.6 L 130.77952451705931 144.54552593231202 L 131.4 145.2 L 139.4 152.3 L 147.8 158.9 L 156.9 164.8 L 166.5 170.2 L 176.7 175.0 L 182.5 177.7 L 171.2 186.9 L 160.4 181.1 L 150.4 174.7 L 141.1 167.6 L 132.5 159.9 L 124.6 151.6 L 117.5 142.7 L 111.2 133.3 L 105.7 123.2 L 101.1 112.5 L 97.75486726760865 102.0 L 69.0 102.0 L 69.0 162.11000003814698 L 77.1 160.4 L 86.2 158.5 L 95.3 156.8 L 104.5 155.3 L 113.7 154.1 L 114.2 155.8 L 105.4 159.0 L 96.6 162.0 L 87.9 164.9 L 61.5 173.3 L 52.8 176.0 L 44.0 178.8 L 30.461462783813477 183.15723037719727 L 29.3 186.8 L 26.6 184.4 L 21.3 173.5 L 23.2 172.9 L 32.2 170.7 L 41.1 168.5 L 57.0 164.78999996185303 L 57.0 102.0 L 26.0 102.0 L 26.0 98.0 L 68.0 98.0 L 68.0 54.0 L 33.0 54.0 L 33.0 50.0 L 68.0 50.0 L 68.0 19.0 L 80.0 21.0 L 83.0 23.0 L 80.0 24.8 L 80.0 50.0 L 120.0 50.0 L 120.0 19.0 L 132.0 21.0 L 135.0 23.0 L 132.0 24.8 L 132.0 50.0 L 153.0 50.0 L 163.0 40.0 L 175.0 50.0 L 175.0 54.0 L 132.0 54.0 L 132.0 98.0 L 158.0 98.0 L 168.0 88.0 L 180.0 98.0 L 180.0 102.0 L 99.9762375831604 102.0 Z M 80.0 54.0 L 80.0 98.0 L 120.0 98.0 L 120.0 54.0 Z " />
</g>
</svg>
