<svg xmlns="http://www.w3.org/2000/svg" xmlns:xlink="http://www.w3.org/1999/xlink" version="1.1" baseProfile="full" viewBox="0 0 200 200" width="200" height="200">
<g fill="black">
<path d="M 19.3 183.4 L 18.9 178.8 L 21.7 175.2 L 24.5 173.8 L 27.2 172.1 L 29.7 169.9 L 32.0 167.2 L 34.1 164.1 L 36.1 160.5 L 37.9 156.4 L 39.4 151.7 L 40.9 146.6 L 42.0 140.9 L 43.8 141.0 L 44.2 146.9 L 44.3 152.5 L 43.9 157.8 L 42.9 162.9 L 41.6 167.6 L 39.7 171.9 L 37.4 176.0 L 34.6 179.7 L 31.2 182.9 L 27.5 185.8 L 22.9 186.2 Z M 168.5 173.7 L 167.1 170.1 L 165.3 166.4 L 163.1 162.7 L 160.6 158.8 L 157.7 154.9 L 154.5 150.8 L 151.0 146.6 L 147.2 142.3 L 148.3 140.9 L 153.4 143.9 L 158.1 147.1 L 162.3 150.5 L 166.2 154.0 L 169.8 157.6 L 172.9 161.4 L 175.8 165.2 L 178.2 169.2 L 180.3 173.3 L 181.9 177.5 L 181.3 182.0 L 177.7 184.8 L 173.2 184.2 L 170.4 180.6 L 169.6 177.2 Z M 121.2 171.3 L 120.6 168.0 L 119.6 164.8 L 118.4 161.4 L 116.7 157.9 L 114.8 154.4 L 112.6 150.8 L 110.1 147.0 L 107.1 143.3 L 108.3 141.9 L 112.3 144.8 L 116.1 147.6 L 119.5 150.7 L 122.6 154.0 L 125.3 157.4 L 127.7 160.9 L 129.7 164.6 L 131.4 168.4 L 132.7 172.3 L 133.6 176.4 L 132.2 180.7 L 128.2 182.9 L 123.9 181.5 L 121.7 177.5 L 121.6 174.4 Z M 80.7 182.9 L 76.7 180.7 L 75.3 176.4 L 75.8 173.3 L 76.1 170.2 L 76.1 167.1 L 75.9 163.9 L 75.5 160.7 L 74.7 157.4 L 73.7 154.0 L 72.4 150.5 L 70.9 146.8 L 68.9 143.3 L 70.3 142.1 L 73.3 145.1 L 76.2 148.1 L 78.8 151.3 L 81.0 154.6 L 82.9 158.1 L 84.5 161.8 L 85.7 165.6 L 86.5 169.4 L 87.1 173.4 L 87.2 177.5 L 85.0 181.5 Z M 171.4 125.7 L 171.0 121.8 L 170.3 117.7 L 170.2223253250122 117.36599903106689 L 165.3 119.1 L 156.9 121.8 L 148.8 124.2 L 141.2 126.5 L 134.0 128.5 L 127.2 130.5 L 120.8 132.2 L 114.8 133.9 L 109.2 135.4 L 108.05391387939453 135.69213962554932 L 106.6 139.3 L 104.1 136.7 L 99.7 125.4 L 101.6 125.0 L 106.9 124.2 L 112.6 123.4 L 118.05301332473755 122.50606336593628 L 120.4 118.5 L 126.1 108.9 L 131.7 99.7 L 137.1 90.8 L 142.4 82.3 L 147.4 74.0 L 152.3 66.1 L 156.9 58.4 L 161.2 51.0 L 164.85184211730956 44.82664785385132 L 164.8 44.8 L 165.9 43.1 L 175.5 50.3 L 177.0 53.6 L 173.29567794799806 53.53613233566284 L 170.8 57.2 L 165.9 64.2 L 160.6 71.6 L 155.2 79.2 L 149.4 87.0 L 143.4 95.1 L 137.1 103.4 L 130.5 111.9 L 123.5 120.6 L 122.47219467163086 121.8196623802185 L 125.2 121.4 L 132.2 120.3 L 139.6 119.1 L 147.4 117.8 L 155.7 116.6 L 164.4 115.4 L 169.62148942947388 114.78240451812744 L 169.3 113.4 L 168.1 108.8 L 166.6 104.0 L 163.1 93.5 L 161.1 87.9 L 162.7 87.0 L 166.3 91.8 L 169.6 96.6 L 172.5 101.4 L 175.0 106.0 L 177.2 110.6 L 179.1 115.1 L 180.7 119.5 L 181.9 123.7 L 182.9 127.9 L 183.6 132.0 L 182.0 136.3 L 177.8 138.3 L 173.6 136.7 L 171.6 132.6 L 171.6 129.2 Z M 85.6 122.5 L 85.1 119.1 L 84.3 115.4 L 83.58277683258056 112.7919156074524 L 78.2 115.2 L 70.8 118.4 L 63.7 121.2 L 56.9 123.8 L 50.3 126.3 L 44.0 128.6 L 38.1 130.8 L 32.4 132.9 L 27.0 134.8 L 25.88136405944824 135.19481267929078 L 24.7 138.9 L 21.9 136.6 L 16.7 125.6 L 18.6 125.0 L 23.8 123.8 L 29.4 122.6 L 32.177687072753905 121.92952384948731 L 35.4 117.2 L 41.5 108.4 L 47.6 99.8 L 53.5 91.4 L 59.2 83.1 L 64.7 75.0 L 70.1 67.0 L 75.2 59.2 L 80.1 51.4 L 84.23258504867553 44.71752214431763 L 84.2 44.7 L 85.3 43.0 L 94.8 50.4 L 96.2 53.7 L 92.52719421386719 53.57335147857666 L 89.5 57.8 L 84.0 65.3 L 78.2 72.9 L 72.2 80.5 L 66.0 88.2 L 59.5 96.0 L 52.8 103.9 L 45.7 111.8 L 38.3 119.6 L 37.19760932922363 120.71670742034912 L 41.4 119.7 L 47.8 118.2 L 54.6 116.6 L 61.8 114.9 L 69.2 113.2 L 77.1 111.6 L 82.95132446289062 110.52963571548462 L 82.0 107.2 L 80.4 102.8 L 78.7 98.1 L 76.9 93.1 L 74.7 87.9 L 76.3 86.9 L 79.8 91.4 L 83.1 95.7 L 86.0 100.0 L 88.6 104.2 L 90.8 108.3 L 92.8 112.3 L 94.5 116.2 L 96.0 120.1 L 97.1 123.8 L 97.9 127.5 L 96.6 131.8 L 92.6 134.1 L 88.2 132.7 L 86.0 128.7 L 85.9 125.7 Z M 41.0 78.5 L 39.0 75.0 L 36.7 71.4 L 34.1 67.9 L 31.3 64.4 L 28.3 60.8 L 25.0 57.2 L 21.5 53.5 L 17.7 49.7 L 18.7 48.2 L 23.6 50.6 L 28.2 53.2 L 32.00459632873535 55.765890502929686 L 34.2 51.8 L 37.2 46.5 L 40.2 41.6 L 42.9 36.9 L 45.5 32.4 L 47.8 28.2 L 49.9 24.2 L 51.8 20.5 L 53.4 17.0 L 54.4009708404541 14.6405686378479 L 54.3 14.6 L 55.3 12.6 L 65.5 19.1 L 67.2 22.3 L 63.35394458770752 22.56524524688721 L 61.0 25.9 L 58.4 29.6 L 55.6 33.3 L 52.5 37.2 L 49.1 41.3 L 45.5 45.5 L 41.5 49.7 L 37.2 54.1 L 33.92334384918213 57.167507839202884 L 36.5 59.1 L 40.2 62.3 L 43.7 65.6 L 46.9 69.0 L 49.9 72.6 L 52.6 76.3 L 55.0 80.1 L 55.3 84.7 L 52.3 88.2 L 47.8 88.4 L 44.3 85.5 L 42.8 82.0 Z M 125.9 77.2 L 124.0 74.0 L 121.9 70.7 L 119.4 67.4 L 116.7 64.0 L 113.7 60.6 L 110.4 57.1 L 106.9 53.4 L 103.1 49.7 L 104.2 48.2 L 109.0 50.7 L 113.5 53.2 L 117.45149459838868 55.6811710357666 L 119.6 51.8 L 122.7 46.5 L 125.6 41.6 L 128.3 36.9 L 130.9 32.4 L 133.2 28.2 L 135.3 24.2 L 137.2 20.5 L 138.8 17.0 L 139.81551361083984 14.606289291381836 L 139.8 14.6 L 139.91999998092652 14.360000038146973 L 140.2 13.7 L 140.23992538452148 13.72014923095703 L 140.8 12.6 L 150.9 19.1 L 152.7 22.3 L 148.74882726669313 22.5724946975708 L 146.4 25.9 L 143.8 29.6 L 141.0 33.3 L 137.9 37.2 L 134.5 41.3 L 130.9 45.5 L 127.0 49.7 L 122.6 54.1 L 119.40357255935669 57.09240016937256 L 121.7 58.8 L 125.3 61.7 L 128.7 64.8 L 131.8 67.9 L 134.6 71.2 L 137.2 74.5 L 139.5 78.0 L 139.8 82.6 L 136.8 86.0 L 132.3 86.3 L 128.8 83.4 L 127.5 80.3 Z " />
</g>
</svg>
