<svg xmlns="http://www.w3.org/2000/svg" xmlns:xlink="http://www.w3.org/1999/xlink" version="1.1" baseProfile="full" viewBox="0 0 200 200" width="200" height="200">
<g fill="black">
<path d="M 94.0 16.0 L 97.0 18.0 L 94.0 19.8 L 94.0 39.0 L 140.0 39.0 L 146.0 34.0 L 157.0 43.0 L 152.0 47.0 L 152.0 67.0 L 165.0 67.0 L 175.0 57.0 L 187.0 67.0 L 187.0 71.0 L 152.0 71.0 L 152.0 102.0 L 140.0 108.0 L 140.0 98.0 L 94.0 98.0 L 94.0 123.0 L 140.0 123.0 L 146.0 118.0 L 157.0 127.0 L 152.0 131.0 L 152.0 176.0 L 140.0 182.0 L 140.0 170.0 L 43.0 170.0 L 43.0 182.0 L 31.0 188.0 L 31.0 117.0 L 43.0 123.0 L 82.0 123.0 L 82.0 98.0 L 27.0 98.0 L 27.0 94.0 L 82.0 94.0 L 82.0 71.0 L 14.0 71.0 L 14.0 67.0 L 82.0 67.0 L 82.0 43.0 L 27.0 43.0 L 27.0 39.0 L 82.0 39.0 L 82.0 14.0 Z M 43.0 166.0 L 140.0 166.0 L 140.0 127.0 L 43.0 127.0 Z M 94.0 71.0 L 94.0 94.0 L 140.0 94.0 L 140.0 71.0 Z M 94.0 43.0 L 94.0 67.0 L 140.0 67.0 L 140.0 43.0 Z " />
</g>
</svg>
