<svg xmlns="http://www.w3.org/2000/svg" xmlns:xlink="http://www.w3.org/1999/xlink" version="1.1" baseProfile="full" viewBox="0 0 200 200" width="200" height="200">
<g fill="black">
<path d="M 148.6 181.2 L 144.4 183.0 L 142.3 183.7 L 140.1 184.3 L 137.8 184.8 L 135.6 185.1 L 133.3 185.3 L 131.0 185.3 L 131.0 179.3 L 111.0 176.3 L 111.0 173.3 L 132.6 173.3 L 134.2 173.2 L 135.8 172.9 L 137.3 172.6 L 138.8 172.2 L 140.3 171.7 L 141.7 171.1 L 143.2 170.5 L 144.6 169.7 L 146.0 168.8 L 148.0 167.2 L 149.9 165.1 L 151.7 162.5 L 153.4 159.3 L 154.8 155.4 L 156.1 151.0 L 157.2 145.9 L 158.0 140.2 L 158.6 133.9 L 158.87058820724488 129.3 L 104.725 129.3 L 99.2 139.5 L 91.4 150.3 L 82.4 159.8 L 72.1 168.1 L 60.6 175.0 L 47.9 180.7 L 34.1 184.9 L 19.1 187.8 L 18.8 186.0 L 33.0 181.3 L 45.8 175.7 L 57.3 169.3 L 67.5 162.0 L 76.4 153.8 L 84.1 144.6 L 90.6 134.4 L 92.98918914794922 129.3 L 30.0 129.3 L 30.0 125.3 L 94.86306304931641 125.3 L 95.8 123.3 L 99.9 111.1 L 102.78292684555053 98.31902437210083 L 103.2 95.9 L 114.7 100.1 L 117.2 102.6 L 113.66788988113403 103.88440370559692 L 110.8 114.4 L 106.55648851394653 125.3 L 159.0 125.3 L 165.0 120.3 L 176.0 129.3 L 171.0 132.3 L 170.69621992111206 132.42657499313356 L 170.6 134.8 L 170.0 141.6 L 169.0 148.0 L 167.8 153.9 L 166.2 159.3 L 164.3 164.2 L 162.0 168.6 L 159.3 172.6 L 156.2 176.0 L 152.6 178.8 L 150.6 180.1 Z M 146.1 102.9 L 131.8 97.7 L 118.5 91.8 L 106.3 85.2 L 100.82440013885498 81.59892978668213 L 100.4 81.9 L 87.9 89.5 L 74.5 96.3 L 60.2 102.4 L 45.1 107.7 L 29.0 112.1 L 12.2 115.7 L 11.7 113.9 L 28.0 108.5 L 43.2 102.7 L 57.6 96.4 L 71.0 89.6 L 83.5 82.2 L 92.73672304153442 75.90947313308716 L 85.3 69.9 L 76.5 61.3 L 68.9 51.9 L 63.50842361450195 43.06135025024414 L 60.3 46.9 L 54.2 53.3 L 47.6 59.4 L 40.6 65.1 L 33.1 70.5 L 25.0 75.4 L 16.4 79.9 L 15.5 78.4 L 22.8 72.3 L 29.8 66.3 L 36.3 60.2 L 42.4 53.9 L 48.0 47.6 L 53.1 41.0 L 57.8 34.3 L 62.0 27.5 L 65.8 20.4 L 68.88000001907349 13.680000019073486 L 69.6 12.0 L 80.0 18.3 L 81.8 21.3 L 78.13243503570557 21.67940330505371 L 75.8 25.9 L 71.1 33.2 L 67.08857145309449 38.6 L 158.0 38.6 L 168.0 28.6 L 180.0 38.6 L 180.0 42.6 L 143.04285717010498 42.6 L 141.8 44.1 L 132.8 54.7 L 122.9 64.5 L 112.1 73.6 L 108.83329181671142 75.91740837097169 L 110.8 77.0 L 122.8 82.5 L 135.6 87.4 L 149.5 91.6 L 164.3 95.3 L 180.2 98.4 L 189.5 100.2 L 177.7 111.4 L 161.4 107.5 Z M 65.87857141494752 42.6 L 72.1 49.3 L 80.6 57.1 L 89.8 64.3 L 99.5252820968628 70.75142478942871 L 105.7 65.8 L 115.4 56.8 L 124.2 47.1 L 127.6615385055542 42.6 Z " />
</g>
</svg>
