<svg xmlns="http://www.w3.org/2000/svg" xmlns:xlink="http://www.w3.org/1999/xlink" version="1.1" baseProfile="full" viewBox="0 0 200 200" width="200" height="200">
<g fill="black">
<path d="M 132.5 103.5 L 130.4 104.3 L 128.3 105.0 L 126.1 105.6 L 123.9 106.1 L 121.7 106.5 L 119.5 106.7 L 117.2 106.9 L 115.0 107.0 L 115.0 101.0 L 101.0 98.0 L 101.0 95.0 L 115.0 95.0 L 116.7 94.9 L 118.3 94.8 L 120.0 94.6 L 123.2 94.0 L 126.4 93.0 L 128.0 92.4 L 129.5 91.8 L 131.0 91.0 L 131.7 90.5 L 132.8 88.7 L 134.2 85.6 L 135.4 81.1 L 136.5 75.4 L 137.3 68.4 L 137.9 60.3 L 138.2 51.1 L 138.2 40.7 L 138.16947221755981 38.929386615753174 L 138.0 39.0 L 138.0 31.0 L 61.0 31.0 L 61.0 178.0 L 49.0 184.0 L 49.0 21.0 L 61.0 27.0 L 138.0 27.0 L 144.0 22.0 L 155.0 31.0 L 150.03282823562623 33.98030300140381 L 150.2 40.5 L 150.2 51.3 L 149.9 60.9 L 149.3 69.6 L 148.3 77.2 L 147.1 83.8 L 145.5 89.5 L 143.4 94.4 L 140.5 98.5 L 136.6 101.6 L 134.6 102.6 Z " />
</g>
</svg>
