<svg xmlns="http://www.w3.org/2000/svg" xmlns:xlink="http://www.w3.org/1999/xlink" version="1.1" baseProfile="full" viewBox="0 0 200 200" width="200" height="200">
<g fill="black">
<path d="M 160.0 25.0 L 163.0 27.0 L 160.0 28.8 L 160.0 111.0 L 158.8 122.1 L 156.0 132.6 L 151.6 142.4 L 145.5 151.5 L 138.0 159.7 L 128.9 167.1 L 118.4 173.7 L 106.5 179.6 L 93.1 184.6 L 78.2 188.8 L 77.7 187.1 L 91.7 181.1 L 104.1 174.8 L 115.0 168.1 L 124.3 161.1 L 131.9 153.7 L 138.0 146.0 L 142.6 137.8 L 145.8 129.3 L 147.6 120.4 L 148.0 111.0 L 148.0 23.0 Z M 55.0 41.0 L 58.0 43.0 L 55.0 44.8 L 55.0 128.0 L 43.0 134.0 L 43.0 39.0 Z " />
</g>
</svg>
