<svg xmlns="http://www.w3.org/2000/svg" xmlns:xlink="http://www.w3.org/1999/xlink" version="1.1" baseProfile="full" viewBox="0 0 200 200" width="200" height="200">
<g fill="black">
<path d="M 14.0 166.0 L 94.0 166.0 L 94.0 71.0 L 32.0 71.0 L 32.0 67.0 L 94.0 67.0 L 94.0 16.0 L 106.0 18.0 L 109.0 20.0 L 106.0 21.8 L 106.0 67.0 L 146.0 67.0 L 156.0 57.0 L 168.0 67.0 L 168.0 71.0 L 106.0 71.0 L 106.0 166.0 L 164.0 166.0 L 174.0 156.0 L 186.0 166.0 L 186.0 170.0 L 14.0 170.0 Z M 157.2 87.0 L 159.2 90.0 L 155.55897436141967 90.56498670578003 L 154.3 93.3 L 151.2 99.8 L 148.0 106.5 L 144.7 113.2 L 141.2 120.2 L 137.6 127.2 L 133.8 134.4 L 129.7 141.7 L 125.4 149.0 L 120.8 156.5 L 119.1 155.7 L 122.0 147.4 L 124.9 139.4 L 127.8 131.6 L 130.7 124.1 L 133.5 116.7 L 136.2 109.5 L 138.8 102.5 L 141.3 95.7 L 143.7 89.0 L 145.6417016029358 83.51258239746093 L 145.6 83.5 L 146.5 81.2 Z M 60.8 128.8 L 59.2 122.3 L 57.5 116.0 L 55.5 110.0 L 53.4 104.2 L 51.2 98.6 L 46.4 88.0 L 43.8 82.9 L 45.3 81.8 L 49.5 85.9 L 53.4 90.5 L 57.0 95.5 L 60.3 100.9 L 63.4 106.7 L 66.2 112.8 L 68.8 119.2 L 71.2 125.9 L 73.3 133.0 L 75.2 140.3 L 74.3 144.8 L 70.5 147.4 L 66.1 146.4 L 63.5 142.7 L 62.2 135.6 Z " />
</g>
</svg>
