<svg xmlns="http://www.w3.org/2000/svg" xmlns:xlink="http://www.w3.org/1999/xlink" version="1.1" baseProfile="full" viewBox="0 0 200 200" width="200" height="200">
<g fill="black">
<path d="M 20.9 178.8 L 19.1 174.6 L 20.7 170.3 L 23.4 167.5 L 26.0 163.9 L 28.4 159.6 L 30.6 154.6 L 32.6 148.9 L 34.3 142.5 L 35.8 135.3 L 37.0 127.5 L 38.1 118.9 L 39.1 109.7 L 40.9 109.7 L 41.9 119.0 L 42.4 127.8 L 42.3 136.0 L 41.8 143.7 L 40.9 150.8 L 39.5 157.4 L 37.7 163.5 L 35.4 169.0 L 32.7 174.1 L 29.4 178.6 L 25.2 180.4 Z M 162.0 178.4 L 160.4 180.4 L 158.7 182.1 L 156.7 183.6 L 154.6 184.9 L 152.3 185.8 L 149.9 186.5 L 147.5 186.8 L 145.0 187.0 L 145.0 181.0 L 125.0 178.0 L 125.0 175.0 L 145.0 175.0 L 146.3 174.9 L 147.5 174.7 L 148.5 174.4 L 149.3 174.1 L 150.1 173.7 L 150.8 173.1 L 151.4 172.5 L 152.1 171.6 L 152.7 170.6 L 153.3 169.4 L 155.2 164.1 L 157.0 158.2 L 158.6 151.7 L 160.0 144.4 L 161.2 136.6 L 162.2 128.1 L 163.0 119.0 L 163.5 109.3 L 163.8 98.9 L 163.9633027076721 90.0 L 55.73636360168457 90.0 L 55.4 93.5 L 42.9 98.3 L 51.1 13.4 L 62.8 16.5 L 65.6 18.8 L 62.4728925704956 19.903684997558592 L 59.38831167221069 52.0 L 144.0 52.0 L 154.0 42.0 L 166.0 52.0 L 166.0 56.0 L 59.003896141052245 56.0 L 56.12077922821045 86.0 L 164.0 86.0 L 170.0 81.0 L 181.0 90.0 L 176.0 93.0 L 175.9100449562073 93.03748121261597 L 175.8 99.2 L 175.5 109.8 L 174.9 119.8 L 174.1 129.3 L 173.1 138.2 L 171.8 146.5 L 170.3 154.2 L 168.6 161.4 L 166.6 168.0 L 164.3 174.0 L 163.3 176.3 Z M 67.7 171.7 L 63.7 169.5 L 62.3 165.1 L 63.0 160.0 L 63.5 154.8 L 63.7 149.6 L 63.8 144.4 L 63.6 139.1 L 63.3 133.8 L 62.8 128.3 L 62.1 122.9 L 61.3 117.2 L 60.4 111.5 L 62.1 110.9 L 64.9 116.1 L 67.2 121.5 L 69.2 127.0 L 70.8 132.5 L 72.1 138.0 L 73.1 143.6 L 73.8 149.3 L 74.2 154.9 L 74.3 160.6 L 74.2 166.3 L 72.0 170.3 Z M 95.8 146.2 L 95.1 141.2 L 94.2 136.4 L 93.1 131.7 L 91.7 127.2 L 90.2 122.8 L 88.6 118.5 L 86.8 114.3 L 84.9 110.0 L 86.3 108.9 L 89.9 112.1 L 93.2 115.8 L 96.1 119.8 L 98.7 124.2 L 101.0 128.8 L 103.1 133.7 L 104.9 138.8 L 106.4 144.2 L 107.6 149.8 L 108.6 155.7 L 107.2 160.0 L 103.2 162.2 L 98.9 160.8 L 96.7 156.8 L 96.4 151.4 Z M 128.3 134.8 L 127.0 130.7 L 125.6 126.7 L 123.9 122.9 L 122.1 119.2 L 120.1 115.6 L 118.0 112.1 L 115.7 108.6 L 113.1 105.3 L 114.3 103.9 L 118.0 106.2 L 121.6 108.8 L 125.0 111.7 L 128.1 115.0 L 131.0 118.6 L 133.6 122.5 L 136.1 126.7 L 138.3 131.1 L 140.2 135.7 L 142.0 140.6 L 141.3 145.1 L 137.7 147.9 L 133.2 147.2 L 130.4 143.6 L 129.4 139.1 Z " />
</g>
</svg>
