<svg xmlns="http://www.w3.org/2000/svg" xmlns:xlink="http://www.w3.org/1999/xlink" version="1.1" baseProfile="full" viewBox="0 0 200 200" width="200" height="200">
<g fill="black">
<path d="M 160.1 111.3 L 151.4 105.1 L 142.8 98.2 L 134.5 90.7 L 126.4 82.5 L 118.6 73.7 L 110.9 64.3 L 103.7 54.2 L 99.31515378952027 47.273213958740236 L 97.9 49.5 L 90.5 60.0 L 82.6 70.0 L 74.2 79.7 L 65.2 89.1 L 55.6 98.1 L 45.4 106.7 L 34.7 114.8 L 23.4 122.5 L 11.5 129.7 L 10.4 128.2 L 21.2 119.5 L 31.4 110.7 L 41.1 101.7 L 50.3 92.6 L 59.0 83.2 L 67.1 73.7 L 74.7 63.8 L 81.8 53.8 L 88.3 43.5 L 93.74349308013916 33.720164966583255 L 93.7 33.7 L 94.8 31.9 L 104.7 38.8 L 106.3 42.0 L 102.62609968185424 42.063343143463136 L 100.8015775680542 44.93428239822388 L 106.9 51.6 L 115.4 60.5 L 123.8 68.8 L 132.2 76.5 L 140.7 83.6 L 149.2 90.1 L 157.7 96.0 L 166.3 101.3 L 175.0 105.9 L 183.7 110.0 L 189.5 112.7 L 178.2 121.9 L 169.0 116.9 Z M 146.0 108.0 L 146.0 112.0 L 53.0 112.0 L 53.0 108.0 L 124.0 108.0 L 134.0 98.0 Z " />
</g>
</svg>
