<svg xmlns="http://www.w3.org/2000/svg" xmlns:xlink="http://www.w3.org/1999/xlink" version="1.1" baseProfile="full" viewBox="0 0 200 200" width="200" height="200">
<g fill="black">
<path d="M 164.5 182.3 L 162.7 183.9 L 160.7 185.2 L 158.6 186.4 L 156.4 187.3 L 154.2 188.0 L 151.8 188.5 L 149.4 188.9 L 147.0 189.0 L 147.0 183.0 L 127.0 180.0 L 127.0 177.0 L 147.0 177.0 L 148.4 176.9 L 149.8 176.7 L 151.1 176.4 L 152.2 176.1 L 153.3 175.6 L 154.4 175.0 L 155.4 174.3 L 156.4 173.5 L 157.4 172.5 L 158.4 171.4 L 159.2 170.0 L 160.2 167.7 L 161.1 164.6 L 161.9 160.7 L 162.5 156.1 L 163.0 150.7 L 163.3 144.6 L 163.4 137.8 L 163.31982078552247 131.86674127578735 L 163.0 132.0 L 163.0 124.0 L 62.0 124.0 L 62.0 136.0 L 50.0 142.0 L 50.0 32.0 L 62.0 38.0 L 85.97241382598877 38.0 L 86.8 36.5 L 89.6 30.5 L 93.8 21.8 L 95.3 19.0 L 96.6 16.2 L 98.0 13.3 L 98.91888885498047 11.46222219467163 L 98.8 11.4 L 99.35 10.6 L 99.4 10.5 L 99.41299867630005 10.508365535736084 L 99.9 9.8 L 109.5 17.0 L 110.9 20.3 L 106.76242036819458 20.228662395477294 L 105.3 21.9 L 103.1 24.4 L 100.9 26.8 L 98.7 29.1 L 96.4 31.5 L 94.0 33.8 L 91.6 36.0 L 89.23636360168457 38.0 L 139.0 38.0 L 145.0 33.0 L 156.0 42.0 L 151.0 46.0 L 151.0 80.0 L 139.0 86.0 L 139.0 76.0 L 62.0 76.0 L 62.0 97.0 L 166.8181818008423 97.0 L 175.0 88.0 L 185.0 97.0 L 185.0 101.0 L 62.0 101.0 L 62.0 120.0 L 163.0 120.0 L 169.0 115.0 L 180.0 124.0 L 175.08741254806517 126.94755249023437 L 175.2 130.1 L 175.4 137.8 L 175.3 145.0 L 175.0 151.5 L 174.4 157.4 L 173.7 162.7 L 172.7 167.5 L 171.5 171.7 L 169.9 175.4 L 167.8 178.7 L 166.2 180.6 Z M 62.0 42.0 L 62.0 72.0 L 139.0 72.0 L 139.0 42.0 Z " />
</g>
</svg>
