<svg xmlns="http://www.w3.org/2000/svg" xmlns:xlink="http://www.w3.org/1999/xlink" version="1.1" baseProfile="full" viewBox="0 0 200 200" width="200" height="200">
<g fill="black">
<path d="M 153.0 175.7 L 143.0 165.2 L 134.7 151.9 L 128.0 135.9 L 122.8 117.3 L 119.0 96.0 L 116.6 72.0 L 116.3761194229126 66.0 L 18.0 66.0 L 18.0 62.0 L 116.22686567306519 62.0 L 115.6 45.2 L 115.9 15.8 L 115.92939014434815 15.800734710693359 L 116.0 13.4 L 127.9 16.1 L 130.8 18.2 L 127.86063966751098 19.90482892990112 L 127.6 45.1 L 128.25 62.0 L 163.0 62.0 L 173.0 52.0 L 185.0 62.0 L 185.0 66.0 L 128.40384616851807 66.0 L 128.6 71.1 L 130.9 94.3 L 134.5 114.6 L 139.4 132.0 L 145.4 146.4 L 152.5 157.9 L 160.7 166.6 L 169.9 172.6 L 173.71613569259642 173.8967451095581 L 179.0 151.0 L 181.0 151.0 L 179.09803495407104 175.7255458831787 L 180.2 176.1 L 183.9 178.7 L 184.8 183.2 L 182.2 186.9 L 177.7 187.8 L 164.6 183.3 Z M 153.6 40.5 L 152.4 38.2 L 150.9 35.9 L 149.1 33.5 L 146.9 31.1 L 144.5 28.7 L 141.8 26.2 L 138.9 23.6 L 135.4 21.2 L 136.2 19.6 L 140.2 21.1 L 144.1 22.5 L 147.7 24.1 L 151.0 25.8 L 154.2 27.7 L 157.0 29.8 L 159.7 32.0 L 162.1 34.4 L 164.2 37.0 L 166.1 39.7 L 166.3 44.3 L 163.2 47.7 L 158.7 47.8 L 155.2 44.8 L 154.6 42.6 Z M 99.0 36.0 L 99.0 40.0 L 30.0 40.0 L 30.0 36.0 L 77.0 36.0 L 87.0 26.0 Z " />
</g>
</svg>
