<svg xmlns="http://www.w3.org/2000/svg" xmlns:xlink="http://www.w3.org/1999/xlink" version="1.1" baseProfile="full" viewBox="0 0 200 200" width="200" height="200">
<g fill="black">
<path d="M 17.6 150.9 L 17.4 146.3 L 20.4 142.9 L 22.2 142.2 L 24.0 141.4 L 25.6 140.2 L 27.2 138.6 L 28.8 136.6 L 30.1 134.2 L 31.4 131.3 L 32.5 128.0 L 33.5 124.2 L 33.9 120.0 L 35.7 119.9 L 36.1 124.2 L 36.4 126.3 L 94.0 126.3 L 94.0 77.0 L 20.0 77.0 L 20.0 73.0 L 94.0 73.0 L 94.0 13.0 L 106.0 15.0 L 109.0 17.0 L 106.0 18.8 L 106.0 73.0 L 158.0 73.0 L 168.0 63.0 L 180.0 73.0 L 180.0 77.0 L 106.0 77.0 L 106.0 126.3 L 167.9 126.3 L 168.75714282989503 125.58571424484253 L 169.2 124.7 L 169.52256298065186 124.94786415100097 L 173.9 121.3 L 184.9 130.3 L 179.9 133.3 L 174.2388235092163 135.65882349014282 L 173.3 136.4 L 171.2 138.0 L 168.9 139.7 L 166.5 141.4 L 163.9 143.2 L 161.2 145.0 L 158.2 146.8 L 155.3 149.0 L 154.1 147.7 L 156.5 145.0 L 158.4 142.1 L 160.2 139.4 L 161.9 136.9 L 163.5 134.5 L 165.0 132.2 L 166.17619047164916 130.3 L 36.74871797561646 130.3 L 36.8 132.3 L 36.5 136.0 L 35.8 139.5 L 34.7 142.9 L 33.1 146.0 L 31.1 148.9 L 28.6 151.5 L 25.6 153.7 L 21.1 153.9 Z " />
</g>
</svg>
