<svg xmlns="http://www.w3.org/2000/svg" xmlns:xlink="http://www.w3.org/1999/xlink" version="1.1" baseProfile="full" viewBox="0 0 200 200" width="200" height="200">
<g fill="black">
<path d="M 144.6 181.1 L 142.7 182.5 L 140.7 183.7 L 138.5 184.7 L 136.3 185.5 L 134.1 186.1 L 131.7 186.6 L 129.4 186.9 L 127.0 187.0 L 127.0 181.0 L 107.0 178.0 L 107.0 175.0 L 127.0 175.0 L 128.5 174.9 L 131.3 174.5 L 132.6 174.1 L 135.0 173.1 L 136.2 172.4 L 137.3 171.6 L 138.5 170.6 L 139.6 169.6 L 142.5 165.8 L 145.5 160.6 L 148.2 154.0 L 150.8 145.9 L 153.1 136.4 L 155.1 125.6 L 156.7 113.4 L 158.1 99.8 L 159.2 84.9 L 159.8864197731018 71.0 L 95.37894735336303 71.0 L 95.3 71.7 L 90.8 95.2 L 84.9 115.7 L 77.6 133.6 L 68.7 149.0 L 58.4 162.0 L 46.7 172.8 L 33.7 181.7 L 19.4 188.8 L 18.5 187.1 L 31.6 178.5 L 43.2 168.8 L 53.4 157.7 L 62.3 144.9 L 69.8 130.0 L 76.1 112.9 L 81.0 93.0 L 84.7 70.2 L 87.0 44.3 L 87.9 14.8 L 87.93028011322022 14.800757026672363 L 88.0 12.5 L 99.9 15.1 L 102.9 17.1 L 99.69617147445679 18.9217848777771 L 98.3 45.1 L 95.83007516860962 67.0 L 160.0 67.0 L 166.0 62.0 L 177.0 71.0 L 172.0 74.0 L 171.68960161209105 74.12933263778686 L 171.2 85.6 L 170.1 100.9 L 168.7 114.8 L 166.9 127.5 L 164.8 138.9 L 162.4 149.1 L 159.5 158.0 L 156.3 165.8 L 152.5 172.5 L 148.2 177.9 L 146.5 179.6 Z " />
</g>
</svg>
