<svg xmlns="http://www.w3.org/2000/svg" xmlns:xlink="http://www.w3.org/1999/xlink" version="1.1" baseProfile="full" viewBox="0 0 200 200" width="200" height="200">
<g fill="black">
<path d="M 13.4 114.8 L 12.7 110.3 L 15.2 106.5 L 17.2 105.4 L 19.2 103.8 L 21.0 101.8 L 22.8 99.2 L 24.5 96.0 L 26.0 92.3 L 27.3 88.0 L 28.4 83.1 L 29.4 77.7 L 30.1 71.8 L 31.9 71.8 L 32.7 77.8 L 33.05087718963623 81.8 L 114.98139533996581 81.8 L 116.3 79.1 L 118.3 74.7 L 120.3 70.6 L 122.2 66.6 L 124.1 62.8 L 125.9 59.0 L 127.6 55.4 L 129.2 51.8 L 130.8 48.4 L 131.81019859313966 45.94666061401367 L 131.7 45.9 L 132.7 44.0 L 142.8 50.6 L 144.5 53.8 L 140.56428575515747 54.00357141494751 L 138.5 57.1 L 136.1 60.3 L 133.6 63.7 L 131.0 67.1 L 128.3 70.5 L 125.4 74.0 L 122.4 77.5 L 119.1 80.9 L 118.25 81.8 L 170.0 81.8 L 170.59310340881348 81.30574712753295 L 170.8 80.8 L 171.03542852401733 80.9371428489685 L 176.0 76.8 L 187.0 85.8 L 182.0 88.8 L 178.09467458724976 90.42721891403198 L 177.6 91.0 L 175.6 93.3 L 173.4 95.7 L 171.1 98.2 L 165.9 103.4 L 163.0 106.1 L 159.8 108.9 L 156.6 112.0 L 155.3 110.9 L 157.6 107.2 L 159.5 103.5 L 161.4 100.0 L 163.2 96.7 L 164.8 93.6 L 166.3 90.7 L 167.7 87.9 L 168.62399997711182 85.8 L 33.24339618682861 85.8 L 33.3 88.8 L 32.9 93.8 L 32.2 98.4 L 31.1 102.8 L 29.5 106.8 L 27.4 110.5 L 24.8 113.7 L 21.7 116.6 L 17.2 117.4 Z M 67.5 70.3 L 66.5 67.1 L 65.3 64.0 L 62.5 58.2 L 60.9 55.4 L 59.2 52.6 L 57.4 49.8 L 55.2 47.3 L 56.3 45.9 L 62.3 49.5 L 65.2 51.6 L 67.8 54.1 L 70.4 56.7 L 72.8 59.6 L 75.0 62.7 L 77.1 66.0 L 79.0 69.5 L 80.7 73.2 L 80.3 77.8 L 76.9 80.8 L 72.3 80.4 L 69.3 77.0 L 68.5 73.6 Z M 25.0 40.0 L 94.0 40.0 L 94.0 12.0 L 106.0 14.0 L 109.0 16.0 L 106.0 17.8 L 106.0 40.0 L 153.0 40.0 L 163.0 30.0 L 175.0 40.0 L 175.0 44.0 L 25.0 44.0 Z " />
</g>
</svg>
