<svg xmlns="http://www.w3.org/2000/svg" xmlns:xlink="http://www.w3.org/1999/xlink" version="1.1" baseProfile="full" viewBox="0 0 200 200" width="200" height="200">
<g fill="black">
<path d="M 70.0 176.6 L 90.0 176.6 L 91.2 176.5 L 92.1 176.3 L 93.0 176.0 L 93.4 175.6 L 93.7 174.7 L 93.9 173.8 L 94.0 172.6 L 94.0 128.8 L 17.0 128.8 L 17.0 124.8 L 161.0 124.8 L 171.0 114.8 L 183.0 124.8 L 183.0 128.8 L 106.0 128.8 L 106.0 172.6 L 105.8 175.1 L 105.4 177.6 L 104.6 180.0 L 103.3 182.3 L 101.7 184.3 L 99.7 185.9 L 97.4 187.2 L 95.0 188.0 L 92.5 188.4 L 90.0 188.6 L 90.0 182.6 L 70.0 179.6 Z M 68.4 146.2 L 69.8 149.5 L 65.88245611190796 149.36491231918336 L 64.9 150.6 L 61.0 154.9 L 56.8 159.1 L 52.2 163.1 L 47.4 167.1 L 42.1 170.8 L 36.5 174.5 L 30.6 178.0 L 24.2 181.2 L 17.4 184.2 L 16.5 182.7 L 22.2 178.0 L 27.5 173.6 L 32.6 169.2 L 37.4 164.9 L 41.8 160.7 L 45.8 156.4 L 49.5 152.2 L 52.8 148.0 L 55.8 143.8 L 57.87825508117676 140.44281883239745 L 57.8 140.4 L 58.9 138.8 Z M 159.2 171.0 L 156.2 167.3 L 152.7 163.6 L 148.9 160.0 L 144.8 156.4 L 140.2 152.9 L 135.3 149.5 L 130.1 146.0 L 124.5 142.4 L 125.2 140.7 L 131.7 142.5 L 137.9 144.7 L 143.6 147.3 L 149.0 150.1 L 154.1 153.2 L 158.8 156.6 L 163.2 160.1 L 167.3 163.9 L 171.0 168.0 L 174.4 172.3 L 175.1 176.8 L 172.6 180.6 L 168.1 181.3 L 164.3 178.8 L 161.9 174.9 Z M 160.0 99.6 L 160.0 103.6 L 40.0 103.6 L 40.0 99.6 L 138.0 99.6 L 148.0 89.6 Z M 28.0 72.6 L 94.0 72.6 L 94.0 43.6 L 16.0 43.6 L 16.0 39.6 L 94.0 39.6 L 94.0 12.5 L 106.0 14.5 L 109.0 16.5 L 106.0 18.3 L 106.0 39.6 L 162.0 39.6 L 172.0 29.6 L 184.0 39.6 L 184.0 43.6 L 106.0 43.6 L 106.0 72.6 L 150.0 72.6 L 160.0 62.6 L 172.0 72.6 L 172.0 76.6 L 28.0 76.6 Z " />
</g>
</svg>
