<svg xmlns="http://www.w3.org/2000/svg" xmlns:xlink="http://www.w3.org/1999/xlink" version="1.1" baseProfile="full" viewBox="0 0 200 200" width="200" height="200">
<g fill="black">
<path d="M 13.8 174.5 L 23.7 170.6 L 33.9 166.5 L 44.5 162.3 L 52.0 159.31388893127442 L 52.0 12.6 L 64.0 14.6 L 67.0 16.6 L 64.0 18.4 L 64.0 154.47297296524047 L 66.4 153.5 L 77.9 148.9 L 89.7 144.2 L 101.8 139.4 L 114.3 134.6 L 127.2 129.9 L 128.0 131.5 L 115.9 138.1 L 104.0 144.3 L 92.4 150.2 L 81.0 155.9 L 69.9 161.3 L 59.0 166.5 L 48.5 171.5 L 38.2 176.4 L 28.2 181.1 L 22.214431858062746 183.8768099784851 L 21.5 187.5 L 18.5 185.6 L 12.0 175.3 Z M 169.1 67.1 L 166.0 60.7 L 162.3 54.5 L 158.0 48.4 L 153.2 42.6 L 147.8 36.9 L 141.9 31.3 L 135.4 25.8 L 128.4 20.3 L 129.3 18.7 L 137.5 22.6 L 145.1 27.0 L 152.1 31.9 L 158.6 37.2 L 164.5 42.9 L 169.8 49.0 L 174.6 55.4 L 178.7 62.3 L 182.3 69.4 L 185.3 76.9 L 184.8 81.5 L 181.4 84.4 L 176.8 83.9 L 173.9 80.5 L 171.8 73.7 Z " />
</g>
</svg>
