<svg xmlns="http://www.w3.org/2000/svg" xmlns:xlink="http://www.w3.org/1999/xlink" version="1.1" baseProfile="full" viewBox="0 0 200 200" width="200" height="200">
<g fill="black">
<path d="M 84.5 79.9 L 83.4 75.3 L 82.2 70.8 L 81.1 66.5 L 79.8 62.2 L 78.5 58.1 L 77.2 54.1 L 76.0 50.2 L 74.7 46.3 L 76.2 45.3 L 79.0 48.5 L 81.7 51.8 L 84.2 55.5 L 86.5 59.3 L 88.7 63.4 L 90.8 67.7 L 92.8 72.1 L 94.6 76.8 L 96.4 81.6 L 98.0 86.6 L 97.3 91.1 L 95.76470584869385 92.29411764144898 L 103.27664670944213 93.54610776901245 L 104.8 88.5 L 108.2 77.9 L 109.8 72.6 L 111.4 67.2 L 113.0 61.9 L 114.5 56.5 L 115.66293334960938 52.014400005340576 L 115.6 52.0 L 116.4 49.5 L 127.4 54.7 L 129.6 57.6 L 125.9483422279358 58.432834243774415 L 125.3 60.1 L 123.1 65.4 L 120.8 70.7 L 118.5 75.9 L 116.1 81.0 L 113.5 86.1 L 110.9 91.1 L 108.34827585220337 95.56551723480224 L 109.0 96.0 L 107.51056337356567 96.8936619758606 L 106.0 99.18387098312378 L 106.0 182.0 L 94.0 188.0 L 94.0 93.66666669845581 L 93.7 93.9 L 89.2 93.1 L 86.4 89.5 L 85.5 84.6 Z M 62.9 177.6 L 61.3 179.4 L 59.5 181.1 L 57.5 182.5 L 55.3 183.7 L 53.1 184.6 L 50.7 185.2 L 48.2 185.6 L 45.7 185.7 L 45.7 179.7 L 31.7 176.7 L 31.7 173.7 L 45.7 173.7 L 47.1 173.6 L 48.3 173.4 L 49.4 173.2 L 50.3 172.8 L 51.9 171.8 L 52.7 171.1 L 53.4 170.3 L 54.1 169.3 L 54.7 168.0 L 56.0 164.7 L 57.3 159.6 L 58.5 152.8 L 59.6 144.4 L 60.5 134.5 L 61.2 123.0 L 61.8 110.1 L 62.2 95.6 L 62.5 79.7 L 62.58857145309448 64.2 L 45.931794834136966 64.2 L 45.3 81.8 L 44.1 99.8 L 42.3 116.2 L 40.0 131.2 L 37.2 144.6 L 33.8 156.5 L 29.8 166.9 L 25.2 175.7 L 20.0 182.7 L 14.2 187.9 L 12.9 186.6 L 16.9 180.5 L 20.4 173.2 L 23.7 164.5 L 26.5 154.5 L 28.9 142.9 L 30.8 129.8 L 32.3 115.2 L 33.3 99.0 L 33.9 81.4 L 33.9 64.2 L 18.5 64.2 L 18.5 60.2 L 62.6 60.2 L 68.6 55.2 L 79.6 64.2 L 74.6 67.2 L 74.57152347564697 67.211865234375 L 74.5 79.8 L 74.2 95.9 L 73.8 110.5 L 73.2 123.7 L 72.5 135.4 L 71.5 145.7 L 70.4 154.6 L 69.0 162.1 L 67.5 168.3 L 65.5 173.3 L 64.3 175.5 Z M 168.2 172.8 L 164.9 164.8 L 163.53604373931884 160.66266613006593 L 161.7 161.9 L 156.9 164.7 L 152.1 167.3 L 147.1 169.8 L 142.2 172.1 L 137.1 174.4 L 126.9 178.6 L 121.8 180.5 L 120.53791160583496 180.96114768981934 L 119.4 184.7 L 116.6 182.4 L 111.3 171.5 L 113.2 170.9 L 118.4 169.7 L 123.6 168.3 L 125.0 167.95 L 125.0 68.0 L 137.0 74.0 L 137.0 75.8731707572937 L 138.9 74.9 L 146.9 70.7 L 154.7 66.3 L 158.6 64.0 L 166.2 59.0 L 169.1303240776062 56.94085330963135 L 169.1 56.9 L 169.13527479171753 56.93737449645996 L 169.9 56.4 L 172.42256269454955 60.42033424377441 L 177.5 65.8 L 177.7 69.2 L 174.0475728034973 67.72621355056762 L 171.9 68.8 L 167.5 70.9 L 163.1 72.8 L 158.6 74.6 L 154.2 76.1 L 153.11799488067626 76.42930593490601 L 156.0 91.8 L 159.0 106.6 L 161.9 120.0 L 165.0 132.1 L 168.2 143.0 L 171.6 152.4 L 175.0 160.6 L 178.6 167.3 L 182.2 172.6 L 185.7 176.4 L 186.9 177.6 L 176.2 185.5 L 171.9 179.7 Z M 149.6 77.5 L 145.1 78.7 L 140.5 79.7 L 137.0 80.22127656936645 L 137.0 164.73461542129516 L 139.2 164.1 L 144.4 162.7 L 149.6 161.2 L 154.9 159.7 L 160.2 158.4 L 162.59966058731078 157.8223039627075 L 161.9 155.7 L 159.2 145.4 L 156.9 134.0 L 154.8 121.3 L 153.1 107.5 L 151.9 92.4 L 151.2426851272583 77.00005235671998 Z M 19.2 40.5 L 94.0 40.5 L 94.0 13.2 L 106.0 15.2 L 109.0 17.2 L 106.0 19.0 L 106.0 40.5 L 158.7 40.5 L 168.7 30.5 L 180.7 40.5 L 180.7 44.5 L 19.2 44.5 Z " />
</g>
</svg>
