<svg xmlns="http://www.w3.org/2000/svg" xmlns:xlink="http://www.w3.org/1999/xlink" version="1.1" baseProfile="full" viewBox="0 0 200 200" width="200" height="200">
<g fill="black">
<path d="M 149.6 181.0 L 147.7 182.4 L 145.7 183.6 L 143.5 184.6 L 141.3 185.5 L 139.1 186.1 L 136.7 186.6 L 134.4 186.9 L 132.0 187.0 L 132.0 181.0 L 112.0 178.0 L 112.0 175.0 L 132.0 175.0 L 133.5 174.9 L 136.3 174.5 L 137.5 174.1 L 138.8 173.6 L 139.9 173.0 L 141.1 172.4 L 143.3 170.6 L 144.4 169.5 L 147.9 165.2 L 151.2 160.1 L 154.1 154.2 L 156.6 147.5 L 158.8 139.9 L 160.7 131.5 L 162.1 122.3 L 163.1 112.3 L 163.7 101.5 L 163.94782609939574 92.0 L 48.72141456604004 92.0 L 46.9 104.7 L 34.2 108.9 L 43.1 46.2 L 53.03157892227173 53.0 L 157.0 53.0 L 157.0 21.0 L 27.0 21.0 L 27.0 17.0 L 157.0 17.0 L 163.0 12.0 L 174.0 21.0 L 169.0 25.0 L 169.0 63.0 L 157.0 69.0 L 157.0 57.0 L 53.74106092453003 57.0 L 49.295088386535646 88.0 L 164.0 88.0 L 170.0 83.0 L 181.0 92.0 L 176.0 95.0 L 175.87368421554567 95.0526315689087 L 175.7 102.0 L 175.1 113.3 L 174.0 123.9 L 172.5 133.7 L 170.5 142.8 L 168.0 151.3 L 165.1 159.0 L 161.6 166.0 L 157.7 172.2 L 153.2 177.7 L 151.4 179.4 Z M 25.0 147.9 L 34.6 146.5 L 44.8 145.1 L 55.4 143.5 L 66.5 141.8 L 78.1 140.0 L 90.3 138.1 L 102.9 136.1 L 116.0 134.0 L 129.6 132.0 L 143.8 130.1 L 144.1 131.8 L 130.4 135.7 L 117.0 139.3 L 104.2 142.5 L 91.7 145.5 L 79.8 148.3 L 68.2 150.9 L 57.2 153.4 L 46.6 155.6 L 36.5 157.8 L 30.914484119415285 158.9054666519165 L 29.4 162.3 L 26.9 159.7 L 23.0 148.2 Z M 89.2 120.3 L 85.9 117.7 L 82.3 115.1 L 78.4 112.5 L 74.2 110.0 L 69.7 107.4 L 65.0 104.7 L 59.9 102.0 L 54.6 99.1 L 55.2 97.4 L 61.2 98.5 L 66.9 99.8 L 72.3 101.4 L 77.5 103.1 L 82.3 105.0 L 86.9 107.1 L 91.2 109.2 L 95.3 111.5 L 99.1 113.9 L 102.7 116.5 L 104.6 120.6 L 103.2 124.9 L 99.1 126.9 L 94.7 125.5 L 92.1 122.9 Z " />
</g>
</svg>
