<svg xmlns="http://www.w3.org/2000/svg" xmlns:xlink="http://www.w3.org/1999/xlink" version="1.1" baseProfile="full" viewBox="0 0 200 200" width="200" height="200">
<g fill="black">
<path d="M 138.0 174.0 L 158.0 174.0 L 159.2 173.9 L 160.1 173.7 L 161.0 173.4 L 161.4 173.0 L 161.7 172.1 L 161.9 171.2 L 162.0 170.0 L 162.0 30.0 L 77.14871797561645 30.0 L 85.7 32.9 L 88.3 35.4 L 84.77871723175049 36.76938772201538 L 83.7 41.3 L 81.2 49.3 L 78.2 56.8 L 74.6 64.0 L 70.6 70.8 L 66.0 77.2 L 60.9 83.1 L 55.3 88.5 L 49.2 93.4 L 42.5 97.7 L 41.4 96.2 L 46.6 90.6 L 51.4 84.8 L 55.8 78.9 L 59.8 72.9 L 63.2 66.6 L 66.3 60.0 L 68.8 53.2 L 71.0 46.1 L 72.6 38.7 L 73.7473853111267 31.90394878387451 L 73.7 31.9 L 74.02758617401123 30.0 L 38.0 30.0 L 38.0 181.0 L 26.0 187.0 L 26.0 20.0 L 38.0 26.0 L 162.0 26.0 L 168.0 21.0 L 179.0 30.0 L 174.0 34.0 L 174.0 170.0 L 173.8 172.5 L 173.4 175.0 L 172.6 177.4 L 171.3 179.7 L 169.7 181.7 L 167.7 183.3 L 165.4 184.6 L 163.0 185.4 L 160.5 185.8 L 158.0 186.0 L 158.0 180.0 L 138.0 177.0 Z M 152.0 52.0 L 154.0 52.0 L 152.0 77.0 L 155.6 79.4 L 158.0 83.0 L 155.6 86.6 L 152.0 89.0 L 129.0 89.0 L 126.4 88.8 L 123.9 88.4 L 121.5 87.6 L 119.2 86.3 L 117.2 84.7 L 115.6 82.7 L 114.3 80.4 L 113.5 78.0 L 113.1 75.5 L 113.0 73.0 L 113.0 30.0 L 125.0 32.0 L 128.0 34.0 L 125.0 35.8 L 125.0 74.2 L 125.2 75.1 L 125.5 76.0 L 125.9 76.4 L 126.8 76.7 L 127.7 76.9 L 129.0 77.0 L 146.0 77.0 Z " />
</g>
</svg>
