<svg xmlns="http://www.w3.org/2000/svg" xmlns:xlink="http://www.w3.org/1999/xlink" version="1.1" baseProfile="full" viewBox="0 0 200 200" width="200" height="200">
<g fill="black">
<path d="M 155.7 173.9 L 152.9 169.5 L 150.1 165.4 L 149.59418601989745 164.73720932006836 L 141.6 166.4 L 129.1 168.8 L 116.6 170.9 L 104.2 172.9 L 91.7 174.9 L 79.3 176.8 L 66.8 178.6 L 54.4 180.4 L 33.62852878570557 183.2477017402649 L 31.9 186.6 L 29.6 183.8 L 26.3 172.1 L 28.3 171.9 L 40.7 170.8 L 78.2 167.5 L 90.7 166.5 L 94.0 166.2119047164917 L 94.0 133.0 L 54.0 133.0 L 54.0 145.0 L 42.0 151.0 L 42.0 63.0 L 54.0 69.0 L 94.0 69.0 L 94.0 46.0 L 18.0 46.0 L 18.0 42.0 L 94.0 42.0 L 94.0 13.0 L 106.0 15.0 L 109.0 17.0 L 106.0 18.8 L 106.0 42.0 L 160.0 42.0 L 170.0 32.0 L 182.0 42.0 L 182.0 46.0 L 106.0 46.0 L 106.0 69.0 L 147.0 69.0 L 153.0 64.0 L 164.0 73.0 L 159.0 77.0 L 159.0 135.0 L 147.0 141.0 L 147.0 133.0 L 106.0 133.0 L 106.0 165.1840000152588 L 115.8 164.4 L 128.5 163.4 L 141.1 162.7 L 147.7979800224304 162.3835599899292 L 147.2 161.6 L 144.3 158.0 L 141.3 154.6 L 138.3 151.4 L 135.4 148.3 L 132.4 145.2 L 133.3 143.7 L 137.5 145.1 L 141.6 147.1 L 145.6 149.6 L 149.5 152.5 L 153.4 155.8 L 157.1 159.4 L 160.8 163.4 L 164.5 167.7 L 168.0 172.3 L 171.5 177.3 L 172.2 181.8 L 169.5 185.5 L 165.0 186.2 L 161.3 183.5 L 158.5 178.6 Z M 54.0 103.0 L 54.0 129.0 L 94.0 129.0 L 94.0 103.0 Z M 106.0 103.0 L 106.0 129.0 L 147.0 129.0 L 147.0 103.0 Z M 54.0 73.0 L 54.0 99.0 L 94.0 99.0 L 94.0 73.0 Z M 106.0 73.0 L 106.0 99.0 L 147.0 99.0 L 147.0 73.0 Z " />
</g>
</svg>
