<svg xmlns="http://www.w3.org/2000/svg" xmlns:xlink="http://www.w3.org/1999/xlink" version="1.1" baseProfile="full" viewBox="0 0 200 200" width="200" height="200">
<g fill="black">
<path d="M 14.0 82.0 L 14.0 78.0 L 47.0 78.0 L 47.0 13.0 L 59.0 15.0 L 62.0 17.0 L 59.0 18.8 L 59.0 78.0 L 76.0 78.0 L 76.0 12.0 L 88.0 14.0 L 91.0 16.0 L 88.0 17.8 L 88.0 78.0 L 112.0 78.0 L 112.0 12.0 L 124.0 14.0 L 127.0 16.0 L 124.0 17.8 L 124.0 78.0 L 141.0 78.0 L 141.0 13.0 L 153.0 15.0 L 156.0 17.0 L 153.0 18.8 L 153.0 78.0 L 164.0 78.0 L 174.0 68.0 L 186.0 78.0 L 186.0 82.0 L 153.0 82.0 L 153.0 173.2 L 153.2 174.1 L 153.5 175.0 L 153.9 175.4 L 154.8 175.7 L 155.7 175.9 L 157.0 176.0 L 173.0 176.0 L 179.0 151.0 L 181.0 151.0 L 179.0 176.0 L 182.6 178.4 L 185.0 182.0 L 182.6 185.6 L 179.0 188.0 L 157.0 188.0 L 154.4 187.8 L 151.9 187.4 L 149.5 186.6 L 147.2 185.3 L 145.2 183.7 L 143.6 181.7 L 142.3 179.4 L 141.5 177.0 L 141.1 174.5 L 141.0 172.0 L 141.0 82.0 L 124.0 82.0 L 124.0 173.0 L 112.0 179.0 L 112.0 167.0 L 88.0 167.0 L 88.0 179.0 L 76.0 185.0 L 76.0 82.0 L 59.0 82.0 L 59.0 112.0 L 58.3 124.8 L 56.8 136.5 L 54.5 147.2 L 51.4 156.8 L 47.5 165.3 L 42.8 172.6 L 37.2 178.8 L 30.9 183.6 L 23.8 186.9 L 16.2 188.8 L 15.7 187.1 L 22.1 183.5 L 27.7 179.2 L 32.4 174.2 L 36.5 168.4 L 39.9 161.6 L 42.6 153.8 L 44.7 145.0 L 46.2 135.1 L 46.9 124.1 L 47.0 112.0 L 47.0 82.0 Z M 88.0 82.0 L 88.0 163.0 L 112.0 163.0 L 112.0 82.0 Z " />
</g>
</svg>
