<svg xmlns="http://www.w3.org/2000/svg" xmlns:xlink="http://www.w3.org/1999/xlink" version="1.1" baseProfile="full" viewBox="0 0 200 200" width="200" height="200">
<g fill="black">
<path d="M 161.0 152.0 L 154.9 145.6 L 148.5 139.4 L 141.8 133.3 L 134.8 127.5 L 127.6 121.8 L 120.1 116.2 L 112.4 110.7 L 107.56837606430054 107.3782585144043 L 95.1 121.6 L 81.2 134.7 L 66.4 146.5 L 50.7 156.8 L 33.9 165.6 L 16.3 172.8 L 15.6 171.1 L 32.2 162.2 L 47.8 152.3 L 62.4 141.3 L 76.1 129.2 L 88.8 115.8 L 100.6 101.3 L 111.4 85.5 L 121.3 68.5 L 130.3 50.3 L 136.6553846359253 35.0 L 42.0 35.0 L 42.0 31.0 L 138.0 31.0 L 144.0 26.0 L 155.0 35.0 L 150.0 38.0 L 147.8019437789917 38.915856742858885 L 140.6 55.1 L 130.7 73.8 L 119.8 91.1 L 109.20930328369141 105.2505947113037 L 114.3 107.4 L 122.9 111.6 L 131.3 116.3 L 139.3 121.3 L 147.1 126.7 L 154.5 132.3 L 161.7 138.3 L 168.6 144.5 L 175.3 151.0 L 181.6 157.8 L 182.9 162.2 L 180.9 166.2 L 176.5 167.6 L 172.4 165.5 L 166.9 158.7 Z " />
</g>
</svg>
