<svg xmlns="http://www.w3.org/2000/svg" xmlns:xlink="http://www.w3.org/1999/xlink" version="1.1" baseProfile="full" viewBox="0 0 200 200" width="200" height="200">
<g fill="black">
<path d="M 114.3 18.3 L 116.2 21.4 L 112.54541549682617 21.841070556640624 L 108.8 29.4 L 103.1 40.3 L 97.1 50.9 L 90.8 61.3 L 84.3 71.4 L 83.26253776550293 72.9104229927063 L 89.8 74.0 L 92.8 76.0 L 89.8 77.8 L 89.8 183.0 L 77.8 189.0 L 77.8 80.86323528289795 L 77.5 81.3 L 70.3 90.8 L 62.9 100.1 L 55.1 109.0 L 46.9 117.5 L 45.5 116.4 L 52.1 106.7 L 58.6 96.9 L 65.0 87.1 L 71.1 77.1 L 77.1 66.9 L 82.8 56.6 L 88.3 46.1 L 93.5 35.4 L 98.5 24.5 L 102.90938653945923 14.30329351425171 L 102.9 14.3 L 103.01764707565307 14.052941131591798 L 103.3 13.4 L 103.32357139587403 13.410499954223633 L 103.9 12.2 Z M 125.0 55.0 L 128.0 57.0 L 125.0 58.8 L 125.0 154.0 L 113.0 160.0 L 113.0 53.0 Z " />
</g>
</svg>
