<svg xmlns="http://www.w3.org/2000/svg" xmlns:xlink="http://www.w3.org/1999/xlink" version="1.1" baseProfile="full" viewBox="0 0 200 200" width="200" height="200">
<g fill="black">
<path d="M 12.9 174.9 L 21.0 173.5745454788208 L 21.0 41.0 L 32.42372884750366 46.711864376068114 L 42.6 44.2 L 58.5 40.6 L 74.3 37.0 L 137.9 22.6 L 153.8 18.9 L 169.8 15.1 L 184.7113570213318 11.536279487609864 L 184.7 11.5 L 184.73650913238527 11.530268287658691 L 185.7 11.3 L 185.98032598495485 12.561466789245605 L 196.4 21.2 L 196.7 24.2 L 192.37058820724488 22.095424842834472 L 188.3 23.0 L 156.1 29.4 L 140.0 32.4 L 107.8 38.2 L 91.7 40.9 L 75.6 43.4 L 59.4 45.8 L 43.3 48.0 L 33.0 49.14444446563721 L 33.0 171.5964072227478 L 46.1 169.4 L 63.1 166.5 L 80.2 163.5 L 97.6 160.5 L 115.2 157.4 L 133.0 154.3 L 151.0 151.1 L 169.3 148.0 L 187.8 145.1 L 188.1 146.8 L 170.0 151.8 L 152.1 156.4 L 134.3 160.7 L 116.7 164.8 L 99.3 168.8 L 82.0 172.6 L 65.0 176.3 L 48.1 179.9 L 31.5 183.4 L 18.993355464935302 185.90132894515992 L 17.5 189.3 L 15.0 186.7 L 10.9 175.2 Z " />
</g>
</svg>
