<svg xmlns="http://www.w3.org/2000/svg" xmlns:xlink="http://www.w3.org/1999/xlink" version="1.1" baseProfile="full" viewBox="0 0 200 200" width="200" height="200">
<g fill="black">
<path d="M 148.0 179.5 L 136.6 172.6 L 126.7 164.1 L 118.3 154.0 L 111.4 142.6 L 106.0 129.7 L 102.1 115.5 L 101.91286983489991 114.2307692527771 L 101.9 114.3 L 97.4 128.5 L 91.1 141.5 L 83.1 153.0 L 73.4 163.2 L 62.2 171.8 L 49.4 179.0 L 35.0 184.7 L 19.2 188.8 L 18.7 187.1 L 33.7 181.2 L 46.9 174.3 L 58.3 166.5 L 68.2 157.7 L 76.3 147.9 L 82.9 137.0 L 88.0 125.0 L 91.5 111.9 L 92.02777776718139 108.1 L 45.1 108.1 L 45.1 120.1 L 33.1 126.1 L 33.1 39.8 L 45.1 45.8 L 94.0 45.8 L 94.0 13.0 L 106.0 15.0 L 109.0 17.0 L 106.0 18.8 L 106.0 45.8 L 154.9 45.8 L 160.9 40.8 L 171.9 49.8 L 166.9 53.8 L 166.9 114.1 L 154.9 120.1 L 154.9 108.1 L 106.23469390869141 108.1 L 107.8 114.0 L 112.7 127.1 L 118.7 138.5 L 125.7 148.4 L 133.7 156.6 L 142.8 163.4 L 153.0 168.8 L 164.4 172.8 L 177.1 175.4 L 186.7 177.1 L 174.8 188.5 L 160.8 184.8 Z M 104.36361265182495 101.04746303558349 L 105.17346935272217 104.1 L 154.9 104.1 L 154.9 49.8 L 106.0 49.8 L 106.0 82.0 L 104.8 98.7 Z M 45.1 49.8 L 45.1 104.1 L 92.58333330154419 104.1 L 93.5 97.5 L 94.0 82.0 L 94.0 49.8 Z " />
</g>
</svg>
