<svg xmlns="http://www.w3.org/2000/svg" xmlns:xlink="http://www.w3.org/1999/xlink" version="1.1" baseProfile="full" viewBox="0 0 200 200" width="200" height="200">
<g fill="black">
<path d="M 164.8 142.5 L 162.7 139.2 L 160.31369132995604 136.05007257461548 L 146.8 137.7 L 130.3 139.6 L 114.4 141.3 L 106.0 142.07368421554565 L 106.0 182.7 L 94.0 188.7 L 94.0 143.16620693206787 L 84.7 144.0 L 70.8 145.2 L 57.7 146.2 L 45.2 147.2 L 33.3 148.0 L 26.290196418762207 148.5052110671997 L 24.3 151.7 L 22.2 148.8 L 19.7 136.9 L 21.7 136.8 L 32.9 136.7 L 44.7 136.5 L 57.2 136.2 L 70.3 135.9 L 84.2 135.5 L 90.00993223190308 135.34082374572753 L 92.7 132.6 L 97.8 127.5 L 102.8 122.6 L 107.6 117.9 L 116.6 108.9 L 120.8 104.6 L 124.8 100.4 L 128.5 96.3 L 131.34099950790406 93.13431482315063 L 131.3 93.1 L 132.3 92.1 L 140.5 100.8 L 141.3 104.4 L 137.59254398345948 103.4893967628479 L 136.5 104.5 L 132.2 108.2 L 127.6 111.9 L 122.8 115.8 L 117.8 119.7 L 112.5 123.6 L 107.0 127.6 L 101.2 131.6 L 95.64084405899048 135.18655223846434 L 98.8 135.1 L 114.0 134.7 L 129.9 134.3 L 146.6 134.0 L 158.53258714675903 133.86205101013184 L 157.5 132.6 L 154.4 129.3 L 151.1 125.9 L 147.4 122.5 L 143.6 119.1 L 139.4 115.5 L 140.3 114.0 L 145.4 116.1 L 150.3 118.3 L 154.9 120.9 L 159.2 123.6 L 163.1 126.5 L 166.8 129.6 L 170.3 132.8 L 173.4 136.2 L 176.3 139.8 L 178.8 143.5 L 179.2 148.0 L 176.4 151.6 L 171.8 152.0 L 168.2 149.2 L 166.7 145.8 Z M 72.0 157.6 L 73.0 161.0 L 69.14153842926025 160.45846157073976 L 68.5 161.1 L 64.8 164.6 L 60.7 167.9 L 56.4 171.1 L 51.9 174.2 L 47.0 177.2 L 41.8 180.1 L 36.4 182.8 L 30.5 185.3 L 24.4 187.5 L 23.5 185.9 L 28.7 182.0 L 33.6 178.2 L 38.2 174.5 L 42.6 171.0 L 46.7 167.4 L 50.5 163.9 L 54.0 160.4 L 57.2 156.9 L 60.1 153.5 L 62.070235347747804 150.84776010513306 L 62.0 150.8 L 63.1 149.5 Z M 154.8 176.7 L 152.1 173.3 L 149.1 169.9 L 145.8 166.5 L 142.2 163.1 L 138.4 159.8 L 134.3 156.4 L 130.0 152.8 L 125.4 149.2 L 126.3 147.6 L 131.9 149.6 L 137.1 151.8 L 142.1 154.3 L 146.8 157.1 L 151.2 160.0 L 155.3 163.0 L 159.2 166.2 L 162.8 169.6 L 166.1 173.1 L 169.2 176.7 L 170.1 181.2 L 167.6 185.1 L 163.2 186.0 L 159.3 183.5 L 157.2 180.1 Z M 71.6 123.0 L 69.3 119.9 L 66.7 116.9 L 63.7 113.9 L 60.5 111.0 L 57.0 108.1 L 53.1 105.1 L 49.0 102.1 L 44.5 99.2 L 45.2 97.5 L 50.5 99.0 L 55.5 100.7 L 60.2 102.7 L 64.7 105.0 L 68.8 107.4 L 71.33927011489868 109.15795621871948 L 72.1 108.2 L 74.6 104.8 L 77.1 101.6 L 79.5 98.4 L 81.9 95.3 L 84.3 92.3 L 86.5 89.3 L 88.7 86.4 L 90.7 83.4 L 92.16621618270874 81.3472972869873 L 92.1 81.3 L 93.1 80.1 L 101.9 88.3 L 102.9 91.8 L 98.89178085327148 91.09680366516113 L 96.5 93.4 L 90.7 98.4 L 84.5 103.4 L 81.2 105.9 L 77.8 108.2 L 74.1 110.5 L 73.60566034317017 110.82955970764161 L 76.3 113.0 L 79.7 116.1 L 82.7 119.3 L 85.5 122.8 L 86.2 127.4 L 83.5 131.1 L 79.0 131.8 L 75.3 129.2 L 73.6 126.0 Z M 183.2 75.8 L 183.2 79.8 L 17.7 79.8 L 17.7 75.8 L 161.2 75.8 L 171.2 65.8 Z M 44.0 60.0 L 32.0 66.0 L 32.0 23.6 L 44.0 25.6 L 47.0 27.6 L 44.0 29.4 L 44.0 53.0 L 94.0 53.0 L 94.0 12.6 L 106.0 14.6 L 109.0 16.6 L 106.0 18.4 L 106.0 53.0 L 155.0 53.0 L 155.0 23.6 L 167.0 25.6 L 170.0 27.6 L 167.0 29.4 L 167.0 59.0 L 155.0 65.0 L 155.0 57.0 L 44.0 57.0 Z " />
</g>
</svg>
