<svg xmlns="http://www.w3.org/2000/svg" xmlns:xlink="http://www.w3.org/1999/xlink" version="1.1" baseProfile="full" viewBox="0 0 200 200" width="200" height="200">
<g fill="black">
<path d="M 119.8 126.1 L 161.0 126.1 L 167.0 121.1 L 178.0 130.1 L 173.0 134.1 L 173.0 178.2 L 161.0 184.2 L 161.0 174.2 L 119.8 174.2 L 119.8 181.2 L 107.8 187.2 L 107.8 120.1 Z M 39.9 126.1 L 81.1 126.1 L 87.1 121.1 L 98.1 130.1 L 93.1 134.1 L 93.1 178.2 L 81.1 184.2 L 81.1 174.2 L 39.9 174.2 L 39.9 181.2 L 27.9 187.2 L 27.9 120.1 Z M 119.8 130.1 L 119.8 170.2 L 161.0 170.2 L 161.0 130.1 Z M 39.9 130.1 L 39.9 170.2 L 81.1 170.2 L 81.1 130.1 Z M 65.0 68.6 L 135.0 68.6 L 141.0 63.6 L 152.0 72.6 L 147.0 76.6 L 147.0 112.0 L 135.0 118.0 L 135.0 112.0 L 65.0 112.0 L 53.0 118.0 L 53.0 62.6 Z M 65.0 72.6 L 65.0 108.0 L 135.0 108.0 L 135.0 72.6 Z M 78.1 19.3 L 80.0 22.3 L 76.31022453308105 22.74531774520874 L 74.1 27.0 L 69.6 34.4 L 64.7 41.5 L 59.4 48.3 L 59.13636360168457 48.6 L 159.0 48.6 L 169.0 38.6 L 181.0 48.6 L 181.0 52.6 L 55.62121210098267 52.6 L 53.6 54.9 L 47.3 61.1 L 40.6 67.0 L 33.4 72.5 L 25.7 77.6 L 17.5 82.3 L 16.4 80.8 L 23.4 74.6 L 29.9 68.4 L 36.1 62.2 L 41.8 55.8 L 47.1 49.3 L 52.0 42.7 L 56.4 35.9 L 60.4 28.9 L 63.9 21.8 L 67.0 14.5 L 67.05793323516846 14.525052165985107 L 67.6 13.2 Z " />
</g>
</svg>
