<svg xmlns="http://www.w3.org/2000/svg" xmlns:xlink="http://www.w3.org/1999/xlink" version="1.1" baseProfile="full" viewBox="0 0 200 200" width="200" height="200">
<g fill="black">
<path d="M 124.4 180.8 L 121.9 180.4 L 119.5 179.6 L 117.2 178.3 L 115.2 176.7 L 113.6 174.7 L 112.3 172.4 L 111.5 170.0 L 111.1 167.5 L 111.0 165.0 L 111.0 100.0 L 103.80389614105225 100.0 L 101.7 110.8 L 96.9 125.0 L 90.2 137.9 L 81.8 149.6 L 71.6 160.0 L 59.7 169.0 L 46.2 176.7 L 31.0 182.9 L 14.2 187.8 L 13.7 186.1 L 29.6 179.4 L 43.6 171.9 L 55.9 163.6 L 66.4 154.4 L 75.1 144.3 L 82.2 133.3 L 87.5 121.3 L 91.3 108.2 L 92.53000001907348 100.0 L 39.0 100.0 L 39.0 112.0 L 27.0 118.0 L 27.0 28.0 L 39.0 34.0 L 161.0 34.0 L 167.0 29.0 L 178.0 38.0 L 173.0 42.0 L 173.0 106.0 L 161.0 112.0 L 161.0 100.0 L 123.0 100.0 L 123.0 166.2 L 123.2 167.1 L 123.5 168.0 L 123.9 168.4 L 124.8 168.7 L 125.7 168.9 L 127.0 169.0 L 176.0 169.0 L 182.0 144.0 L 184.0 144.0 L 182.0 169.0 L 185.6 171.4 L 188.0 175.0 L 185.6 178.6 L 182.0 181.0 L 127.0 181.0 Z M 104.5831169128418 96.0 L 161.0 96.0 L 161.0 38.0 L 106.0 38.0 L 106.0 79.0 L 104.7 95.4 Z M 39.0 38.0 L 39.0 96.0 L 93.13000001907349 96.0 L 93.4 94.2 L 94.0 79.0 L 94.0 38.0 Z " />
</g>
</svg>
