<svg xmlns="http://www.w3.org/2000/svg" xmlns:xlink="http://www.w3.org/1999/xlink" version="1.1" baseProfile="full" viewBox="0 0 200 200" width="200" height="200">
<g fill="black">
<path d="M 12.2 137.9 L 27.6 136.2 L 43.6 134.5 L 50.0 133.7975609779358 L 50.0 28.0 L 61.483832359313965 33.74191617965698 L 67.1 32.4 L 78.3 30.0 L 89.5 27.7 L 100.6 25.4 L 111.8 23.1 L 122.8 20.8 L 133.9 18.4 L 144.9 16.1 L 155.9 13.7 L 165.83217477798462 11.513099098205567 L 165.8 11.4 L 165.91498794555665 11.494865036010742 L 166.8 11.3 L 167.01703643798828 12.404055118560791 L 177.8 21.3 L 178.2 24.3 L 173.68583145141602 22.10391798019409 L 169.1 23.0 L 158.0 24.9 L 146.9 26.6 L 135.7 28.3 L 124.4 29.9 L 113.2 31.4 L 101.8 32.8 L 90.5 34.1 L 79.1 35.3 L 67.6 36.2 L 62.0 36.492173957824704 L 62.0 61.0 L 138.0 61.0 L 148.0 51.0 L 160.0 61.0 L 160.0 65.0 L 62.0 65.0 L 62.0 94.0 L 138.0 94.0 L 148.0 84.0 L 160.0 94.0 L 160.0 98.0 L 62.0 98.0 L 62.0 132.49761905670167 L 76.8 131.0 L 94.2 129.2 L 112.0 127.4 L 130.2 125.7 L 148.9 124.0 L 168.2 122.4 L 187.8 121.1 L 188.1 122.8 L 168.6 126.2 L 149.6 129.3 L 131.0 132.2 L 112.9 135.0 L 95.2 137.6 L 78.0 140.2 L 62.0 142.58095235824584 L 62.0 183.0 L 50.0 189.0 L 50.0 144.3490797996521 L 44.9 145.1 L 29.1 147.5 L 17.725188732147217 149.19883546829223 L 16.1 152.5 L 13.7 149.8 L 10.2 138.1 Z " />
</g>
</svg>
