<svg xmlns="http://www.w3.org/2000/svg" xmlns:xlink="http://www.w3.org/1999/xlink" version="1.1" baseProfile="full" viewBox="0 0 200 200" width="200" height="200">
<g fill="black">
<path d="M 17.8 185.4 L 17.2 180.9 L 19.9 177.2 L 22.8 175.5 L 25.5 173.5 L 28.1 170.9 L 30.5 167.9 L 32.7 164.3 L 34.7 160.1 L 36.5 155.4 L 38.1 150.2 L 39.6 144.4 L 40.9 138.0 L 42.7 138.1 L 43.2 144.7 L 43.3 151.0 L 42.8 156.8 L 41.9 162.4 L 40.4 167.5 L 38.6 172.4 L 36.2 176.8 L 33.3 180.8 L 29.9 184.4 L 26.1 187.5 L 21.5 188.1 Z M 169.9 174.5 L 168.4 170.4 L 166.5 166.2 L 164.3 162.0 L 161.7 157.8 L 158.8 153.4 L 155.5 148.9 L 151.9 144.3 L 148.1 139.5 L 149.2 138.1 L 154.5 141.6 L 159.3 145.2 L 163.7 149.1 L 167.7 153.1 L 171.3 157.2 L 174.5 161.5 L 177.3 165.8 L 179.8 170.3 L 181.9 174.8 L 183.6 179.5 L 182.9 184.0 L 179.2 186.8 L 174.7 186.1 L 171.9 182.4 L 171.1 178.5 Z M 121.7 171.9 L 121.0 168.2 L 120.0 164.5 L 118.6 160.7 L 117.0 156.8 L 115.0 152.9 L 112.7 148.9 L 110.1 144.8 L 107.2 140.6 L 108.4 139.3 L 112.6 142.5 L 116.5 145.8 L 120.0 149.3 L 123.1 153.0 L 125.9 156.9 L 128.3 160.9 L 130.3 165.0 L 132.0 169.3 L 133.3 173.6 L 134.2 178.1 L 132.8 182.5 L 128.8 184.6 L 124.4 183.2 L 122.3 179.2 L 122.1 175.6 Z M 80.3 184.6 L 76.3 182.5 L 74.9 178.1 L 75.4 174.5 L 75.7 170.9 L 75.7 167.3 L 75.4 163.7 L 74.9 160.0 L 74.1 156.3 L 73.0 152.5 L 71.7 148.6 L 70.2 144.6 L 68.2 140.6 L 69.7 139.5 L 72.8 142.9 L 75.8 146.3 L 78.4 149.9 L 80.7 153.7 L 82.6 157.6 L 84.1 161.7 L 85.3 165.9 L 86.2 170.2 L 86.7 174.7 L 86.8 179.2 L 84.6 183.2 Z M 140.6 14.0 L 143.6 16.0 L 140.6 17.8 L 140.6 45.1 L 162.6 45.1 L 172.6 35.1 L 184.6 45.1 L 184.6 49.1 L 140.6 49.1 L 140.6 110.0 L 128.6 116.0 L 128.6 104.0 L 71.3 104.0 L 71.3 116.0 L 59.3 122.0 L 59.3 49.1 L 18.3 49.1 L 18.3 45.1 L 59.3 45.1 L 59.3 12.0 L 71.3 14.0 L 74.3 16.0 L 71.3 17.8 L 71.3 45.1 L 128.6 45.1 L 128.6 12.0 Z M 71.3 49.1 L 71.3 100.0 L 128.6 100.0 L 128.6 49.1 Z " />
</g>
</svg>
