<svg xmlns="http://www.w3.org/2000/svg" xmlns:xlink="http://www.w3.org/1999/xlink" version="1.1" baseProfile="full" viewBox="0 0 200 200" width="200" height="200">
<g fill="black">
<path d="M 33.0 91.3 L 32.7 95.3 L 32.0 99.1 L 30.8 102.6 L 29.1 106.0 L 27.0 109.0 L 24.4 111.7 L 21.3 114.0 L 16.8 114.2 L 13.3 111.3 L 13.0 106.7 L 16.0 103.2 L 17.9 102.5 L 19.8 101.5 L 21.5 100.2 L 23.2 98.4 L 24.8 96.2 L 26.2 93.5 L 27.5 90.3 L 28.7 86.7 L 29.7 82.5 L 30.1 78.0 L 31.9 77.9 L 32.4 82.6 L 32.71999998092652 85.0 L 49.0 85.0 L 49.0 34.0 L 61.0 40.0 L 82.23333330154419 40.0 L 82.5 39.6 L 83.2 37.5 L 84.0 35.5 L 84.7 33.5 L 85.4 31.4 L 86.8 27.4 L 87.21999998092652 26.0 L 20.0 26.0 L 20.0 22.0 L 158.0 22.0 L 168.0 12.0 L 180.0 22.0 L 180.0 26.0 L 99.7615385055542 26.0 L 99.3 26.6 L 96.3 30.4 L 91.5 35.5 L 89.7 37.0 L 88.0 38.5 L 86.1 39.8 L 85.78333330154419 40.0 L 139.0 40.0 L 145.0 35.0 L 156.0 44.0 L 151.0 48.0 L 151.0 85.0 L 172.0 85.0 L 172.63157892227173 84.47368421554566 L 173.2 83.4 L 173.57894735336305 83.68421049118042 L 178.0 80.0 L 189.0 89.0 L 184.0 92.0 L 178.41739130020142 94.32608699798584 L 177.2 95.3 L 175.0 97.0 L 172.7 98.8 L 170.2 100.6 L 167.5 102.5 L 164.7 104.4 L 161.6 106.3 L 158.6 108.6 L 157.3 107.3 L 159.8 104.5 L 161.8 101.5 L 163.7 98.7 L 165.5 96.1 L 167.2 93.6 L 168.7 91.3 L 170.1 89.1 L 170.157142829895 89.0 L 33.0 89.0 Z M 61.0 74.0 L 61.0 85.0 L 139.0 85.0 L 139.0 74.0 Z M 61.0 59.0 L 61.0 70.0 L 139.0 70.0 L 139.0 59.0 Z M 61.0 44.0 L 61.0 55.0 L 139.0 55.0 L 139.0 44.0 Z " />
</g>
</svg>
