<svg xmlns="http://www.w3.org/2000/svg" xmlns:xlink="http://www.w3.org/1999/xlink" version="1.1" baseProfile="full" viewBox="0 0 200 200" width="200" height="200">
<g fill="black">
<path d="M 12.0 182.1 L 94.0 182.1 L 94.0 148.0 L 22.0 148.0 L 22.0 144.0 L 94.0 144.0 L 94.0 114.8680850982666 L 86.2 115.2 L 71.8 115.8 L 56.9 116.1 L 41.6 116.1 L 26.0 115.8 L 25.9 114.0 L 41.5 112.3 L 56.6 110.7 L 71.3 109.2 L 85.7 107.7 L 99.6 106.1 L 113.1 104.5 L 126.2 102.8 L 138.9 101.0 L 151.2 99.1 L 163.1 97.1 L 163.26580314636232 98.26062173843384 L 174.6 107.6 L 175.0 110.6 L 170.4314606666565 108.19550561904907 L 164.8 109.0 L 152.7 110.4 L 140.2 111.6 L 127.3 112.7 L 114.0 113.7 L 106.0 114.22554740905761 L 106.0 144.0 L 156.0 144.0 L 166.0 134.0 L 178.0 144.0 L 178.0 148.0 L 106.0 148.0 L 106.0 182.1 L 166.0 182.1 L 176.0 172.1 L 188.0 182.1 L 188.0 186.1 L 12.0 186.1 Z M 186.0 86.8 L 186.0 90.8 L 14.0 90.8 L 14.0 86.8 L 164.0 86.8 L 174.0 76.8 Z M 44.0 73.0 L 32.0 79.0 L 32.0 27.0 L 44.0 29.0 L 47.0 31.0 L 44.0 32.8 L 44.0 62.0 L 94.0 62.0 L 94.0 14.0 L 106.0 16.0 L 109.0 18.0 L 106.0 19.8 L 106.0 62.0 L 155.0 62.0 L 155.0 27.0 L 167.0 29.0 L 170.0 31.0 L 167.0 32.8 L 167.0 70.0 L 155.0 76.0 L 155.0 66.0 L 44.0 66.0 Z " />
</g>
</svg>
