<svg xmlns="http://www.w3.org/2000/svg" xmlns:xlink="http://www.w3.org/1999/xlink" version="1.1" baseProfile="full" viewBox="0 0 200 200" width="200" height="200">
<g fill="black">
<path d="M 136.0 156.0 L 148.0 156.0 L 149.2 155.9 L 150.1 155.7 L 151.0 155.4 L 151.4 155.0 L 151.7 154.1 L 151.9 153.2 L 152.0 152.0 L 152.0 94.0 L 106.0 94.0 L 106.0 183.0 L 94.0 189.0 L 94.0 94.0 L 48.0 94.0 L 48.0 164.0 L 36.0 170.0 L 36.0 84.0 L 48.0 90.0 L 94.0 90.0 L 94.0 53.0 L 49.55694446563721 53.0 L 48.4 54.7 L 43.3 61.8 L 37.7 68.7 L 31.8 75.5 L 25.4 82.1 L 18.6 88.5 L 17.3 87.4 L 22.5 79.7 L 27.6 72.2 L 32.4 64.8 L 37.0 57.5 L 41.3 50.2 L 45.2 42.9 L 48.9 35.6 L 52.3 28.3 L 55.3 21.0 L 57.660384559631346 14.618219470977783 L 57.6 14.6 L 58.5 12.3 L 69.2 18.1 L 71.2 21.0 L 67.54764328002929 21.64076433181763 L 65.7 25.6 L 61.9 33.0 L 57.8 40.3 L 53.3 47.5 L 52.27916669845581 49.0 L 160.0 49.0 L 170.0 39.0 L 182.0 49.0 L 182.0 53.0 L 106.0 53.0 L 106.0 90.0 L 152.0 90.0 L 158.0 85.0 L 169.0 94.0 L 164.0 98.0 L 164.0 152.0 L 163.8 154.5 L 163.4 157.0 L 162.6 159.4 L 161.3 161.7 L 159.7 163.7 L 157.7 165.3 L 155.4 166.6 L 153.0 167.4 L 150.5 167.8 L 148.0 168.0 L 148.0 162.0 L 136.0 159.0 Z " />
</g>
</svg>
