<svg xmlns="http://www.w3.org/2000/svg" xmlns:xlink="http://www.w3.org/1999/xlink" version="1.1" baseProfile="full" viewBox="0 0 200 200" width="200" height="200">
<g fill="black">
<path d="M 50.5 181.8 L 38.5 187.8 L 38.5 111.0 L 50.5 117.0 L 163.4 117.0 L 169.4 112.0 L 180.4 121.0 L 175.4 125.0 L 175.4 175.8 L 163.4 181.8 L 163.4 169.8 L 50.5 169.8 Z M 50.5 121.0 L 50.5 165.8 L 79.8 165.8 L 79.8 121.0 Z M 91.8 121.0 L 91.8 165.8 L 122.1 165.8 L 122.1 121.0 Z M 134.1 121.0 L 134.1 165.8 L 163.4 165.8 L 163.4 121.0 Z M 60.0 15.8 L 62.6 18.2 L 59.05033044815063 19.64616165161133 L 58.0 23.9 L 55.5 32.1 L 52.4 40.5 L 48.8 48.9 L 47.6 51.3 L 166.8 51.3 L 176.8 41.3 L 188.8 51.3 L 188.8 55.3 L 45.6 55.3 L 44.5 57.5 L 39.6 66.2 L 34.1 75.1 L 28.0 84.0 L 21.1 93.0 L 13.6 102.0 L 12.1 100.9 L 18.0 90.8 L 23.4 81.1 L 28.4 71.8 L 32.9 62.7 L 36.8 53.9 L 40.2 45.3 L 43.0 37.1 L 45.3 29.1 L 47.0 21.3 L 47.950789833068846 14.90377779006958 L 47.9 14.9 L 48.4 11.9 Z M 181.3 86.0 L 181.3 90.0 L 38.6 90.0 L 38.6 86.0 L 159.3 86.0 L 169.3 76.0 Z " />
</g>
</svg>
