<svg xmlns="http://www.w3.org/2000/svg" xmlns:xlink="http://www.w3.org/1999/xlink" version="1.1" baseProfile="full" viewBox="0 0 200 200" width="200" height="200">
<g fill="black">
<path d="M 58.0 24.0 L 166.0 24.0 L 172.0 19.0 L 183.0 28.0 L 178.0 32.0 L 178.0 103.0 L 166.0 109.0 L 166.0 97.0 L 57.55673761367798 97.0 L 57.5 99.0 L 56.2 112.3 L 54.1 124.7 L 51.2 136.4 L 47.4 147.1 L 42.9 157.0 L 37.5 166.0 L 31.4 173.9 L 24.3 180.9 L 16.5 186.6 L 15.4 185.3 L 21.6 178.2 L 27.1 170.7 L 31.9 162.6 L 36.0 153.8 L 39.5 144.3 L 42.2 134.0 L 44.2 123.0 L 45.5 111.1 L 46.1 98.5 L 46.0 85.0 L 46.0 18.0 Z M 57.670212745666504 93.0 L 166.0 93.0 L 166.0 61.0 L 58.0 61.0 L 58.0 85.0 L 57.89259262084961 85.16111106872559 Z M 58.0 28.0 L 58.0 57.0 L 166.0 57.0 L 166.0 28.0 Z " />
</g>
</svg>
