<svg xmlns="http://www.w3.org/2000/svg" xmlns:xlink="http://www.w3.org/1999/xlink" version="1.1" baseProfile="full" viewBox="0 0 200 200" width="200" height="200">
<g fill="black">
<path d="M 184.6 16.1 L 187.2 18.7 L 183.62801008224488 19.933960151672363 L 179.2 37.4 L 172.5 57.9 L 164.4 77.5 L 155.0 96.2 L 144.2 114.0 L 132.2 130.8 L 118.8 146.8 L 104.0 161.8 L 87.9 175.8 L 70.5 188.7 L 69.4 187.2 L 85.5 172.9 L 100.2 158.0 L 113.8 142.5 L 126.1 126.3 L 137.1 109.4 L 146.8 91.8 L 155.2 73.4 L 162.4 54.3 L 168.3 34.4 L 172.79090909957887 14.190909099578857 L 173.2 11.9 Z M 108.4 16.6 L 110.8 19.3 L 107.1668830871582 20.256083393096922 L 102.7 33.5 L 96.1 49.6 L 88.6 64.9 L 80.3 79.5 L 71.1 93.3 L 61.1 106.3 L 50.3 118.5 L 38.6 129.8 L 26.0 140.2 L 12.5 149.7 L 11.4 148.2 L 23.5 137.3 L 34.8 126.0 L 45.4 114.1 L 55.2 101.6 L 64.1 88.6 L 72.3 74.8 L 79.6 60.4 L 86.2 45.4 L 91.9 29.7 L 96.9 13.2 L 96.90705089569092 13.202084636688232 L 97.4 11.6 Z " />
</g>
</svg>
