<svg xmlns="http://www.w3.org/2000/svg" xmlns:xlink="http://www.w3.org/1999/xlink" version="1.1" baseProfile="full" viewBox="0 0 200 200" width="200" height="200">
<g fill="black">
<path d="M 180.0 158.0 L 180.0 162.0 L 23.0 162.0 L 23.0 158.0 L 158.0 158.0 L 168.0 148.0 Z M 77.5 14.4 L 80.0 17.0 L 76.42872619628906 18.08413667678833 L 73.4 28.5 L 68.8 42.0 L 63.6 54.9 L 58.0 67.3 L 55.57033901214599 72.0 L 165.0 72.0 L 175.0 62.0 L 187.0 72.0 L 187.0 76.0 L 53.502542400360106 76.0 L 51.9 79.1 L 45.3 90.3 L 38.2 100.9 L 30.6 110.9 L 22.4 120.1 L 13.6 128.6 L 12.3 127.3 L 19.5 117.7 L 26.3 107.7 L 32.7 97.3 L 38.7 86.5 L 44.4 75.3 L 49.5 63.5 L 54.3 51.3 L 58.6 38.5 L 62.5 25.3 L 65.67514905929565 12.412630081176758 L 65.6 12.4 L 66.3 9.7 Z " />
</g>
</svg>
