<svg xmlns="http://www.w3.org/2000/svg" xmlns:xlink="http://www.w3.org/1999/xlink" version="1.1" baseProfile="full" viewBox="0 0 200 200" width="200" height="200">
<g fill="black">
<path d="M 48.8 81.1 L 47.7 78.9 L 46.4 76.7 L 45.0 74.6 L 43.4 72.4 L 41.6 70.3 L 39.7 68.0 L 37.93677072525024 66.62008142471313 L 36.2 68.6 L 30.9 73.8 L 25.4 78.5 L 19.5 82.6 L 18.4 81.3 L 22.7 75.8 L 26.9 70.2 L 31.1 64.5 L 35.0 58.4 L 38.8 52.1 L 42.4 45.5 L 45.8 38.6 L 49.1 31.3 L 52.1 23.7 L 54.63399429321289 16.70967082977295 L 54.6 16.7 L 55.5 14.4 L 66.2 20.0 L 68.3 23.0 L 64.57632131576538 23.653276920318604 L 62.6 28.1 L 58.8 35.9 L 58.743835639953616 36.0 L 88.0 36.0 L 88.43090906143189 35.640909099578856 L 88.6 35.3 L 88.75052757263184 35.37456035614014 L 94.0 31.0 L 105.0 40.0 L 100.0 43.0 L 97.37410564422608 44.09412269592285 L 92.3 53.3 L 85.0 65.2 L 77.2 76.2 L 69.1 86.3 L 60.6 95.6 L 51.7 103.9 L 42.4 111.4 L 32.8 117.9 L 22.7 123.4 L 12.3 127.8 L 11.6 126.1 L 20.8 120.1 L 29.7 113.5 L 38.3 106.3 L 46.5 98.4 L 53.9646728515625 90.1697196006775 L 51.2 87.8 L 50.6 85.5 Z M 155.6 100.0 L 146.5 92.4 L 138.1 84.2 L 130.5 75.2 L 123.6 65.6 L 117.5 55.2 L 112.2 44.2 L 107.8 32.6 L 104.4 20.2 L 106.1 19.6 L 111.7 31.0 L 114.43584909439087 36.0 L 159.0 36.0 L 159.40319995880128 35.664000034332275 L 159.5 35.4 L 159.64089307785034 35.46592245101929 L 165.0 31.0 L 176.0 40.0 L 171.0 43.0 L 168.03065690994262 44.23722629547119 L 166.2 46.9 L 163.8 50.2 L 161.0 53.7 L 158.0 57.1 L 154.8 60.7 L 151.2 64.4 L 147.4 68.1 L 143.1 71.8 L 141.5277108192444 73.12771081924438 L 145.3 76.9 L 153.6 84.0 L 162.5 90.3 L 171.9 96.0 L 181.9 101.0 L 187.4 103.7 L 176.0 112.9 L 165.5 106.8 Z M 63.8 66.5 L 62.8 64.7 L 61.5 62.8 L 60.0 60.8 L 58.2 58.9 L 56.2 56.9 L 53.9 54.9 L 51.5 52.8 L 49.38202247619629 51.6704119682312 L 45.9 56.7 L 41.2 62.9 L 39.25049085617066 65.12244043350219 L 41.0 65.9 L 44.0 67.0 L 46.7 68.3 L 49.3 69.9 L 51.8 71.6 L 54.2 73.4 L 56.4 75.5 L 58.4 77.7 L 60.4 80.1 L 61.21200447082519 81.34188919067383 L 61.9 80.5 L 67.7476529121399 72.18150777816773 L 65.2 70.2 L 64.7 68.4 Z M 116.62452831268311 40.0 L 117.5 41.6 L 123.7 51.5 L 130.4 60.7 L 137.6 69.2 L 139.46000003814697 71.06000003814697 L 140.5 69.5 L 143.5 64.8 L 146.3 60.4 L 149.0 56.2 L 151.4 52.3 L 153.5 48.5 L 155.4 44.9 L 157.0 41.5 L 157.67741937637328 40.0 Z M 56.49726028442383 40.0 L 54.7 43.2 L 50.55296440124512 49.950988101959226 L 52.5 50.6 L 55.8 51.4 L 58.9 52.4 L 61.9 53.6 L 64.6 54.9 L 67.2 56.5 L 69.7 58.2 L 71.9 60.1 L 74.0 62.2 L 74.10549449920654 62.33479852676392 L 75.9 59.5 L 82.4 47.8 L 86.26879997253418 40.0 Z " />
</g>
</svg>
