<svg xmlns="http://www.w3.org/2000/svg" xmlns:xlink="http://www.w3.org/1999/xlink" version="1.1" baseProfile="full" viewBox="0 0 200 200" width="200" height="200">
<g fill="black">
<path d="M 165.0 40.0 L 177.0 50.0 L 177.0 54.0 L 150.0 54.0 L 150.0 117.0 L 161.0 117.0 L 171.0 107.0 L 183.0 117.0 L 183.0 121.0 L 150.0 121.0 L 150.0 182.0 L 159.0 182.0 L 169.0 172.0 L 181.0 182.0 L 181.0 186.0 L 19.0 186.0 L 19.0 182.0 L 45.0 182.0 L 45.0 121.0 L 16.0 121.0 L 16.0 117.0 L 45.0 117.0 L 45.0 62.66792449951172 L 42.2 67.0 L 36.4 75.2 L 30.3 83.4 L 23.7 91.5 L 16.7 99.5 L 15.2 98.4 L 20.6 89.3 L 25.9 80.4 L 30.9 71.6 L 35.7 63.0 L 40.2 54.6 L 44.4 46.2 L 48.2 37.9 L 51.8 29.8 L 55.1 21.7 L 57.66647891998291 14.620058250427245 L 57.6 14.6 L 58.5 12.3 L 69.2 18.1 L 71.2 21.0 L 67.58566045761108 21.634094619750975 L 65.5 26.2 L 61.5 34.3 L 57.2 42.4 L 52.93658533096313 50.0 L 155.0 50.0 Z M 57.0 121.0 L 57.0 182.0 L 76.0 182.0 L 76.0 121.0 Z M 88.0 121.0 L 88.0 182.0 L 107.0 182.0 L 107.0 121.0 Z M 119.0 121.0 L 119.0 182.0 L 138.0 182.0 L 138.0 121.0 Z M 57.0 54.0 L 57.0 117.0 L 76.0 117.0 L 76.0 54.0 Z M 88.0 54.0 L 88.0 117.0 L 107.0 117.0 L 107.0 54.0 Z M 119.0 54.0 L 119.0 117.0 L 138.0 117.0 L 138.0 54.0 Z " />
</g>
</svg>
