<svg xmlns="http://www.w3.org/2000/svg" xmlns:xlink="http://www.w3.org/1999/xlink" version="1.1" baseProfile="full" viewBox="0 0 200 200" width="200" height="200">
<g fill="black">
<path d="M 32.9 168.2 L 31.0 164.0 L 32.5 159.7 L 35.5 156.4 L 38.3 152.3 L 40.9 147.4 L 43.2 141.6 L 45.3 135.0 L 47.1 127.6 L 48.7 119.4 L 50.0 110.4 L 51.1 100.6 L 52.1 90.0 L 53.9 89.9 L 54.9 100.6 L 55.3 110.6 L 55.2 120.0 L 54.6 128.7 L 53.6 136.8 L 52.1 144.2 L 50.2 151.0 L 47.8 157.2 L 44.9 162.8 L 41.4 167.8 L 37.3 169.7 Z M 166.6 171.8 L 165.3 173.9 L 163.6 175.7 L 161.7 177.4 L 159.6 178.7 L 157.4 179.7 L 155.0 180.4 L 152.5 180.8 L 150.0 181.0 L 150.0 175.0 L 130.0 172.0 L 130.0 169.0 L 150.0 169.0 L 151.3 168.9 L 152.4 168.7 L 153.3 168.5 L 154.0 168.1 L 154.6 167.7 L 155.1 167.3 L 155.7 166.7 L 156.2 165.9 L 156.7 164.9 L 157.1 163.6 L 158.9 156.9 L 160.6 149.2 L 162.1 140.7 L 163.4 131.3 L 164.4 121.0 L 165.3 109.9 L 166.0 97.9 L 166.5 85.1 L 166.8 71.4 L 166.9722222328186 59.0 L 70.26090908050537 59.0 L 70.1 59.3 L 63.9 69.8 L 57.2 79.8 L 50.0 89.3 L 42.4 98.2 L 34.3 106.7 L 25.7 114.5 L 16.5 121.6 L 15.4 120.3 L 23.0 111.8 L 30.3 103.1 L 37.3 94.1 L 43.9 84.8 L 50.1 75.1 L 55.9 65.0 L 61.2 54.6 L 66.2 43.8 L 70.8 32.5 L 74.66764822006226 21.817923927307127 L 74.6 21.8 L 75.5 19.4 L 86.3 24.9 L 88.4 27.8 L 84.75948572158813 28.566424083709716 L 81.3 36.8 L 76.0 48.3 L 72.40636367797852 55.0 L 167.0 55.0 L 173.0 50.0 L 184.0 59.0 L 179.0 62.0 L 178.93111362457276 62.028702640533446 L 178.8 71.6 L 178.5 85.5 L 178.0 98.5 L 177.3 110.7 L 176.4 122.1 L 175.3 132.7 L 173.9 142.5 L 172.4 151.5 L 170.6 159.7 L 168.6 167.1 L 167.7 169.5 Z M 78.5 155.9 L 74.6 153.6 L 73.4 149.2 L 74.3 144.2 L 74.9 139.1 L 75.2 133.7 L 75.3 128.0 L 75.2 122.2 L 74.8 116.1 L 74.2 109.8 L 73.3 103.2 L 72.4 96.3 L 71.4 89.2 L 73.1 88.6 L 76.1 95.3 L 78.6 101.9 L 80.6 108.5 L 82.3 114.9 L 83.6 121.2 L 84.6 127.4 L 85.2 133.4 L 85.6 139.3 L 85.6 145.1 L 85.3 150.8 L 82.9 154.7 Z M 105.4 127.0 L 104.6 121.4 L 103.5 116.0 L 102.2 110.8 L 100.8 105.7 L 99.2 100.8 L 97.5 95.9 L 95.7 91.1 L 93.8 86.3 L 95.3 85.3 L 98.9 89.1 L 102.2 93.4 L 105.2 98.0 L 107.9 102.9 L 110.3 108.0 L 112.4 113.4 L 114.3 119.0 L 116.0 124.9 L 117.4 131.0 L 118.6 137.3 L 117.3 141.7 L 113.3 143.9 L 108.9 142.6 L 106.6 138.7 L 106.1 132.8 Z M 135.2 112.8 L 133.8 108.2 L 132.2 103.8 L 130.3 99.5 L 128.2 95.3 L 126.0 91.3 L 123.5 87.3 L 120.9 83.3 L 118.1 79.3 L 119.3 77.9 L 123.6 80.7 L 127.5 83.8 L 131.2 87.3 L 134.5 91.2 L 137.6 95.3 L 140.4 99.7 L 143.0 104.3 L 145.3 109.2 L 147.3 114.3 L 149.1 119.6 L 148.3 124.1 L 144.7 126.9 L 140.1 126.1 L 137.4 122.4 L 136.4 117.5 Z " />
</g>
</svg>
