<svg xmlns="http://www.w3.org/2000/svg" xmlns:xlink="http://www.w3.org/1999/xlink" version="1.1" baseProfile="full" viewBox="0 0 200 200" width="200" height="200">
<g fill="black">
<path d="M 91.0 187.0 L 91.0 185.19846153259277 L 85.7 176.8 L 87.6 176.0 L 91.0 174.81739130020142 L 91.0 13.0 L 103.0 15.0 L 106.0 17.0 L 103.0 18.8 L 103.0 55.0 L 119.81818180084228 55.0 L 128.0 46.0 L 138.0 55.0 L 138.0 59.0 L 103.0 59.0 L 103.0 102.0 L 119.81818180084228 102.0 L 128.0 93.0 L 138.0 102.0 L 138.0 106.0 L 103.0 106.0 L 103.0 170.35102043151855 L 106.8 168.8 L 111.8 166.8 L 116.9 164.7 L 122.1 162.6 L 127.4 160.4 L 132.8 158.2 L 138.5 156.2 L 139.4 157.7 L 134.7 161.5 L 130.0 165.1 L 125.2 168.4 L 120.4 171.5 L 115.6 174.4 L 110.8 177.2 L 106.1 179.9 L 101.4 182.4 L 96.8 184.8 L 95.965625 185.2171875 L 95.2 189.1 L 92.2 187.1 L 91.8642066001892 186.5678966522217 Z M 33.5 176.0 L 37.9 174.4 L 38.0 174.36086959838866 L 38.0 13.0 L 50.0 15.0 L 53.0 17.0 L 50.0 18.8 L 50.0 55.0 L 66.81818180084228 55.0 L 75.0 46.0 L 85.0 55.0 L 85.0 59.0 L 50.0 59.0 L 50.0 102.0 L 66.81818180084228 102.0 L 75.0 93.0 L 85.0 102.0 L 85.0 106.0 L 50.0 106.0 L 50.0 169.4659574508667 L 51.8 168.7 L 56.7 166.6 L 61.6 164.4 L 66.6 162.1 L 71.7 159.8 L 77.0 157.5 L 82.5 155.2 L 83.4 156.7 L 79.0 160.7 L 74.5 164.4 L 69.9 167.8 L 65.3 171.0 L 60.7 174.1 L 56.2 177.0 L 51.6 179.7 L 47.1 182.3 L 42.019345664978026 185.07126598358155 L 41.3 189.0 L 38.3 187.1 L 31.6 176.8 Z M 165.9 175.9 L 160.5 166.3 L 156.0 153.8 L 152.3 138.4 L 149.3 119.9 L 146.8 98.4 L 144.9 73.7 L 143.7 46.0 L 143.02253398895263 15.997934341430664 L 143.0 16.0 L 142.9 12.7 L 155.0 14.9 L 158.0 16.8 L 155.07260551452637 18.6149845123291 L 155.6 45.6 L 156.9 73.0 L 158.7 97.3 L 161.1 118.3 L 164.1 136.0 L 167.6 150.4 L 171.5 161.4 L 175.6 168.9 L 177.0615385055542 170.4 L 182.0 149.0 L 184.0 149.0 L 182.08915662765503 173.84096384048462 L 182.5 174.0 L 186.5 176.2 L 187.9 180.5 L 185.7 184.5 L 181.4 185.9 L 172.7 182.7 Z " />
</g>
</svg>
