<svg xmlns="http://www.w3.org/2000/svg" xmlns:xlink="http://www.w3.org/1999/xlink" version="1.1" baseProfile="full" viewBox="0 0 200 200" width="200" height="200">
<g fill="black">
<path d="M 89.55169486999512 19.227118682861327 L 97.0 26.2 L 97.1 29.4 L 93.36629838943482 27.894475173950195 L 88.9 29.7 L 84.1 31.5 L 79.0 33.3 L 68.5 36.8 L 63.0 38.4 L 57.4 40.0 L 51.5 41.5 L 45.5 42.7 L 45.0 42.787301540374756 L 45.0 82.0 L 70.0 82.0 L 80.0 72.0 L 92.0 82.0 L 92.0 86.0 L 45.0 86.0 L 45.0 126.0 L 70.0 126.0 L 80.0 116.0 L 92.0 126.0 L 92.0 130.0 L 45.0 130.0 L 45.0 181.0 L 33.0 187.0 L 33.0 35.0 L 42.875438594818114 39.93771934509277 L 44.3 39.2 L 49.7 36.4 L 55.1 33.8 L 60.3 31.3 L 65.4 28.9 L 70.3 26.4 L 75.1 24.1 L 79.7 21.7 L 84.2 19.3 L 87.63588514328003 17.462200927734376 L 87.6 17.4 L 87.65533132553101 17.45179948806763 L 88.5 17.0 Z M 173.0 45.0 L 168.0 49.0 L 168.0 178.0 L 156.0 184.0 L 156.0 130.0 L 110.0 130.0 L 110.0 126.0 L 156.0 126.0 L 156.0 86.0 L 110.0 86.0 L 110.0 82.0 L 156.0 82.0 L 156.0 45.0 L 109.0 45.0 L 109.0 41.0 L 156.0 41.0 L 162.0 36.0 Z " />
</g>
</svg>
