<svg xmlns="http://www.w3.org/2000/svg" xmlns:xlink="http://www.w3.org/1999/xlink" version="1.1" baseProfile="full" viewBox="0 0 200 200" width="200" height="200">
<g fill="black">
<path d="M 105.1 126.4 L 104.92395830154419 127.7 L 155.4 127.7 L 165.4 117.7 L 177.4 127.7 L 177.4 131.7 L 104.38229169845582 131.7 L 103.8 136.0 L 102.52860126495361 139.9457202911377 L 107.8 141.0 L 115.0 143.1 L 121.9 145.7 L 128.6 148.7 L 135.0 152.0 L 141.2 155.8 L 147.1 160.0 L 152.8 164.5 L 158.2 169.4 L 163.3 174.6 L 164.6 179.0 L 162.6 183.1 L 158.2 184.4 L 154.2 182.4 L 149.9 177.2 L 145.5 172.3 L 140.7 167.7 L 135.7 163.3 L 130.4 159.2 L 124.8 155.2 L 119.0 151.5 L 112.8 148.0 L 106.4 144.6 L 101.79353160858155 142.22697086334227 L 100.9 145.0 L 96.5 153.2 L 90.6 160.7 L 83.3 167.3 L 74.7 173.1 L 64.8 178.1 L 53.6 182.4 L 41.0 185.9 L 27.1 188.5 L 26.7 186.8 L 39.9 182.3 L 51.6 177.4 L 61.9 172.2 L 70.6 166.7 L 77.8 160.8 L 83.6 154.6 L 87.9 148.0 L 90.9 141.2 L 92.6 133.9 L 92.74102563858033 131.7 L 22.5 131.7 L 22.5 127.7 L 92.99743585586548 127.7 L 93.1 126.1 L 93.1 93.1 L 62.45 93.1 L 61.5 94.5 L 57.3 99.9 L 52.6 105.0 L 47.5 109.7 L 41.9 114.1 L 35.8 118.0 L 29.2 121.5 L 28.2 120.0 L 33.5 115.0 L 38.3 110.0 L 42.8 105.0 L 46.9 100.0 L 50.5 94.8 L 53.7 89.5 L 56.5 84.1 L 58.8 78.6 L 60.7 72.9 L 62.2 67.0 L 62.25541954040527 67.01481037139892 L 62.7 65.3 L 73.8 70.1 L 76.2 72.9 L 72.41294965744018 73.91438846588134 L 71.4 76.7 L 68.6 82.9 L 65.3 88.9 L 65.16428575515747 89.1 L 136.0 89.1 L 146.0 79.1 L 158.0 89.1 L 158.0 93.1 L 105.1 93.1 L 105.1 126.3 L 105.03442621231079 126.3983606338501 Z M 21.7 58.8 L 126.4 58.8 L 126.4 30.0 L 46.9 30.0 L 46.9 26.0 L 126.4 26.0 L 132.4 21.0 L 143.4 30.0 L 138.4 34.0 L 138.4 58.8 L 156.3 58.8 L 166.3 48.8 L 178.3 58.8 L 178.3 62.8 L 21.7 62.8 Z " />
</g>
</svg>
