<svg xmlns="http://www.w3.org/2000/svg" xmlns:xlink="http://www.w3.org/1999/xlink" version="1.1" baseProfile="full" viewBox="0 0 200 200" width="200" height="200">
<g fill="black">
<path d="M 13.9 156.9 L 20.0 156.1 L 26.2 155.2 L 29.0 154.7692307472229 L 29.0 63.2 L 13.0 63.2 L 13.0 59.2 L 54.0 59.2 L 54.0 30.0 L 19.0 30.0 L 19.0 26.0 L 84.0 26.0 L 94.0 16.0 L 106.0 26.0 L 106.0 30.0 L 66.0 30.0 L 66.0 59.2 L 91.0 59.2 L 101.0 49.2 L 113.0 59.2 L 113.0 63.2 L 90.0 63.2 L 90.0 183.8 L 78.0 189.8 L 78.0 150.3800000190735 L 76.7 150.9 L 69.4 153.6 L 62.1 156.0 L 55.1 158.2 L 48.1 160.3 L 41.4 162.2 L 34.8 164.0 L 28.4 165.7 L 22.1 167.3 L 20.050939273834228 167.77027626037597 L 18.5 171.3 L 16.0 168.7 L 11.9 157.2 Z M 41.0 123.6 L 41.0 152.9217391014099 L 46.3 152.0 L 53.3 150.9 L 60.6 149.6 L 68.1 148.4 L 75.8 147.3 L 78.0 146.99367084503174 L 78.0 123.6 Z M 41.0 93.4 L 41.0 119.6 L 78.0 119.6 L 78.0 93.4 Z M 41.0 63.2 L 41.0 89.4 L 78.0 89.4 L 78.0 63.2 Z " />
</g>
</svg>
