<svg xmlns="http://www.w3.org/2000/svg" xmlns:xlink="http://www.w3.org/1999/xlink" version="1.1" baseProfile="full" viewBox="0 0 200 200" width="200" height="200">
<g fill="black">
<path d="M 20.0 178.0 L 94.0 178.0 L 94.0 142.0 L 25.0 142.0 L 25.0 138.0 L 94.0 138.0 L 94.0 102.0 L 25.0 102.0 L 25.0 98.0 L 94.0 98.0 L 94.0 62.0 L 25.0 62.0 L 25.0 58.0 L 153.0 58.0 L 163.0 48.0 L 175.0 58.0 L 175.0 62.0 L 106.0 62.0 L 106.0 98.0 L 143.0 98.0 L 153.0 88.0 L 165.0 98.0 L 165.0 102.0 L 106.0 102.0 L 106.0 138.0 L 143.0 138.0 L 153.0 128.0 L 165.0 138.0 L 165.0 142.0 L 106.0 142.0 L 106.0 178.0 L 158.0 178.0 L 168.0 168.0 L 180.0 178.0 L 180.0 182.0 L 20.0 182.0 Z M 97.6 40.4 L 95.5 37.0 L 93.2 33.8 L 90.7 30.6 L 88.0 27.5 L 85.1 24.4 L 82.1 21.3 L 78.9 18.2 L 75.4 15.2 L 76.3 13.7 L 80.6 15.4 L 84.9 17.3 L 88.9 19.6 L 92.8 22.0 L 96.4 24.8 L 99.8 27.7 L 103.1 30.8 L 106.1 34.1 L 109.0 37.7 L 111.7 41.4 L 112.2 45.9 L 109.4 49.6 L 104.9 50.1 L 101.3 47.3 L 99.5 43.8 Z " />
</g>
</svg>
