<svg xmlns="http://www.w3.org/2000/svg" xmlns:xlink="http://www.w3.org/1999/xlink" version="1.1" baseProfile="full" viewBox="0 0 200 200" width="200" height="200">
<g fill="black">
<path d="M 152.9 177.0 L 164.5 177.0 L 165.1 176.9 L 165.6 176.8 L 165.8 176.7 L 165.9 176.6 L 166.1 176.5 L 166.3 176.1 L 166.5 175.5 L 166.7 174.6 L 166.9 173.4 L 167.0 172.0 L 167.0 32.0 L 105.0 32.0 L 105.0 179.5 L 95.0 184.5 L 95.0 32.0 L 34.0 32.0 L 34.0 182.0 L 22.0 188.0 L 22.0 22.0 L 34.0 28.0 L 167.0 28.0 L 172.0 23.0 L 182.0 32.0 L 177.0 35.0 L 177.0 172.0 L 176.9 174.3 L 176.6 176.5 L 176.0 178.6 L 175.2 180.6 L 174.1 182.5 L 172.6 184.1 L 170.8 185.4 L 168.7 186.3 L 166.6 186.8 L 164.5 187.0 L 164.5 182.0 L 152.9 179.5 Z M 151.8 160.3 L 151.6 157.0 L 151.18484849929808 154.26000003814698 L 150.4 155.0 L 146.7 158.1 L 142.8 161.0 L 138.8 163.8 L 134.8 166.4 L 130.6 169.0 L 126.3 171.4 L 121.9 173.8 L 117.5 176.0 L 116.7908899307251 176.3466760635376 L 115.9 180.3 L 113.0 178.2 L 106.7 167.8 L 108.6 167.1 L 113.1 165.6 L 122.1 162.4 L 130.6 159.11590909957886 L 130.6 121.5 L 121.0 121.5 L 121.0 133.5 L 112.0 138.0 L 112.0 66.2 L 121.0 70.7 L 130.6 70.7 L 130.6 36.9 L 140.6 38.9 L 143.1 40.9 L 140.6 42.56666669845581 L 140.6 70.7 L 150.2 70.7 L 154.7 65.7 L 164.2 74.7 L 159.2 77.2 L 159.2 121.5 L 150.2 126.0 L 150.2 121.5 L 140.6 121.5 L 140.6 155.02325582504272 L 144.0 153.6 L 148.5 151.9 L 150.61538457870483 151.03461542129517 L 150.5 150.4 L 149.7 147.1 L 148.7 143.8 L 147.6 140.4 L 146.4 136.9 L 144.7 133.5 L 146.1 132.5 L 151.5 138.1 L 153.8 141.2 L 156.0 144.4 L 157.9 147.7 L 159.5 151.2 L 160.9 154.8 L 162.1 158.5 L 163.1 162.3 L 163.8 166.2 L 162.3 170.5 L 158.2 172.6 L 153.9 171.1 L 151.9 167.0 L 151.9 163.7 Z M 41.3 178.0 L 38.4 174.5 L 38.6 169.9 L 40.0 167.6 L 41.4 165.2 L 42.6 162.6 L 43.7 159.9 L 44.7 157.0 L 45.6 153.9 L 46.3 150.7 L 47.0 147.3 L 47.6 143.8 L 47.7 140.1 L 49.5 139.9 L 51.3 147.3 L 51.9 150.9 L 52.2 154.5 L 52.3 158.1 L 52.2 161.6 L 51.8 165.1 L 51.3 168.5 L 50.4 171.9 L 49.4 175.2 L 45.9 178.2 Z M 66.8 167.5 L 62.7 165.6 L 61.1 161.3 L 61.9 156.7 L 62.5 151.9 L 62.6 149.4 L 62.7 146.8 L 62.7 144.2 L 62.6 141.5 L 62.6 138.8 L 62.0 136.1 L 63.7 135.5 L 64.9 138.0 L 66.4 140.5 L 67.8 143.0 L 70.0 148.2 L 70.8 150.8 L 71.6 153.5 L 72.2 156.3 L 72.7 159.0 L 73.0 161.8 L 71.0 165.9 Z M 80.7 147.7 L 80.5 145.9 L 80.2 143.9 L 79.7 141.8 L 79.1 139.6 L 78.2 137.2 L 77.2 134.7 L 76.0 132.0 L 74.2 129.6 L 75.6 128.4 L 77.8 130.6 L 80.2 132.4 L 82.4 134.3 L 84.4 136.3 L 86.2 138.3 L 87.8 140.4 L 89.2 142.5 L 90.5 144.7 L 91.5 147.0 L 92.4 149.3 L 91.1 153.7 L 87.1 156.0 L 82.7 154.7 L 80.4 150.7 L 80.6 149.3 Z M 77.4 116.6 L 77.24789915084838 115.77865543365479 L 76.3 116.3 L 72.3 118.3 L 68.2 120.3 L 64.1 122.2 L 59.8 124.1 L 55.6 125.9 L 51.3 127.7 L 46.9 129.4 L 46.41470584869385 129.5985294342041 L 45.3 133.5 L 42.5 131.2 L 37.0 120.4 L 38.9 119.8 L 43.4 118.6 L 47.85023260116577 117.53581399917603 L 49.6 113.4 L 52.8 105.9 L 56.1 98.7 L 59.2 91.7 L 62.1 84.9 L 64.9 78.4 L 67.5 72.0 L 69.9 65.9 L 72.2 60.0 L 73.87587633132935 55.22375259399414 L 73.8 55.2 L 74.7 53.0 L 85.3 58.8 L 87.3 61.8 L 83.60239524841309 62.38383235931396 L 82.6 64.5 L 79.7 70.3 L 76.6 76.3 L 73.2 82.4 L 69.7 88.7 L 65.9 95.2 L 61.9 101.7 L 57.5 108.5 L 52.9 115.2 L 51.82890176773071 116.64913291931153 L 52.5 116.5 L 57.0 115.4 L 61.4 114.4 L 65.8 113.3 L 70.3 112.4 L 74.7 111.5 L 76.30975608825683 111.24390239715576 L 76.3 111.2 L 75.4 108.4 L 74.5 105.5 L 73.4 102.6 L 72.1 99.5 L 70.8 96.3 L 69.0 93.3 L 70.4 92.2 L 75.6 97.2 L 78.0 99.7 L 80.2 102.3 L 82.2 104.9 L 84.1 107.7 L 85.8 110.4 L 87.3 113.3 L 88.6 116.1 L 89.7 119.1 L 88.9 123.6 L 85.2 126.2 L 80.7 125.4 L 78.0 121.7 L 77.8 119.2 Z M 121.0 74.7 L 121.0 117.5 L 130.6 117.5 L 130.6 74.7 Z M 140.6 74.7 L 140.6 117.5 L 150.2 117.5 L 150.2 74.7 Z M 49.3 81.8 L 48.4 79.8 L 47.4 77.7 L 46.3 75.6 L 43.5 71.4 L 40.1 67.0 L 37.9 65.2 L 38.8 63.7 L 41.5 65.0 L 44.2 66.1 L 46.8 67.4 L 49.01428575515747 68.72857141494751 L 50.0 66.1 L 51.2 62.2 L 52.4 58.6 L 53.5 55.2 L 54.5 51.9 L 55.4 48.9 L 56.3 46.1 L 57.0 43.4 L 57.5 41.0 L 57.783584880828855 39.752226734161376 L 57.6 39.7 L 58.5 37.4 L 69.2 43.0 L 71.3 46.0 L 66.99250812530518 46.755700302124026 L 66.5 47.6 L 65.0 50.0 L 63.3 52.6 L 61.5 55.3 L 59.5 58.2 L 57.4 61.1 L 55.0 64.2 L 52.5 67.4 L 50.79019603729248 69.89346408843994 L 51.7 70.5 L 53.9 72.3 L 56.0 74.2 L 58.0 76.3 L 59.8 78.5 L 61.5 80.9 L 61.7 85.5 L 58.6 88.9 L 54.1 89.1 L 50.6 86.0 L 50.0 83.9 Z " />
</g>
</svg>
