<svg xmlns="http://www.w3.org/2000/svg" xmlns:xlink="http://www.w3.org/1999/xlink" version="1.1" baseProfile="full" viewBox="0 0 200 200" width="200" height="200">
<g fill="black">
<path d="M 159.1 160.0 L 155.6 153.5 L 151.9 147.0 L 150.66733026504517 145.01570234298705 L 141.8 147.0 L 127.9 149.9 L 114.4 152.6 L 101.2 155.2 L 88.4 157.6 L 75.9 160.0 L 63.8 162.2 L 52.2 164.5 L 40.8 166.6 L 33.90418472290039 167.92855157852173 L 32.4 171.3 L 29.9 168.7 L 26.0 157.2 L 28.0 156.9 L 39.0 155.4 L 50.5 153.9 L 54.234639167785645 153.39360828399657 L 57.2 146.3 L 62.2 134.0 L 72.2 109.6 L 77.0 97.3 L 81.8 84.9 L 86.4 72.5 L 90.8 60.1 L 95.1 47.6 L 97.93962268829345 39.0 L 20.0 39.0 L 20.0 35.0 L 163.0 35.0 L 173.0 25.0 L 185.0 35.0 L 185.0 39.0 L 110.5619047164917 39.0 L 105.8 51.5 L 100.8 63.9 L 95.7 76.2 L 90.4 88.5 L 84.9 100.6 L 79.1 112.6 L 73.2 124.6 L 67.1 136.3 L 60.6 147.9 L 57.62329759597778 152.93412914276124 L 62.3 152.3 L 74.5 150.8 L 87.0 149.2 L 100.0 147.7 L 113.4 146.1 L 127.1 144.6 L 141.3 143.3 L 149.19559726715087 142.64657125473022 L 147.8 140.4 L 143.5 133.8 L 138.9 127.1 L 134.1 120.3 L 129.1 113.4 L 124.0 106.3 L 125.3 105.1 L 132.0 110.9 L 138.2 116.9 L 144.1 123.0 L 149.6 129.2 L 154.7 135.5 L 159.6 141.8 L 164.2 148.2 L 168.4 154.7 L 172.4 161.1 L 176.0 167.6 L 176.3 172.2 L 173.3 175.6 L 168.7 175.9 L 165.2 172.9 L 162.3 166.5 Z " />
</g>
</svg>
