<svg xmlns="http://www.w3.org/2000/svg" xmlns:xlink="http://www.w3.org/1999/xlink" version="1.1" baseProfile="full" viewBox="0 0 200 200" width="200" height="200">
<g fill="black">
<path d="M 74.5 129.0 L 75.9 132.3 L 72.17429485321045 132.23576374053954 L 69.9 135.4 L 65.0 141.7 L 59.8 147.9 L 54.3 154.0 L 48.5 160.0 L 42.4 165.9 L 35.9 171.6 L 29.2 177.2 L 22.1 182.5 L 14.5 187.6 L 13.4 186.3 L 19.6 179.7 L 25.5 173.3 L 31.3 166.9 L 36.9 160.6 L 42.2 154.3 L 47.2 148.0 L 51.9 141.7 L 56.3 135.3 L 60.5 129.0 L 63.885296726226805 123.44464130401612 L 63.8 123.4 L 64.9 121.8 Z M 157.2 168.3 L 153.9 162.1 L 150.3 156.1 L 146.5 150.3 L 142.5 144.8 L 138.2 139.4 L 133.7 134.3 L 129.1 129.2 L 124.2 124.3 L 125.3 122.8 L 131.5 126.3 L 137.3 130.3 L 142.9 134.8 L 148.2 139.7 L 153.2 145.0 L 157.9 150.7 L 162.4 156.7 L 166.6 163.1 L 170.5 169.7 L 174.2 176.8 L 174.3 181.3 L 171.2 184.7 L 166.6 184.8 L 163.2 181.7 L 160.4 174.9 Z M 186.0 102.0 L 186.0 106.0 L 14.0 106.0 L 14.0 102.0 L 164.0 102.0 L 174.0 92.0 Z " />
</g>
</svg>
