<svg xmlns="http://www.w3.org/2000/svg" xmlns:xlink="http://www.w3.org/1999/xlink" version="1.1" baseProfile="full" viewBox="0 0 200 200" width="200" height="200">
<g fill="black">
<path d="M 106.0 15.0 L 109.0 17.0 L 106.0 18.8 L 106.0 97.0 L 94.0 103.0 L 94.0 13.0 Z M 76.8 36.6 L 78.5 39.8 L 74.69728584289551 39.99669208526611 L 72.9 42.9 L 68.6 49.0 L 64.0 54.9 L 59.1 60.7 L 53.7 66.3 L 48.1 71.6 L 42.0 76.8 L 35.6 81.7 L 28.8 86.4 L 21.5 90.7 L 20.4 89.2 L 26.4 83.4 L 32.1 77.7 L 37.5 72.0 L 42.7 66.3 L 47.4 60.6 L 51.9 54.8 L 56.0 49.0 L 59.7 43.0 L 63.1 37.1 L 65.73507537841797 31.91485176086426 L 65.7 31.9 L 66.7 30.0 Z M 162.2 74.6 L 157.7 69.1 L 153.0 63.8 L 148.1 58.6 L 143.0 53.6 L 137.6 48.7 L 132.1 43.9 L 126.3 39.1 L 120.4 34.2 L 121.3 32.7 L 128.3 35.9 L 135.1 39.5 L 141.6 43.4 L 147.8 47.7 L 153.8 52.3 L 159.6 57.2 L 165.0 62.3 L 170.3 67.6 L 175.3 73.2 L 180.1 79.0 L 181.1 83.5 L 178.7 87.4 L 174.2 88.4 L 170.3 86.0 L 166.4 80.2 Z " />
</g>
</svg>
