<svg xmlns="http://www.w3.org/2000/svg" xmlns:xlink="http://www.w3.org/1999/xlink" version="1.1" baseProfile="full" viewBox="0 0 200 200" width="200" height="200">
<g fill="black">
<path d="M 65.0 62.0 L 135.0 62.0 L 141.0 57.0 L 152.0 66.0 L 147.0 70.0 L 147.0 91.0 L 135.0 97.0 L 135.0 89.0 L 65.0 89.0 L 65.0 92.0 L 53.0 98.0 L 53.0 56.0 Z M 65.0 66.0 L 65.0 85.0 L 135.0 85.0 L 135.0 66.0 Z M 13.4 77.5 L 12.7 73.0 L 15.3 69.2 L 17.3 68.1 L 19.2 66.6 L 21.1 64.7 L 22.9 62.1 L 24.5 59.0 L 26.0 55.4 L 27.3 51.2 L 28.4 46.5 L 29.4 41.2 L 30.1 35.4 L 31.9 35.3 L 32.6 41.2 L 33.01785717010498 45.1 L 94.0 45.1 L 94.0 11.9 L 106.0 13.9 L 109.0 15.9 L 106.0 17.7 L 106.0 45.1 L 126.09285717010498 45.1 L 129.0 41.8 L 132.1 37.7 L 135.1 34.0 L 137.8 30.5 L 140.2 27.4 L 142.3 24.6 L 144.2 22.1 L 145.6 19.9 L 146.8 17.9 L 147.12904176712036 17.28304672241211 L 147.0 17.2 L 148.0 15.8 L 157.1 23.7 L 158.3 27.1 L 153.79010372161866 26.555702209472656 L 153.5 26.8 L 151.2 28.7 L 148.7 30.7 L 145.9 33.0 L 142.7 35.5 L 139.2 38.1 L 135.3 41.0 L 131.0 44.0 L 129.5764705657959 45.1 L 170.0 45.1 L 170.5310344696045 44.65747127532959 L 170.8 44.0 L 171.10397272109986 44.18002271652222 L 176.0 40.1 L 187.0 49.1 L 182.0 52.1 L 178.08888893127443 53.729629611968996 L 177.6 54.3 L 175.6 56.5 L 173.4 58.8 L 171.1 61.2 L 168.6 63.8 L 165.8 66.4 L 162.9 69.0 L 159.8 71.8 L 156.6 74.8 L 155.3 73.6 L 157.6 70.0 L 159.5 66.3 L 161.4 62.9 L 163.2 59.7 L 164.8 56.6 L 166.3 53.8 L 167.7 51.1 L 168.62307691574097 49.1 L 33.2 49.1 L 33.2 52.0 L 32.9 56.9 L 32.2 61.5 L 31.0 65.8 L 29.4 69.7 L 27.4 73.3 L 24.8 76.6 L 21.7 79.4 L 17.2 80.1 Z M 57.4 36.9 L 56.1 34.6 L 54.7 32.4 L 53.0 30.1 L 51.2 27.9 L 49.1 25.6 L 46.8 23.3 L 44.3 20.9 L 41.4 18.9 L 42.2 17.3 L 45.6 18.6 L 49.0 19.8 L 52.2 21.2 L 55.3 22.7 L 58.1 24.5 L 60.8 26.4 L 63.3 28.5 L 65.7 30.7 L 67.8 33.1 L 69.8 35.7 L 70.2 40.3 L 67.4 43.8 L 62.8 44.2 L 59.2 41.4 L 58.4 39.1 Z " />
</g>
</svg>
