<svg xmlns="http://www.w3.org/2000/svg" xmlns:xlink="http://www.w3.org/1999/xlink" version="1.1" baseProfile="full" viewBox="0 0 200 200" width="200" height="200">
<g fill="black">
<path d="M 51.0 100.0 L 50.86757497787475 100.19863758087158 L 50.9 100.2 L 50.0 111.8 L 48.4 122.8 L 46.2 133.3 L 43.5 143.2 L 40.2 152.6 L 36.3 161.3 L 31.8 169.5 L 26.7 176.9 L 21.0 183.6 L 14.6 189.6 L 13.3 188.3 L 18.0 181.3 L 22.2 174.0 L 26.0 166.4 L 29.4 158.3 L 32.2 149.8 L 34.5 140.8 L 36.4 131.3 L 37.8 121.3 L 38.6 110.8 L 39.0 99.7 L 39.0 21.0 L 51.0 27.0 L 160.0 27.0 L 166.0 22.0 L 177.0 31.0 L 172.0 35.0 L 172.0 82.0 L 160.0 88.0 L 160.0 76.0 L 51.0 76.0 Z M 51.0 31.0 L 51.0 72.0 L 100.0 72.0 L 100.0 31.0 Z M 112.0 31.0 L 112.0 72.0 L 160.0 72.0 L 160.0 31.0 Z " />
</g>
</svg>
