<svg xmlns="http://www.w3.org/2000/svg" xmlns:xlink="http://www.w3.org/1999/xlink" version="1.1" baseProfile="full" viewBox="0 0 200 200" width="200" height="200">
<g fill="black">
<path d="M 18.0 174.0 L 66.0 174.0 L 66.0 124.0 L 32.0 124.0 L 32.0 120.0 L 66.0 120.0 L 66.0 70.0 L 26.0 70.0 L 26.0 66.0 L 66.0 66.0 L 66.0 20.0 L 78.0 22.0 L 81.0 24.0 L 78.0 25.8 L 78.0 66.0 L 122.0 66.0 L 122.0 20.0 L 134.0 22.0 L 137.0 24.0 L 134.0 25.8 L 134.0 66.0 L 152.0 66.0 L 162.0 56.0 L 174.0 66.0 L 174.0 70.0 L 134.0 70.0 L 134.0 120.0 L 146.0 120.0 L 156.0 110.0 L 168.0 120.0 L 168.0 124.0 L 134.0 124.0 L 134.0 174.0 L 160.0 174.0 L 170.0 164.0 L 182.0 174.0 L 182.0 178.0 L 18.0 178.0 Z M 78.0 124.0 L 78.0 174.0 L 122.0 174.0 L 122.0 124.0 Z M 78.0 70.0 L 78.0 120.0 L 122.0 120.0 L 122.0 70.0 Z " />
</g>
</svg>
