<svg xmlns="http://www.w3.org/2000/svg" xmlns:xlink="http://www.w3.org/1999/xlink" version="1.1" baseProfile="full" viewBox="0 0 200 200" width="200" height="200">
<g fill="black">
<path d="M 149.0 50.0 L 152.0 52.0 L 149.0 53.8 L 149.0 112.0 L 147.7 124.2 L 144.6 135.6 L 139.6 146.0 L 132.8 155.4 L 124.3 163.6 L 114.1 170.8 L 102.3 176.9 L 88.8 182.0 L 73.8 186.0 L 57.1 188.8 L 56.8 187.1 L 72.8 182.3 L 87.0 177.0 L 99.4 171.0 L 109.9 164.5 L 118.6 157.3 L 125.6 149.5 L 130.8 141.1 L 134.4 132.1 L 136.5 122.4 L 136.63102378845215 119.67470483779907 L 132.1 121.2 L 121.9 124.4 L 111.5 127.4 L 100.9 130.4 L 90.1 133.3 L 79.2 136.2 L 68.2 139.0 L 57.0 141.9 L 45.7 144.7 L 38.1574161529541 146.60204286575316 L 36.8 150.1 L 34.2 147.6 L 29.7 136.3 L 31.6 135.9 L 43.2 133.6 L 49.0 132.49043474197387 L 49.0 34.0 L 60.4 39.7 L 64.8 38.6 L 74.5 36.3 L 84.0 34.1 L 93.3 31.9 L 102.4 29.6 L 111.2 27.3 L 119.8 25.0 L 128.2 22.5 L 136.4 20.0 L 143.30574989318848 17.814636135101317 L 143.3 17.8 L 143.31436824798584 17.81190881729126 L 144.3 17.5 L 144.74206705093383 18.995226764678954 L 154.4 27.0 L 154.7 30.1 L 150.47906322479247 28.170428848266603 L 147.7 29.0 L 139.4 31.0 L 130.9 32.9 L 122.1 34.7 L 113.2 36.4 L 104.1 37.9 L 94.7 39.3 L 85.1 40.6 L 75.3 41.6 L 65.3 42.4 L 61.0 42.56862745285034 L 61.0 130.1734513282776 L 66.0 129.2 L 77.2 127.1 L 88.3 125.0 L 99.2 123.0 L 110.0 121.0 L 120.7 119.2 L 131.2 117.5 L 136.7712903022766 116.75716133117676 L 137.0 112.0 L 137.0 48.0 Z M 101.2 92.2 L 98.9 88.5 L 96.5 85.0 L 93.9 81.6 L 91.1 78.3 L 88.2 75.2 L 85.1 72.1 L 81.9 69.1 L 78.4 66.2 L 79.3 64.6 L 83.7 66.1 L 88.0 68.0 L 92.1 70.2 L 96.0 72.8 L 99.7 75.7 L 103.3 78.9 L 106.7 82.4 L 109.9 86.2 L 113.0 90.2 L 115.8 94.5 L 116.2 99.0 L 113.4 102.6 L 108.8 103.0 L 105.2 100.2 L 103.3 96.1 Z " />
</g>
</svg>
