<svg xmlns="http://www.w3.org/2000/svg" xmlns:xlink="http://www.w3.org/1999/xlink" version="1.1" baseProfile="full" viewBox="0 0 200 200" width="200" height="200">
<g fill="black">
<path d="M 139.7 139.9 L 127.2 126.5 L 114.4 113.6 L 110.51682577133178 109.95216960906983 L 104.0 117.3 L 88.5 133.1 L 72.4 148.0 L 55.7 161.9 L 38.4 174.8 L 20.5 186.7 L 19.4 185.2 L 36.1 171.8 L 52.3 157.8 L 68.0 143.1 L 83.1 127.7 L 97.7 111.6 L 104.05557785034179 103.88251256942749 L 101.2 101.2 L 87.6 89.3 L 73.5 77.9 L 59.2 67.0 L 44.4 56.4 L 29.4 46.2 L 30.3 44.7 L 46.5 53.2 L 62.2 62.6 L 77.4 72.6 L 92.3 83.4 L 106.7 94.8 L 109.53448276519775 97.22955665588378 L 111.7 94.6 L 125.2 76.9 L 138.1 58.3 L 150.4 39.0 L 162.3 18.8 L 162.8 17.9 L 172.6 24.8 L 174.2 28.0 L 170.5912438392639 28.062219905853272 L 160.1 45.1 L 146.9 64.4 L 133.2 82.9 L 118.9 100.5 L 116.50304346084594 103.20260868072509 L 120.7 106.8 L 134.3 119.4 L 147.6 132.6 L 160.4 146.4 L 172.8 160.9 L 174.0 165.3 L 171.8 169.3 L 167.4 170.5 L 163.4 168.4 L 151.7 153.9 Z M 111.3 171.7 L 108.9 168.5 L 106.4 165.3 L 103.7 162.3 L 100.7 159.4 L 97.5 156.5 L 94.0 153.7 L 90.4 150.9 L 86.5 148.2 L 87.2 146.5 L 91.9 147.8 L 96.5 149.4 L 100.8 151.3 L 105.0 153.5 L 108.9 156.0 L 112.6 158.8 L 116.2 161.8 L 119.5 165.0 L 122.6 168.5 L 125.5 172.2 L 126.2 176.8 L 123.5 180.5 L 119.0 181.2 L 115.3 178.6 L 113.4 175.1 Z M 56.8 113.8 L 54.3 110.2 L 51.6 106.7 L 48.7 103.2 L 45.6 99.9 L 42.3 96.7 L 38.9 93.5 L 35.3 90.4 L 31.4 87.2 L 32.3 85.6 L 37.1 87.3 L 41.7 89.2 L 46.1 91.6 L 50.3 94.2 L 54.4 97.1 L 58.2 100.3 L 61.8 103.7 L 65.3 107.3 L 68.5 111.2 L 71.5 115.3 L 72.2 119.8 L 69.5 123.5 L 65.0 124.2 L 61.3 121.5 L 59.1 117.6 Z M 164.3 110.3 L 162.1 106.6 L 159.8 103.2 L 157.4 100.0 L 154.9 97.0 L 152.3 94.1 L 149.5 91.3 L 146.6 88.6 L 143.5 86.2 L 144.2 84.6 L 148.2 85.8 L 152.2 87.3 L 156.0 89.3 L 159.7 91.6 L 163.2 94.3 L 166.6 97.3 L 169.9 100.6 L 173.0 104.3 L 176.0 108.2 L 178.8 112.5 L 179.2 117.0 L 176.4 120.6 L 171.8 121.0 L 168.2 118.2 L 166.3 114.1 Z M 104.3 56.9 L 101.6 52.8 L 98.6 48.8 L 95.5 44.9 L 92.2 41.1 L 88.7 37.4 L 85.1 33.7 L 81.3 30.0 L 77.3 26.2 L 78.3 24.7 L 83.4 26.9 L 88.3 29.4 L 92.9 32.4 L 97.3 35.5 L 101.5 39.0 L 105.5 42.6 L 109.3 46.5 L 113.0 50.5 L 116.4 54.8 L 119.6 59.3 L 120.2 63.8 L 117.5 67.5 L 113.0 68.1 L 109.3 65.5 L 106.9 61.1 Z " />
</g>
</svg>
