<svg xmlns="http://www.w3.org/2000/svg" xmlns:xlink="http://www.w3.org/1999/xlink" version="1.1" baseProfile="full" viewBox="0 0 200 200" width="200" height="200">
<g fill="black">
<path d="M 115.6 184.4 L 113.5 185.4 L 111.3 186.2 L 109.1 186.8 L 106.9 187.3 L 104.6 187.7 L 102.3 187.9 L 100.0 188.0 L 100.0 182.0 L 80.0 179.0 L 80.0 176.0 L 100.0 176.0 L 101.6 175.9 L 103.1 175.8 L 104.7 175.5 L 106.1 175.2 L 107.6 174.8 L 110.4 173.6 L 111.7 172.9 L 113.1 172.1 L 114.4 171.2 L 119.0 167.3 L 123.2 162.7 L 127.1 157.4 L 130.5 151.3 L 133.6 144.5 L 136.3 136.8 L 138.6 128.4 L 140.5 119.2 L 142.0 109.3 L 142.7685185432434 101.0 L 70.59606218338013 101.0 L 66.7 114.1 L 53.5 116.4 L 70.59317960739136 59.0 L 13.0 59.0 L 13.0 55.0 L 71.78434200286866 55.0 L 84.5 12.3 L 95.4 17.6 L 97.7 20.4 L 94.32073860168457 21.22887544631958 L 84.27689123153687 55.0 L 165.0 55.0 L 175.0 45.0 L 187.0 55.0 L 187.0 59.0 L 83.08725385665893 59.0 L 71.78569946289062 97.0 L 143.0 97.0 L 149.0 92.0 L 160.0 101.0 L 155.0 104.0 L 154.47350692749023 104.21937208175659 L 153.9 110.7 L 152.3 121.3 L 150.3 131.2 L 147.8 140.4 L 144.8 148.9 L 141.2 156.8 L 137.1 163.9 L 132.5 170.3 L 127.3 175.9 L 121.6 180.8 L 117.6 183.4 Z " />
</g>
</svg>
