<svg xmlns="http://www.w3.org/2000/svg" xmlns:xlink="http://www.w3.org/1999/xlink" version="1.1" baseProfile="full" viewBox="0 0 200 200" width="200" height="200">
<g fill="black">
<path d="M 56.273548412322995 41.636774158477785 L 60.9 40.4 L 70.8 37.8 L 80.4 35.2 L 89.7 32.5 L 98.9 29.7 L 107.7 26.8 L 116.4 23.7 L 124.7 20.6 L 132.9 17.3 L 139.801606464386 14.203125286102296 L 139.8 14.2 L 139.80289459228516 14.20254726409912 L 140.7 13.8 L 141.47753829956054 15.676233673095703 L 149.8 23.0 L 149.9 26.2 L 146.05894689559938 24.579555702209472 L 145.3 24.9 L 136.9 27.9 L 128.3 30.7 L 119.4 33.3 L 110.4 35.7 L 101.1 37.9 L 91.5 39.9 L 81.8 41.6 L 71.8 43.0 L 61.6 44.1 L 57.0 44.40666666030884 L 57.0 76.91238937377929 L 62.2 75.9 L 73.3 73.7 L 84.2 71.4 L 94.9 68.9 L 105.3 66.2 L 115.4 63.2 L 125.3 60.0 L 135.0 56.5 L 144.5 52.8 L 153.7 48.8 L 154.48732175827027 50.69984149932861 L 162.7 58.0 L 162.9 61.2 L 159.05041599273682 59.57595672607422 L 158.3 59.9 L 148.5 63.4 L 138.5 66.7 L 128.3 69.6 L 117.8 72.2 L 116.17503232955933 72.53725748062134 L 119.3 85.7 L 123.1 98.7 L 127.27679376602173 110.09125556945801 L 129.2 108.7 L 133.6 105.5 L 137.9 102.4 L 142.0 99.5 L 145.8 96.6 L 149.4 93.8 L 152.7 91.0 L 155.8 88.3 L 158.7 85.7 L 160.6011764526367 83.79882354736328 L 160.5 83.7 L 161.4 82.9 L 169.1 92.1 L 169.6 95.7 L 165.82043342590333 94.48513927459717 L 165.8 94.5 L 162.2 96.8 L 158.5 99.1 L 154.5 101.4 L 150.2 103.7 L 145.8 105.9 L 141.1 108.0 L 136.1 110.1 L 130.9 112.0 L 128.47125434875488 112.79486227035522 L 132.6 121.7 L 138.3 131.9 L 144.7 141.1 L 151.8 149.4 L 159.6 156.9 L 168.1 163.5 L 177.3 169.3 L 181.7 171.9 L 170.6 180.6 L 160.6 173.5 L 151.6 165.6 L 143.5 156.7 L 136.4 147.0 L 130.2 136.5 L 125.0 125.2 L 120.7 113.1 L 117.4 100.2 L 115.2 86.5 L 114.25799531936646 72.9351330757141 L 107.2 74.4 L 96.4 76.3 L 96.0 76.35765762329102 L 96.0 183.0 L 84.0 189.0 L 84.0 78.02767858505248 L 74.1 79.0 L 62.7 79.7 L 57.0 79.74871797561646 L 57.0 87.0 L 56.3 99.8 L 54.8 112.0 L 52.4 123.5 L 49.3 134.4 L 45.4 144.5 L 40.7 154.0 L 35.1 162.6 L 28.7 170.5 L 21.5 177.6 L 13.5 183.6 L 12.4 182.3 L 18.8 174.9 L 24.5 167.2 L 29.6 159.1 L 33.9 150.5 L 37.5 141.4 L 40.4 131.7 L 42.6 121.4 L 44.1 110.6 L 44.9 99.1 L 45.0 87.0 L 45.0 36.0 Z " />
</g>
</svg>
