<svg xmlns="http://www.w3.org/2000/svg" xmlns:xlink="http://www.w3.org/1999/xlink" version="1.1" baseProfile="full" viewBox="0 0 200 200" width="200" height="200">
<g fill="black">
<path d="M 78.4 43.7 L 80.6 46.6 L 76.98078680038452 47.425434589385986 L 74.4 54.2 L 70.0 64.2 L 65.1 73.9 L 59.8 83.2 L 57.995555591583255 86.0 L 159.0 86.0 L 169.0 76.0 L 181.0 86.0 L 181.0 90.0 L 55.41777782440185 90.0 L 54.0 92.2 L 47.7 100.8 L 40.9 108.9 L 33.7 116.7 L 25.9 123.9 L 17.6 130.6 L 16.3 129.3 L 23.2 121.3 L 29.6 113.1 L 35.8 104.9 L 41.5 96.4 L 46.8 87.7 L 51.7 78.7 L 56.1 69.5 L 60.2 59.9 L 63.8 50.2 L 66.62220306396485 41.00508031845093 L 66.6 41.0 L 67.4 38.5 Z " />
</g>
</svg>
