<svg xmlns="http://www.w3.org/2000/svg" xmlns:xlink="http://www.w3.org/1999/xlink" version="1.1" baseProfile="full" viewBox="0 0 200 200" width="200" height="200">
<g fill="black">
<path d="M 140.4 181.8 L 138.6 183.4 L 136.7 184.9 L 134.7 186.1 L 132.5 187.2 L 130.2 188.0 L 127.9 188.5 L 125.4 188.8 L 123.0 189.0 L 123.0 183.0 L 103.0 180.0 L 103.0 177.0 L 123.0 177.0 L 124.4 176.9 L 125.7 176.7 L 126.9 176.4 L 128.0 176.1 L 129.0 175.6 L 129.9 175.0 L 130.8 174.3 L 131.7 173.5 L 132.6 172.5 L 133.4 171.3 L 137.2 164.7 L 140.8 156.4 L 144.1 146.6 L 147.2 135.2 L 149.9 122.2 L 152.4 107.8 L 154.5 91.8 L 156.3 74.2 L 157.8 55.2 L 158.86536588668824 37.0 L 21.0 37.0 L 21.0 33.0 L 159.0 33.0 L 165.0 28.0 L 176.0 37.0 L 171.0 40.0 L 170.63818111419678 40.15075788497925 L 169.8 56.0 L 168.3 75.3 L 166.4 93.2 L 164.2 109.5 L 161.7 124.5 L 158.8 138.0 L 155.6 150.0 L 152.0 160.7 L 148.0 170.0 L 143.5 177.9 L 142.0 179.9 Z " />
</g>
</svg>
