<svg xmlns="http://www.w3.org/2000/svg" xmlns:xlink="http://www.w3.org/1999/xlink" version="1.1" baseProfile="full" viewBox="0 0 200 200" width="200" height="200">
<g fill="black">
<path d="M 47.0 100.2 L 45.5 111.7 L 43.5 122.4 L 41.0 132.4 L 38.0 141.7 L 34.4 150.3 L 30.3 158.2 L 25.7 165.2 L 20.4 171.4 L 14.6 176.6 L 13.3 175.3 L 17.4 169.0 L 21.1 162.4 L 24.5 155.2 L 27.4 147.5 L 29.9 139.2 L 32.0 130.2 L 33.7 120.6 L 34.9 110.3 L 35.6 99.4 L 36.0 87.8 L 36.0 31.0 L 47.96363639831543 36.981818199157715 L 53.2 36.4 L 68.1 34.7 L 82.4 33.0 L 96.3 31.2 L 109.7 29.3 L 122.6 27.2 L 135.1 25.0 L 147.1 22.6 L 158.6 20.1 L 169.6 17.3 L 169.9189781188965 18.682238483428954 L 180.3 27.2 L 180.6 30.2 L 176.286328125 28.103076171875 L 172.3 29.0 L 160.9 31.2 L 149.0 33.2 L 136.7 34.9 L 123.9 36.4 L 110.7 37.7 L 97.1 38.8 L 83.0 39.5 L 68.4 40.0 L 53.4 40.1 L 48.0 39.9948052406311 L 48.0 88.0 L 47.895813941955566 88.15627908706665 Z " />
</g>
</svg>
