<svg xmlns="http://www.w3.org/2000/svg" xmlns:xlink="http://www.w3.org/1999/xlink" version="1.1" baseProfile="full" viewBox="0 0 200 200" width="200" height="200">
<g fill="black">
<path d="M 112.8 14.6 L 115.6 16.9 L 112.24820976257324 18.417791843414307 L 109.1 40.2 L 104.2 64.0 L 103.91945705413818 65.0 L 162.0 65.0 L 172.0 55.0 L 184.0 65.0 L 184.0 69.0 L 102.79728507995605 69.0 L 98.0 86.1 L 90.6 106.4 L 82.0 124.8 L 72.1 141.5 L 61.0 156.3 L 48.7 169.1 L 35.1 180.0 L 20.4 188.7 L 19.5 187.2 L 32.8 177.0 L 44.9 165.3 L 55.9 152.2 L 65.7 137.4 L 74.4 121.1 L 81.9 103.0 L 88.4 83.2 L 91.88425922393799 69.0 L 21.0 69.0 L 21.0 65.0 L 92.86574077606201 65.0 L 93.7 61.6 L 97.9 38.4 L 100.88305082321168 13.44180793762207 L 101.1 11.2 Z " />
</g>
</svg>
