<svg xmlns="http://www.w3.org/2000/svg" xmlns:xlink="http://www.w3.org/1999/xlink" version="1.1" baseProfile="full" viewBox="0 0 200 200" width="200" height="200">
<g fill="black">
<path d="M 14.0 173.0 L 94.0 173.0 L 94.0 122.0 L 46.0 122.0 L 46.0 134.0 L 34.0 140.0 L 34.0 58.0 L 46.0 64.0 L 94.0 64.0 L 94.0 19.0 L 106.0 21.0 L 109.0 23.0 L 106.0 24.8 L 106.0 64.0 L 154.0 64.0 L 160.0 59.0 L 171.0 68.0 L 166.0 72.0 L 166.0 128.0 L 154.0 134.0 L 154.0 122.0 L 106.0 122.0 L 106.0 173.0 L 164.0 173.0 L 174.0 163.0 L 186.0 173.0 L 186.0 177.0 L 14.0 177.0 Z M 46.0 68.0 L 46.0 118.0 L 94.0 118.0 L 94.0 68.0 Z M 106.0 68.0 L 106.0 118.0 L 154.0 118.0 L 154.0 68.0 Z " />
</g>
</svg>
