<svg xmlns="http://www.w3.org/2000/svg" xmlns:xlink="http://www.w3.org/1999/xlink" version="1.1" baseProfile="full" viewBox="0 0 200 200" width="200" height="200">
<g fill="black">
<path d="M 137.4 174.5 L 157.4 174.5 L 158.7 174.4 L 159.6 174.2 L 160.5 173.9 L 160.7 173.7 L 160.8 173.5 L 161.0 173.2 L 161.2 172.6 L 161.4 171.7 L 161.4 34.3 L 39.5 34.3 L 39.5 181.4 L 27.5 187.4 L 27.5 24.2 L 39.5 30.3 L 161.4 30.3 L 167.4 25.2 L 178.4 34.3 L 173.4 38.3 L 173.4 170.5 L 173.3 173.0 L 172.9 175.5 L 172.0 177.9 L 170.8 180.2 L 169.2 182.2 L 167.2 183.8 L 164.9 185.1 L 162.5 185.9 L 160.0 186.3 L 157.4 186.5 L 157.4 180.5 L 137.4 177.5 Z M 148.0 104.0 L 148.0 108.0 L 53.0 108.0 L 53.0 104.0 L 126.0 104.0 L 136.0 94.0 Z " />
</g>
</svg>
