<svg xmlns="http://www.w3.org/2000/svg" xmlns:xlink="http://www.w3.org/1999/xlink" version="1.1" baseProfile="full" viewBox="0 0 200 200" width="200" height="200">
<g fill="black">
<path d="M 144.8 156.4 L 140.2 152.6 L 135.2 148.9 L 129.8 145.2 L 124.0 141.6 L 117.7 138.0 L 111.1 134.5 L 104.0 130.8 L 102.0 129.8 L 102.0 183.0 L 90.0 189.0 L 90.0 112.0 L 16.0 112.0 L 16.0 108.0 L 162.0 108.0 L 172.0 98.0 L 184.0 108.0 L 184.0 112.0 L 102.0 112.0 L 102.0 126.51219511032104 L 105.4 127.3 L 113.1 129.5 L 120.5 132.0 L 127.4 134.8 L 134.0 137.8 L 140.2 141.0 L 146.0 144.3 L 151.4 147.9 L 156.4 151.6 L 161.1 155.6 L 162.8 159.8 L 161.1 164.1 L 156.8 165.8 L 152.6 164.1 L 148.9 160.2 Z M 16.0 82.0 L 90.0 82.0 L 90.0 13.0 L 102.0 15.0 L 105.0 17.0 L 102.0 18.8 L 102.0 46.0 L 150.0 46.0 L 160.0 36.0 L 172.0 46.0 L 172.0 50.0 L 102.0 50.0 L 102.0 82.0 L 162.0 82.0 L 172.0 72.0 L 184.0 82.0 L 184.0 86.0 L 16.0 86.0 Z " />
</g>
</svg>
