<svg xmlns="http://www.w3.org/2000/svg" xmlns:xlink="http://www.w3.org/1999/xlink" version="1.1" baseProfile="full" viewBox="0 0 200 200" width="200" height="200">
<g fill="black">
<path d="M 149.0 169.1 L 137.3 158.5 L 127.3 146.9 L 119.0 134.1 L 112.3 120.4 L 107.3 105.7 L 104.1 90.0 L 103.24171543121338 80.50165042877197 L 101.8 89.2 L 97.0 106.1 L 90.4 121.8 L 82.0 136.2 L 71.9 149.4 L 60.1 161.3 L 46.5 171.9 L 31.3 181.0 L 14.3 188.8 L 13.6 187.1 L 29.3 177.8 L 43.3 167.6 L 55.6 156.5 L 66.1 144.6 L 74.9 131.7 L 82.0 117.8 L 87.4 103.0 L 91.3 87.0 L 93.4 70.1 L 93.83425416946412 57.0 L 20.0 57.0 L 20.0 53.0 L 93.9668508529663 53.0 L 94.0 52.0 L 94.0 13.0 L 106.0 15.0 L 109.0 17.0 L 106.0 18.8 L 106.0 52.0 L 105.93717279434205 53.0 L 158.0 53.0 L 168.0 43.0 L 180.0 53.0 L 180.0 57.0 L 105.68586387634278 57.0 L 105.44328804016114 60.860998439788816 L 106.8 73.0 L 109.9 88.9 L 114.2 103.5 L 119.9 117.0 L 125.30361995697021 126.49493207931519 L 127.8 123.0 L 132.1 117.1 L 136.2 111.5 L 140.0 106.3 L 143.5 101.5 L 146.8 96.9 L 149.7 92.6 L 152.2 88.6 L 154.5 84.9 L 155.87493572235107 82.43958864212036 L 155.8 82.4 L 156.9 80.7 L 166.4 88.0 L 167.9 91.4 L 163.9035957336426 91.26452865600587 L 163.8 91.4 L 160.9 94.9 L 157.6 98.7 L 154.0 102.7 L 150.1 106.9 L 145.8 111.3 L 141.1 115.9 L 136.1 120.7 L 130.6 125.6 L 126.66194849014282 128.88170957565308 L 126.9 129.3 L 135.3 140.5 L 145.0 150.6 L 156.2 159.7 L 168.7 167.9 L 182.8 175.0 L 188.5 177.7 L 177.1 186.9 L 162.3 178.6 Z M 58.4 114.4 L 56.4 110.7 L 54.0 107.0 L 51.3 103.3 L 48.2 99.5 L 44.7 95.6 L 40.9 91.7 L 36.7 87.5 L 32.3 83.3 L 33.3 81.8 L 38.9 84.5 L 44.2 87.4 L 49.0 90.7 L 53.4 94.0 L 57.5 97.5 L 61.2 101.1 L 64.5 104.9 L 67.5 108.8 L 70.1 112.8 L 72.4 116.9 L 72.3 121.5 L 69.1 124.7 L 64.5 124.7 L 61.3 121.4 L 60.0 117.9 Z " />
</g>
</svg>
