<svg xmlns="http://www.w3.org/2000/svg" xmlns:xlink="http://www.w3.org/1999/xlink" version="1.1" baseProfile="full" viewBox="0 0 200 200" width="200" height="200">
<g fill="black">
<path d="M 47.6 181.6 L 35.6 187.6 L 35.6 128.0 L 47.6 134.0 L 151.3 134.0 L 157.3 129.0 L 168.3 138.0 L 163.3 142.0 L 163.3 178.6 L 151.3 184.6 L 151.3 174.6 L 47.6 174.6 Z M 47.6 138.0 L 47.6 170.6 L 73.9 170.6 L 73.9 138.0 Z M 85.9 138.0 L 85.9 170.6 L 113.0 170.6 L 113.0 138.0 Z M 125.0 138.0 L 125.0 170.6 L 151.3 170.6 L 151.3 138.0 Z M 17.0 115.0 L 94.0 115.0 L 94.0 95.0 L 42.0 95.0 L 42.0 91.0 L 94.0 91.0 L 94.0 73.0 L 36.0 73.0 L 36.0 69.0 L 94.0 69.0 L 94.0 50.0 L 106.0 52.0 L 109.0 54.0 L 106.0 55.8 L 106.0 69.0 L 142.0 69.0 L 152.0 59.0 L 154.7061224937439 61.25510206222534 L 155.9 59.0 L 157.6 55.7 L 159.3 52.6 L 160.8 49.7 L 162.2 47.0 L 163.4 44.5 L 164.17916669845582 42.8 L 37.34489793777466 42.8 L 37.4 45.5 L 37.1 50.1 L 36.5 54.5 L 35.4 58.5 L 34.0 62.3 L 32.1 65.7 L 29.7 68.8 L 26.7 71.5 L 22.2 72.2 L 18.5 69.7 L 17.7 65.1 L 20.3 61.4 L 22.1 60.4 L 23.9 59.1 L 25.6 57.3 L 27.3 54.9 L 28.9 52.1 L 30.3 48.6 L 31.5 44.7 L 32.6 40.2 L 33.6 35.3 L 34.2 29.8 L 36.0 29.8 L 36.7 35.3 L 37.096226406097415 38.8 L 94.0 38.8 L 94.0 11.4 L 106.0 13.4 L 109.0 15.4 L 106.0 17.2 L 106.0 38.8 L 165.4 38.8 L 166.0 38.3 L 166.2 37.8 L 166.43636360168458 37.93636360168457 L 171.4 33.8 L 182.4 42.8 L 177.4 45.8 L 173.5290322303772 47.412903213500975 L 173.2 47.8 L 171.3 49.8 L 169.2 52.0 L 167.0 54.3 L 164.6 56.6 L 162.0 59.1 L 159.2 61.6 L 157.16000003814696 63.3 L 164.0 69.0 L 164.0 73.0 L 106.0 73.0 L 106.0 91.0 L 139.8181818008423 91.0 L 148.0 82.0 L 158.0 91.0 L 158.0 95.0 L 106.0 95.0 L 106.0 115.0 L 164.8181818008423 115.0 L 173.0 106.0 L 183.0 115.0 L 183.0 119.0 L 17.0 119.0 Z " />
</g>
</svg>
