<svg xmlns="http://www.w3.org/2000/svg" xmlns:xlink="http://www.w3.org/1999/xlink" version="1.1" baseProfile="full" viewBox="0 0 200 200" width="200" height="200">
<g fill="black">
<path d="M 84.3 78.6 L 83.9 76.6 L 83.3 74.5 L 82.5 72.4 L 81.5 70.2 L 80.3 67.9 L 78.9 65.5 L 77.3 63.0 L 75.2 60.9 L 76.4 59.5 L 78.9 61.2 L 81.6 62.7 L 84.1 64.4 L 86.4 66.2 L 88.6 68.1 L 90.5 70.2 L 92.2 72.4 L 93.8 74.7 L 95.2 77.1 L 96.3 79.7 L 95.5 84.2 L 92.48518514633179 86.4 L 121.91666669845581 86.4 L 121.8 86.3 L 123.8 83.2 L 125.5 80.0 L 127.2 76.9 L 128.8 73.9 L 130.4 71.0 L 131.9 68.1 L 133.3 65.3 L 134.6 62.6 L 135.8 59.9 L 136.60625 58.153125 L 136.5 58.1 L 137.5 56.4 L 147.3 63.5 L 148.8 66.8 L 144.61019830703736 66.72776203155517 L 143.3 68.3 L 138.9 73.1 L 136.6 75.5 L 134.1 78.0 L 131.6 80.3 L 128.8 82.7 L 126.0 85.0 L 124.43199996948242 86.4 L 149.6 86.4 L 159.6 76.4 L 171.6 86.4 L 171.6 90.4 L 116.5 90.4 L 116.5 115.3 L 144.0 115.3 L 154.0 105.3 L 166.0 115.3 L 166.0 119.3 L 116.5 119.3 L 116.5 143.4 L 156.1 143.4 L 166.1 133.4 L 178.1 143.4 L 178.1 147.4 L 116.5 147.4 L 116.5 182.3 L 104.5 188.3 L 104.5 147.4 L 42.8 147.4 L 42.8 143.4 L 104.5 143.4 L 104.5 119.3 L 54.9 119.3 L 54.9 115.3 L 104.5 115.3 L 104.5 90.4 L 49.3 90.4 L 49.3 86.4 L 88.9875 86.4 L 87.3 86.1 L 84.6 82.4 L 84.5 80.5 Z M 45.0 23.0 L 161.0 23.0 L 167.0 18.0 L 178.0 27.0 L 173.0 31.0 L 173.0 60.0 L 161.0 66.0 L 161.0 56.0 L 45.0 56.0 L 45.0 87.0 L 44.4 99.7 L 43.3 111.8 L 41.7 123.3 L 39.5 134.2 L 36.8 144.5 L 33.6 154.1 L 29.7 163.1 L 25.4 171.4 L 20.3 178.8 L 14.7 185.5 L 13.2 184.4 L 17.1 176.9 L 20.6 169.0 L 23.7 160.6 L 26.3 151.8 L 28.6 142.4 L 30.4 132.5 L 31.7 122.0 L 32.6 110.9 L 33.0 99.2 L 33.0 17.0 Z M 45.0 27.0 L 45.0 52.0 L 161.0 52.0 L 161.0 27.0 Z " />
</g>
</svg>
