<svg xmlns="http://www.w3.org/2000/svg" xmlns:xlink="http://www.w3.org/1999/xlink" version="1.1" baseProfile="full" viewBox="0 0 200 200" width="200" height="200">
<g fill="black">
<path d="M 148.05479307174681 14.542116260528564 L 158.6 23.3 L 159.0 26.3 L 154.52751054763795 24.1241943359375 L 150.2 25.0 L 139.6 26.8 L 128.8 28.5 L 117.9 30.1 L 106.8 31.5 L 106.0 31.584955787658693 L 106.0 53.0 L 163.0 53.0 L 173.0 43.0 L 185.0 53.0 L 185.0 57.0 L 106.0 57.0 L 106.0 77.4 L 145.3 77.4 L 151.3 72.4 L 162.3 81.4 L 157.3 85.4 L 157.3 148.6 L 145.3 154.6 L 145.3 142.6 L 106.0 142.6 L 106.0 182.0 L 94.0 188.0 L 94.0 142.6 L 54.7 142.6 L 54.7 154.6 L 42.7 160.6 L 42.7 71.4 L 54.7 77.4 L 94.0 77.4 L 94.0 57.0 L 15.0 57.0 L 15.0 53.0 L 94.0 53.0 L 94.0 32.84601774215698 L 84.2 33.8 L 72.6 34.7 L 60.9 35.4 L 49.0 35.8 L 37.0 35.8 L 36.9 34.1 L 48.7 32.0 L 60.3 30.0 L 71.9 28.2 L 83.2 26.3 L 94.4 24.3 L 105.4 22.3 L 116.2 20.2 L 126.9 18.0 L 137.4 15.7 L 146.8085159301758 13.52880401611328 L 146.8 13.5 L 146.82899265289308 13.52407865524292 L 147.8 13.3 Z M 54.7 111.1 L 54.7 138.6 L 94.0 138.6 L 94.0 111.1 Z M 106.0 111.1 L 106.0 138.6 L 145.3 138.6 L 145.3 111.1 Z M 54.7 81.4 L 54.7 107.1 L 94.0 107.1 L 94.0 81.4 Z M 106.0 81.4 L 106.0 107.1 L 145.3 107.1 L 145.3 81.4 Z " />
</g>
</svg>
