<svg xmlns="http://www.w3.org/2000/svg" xmlns:xlink="http://www.w3.org/1999/xlink" version="1.1" baseProfile="full" viewBox="0 0 200 200" width="200" height="200">
<g fill="black">
<path d="M 147.0 146.2 L 149.0 146.2 L 147.0 171.2 L 150.6 173.6 L 153.0 177.2 L 150.6 180.7 L 147.0 183.2 L 76.0 183.2 L 73.4 183.0 L 70.9 182.6 L 68.5 181.8 L 66.2 180.5 L 64.2 178.9 L 62.6 176.9 L 61.3 174.6 L 60.5 172.2 L 60.1 169.7 L 60.0 167.2 L 60.0 127.7 L 72.0 129.7 L 75.0 131.7 L 72.0 133.5 L 72.0 168.4 L 72.2 169.3 L 72.5 170.2 L 72.9 170.6 L 73.8 170.9 L 74.7 171.1 L 76.0 171.2 L 141.0 171.2 Z M 15.4 174.9 L 14.7 170.4 L 17.4 166.7 L 20.2 165.0 L 22.8 163.0 L 25.2 160.6 L 27.5 157.6 L 29.5 154.1 L 31.3 150.2 L 32.8 145.6 L 34.1 140.5 L 35.2 134.9 L 36.1 128.8 L 37.9 128.7 L 38.8 135.0 L 39.2 141.0 L 39.0 146.7 L 38.4 152.1 L 37.2 157.1 L 35.6 161.8 L 33.4 166.2 L 30.7 170.2 L 27.4 173.8 L 23.7 176.9 L 19.1 177.6 Z M 170.2 160.0 L 168.6 156.3 L 166.7 152.7 L 164.5 149.0 L 161.9 145.5 L 159.0 141.9 L 155.8 138.3 L 152.2 134.6 L 148.3 130.9 L 149.3 129.4 L 154.3 131.7 L 159.0 134.3 L 163.3 137.2 L 167.3 140.4 L 170.9 143.8 L 174.2 147.4 L 177.2 151.2 L 179.8 155.3 L 182.0 159.6 L 183.9 164.0 L 183.3 168.6 L 179.8 171.5 L 175.3 170.9 L 172.3 167.4 L 171.4 163.7 Z M 108.1 145.8 L 106.2 142.9 L 104.2 140.1 L 101.9 137.3 L 99.4 134.6 L 96.8 131.9 L 93.9 129.3 L 90.8 126.7 L 87.5 124.2 L 88.2 122.6 L 92.3 124.0 L 96.3 125.4 L 100.1 127.1 L 103.7 129.1 L 107.2 131.4 L 110.5 133.8 L 113.5 136.5 L 116.4 139.4 L 119.1 142.6 L 121.6 145.9 L 122.2 150.4 L 119.5 154.1 L 114.9 154.6 L 111.3 151.9 L 109.8 148.8 Z M 185.0 113.0 L 185.0 117.0 L 15.0 117.0 L 15.0 113.0 L 163.0 113.0 L 173.0 103.0 Z M 46.0 100.0 L 34.0 106.0 L 34.0 52.0 L 46.0 58.0 L 94.0 58.0 L 94.0 39.0 L 20.0 39.0 L 20.0 35.0 L 94.0 35.0 L 94.0 14.0 L 106.0 16.0 L 109.0 18.0 L 106.0 19.8 L 106.0 35.0 L 158.0 35.0 L 168.0 25.0 L 180.0 35.0 L 180.0 39.0 L 106.0 39.0 L 106.0 58.0 L 154.0 58.0 L 160.0 53.0 L 171.0 62.0 L 166.0 66.0 L 166.0 99.0 L 154.0 105.0 L 154.0 97.0 L 46.0 97.0 Z M 46.0 62.0 L 46.0 93.0 L 74.0 93.0 L 74.0 62.0 Z M 86.0 93.0 L 114.0 93.0 L 114.0 62.0 L 86.0 62.0 Z M 126.0 62.0 L 126.0 93.0 L 154.0 93.0 L 154.0 62.0 Z " />
</g>
</svg>
