<svg xmlns="http://www.w3.org/2000/svg" xmlns:xlink="http://www.w3.org/1999/xlink" version="1.1" baseProfile="full" viewBox="0 0 200 200" width="200" height="200">
<g fill="black">
<path d="M 70.0 175.0 L 91.2 175.0 L 92.1 174.8 L 92.7 174.6 L 93.0 174.4 L 93.2 174.3 L 93.4 174.1 L 93.7 173.2 L 93.9 172.3 L 94.0 171.0 L 94.0 99.2 L 106.0 101.2 L 109.0 103.2 L 106.0 105.0 L 106.0 115.23260869979859 L 109.9 122.1 L 114.9 129.5 L 120.5 136.3 L 124.66222219467163 140.46222219467163 L 126.9 138.9 L 132.1 135.4 L 142.0 128.8 L 146.7 125.6 L 151.2 122.4 L 155.4 119.3 L 159.5 116.2 L 163.3 113.1 L 166.134285736084 110.7380952835083 L 166.1 110.7 L 166.5 110.4333333015442 L 166.9 110.1 L 166.93364057540893 110.14423961639405 L 167.0 110.1 L 174.2 119.7 L 174.4 123.3 L 170.80149745941162 121.83394346237182 L 169.9 122.4 L 165.5 125.1 L 160.9 127.7 L 156.0 130.3 L 151.0 132.9 L 145.7 135.4 L 140.3 137.8 L 134.6 140.2 L 128.6 142.3 L 127.05 142.775 L 133.7 148.0 L 141.4 153.0 L 149.8 157.3 L 159.1 161.2 L 169.3 164.4 L 180.2 167.1 L 188.9 169.2 L 177.2 179.9 L 165.5 176.4 L 154.7 172.1 L 144.8 167.2 L 135.8 161.6 L 127.8 155.3 L 120.8 148.4 L 114.8 140.8 L 109.9 132.7 L 106.1 123.9 L 106.0 123.52799997329711 L 106.0 171.0 L 105.8 173.6 L 105.4 176.1 L 104.6 178.5 L 103.3 180.8 L 101.7 182.8 L 99.7 184.4 L 97.4 185.6 L 95.0 186.5 L 92.5 186.9 L 90.0 187.0 L 90.0 181.0 L 70.0 178.0 Z M 86.8 126.6 L 81.8 129.6 L 80.284379196167 130.23150863647462 L 79.4 133.0 L 76.0 139.8 L 71.5 146.0 L 66.0 151.8 L 59.6 157.1 L 52.2 161.9 L 43.8 166.2 L 34.6 170.1 L 24.3 173.4 L 13.1 176.2 L 12.5 174.5 L 23.0 169.9 L 32.4 165.2 L 40.7 160.4 L 48.0 155.5 L 54.2 150.5 L 59.4 145.3 L 63.5 140.0 L 66.6 134.6 L 68.7 129.1 L 69.23571424484253 126.6 L 24.4 126.6 L 24.4 122.6 L 69.8 122.6 L 75.8 117.6 Z M 15.0 93.4 L 94.0 93.4 L 94.0 72.4 L 30.0 72.4 L 30.0 68.4 L 94.0 68.4 L 94.0 47.4 L 22.0 47.4 L 22.0 43.4 L 117.3 43.4 L 118.8 41.3 L 121.0 37.7 L 123.2 34.3 L 125.3 31.0 L 127.3 27.9 L 129.1 24.8 L 130.9 21.8 L 132.5 18.9 L 134.0 16.1 L 134.94480876922609 14.277868843078613 L 134.8 14.2 L 135.9 12.6 L 145.4 19.9 L 146.9 23.2 L 142.7843523979187 23.06048650741577 L 141.0 25.0 L 138.6 27.6 L 136.1 30.2 L 133.4 32.9 L 130.5 35.5 L 127.5 38.1 L 124.4 40.8 L 121.0 43.3 L 120.8740740776062 43.4 L 156.0 43.4 L 166.0 33.4 L 178.0 43.4 L 178.0 47.4 L 106.0 47.4 L 106.0 68.4 L 148.0 68.4 L 158.0 58.4 L 170.0 68.4 L 170.0 72.4 L 106.0 72.4 L 106.0 93.4 L 163.0 93.4 L 173.0 83.4 L 185.0 93.4 L 185.0 97.4 L 15.0 97.4 Z M 69.6 34.8 L 68.6 32.4 L 67.3 30.0 L 65.8 27.6 L 64.1 25.1 L 62.3 22.7 L 60.2 20.2 L 58.0 17.6 L 55.3 15.3 L 56.3 13.8 L 59.5 15.4 L 62.8 16.8 L 65.8 18.5 L 68.7 20.4 L 71.4 22.4 L 73.9 24.6 L 76.3 26.9 L 78.4 29.3 L 80.4 31.9 L 82.2 34.7 L 82.3 39.3 L 79.2 42.6 L 74.6 42.7 L 71.2 39.6 L 70.5 37.2 Z " />
</g>
</svg>
