<svg xmlns="http://www.w3.org/2000/svg" xmlns:xlink="http://www.w3.org/1999/xlink" version="1.1" baseProfile="full" viewBox="0 0 200 200" width="200" height="200">
<g fill="black">
<path d="M 51.4 166.9 L 60.0 165.0 L 68.8 163.0 L 77.8 160.9 L 87.1 158.8 L 91.0 157.88723402023317 L 91.0 98.0 L 58.0 98.0 L 58.0 94.0 L 91.0 94.0 L 91.0 38.0 L 54.0 38.0 L 54.0 34.0 L 122.0 34.0 L 132.0 24.0 L 144.0 34.0 L 144.0 38.0 L 103.0 38.0 L 103.0 94.0 L 118.0 94.0 L 128.0 84.0 L 140.0 94.0 L 140.0 98.0 L 103.0 98.0 L 103.0 155.0744897842407 L 106.3 154.3 L 116.2 151.9 L 126.4 149.6 L 136.9 147.3 L 147.7 145.1 L 148.2 146.8 L 138.0 150.9 L 127.9 154.7 L 118.1 158.2 L 108.3 161.6 L 98.8 164.7 L 89.5 167.7 L 80.4 170.6 L 71.6 173.4 L 62.9 176.0 L 58.357915019989015 177.3359073638916 L 57.1 180.9 L 54.4 178.5 L 49.5 167.4 Z " />
</g>
</svg>
