<svg xmlns="http://www.w3.org/2000/svg" xmlns:xlink="http://www.w3.org/1999/xlink" version="1.1" baseProfile="full" viewBox="0 0 200 200" width="200" height="200">
<g fill="black">
<path d="M 135.0 178.4 L 116.4 176.0 L 99.9 171.9 L 85.6 166.2 L 73.4 158.8 L 63.6 149.8 L 56.2 139.3 L 51.4 127.3 L 51.12909088134766 125.6745454788208 L 49.7 130.2 L 45.4 141.0 L 40.3 151.3 L 34.5 160.9 L 28.0 169.9 L 20.7 178.1 L 12.6 185.6 L 11.3 184.3 L 17.8 175.7 L 23.6 166.8 L 28.9 157.5 L 33.5 147.9 L 37.5 137.9 L 40.9 127.4 L 43.6 116.4 L 45.7 105.0 L 47.1 93.0 L 47.83554067611694 81.59911880493163 L 47.8 81.6 L 48.0 78.3 L 59.9 81.3 L 62.8 83.5 L 59.44885282516479 85.24001874923707 L 58.4 94.4 L 56.2 106.9 L 53.3 118.8 L 53.05385608673096 119.57945556640625 L 55.3 125.9 L 61.2 136.1 L 68.8 144.8 L 78.1 151.9 L 89.4 157.7 L 94.0 159.22180452346802 L 94.0 34.0 L 22.0 34.0 L 22.0 30.0 L 156.0 30.0 L 166.0 20.0 L 178.0 30.0 L 178.0 34.0 L 106.0 34.0 L 106.0 96.0 L 147.0 96.0 L 157.0 86.0 L 169.0 96.0 L 169.0 100.0 L 106.0 100.0 L 106.0 162.73870964050292 L 118.2 165.1 L 135.8 166.6 L 155.5 166.7 L 177.4 165.4 L 188.3 164.5 L 178.5 178.5 L 155.7 179.3 Z " />
</g>
</svg>
