<svg xmlns="http://www.w3.org/2000/svg" xmlns:xlink="http://www.w3.org/1999/xlink" version="1.1" baseProfile="full" viewBox="0 0 200 200" width="200" height="200">
<g fill="black">
<path d="M 106.0 15.0 L 109.0 17.0 L 106.0 18.8 L 106.0 40.0 L 164.0 40.0 L 174.0 30.0 L 186.0 40.0 L 186.0 44.0 L 106.0 44.0 L 106.0 71.7 L 148.0 71.7 L 154.0 66.7 L 165.0 75.7 L 160.0 79.7 L 160.0 176.9 L 148.0 182.9 L 148.0 170.9 L 52.0 170.9 L 52.0 182.9 L 40.0 188.9 L 40.0 65.7 L 52.0 71.7 L 94.0 71.7 L 94.0 44.0 L 14.0 44.0 L 14.0 40.0 L 94.0 40.0 L 94.0 13.0 Z M 52.0 137.8 L 52.0 166.9 L 148.0 166.9 L 148.0 137.8 Z M 52.0 106.7 L 52.0 133.8 L 148.0 133.8 L 148.0 106.7 Z M 52.0 75.7 L 52.0 102.7 L 148.0 102.7 L 148.0 75.7 Z " />
</g>
</svg>
