<svg xmlns="http://www.w3.org/2000/svg" xmlns:xlink="http://www.w3.org/1999/xlink" version="1.1" baseProfile="full" viewBox="0 0 200 200" width="200" height="200">
<g fill="black">
<path d="M 56.0 185.0 L 44.0 191.0 L 44.0 107.0 L 56.0 109.0 L 59.0 111.0 L 56.0 112.8 L 56.0 178.0 L 97.0 178.0 L 97.0 90.0 L 20.0 90.0 L 20.0 86.0 L 97.0 86.0 L 97.0 46.0 L 57.938461494445804 46.0 L 54.8 51.1 L 50.5 57.4 L 45.7 63.5 L 40.5 69.4 L 34.8 75.1 L 28.6 80.6 L 27.3 79.3 L 31.9 72.7 L 36.3 66.1 L 40.3 59.7 L 44.1 53.3 L 47.5 46.8 L 50.5 40.4 L 53.1 33.9 L 55.4 27.5 L 57.3 21.0 L 58.655321788787845 15.409297752380372 L 58.6 15.4 L 59.3 12.7 L 70.5 17.4 L 72.9 20.1 L 69.24865398406982 21.20844430923462 L 68.2 24.4 L 65.4 31.3 L 62.3 38.0 L 60.17878789901734 42.0 L 147.0 42.0 L 157.0 32.0 L 169.0 42.0 L 169.0 46.0 L 109.0 46.0 L 109.0 86.0 L 162.0 86.0 L 172.0 76.0 L 184.0 86.0 L 184.0 90.0 L 109.0 90.0 L 109.0 126.0 L 151.0 126.0 L 161.0 116.0 L 173.0 126.0 L 173.0 130.0 L 109.0 130.0 L 109.0 178.0 L 162.0 178.0 L 172.0 168.0 L 184.0 178.0 L 184.0 182.0 L 56.0 182.0 Z " />
</g>
</svg>
