<svg xmlns="http://www.w3.org/2000/svg" xmlns:xlink="http://www.w3.org/1999/xlink" version="1.1" baseProfile="full" viewBox="0 0 200 200" width="200" height="200">
<g fill="black">
<path d="M 144.0 129.0 L 164.0 129.0 L 165.2 128.9 L 166.1 128.7 L 167.0 128.4 L 167.4 128.0 L 167.7 127.1 L 167.9 126.2 L 168.0 125.0 L 168.0 64.0 L 33.0 64.0 L 33.0 135.0 L 21.0 141.0 L 21.0 54.0 L 33.0 60.0 L 168.0 60.0 L 174.0 55.0 L 185.0 64.0 L 180.0 68.0 L 180.0 125.0 L 179.8 127.5 L 179.4 130.0 L 178.6 132.4 L 177.3 134.7 L 175.7 136.7 L 173.7 138.3 L 171.4 139.6 L 169.0 140.4 L 166.5 140.8 L 164.0 141.0 L 164.0 135.0 L 144.0 132.0 Z M 158.0 112.0 L 158.0 116.0 L 42.0 116.0 L 42.0 112.0 L 136.0 112.0 L 146.0 102.0 Z M 142.0 77.5 L 143.0 81.0 L 139.2 80.4 L 136.3 83.4 L 133.3 86.5 L 130.2 89.7 L 127.0 93.0 L 123.7 96.4 L 120.2 99.9 L 116.6 103.4 L 112.7 106.9 L 108.6 110.5 L 107.3 109.4 L 109.9 104.7 L 112.6 100.2 L 115.3 95.9 L 117.9 91.7 L 120.6 87.8 L 123.1 83.9 L 125.6 80.2 L 128.0 76.7 L 130.4 73.3 L 132.10878324508667 70.77397260665893 L 132.0 70.7 L 133.1 69.4 Z M 69.2 96.4 L 68.2 93.8 L 67.0 91.1 L 65.5 88.4 L 63.7 85.6 L 61.5 82.8 L 59.1 79.9 L 56.5 77.0 L 53.3 74.2 L 54.3 72.7 L 61.9 76.5 L 65.3 78.6 L 68.5 80.9 L 71.4 83.4 L 74.1 86.0 L 76.5 88.9 L 78.6 91.9 L 80.4 95.1 L 81.9 98.5 L 81.3 103.0 L 77.8 105.8 L 73.2 105.2 L 70.4 101.7 L 69.9 99.1 Z " />
</g>
</svg>
