<svg xmlns="http://www.w3.org/2000/svg" xmlns:xlink="http://www.w3.org/1999/xlink" version="1.1" baseProfile="full" viewBox="0 0 200 200" width="200" height="200">
<g fill="black">
<path d="M 154.7 180.1 L 146.0 176.6 L 137.9 172.7 L 130.5 168.2 L 123.7 163.2 L 117.5 157.8 L 112.1 151.8 L 107.4 145.3 L 104.16000003814698 139.0 L 99.96363639831543 139.0 L 96.6 146.4 L 89.8 156.1 L 81.2 164.4 L 71.0 171.4 L 59.1 177.0 L 45.7 181.3 L 30.7 184.3 L 14.1 185.8 L 13.8 184.1 L 29.9 180.5 L 44.1 176.2 L 56.5 171.0 L 67.0 164.9 L 75.7 158.0 L 82.6 150.2 L 87.8 141.6 L 88.78526315689086 139.0 L 18.0 139.0 L 18.0 135.0 L 90.30105266571044 135.0 L 91.4 132.1 L 93.5 121.6 L 93.74137935638427 116.0 L 30.0 116.0 L 30.0 112.0 L 93.91379308700562 112.0 L 94.0 110.0 L 94.0 94.0 L 50.0 94.0 L 50.0 97.0 L 38.0 103.0 L 38.0 55.0 L 50.0 61.0 L 150.0 61.0 L 156.0 56.0 L 167.0 65.0 L 162.0 69.0 L 162.0 96.0 L 150.0 102.0 L 150.0 94.0 L 106.0 94.0 L 106.0 110.0 L 105.80303030014038 112.0 L 151.8181818008423 112.0 L 160.0 103.0 L 170.0 112.0 L 170.0 116.0 L 105.40909090042115 116.0 L 104.7 123.2 L 101.7016393661499 135.0 L 160.0 135.0 L 170.0 125.0 L 182.0 135.0 L 182.0 139.0 L 107.0 139.0 L 110.7 142.7 L 116.3 147.7 L 122.2 152.2 L 128.5 156.4 L 135.2 160.1 L 142.4 163.4 L 150.0 166.3 L 158.2 168.8 L 166.9 170.8 L 176.1 172.5 L 185.6 174.2 L 173.8 185.4 L 163.9 183.0 Z M 50.0 65.0 L 50.0 90.0 L 94.0 90.0 L 94.0 65.0 Z M 106.0 65.0 L 106.0 90.0 L 150.0 90.0 L 150.0 65.0 Z M 134.0 14.3 L 137.0 16.3 L 134.0 18.1 L 134.0 32.0 L 165.0 32.0 L 175.0 22.0 L 187.0 32.0 L 187.0 36.0 L 134.0 36.0 L 134.0 50.8 L 122.0 56.8 L 122.0 36.0 L 78.0 36.0 L 78.0 50.8 L 66.0 56.8 L 66.0 36.0 L 13.0 36.0 L 13.0 32.0 L 66.0 32.0 L 66.0 12.3 L 78.0 14.3 L 81.0 16.3 L 78.0 18.1 L 78.0 32.0 L 122.0 32.0 L 122.0 12.3 Z " />
</g>
</svg>
