<svg xmlns="http://www.w3.org/2000/svg" xmlns:xlink="http://www.w3.org/1999/xlink" version="1.1" baseProfile="full" viewBox="0 0 200 200" width="200" height="200">
<g fill="black">
<path d="M 165.0 177.7 L 162.9 174.1 L 160.3 170.5 L 159.6039999961853 169.63599996566774 L 150.8 171.0 L 136.6 173.0 L 122.5 174.8 L 108.5 176.5 L 94.6 178.2 L 80.7 179.7 L 67.0 181.3 L 53.4 182.8 L 39.9 184.3 L 30.532815837860106 185.34856538772584 L 28.7 188.7 L 26.5 185.8 L 23.4 174.1 L 25.4 173.9 L 38.9 173.0 L 52.5 172.1 L 79.9 170.5 L 93.8 169.7 L 95.0 169.63999996185302 L 95.0 137.0 L 53.0 137.0 L 53.0 149.0 L 41.0 155.0 L 41.0 92.0 L 53.0 98.0 L 95.0 98.0 L 95.0 73.0 L 107.0 75.0 L 110.0 77.0 L 107.0 78.8 L 107.0 98.0 L 150.0 98.0 L 156.0 93.0 L 167.0 102.0 L 162.0 106.0 L 162.0 137.0 L 150.0 143.0 L 150.0 137.0 L 107.0 137.0 L 107.0 169.03999996185303 L 107.8 169.0 L 121.9 168.3 L 136.1 167.7 L 150.4 167.3 L 157.6417582511902 167.20011367797852 L 157.4 166.9 L 154.1 163.3 L 150.4 159.7 L 146.4 156.0 L 142.1 152.2 L 137.4 148.2 L 138.3 146.7 L 144.1 149.0 L 149.5 151.6 L 154.4 154.5 L 159.1 157.6 L 163.3 160.8 L 167.2 164.3 L 170.7 167.9 L 173.9 171.7 L 176.7 175.6 L 179.2 179.7 L 179.3 184.3 L 176.2 187.7 L 171.6 187.8 L 168.2 184.7 L 166.8 181.2 Z M 53.0 102.0 L 53.0 133.0 L 95.0 133.0 L 95.0 102.0 Z M 107.0 102.0 L 107.0 133.0 L 150.0 133.0 L 150.0 102.0 Z M 155.7 67.8 L 152.1 62.9 L 149.84084091186523 60.17742366790772 L 141.7 62.0 L 128.5 64.6 L 115.5 66.9 L 102.6 69.0 L 89.9 70.8 L 77.4 72.5 L 65.1 74.1 L 53.0 75.4 L 41.0 76.6 L 33.408136463165285 77.31376495361329 L 31.5 80.6 L 29.3 77.7 L 26.6 65.8 L 28.6 65.7 L 40.3 65.3 L 52.1 64.7 L 62.361497497558595 64.19116544723511 L 63.7 61.3 L 66.2 56.1 L 68.8 51.0 L 71.3 45.9 L 73.7 40.9 L 75.9 35.8 L 78.1 30.8 L 80.2 25.7 L 82.2 20.7 L 83.66811094284057 16.621914005279542 L 83.6 16.6 L 83.96538457870483 15.796153831481934 L 84.0 15.7 L 84.00764989852905 15.703170204162598 L 84.6 14.4 L 95.1 20.3 L 97.1 23.3 L 93.340740776062 23.818518543243407 L 92.6 25.3 L 89.9 30.3 L 87.1 35.3 L 84.2 40.2 L 81.1 45.0 L 77.8 49.8 L 74.4 54.5 L 70.7 59.0 L 66.9 63.5 L 66.44608697891235 63.953913021087644 L 76.5 63.3 L 89.0 62.4 L 101.7 61.4 L 114.6 60.4 L 127.8 59.3 L 141.2 58.2 L 147.7780652999878 57.716318702697755 L 144.1 53.5 L 139.8 49.1 L 135.2 44.7 L 130.5 40.5 L 125.5 36.3 L 120.4 32.0 L 121.3 30.4 L 127.5 33.0 L 133.5 36.1 L 139.2 39.5 L 144.7 43.3 L 149.9 47.4 L 154.9 51.7 L 159.6 56.3 L 164.1 61.2 L 168.4 66.3 L 172.4 71.7 L 173.1 76.2 L 170.6 80.0 L 166.1 80.7 L 162.3 78.2 L 159.1 72.9 Z " />
</g>
</svg>
