<svg xmlns="http://www.w3.org/2000/svg" xmlns:xlink="http://www.w3.org/1999/xlink" version="1.1" baseProfile="full" viewBox="0 0 200 200" width="200" height="200">
<g fill="black">
<path d="M 136.0 175.0 L 156.0 175.0 L 157.2 174.9 L 158.1 174.7 L 159.0 174.4 L 159.4 174.0 L 159.7 173.1 L 159.9 172.2 L 160.0 171.0 L 160.0 29.0 L 49.0 29.0 L 49.0 102.0 L 48.89361705780029 102.15957450866699 L 48.6 114.1 L 47.7 125.7 L 46.3 136.5 L 44.3 146.5 L 41.8 155.8 L 38.7 164.3 L 35.1 172.0 L 30.9 178.8 L 26.0 184.7 L 20.6 189.6 L 19.3 188.3 L 23.0 182.4 L 26.2 176.1 L 29.1 169.3 L 31.6 161.8 L 33.6 153.6 L 35.2 144.8 L 36.3 135.2 L 37.0 124.9 L 37.2 113.8 L 37.0 102.0 L 37.0 19.0 L 49.0 25.0 L 160.0 25.0 L 166.0 20.0 L 177.0 29.0 L 172.0 33.0 L 172.0 171.0 L 171.8 173.5 L 171.4 176.0 L 170.6 178.4 L 169.3 180.7 L 167.7 182.7 L 165.7 184.3 L 163.4 185.6 L 161.0 186.4 L 158.5 186.8 L 156.0 187.0 L 156.0 181.0 L 136.0 178.0 Z M 108.0 42.0 L 111.0 44.0 L 108.0 45.8 L 108.0 74.0 L 131.0 74.0 L 141.0 64.0 L 153.0 74.0 L 153.0 78.0 L 108.0 78.0 L 108.0 110.0 L 127.0 110.0 L 133.0 105.0 L 144.0 114.0 L 139.0 118.0 L 139.0 159.0 L 127.0 165.0 L 127.0 153.0 L 79.0 153.0 L 79.0 165.0 L 67.0 171.0 L 67.0 104.0 L 79.0 110.0 L 96.0 110.0 L 96.0 78.0 L 55.0 78.0 L 55.0 74.0 L 96.0 74.0 L 96.0 40.0 Z M 79.0 149.0 L 127.0 149.0 L 127.0 114.0 L 79.0 114.0 Z " />
</g>
</svg>
