<svg xmlns="http://www.w3.org/2000/svg" xmlns:xlink="http://www.w3.org/1999/xlink" version="1.1" baseProfile="full" viewBox="0 0 200 200" width="200" height="200">
<g fill="black">
<path d="M 142.0 60.2 L 145.0 62.2 L 142.0 64.0 L 142.0 181.5 L 130.0 187.5 L 130.0 134.0 L 76.77640447616577 134.0 L 76.4 140.7 L 74.9 148.9 L 72.4 156.5 L 69.0 163.4 L 64.6 169.6 L 59.3 174.9 L 53.2 179.4 L 46.3 183.0 L 38.6 185.8 L 30.2 187.6 L 29.7 185.8 L 37.2 182.2 L 43.7 178.3 L 49.3 174.1 L 54.0 169.5 L 57.8 164.5 L 60.8 159.0 L 62.9 153.2 L 64.4 146.7 L 65.0 139.7 L 65.0 134.0 L 37.0 134.0 L 37.0 130.0 L 130.0 130.0 L 130.0 107.0 L 72.0 107.0 L 72.0 114.0 L 60.0 120.0 L 60.0 66.5 L 72.0 68.5 L 75.0 70.5 L 72.0 72.3 L 72.0 103.0 L 130.0 103.0 L 130.0 58.2 Z M 16.2 75.8 L 15.4 71.3 L 17.9 67.5 L 19.9 66.4 L 21.8 64.8 L 23.6 62.7 L 25.4 60.1 L 27.0 56.9 L 28.5 53.1 L 29.8 48.7 L 30.9 43.8 L 31.9 38.4 L 32.6 32.4 L 34.4 32.4 L 35.2 38.4 L 35.55344829559326 42.5 L 95.5 42.5 L 95.5 12.5 L 107.5 14.5 L 110.5 16.5 L 107.5 18.3 L 107.5 42.5 L 170.3 42.5 L 170.9064516067505 41.99462366104126 L 171.1 41.5 L 171.33798627853395 41.63501148223877 L 176.3 37.5 L 187.3 46.5 L 182.3 49.5 L 178.55088758468628 51.0621301651001 L 178.0 51.7 L 176.1 54.0 L 173.9 56.4 L 171.6 58.9 L 169.1 61.5 L 163.6 67.0 L 160.4 69.9 L 157.3 73.0 L 155.9 71.9 L 158.2 68.1 L 160.1 64.4 L 161.9 60.9 L 163.6 57.6 L 165.3 54.5 L 166.7 51.5 L 168.0 48.7 L 169.05600004196168 46.5 L 35.74339618682861 46.5 L 35.8 49.5 L 35.5 54.6 L 34.8 59.2 L 33.7 63.6 L 32.1 67.6 L 30.1 71.3 L 27.6 74.6 L 24.5 77.5 L 20.0 78.3 Z " />
</g>
</svg>
