<svg xmlns="http://www.w3.org/2000/svg" xmlns:xlink="http://www.w3.org/1999/xlink" version="1.1" baseProfile="full" viewBox="0 0 200 200" width="200" height="200">
<g fill="black">
<path d="M 151.7 183.2 L 149.6 184.3 L 147.5 185.3 L 145.4 186.1 L 143.2 186.8 L 140.9 187.3 L 138.6 187.7 L 136.3 187.9 L 134.0 188.0 L 134.0 182.0 L 114.0 179.0 L 114.0 176.0 L 134.0 176.0 L 135.6 175.9 L 137.1 175.8 L 140.1 175.2 L 142.9 174.2 L 144.2 173.6 L 145.6 172.9 L 148.2 171.1 L 150.2 169.2 L 152.2 166.9 L 154.1 164.0 L 155.9 160.5 L 157.5 156.4 L 159.0 151.8 L 160.3 146.5 L 161.4 140.7 L 162.3 134.4 L 162.74637680053712 130.0 L 135.54459457397462 130.0 L 133.1 136.7 L 129.4 143.8 L 124.7 150.4 L 118.9 156.7 L 112.3 162.6 L 104.6 168.2 L 96.0 173.4 L 86.4 178.3 L 75.9 182.8 L 64.3 186.8 L 63.6 185.1 L 74.2 179.3 L 83.9 173.6 L 92.5 167.9 L 100.1 162.1 L 106.6 156.3 L 112.2 150.4 L 116.6 144.5 L 120.1 138.5 L 122.6 132.6 L 123.22173910140991 130.0 L 94.71428575515748 130.0 L 94.2 130.8 L 90.2 136.9 L 85.7 142.8 L 80.5 148.3 L 74.9 153.6 L 68.6 158.5 L 61.9 163.1 L 54.6 167.3 L 46.7 171.3 L 38.3 174.7 L 29.3 177.8 L 28.6 176.1 L 36.6 171.3 L 44.1 166.6 L 51.1 161.8 L 57.5 156.9 L 63.3 151.9 L 68.5 146.8 L 73.1 141.6 L 77.2 136.2 L 80.7 130.7 L 81.06296300888062 130.0 L 57.31071424484253 130.0 L 56.9 130.5 L 51.8 135.8 L 46.4 140.8 L 40.4 145.4 L 34.1 149.6 L 27.3 153.5 L 20.1 156.9 L 12.3 159.8 L 11.6 158.1 L 18.2 153.6 L 24.4 149.0 L 30.2 144.3 L 35.6 139.5 L 40.5 134.6 L 45.0 129.5 L 49.0 124.3 L 52.6 118.8 L 55.8 113.2 L 56.325 112.0 L 26.0 112.0 L 26.0 108.0 L 169.8181818008423 108.0 L 178.0 99.0 L 188.0 108.0 L 188.0 112.0 L 69.74615383148193 112.0 L 69.4 112.6 L 65.7 118.9 L 61.5 124.9 L 60.59642858505249 126.0 L 163.0 126.0 L 169.0 121.0 L 180.0 130.0 L 175.0 133.0 L 174.44290742874145 133.2321219444275 L 174.2 135.8 L 173.2 142.7 L 172.0 149.1 L 170.6 155.0 L 168.8 160.4 L 166.8 165.4 L 164.5 169.9 L 161.9 174.0 L 158.9 177.6 L 155.5 180.6 L 153.6 182.0 Z M 61.0 51.0 L 150.0 51.0 L 156.0 46.0 L 167.0 55.0 L 162.0 59.0 L 162.0 96.0 L 150.0 102.0 L 150.0 96.0 L 61.0 96.0 L 49.0 102.0 L 49.0 45.0 Z M 61.0 75.0 L 61.0 92.0 L 150.0 92.0 L 150.0 75.0 Z M 61.0 55.0 L 61.0 71.0 L 150.0 71.0 L 150.0 55.0 Z M 67.5 18.9 L 69.1 22.2 L 65.24499998092651 22.2 L 63.4 24.9 L 59.0 30.7 L 55.403636360168456 35.0 L 163.0 35.0 L 173.0 25.0 L 185.0 35.0 L 185.0 39.0 L 51.85925922393799 39.0 L 49.5 41.6 L 44.5 46.8 L 39.2 51.7 L 33.7 56.4 L 27.9 60.8 L 21.8 64.9 L 15.5 68.7 L 14.4 67.2 L 24.4 56.8 L 33.8 46.4 L 38.2 41.1 L 42.4 35.6 L 46.4 30.1 L 50.3 24.4 L 53.9 18.6 L 56.830200004577634 13.515241146087646 L 56.8 13.5 L 57.8 11.8 Z " />
</g>
</svg>
