<svg xmlns="http://www.w3.org/2000/svg" xmlns:xlink="http://www.w3.org/1999/xlink" version="1.1" baseProfile="full" viewBox="0 0 200 200" width="200" height="200">
<g fill="black">
<path d="M 56.7 81.3 L 143.2 81.3 L 149.2 76.3 L 160.2 85.3 L 155.2 89.3 L 155.2 177.0 L 143.2 183.0 L 143.2 171.0 L 56.7 171.0 L 56.7 183.0 L 44.7 189.0 L 44.7 75.3 Z M 56.7 128.2 L 56.7 167.0 L 143.2 167.0 L 143.2 128.2 Z M 56.7 85.3 L 56.7 124.2 L 143.2 124.2 L 143.2 85.3 Z M 73.1 19.1 L 75.2 22.1 L 71.42024002075195 22.686514472961427 L 69.4 27.0 L 65.3 34.8 L 60.7 42.5 L 58.36666669845581 46.0 L 150.0 46.0 L 160.0 36.0 L 172.0 46.0 L 172.0 50.0 L 55.7 50.0 L 50.3 57.4 L 44.5 64.6 L 38.3 71.7 L 31.5 78.6 L 24.3 85.2 L 16.6 91.6 L 15.3 90.3 L 21.6 82.6 L 27.5 75.0 L 33.2 67.5 L 38.5 60.0 L 43.4 52.5 L 47.9 45.0 L 52.0 37.5 L 55.7 29.9 L 59.1 22.3 L 61.650691986083984 15.61542797088623 L 61.6 15.6 L 62.5 13.3 Z " />
</g>
</svg>
