<svg xmlns="http://www.w3.org/2000/svg" xmlns:xlink="http://www.w3.org/1999/xlink" version="1.1" baseProfile="full" viewBox="0 0 200 200" width="200" height="200">
<g fill="black">
<path d="M 141.0 182.5 L 127.0 177.7 L 114.0 172.0 L 102.0 165.4 L 101.6872950553894 165.18483610153197 L 100.4 165.9 L 86.6 172.0 L 71.6 177.1 L 55.3 181.3 L 37.9 184.4 L 19.2 186.5 L 18.9 184.7 L 37.1 180.7 L 54.0 176.1 L 69.5 170.9 L 83.7 165.0 L 93.79452123641968 159.7540283203125 L 91.1 157.9 L 81.3 149.5 L 72.6 140.3 L 65.1 130.1 L 59.61000003814697 120.2 L 34.1 120.2 L 34.1 116.2 L 139.7 116.2 L 140.05789470672607 115.90175437927246 L 140.5 115.2 L 140.73636360168456 115.33636360168457 L 145.7 111.2 L 156.7 120.2 L 151.7 123.2 L 148.6491961479187 124.47116823196411 L 143.4 132.1 L 134.5 142.0 L 124.4 150.9 L 113.0 158.9 L 111.67502355575562 159.63609800338745 L 118.2 162.7 L 130.7 167.3 L 144.1 171.1 L 158.4 174.1 L 173.7 176.3 L 183.8 177.7 L 171.9 189.4 L 156.0 186.4 Z M 62.18085107803345 120.2 L 68.4 127.6 L 76.9 136.2 L 86.0 144.1 L 95.9 151.1 L 102.20131874084473 154.71742372512819 L 107.9 151.1 L 118.0 143.2 L 126.8 134.5 L 134.2 125.2 L 137.35 120.2 Z M 107.0 17.0 L 110.0 19.0 L 107.0 20.8 L 107.0 36.0 L 150.0 36.0 L 156.0 31.0 L 167.0 40.0 L 162.0 44.0 L 162.0 94.0 L 150.0 100.0 L 150.0 88.0 L 107.0 88.0 L 107.0 108.0 L 95.0 114.0 L 95.0 88.0 L 51.0 88.0 L 51.0 100.0 L 39.0 106.0 L 39.0 30.0 L 51.0 36.0 L 95.0 36.0 L 95.0 15.0 Z M 51.0 64.0 L 51.0 84.0 L 95.0 84.0 L 95.0 64.0 Z M 107.0 64.0 L 107.0 84.0 L 150.0 84.0 L 150.0 64.0 Z M 51.0 40.0 L 51.0 60.0 L 95.0 60.0 L 95.0 40.0 Z M 107.0 40.0 L 107.0 60.0 L 150.0 60.0 L 150.0 40.0 Z " />
</g>
</svg>
