<svg xmlns="http://www.w3.org/2000/svg" xmlns:xlink="http://www.w3.org/1999/xlink" version="1.1" baseProfile="full" viewBox="0 0 200 200" width="200" height="200">
<g fill="black">
<path d="M 42.0 75.0 L 45.0 77.0 L 42.0 78.8 L 42.0 174.0 L 158.0 174.0 L 168.0 164.0 L 180.0 174.0 L 180.0 178.0 L 42.0 178.0 L 42.0 185.0 L 30.0 191.0 L 30.0 73.0 Z M 112.8 18.7 L 115.5 21.1 L 111.92863636016845 22.621136379241943 L 111.8 23.2 L 109.6 32.4 L 108.2297872543335 37.0 L 162.0 37.0 L 172.0 27.0 L 184.0 37.0 L 184.0 41.0 L 107.0625 41.0 L 106.8 41.9 L 105.2 46.7 L 103.4 51.5 L 101.5 56.4 L 99.3 61.3 L 97.92244901657105 64.0 L 142.0 64.0 L 148.0 59.0 L 159.0 68.0 L 154.0 72.0 L 154.0 156.0 L 142.0 162.0 L 142.0 152.0 L 76.0 152.0 L 76.0 159.0 L 64.0 165.0 L 64.0 58.0 L 76.0 64.0 L 95.28888893127441 64.0 L 95.7 60.3 L 96.4 55.0 L 97.1 49.9 L 97.9 44.9 L 98.37755098342896 41.0 L 18.0 41.0 L 18.0 37.0 L 98.9375 37.0 L 99.2 35.2 L 100.2 26.0 L 100.6 21.5 L 100.82985820770264 18.20536603927612 L 100.7 18.2 L 101.1 15.1 Z M 76.0 123.0 L 76.0 148.0 L 142.0 148.0 L 142.0 123.0 Z M 76.0 94.0 L 76.0 119.0 L 142.0 119.0 L 142.0 94.0 Z M 76.0 68.0 L 76.0 90.0 L 142.0 90.0 L 142.0 68.0 Z " />
</g>
</svg>
