<svg xmlns="http://www.w3.org/2000/svg" xmlns:xlink="http://www.w3.org/1999/xlink" version="1.1" baseProfile="full" viewBox="0 0 200 200" width="200" height="200">
<g fill="black">
<path d="M 145.6 174.8 L 135.6 170.2 L 125.3 165.7 L 114.7 161.5 L 108.75726137161254 159.33900413513183 L 100.7 165.7 L 87.7 173.2 L 73.2 179.1 L 57.2 183.4 L 39.8 186.0 L 21.0 187.1 L 20.9 185.3 L 39.3 182.3 L 55.9 178.2 L 70.9 172.9 L 84.2 166.5 L 95.7 158.8 L 99.04207267761231 155.89239673614503 L 92.4 153.6 L 80.8 149.8 L 68.9 146.0 L 61.22529563903809 143.67242574691772 L 57.5 149.3 L 52.8 156.0 L 43.1 148.9 L 47.6 142.6 L 52.0 135.8 L 56.5 128.5 L 60.9 120.9 L 65.3 112.8 L 68.72790699005127 106.1 L 14.0 106.1 L 14.0 102.1 L 70.72666664123535 102.1 L 74.1 95.2 L 78.4 85.8 L 82.7 75.9 L 86.62146644592285 66.50671997070313 L 86.6 66.5 L 87.5 64.3 L 98.1 70.1 L 100.2 73.1 L 96.64555492401124 73.65155181884765 L 93.8 80.6 L 89.3 90.7 L 84.9 100.3 L 84.0290322303772 102.1 L 164.0 102.1 L 174.0 92.1 L 186.0 102.1 L 186.0 106.1 L 141.6039999961853 106.1 L 136.9 120.5 L 130.3 134.1 L 122.0 146.2 L 115.60661544799805 152.98086233139037 L 117.4 153.5 L 128.5 157.0 L 139.4 160.9 L 149.9 164.9 L 160.1 169.3 L 170.0 173.9 L 172.9 177.4 L 172.6 182.0 L 169.1 184.9 L 164.5 184.5 L 155.2 179.5 Z M 82.0935483932495 106.1 L 80.4 109.6 L 75.9 118.4 L 71.4 126.7 L 66.8 134.7 L 62.75139570236206 141.30098524093628 L 69.8 142.3 L 82.2 144.6 L 94.2 147.2 L 105.67889337539673 150.11836271286012 L 105.7 150.1 L 114.0 140.1 L 120.9 128.9 L 126.2 116.5 L 129.05161294937133 106.1 Z M 172.9 26.4 L 174.8 29.5 L 170.92101907730103 29.901273918151855 L 170.3 31.0 L 167.5 35.7 L 164.3 40.7 L 160.9 45.9 L 157.2 51.4 L 153.2 57.0 L 148.9 62.9 L 144.3 68.9 L 139.2 75.1 L 133.7 81.5 L 132.2 80.4 L 136.0 73.0 L 139.8 66.0 L 143.4 59.3 L 146.8 53.0 L 150.0 47.0 L 155.6 35.8 L 158.0 30.7 L 160.2 25.8 L 161.7172661781311 22.206474781036377 L 161.7 22.2 L 161.8764705657959 21.829411792755128 L 162.1 21.3 L 162.12332611083986 21.311015129089355 L 162.7 20.1 Z M 54.0 63.2 L 52.0 58.9 L 49.8 54.6 L 47.3 50.5 L 44.5 46.4 L 41.5 42.4 L 38.3 38.4 L 34.9 34.4 L 31.2 30.3 L 32.3 28.8 L 37.3 31.4 L 41.9 34.4 L 46.2 37.8 L 50.3 41.4 L 54.0 45.3 L 57.5 49.4 L 60.7 53.8 L 63.6 58.3 L 66.2 63.1 L 68.5 68.1 L 68.3 72.6 L 65.0 75.8 L 60.4 75.5 L 57.3 72.2 L 55.8 67.7 Z M 101.2 51.3 L 100.0 47.2 L 98.5 43.1 L 96.6 38.8 L 94.3 34.4 L 91.7 29.9 L 88.8 25.3 L 85.5 20.4 L 82.0 15.3 L 83.3 14.0 L 88.3 17.8 L 92.9 21.8 L 97.0 25.9 L 100.6 30.2 L 103.9 34.5 L 106.8 38.8 L 109.3 43.3 L 111.4 47.8 L 113.1 52.4 L 114.4 57.0 L 113.3 61.4 L 109.4 63.9 L 105.0 62.8 L 102.5 59.0 L 102.1 55.2 Z " />
</g>
</svg>
