<svg xmlns="http://www.w3.org/2000/svg" xmlns:xlink="http://www.w3.org/1999/xlink" version="1.1" baseProfile="full" viewBox="0 0 200 200" width="200" height="200">
<g fill="black">
<path d="M 157.8 169.3 L 149.3 160.6 L 141.7 150.9 L 140.28827648162843 148.59780473709105 L 134.2 156.9 L 124.2 167.3 L 113.0 176.1 L 100.8 183.3 L 87.5 188.8 L 86.8 187.1 L 98.9 180.0 L 109.8 171.9 L 119.5 162.6 L 128.2 152.2 L 135.55444736480712 140.87802181243896 L 135.2 140.3 L 129.7 128.8 L 125.2 116.5 L 121.7 103.2 L 119.3 89.1 L 118.67621097564697 80.59378643035889 L 114.9 86.7 L 109.8 93.8 L 104.2 100.5 L 102.7 99.4 L 106.6 91.8 L 110.2 84.0 L 113.7 76.1 L 117.1 68.0 L 120.1 59.6 L 123.0 51.0 L 125.6 42.1 L 127.9 32.9 L 130.0 23.5 L 131.61598405838012 14.7018648147583 L 131.6 14.7 L 131.71428575515748 14.16666669845581 L 131.8 13.7 L 131.81368913650513 13.702784252166747 L 132.2 11.9 L 143.6 16.1 L 146.1 18.7 L 142.6522388458252 19.89104480743408 L 141.1 26.1 L 138.3 35.8 L 135.2 45.1 L 131.7 54.1 L 128.76551723480225 61.0 L 165.8 61.0 L 175.8 51.0 L 187.8 61.0 L 187.8 65.0 L 169.47894735336303 65.0 L 166.7 82.6 L 162.5 100.3 L 157.2 116.6 L 150.7 131.5 L 146.07530193328859 139.54817581176758 L 149.9 144.8 L 157.3 153.1 L 165.5 160.3 L 174.4 166.7 L 184.0 172.1 L 189.0 174.8 L 177.8 183.8 L 167.3 177.0 Z M 65.2 176.0 L 77.2 176.0 L 78.4 175.9 L 79.3 175.7 L 79.9 175.5 L 80.3 175.4 L 80.5 175.2 L 80.6 175.0 L 80.8 174.7 L 81.0 174.1 L 81.1 173.2 L 81.2 172.0 L 81.2 152.0 L 37.7 152.0 L 37.7 183.0 L 25.7 189.0 L 25.7 94.0 L 37.7 100.0 L 81.2 100.0 L 87.2 95.0 L 98.2 104.0 L 93.2 108.0 L 93.2 172.0 L 93.1 174.5 L 92.6 177.0 L 91.8 179.4 L 90.6 181.7 L 88.9 183.7 L 86.9 185.3 L 84.7 186.6 L 82.3 187.4 L 79.8 187.8 L 77.2 188.0 L 77.2 182.0 L 65.2 179.0 Z M 37.7 128.0 L 37.7 148.0 L 81.2 148.0 L 81.2 128.0 Z M 126.9397590637207 65.0 L 124.0 71.1 L 120.75173625946044 77.00593404769897 L 123.4 88.3 L 127.4 101.7 L 132.0 114.0 L 137.2 125.3 L 140.53632287979127 131.02735424041748 L 142.3 127.5 L 147.7 113.3 L 152.1 97.6 L 155.5 80.7 L 157.37717390060425 65.0 Z M 37.7 104.0 L 37.7 124.0 L 81.2 124.0 L 81.2 104.0 Z M 90.2 83.4 L 88.4 79.1 L 86.89035634994507 75.76289310455323 L 82.1 77.2 L 74.2 79.2 L 66.6 80.9 L 59.1 82.5 L 51.9 83.9 L 44.9 85.1 L 38.1 86.3 L 31.6 87.3 L 25.3 88.1 L 23.34115629196167 88.35689754486084 L 21.4 91.7 L 19.2 88.9 L 16.4 77.0 L 18.4 76.9 L 24.4 76.8 L 30.6 76.6 L 36.34256572723389 76.33495855331421 L 36.4 76.1 L 37.3 71.7 L 38.3 67.4 L 39.3 63.2 L 40.4 59.1 L 41.3 55.0 L 42.3 51.0 L 43.2 47.0 L 44.0 43.1 L 44.01904764175415 43.0 L 12.3 43.0 L 12.3 39.0 L 53.5 39.0 L 53.5 13.0 L 65.5 15.0 L 68.5 17.0 L 65.5 18.8 L 65.5 39.0 L 84.6 39.0 L 94.6 29.0 L 106.6 39.0 L 106.6 43.0 L 56.14210529327393 43.0 L 53.3 50.2 L 51.6 54.1 L 49.9 57.9 L 46.1 65.7 L 44.0 69.6 L 41.8 73.5 L 40.190464878082274 76.11549463272095 L 43.8 75.9 L 50.8 75.5 L 58.1 75.0 L 65.6 74.4 L 73.4 73.9 L 81.5 73.4 L 85.67455625534058 73.24911241531372 L 84.4 70.7 L 82.2 66.6 L 79.9 62.5 L 77.4 58.5 L 74.9 54.4 L 72.3 50.3 L 73.6 49.0 L 77.6 51.9 L 81.4 55.1 L 85.0 58.6 L 88.3 62.3 L 91.5 66.2 L 94.4 70.2 L 97.2 74.4 L 99.8 78.8 L 102.2 83.3 L 104.5 88.0 L 104.3 92.6 L 101.0 95.8 L 96.5 95.6 L 93.3 92.3 L 91.8 87.8 Z " />
</g>
</svg>
