<svg id="Layer_2" data-name="Layer 2" xmlns="http://www.w3.org/2000/svg" viewBox="0 0 512.87 568.8"><defs><style>.cls-1{fill:#2b99cf;}</style></defs><title>logo</title><circle class="cls-1" cx="256.45" cy="284.4" r="75"/><rect class="cls-1" x="251.45" y="192.8" width="10" height="27.3"/><polygon class="cls-1" points="256.44 150 234.94 193.7 277.94 193.7 256.44 150"/><circle class="cls-1" cx="256.45" cy="75" r="75"/><circle class="cls-1" cx="299.99" cy="299.99" r="75" transform="translate(-153.36 394.19) rotate(-60)"/><rect class="cls-1" x="227.46" y="247.4" width="10" height="27.3" transform="translate(-153.4 316.24) rotate(-60)"/><polygon class="cls-1" points="140.04 217.2 167.15 257.7 188.65 220.4 140.04 217.2"/><circle class="cls-1" cx="118.57" cy="195.31" r="75" transform="translate(-153.42 184.73) rotate(-60)"/><circle class="cls-1" cx="299.99" cy="300" r="75" transform="translate(-153.36 174.59) rotate(-30)"/><rect class="cls-1" x="218.9" y="333.99" width="27.3" height="10" transform="translate(-181.9 146.1) rotate(-30)"/><polygon class="cls-1" points="140.04 351.6 188.65 348.4 167.15 311.1 140.04 351.6"/><circle class="cls-1" cx="118.59" cy="404.69" r="75" transform="translate(-230.02 97.92) rotate(-30)"/><circle class="cls-1" cx="256.45" cy="284.4" r="75"/><rect class="cls-1" x="251.45" y="348.6" width="10" height="27.3"/><polygon class="cls-1" points="256.44 418.8 277.94 375.1 234.94 375.1 256.44 418.8"/><circle class="cls-1" cx="256.45" cy="493.8" r="75"/><circle class="cls-1" cx="299.99" cy="299.99" r="75" transform="translate(-153.36 394.19) rotate(-60)"/><rect class="cls-1" x="362.5" y="325.34" width="10" height="27.3" transform="translate(-153.38 472.15) rotate(-60)"/><polygon class="cls-1" points="372.85 351.6 345.75 311.1 324.25 348.4 372.85 351.6"/><circle class="cls-1" cx="481.41" cy="404.68" r="75" transform="translate(-153.31 603.65) rotate(-60)"/><circle class="cls-1" cx="299.99" cy="300" r="75" transform="translate(-153.36 174.59) rotate(-30)"/><rect class="cls-1" x="353.79" y="256" width="27.3" height="10" transform="translate(-124.83 203.09) rotate(-30)"/><polygon class="cls-1" points="372.85 217.2 324.25 220.4 345.75 257.7 372.85 217.2"/><circle class="cls-1" cx="481.39" cy="195.3" r="75" transform="translate(-76.71 251.27) rotate(-30)"/></svg>