<?xml version="1.0" standalone="no"?>
<!DOCTYPE svg PUBLIC "-//W3C//DTD SVG 20010904//EN"
 "http://www.w3.org/TR/2001/REC-SVG-20010904/DTD/svg10.dtd">
<svg version="1.0" xmlns="http://www.w3.org/2000/svg"
 width="512.000000pt" height="512.000000pt" viewBox="0 0 512.000000 512.000000"
 preserveAspectRatio="xMidYMid meet">
<metadata>
Created by potrace 1.14, written by Peter Selinger 2001-2017
</metadata>
<g transform="translate(0.000000,512.000000) scale(0.100000,-0.100000)"
fill="#000000" stroke="none">
<path d="M2469 5115 c-3 -2 -22 -5 -43 -7 -20 -1 -40 -6 -42 -10 -3 -4 -12 -8
-20 -8 -22 0 -143 -58 -189 -91 -52 -36 -112 -93 -153 -146 -38 -49 -103 -174
-96 -185 3 -4 1 -8 -4 -8 -5 0 -9 -6 -10 -12 0 -7 -7 -49 -14 -93 -20 -118 -8
-265 29 -337 7 -16 11 -28 8 -28 -9 0 56 -113 89 -155 84 -107 168 -167 321
-230 98 -39 292 -42 410 -5 63 20 88 32 176 81 13 8 32 23 41 33 10 10 18 16
18 12 0 -12 102 103 134 151 33 50 43 70 44 87 0 5 5 12 10 15 20 13 54 184
54 270 -1 110 -49 296 -83 321 -3 3 -9 15 -13 28 -4 12 -12 22 -17 22 -5 0 -9
6 -9 13 0 7 -10 22 -22 34 -13 11 -37 36 -53 55 -58 66 -179 139 -290 173 -46
14 -266 31 -276 20z"/>
<path d="M836 4173 c-4 -4 -15 -7 -78 -17 -10 -1 -21 -5 -24 -9 -4 -4 -15 -7
-24 -7 -23 0 -118 -47 -168 -84 -65 -47 -151 -136 -181 -187 -74 -125 -103
-220 -106 -349 -5 -226 85 -413 275 -565 89 -71 258 -125 393 -126 80 0 105 3
152 15 154 39 292 126 377 237 12 17 33 44 46 59 12 15 22 30 22 34 0 3 11 29
24 58 13 29 29 78 36 108 6 30 14 62 17 70 19 51 -7 261 -42 335 -19 42 -37
89 -35 94 1 2 -5 8 -14 13 -9 5 -16 14 -16 19 0 6 -6 16 -12 24 -7 7 -31 34
-53 60 -66 77 -214 173 -297 191 -39 9 -53 12 -53 14 0 10 -230 22 -239 13z"/>
<path d="M4107 4174 c-1 -2 -19 -5 -38 -8 -94 -11 -253 -92 -342 -175 -80 -74
-167 -213 -181 -292 -3 -13 -5 -25 -7 -26 -1 -2 -2 -6 -3 -10 -1 -5 -6 -24
-11 -43 -11 -45 -12 -200 -2 -200 5 0 6 -4 3 -9 -7 -10 19 -115 39 -158 8 -17
15 -34 15 -39 0 -10 59 -103 85 -133 55 -65 131 -131 173 -153 26 -12 49 -26
52 -29 7 -8 109 -46 145 -54 17 -4 39 -9 50 -11 25 -6 182 -6 210 0 99 20 186
54 260 101 59 37 165 135 165 152 0 6 6 13 13 16 7 2 22 23 32 46 11 22 23 41
28 41 4 0 7 4 7 9 0 5 5 22 12 38 6 15 12 33 14 38 53 179 52 301 -1 460 -37
107 -145 248 -239 312 -23 16 -43 31 -46 34 -15 19 -162 73 -235 86 -28 6
-193 11 -198 7z"/>
<path d="M2550 3746 c0 -8 -3 -16 -7 -18 -7 -2 -74 -132 -78 -148 -1 -3 -22
-48 -48 -101 -26 -52 -47 -98 -47 -100 0 -7 73 -5 85 3 6 3 21 0 35 -6 23 -10
25 -16 24 -68 0 -32 -2 -60 -5 -62 -2 -3 -38 -12 -79 -21 -41 -9 -79 -17 -85
-19 -28 -6 -131 -59 -172 -88 -50 -35 -125 -108 -158 -152 l-20 -27 -41 23
c-85 48 -81 37 -41 112 l36 66 -57 1 c-31 1 -73 3 -92 4 -30 3 -127 11 -238
19 -18 1 -35 -1 -37 -4 -4 -7 100 -170 114 -180 4 -3 10 -12 13 -20 9 -23 98
-150 106 -150 4 0 12 10 18 23 50 99 48 98 108 66 52 -28 70 -47 59 -62 -27
-37 -63 -195 -63 -278 0 -49 27 -206 38 -224 4 -5 12 -25 18 -42 12 -33 11
-33 -45 -68 -41 -25 -58 -31 -64 -22 -5 6 -23 35 -40 64 l-32 52 -113 -169
c-63 -93 -118 -172 -123 -176 -17 -10 0 -21 28 -19 34 4 154 12 283 20 52 4
100 8 107 10 8 3 0 24 -22 61 -19 32 -35 60 -35 64 0 3 25 21 57 39 l56 34 19
-24 c120 -151 279 -247 441 -266 26 -3 50 -10 53 -15 3 -5 7 -36 9 -69 l2 -59
-31 -1 c-17 -1 -50 -1 -73 -1 -24 1 -43 -2 -43 -5 0 -3 39 -85 87 -182 48 -97
87 -179 88 -183 0 -5 5 -9 10 -10 8 -3 193 353 195 373 0 4 -32 6 -70 5 -40
-1 -70 3 -71 9 -4 32 -5 125 -2 125 19 0 160 34 190 46 124 49 223 123 310
232 l18 22 35 -20 c19 -11 43 -23 52 -26 29 -10 27 -30 -7 -87 -40 -67 -46
-63 110 -73 61 -3 118 -8 127 -9 33 -7 148 -8 154 -2 3 3 -6 21 -20 40 -14 19
-26 39 -26 45 0 7 -3 12 -7 12 -5 0 -26 28 -48 63 -22 34 -43 67 -48 72 -5 6
-25 36 -47 69 l-38 58 -33 -61 c-19 -33 -39 -61 -46 -61 -14 0 -82 38 -101 57
-9 8 -10 18 -3 30 46 86 69 238 52 349 -11 78 -39 184 -51 194 -17 14 0 37 49
66 62 36 63 35 101 -38 14 -27 28 -48 32 -48 4 0 42 53 85 118 43 64 81 119
86 120 4 2 7 10 7 18 0 8 5 14 10 14 6 0 10 7 10 15 0 8 4 15 9 15 10 0 22 29
18 44 -2 9 -71 9 -154 1 -21 -2 -85 -7 -143 -11 -58 -3 -107 -8 -109 -10 -3
-3 8 -30 25 -62 16 -31 30 -59 32 -62 1 -3 -24 -20 -57 -38 l-59 -32 -25 33
c-27 36 -107 117 -114 117 -3 0 -19 11 -35 25 -24 21 -127 78 -148 83 -3 0
-12 3 -20 6 -8 3 -51 13 -95 23 l-80 18 0 65 0 65 70 1 c55 0 69 4 67 15 -7
27 -177 369 -184 369 -5 0 -8 -6 -8 -14z"/>
<path d="M877 2294 c-2 -2 -20 -4 -41 -6 -20 -1 -40 -6 -42 -10 -3 -5 -9 -6
-14 -3 -10 6 -136 -40 -157 -56 -7 -6 -13 -8 -13 -3 0 5 -4 4 -8 -2 -4 -6 -22
-19 -40 -28 -41 -21 -183 -161 -204 -201 -8 -16 -22 -43 -31 -60 -51 -97 -74
-200 -72 -320 4 -170 62 -317 176 -442 46 -51 153 -133 173 -133 9 0 16 -4 16
-10 0 -5 4 -10 9 -10 5 0 26 -8 47 -17 42 -18 43 -18 89 -27 17 -3 44 -10 60
-15 42 -12 207 -6 233 8 12 6 22 10 22 7 0 -6 71 16 115 34 17 7 33 13 38 12
4 -1 7 3 7 8 0 6 6 10 13 10 7 0 23 9 35 20 12 11 26 20 31 20 15 0 161 151
161 167 0 7 4 13 9 13 10 0 68 117 77 158 4 15 9 32 13 37 3 6 6 18 7 28 1 9
3 18 4 20 1 1 4 16 5 32 2 17 4 30 5 30 6 0 4 127 -1 131 -4 2 -6 17 -5 34 1
16 -2 30 -6 30 -5 0 -8 6 -7 13 7 40 -65 209 -98 230 -7 4 -13 14 -13 20 0 17
-141 157 -157 157 -7 0 -13 4 -13 8 0 12 -135 77 -180 88 -51 12 -50 11 -52
14 -7 5 -187 18 -191 14z"/>
<path d="M4177 2294 c-1 -1 -33 -4 -71 -8 -38 -4 -72 -8 -76 -11 -3 -2 -18 -6
-32 -9 -34 -6 -165 -72 -208 -104 -109 -83 -217 -233 -236 -329 -3 -18 -9 -33
-13 -33 -4 0 -7 -8 -7 -17 -1 -10 -4 -34 -8 -53 -9 -39 -10 -171 -2 -210 3
-14 8 -38 11 -54 40 -195 200 -386 388 -465 73 -30 94 -36 176 -50 192 -34
453 58 586 208 48 54 104 135 99 143 -3 5 -1 8 3 8 7 0 43 82 48 110 1 3 7 25
15 50 7 25 13 90 13 145 0 192 -68 355 -202 485 -43 41 -96 84 -117 95 -21 11
-41 23 -44 27 -13 16 -167 59 -240 66 -45 5 -82 7 -83 6z"/>
<path d="M2470 1347 c-3 -3 -23 -7 -45 -10 -22 -2 -57 -11 -79 -20 -21 -10
-41 -17 -45 -17 -13 0 -108 -54 -146 -83 -75 -58 -138 -130 -182 -207 -25 -45
-55 -118 -58 -140 0 -3 -3 -9 -7 -15 -6 -10 -20 -124 -23 -185 -1 -38 27 -205
35 -205 1 0 4 -11 6 -25 2 -13 8 -27 13 -30 5 -3 12 -16 16 -30 4 -14 13 -32
20 -40 7 -8 14 -20 16 -26 13 -37 139 -166 197 -201 47 -29 85 -47 95 -45 4 1
7 -2 7 -6 0 -12 71 -34 155 -49 59 -11 224 -7 270 6 22 6 42 10 45 9 3 -1 16
5 30 12 14 8 27 15 30 15 3 1 33 15 67 33 65 33 172 126 200 173 9 15 20 26
25 23 4 -3 8 1 8 8 0 7 11 30 25 51 14 20 23 37 19 37 -3 0 -1 6 5 13 15 19
49 129 56 182 14 100 5 228 -21 299 -8 23 -16 46 -17 51 -16 69 -120 207 -210
280 -65 51 -205 123 -221 112 -1 -1 -10 4 -19 11 -16 13 -256 30 -267 19z"/>
</g>
</svg>
