<?xml version="1.0" standalone="no"?>
<!DOCTYPE svg PUBLIC "-//W3C//DTD SVG 20010904//EN"
 "http://www.w3.org/TR/2001/REC-SVG-20010904/DTD/svg10.dtd">
<svg version="1.0" xmlns="http://www.w3.org/2000/svg"
 width="569.000000pt" height="569.000000pt" viewBox="0 0 569.000000 569.000000"
 preserveAspectRatio="xMidYMid meet">
<metadata>
Created by potrace 1.11, written by Peter Selinger 2001-2013
</metadata>
<g transform="translate(0.000000,569.000000) scale(0.100000,-0.100000)"
fill="#000000" stroke="none">
<path d="M2745 5683 c-99 -17 -144 -32 -235 -76 -88 -43 -118 -64 -186 -131
-150 -150 -223 -320 -229 -531 -1 -46 4 -89 19 -170 23 -125 100 -261 210
-370 68 -68 98 -89 186 -132 101 -50 154 -65 270 -79 30 -3 56 -7 58 -9 2 -2
-173 -366 -205 -427 -2 -4 27 -7 64 -6 106 1 99 7 96 -69 -1 -38 -2 -71 -2
-74 -1 -3 -40 -14 -88 -23 -60 -11 -121 -33 -191 -67 -86 -42 -116 -63 -186
-132 -46 -45 -88 -91 -94 -102 -10 -20 -12 -19 -67 10 -79 42 -81 46 -50 102
15 26 31 52 36 57 21 23 7 33 -48 35 -32 2 -76 4 -98 6 -22 2 -89 7 -150 11
-96 6 -132 9 -169 13 -4 1 -2 11 6 24 23 34 57 133 73 206 25 120 11 281 -38
418 -40 115 -160 266 -270 342 -212 145 -505 172 -734 66 -374 -173 -540 -594
-384 -974 118 -286 425 -478 730 -457 234 15 445 133 573 318 18 26 35 48 38
48 3 0 64 -88 135 -195 72 -107 132 -195 135 -195 3 0 23 29 44 65 21 36 41
65 44 65 4 0 25 -11 47 -25 22 -13 50 -29 62 -34 l21 -10 -24 -61 c-69 -170
-69 -379 -1 -548 l24 -60 -63 -36 c-35 -20 -65 -36 -68 -36 -2 0 -21 29 -41
65 -20 36 -39 65 -44 65 -4 0 -27 -30 -51 -67 -25 -38 -84 -125 -131 -195 -50
-73 -82 -128 -76 -131 7 -2 23 -3 37 -2 14 1 72 5 130 9 58 4 123 9 145 11 22
2 64 5 93 6 29 1 55 6 58 11 3 4 -11 35 -30 67 -20 32 -36 63 -36 67 0 5 29
25 65 44 l65 35 17 -25 c108 -156 356 -300 517 -300 22 0 36 -5 37 -12 0 -7 1
-42 2 -78 l2 -65 -82 -5 -82 -5 105 -212 c57 -117 104 -214 104 -216 0 -4 -90
-14 -165 -20 -11 -1 -22 -4 -25 -7 -3 -3 -30 -13 -60 -23 -201 -67 -381 -249
-452 -457 -25 -75 -26 -76 -35 -150 -22 -181 10 -327 110 -504 31 -56 152
-177 217 -218 160 -102 365 -145 540 -114 77 14 96 19 164 48 279 119 455 381
457 683 1 102 -7 152 -37 245 -63 188 -200 345 -380 434 -104 50 -143 62 -254
72 -36 4 -67 8 -69 10 -2 1 44 99 101 216 l105 213 -82 3 -81 3 1 67 c0 37 4
72 7 78 4 6 32 14 61 17 165 17 373 142 486 292 l22 29 55 -29 c81 -44 81 -45
40 -113 -20 -33 -36 -65 -36 -71 0 -7 21 -11 53 -12 28 0 68 -2 87 -4 19 -1
85 -5 145 -9 61 -4 127 -9 148 -10 31 -3 37 0 32 13 -10 25 -249 381 -257 381
-4 0 -23 -29 -43 -65 -20 -36 -39 -65 -41 -65 -3 0 -33 16 -68 36 l-62 36 28
80 c44 125 55 243 35 366 -9 55 -27 128 -41 161 l-25 61 63 35 c35 19 66 35
69 35 3 0 22 -29 42 -65 20 -36 40 -65 43 -65 4 0 65 88 136 195 71 107 132
195 135 195 3 0 17 -18 30 -40 81 -131 275 -267 436 -306 17 -4 37 -9 45 -11
8 -2 56 -6 107 -9 288 -14 570 151 697 409 58 119 78 198 81 324 5 211 -70
394 -225 550 -216 217 -557 275 -839 143 -166 -78 -292 -206 -369 -375 -84
-182 -81 -434 6 -616 16 -32 26 -60 23 -60 -10 -2 -61 -6 -176 -13 -60 -4
-126 -9 -145 -11 -19 -2 -61 -5 -92 -6 -32 -1 -58 -6 -58 -10 0 -4 16 -36 36
-70 l37 -62 -22 -16 c-11 -9 -41 -27 -66 -40 l-46 -24 -16 24 c-30 46 -160
164 -216 198 -80 47 -166 80 -261 99 l-82 16 1 69 c0 41 5 71 12 75 7 4 44 7
82 6 39 -1 69 2 67 5 -25 45 -206 424 -204 426 2 2 31 6 66 10 79 8 161 29
214 55 23 11 47 20 53 20 6 0 40 21 75 46 183 131 276 276 326 506 9 42 5 213
-6 263 -43 195 -143 351 -297 461 -64 47 -174 101 -233 116 -19 5 -44 11 -55
14 -24 6 -222 12 -250 7z"/>
<path d="M863 2530 c-95 -25 -164 -55 -243 -106 -71 -46 -165 -137 -206 -197
-56 -84 -108 -205 -122 -289 -11 -68 -7 -248 7 -308 74 -306 337 -540 647
-576 38 -4 71 -8 74 -7 3 0 38 3 78 7 270 22 518 204 623 455 159 382 -23 823
-407 985 -34 14 -77 28 -95 31 -18 3 -37 9 -42 12 -5 3 -62 7 -126 8 -87 2
-134 -2 -188 -15z"/>
<path d="M4500 2530 c-284 -60 -498 -270 -571 -561 -18 -68 -20 -102 -16 -193
5 -119 8 -132 33 -210 80 -245 276 -427 527 -491 213 -54 424 -17 608 106 203
136 333 389 324 629 -2 52 -6 106 -9 120 -3 14 -8 39 -12 55 -24 119 -120 276
-226 372 -76 69 -212 142 -313 169 -92 24 -244 26 -345 4z"/>
</g>
</svg>
