<svg xmlns="http://www.w3.org/2000/svg" xmlns:xlink="http://www.w3.org/1999/xlink" version="1.1" baseProfile="full" viewBox="0 0 200 200" width="200" height="200">
<g fill="black">
<path d="M 48.0 160.41466665267944 L 50.2 159.3 L 56.7 155.3 L 62.4 151.1 L 67.0 146.5 L 70.8 141.6 L 73.8 136.4 L 76.0 130.8 L 77.4 124.7 L 78.1 118.2 L 78.02676057815552 113.0 L 48.0 113.0 Z M 156.0 130.0 L 158.0 130.0 L 156.0 147.0 L 159.0 149.0 L 161.0 152.0 L 159.0 155.0 L 156.0 157.0 L 123.0 157.0 L 120.5 156.9 L 118.1 156.6 L 115.8 155.9 L 113.6 154.8 L 111.6 153.3 L 109.9 151.5 L 108.6 149.3 L 107.7 147.0 L 107.2 144.5 L 107.0 142.0 L 107.0 113.0 L 89.76904764175416 113.0 L 89.4 119.2 L 87.9 127.0 L 85.4 134.3 L 81.9 140.9 L 77.6 146.8 L 72.3 152.0 L 66.2 156.4 L 59.3 160.0 L 51.6 162.8 L 48.0 163.657142829895 L 48.0 172.0 L 155.0 172.0 L 165.0 162.0 L 177.0 172.0 L 177.0 176.0 L 48.0 176.0 L 48.0 183.0 L 36.0 189.0 L 36.0 113.0 L 15.0 113.0 L 15.0 109.0 L 59.0 109.0 L 59.0 38.0 L 24.0 38.0 L 24.0 34.0 L 59.0 34.0 L 59.0 13.0 L 71.0 15.0 L 74.0 17.0 L 71.0 18.8 L 71.0 34.0 L 129.0 34.0 L 129.0 13.0 L 141.0 15.0 L 144.0 17.0 L 141.0 18.8 L 141.0 34.0 L 154.0 34.0 L 164.0 24.0 L 176.0 34.0 L 176.0 38.0 L 141.0 38.0 L 141.0 109.0 L 163.0 109.0 L 173.0 99.0 L 185.0 109.0 L 185.0 113.0 L 119.0 113.0 L 119.0 142.0 L 118.9 143.2 L 119.0 144.1 L 119.1 144.8 L 119.3 145.6 L 119.5 145.9 L 119.9 146.2 L 120.6 146.5 L 121.6 146.8 L 123.0 147.0 L 151.0 147.0 Z M 71.0 88.0 L 71.0 109.0 L 129.0 109.0 L 129.0 88.0 Z M 71.0 63.0 L 71.0 84.0 L 129.0 84.0 L 129.0 63.0 Z M 71.0 38.0 L 71.0 59.0 L 129.0 59.0 L 129.0 38.0 Z " />
</g>
</svg>
