<svg xmlns="http://www.w3.org/2000/svg" xmlns:xlink="http://www.w3.org/1999/xlink" version="1.1" baseProfile="full" viewBox="0 0 200 200" width="200" height="200">
<g fill="black">
<path d="M 186.3 175.0 L 186.3 179.0 L 13.7 179.0 L 13.7 175.0 L 164.3 175.0 L 174.3 165.0 Z M 153.4 148.4 L 147.0 142.1 L 141.42354831695556 135.08136262893677 L 140.1 136.8 L 132.6 144.6 L 124.3 151.5 L 115.2 157.5 L 105.4 162.3 L 104.5 160.8 L 113.1 154.3 L 120.9 147.4 L 127.9 140.1 L 134.1 132.1 L 136.79391546249389 127.93667602539062 L 136.0 126.7 L 131.5 117.7 L 127.7 107.8 L 124.4 97.1 L 121.9 85.5 L 120.41428575515747 73.8 L 111.0 73.8 L 111.0 69.8 L 156.0 69.8 L 162.0 64.8 L 173.0 73.8 L 168.0 76.8 L 166.9506456375122 77.23723096847534 L 165.3 85.3 L 161.9 97.2 L 157.7 108.3 L 152.7 118.6 L 147.7703989982605 126.53749313354493 L 149.3 128.5 L 154.9 134.3 L 160.8 139.2 L 167.0 143.1 L 173.6 146.1 L 179.7 148.8 L 168.3 158.2 L 160.5 153.8 Z M 94.5 160.8 L 92.7 162.3 L 90.7 163.7 L 88.6 164.9 L 86.5 165.9 L 84.2 166.6 L 81.8 167.1 L 79.4 167.5 L 77.0 167.6 L 77.0 161.6 L 57.0 158.6 L 57.0 155.6 L 77.0 155.6 L 78.4 155.5 L 79.8 155.3 L 81.0 155.1 L 82.2 154.7 L 83.2 154.2 L 84.3 153.6 L 85.3 152.9 L 86.2 152.1 L 87.2 151.1 L 88.1 150.0 L 89.9 146.8 L 91.7 142.2 L 93.3 136.1 L 94.7 128.7 L 95.7 119.9 L 96.4 109.8 L 96.8 98.4 L 96.9 85.8 L 96.6 71.9 L 96.3766990661621 66.24304208755493 L 96.0 66.4 L 96.0 58.4 L 75.66862745285034 58.4 L 74.1 66.4 L 61.2 70.0 L 68.41323156356812 32.7 L 18.0 32.7 L 18.0 28.7 L 160.0 28.7 L 170.0 18.7 L 182.0 28.7 L 182.0 32.7 L 80.70784311294555 32.7 L 76.4529411315918 54.4 L 96.0 54.4 L 102.0 49.4 L 113.0 58.4 L 108.1371681213379 61.317699146270755 L 108.6 71.5 L 108.9 85.7 L 108.8 98.6 L 108.4 110.4 L 107.7 121.0 L 106.5 130.4 L 105.1 138.7 L 103.2 145.8 L 100.8 152.0 L 97.7 157.1 L 96.2 159.0 Z M 39.0 79.2 L 63.0 79.2 L 69.0 74.2 L 80.0 83.2 L 75.0 87.2 L 75.0 138.8 L 63.0 144.8 L 63.0 132.8 L 39.0 132.8 L 39.0 144.8 L 27.0 150.8 L 27.0 73.2 Z M 39.0 83.2 L 39.0 128.8 L 63.0 128.8 L 63.0 83.2 Z M 122.40677967071534 73.8 L 126.0 84.4 L 130.0 95.2 L 134.4 105.1 L 139.0 113.9 L 142.1208053588867 118.76845636367798 L 144.4 114.4 L 148.4 104.6 L 151.7 94.1 L 154.2 82.9 L 155.56499996185303 73.8 Z " />
</g>
</svg>
