<svg xmlns="http://www.w3.org/2000/svg" xmlns:xlink="http://www.w3.org/1999/xlink" version="1.1" baseProfile="full" viewBox="0 0 200 200" width="200" height="200">
<g fill="black">
<path d="M 150.0 183.4 L 139.2 180.1 L 130.3 175.6 L 123.1 170.0 L 117.5 163.5 L 113.4 156.4 L 111.99511623382568 152.7182354927063 L 108.8 160.8 L 104.8 168.4 L 100.2 175.2 L 94.9 180.8 L 88.9 185.4 L 82.4 188.7 L 81.5 187.2 L 86.5 182.5 L 90.9 177.2 L 94.8 171.4 L 98.1 164.9 L 100.9 157.6 L 103.2 149.6 L 105.0 140.7 L 106.3 130.9 L 107.0 120.3 L 107.18256387710571 109.89385890960693 L 107.1 109.9 L 107.2 106.5 L 119.2 109.0 L 122.1 111.1 L 118.93997936248779 112.93281192779541 L 118.4 121.1 L 116.9 132.3 L 114.9 142.7 L 114.62957248687744 143.6515043258667 L 116.0 146.6 L 119.7 152.9 L 124.0 158.3 L 129.2 162.9 L 133.5 165.57868852615357 L 133.5 88.0 L 97.6 88.0 L 97.6 84.0 L 170.6 84.0 L 171.06000003814697 83.61666669845582 L 171.5 82.7 L 171.8724021911621 82.93966484069824 L 176.6 79.0 L 187.6 88.0 L 182.6 91.0 L 178.5024390220642 92.70731706619263 L 175.6 95.9 L 171.3 100.2 L 169.1 102.3 L 166.8 104.4 L 164.5 106.4 L 162.0 108.4 L 159.7 110.5 L 158.3 109.4 L 159.9 106.7 L 162.5 101.1 L 163.9 98.4 L 165.2 95.7 L 166.5 93.1 L 167.8 90.4 L 169.0 88.0 L 145.5 88.0 L 145.5 129.0 L 164.21818180084227 129.0 L 172.4 120.0 L 182.4 129.0 L 182.4 133.0 L 145.5 133.0 L 145.5 170.30851068496705 L 152.3 171.9 L 163.8 173.1 L 177.5 173.4 L 189.4 173.4 L 177.5 186.6 L 162.7 185.6 Z M 78.4 168.6 L 76.8 166.0 L 74.6 163.4 L 72.1 160.7 L 69.2 158.1 L 65.8 155.4 L 62.0 152.7 L 57.8 149.9 L 56.844299125671384 149.33904514312744 L 53.4 156.6 L 48.8 163.7 L 43.2 170.1 L 36.8 175.7 L 29.5 180.6 L 21.3 184.6 L 12.3 187.7 L 11.6 186.1 L 19.5 181.2 L 26.5 176.1 L 32.5 170.7 L 37.6 165.0 L 41.8 158.9 L 45.1 152.4 L 47.7 145.5 L 49.4 138.1 L 49.83291139602661 134.3 L 13.6 134.3 L 13.6 130.3 L 50.288607597351074 130.3 L 50.3 130.2 L 50.4 121.8 L 50.4 104.6 L 37.123255825042726 104.6 L 36.6 105.5 L 33.9 109.7 L 30.9 113.9 L 27.7 118.0 L 24.1 122.1 L 20.2 126.0 L 18.8 125.0 L 21.1 120.0 L 23.3 115.2 L 25.4 110.6 L 27.3 106.1 L 29.1 101.7 L 30.7 97.4 L 32.1 93.1 L 33.4 89.0 L 34.4 84.9 L 35.072112464904784 81.91283359527588 L 35.0 81.9 L 35.7 79.2 L 46.8 84.0 L 49.2 86.7 L 45.390334606170654 87.78847579956054 L 45.2 88.3 L 43.4 92.6 L 41.4 96.9 L 39.42093019485473 100.6 L 68.8 100.6 L 78.8 90.6 L 90.8 100.6 L 90.8 104.6 L 62.4 104.6 L 62.4 121.8 L 61.69166669845581 130.3 L 72.1 130.3 L 82.1 120.3 L 94.1 130.3 L 94.1 134.3 L 61.05222225189209 134.3 L 59.9 140.4 L 57.843930625915526 146.56820812225342 L 59.1 146.9 L 64.1 148.4 L 68.8 150.2 L 73.0 152.1 L 77.0 154.3 L 80.6 156.7 L 83.9 159.3 L 86.8 162.1 L 89.4 165.2 L 91.6 168.5 L 91.7 173.1 L 88.6 176.5 L 84.1 176.6 L 80.7 173.6 L 79.7 171.1 Z M 140.1 70.9 L 138.0 67.2 L 135.7 63.6 L 133.0 60.1 L 130.1 56.6 L 126.9 53.2 L 123.4 49.9 L 119.6 46.6 L 115.6 43.2 L 116.4 41.6 L 121.5 43.5 L 126.3 45.7 L 130.8 48.2 L 135.0 51.1 L 139.0 54.2 L 142.7 57.6 L 143.54967765808107 58.52464923858643 L 144.7 56.7 L 147.6 52.3 L 150.5 48.0 L 153.4 43.8 L 156.2 39.8 L 158.9 35.8 L 161.5 31.9 L 164.0 28.0 L 165.26315793991088 26.0 L 101.5 26.0 L 101.5 22.0 L 167.6 22.0 L 167.94766359329225 21.710280418395996 L 168.7 20.5 L 169.07942476272584 20.767146015167235 L 173.6 17.0 L 184.6 26.0 L 179.6 29.0 L 175.895272731781 30.543636322021484 L 175.6 30.9 L 172.6 34.5 L 169.5 38.0 L 166.2 41.6 L 162.8 45.1 L 159.2 48.7 L 155.5 52.3 L 151.6 55.8 L 147.5 59.2 L 145.55287351608277 60.7045976638794 L 146.1 61.3 L 149.2 65.2 L 152.0 69.4 L 154.5 73.8 L 154.5 78.3 L 151.4 81.7 L 146.9 81.8 L 143.5 78.7 L 142.0 74.7 Z M 85.5 40.1 L 87.5 40.1 L 85.5 65.1 L 89.1 67.5 L 91.5 71.1 L 89.1 74.7 L 85.5 77.1 L 37.1 77.1 L 34.5 76.9 L 32.0 76.5 L 29.6 75.7 L 27.4 74.5 L 25.4 72.8 L 23.7 70.8 L 22.5 68.5 L 21.7 66.1 L 21.2 63.6 L 21.1 61.1 L 21.1 14.2 L 33.1 16.2 L 36.1 18.2 L 33.1 20.0 L 33.1 40.745454502105716 L 43.6 37.5 L 54.4 34.1 L 59.7 32.3 L 65.0 30.4 L 70.2 28.5 L 75.3 26.5 L 80.4 24.3 L 81.02349290847778 26.018407344818115 L 89.9 33.7 L 90.1 36.8 L 86.05970411300659 35.051215171813965 L 84.5 35.6 L 79.0 37.2 L 73.4 38.7 L 67.8 40.1 L 62.1 41.3 L 56.4 42.3 L 50.7 43.2 L 44.9 44.0 L 39.1 44.5 L 33.2 44.7 L 33.1 44.69833335876465 L 33.1 61.1 L 33.2 62.3 L 33.3 63.2 L 33.5 63.8 L 33.7 64.1 L 33.8 64.3 L 34.0 64.5 L 34.4 64.7 L 35.0 64.8 L 35.9 65.0 L 37.1 65.1 L 79.5 65.1 Z " />
</g>
</svg>
