<svg xmlns="http://www.w3.org/2000/svg" xmlns:xlink="http://www.w3.org/1999/xlink" version="1.1" baseProfile="full" viewBox="0 0 200 200" width="200" height="200">
<g fill="black">
<path d="M 87.0 149.0 L 105.0 149.0 L 105.0 112.0 L 117.0 118.0 L 136.0 118.0 L 136.0 96.0 L 148.0 98.0 L 151.0 100.0 L 148.0 101.8 L 148.0 118.0 L 155.0 118.0 L 165.0 108.0 L 177.0 118.0 L 177.0 122.0 L 148.0 122.0 L 148.0 149.0 L 161.0 149.0 L 171.0 139.0 L 183.0 149.0 L 183.0 153.0 L 148.0 153.0 L 148.0 182.0 L 136.0 188.0 L 136.0 153.0 L 87.0 153.0 Z M 60.3 143.7 L 59.5 142.0 L 58.4 140.3 L 57.2 138.4 L 55.7 136.6 L 54.1 134.7 L 52.1 132.8 L 50.0 130.8 L 48.022741603851316 129.5345546722412 L 46.4 131.2 L 42.3 134.7 L 38.0 137.9 L 33.4 140.5 L 28.4 142.7 L 27.5 141.2 L 31.1 137.5 L 34.5 133.8 L 37.7 130.0 L 40.7 126.1 L 43.5 122.1 L 46.0 117.9 L 48.4 113.4 L 50.4 108.8 L 52.3 104.0 L 53.69188480377197 99.82434558868408 L 53.6 99.8 L 54.5 97.4 L 65.3 102.9 L 67.4 105.8 L 63.65314683914185 106.52307691574097 L 62.8 108.4 L 61.45 111.0 L 85.0 111.0 L 85.43902435302735 110.63414630889892 L 85.5 110.5 L 85.5649582862854 110.52920141220093 L 91.0 106.0 L 102.0 115.0 L 97.0 118.0 L 94.53921203613281 119.02532835006714 L 90.6 126.7 L 84.5 137.1 L 77.9 146.6 L 71.0 155.1 L 63.7 162.7 L 56.1 169.2 L 48.1 174.8 L 39.8 179.3 L 31.1 182.6 L 22.2 184.8 L 21.7 183.1 L 29.6 179.2 L 37.2 174.6 L 44.3 169.4 L 51.2 163.5 L 57.7 156.7 L 63.8 149.2 L 63.820296669006346 149.17110300064087 L 61.2 147.0 L 60.8 145.4 Z M 117.0 122.0 L 117.0 149.0 L 136.0 149.0 L 136.0 122.0 Z M 59.24285717010498 115.0 L 57.1 118.5 L 53.8 123.0 L 50.2 127.3 L 49.44686899185181 128.07295026779175 L 51.1 128.7 L 54.1 129.4 L 56.9 130.4 L 59.5 131.5 L 62.0 132.8 L 64.3 134.3 L 66.5 135.8 L 68.5 137.6 L 70.3 139.5 L 70.40919704437256 139.63489055633545 L 75.3 131.6 L 80.5 121.5 L 83.45454549789429 115.0 Z M 156.9 90.9 L 149.9 87.4 L 143.0 83.8 L 136.5 80.0 L 130.2 76.0 L 124.1 71.7 L 118.4 67.2 L 113.1 62.4 L 109.0 58.132653045654294 L 109.0 98.0 L 97.0 104.0 L 97.0 67.8285714149475 L 92.5 71.3 L 85.0 76.4 L 77.2 81.2 L 69.1 85.6 L 60.5 89.8 L 51.5 93.6 L 42.2 97.1 L 32.4 100.2 L 22.2 102.8 L 21.7 101.1 L 31.1 96.7 L 40.1 92.2 L 48.8 87.7 L 57.0 83.1 L 64.8 78.3 L 72.3 73.3 L 79.3 68.2 L 85.8 62.8 L 92.0 57.3 L 92.30526313781738 57.0 L 30.0 57.0 L 30.0 53.0 L 96.37543859481812 53.0 L 97.0 52.38620691299438 L 97.0 16.0 L 109.0 18.0 L 112.0 20.0 L 109.0 21.8 L 109.0 53.0 L 154.0 53.0 L 164.0 43.0 L 176.0 53.0 L 176.0 57.0 L 111.43125 57.0 L 121.7 62.3 L 127.9 65.6 L 134.3 68.7 L 140.8 71.7 L 147.5 74.6 L 154.4 77.4 L 161.4 80.0 L 168.7 82.4 L 176.1 84.7 L 183.4 87.2 L 171.8 97.2 L 164.3 94.1 Z M 151.7 27.8 L 152.5 31.3 L 148.58104906082153 30.47495765686035 L 146.0 32.7 L 140.0 37.7 L 136.9 40.2 L 130.3 45.2 L 126.8 47.7 L 123.2 50.1 L 119.6 52.6 L 118.3 51.3 L 121.0 47.8 L 123.6 44.3 L 126.1 41.0 L 128.7 37.7 L 131.2 34.5 L 133.7 31.4 L 136.1 28.4 L 138.4 25.4 L 140.7 22.5 L 142.30567541122437 20.383427906036378 L 142.2 20.3 L 143.2 19.2 Z M 66.0 42.9 L 64.5 40.7 L 62.9 38.4 L 60.9 36.2 L 58.7 33.9 L 56.3 31.7 L 53.7 29.5 L 50.8 27.1 L 47.5 25.2 L 48.2 23.5 L 52.0 24.7 L 55.7 25.7 L 59.2 27.0 L 62.5 28.5 L 65.7 30.1 L 68.6 32.0 L 71.4 34.0 L 74.0 36.3 L 76.4 38.7 L 78.6 41.3 L 79.2 45.8 L 76.5 49.5 L 72.0 50.1 L 68.3 47.5 L 67.2 45.2 Z " />
</g>
</svg>
