<svg xmlns="http://www.w3.org/2000/svg" xmlns:xlink="http://www.w3.org/1999/xlink" version="1.1" baseProfile="full" viewBox="0 0 200 200" width="200" height="200">
<g fill="black">
<path d="M 156.0 169.4 L 147.2 160.6 L 139.5 151.0 L 137.93489408493042 148.52386226654053 L 131.6 156.9 L 121.3 167.3 L 110.0 176.1 L 97.5 183.3 L 83.9 188.8 L 83.2 187.1 L 95.6 180.0 L 106.8 171.8 L 116.8 162.6 L 125.7 152.1 L 133.09394416809081 140.86504592895508 L 132.8 140.4 L 127.2 128.9 L 122.5 116.5 L 119.0 103.2 L 116.5 89.1 L 115.81242599487305 80.50532541275024 L 111.9 86.7 L 106.7 93.8 L 101.0 100.5 L 99.5 99.4 L 103.5 91.8 L 107.2 84.0 L 110.8 76.1 L 114.3 68.0 L 117.4 59.6 L 120.3 50.9 L 123.0 42.1 L 125.4 32.9 L 127.5 23.4 L 129.20403079986573 14.700474262237549 L 129.2 14.7 L 129.24799995422364 14.476000022888183 L 129.4 13.7 L 129.4136841773987 13.70280704498291 L 129.8 11.9 L 141.1 16.1 L 143.7 18.7 L 140.14278602600098 19.92885570526123 L 138.6 26.1 L 135.7 35.8 L 132.5 45.1 L 129.1 54.1 L 126.08620691299438 61.0 L 164.5 61.0 L 174.5 51.0 L 186.5 61.0 L 186.5 65.0 L 167.58010473251343 65.0 L 164.8 82.7 L 160.5 100.4 L 155.1 116.7 L 148.5 131.5 L 143.77682580947877 139.57124700546265 L 147.6 144.8 L 155.2 153.0 L 163.6 160.3 L 172.6 166.7 L 182.5 172.1 L 187.7 174.8 L 176.4 183.8 L 165.7 177.1 Z M 64.0 175.0 L 76.0 175.0 L 77.2 174.9 L 78.1 174.7 L 79.0 174.4 L 79.4 174.0 L 79.7 173.1 L 79.9 172.2 L 80.0 171.0 L 80.0 149.0 L 35.0 149.0 L 35.0 182.0 L 23.0 188.0 L 23.0 90.0 L 35.0 96.0 L 80.0 96.0 L 86.0 91.0 L 97.0 100.0 L 92.0 104.0 L 92.0 171.0 L 91.8 173.5 L 91.4 176.0 L 90.6 178.4 L 89.3 180.7 L 87.7 182.7 L 85.7 184.3 L 83.4 185.6 L 81.0 186.4 L 78.5 186.8 L 76.0 187.0 L 76.0 181.0 L 64.0 178.0 Z M 35.0 124.0 L 35.0 145.0 L 80.0 145.0 L 80.0 124.0 Z M 124.18674697875977 65.0 L 121.1 71.1 L 117.86710243225097 76.97799568176269 L 120.6 88.3 L 124.7 101.6 L 129.3 114.0 L 134.7 125.3 L 138.20159835815429 131.15513162612916 L 140.1 127.5 L 145.7 113.2 L 150.2 97.6 L 153.6 80.6 L 155.56065578460692 65.0 Z M 35.0 100.0 L 35.0 120.0 L 80.0 120.0 L 80.0 100.0 Z M 12.0 77.0 L 36.0 77.0 L 36.0 48.0 L 15.0 48.0 L 15.0 44.0 L 36.0 44.0 L 36.0 13.0 L 48.0 15.0 L 51.0 17.0 L 48.0 18.8 L 48.0 44.0 L 70.0 44.0 L 70.0 13.0 L 82.0 15.0 L 85.0 17.0 L 82.0 18.8 L 82.0 44.0 L 87.81818180084228 44.0 L 96.0 35.0 L 106.0 44.0 L 106.0 48.0 L 82.0 48.0 L 82.0 77.0 L 86.0 77.0 L 96.0 67.0 L 108.0 77.0 L 108.0 81.0 L 12.0 81.0 Z M 48.0 48.0 L 48.0 77.0 L 70.0 77.0 L 70.0 48.0 Z " />
</g>
</svg>
