<svg xmlns="http://www.w3.org/2000/svg" xmlns:xlink="http://www.w3.org/1999/xlink" version="1.1" baseProfile="full" viewBox="0 0 200 200" width="200" height="200">
<g fill="black">
<path d="M 148.5 178.1 L 146.7 179.7 L 144.7 181.1 L 142.6 182.3 L 140.5 183.3 L 138.2 184.0 L 135.8 184.5 L 133.4 184.8 L 131.0 185.0 L 131.0 179.0 L 111.0 176.0 L 111.0 173.0 L 131.0 173.0 L 132.4 172.9 L 133.7 172.7 L 135.0 172.4 L 136.1 172.1 L 137.2 171.6 L 138.2 171.0 L 139.2 170.3 L 140.2 169.5 L 141.1 168.5 L 142.0 167.3 L 145.5 161.6 L 148.7 154.1 L 151.6 144.8 L 154.1 133.9 L 156.2 121.4 L 157.9 107.1 L 159.1 91.3 L 159.8 73.8 L 160.1 54.7 L 160.0479612350464 43.98001613616943 L 160.0 44.0 L 160.0 36.0 L 100.75660381317138 36.0 L 99.3 55.3 L 96.1 75.0 L 91.4 93.4 L 85.2 110.4 L 77.4 126.0 L 68.2 140.1 L 57.4 152.6 L 45.2 163.7 L 31.5 173.0 L 16.4 180.8 L 15.5 179.1 L 29.4 169.9 L 41.7 159.6 L 52.6 148.2 L 62.0 135.7 L 70.0 121.9 L 76.6 106.9 L 81.8 90.6 L 85.6 73.0 L 88.0 54.1 L 88.81044778823852 36.0 L 32.0 36.0 L 32.0 32.0 L 160.0 32.0 L 166.0 27.0 L 177.0 36.0 L 172.0 39.0 L 171.9497233390808 39.020948600769046 L 172.1 54.8 L 171.8 74.2 L 171.1 92.0 L 169.8 108.3 L 168.1 123.0 L 165.9 136.2 L 163.2 148.0 L 160.0 158.2 L 156.2 167.0 L 151.7 174.4 L 150.2 176.3 Z M 60.3 99.7 L 57.4 95.7 L 54.3 91.8 L 51.0 88.1 L 47.4 84.5 L 43.5 81.1 L 39.4 77.8 L 35.1 74.5 L 30.5 71.2 L 31.2 69.5 L 36.8 71.1 L 42.2 73.2 L 47.2 75.7 L 52.0 78.5 L 56.6 81.7 L 60.9 85.2 L 65.0 89.1 L 68.8 93.2 L 72.4 97.6 L 75.6 102.4 L 76.2 106.9 L 73.4 110.5 L 68.9 111.1 L 65.3 108.3 L 62.9 103.9 Z " />
</g>
</svg>
