<svg xmlns="http://www.w3.org/2000/svg" xmlns:xlink="http://www.w3.org/1999/xlink" version="1.1" baseProfile="full" viewBox="0 0 200 200" width="200" height="200">
<g fill="black">
<path d="M 137.0 175.2 L 151.0 175.2 L 152.2 175.1 L 153.1 174.9 L 153.7 174.7 L 154.1 174.6 L 154.2 174.4 L 154.4 174.2 L 154.6 173.9 L 154.8 173.3 L 154.9 172.4 L 155.0 171.2 L 155.0 55.5 L 106.0 55.5 L 106.0 179.0 L 94.0 185.0 L 94.0 55.5 L 43.9 55.5 L 43.9 181.5 L 31.9 187.5 L 31.9 56.66129035949707 L 26.4 59.5 L 20.0 62.3 L 13.4 64.7 L 12.5 63.2 L 18.1 59.0 L 23.6 54.9 L 29.0 50.8 L 31.9 48.457692337036136 L 31.9 45.5 L 34.16176471710205 46.63088235855103 L 34.2 46.6 L 39.2 42.3 L 44.1 37.9 L 48.7 33.3 L 53.3 28.6 L 57.6 23.7 L 61.11724662780762 19.51280164718628 L 61.1 19.5 L 61.43478260040283 19.134782600402833 L 61.8 18.7 L 61.818367385864256 18.71632652282715 L 62.2 18.3 L 70.8 26.7 L 71.7 30.2 L 68.01176471710205 29.48823528289795 L 65.9 31.6 L 60.7 36.3 L 55.5 40.7 L 50.0 45.0 L 44.4 49.0 L 42.01940298080444 50.55970153808594 L 43.9 51.5 L 94.0 51.5 L 94.0 13.0 L 106.0 15.0 L 109.0 17.0 L 106.0 18.8 L 106.0 51.5 L 155.0 51.5 L 161.0 46.5 L 172.0 55.5 L 167.0 59.5 L 167.0 171.2 L 166.9 173.7 L 166.4 176.2 L 165.6 178.6 L 164.4 180.9 L 162.7 182.9 L 160.7 184.5 L 158.5 185.8 L 156.0 186.6 L 153.6 187.0 L 151.0 187.2 L 151.0 181.2 L 137.0 178.2 Z M 74.8 151.6 L 72.8 148.0 L 71.87628202438354 146.4884614944458 L 71.2 147.3 L 67.1 151.8 L 62.6 156.0 L 57.9 159.9 L 52.9 163.4 L 47.5 166.5 L 46.4 165.1 L 50.4 160.6 L 54.2 156.0 L 57.8 151.5 L 61.3 146.9 L 64.5 142.1 L 66.43290977478027 138.90070114135742 L 65.4 137.6 L 62.4 134.3 L 59.3 131.0 L 56.0 127.7 L 52.3 124.4 L 53.3 122.9 L 57.9 124.8 L 62.3 127.0 L 66.5 129.5 L 70.25131969451904 132.1932551383972 L 72.7 127.1 L 75.0 121.8 L 76.66529455184937 117.2204400062561 L 76.6 117.2 L 77.5 115.0 L 88.1 120.8 L 90.2 123.8 L 86.36439590454101 124.39517993927002 L 85.3 126.6 L 82.2 132.1 L 78.8 137.4 L 77.79917011260986 138.81784229278566 L 80.8 142.1 L 83.8 145.9 L 86.6 149.8 L 89.1 154.0 L 89.3 158.5 L 86.2 162.0 L 81.7 162.1 L 78.2 159.1 L 76.6 155.3 Z M 134.6 151.0 L 132.5 147.8 L 131.93907346725464 147.01958045959472 L 131.8 147.2 L 127.9 151.7 L 123.7 155.9 L 119.3 159.8 L 114.5 163.4 L 109.5 166.5 L 108.4 165.1 L 115.4 156.1 L 118.7 151.6 L 121.9 147.0 L 124.9 142.2 L 126.32043800354003 139.76496353149415 L 125.0 138.2 L 122.1 135.1 L 119.0 131.9 L 115.8 128.7 L 112.3 125.5 L 113.3 124.0 L 117.7 125.9 L 121.9 128.0 L 125.9 130.3 L 129.8 132.9 L 129.940425491333 133.00531911849976 L 130.3 132.3 L 132.7 127.2 L 135.0 121.8 L 136.66529455184937 117.2204400062561 L 136.6 117.2 L 137.5 115.0 L 148.1 120.8 L 150.2 123.8 L 146.36439590454103 124.39517993927002 L 145.3 126.6 L 142.3 132.1 L 139.0 137.3 L 137.67934379577636 139.2243847846985 L 140.0 141.4 L 143.0 144.6 L 145.9 147.9 L 148.5 151.4 L 149.2 155.9 L 146.5 159.6 L 142.0 160.3 L 138.3 157.6 L 136.5 154.3 Z M 74.6 100.4 L 72.4 97.2 L 71.12862796783448 95.54168863296509 L 71.0 95.7 L 67.0 100.2 L 62.7 104.3 L 58.2 108.1 L 53.5 111.3 L 48.5 114.0 L 47.4 112.5 L 51.0 108.4 L 54.5 104.2 L 57.9 99.9 L 61.1 95.4 L 64.2 90.7 L 65.20384616851807 89.00384616851807 L 64.5 88.3 L 61.4 85.5 L 58.0 82.7 L 54.4 79.9 L 50.5 77.3 L 51.2 75.6 L 55.9 76.9 L 60.4 78.4 L 64.7 80.3 L 68.8 82.5 L 68.83513517379761 82.52252254486083 L 69.8 80.7 L 72.4 75.3 L 74.8 69.6 L 76.62428398132325 64.70760192871094 L 76.6 64.7 L 76.79047622680665 64.2619047164917 L 77.0 63.7 L 77.02947225570679 63.71221370697022 L 77.6 62.4 L 88.1 68.3 L 90.1 71.3 L 86.36691379547119 71.82394189834595 L 85.1 74.4 L 81.9 80.2 L 78.5 85.7 L 76.81172409057618 88.1386206626892 L 79.8 90.7 L 83.0 93.9 L 85.9 97.4 L 88.6 101.1 L 89.2 105.6 L 86.4 109.3 L 81.9 109.8 L 78.3 107.1 L 76.5 103.7 Z M 134.6 100.4 L 132.4 97.2 L 131.27346935272217 95.73061227798462 L 127.4 100.2 L 123.2 104.3 L 118.9 108.0 L 114.3 111.3 L 109.5 114.0 L 108.4 112.6 L 111.8 108.4 L 115.1 104.2 L 118.3 99.9 L 121.4 95.5 L 124.4 90.8 L 125.34545450210571 89.14545450210571 L 124.5 88.3 L 121.4 85.5 L 118.0 82.7 L 114.4 79.9 L 110.5 77.3 L 111.2 75.6 L 115.9 76.9 L 120.4 78.4 L 124.7 80.3 L 128.8 82.5 L 128.9240843772888 82.57954120635986 L 129.9 80.7 L 132.4 75.3 L 134.8 69.7 L 136.62990121841432 64.70936040878296 L 136.6 64.7 L 136.81276597976685 64.21063833236694 L 137.0 63.7 L 137.0294722557068 63.71221370697022 L 137.6 62.4 L 148.1 68.3 L 150.1 71.3 L 146.3669137954712 71.82394189834595 L 145.1 74.4 L 142.0 80.2 L 138.6 85.7 L 136.90487804412842 88.21846685409545 L 139.8 90.7 L 143.0 93.9 L 145.9 97.4 L 148.6 101.1 L 149.2 105.6 L 146.4 109.3 L 141.9 109.8 L 138.3 107.1 L 136.5 103.7 Z M 169.9 50.0 L 166.0 46.5 L 161.6 43.1 L 156.8 39.7 L 151.5 36.2 L 145.9 32.8 L 139.8 29.4 L 133.4 25.8 L 126.6 22.1 L 127.2 20.5 L 134.8 22.3 L 142.0 24.5 L 148.7 26.9 L 155.1 29.5 L 161.1 32.3 L 166.6 35.3 L 171.8 38.4 L 176.7 41.6 L 181.1 45.1 L 185.2 48.6 L 186.8 52.9 L 185.0 57.1 L 180.7 58.7 L 176.5 56.9 L 173.4 53.4 Z " />
</g>
</svg>
