<svg xmlns="http://www.w3.org/2000/svg" xmlns:xlink="http://www.w3.org/1999/xlink" version="1.1" baseProfile="full" viewBox="0 0 200 200" width="200" height="200">
<g fill="black">
<path d="M 71.0 177.0 L 91.0 177.0 L 92.2 176.9 L 93.1 176.7 L 94.0 176.4 L 94.4 176.0 L 94.7 175.1 L 94.9 174.2 L 95.0 173.0 L 95.0 110.0 L 36.0 110.0 L 36.0 106.0 L 95.0 106.0 L 95.0 68.0 L 19.0 68.0 L 19.0 64.0 L 95.0 64.0 L 95.0 28.0 L 42.0 28.0 L 42.0 24.0 L 148.0 24.0 L 154.0 19.0 L 165.0 28.0 L 160.0 32.0 L 160.0 64.0 L 166.0 64.0 L 176.0 54.0 L 188.0 64.0 L 188.0 68.0 L 160.0 68.0 L 160.0 116.0 L 148.0 122.0 L 148.0 110.0 L 107.0 110.0 L 107.0 173.0 L 106.8 175.5 L 106.4 178.0 L 105.6 180.4 L 104.3 182.7 L 102.7 184.7 L 100.7 186.3 L 98.4 187.6 L 96.0 188.4 L 93.5 188.8 L 91.0 189.0 L 91.0 183.0 L 71.0 180.0 Z M 107.0 68.0 L 107.0 106.0 L 148.0 106.0 L 148.0 68.0 Z M 107.0 28.0 L 107.0 64.0 L 148.0 64.0 L 148.0 28.0 Z " />
</g>
</svg>
