<svg xmlns="http://www.w3.org/2000/svg" xmlns:xlink="http://www.w3.org/1999/xlink" version="1.1" baseProfile="full" viewBox="0 0 200 200" width="200" height="200">
<g fill="black">
<path d="M 163.8 74.6 L 165.6 77.8 L 161.8436534881592 77.99100065231323 L 160.8 79.8 L 157.7 85.1 L 154.4 90.5 L 151.1 96.1 L 147.6 101.9 L 144.0 107.8 L 140.3 113.8 L 136.3 119.9 L 132.2 126.1 L 127.7 132.4 L 126.2 131.5 L 128.8 124.3 L 131.6 117.4 L 134.4 110.7 L 137.3 104.2 L 140.1 98.0 L 142.8 91.8 L 145.5 85.9 L 148.1 80.1 L 150.7 74.5 L 152.7699188232422 70.02897539138795 L 152.7 70.0 L 153.7 68.0 Z M 48.9 112.6 L 47.4 107.5 L 45.7 102.6 L 43.9 97.8 L 42.0 93.3 L 39.9 88.9 L 37.6 84.7 L 35.4 80.5 L 33.0 76.3 L 34.3 75.1 L 38.3 78.0 L 42.0 81.5 L 45.4 85.3 L 48.5 89.5 L 51.5 94.0 L 54.2 98.8 L 56.7 103.8 L 59.0 109.1 L 61.1 114.7 L 63.0 120.6 L 62.3 125.1 L 58.7 127.9 L 54.2 127.1 L 51.4 123.5 L 50.2 117.9 Z M 93.6 107.5 L 92.4 103.0 L 91.0 98.5 L 89.4 94.0 L 85.6 84.8 L 83.4 80.1 L 81.2 75.3 L 78.8 70.3 L 80.3 69.2 L 84.3 73.1 L 87.9 77.2 L 91.2 81.5 L 94.2 85.9 L 97.0 90.3 L 99.5 94.9 L 101.8 99.5 L 103.8 104.2 L 105.6 108.9 L 107.1 113.7 L 106.3 118.2 L 102.6 120.9 L 98.1 120.1 L 95.4 116.4 L 94.6 112.0 Z " />
</g>
</svg>
