<svg xmlns="http://www.w3.org/2000/svg" xmlns:xlink="http://www.w3.org/1999/xlink" version="1.1" baseProfile="full" viewBox="0 0 200 200" width="200" height="200">
<g fill="black">
<path d="M 136.0 157.0 L 150.0 157.0 L 151.2 156.9 L 152.1 156.7 L 153.0 156.4 L 153.4 156.0 L 153.7 155.1 L 153.9 154.2 L 154.0 153.0 L 154.0 107.0 L 106.0 107.0 L 106.0 182.0 L 94.0 188.0 L 94.0 107.0 L 46.0 107.0 L 46.0 162.0 L 34.0 168.0 L 34.0 97.0 L 46.0 103.0 L 94.0 103.0 L 94.0 80.0 L 106.0 82.0 L 109.0 84.0 L 106.0 85.8 L 106.0 103.0 L 154.0 103.0 L 160.0 98.0 L 171.0 107.0 L 166.0 111.0 L 166.0 153.0 L 165.8 155.5 L 165.4 158.0 L 164.6 160.4 L 163.3 162.7 L 161.7 164.7 L 159.7 166.3 L 157.4 167.6 L 155.0 168.4 L 152.5 168.8 L 150.0 169.0 L 150.0 163.0 L 136.0 160.0 Z M 141.0 14.0 L 144.0 16.0 L 141.0 17.8 L 141.0 38.0 L 153.0 38.0 L 163.0 28.0 L 175.0 38.0 L 175.0 42.0 L 141.0 42.0 L 141.0 81.0 L 129.0 87.0 L 129.0 77.0 L 71.0 77.0 L 71.0 84.0 L 59.0 90.0 L 59.0 42.0 L 25.0 42.0 L 25.0 38.0 L 59.0 38.0 L 59.0 12.0 L 71.0 14.0 L 74.0 16.0 L 71.0 17.8 L 71.0 38.0 L 129.0 38.0 L 129.0 12.0 Z M 71.0 42.0 L 71.0 73.0 L 129.0 73.0 L 129.0 42.0 Z " />
</g>
</svg>
