<svg xmlns="http://www.w3.org/2000/svg" xmlns:xlink="http://www.w3.org/1999/xlink" version="1.1" baseProfile="full" viewBox="0 0 200 200" width="200" height="200">
<g fill="black">
<path d="M 184.0 181.0 L 184.0 185.0 L 18.0 185.0 L 18.0 181.0 L 162.0 181.0 L 172.0 171.0 Z M 48.4 165.6 L 36.4 171.6 L 36.4 87.0 L 48.4 93.0 L 151.6 93.0 L 157.6 88.0 L 168.6 97.0 L 163.6 101.0 L 163.6 159.6 L 151.6 165.6 L 151.6 153.6 L 48.4 153.6 Z M 48.4 125.3 L 48.4 149.6 L 94.0 149.6 L 94.0 125.3 Z M 106.0 125.3 L 106.0 149.6 L 151.6 149.6 L 151.6 125.3 Z M 48.4 97.0 L 48.4 121.3 L 94.0 121.3 L 94.0 97.0 Z M 106.0 97.0 L 106.0 121.3 L 151.6 121.3 L 151.6 97.0 Z M 38.0 22.8 L 78.0 22.8 L 84.0 17.8 L 95.0 26.8 L 90.0 30.8 L 90.0 72.1 L 78.0 78.1 L 78.0 68.1 L 38.0 68.1 L 38.0 80.1 L 26.0 86.1 L 26.0 16.8 Z M 122.0 22.8 L 162.0 22.8 L 168.0 17.8 L 179.0 26.8 L 174.0 30.8 L 174.0 74.1 L 162.0 80.1 L 162.0 68.1 L 122.0 68.1 L 122.0 75.1 L 110.0 81.1 L 110.0 16.8 Z M 122.0 26.8 L 122.0 64.1 L 162.0 64.1 L 162.0 26.8 Z M 38.0 26.8 L 38.0 64.1 L 78.0 64.1 L 78.0 26.8 Z " />
</g>
</svg>
