<svg xmlns="http://www.w3.org/2000/svg" xmlns:xlink="http://www.w3.org/1999/xlink" version="1.1" baseProfile="full" viewBox="0 0 200 200" width="200" height="200">
<g fill="black">
<path d="M 172.8 103.3 L 171.6 100.0 L 170.2 96.6 L 168.6 93.0 L 166.7 89.4 L 164.7 85.6 L 162.4 81.7 L 160.0 77.6 L 159.97995700836182 77.56956434249878 L 159.6 91.4 L 158.8 107.8 L 157.8 122.6 L 156.6 135.6 L 155.2 146.9 L 153.5 156.5 L 151.5 164.5 L 149.1 171.0 L 148.0 173.2 L 146.7 175.3 L 145.1 177.2 L 143.3 179.0 L 141.4 180.4 L 139.2 181.6 L 137.0 182.5 L 134.6 183.2 L 132.1 183.5 L 129.6 183.7 L 129.6 177.7 L 109.6 174.7 L 109.6 171.7 L 129.6 171.7 L 131.0 171.6 L 133.2 171.2 L 134.1 170.8 L 134.8 170.3 L 135.6 169.8 L 136.3 169.1 L 136.9 168.3 L 137.6 167.3 L 138.2 166.1 L 140.0 161.1 L 141.7 154.0 L 143.3 145.1 L 144.7 134.3 L 145.8 121.6 L 146.8 107.2 L 147.6 90.9 L 148.1 72.9 L 148.4 53.1 L 148.5814814567566 33.5 L 116.95070419311523 33.5 L 116.3 59.9 L 114.6 84.6 L 112.1 106.0 L 108.7 124.3 L 104.4 139.9 L 99.3 153.1 L 93.3 164.1 L 86.5 173.2 L 79.0 180.6 L 70.8 186.5 L 69.7 185.1 L 76.3 177.9 L 82.3 170.0 L 87.6 160.9 L 92.3 150.2 L 96.3 137.5 L 99.6 122.4 L 101.27738971710205 110.45698528289795 L 97.1 109.9 L 94.3 106.2 L 93.8 103.6 L 93.0 100.7 L 91.9 97.6 L 90.4 94.4 L 88.5 91.0 L 86.4 87.4 L 83.9 83.7 L 81.0 79.8 L 78.0 75.6 L 74.5 71.4 L 75.7 70.1 L 80.2 73.2 L 84.5 76.4 L 88.4 79.6 L 91.9 82.8 L 95.1 86.1 L 97.9 89.5 L 100.4 92.8 L 102.6 96.2 L 102.79423866271972 96.57768630981445 L 103.9 83.8 L 104.9 59.5 L 104.99285717010498 33.5 L 73.6 33.5 L 73.6 29.5 L 148.6 29.5 L 154.6 24.5 L 165.6 33.5 L 160.6 36.5 L 160.55373935699464 36.51927528381348 L 160.4 53.2 L 160.1 73.2 L 160.0927716255188 73.46311445236206 L 162.5 75.5 L 166.1 78.7 L 169.5 82.0 L 172.6 85.3 L 175.4 88.7 L 178.0 92.1 L 180.3 95.5 L 182.4 99.0 L 184.3 102.5 L 185.9 106.0 L 185.4 110.5 L 182.0 113.5 L 177.4 113.1 L 174.4 109.6 L 173.7 106.5 Z M 43.2 186.9 L 39.2 184.8 L 37.7 180.5 L 38.3 173.5 L 38.2 167.2 L 37.4 161.6 L 36.1 156.4 L 34.1 151.8 L 31.4 147.6 L 28.0 143.8 L 23.8 140.3 L 18.8 137.0 L 12.9 134.1 L 13.3 132.3 L 20.2 133.5 L 26.5 135.6 L 32.1 138.6 L 35.57185926437378 141.3633165359497 L 36.0 140.4 L 38.6 134.2 L 41.8 126.3 L 45.5 116.8 L 49.9 105.6 L 54.9 92.8 L 60.5 78.4 L 66.8 62.3 L 73.9 44.7 L 75.6 45.2 L 70.4 63.5 L 65.5 80.1 L 61.1 95.0 L 57.1 108.1 L 53.5 119.6 L 50.6 129.4 L 48.1 137.6 L 46.1 144.0 L 44.7 148.9 L 43.935055351257326 151.70479707717897 L 44.6 152.8 L 47.2 159.0 L 48.8 165.9 L 49.7 173.4 L 49.7 181.5 L 47.5 185.5 Z M 33.5 85.8 L 31.8 83.7 L 29.8 81.6 L 27.5 79.5 L 24.9 77.4 L 21.9 75.3 L 18.6 73.2 L 15.1 71.0 L 11.1 69.1 L 11.6 67.4 L 16.0 68.3 L 20.3 69.1 L 24.3 70.1 L 28.1 71.4 L 31.6 72.8 L 34.9 74.5 L 38.0 76.3 L 40.9 78.4 L 43.5 80.6 L 45.8 83.1 L 46.7 87.6 L 44.3 91.4 L 39.8 92.3 L 35.9 89.9 L 34.9 87.8 Z M 51.2 38.1 L 49.7 36.1 L 47.8 34.0 L 45.5 31.9 L 43.0 29.8 L 40.0 27.7 L 36.8 25.5 L 33.3 23.2 L 29.3 21.1 L 29.9 19.4 L 34.3 20.5 L 38.6 21.5 L 42.5 22.6 L 46.2 23.9 L 49.7 25.4 L 52.9 27.0 L 55.9 28.7 L 58.6 30.7 L 61.1 32.8 L 63.3 35.1 L 64.1 39.6 L 61.6 43.4 L 57.2 44.3 L 53.3 41.8 L 52.4 40.0 Z " />
</g>
</svg>
