<svg xmlns="http://www.w3.org/2000/svg" xmlns:xlink="http://www.w3.org/1999/xlink" version="1.1" baseProfile="full" viewBox="0 0 200 200" width="200" height="200">
<g fill="black">
<path d="M 164.5 176.6 L 161.7 172.0 L 158.5 167.4 L 156.93546237945557 165.26653957366943 L 148.2 166.9 L 135.6 169.1 L 122.8 171.2 L 109.7 173.2 L 96.5 175.2 L 82.9 177.2 L 69.2 179.2 L 55.1 181.3 L 40.9 183.4 L 30.442750930786133 184.91449813842775 L 28.8 188.2 L 26.4 185.5 L 23.0 173.8 L 24.9 173.6 L 39.5 172.1 L 53.8 170.6 L 61.915096282958984 169.85179967880248 L 63.8 168.5 L 73.3 161.4 L 82.5 154.3 L 91.3 147.0 L 99.7 139.5 L 107.7 131.9 L 115.4 124.1 L 122.6 116.2 L 129.5 108.0 L 135.3537654876709 100.43513383865357 L 135.3 100.4 L 136.4 99.0 L 145.4 107.0 L 146.5 110.4 L 142.83015050888062 109.95708713531494 L 138.1 115.4 L 130.5 123.5 L 122.5 131.3 L 114.0 138.8 L 105.2 146.0 L 96.0 153.0 L 86.3 159.6 L 76.3 165.9 L 70.60237417221069 169.04725999832152 L 81.8 168.0 L 95.5 166.8 L 108.9 165.7 L 122.1 164.7 L 135.0 163.8 L 147.7 163.2 L 155.2443639755249 162.96049642562866 L 155.2 162.9 L 151.6 158.3 L 147.8 153.8 L 143.7 149.2 L 139.5 144.5 L 135.2 139.8 L 136.3 138.3 L 142.0 141.6 L 147.3 145.2 L 152.3 149.0 L 157.0 153.1 L 161.5 157.2 L 165.7 161.5 L 169.7 166.0 L 173.4 170.6 L 176.8 175.3 L 180.0 180.1 L 180.5 184.6 L 177.7 188.3 L 173.2 188.7 L 169.6 185.9 L 167.2 181.3 Z M 75.4 134.0 L 71.5 130.9 L 67.3 127.8 L 62.6 124.6 L 57.5 121.4 L 52.1 118.2 L 46.3 114.8 L 40.2 111.4 L 33.8 107.7 L 34.4 106.0 L 41.7 107.9 L 48.5 109.9 L 54.9 112.2 L 61.0 114.6 L 62.102154922485354 115.10273733139039 L 64.2 112.9 L 68.0 108.9 L 71.8 104.8 L 75.5 100.8 L 79.0 96.8 L 82.4 92.6 L 85.7 88.4 L 91.7 79.8 L 93.90674343109131 76.20382556915283 L 93.9 76.2 L 94.9 74.6 L 104.3 82.1 L 105.7 85.5 L 101.86145458221435 85.23527269363403 L 100.8 86.6 L 97.1 90.8 L 93.3 95.0 L 89.3 98.9 L 85.1 102.7 L 80.7 106.3 L 76.2 109.8 L 71.4 113.0 L 66.5 115.9 L 65.23577985763549 116.53211011886597 L 66.7 117.2 L 72.1 119.8 L 77.1 122.5 L 81.8 125.4 L 86.1 128.3 L 90.1 131.3 L 92.0 135.5 L 90.5 139.8 L 86.4 141.7 L 82.0 140.2 L 78.9 137.1 Z M 163.9 38.5 L 165.7 41.7 L 161.55568733215333 41.98097038269043 L 159.8 44.5 L 157.1 48.4 L 153.8 53.0 L 149.9 58.2 L 145.5 64.2 L 140.5 70.8 L 134.9 78.1 L 128.7 86.0 L 121.7 94.5 L 120.2 93.4 L 125.5 83.8 L 130.5 75.1 L 135.0 67.2 L 139.1 60.0 L 142.8 53.6 L 145.9 48.0 L 148.5 43.1 L 150.6 39.0 L 152.2 35.7 L 152.76658325195314 34.126157665252684 L 152.7 34.1 L 152.97142858505248 33.55714282989502 L 153.1 33.2 L 153.14014873504638 33.21970262527466 L 153.7 32.1 Z M 50.8 72.6 L 49.7 69.5 L 48.3 66.4 L 46.7 63.2 L 44.9 60.1 L 42.8 56.9 L 40.6 53.7 L 38.1 50.4 L 35.2 47.3 L 36.3 45.9 L 40.0 48.1 L 43.7 50.4 L 47.1 52.9 L 50.2 55.7 L 53.1 58.5 L 55.8 61.6 L 58.2 64.8 L 60.3 68.2 L 62.2 71.7 L 63.8 75.4 L 63.3 79.9 L 59.8 82.8 L 55.3 82.3 L 52.3 78.8 L 51.7 75.7 Z M 97.6 65.5 L 96.9 62.9 L 95.8 60.2 L 94.6 57.4 L 93.0 54.5 L 91.2 51.6 L 89.2 48.5 L 86.9 45.3 L 84.1 42.3 L 85.3 40.9 L 88.8 43.2 L 92.2 45.4 L 95.4 47.8 L 98.3 50.3 L 100.9 52.9 L 103.3 55.6 L 105.4 58.4 L 107.2 61.4 L 108.8 64.5 L 110.1 67.7 L 109.3 72.2 L 105.6 74.9 L 101.1 74.1 L 98.4 70.4 L 98.1 68.0 Z M 165.84065933227538 13.717216110229492 L 175.9 22.1 L 176.2 25.1 L 171.93550510406493 23.117910861968994 L 168.5 24.0 L 157.8 26.2 L 146.2 28.3 L 133.8 30.3 L 120.5 32.1 L 106.3 33.7 L 91.2 35.2 L 75.3 36.5 L 58.4 37.6 L 40.7 38.4 L 22.0 38.8 L 21.9 37.1 L 40.3 34.6 L 57.9 32.2 L 74.6 30.0 L 90.3 27.7 L 105.1 25.3 L 119.1 22.9 L 132.1 20.4 L 144.1 17.8 L 155.3 15.1 L 164.520774269104 12.659206771850586 L 164.5 12.6 L 164.55892858505248 12.64910717010498 L 165.5 12.4 Z " />
</g>
</svg>
