<svg xmlns="http://www.w3.org/2000/svg" xmlns:xlink="http://www.w3.org/1999/xlink" version="1.1" baseProfile="full" viewBox="0 0 200 200" width="200" height="200">
<g fill="black">
<path d="M 101.0 19.0 L 104.0 21.0 L 101.0 22.8 L 101.0 49.0 L 152.0 49.0 L 162.0 39.0 L 174.0 49.0 L 174.0 53.0 L 101.0 53.0 L 101.0 91.0 L 142.0 91.0 L 148.0 86.0 L 159.0 95.0 L 154.0 99.0 L 154.0 132.0 L 169.0 132.0 L 179.0 122.0 L 191.0 132.0 L 191.0 136.0 L 154.0 136.0 L 154.0 181.0 L 142.0 187.0 L 142.0 177.0 L 36.0 177.0 L 36.0 173.0 L 89.0 173.0 L 89.0 136.0 L 9.0 136.0 L 9.0 132.0 L 89.0 132.0 L 89.0 95.0 L 37.0 95.0 L 37.0 91.0 L 89.0 91.0 L 89.0 53.0 L 25.0 53.0 L 25.0 49.0 L 89.0 49.0 L 89.0 17.0 Z M 101.0 136.0 L 101.0 173.0 L 142.0 173.0 L 142.0 136.0 Z M 101.0 95.0 L 101.0 132.0 L 142.0 132.0 L 142.0 95.0 Z " />
</g>
</svg>
