<svg xmlns="http://www.w3.org/2000/svg" xmlns:xlink="http://www.w3.org/1999/xlink" version="1.1" baseProfile="full" viewBox="0 0 200 200" width="200" height="200">
<g fill="black">
<path d="M 159.9 182.7 L 158.0 184.1 L 156.0 185.4 L 153.9 186.5 L 151.7 187.4 L 149.4 188.1 L 147.1 188.6 L 144.7 188.9 L 142.3 189.0 L 142.3 183.0 L 122.3 180.0 L 122.3 177.0 L 142.3 177.0 L 143.8 176.9 L 145.2 176.7 L 146.5 176.5 L 147.7 176.1 L 148.9 175.6 L 150.0 175.0 L 151.1 174.3 L 152.2 173.5 L 153.2 172.6 L 154.2 171.5 L 155.2 169.6 L 156.6 165.0 L 157.8 157.9 L 158.8 148.3 L 159.6 136.2 L 160.1 121.5 L 160.22716760635376 116.0 L 98.35454549789429 116.0 L 96.8 123.6 L 92.6 135.8 L 87.0 146.8 L 80.1 156.8 L 71.8 165.5 L 62.3 173.0 L 51.5 179.3 L 39.4 184.2 L 26.2 187.8 L 25.7 186.1 L 38.0 180.7 L 48.8 174.6 L 58.3 167.7 L 66.5 160.1 L 73.3 151.6 L 78.9 142.3 L 83.2 132.2 L 86.3 121.0 L 87.12644624710083 116.0 L 29.0 116.0 L 29.0 112.0 L 87.78760328292847 112.0 L 88.3 108.9 L 89.0 95.8 L 89.0 75.0 L 29.0 75.0 L 29.0 71.0 L 89.0 71.0 L 89.0 37.0 L 35.2 37.0 L 35.2 33.0 L 160.9 33.0 L 166.9 28.0 L 177.9 37.0 L 172.9 40.0 L 172.9 61.0 L 172.8 84.1 L 172.5 104.4 L 172.1 121.9 L 171.6 136.8 L 170.8 149.3 L 169.7 159.5 L 168.3 167.7 L 166.3 174.1 L 163.3 179.3 L 161.7 181.1 Z M 99.5 110.4 L 99.17272729873658 112.0 L 160.31965322494506 112.0 L 160.5 104.2 L 160.8 84.0 L 160.83913040161133 75.0 L 101.0 75.0 L 101.0 96.0 L 100.89426231384277 96.15860652923584 Z M 101.0 37.0 L 101.0 71.0 L 160.85652170181274 71.0 L 160.9 61.0 L 160.9 37.0 Z " />
</g>
</svg>
