<svg xmlns="http://www.w3.org/2000/svg" xmlns:xlink="http://www.w3.org/1999/xlink" version="1.1" baseProfile="full" viewBox="0 0 200 200" width="200" height="200">
<g fill="black">
<path d="M 85.9 99.4 L 87.6 102.5 L 83.98971014022827 102.81123189926147 L 80.3 109.4 L 74.5 119.2 L 68.4 128.8 L 62.1 138.1 L 55.6 147.1 L 48.8 155.9 L 41.7 164.4 L 34.4 172.6 L 26.7 180.4 L 18.6 187.9 L 17.3 186.6 L 23.8 177.9 L 30.2 169.2 L 36.5 160.4 L 42.7 151.4 L 48.6 142.3 L 54.3 133.0 L 59.9 123.5 L 65.2 113.9 L 70.3 104.0 L 75.1 94.0 L 75.13999996185302 94.01999998092651 L 75.7 92.9 Z M 151.9 156.6 L 147.7 147.4 L 143.3 138.7 L 138.6 130.4 L 133.6 122.5 L 128.4 115.0 L 122.8 107.8 L 117.1 100.9 L 111.1 94.2 L 112.3 92.8 L 119.7 98.1 L 126.8 104.1 L 133.4 110.8 L 139.7 118.0 L 145.7 125.7 L 151.3 134.0 L 156.6 142.8 L 161.6 152.1 L 166.2 161.8 L 170.6 172.0 L 170.3 176.6 L 167.0 179.7 L 162.4 179.5 L 159.3 176.2 L 155.7 166.2 Z M 151.0 20.0 L 152.9 23.0 L 149.2161904335022 23.444597721099854 L 148.1 25.6 L 145.0 31.2 L 141.7 36.9 L 138.2 42.6 L 134.5 48.4 L 130.7 54.2 L 126.6 60.0 L 122.3 65.9 L 117.7 71.6 L 114.85517244338989 74.9 L 166.0 74.9 L 176.0 64.9 L 188.0 74.9 L 188.0 78.9 L 12.0 78.9 L 12.0 74.9 L 111.9279411315918 74.9 L 114.5 69.6 L 117.7 63.0 L 121.0 56.6 L 127.2 44.2 L 130.0 38.2 L 132.8 32.3 L 135.4 26.4 L 137.8 20.7 L 140.1 15.0 L 140.10765447616578 15.003511238098145 L 140.6 13.8 Z M 63.8 54.0 L 62.1 50.0 L 60.2 45.9 L 58.0 41.6 L 55.6 37.2 L 53.0 32.7 L 50.1 28.0 L 47.1 23.1 L 43.9 17.9 L 45.3 16.7 L 50.0 20.7 L 54.3 24.7 L 58.2 28.8 L 61.9 32.9 L 65.2 37.0 L 68.2 41.2 L 71.0 45.3 L 73.4 49.4 L 75.7 53.5 L 77.6 57.6 L 77.3 62.2 L 74.0 65.3 L 69.4 65.0 L 66.3 61.7 L 65.2 57.9 Z " />
</g>
</svg>
