<svg xmlns="http://www.w3.org/2000/svg" xmlns:xlink="http://www.w3.org/1999/xlink" version="1.1" baseProfile="full" viewBox="0 0 200 200" width="200" height="200">
<g fill="black">
<path d="M 107.5 62.0 L 110.5 64.0 L 107.5 65.8 L 107.5 113.2 L 106.54807691574096 123.1 L 140.2 123.1 L 140.2 73.7 L 152.2 75.7 L 155.2 77.7 L 152.2 79.5 L 152.2 133.1 L 140.2 139.1 L 140.2 127.1 L 105.66000003814698 127.1 L 104.1 133.6 L 100.4 142.9 L 95.3 151.5 L 88.9 159.5 L 81.3 166.7 L 72.5 173.2 L 62.4 179.0 L 51.2 184.0 L 38.7 188.2 L 38.1 186.6 L 49.6 180.6 L 59.7 174.3 L 68.6 167.9 L 76.2 161.1 L 82.5 154.0 L 87.4 146.5 L 91.2 138.8 L 93.8 130.7 L 94.38604650497436 127.1 L 63.4 127.1 L 63.4 139.1 L 51.4 145.1 L 51.4 73.7 L 63.4 75.7 L 66.4 77.7 L 63.4 79.5 L 63.4 123.1 L 95.03720932006836 123.1 L 95.2 122.1 L 95.5 113.2 L 95.5 60.0 Z M 158.6 182.1 L 156.7 183.5 L 154.7 184.7 L 152.5 185.7 L 150.3 186.5 L 148.1 187.1 L 145.7 187.6 L 143.4 187.9 L 141.0 188.0 L 141.0 182.0 L 121.0 179.0 L 121.0 176.0 L 141.0 176.0 L 142.5 175.9 L 145.3 175.5 L 146.6 175.1 L 149.0 174.1 L 150.2 173.4 L 151.3 172.6 L 152.5 171.6 L 153.6 170.6 L 156.3 166.8 L 159.1 161.0 L 161.7 153.1 L 164.0 143.3 L 166.0 131.6 L 167.6 117.9 L 168.8 102.5 L 169.6 85.1 L 169.9 66.0 L 169.99047622680663 47.0 L 58.35 47.0 L 53.5 56.7 L 48.1 66.2 L 42.2 75.6 L 35.9 84.7 L 29.0 93.6 L 21.6 102.2 L 13.6 110.5 L 12.3 109.4 L 18.6 99.9 L 24.7 90.5 L 30.4 81.1 L 35.7 71.7 L 40.7 62.2 L 45.2 52.6 L 49.2 42.9 L 52.9 33.1 L 56.1 23.2 L 58.61892242431641 14.20384864807129 L 58.6 14.2 L 58.8222222328186 13.477777767181397 L 58.9 13.2 L 58.907050895690915 13.202084636688232 L 59.4 11.6 L 70.4 16.6 L 72.8 19.3 L 69.15673398971558 20.25875425338745 L 66.9 26.9 L 62.9 37.0 L 60.172727298736575 43.0 L 170.0 43.0 L 176.0 38.0 L 187.0 47.0 L 182.0 50.0 L 181.9 50.04166669845581 L 181.9 66.1 L 181.5 85.5 L 180.7 103.2 L 179.5 119.1 L 177.9 133.2 L 175.8 145.6 L 173.3 156.4 L 170.3 165.4 L 166.7 172.9 L 162.2 178.9 L 160.5 180.6 Z " />
</g>
</svg>
