<svg xmlns="http://www.w3.org/2000/svg" xmlns:xlink="http://www.w3.org/1999/xlink" version="1.1" baseProfile="full" viewBox="0 0 200 200" width="200" height="200">
<g fill="black">
<path d="M 106.0 185.0 L 94.0 191.0 L 94.0 131.0 L 17.0 131.0 L 17.0 127.0 L 51.0 127.0 L 51.0 21.0 L 63.0 27.0 L 137.0 27.0 L 143.0 22.0 L 154.0 31.0 L 149.0 35.0 L 149.0 127.0 L 161.0 127.0 L 171.0 117.0 L 183.0 127.0 L 183.0 131.0 L 106.0 131.0 Z M 75.7 152.7 L 76.6 156.2 L 72.80132036209106 155.46692152023314 L 71.3 156.9 L 66.6 161.0 L 61.7 164.9 L 56.5 168.7 L 51.0 172.3 L 45.3 175.8 L 39.3 179.1 L 33.0 182.3 L 26.3 185.2 L 19.4 187.8 L 18.5 186.1 L 24.5 181.8 L 30.2 177.7 L 35.8 173.6 L 41.0 169.5 L 46.0 165.5 L 50.7 161.4 L 55.2 157.2 L 59.4 153.1 L 63.2 148.9 L 66.8 144.7 L 66.82001123428344 144.71798763275146 L 67.2 144.3 Z M 154.4 173.0 L 151.6 169.3 L 148.6 165.6 L 145.5 162.1 L 142.0 158.7 L 138.4 155.3 L 134.6 152.0 L 130.6 148.6 L 126.4 145.2 L 127.3 143.6 L 132.5 145.4 L 137.5 147.5 L 142.2 150.0 L 146.8 152.7 L 151.1 155.8 L 155.2 159.0 L 159.0 162.5 L 162.7 166.2 L 166.1 170.1 L 169.3 174.2 L 170.1 178.7 L 167.6 182.5 L 163.1 183.2 L 159.3 180.7 L 156.9 176.8 Z M 63.0 106.0 L 63.0 127.0 L 137.0 127.0 L 137.0 106.0 Z M 63.0 81.0 L 63.0 102.0 L 137.0 102.0 L 137.0 81.0 Z M 63.0 56.0 L 63.0 77.0 L 137.0 77.0 L 137.0 56.0 Z M 63.0 31.0 L 63.0 52.0 L 137.0 52.0 L 137.0 31.0 Z " />
</g>
</svg>
