<svg xmlns="http://www.w3.org/2000/svg" xmlns:xlink="http://www.w3.org/1999/xlink" version="1.1" baseProfile="full" viewBox="0 0 200 200" width="200" height="200">
<g fill="black">
<path d="M 129.9 111.4 L 128.4 122.7 L 126.0 133.2 L 122.8 143.1 L 118.7 152.3 L 113.8 160.6 L 108.1 168.2 L 101.6 175.0 L 94.3 180.9 L 86.2 185.8 L 77.4 189.8 L 76.5 188.1 L 84.1 182.6 L 90.9 176.7 L 96.9 170.4 L 102.1 163.6 L 106.6 156.3 L 110.3 148.4 L 113.3 139.9 L 115.6 130.7 L 117.1 121.0 L 118.0 110.5 L 118.0 14.0 L 130.0 16.0 L 133.0 18.0 L 130.0 19.8 L 130.0 111.0 L 129.7413332939148 111.38800001144409 Z M 71.8 115.1 L 70.1 110.8 L 71.8 106.6 L 74.9 103.6 L 77.7 100.2 L 80.0 96.6 L 82.0 92.6 L 83.6 88.3 L 84.9 83.5 L 85.7 78.3 L 86.2 72.7 L 86.4 66.6 L 86.3 60.1 L 88.0 59.7 L 90.1 66.1 L 91.6 72.4 L 92.3 78.4 L 92.4 84.4 L 91.9 90.1 L 90.8 95.6 L 89.1 100.9 L 86.8 105.9 L 83.9 110.6 L 80.3 115.1 L 76.1 116.8 Z " />
</g>
</svg>
