<svg xmlns="http://www.w3.org/2000/svg" xmlns:xlink="http://www.w3.org/1999/xlink" version="1.1" baseProfile="full" viewBox="0 0 200 200" width="200" height="200">
<g fill="black">
<path d="M 139.3 179.7 L 124.1 174.8 L 110.5 168.9 L 100.3106297492981 163.17374238967895 L 93.8 167.1 L 80.0 173.8 L 65.4 179.4 L 50.0 183.7 L 33.9 186.8 L 17.1 188.6 L 16.8 186.8 L 33.2 183.1 L 48.6 178.6 L 63.1 173.2 L 76.8 166.9 L 89.6 159.7 L 92.50625734329223 157.7217911720276 L 87.9 154.3 L 79.0 145.5 L 71.9 135.9 L 66.7 125.4 L 63.60625 114.9 L 42.0 114.9 L 42.0 110.9 L 139.98500003814698 110.9 L 141.0 109.5 L 141.37275743484497 109.7560354232788 L 146.0 105.9 L 157.0 114.9 L 152.0 117.9 L 148.47454910278321 119.36893787384034 L 141.1 128.7 L 130.5 140.0 L 119.1 150.2 L 109.6748574256897 157.15297403335572 L 114.7 159.6 L 127.7 164.3 L 142.2 168.3 L 158.2 171.4 L 175.7 173.7 L 186.0 174.9 L 174.2 186.8 L 156.0 183.7 Z M 65.79595956802368 114.9 L 70.4 123.5 L 76.8 132.5 L 84.3 140.5 L 93.0 147.7 L 100.46019420623779 152.3077670097351 L 101.5 151.6 L 112.6 142.5 L 122.9 132.5 L 132.3 121.5 L 137.08500003814697 114.9 Z M 139.0 16.5 L 142.0 18.5 L 139.0 20.3 L 139.0 41.5 L 160.0 41.5 L 170.0 31.5 L 182.0 41.5 L 182.0 45.5 L 139.0 45.5 L 139.0 94.5 L 127.0 100.5 L 127.0 90.5 L 71.0 90.5 L 71.0 97.5 L 59.0 103.5 L 59.0 45.5 L 19.0 45.5 L 19.0 41.5 L 59.0 41.5 L 59.0 14.5 L 71.0 16.5 L 74.0 18.5 L 71.0 20.3 L 71.0 41.5 L 127.0 41.5 L 127.0 14.5 Z M 71.0 45.5 L 71.0 86.5 L 127.0 86.5 L 127.0 45.5 Z " />
</g>
</svg>
