<svg xmlns="http://www.w3.org/2000/svg" xmlns:xlink="http://www.w3.org/1999/xlink" version="1.1" baseProfile="full" viewBox="0 0 200 200" width="200" height="200">
<g fill="black">
<path d="M 53.0 27.0 L 147.0 27.0 L 153.0 22.0 L 164.0 31.0 L 159.0 35.0 L 159.0 109.0 L 147.0 115.0 L 147.0 103.0 L 106.0 103.0 L 106.0 133.0 L 164.0 133.0 L 174.0 123.0 L 186.0 133.0 L 186.0 137.0 L 106.0 137.0 L 106.0 183.0 L 94.0 189.0 L 94.0 137.0 L 14.0 137.0 L 14.0 133.0 L 94.0 133.0 L 94.0 103.0 L 53.0 103.0 L 53.0 115.0 L 41.0 121.0 L 41.0 21.0 Z M 53.0 67.0 L 53.0 99.0 L 94.0 99.0 L 94.0 67.0 Z M 106.0 67.0 L 106.0 99.0 L 147.0 99.0 L 147.0 67.0 Z M 53.0 31.0 L 53.0 63.0 L 94.0 63.0 L 94.0 31.0 Z M 106.0 31.0 L 106.0 63.0 L 147.0 63.0 L 147.0 31.0 Z " />
</g>
</svg>
