<svg xmlns="http://www.w3.org/2000/svg" xmlns:xlink="http://www.w3.org/1999/xlink" version="1.1" baseProfile="full" viewBox="0 0 200 200" width="200" height="200">
<g fill="black">
<path d="M 36.0 144.0 L 24.0 150.0 L 24.0 53.9 L 36.0 59.9 L 164.0 59.9 L 170.0 54.9 L 181.0 63.9 L 176.0 67.9 L 176.0 138.0 L 164.0 144.0 L 164.0 132.0 L 36.0 132.0 Z M 36.0 63.9 L 36.0 128.0 L 94.0 128.0 L 94.0 63.9 Z M 106.0 63.9 L 106.0 128.0 L 164.0 128.0 L 164.0 63.9 Z M 150.6 81.9 L 152.1 85.2 L 148.2552631378174 85.2 L 145.2 89.5 L 142.3 93.4 L 139.2 97.3 L 136.1 101.3 L 132.8 105.3 L 129.3 109.4 L 125.7 113.5 L 121.8 117.5 L 117.7 121.5 L 116.2 120.4 L 118.8 115.3 L 121.3 110.3 L 124.0 105.6 L 126.5 101.0 L 129.1 96.5 L 131.5 92.2 L 133.8 87.9 L 136.1 83.8 L 138.2 79.7 L 139.82186641693116 76.6107307434082 L 139.8 76.6 L 140.8 74.8 Z M 64.6 104.9 L 63.0 100.9 L 61.2 97.0 L 59.3 93.2 L 57.1 89.6 L 54.9 85.9 L 52.4 82.4 L 49.9 78.8 L 47.1 75.3 L 48.3 73.9 L 52.2 76.3 L 56.0 78.9 L 59.6 81.9 L 62.9 85.1 L 66.0 88.6 L 68.9 92.3 L 71.7 96.2 L 74.2 100.3 L 76.5 104.6 L 78.6 109.1 L 78.3 113.7 L 75.0 116.8 L 70.4 116.5 L 67.3 113.2 L 66.0 108.9 Z " />
</g>
</svg>
