<svg xmlns="http://www.w3.org/2000/svg" xmlns:xlink="http://www.w3.org/1999/xlink" version="1.1" baseProfile="full" viewBox="0 0 200 200" width="200" height="200">
<g fill="black">
<path d="M 147.0 176.0 L 161.0 176.0 L 162.2 175.9 L 163.1 175.7 L 164.0 175.4 L 164.4 175.0 L 164.7 174.1 L 164.9 173.2 L 165.0 172.0 L 165.0 57.0 L 106.0 57.0 L 106.0 179.0 L 94.0 185.0 L 94.0 57.0 L 35.0 57.0 L 35.0 182.0 L 23.0 188.0 L 23.0 47.0 L 35.0 53.0 L 94.0 53.0 L 94.0 15.0 L 106.0 17.0 L 109.0 19.0 L 106.0 20.8 L 106.0 53.0 L 165.0 53.0 L 171.0 48.0 L 182.0 57.0 L 177.0 61.0 L 177.0 172.0 L 176.8 174.5 L 176.4 177.0 L 175.6 179.4 L 174.3 181.7 L 172.7 183.7 L 170.7 185.3 L 168.4 186.6 L 166.0 187.4 L 163.5 187.8 L 161.0 188.0 L 161.0 182.0 L 147.0 179.0 Z M 72.0 154.3 L 69.5 150.5 L 67.42466249465943 147.7575897216797 L 66.1 149.2 L 61.2 153.8 L 56.0 157.9 L 50.5 161.7 L 44.6 165.0 L 38.4 167.7 L 37.5 166.2 L 42.5 161.8 L 47.3 157.5 L 51.7 153.0 L 55.8 148.4 L 59.6 143.7 L 61.50765218734741 140.97478256225585 L 60.4 139.8 L 56.8 136.4 L 52.9 133.0 L 48.8 129.6 L 44.4 126.2 L 45.2 124.6 L 50.7 126.3 L 55.8 128.5 L 60.6 131.1 L 65.2 133.9 L 65.78715362548829 134.33337535858155 L 66.3 133.5 L 69.2 128.1 L 71.8 122.5 L 73.65767450332642 117.51805467605591 L 73.6 117.5 L 74.5 115.3 L 85.1 121.1 L 87.2 124.1 L 83.3281777381897 124.70080003738403 L 82.0 127.4 L 78.5 133.4 L 74.7 139.0 L 73.5659574508667 140.4659574508667 L 77.2 144.1 L 80.7 148.0 L 83.9 152.1 L 86.8 156.5 L 87.2 161.0 L 84.4 164.6 L 79.8 165.0 L 76.2 162.2 L 74.3 158.2 Z M 142.6 153.8 L 139.9 150.6 L 138.06274576187133 148.57268505096437 L 137.6 149.1 L 133.1 153.7 L 128.3 157.8 L 123.3 161.6 L 118.0 164.9 L 112.5 167.7 L 111.4 166.2 L 115.7 161.9 L 119.8 157.6 L 123.7 153.1 L 127.5 148.5 L 131.1 143.7 L 131.94497041702272 142.45739641189576 L 130.5 141.1 L 127.0 137.9 L 123.3 134.8 L 119.5 131.5 L 115.4 128.2 L 116.3 126.6 L 121.3 128.4 L 126.0 130.4 L 130.6 132.7 L 134.9 135.1 L 136.2145888328552 135.91379308700562 L 137.7 133.5 L 140.7 128.0 L 143.5 122.3 L 145.70861282348633 117.20320119857789 L 145.7 117.2 L 146.6 115.1 L 157.0 121.4 L 158.8 124.5 L 155.02982873916625 124.89001770019532 L 153.5 127.6 L 149.9 133.5 L 146.0 139.0 L 144.12319307327272 141.38034048080445 L 146.7 143.4 L 150.3 146.4 L 153.6 149.6 L 156.8 152.9 L 158.0 157.3 L 155.8 161.3 L 151.4 162.5 L 147.4 160.3 L 145.1 157.0 Z M 71.8 101.4 L 69.1 98.3 L 66.55598344802857 95.5863823890686 L 65.4 96.9 L 60.7 101.5 L 55.8 105.8 L 50.6 109.6 L 45.2 112.9 L 39.4 115.7 L 38.5 114.2 L 42.9 109.9 L 47.2 105.5 L 51.3 101.0 L 55.1 96.4 L 58.8 91.5 L 59.99334716796875 89.76112270355225 L 59.2 89.1 L 55.2 86.1 L 50.9 83.2 L 46.4 80.2 L 41.6 77.2 L 42.2 75.5 L 47.9 76.8 L 53.3 78.5 L 58.4 80.5 L 63.2 82.8 L 64.17050695419312 83.33917055130004 L 65.6 81.0 L 68.6 75.4 L 71.4 69.5 L 73.70141725540161 64.30050172805787 L 73.7 64.3 L 74.6 62.2 L 85.0 68.3 L 86.9 71.4 L 83.11013240814209 71.85739784240722 L 81.6 74.7 L 77.9 80.8 L 74.0 86.5 L 72.52797832489014 88.39259929656983 L 75.9 90.9 L 79.6 94.1 L 83.0 97.5 L 86.1 101.1 L 87.1 105.5 L 84.7 109.4 L 80.2 110.3 L 76.3 107.9 L 74.2 104.6 Z M 142.5 101.5 L 139.8 98.3 L 137.72640991210938 96.08817052841187 L 137.1 96.8 L 132.6 101.5 L 127.9 105.7 L 123.0 109.5 L 117.9 112.9 L 112.5 115.7 L 111.4 114.2 L 115.5 109.9 L 123.3 101.1 L 127.0 96.4 L 130.5 91.5 L 131.3518518447876 90.25873012542725 L 130.0 89.1 L 126.2 86.1 L 122.2 83.2 L 118.0 80.2 L 113.5 77.2 L 114.2 75.5 L 119.5 76.9 L 124.6 78.6 L 129.5 80.6 L 134.1 82.8 L 135.62115869522094 83.66429471969604 L 137.2 81.0 L 140.3 75.3 L 143.3 69.4 L 146.1 63.2 L 146.14014873504638 63.21970262527466 L 146.7 62.1 L 156.9 68.5 L 158.7 71.6 L 154.943523311615 71.92383422851563 L 153.3 74.8 L 149.6 80.8 L 145.6 86.5 L 143.75332117080688 88.88717012405395 L 146.5 91.0 L 150.2 94.1 L 153.7 97.4 L 157.0 101.0 L 158.0 105.4 L 155.7 109.4 L 151.3 110.4 L 147.3 108.2 L 145.1 104.8 Z " />
</g>
</svg>
