<svg xmlns="http://www.w3.org/2000/svg" xmlns:xlink="http://www.w3.org/1999/xlink" version="1.1" baseProfile="full" viewBox="0 0 200 200" width="200" height="200">
<g fill="black">
<path d="M 16.0 170.0 L 94.0 170.0 L 94.0 88.0 L 34.0 88.0 L 34.0 84.0 L 94.0 84.0 L 94.0 34.0 L 28.0 34.0 L 28.0 30.0 L 150.0 30.0 L 160.0 20.0 L 172.0 30.0 L 172.0 34.0 L 106.0 34.0 L 106.0 84.0 L 144.0 84.0 L 154.0 74.0 L 166.0 84.0 L 166.0 88.0 L 106.0 88.0 L 106.0 170.0 L 162.0 170.0 L 172.0 160.0 L 184.0 170.0 L 184.0 174.0 L 16.0 174.0 Z M 151.4 109.7 L 153.6 112.6 L 149.9027027130127 113.44324321746826 L 147.0 120.7 L 144.7 126.3 L 142.2 132.0 L 139.6 137.7 L 136.8 143.5 L 133.9 149.4 L 130.8 155.4 L 127.4 161.3 L 123.8 167.3 L 122.1 166.6 L 124.0 159.9 L 125.9 153.3 L 127.8 147.0 L 129.8 140.7 L 131.7 134.7 L 133.5 128.7 L 135.2 122.9 L 136.9 117.2 L 138.5 111.6 L 139.66700639724732 107.01533193588257 L 139.6 107.0 L 140.4 104.5 Z M 61.1 143.6 L 60.1 138.6 L 59.0 133.6 L 57.7 128.6 L 56.3 123.7 L 54.8 118.9 L 53.1 114.1 L 49.7 104.3 L 51.2 103.3 L 54.7 107.4 L 57.9 111.6 L 60.7 116.2 L 63.3 120.9 L 65.7 125.7 L 67.8 130.7 L 69.8 135.8 L 71.5 141.1 L 73.0 146.5 L 74.4 152.0 L 73.3 156.4 L 69.4 158.9 L 65.0 157.8 L 62.5 154.0 L 61.9 148.8 Z " />
</g>
</svg>
