<svg xmlns="http://www.w3.org/2000/svg" xmlns:xlink="http://www.w3.org/1999/xlink" version="1.1" baseProfile="full" viewBox="0 0 200 200" width="200" height="200">
<g fill="black">
<path d="M 28.2 173.9 L 36.5 171.6 L 43.0 169.5938271522522 L 43.0 21.0 L 55.0 23.0 L 58.0 25.0 L 55.0 26.8 L 55.0 165.5375 L 60.7 163.4 L 68.6 160.3 L 76.5 157.0 L 84.2 153.4 L 92.0 149.8 L 99.7 146.0 L 107.5 142.2 L 108.4 143.7 L 101.7 149.2 L 94.7 154.4 L 87.4 159.2 L 79.9 163.7 L 72.2 168.0 L 64.4 171.9 L 56.5 175.7 L 48.3 179.2 L 40.1 182.4 L 35.521203422546385 184.01604585647584 L 34.4 187.7 L 31.6 185.4 L 26.3 174.5 Z M 148.3 162.8 L 136.8 150.8 L 126.6 137.3 L 117.7 122.2 L 110.0 105.6 L 103.5 87.5 L 98.4 67.9 L 94.6 46.7 L 92.2 24.1 L 94.0 23.8 L 98.7 46.0 L 104.1 66.4 L 110.4 85.2 L 116.31389646530151 99.24550409317017 L 119.6 97.0 L 125.4 93.1 L 131.0 89.4 L 136.4 85.7 L 141.5 82.0 L 146.4 78.4 L 151.0 74.8 L 155.4 71.2 L 159.5 67.6 L 162.52990827560424 64.72956056594849 L 162.5 64.7 L 163.4 63.9 L 171.1 73.2 L 171.5 76.7 L 167.92342853546143 75.52948570251465 L 166.6 76.5 L 161.8 79.8 L 156.8 83.0 L 151.5 86.1 L 146.0 89.2 L 140.2 92.2 L 134.2 95.1 L 127.9 97.9 L 121.3 100.4 L 117.36767416000366 101.74822597503662 L 117.6 102.3 L 125.8 117.7 L 134.9 131.4 L 145.0 143.5 L 156.1 153.9 L 168.0 162.8 L 181.0 170.1 L 186.2 172.8 L 174.9 181.8 L 161.0 173.1 Z " />
</g>
</svg>
