<svg xmlns="http://www.w3.org/2000/svg" xmlns:xlink="http://www.w3.org/1999/xlink" version="1.1" baseProfile="full" viewBox="0 0 200 200" width="200" height="200">
<g fill="black">
<path d="M 66.2 15.0 L 69.2 17.0 L 66.2 18.8 L 66.2 40.0 L 83.0 40.0 L 93.0 30.0 L 105.0 40.0 L 105.0 44.0 L 66.2 44.0 L 66.2 63.0 L 83.7 63.0 L 89.7 58.0 L 100.7 67.0 L 95.7 71.0 L 95.7 127.0 L 83.7 133.0 L 83.7 123.0 L 66.2 123.0 L 66.2 146.0 L 85.1 146.0 L 95.1 136.0 L 107.1 146.0 L 107.1 150.0 L 66.2 150.0 L 66.2 183.0 L 54.2 189.0 L 54.2 150.0 L 13.2 150.0 L 13.2 146.0 L 54.2 146.0 L 54.2 123.0 L 36.6 123.0 L 36.6 130.0 L 24.6 136.0 L 24.6 57.0 L 36.6 63.0 L 54.2 63.0 L 54.2 44.0 L 15.3 44.0 L 15.3 40.0 L 54.2 40.0 L 54.2 13.0 Z M 182.2 142.0 L 184.2 142.0 L 182.2 167.0 L 185.7 169.4 L 188.2 173.0 L 185.7 176.6 L 182.2 179.0 L 129.2 179.0 L 126.6 178.8 L 124.1 178.4 L 121.7 177.6 L 119.4 176.3 L 117.4 174.7 L 115.8 172.7 L 114.5 170.4 L 113.7 168.0 L 113.3 165.5 L 113.2 163.0 L 113.2 22.0 L 125.2 28.0 L 165.2 28.0 L 171.2 23.0 L 182.2 32.0 L 177.2 35.0 L 176.90646839141846 35.1223048210144 L 176.5 41.8 L 175.8 52.4 L 175.1 62.0 L 174.3 70.6 L 173.5 78.3 L 172.7 85.0 L 171.9 90.8 L 171.0 95.7 L 170.0 99.7 L 168.9 103.1 L 167.8 105.3 L 166.5 107.5 L 165.0 109.4 L 163.2 111.1 L 161.3 112.6 L 159.1 113.9 L 156.8 114.8 L 154.5 115.5 L 152.0 115.8 L 149.5 116.0 L 149.5 110.0 L 135.5 107.0 L 135.5 104.0 L 149.5 104.0 L 150.8 103.9 L 152.0 103.7 L 153.0 103.4 L 153.9 103.1 L 155.3 102.1 L 156.0 101.5 L 156.6 100.6 L 157.2 99.6 L 157.8 98.4 L 158.5 96.5 L 159.2 93.2 L 160.0 88.9 L 160.8 83.4 L 161.6 77.0 L 162.4 69.5 L 163.1 61.0 L 163.9 51.6 L 164.6 41.1 L 165.07478256225585 32.0 L 125.2 32.0 L 125.2 164.2 L 125.4 165.1 L 125.7 166.0 L 126.1 166.4 L 127.0 166.7 L 127.9 166.9 L 129.2 167.0 L 176.2 167.0 Z M 36.6 94.0 L 36.6 119.0 L 54.2 119.0 L 54.2 94.0 Z M 66.2 94.0 L 66.2 119.0 L 83.7 119.0 L 83.7 94.0 Z M 36.6 67.0 L 36.6 90.0 L 54.2 90.0 L 54.2 67.0 Z M 66.2 67.0 L 66.2 90.0 L 83.7 90.0 L 83.7 67.0 Z " />
</g>
</svg>
