<svg xmlns="http://www.w3.org/2000/svg" xmlns:xlink="http://www.w3.org/1999/xlink" version="1.1" baseProfile="full" viewBox="0 0 200 200" width="200" height="200">
<g fill="black">
<path d="M 164.5 134.3 L 158.3 129.6 L 152.6 124.8 L 147.2 119.6 L 142.3 114.3 L 137.8 108.7 L 133.8 102.8 L 130.4 96.7 L 127.9953125 91.0 L 77.31791048049926 91.0 L 75.2 94.3 L 65.3 106.7 L 54.1 118.0 L 41.8 128.1 L 28.2 137.1 L 13.4 144.7 L 12.5 143.2 L 26.1 133.9 L 38.4 123.9 L 49.5 113.3 L 59.5 101.8 L 67.2016393661499 91.0 L 14.0 91.0 L 14.0 87.0 L 69.68854961395263 87.0 L 75.7 76.5 L 82.0 62.5 L 82.17114095687866 62.0 L 28.0 62.0 L 28.0 58.0 L 83.5402684211731 58.0 L 87.1 47.6 L 91.1 31.8 L 93.73202209472656 16.101867961883546 L 93.7 16.1 L 94.2 13.1 L 105.7 16.8 L 108.4 19.2 L 104.92388668060303 20.680566787719727 L 102.2 34.3 L 97.3 50.9 L 94.50580644607544 58.0 L 150.0 58.0 L 160.0 48.0 L 172.0 58.0 L 172.0 62.0 L 92.9316128730774 62.0 L 91.2 66.4 L 83.8 80.9 L 79.88507461547852 87.0 L 164.0 87.0 L 174.0 77.0 L 186.0 87.0 L 186.0 91.0 L 130.79799995422363 91.0 L 133.9 94.3 L 138.5 99.2 L 143.2 103.9 L 148.2 108.4 L 153.4 112.7 L 159.0 116.8 L 164.7 120.7 L 170.8 124.3 L 177.2 127.8 L 184.0 131.1 L 189.2 133.8 L 177.9 142.8 L 171.0 138.7 Z M 155.4 24.1 L 156.8 27.4 L 152.88657455444337 27.265054321289064 L 152.7 27.5 L 149.8 30.8 L 146.9 34.2 L 143.8 37.5 L 140.5 40.8 L 137.1 44.1 L 133.5 47.3 L 129.7 50.5 L 125.7 53.6 L 121.6 56.6 L 120.3 55.3 L 123.2 51.1 L 126.0 47.0 L 128.8 43.1 L 131.5 39.3 L 134.1 35.5 L 136.6 31.8 L 139.0 28.1 L 141.3 24.5 L 143.4 21.0 L 144.90882959365845 18.35954828262329 L 144.8 18.3 L 145.9 16.7 Z M 58.4 42.5 L 56.8 39.2 L 55.1 36.0 L 53.3 32.9 L 51.4 30.0 L 47.2 24.4 L 44.9 21.7 L 42.3 19.2 L 43.3 17.7 L 46.6 19.3 L 50.1 20.9 L 53.3 22.9 L 56.4 25.3 L 59.4 27.9 L 62.2 30.8 L 64.9 33.9 L 67.5 37.3 L 69.9 40.9 L 72.2 44.7 L 72.3 49.3 L 69.2 52.7 L 64.6 52.8 L 61.2 49.7 L 59.9 46.0 Z " />
</g>
</svg>
