<svg xmlns="http://www.w3.org/2000/svg" xmlns:xlink="http://www.w3.org/1999/xlink" version="1.1" baseProfile="full" viewBox="0 0 200 200" width="200" height="200">
<g fill="black">
<path d="M 12.0 178.4 L 94.0 178.4 L 94.0 137.6 L 22.0 137.6 L 22.0 133.6 L 94.0 133.6 L 94.0 98.30851068496705 L 86.3 98.8 L 71.8 99.5 L 56.9 100.0 L 41.7 100.2 L 26.0 100.0 L 25.9 98.2 L 41.4 96.4 L 56.6 94.6 L 71.3 93.0 L 85.6 91.3 L 99.5 89.5 L 113.0 87.6 L 126.1 85.7 L 138.8 83.7 L 151.1 81.5 L 163.0 79.3 L 163.20070991516113 80.48418846130372 L 174.2 89.5 L 174.6 92.5 L 170.08977851867675 90.2148211479187 L 165.0 91.1 L 152.8 92.8 L 140.3 94.3 L 127.4 95.7 L 114.1 96.9 L 106.0 97.49124088287354 L 106.0 133.6 L 156.0 133.6 L 166.0 123.6 L 178.0 133.6 L 178.0 137.6 L 106.0 137.6 L 106.0 178.4 L 166.0 178.4 L 176.0 168.4 L 188.0 178.4 L 188.0 182.4 L 12.0 182.4 Z M 167.9 39.0 L 169.5 42.2 L 165.49558639526367 42.338083267211914 L 164.3 44.1 L 162.1 47.3 L 159.6 51.0 L 156.8 55.2 L 153.6 59.9 L 150.1 65.0 L 146.2 70.5 L 141.9 76.4 L 137.1 82.7 L 135.6 81.8 L 138.6 74.5 L 141.6 67.8 L 144.4 61.7 L 147.0 56.1 L 149.4 51.0 L 151.5 46.4 L 153.4 42.4 L 155.0 38.8 L 156.3 35.8 L 156.9679012298584 34.130246925354 L 156.9 34.1 L 157.18571424484253 33.58571424484253 L 157.3 33.3 L 157.33422117233278 33.31840190887451 L 157.9 32.3 Z M 47.7 72.3 L 46.5 69.3 L 45.0 66.2 L 43.3 63.1 L 41.3 60.0 L 39.1 56.9 L 36.6 53.7 L 33.8 50.5 L 30.7 47.3 L 31.7 45.9 L 35.7 48.1 L 39.6 50.3 L 43.2 52.7 L 46.5 55.4 L 49.5 58.2 L 52.3 61.1 L 54.9 64.3 L 57.1 67.6 L 59.1 71.0 L 60.8 74.6 L 60.4 79.2 L 57.0 82.2 L 52.5 81.8 L 49.4 78.4 L 48.7 75.3 Z M 97.9 65.3 L 97.0 62.8 L 95.9 60.1 L 94.5 57.4 L 92.8 54.6 L 90.8 51.6 L 88.6 48.6 L 86.1 45.5 L 83.1 42.5 L 84.2 41.0 L 87.9 43.3 L 91.5 45.4 L 94.8 47.7 L 97.9 50.1 L 100.6 52.6 L 103.1 55.3 L 105.4 58.0 L 107.3 60.9 L 109.0 64.0 L 110.4 67.1 L 109.7 71.6 L 106.0 74.4 L 101.5 73.7 L 98.7 70.1 L 98.4 67.8 Z M 170.69311475753784 14.270163917541504 L 181.0 22.8 L 181.3 25.8 L 176.989590549469 23.764528846740724 L 173.1 24.7 L 161.7 26.8 L 149.3 28.9 L 136.0 30.8 L 121.8 32.5 L 106.7 34.1 L 90.5 35.6 L 73.5 36.8 L 55.5 37.9 L 36.5 38.7 L 16.6 39.1 L 16.4 37.3 L 36.2 34.9 L 55.0 32.5 L 72.8 30.3 L 89.7 28.0 L 105.6 25.7 L 120.5 23.3 L 134.5 20.9 L 147.4 18.3 L 159.4 15.7 L 169.41355409622193 13.242127609252929 L 169.4 13.2 L 169.442360496521 13.235056972503662 L 170.4 13.0 Z " />
</g>
</svg>
