<svg xmlns="http://www.w3.org/2000/svg" xmlns:xlink="http://www.w3.org/1999/xlink" version="1.1" baseProfile="full" viewBox="0 0 200 200" width="200" height="200">
<g fill="black">
<path d="M 155.1 116.0 L 140.9 120.0 L 126.4 123.8 L 111.8 127.6 L 97.1 131.3 L 82.2 135.0 L 67.2 138.6 L 52.0 142.3 L 36.7 146.0 L 25.12380142211914 148.68866548538207 L 23.8 152.1 L 21.2 149.6 L 16.7 138.3 L 18.7 137.9 L 34.3 134.8 L 46.0 132.52077922821044 L 46.0 38.0 L 58.0 44.0 L 58.0 44.28666667938232 L 65.4 43.3 L 78.6 41.4 L 91.4 39.4 L 103.9 37.1 L 115.9 34.6 L 127.7 31.8 L 139.0 28.7 L 150.0 25.3 L 160.6 21.7 L 170.0196050643921 18.04190092086792 L 170.0 18.0 L 170.03896627426147 18.03438205718994 L 170.9 17.7 L 171.51318683624268 19.33516483306885 L 180.2 27.0 L 180.4 30.1 L 176.4158836364746 28.409768867492676 L 175.1 28.9 L 164.2 32.5 L 153.0 35.6 L 141.5 38.5 L 129.7 40.9 L 117.5 43.0 L 105.0 44.6 L 92.2 45.9 L 79.1 46.8 L 65.7 47.1 L 58.0 46.9313868522644 L 58.0 130.17254905700685 L 65.0 128.8 L 80.2 125.9 L 95.3 123.0 L 110.2 120.2 L 125.0 117.4 L 139.7 114.8 L 154.3 112.3 L 163.0 110.98000001907349 L 163.0 53.0 L 175.0 55.0 L 178.0 57.0 L 175.0 58.8 L 175.0 124.0 L 173.0 136.0 L 167.8 146.9 L 159.5 156.4 L 148.6 164.4 L 134.9 171.1 L 118.6 176.7 L 99.6 181.1 L 77.8 184.5 L 53.3 186.8 L 26.0 187.8 L 25.9 186.1 L 52.9 183.0 L 77.0 179.2 L 98.2 174.7 L 116.3 169.4 L 131.5 163.3 L 143.6 156.5 L 152.6 149.1 L 158.7 141.2 L 162.0 132.9 L 163.0 124.0 L 163.0 113.63000001907349 Z " />
</g>
</svg>
