<svg xmlns="http://www.w3.org/2000/svg" xmlns:xlink="http://www.w3.org/1999/xlink" version="1.1" baseProfile="full" viewBox="0 0 200 200" width="200" height="200">
<g fill="black">
<path d="M 181.0 144.0 L 183.0 144.0 L 181.0 169.0 L 184.6 171.4 L 187.0 175.0 L 184.6 178.6 L 181.0 181.0 L 110.0 181.0 L 107.4 180.8 L 104.9 180.4 L 102.5 179.6 L 100.2 178.3 L 98.2 176.7 L 96.6 174.7 L 95.3 172.4 L 94.5 170.0 L 94.1 167.5 L 94.0 165.0 L 94.0 140.0 L 44.0 140.0 L 44.0 152.0 L 32.0 158.0 L 32.0 84.0 L 44.0 90.0 L 94.0 90.0 L 94.0 71.0 L 55.0 71.0 L 55.0 74.0 L 43.0 80.0 L 43.0 15.0 L 55.0 21.0 L 145.0 21.0 L 151.0 16.0 L 162.0 25.0 L 157.0 29.0 L 157.0 73.0 L 145.0 79.0 L 145.0 71.0 L 106.0 71.0 L 106.0 90.0 L 156.0 90.0 L 162.0 85.0 L 173.0 94.0 L 168.0 98.0 L 168.0 146.0 L 156.0 152.0 L 156.0 140.0 L 106.0 140.0 L 106.0 166.2 L 106.2 167.1 L 106.5 168.0 L 106.9 168.4 L 107.8 168.7 L 108.7 168.9 L 110.0 169.0 L 175.0 169.0 Z M 44.0 117.0 L 44.0 136.0 L 94.0 136.0 L 94.0 117.0 Z M 106.0 117.0 L 106.0 136.0 L 156.0 136.0 L 156.0 117.0 Z M 44.0 94.0 L 44.0 113.0 L 94.0 113.0 L 94.0 94.0 Z M 106.0 94.0 L 106.0 113.0 L 156.0 113.0 L 156.0 94.0 Z M 55.0 48.0 L 55.0 67.0 L 94.0 67.0 L 94.0 48.0 Z M 106.0 48.0 L 106.0 67.0 L 145.0 67.0 L 145.0 48.0 Z M 55.0 25.0 L 55.0 44.0 L 94.0 44.0 L 94.0 25.0 Z M 106.0 25.0 L 106.0 44.0 L 145.0 44.0 L 145.0 25.0 Z " />
</g>
</svg>
