<svg xmlns="http://www.w3.org/2000/svg" xmlns:xlink="http://www.w3.org/1999/xlink" version="1.1" baseProfile="full" viewBox="0 0 200 200" width="200" height="200">
<g fill="black">
<path d="M 36.8 183.1 L 24.8 189.1 L 24.8 113.6 L 36.8 119.6 L 161.1 119.6 L 167.1 114.6 L 178.1 123.6 L 173.1 127.6 L 173.1 177.1 L 161.1 183.1 L 161.1 171.1 L 36.8 171.1 Z M 36.8 123.6 L 36.8 167.1 L 69.9 167.1 L 69.9 123.6 Z M 81.9 123.6 L 81.9 167.1 L 116.0 167.1 L 116.0 123.6 Z M 128.0 123.6 L 128.0 167.1 L 161.1 167.1 L 161.1 123.6 Z M 58.8 26.8 L 141.1 26.8 L 147.1 21.8 L 158.1 30.8 L 153.1 34.8 L 153.1 98.0 L 141.1 104.0 L 141.1 30.8 L 58.8 30.8 L 58.8 98.0 L 46.8 104.0 L 46.8 20.8 Z M 130.4 90.3 L 130.4 94.3 L 69.6 94.3 L 69.6 90.3 L 108.4 90.3 L 118.4 80.3 Z M 130.4 58.0 L 130.4 62.0 L 69.6 62.0 L 69.6 58.0 L 108.4 58.0 L 118.4 48.0 Z " />
</g>
</svg>
