<svg xmlns="http://www.w3.org/2000/svg" xmlns:xlink="http://www.w3.org/1999/xlink" version="1.1" baseProfile="full" viewBox="0 0 200 200" width="200" height="200">
<g fill="black">
<path d="M 151.0 175.0 L 151.0 179.0 L 45.0 179.0 L 45.0 175.0 L 129.0 175.0 L 139.0 165.0 Z M 17.3 175.4 L 14.8 171.6 L 15.6 167.1 L 18.4 163.2 L 21.0 159.1 L 23.4 154.8 L 25.6 150.3 L 27.5 145.6 L 29.3 140.7 L 30.9 135.6 L 32.3 130.3 L 33.7 124.7 L 35.0 118.9 L 36.8 119.0 L 37.5 125.0 L 37.7 131.0 L 37.596551704406735 133.0 L 162.0 133.0 L 168.0 128.0 L 179.0 137.0 L 174.0 140.0 L 172.37419357299805 140.67741937637328 L 171.3 143.9 L 169.9 147.9 L 168.5 151.8 L 166.9 155.8 L 163.3 164.0 L 161.3 168.0 L 159.1 172.1 L 156.8 176.3 L 155.1 175.6 L 155.9 171.0 L 156.7 166.5 L 157.5 162.1 L 158.3 157.8 L 159.0 153.6 L 159.8 149.4 L 161.0 141.4 L 161.6 137.5 L 161.66578950881959 137.0 L 37.375438594818114 137.0 L 36.7 142.5 L 35.7 148.0 L 34.3 153.5 L 32.6 158.8 L 30.6 163.9 L 28.3 168.9 L 25.6 173.8 L 21.8 176.3 Z M 36.0 96.0 L 91.0 96.0 L 91.0 56.0 L 24.0 56.0 L 24.0 52.0 L 91.0 52.0 L 91.0 13.0 L 103.0 15.0 L 106.0 17.0 L 103.0 18.8 L 103.0 52.0 L 156.0 52.0 L 166.0 42.0 L 178.0 52.0 L 178.0 56.0 L 103.0 56.0 L 103.0 96.0 L 139.0 96.0 L 149.0 86.0 L 161.0 96.0 L 161.0 100.0 L 36.0 100.0 Z " />
</g>
</svg>
