<svg xmlns="http://www.w3.org/2000/svg" xmlns:xlink="http://www.w3.org/1999/xlink" version="1.1" baseProfile="full" viewBox="0 0 200 200" width="200" height="200">
<g fill="black">
<path d="M 122.4 179.8 L 119.9 179.4 L 117.5 178.6 L 115.2 177.3 L 113.2 175.7 L 111.6 173.7 L 110.3 171.4 L 109.5 169.0 L 109.1 166.5 L 109.0 164.0 L 109.0 97.0 L 101.58071069717407 97.0 L 97.8 112.2 L 91.0 129.8 L 82.3 145.2 L 71.7 158.4 L 59.4 169.4 L 45.3 177.9 L 29.5 184.1 L 12.1 187.8 L 11.8 186.1 L 28.2 180.5 L 42.7 173.2 L 55.3 164.2 L 66.1 153.4 L 75.1 140.7 L 82.5 126.0 L 88.1 109.4 L 90.75240640640259 97.0 L 55.0 97.0 L 55.0 109.0 L 43.0 115.0 L 43.0 39.0 L 55.0 45.0 L 95.0 45.0 L 95.0 11.0 L 107.0 13.0 L 110.0 15.0 L 107.0 16.8 L 107.0 45.0 L 151.0 45.0 L 157.0 40.0 L 168.0 49.0 L 163.0 53.0 L 163.0 103.0 L 151.0 109.0 L 151.0 97.0 L 121.0 97.0 L 121.0 165.2 L 121.2 166.1 L 121.5 167.0 L 121.9 167.4 L 122.8 167.7 L 123.7 167.9 L 125.0 168.0 L 174.0 168.0 L 180.0 143.0 L 182.0 143.0 L 180.0 168.0 L 183.6 170.4 L 186.0 174.0 L 183.6 177.6 L 180.0 180.0 L 125.0 180.0 Z M 55.0 49.0 L 55.0 93.0 L 91.60802135467529 93.0 L 92.1 90.7 L 94.4 69.9 L 94.94759826660156 49.0 Z M 106.89075632095337 49.0 L 105.7 70.8 L 102.7 92.5 L 102.5756344795227 93.0 L 151.0 93.0 L 151.0 49.0 Z " />
</g>
</svg>
