<svg xmlns="http://www.w3.org/2000/svg" xmlns:xlink="http://www.w3.org/1999/xlink" version="1.1" baseProfile="full" viewBox="0 0 200 200" width="200" height="200">
<g fill="black">
<path d="M 138.0 174.0 L 158.0 174.0 L 159.2 173.9 L 160.1 173.7 L 161.0 173.4 L 161.4 173.0 L 161.7 172.1 L 161.9 171.2 L 162.0 170.0 L 162.0 30.0 L 38.0 30.0 L 38.0 181.0 L 26.0 187.0 L 26.0 20.0 L 38.0 26.0 L 162.0 26.0 L 168.0 21.0 L 179.0 30.0 L 174.0 34.0 L 174.0 170.0 L 173.8 172.5 L 173.4 175.0 L 172.6 177.4 L 171.3 179.7 L 169.7 181.7 L 167.7 183.3 L 165.4 184.6 L 163.0 185.4 L 160.5 185.8 L 158.0 186.0 L 158.0 180.0 L 138.0 177.0 Z M 145.3 80.4 L 145.3 84.4 L 106.5 84.4 L 106.5 119.9 L 133.0 119.9 L 143.0 109.9 L 155.0 119.9 L 155.0 123.9 L 106.5 123.9 L 106.5 175.2 L 94.5 181.2 L 94.5 123.9 L 45.9 123.9 L 45.9 119.9 L 94.5 119.9 L 94.5 84.4 L 55.6 84.4 L 55.6 80.4 L 123.3 80.4 L 133.3 70.4 Z M 138.5 42.3 L 140.3 45.5 L 136.37919998168945 45.770400047302246 L 136.3 45.9 L 134.0 49.4 L 131.7 53.0 L 129.3 56.5 L 126.8 59.9 L 124.2 63.4 L 121.5 66.8 L 118.7 70.1 L 115.7 73.4 L 112.7 76.6 L 111.2 75.6 L 112.9 71.6 L 114.6 67.5 L 116.3 63.6 L 118.1 59.7 L 119.8 55.9 L 121.5 52.0 L 123.1 48.3 L 124.7 44.5 L 126.2 40.7 L 127.33030805587768 37.911906719207764 L 127.3 37.9 L 127.65454549789429 37.112121200561525 L 127.7 37.0 L 127.70409555435181 37.002009868621826 L 128.2 35.9 Z M 78.2 63.7 L 77.1 60.7 L 75.8 57.8 L 74.4 54.9 L 72.7 52.1 L 70.8 49.2 L 68.7 46.4 L 66.4 43.6 L 63.7 41.0 L 64.7 39.5 L 68.1 41.3 L 71.6 43.1 L 74.8 45.2 L 77.8 47.6 L 80.6 50.2 L 83.2 53.0 L 85.5 56.0 L 87.6 59.2 L 89.5 62.7 L 91.1 66.3 L 90.6 70.8 L 87.1 73.8 L 82.6 73.3 L 79.7 69.8 L 79.0 66.7 Z " />
</g>
</svg>
