<svg xmlns="http://www.w3.org/2000/svg" xmlns:xlink="http://www.w3.org/1999/xlink" version="1.1" baseProfile="full" viewBox="0 0 200 200" width="200" height="200">
<g fill="black">
<path d="M 100.9 15.3 L 103.7 17.5 L 100.45381603240966 19.185518550872803 L 98.5 36.2 L 97.57878789901733 41.0 L 151.0 41.0 L 161.0 31.0 L 173.0 41.0 L 173.0 45.0 L 96.81111106872558 45.0 L 94.7 56.0 L 91.17340421676636 69.0 L 140.0 69.0 L 150.0 59.0 L 162.0 69.0 L 162.0 73.0 L 90.0882978439331 73.0 L 89.6 74.8 L 83.1 92.5 L 81.4343373298645 96.0 L 160.0 96.0 L 170.0 86.0 L 182.0 96.0 L 182.0 100.0 L 79.53072290420532 100.0 L 75.2 109.1 L 66.0 124.6 L 55.4 139.0 L 43.5 152.1 L 30.2 164.1 L 15.5 174.7 L 14.4 173.2 L 27.6 161.2 L 39.5 148.5 L 50.2 135.0 L 59.6 120.6 L 67.6 105.3 L 69.8246913909912 100.0 L 18.0 100.0 L 18.0 96.0 L 71.50370368957519 96.0 L 74.4 89.1 L 79.6418604850769 73.0 L 40.0 73.0 L 40.0 69.0 L 80.6729281425476 69.0 L 84.2 53.8 L 85.58219890594482 45.0 L 30.0 45.0 L 30.0 41.0 L 86.2104712486267 41.0 L 87.2 34.7 L 88.81545534133912 15.599616813659669 L 88.8 15.6 L 89.0 12.3 Z " />
</g>
</svg>
