<svg xmlns="http://www.w3.org/2000/svg" xmlns:xlink="http://www.w3.org/1999/xlink" version="1.1" baseProfile="full" viewBox="0 0 200 200" width="200" height="200">
<g fill="black">
<path d="M 89.5 20.4 L 92.0 23.0 L 88.40233421325684 24.09214849472046 L 85.1 35.2 L 80.4371428489685 48.0 L 162.0 48.0 L 172.0 38.0 L 184.0 48.0 L 184.0 52.0 L 78.76030530929566 52.0 L 74.2 62.3 L 67.8 74.6 L 60.7 86.0 L 53.0 96.5 L 51.0 98.7619047164917 L 51.0 182.0 L 39.0 188.0 L 39.0 111.35111112594605 L 35.6 114.6 L 25.8 122.2 L 15.5 128.7 L 14.4 127.2 L 23.4 119.3 L 31.8 110.8 L 39.0 102.50632915496826 L 39.0 83.0 L 51.0 85.0 L 51.212472152709964 85.14164810180664 L 53.6 81.4 L 59.6 70.2 L 65.1 58.2 L 67.425 52.0 L 19.0 52.0 L 19.0 48.0 L 68.925 48.0 L 69.9 45.4 L 74.2 31.8 L 77.66433515548707 18.410812664031983 L 77.6 18.4 L 78.3 15.7 Z " />
</g>
</svg>
