<svg xmlns="http://www.w3.org/2000/svg" xmlns:xlink="http://www.w3.org/1999/xlink" version="1.1" baseProfile="full" viewBox="0 0 200 200" width="200" height="200">
<g fill="black">
<path d="M 84.0 14.0 L 84.0 78.0 L 83.2 94.3 L 81.6 109.5 L 79.1 123.5 L 75.7 136.3 L 71.4 148.0 L 66.2 158.4 L 60.1 167.6 L 53.0 175.4 L 45.1 181.8 L 36.4 186.7 L 35.5 185.2 L 42.7 178.9 L 49.1 171.8 L 54.7 163.9 L 59.5 154.9 L 63.5 144.9 L 66.8 133.8 L 69.2 121.6 L 70.9 108.2 L 71.8 93.7 L 72.0 78.0 L 72.0 14.0 Z M 95.0 173.0 L 115.0 173.0 L 116.2 172.9 L 117.1 172.7 L 118.0 172.4 L 118.4 172.0 L 118.7 171.1 L 118.9 170.2 L 119.0 169.0 L 119.0 14.0 L 131.0 14.0 L 131.0 169.0 L 130.8 171.5 L 130.4 174.0 L 129.6 176.4 L 128.3 178.7 L 126.7 180.7 L 124.7 182.3 L 122.4 183.6 L 120.0 184.4 L 117.5 184.8 L 115.0 185.0 L 115.0 179.0 L 95.0 176.0 Z M 58.6 51.3 L 61.1 53.9 L 57.53541584014893 55.045759201049805 L 55.9 60.8 L 53.0 70.2 L 49.8 79.6 L 46.2 88.9 L 42.4 98.2 L 38.2 107.4 L 33.7 116.6 L 28.8 125.7 L 23.5 134.6 L 17.7 143.4 L 16.2 142.5 L 24.0 123.3 L 27.7 113.9 L 31.2 104.5 L 34.4 95.2 L 37.4 85.8 L 40.2 76.5 L 42.7 67.2 L 44.9 57.9 L 46.9 48.6 L 46.91361255645752 48.603141403198244 L 47.3 46.8 Z M 166.9 100.9 L 164.9 93.9 L 162.6 87.1 L 160.1 80.5 L 157.4 74.0 L 154.5 67.7 L 151.4 61.5 L 148.2 55.4 L 144.9 49.3 L 146.3 48.2 L 151.3 53.2 L 155.9 58.6 L 160.1 64.4 L 164.1 70.5 L 167.8 76.9 L 171.2 83.5 L 174.3 90.4 L 177.1 97.6 L 179.7 105.0 L 182.1 112.6 L 181.3 117.1 L 177.7 119.9 L 173.2 119.1 L 170.4 115.5 L 168.8 108.1 Z " />
</g>
</svg>
