<svg xmlns="http://www.w3.org/2000/svg" xmlns:xlink="http://www.w3.org/1999/xlink" version="1.1" baseProfile="full" viewBox="0 0 200 200" width="200" height="200">
<g fill="black">
<path d="M 54.8 169.9 L 61.6 168.4720000267029 L 61.6 22.0 L 73.6 24.0 L 76.6 26.0 L 73.6 27.8 L 73.6 85.0 L 130.8 85.0 L 140.8 75.0 L 152.8 85.0 L 152.8 89.0 L 73.6 89.0 L 73.6 165.88316831588745 L 74.9 165.6 L 84.9 163.4 L 95.0 161.1 L 105.2 158.8 L 125.6 154.0 L 135.9 151.6 L 146.2 149.3 L 156.7 147.1 L 157.2 148.8 L 147.3 152.9 L 137.4 156.8 L 127.4 160.3 L 117.4 163.7 L 107.4 167.0 L 97.5 170.1 L 87.5 173.1 L 67.5 178.9 L 61.49154081344604 180.5386707305908 L 60.2 184.0 L 57.6 181.6 L 52.8 170.3 Z " />
</g>
</svg>
