<svg xmlns="http://www.w3.org/2000/svg" xmlns:xlink="http://www.w3.org/1999/xlink" version="1.1" baseProfile="full" viewBox="0 0 200 200" width="200" height="200">
<g fill="black">
<path d="M 16.0 174.0 L 94.0 174.0 L 94.0 141.0 L 31.0 141.0 L 31.0 137.0 L 94.0 137.0 L 94.0 103.0 L 48.0 103.0 L 48.0 115.0 L 36.0 121.0 L 36.0 22.0 L 48.0 28.0 L 152.0 28.0 L 158.0 23.0 L 169.0 32.0 L 164.0 36.0 L 164.0 109.0 L 152.0 115.0 L 152.0 103.0 L 106.0 103.0 L 106.0 137.0 L 147.0 137.0 L 157.0 127.0 L 169.0 137.0 L 169.0 141.0 L 106.0 141.0 L 106.0 174.0 L 162.0 174.0 L 172.0 164.0 L 184.0 174.0 L 184.0 178.0 L 16.0 178.0 Z M 48.0 32.0 L 48.0 99.0 L 94.0 99.0 L 94.0 32.0 Z M 106.0 32.0 L 106.0 99.0 L 152.0 99.0 L 152.0 32.0 Z M 142.5 46.4 L 144.9 49.1 L 141.00699844360352 50.28180408477783 L 141.0 50.3 L 139.3 54.3 L 137.2 58.3 L 134.9 62.3 L 132.3 66.4 L 129.4 70.6 L 126.3 74.8 L 122.8 79.0 L 118.9 83.3 L 114.7 87.5 L 113.2 86.4 L 115.9 81.2 L 118.5 76.1 L 120.8 71.4 L 123.0 66.8 L 125.0 62.4 L 126.6 58.3 L 128.1 54.3 L 129.3 50.4 L 130.2 46.8 L 130.69096994400024 44.41528902053833 L 130.6 44.4 L 131.3 41.7 Z M 71.1 71.0 L 70.1 67.4 L 68.9 63.9 L 67.5 60.4 L 65.9 57.0 L 64.0 53.6 L 62.0 50.2 L 59.7 46.7 L 57.1 43.3 L 58.3 41.9 L 61.9 44.4 L 65.5 47.0 L 68.7 49.9 L 71.7 53.0 L 74.4 56.3 L 76.9 59.8 L 79.1 63.6 L 81.1 67.5 L 82.8 71.5 L 84.2 75.7 L 83.3 80.2 L 79.6 82.9 L 75.1 82.0 L 72.4 78.3 L 71.9 74.6 Z " />
</g>
</svg>
