<svg xmlns="http://www.w3.org/2000/svg" xmlns:xlink="http://www.w3.org/1999/xlink" version="1.1" baseProfile="full" viewBox="0 0 200 200" width="200" height="200">
<g fill="black">
<path d="M 20.0 171.0 L 26.5 168.7 L 33.4 166.2 L 40.6 163.6 L 48.0 160.9 L 48.7 160.65189876556397 L 48.7 35.9 L 22.5 35.9 L 22.5 31.9 L 71.8 31.9 L 81.8 21.9 L 93.8 31.9 L 93.8 35.9 L 60.7 35.9 L 60.7 156.3814814567566 L 64.0 155.2 L 72.6 152.1 L 81.4 149.0 L 90.7 145.9 L 100.3 142.9 L 101.1 144.5 L 92.2 149.4 L 83.5 153.9 L 75.1 158.2 L 67.0 162.2 L 59.2 165.9 L 51.6 169.5 L 44.4 172.9 L 37.5 176.2 L 30.8 179.2 L 28.303773593902587 180.34905662536622 L 27.5 184.1 L 24.5 182.1 L 18.2 171.7 Z M 116.8 31.6 L 165.1 31.6 L 171.1 26.6 L 182.1 35.6 L 177.1 39.6 L 177.1 160.4 L 165.1 166.4 L 165.1 154.4 L 116.8 154.4 L 116.8 166.4 L 104.8 172.4 L 104.8 25.6 Z M 116.8 35.6 L 116.8 150.4 L 165.1 150.4 L 165.1 35.6 Z " />
</g>
</svg>
