<svg xmlns="http://www.w3.org/2000/svg" xmlns:xlink="http://www.w3.org/1999/xlink" version="1.1" baseProfile="full" viewBox="0 0 200 200" width="200" height="200">
<g fill="black">
<path d="M 14.0 174.0 L 75.0 174.0 L 75.0 119.0 L 50.0 119.0 L 50.0 131.0 L 38.0 137.0 L 38.0 54.0 L 50.0 56.0 L 53.0 58.0 L 50.0 59.8 L 50.0 115.0 L 75.0 115.0 L 75.0 16.0 L 87.0 18.0 L 90.0 20.0 L 87.0 21.8 L 87.0 174.0 L 113.0 174.0 L 113.0 16.0 L 125.0 18.0 L 128.0 20.0 L 125.0 21.8 L 125.0 115.0 L 150.0 115.0 L 150.0 54.0 L 162.0 56.0 L 165.0 58.0 L 162.0 59.8 L 162.0 125.0 L 150.0 131.0 L 150.0 119.0 L 125.0 119.0 L 125.0 174.0 L 164.0 174.0 L 174.0 164.0 L 186.0 174.0 L 186.0 178.0 L 14.0 178.0 Z " />
</g>
</svg>
