<svg xmlns="http://www.w3.org/2000/svg" xmlns:xlink="http://www.w3.org/1999/xlink" version="1.1" baseProfile="full" viewBox="0 0 200 200" width="200" height="200">
<g fill="black">
<path d="M 176.6 78.5 L 178.2 81.8 L 174.4025438308716 81.86547336578369 L 165.5 95.5 L 153.4 111.1 L 140.3 125.3 L 126.2 138.2 L 111.1 149.6 L 95.0 159.6 L 77.9 168.2 L 59.9 175.3 L 41.0 180.9 L 21.1 184.9 L 20.8 183.2 L 39.9 177.3 L 58.0 170.3 L 75.1 162.3 L 91.1 153.1 L 106.1 142.7 L 120.1 131.1 L 133.1 118.3 L 145.1 104.3 L 156.2 89.0 L 166.3 72.5 L 166.8 71.6 Z M 70.0 123.8 L 91.2 123.8 L 92.1 123.6 L 92.7 123.4 L 93.0 123.2 L 93.2 123.1 L 93.4 122.9 L 93.7 122.0 L 93.9 121.1 L 94.0 119.8 L 94.0 32.0 L 15.0 32.0 L 15.0 28.0 L 163.0 28.0 L 173.0 18.0 L 185.0 28.0 L 185.0 32.0 L 106.45 32.0 L 109.0 33.7 L 106.0 35.5 L 106.0 119.8 L 105.8 122.4 L 105.4 124.9 L 104.6 127.3 L 103.3 129.6 L 101.7 131.6 L 99.7 133.2 L 97.4 134.4 L 95.0 135.2 L 92.5 135.7 L 90.0 135.8 L 90.0 129.8 L 70.0 126.8 Z M 66.2 62.7 L 68.3 65.7 L 64.6238070487976 66.34494609832764 L 63.0 70.1 L 59.4 77.3 L 55.6 84.3 L 51.4 91.2 L 47.0 97.9 L 42.2 104.5 L 37.1 110.9 L 31.7 117.0 L 25.9 123.0 L 19.6 128.6 L 18.3 127.4 L 23.0 120.5 L 27.5 113.7 L 31.8 107.0 L 35.9 100.3 L 39.8 93.5 L 43.3 86.6 L 46.7 79.7 L 49.7 72.7 L 52.5 65.7 L 54.64816436767578 59.513286685943605 L 54.6 59.5 L 55.5 57.1 Z " />
</g>
</svg>
