<svg xmlns="http://www.w3.org/2000/svg" xmlns:xlink="http://www.w3.org/1999/xlink" version="1.1" baseProfile="full" viewBox="0 0 200 200" width="200" height="200">
<g fill="black">
<path d="M 45.4 169.9 L 55.0 168.0 L 64.9 165.9 L 75.2 163.8 L 85.7 161.6 L 96.6 159.3 L 107.8 156.9 L 119.1 154.46465520858766 L 119.1 79.0 L 45.8 79.0 L 45.8 75.0 L 119.1 75.0 L 119.1 15.0 L 131.1 17.0 L 134.1 19.0 L 131.1 20.8 L 131.1 151.92118644714355 L 131.2 151.9 L 143.4 149.5 L 156.0 147.1 L 156.5 148.8 L 144.4 153.1 L 132.6 157.1 L 121.0 160.8 L 109.7 164.2 L 98.7 167.5 L 88.0 170.6 L 77.6 173.6 L 67.4 176.4 L 57.6 179.1 L 51.99605827331543 180.5747215270996 L 50.7 184.1 L 48.1 181.6 L 43.4 170.3 Z " />
</g>
</svg>
