<svg xmlns="http://www.w3.org/2000/svg" xmlns:xlink="http://www.w3.org/1999/xlink" version="1.1" baseProfile="full" viewBox="0 0 200 200" width="200" height="200">
<g fill="black">
<path d="M 70.0 176.0 L 90.0 176.0 L 91.2 175.9 L 92.1 175.7 L 93.0 175.4 L 93.4 175.0 L 93.7 174.1 L 93.9 173.2 L 94.0 172.0 L 94.0 110.1 L 50.5 110.1 L 50.5 122.1 L 38.5 128.1 L 38.5 35.5 L 50.5 41.5 L 73.95227270126342 41.5 L 76.7 38.4 L 80.3 34.2 L 83.6 30.4 L 86.7 26.8 L 89.4 23.6 L 91.9 20.7 L 94.1 18.0 L 95.9 15.6 L 97.4 13.5 L 98.03397130966187 12.601873970031738 L 97.9 12.5 L 99.0 11.4 L 107.5 19.8 L 108.4 23.3 L 104.15646686553956 22.481072521209718 L 103.4 23.1 L 100.9 25.0 L 98.1 27.2 L 94.9 29.5 L 91.4 32.1 L 87.6 34.8 L 83.4 37.7 L 78.8 40.8 L 77.76060609817505 41.5 L 149.4 41.5 L 155.4 36.5 L 166.4 45.5 L 161.4 49.5 L 161.4 116.1 L 149.4 122.1 L 149.4 110.1 L 106.0 110.1 L 106.0 172.0 L 105.8 174.5 L 105.4 177.0 L 104.6 179.4 L 103.3 181.7 L 101.7 183.7 L 99.7 185.3 L 97.4 186.6 L 95.0 187.4 L 92.5 187.8 L 90.0 188.0 L 90.0 182.0 L 70.0 179.0 Z M 70.5 135.0 L 71.9 138.3 L 68.10199584960938 138.23451719284057 L 66.2 140.8 L 61.7 146.3 L 56.8 151.6 L 51.6 156.6 L 46.2 161.3 L 40.4 165.7 L 34.4 169.8 L 28.1 173.5 L 21.4 176.9 L 14.4 179.7 L 13.5 178.2 L 19.4 173.6 L 25.1 169.1 L 30.5 164.5 L 35.6 159.8 L 40.5 155.0 L 45.0 150.1 L 49.3 145.0 L 53.2 139.7 L 56.9 134.2 L 59.810840892791745 129.40567378997804 L 59.8 129.4 L 59.922222232818605 129.2222222328186 L 60.3 128.6 L 60.334931468963624 128.6219178199768 L 60.9 127.8 Z M 164.4 165.6 L 161.5 161.9 L 158.0 158.0 L 153.9 153.9 L 149.1 149.7 L 143.8 145.2 L 137.8 140.5 L 131.4 135.5 L 124.4 130.2 L 125.3 128.7 L 133.3 132.3 L 140.7 136.0 L 147.5 139.8 L 153.7 143.6 L 159.2 147.4 L 164.3 151.2 L 168.7 154.9 L 172.6 158.7 L 176.0 162.5 L 178.8 166.4 L 179.2 171.0 L 176.4 174.6 L 171.8 175.0 L 168.2 172.2 L 166.6 169.1 Z M 50.5 76.9 L 50.5 106.1 L 149.4 106.1 L 149.4 76.9 Z M 50.5 45.5 L 50.5 72.9 L 149.4 72.9 L 149.4 45.5 Z " />
</g>
</svg>
