<svg xmlns="http://www.w3.org/2000/svg" xmlns:xlink="http://www.w3.org/1999/xlink" version="1.1" baseProfile="full" viewBox="0 0 200 200" width="200" height="200">
<g fill="black">
<path d="M 20.4 178.0 L 19.6 173.5 L 22.1 169.7 L 24.9 168.1 L 27.3 166.2 L 29.6 163.9 L 31.6 161.4 L 33.3 158.4 L 34.8 155.0 L 36.1 151.2 L 37.1 146.9 L 37.9 142.1 L 38.2 136.9 L 40.0 136.7 L 41.0 142.0 L 41.8 147.1 L 42.0 151.9 L 41.7 156.6 L 40.9 161.1 L 39.5 165.4 L 37.6 169.4 L 35.2 173.2 L 32.2 176.6 L 28.8 179.7 L 24.3 180.5 Z M 164.6 182.4 L 162.7 183.9 L 160.7 185.1 L 158.6 186.2 L 156.4 187.1 L 154.1 187.8 L 151.8 188.3 L 149.4 188.6 L 147.0 188.7 L 147.0 182.7 L 127.0 179.7 L 127.0 176.7 L 147.0 176.7 L 148.4 176.6 L 151.2 176.2 L 152.4 175.8 L 153.6 175.3 L 154.7 174.7 L 155.8 174.0 L 156.9 173.2 L 157.9 172.3 L 158.9 171.2 L 159.7 170.1 L 160.5 168.3 L 161.3 165.7 L 162.0 162.3 L 162.6 158.2 L 163.0 153.5 L 163.3 148.1 L 163.4 142.0 L 163.33425340652465 137.66072769165038 L 163.0 137.8 L 163.0 129.8 L 62.0 129.8 L 50.0 135.8 L 50.0 44.2 L 62.0 50.2 L 86.22083330154419 50.2 L 87.0 49.1 L 89.8 43.9 L 91.2 41.4 L 92.7 38.9 L 94.1 36.4 L 96.9 31.6 L 98.2 29.2 L 98.9 28.0 L 18.0 28.0 L 18.0 24.0 L 160.0 24.0 L 170.0 14.0 L 182.0 24.0 L 182.0 28.0 L 102.07341775894164 28.0 L 109.1 34.1 L 110.3 37.5 L 106.06441221237182 36.98880834579468 L 105.0 38.0 L 102.8 40.0 L 98.4 43.8 L 93.8 47.4 L 91.4 49.2 L 89.8375 50.2 L 139.0 50.2 L 145.0 45.2 L 156.0 54.2 L 151.0 58.2 L 151.0 93.8 L 139.0 99.8 L 139.0 93.8 L 62.0 93.8 L 62.0 107.8 L 166.8181818008423 107.8 L 175.0 98.8 L 185.0 107.8 L 185.0 111.8 L 62.0 111.8 L 62.0 125.8 L 163.0 125.8 L 169.0 120.8 L 180.0 129.8 L 175.1785714149475 132.692857170105 L 175.3 135.0 L 175.4 142.0 L 175.3 148.4 L 175.0 154.3 L 174.5 159.6 L 173.9 164.4 L 172.9 168.7 L 171.7 172.6 L 170.1 176.0 L 168.0 179.0 L 166.4 180.8 Z M 66.1 176.5 L 62.6 173.6 L 62.0 169.1 L 63.0 166.8 L 63.8 164.6 L 64.3 162.2 L 64.7 159.7 L 64.8 157.2 L 64.7 154.5 L 64.4 151.7 L 63.9 148.7 L 63.1 145.6 L 61.7 142.6 L 63.3 141.6 L 65.4 144.3 L 67.6 147.0 L 69.5 149.8 L 71.0 152.7 L 72.3 155.8 L 73.2 159.0 L 73.8 162.2 L 74.1 165.6 L 74.0 169.0 L 73.6 172.5 L 70.6 176.0 Z M 96.7 161.5 L 96.1 159.0 L 95.3 156.6 L 94.2 154.2 L 93.0 151.8 L 91.5 149.4 L 89.7 147.0 L 87.8 144.6 L 85.3 142.5 L 86.3 141.0 L 89.3 142.5 L 92.3 143.8 L 95.2 145.5 L 97.8 147.4 L 100.3 149.6 L 102.5 152.1 L 104.5 154.7 L 106.3 157.6 L 107.9 160.7 L 109.2 164.0 L 108.3 168.5 L 104.6 171.2 L 100.1 170.3 L 97.4 166.6 L 97.2 164.0 Z M 128.1 156.6 L 127.2 154.6 L 126.0 152.5 L 124.6 150.4 L 122.9 148.3 L 121.0 146.1 L 118.8 143.9 L 116.4 141.7 L 113.5 139.8 L 114.2 138.2 L 117.6 139.4 L 120.9 140.5 L 124.0 141.7 L 127.0 143.2 L 129.7 144.9 L 132.2 146.7 L 134.6 148.7 L 136.7 151.0 L 138.7 153.4 L 140.3 156.0 L 140.3 160.5 L 137.1 163.8 L 132.5 163.8 L 129.3 160.6 L 128.8 158.6 Z M 62.0 74.0 L 62.0 89.8 L 139.0 89.8 L 139.0 74.0 Z M 62.0 54.2 L 62.0 70.0 L 139.0 70.0 L 139.0 54.2 Z " />
</g>
</svg>
