<svg xmlns="http://www.w3.org/2000/svg" xmlns:xlink="http://www.w3.org/1999/xlink" version="1.1" baseProfile="full" viewBox="0 0 200 200" width="200" height="200">
<g fill="black">
<path d="M 173.0 19.0 L 173.0 23.0 L 104.0 23.0 L 104.0 54.0 L 139.0 54.0 L 149.0 44.0 L 161.0 54.0 L 161.0 58.0 L 104.0 58.0 L 104.0 89.0 L 144.0 89.0 L 154.0 79.0 L 166.0 89.0 L 166.0 93.0 L 104.0 93.0 L 104.0 124.0 L 166.0 124.0 L 176.0 114.0 L 188.0 124.0 L 188.0 128.0 L 104.0 128.0 L 104.0 184.0 L 92.0 190.0 L 92.0 128.0 L 12.0 128.0 L 12.0 124.0 L 92.0 124.0 L 92.0 93.0 L 34.0 93.0 L 34.0 89.0 L 92.0 89.0 L 92.0 58.0 L 39.0 58.0 L 39.0 54.0 L 92.0 54.0 L 92.0 23.0 L 28.0 23.0 L 28.0 19.0 L 151.0 19.0 L 161.0 9.0 Z " />
</g>
</svg>
