<svg xmlns="http://www.w3.org/2000/svg" xmlns:xlink="http://www.w3.org/1999/xlink" version="1.1" baseProfile="full" viewBox="0 0 200 200" width="200" height="200">
<g fill="black">
<path d="M 25.0 98.0 L 61.0 98.0 L 61.0 31.0 L 25.0 31.0 L 25.0 27.0 L 156.0 27.0 L 166.0 17.0 L 178.0 27.0 L 178.0 31.0 L 142.0 31.0 L 142.0 182.0 L 130.0 188.0 L 130.0 102.0 L 25.0 102.0 Z M 23.4 174.2 L 69.0 174.2 L 69.0 147.4 L 32.4 147.4 L 32.4 143.4 L 69.0 143.4 L 69.0 123.2282353401184 L 63.6 123.8 L 54.9 124.5 L 45.9 125.0 L 36.6 125.2 L 27.0 125.2 L 26.9 123.4 L 36.2 121.5 L 45.3 119.7 L 54.0 118.0 L 62.5 116.3 L 70.7 114.5 L 78.6 112.8 L 86.2 110.9 L 93.5 109.1 L 100.5 107.1 L 106.32180614471436 105.36214742660522 L 106.3 105.3 L 106.36026668548584 105.3506667137146 L 107.2 105.1 L 107.52973527908325 106.33384828567505 L 117.6 114.8 L 117.9 117.8 L 113.65473651885986 115.82684936523438 L 110.3 116.7 L 103.2 118.2 L 95.8 119.5 L 88.2 120.8 L 81.0 121.80253162384034 L 81.0 143.4 L 95.6 143.4 L 105.6 133.4 L 117.6 143.4 L 117.6 147.4 L 81.0 147.4 L 81.0 174.2 L 104.6 174.2 L 114.6 164.2 L 126.6 174.2 L 126.6 178.2 L 23.4 178.2 Z M 73.0 76.0 L 73.0 98.0 L 130.0 98.0 L 130.0 76.0 Z M 73.0 51.0 L 73.0 72.0 L 130.0 72.0 L 130.0 51.0 Z M 73.0 31.0 L 73.0 47.0 L 130.0 47.0 L 130.0 31.0 Z " />
</g>
</svg>
