<svg xmlns="http://www.w3.org/2000/svg" xmlns:xlink="http://www.w3.org/1999/xlink" version="1.1" baseProfile="full" viewBox="0 0 200 200" width="200" height="200">
<g fill="black">
<path d="M 134.9 182.8 L 116.7 180.6 L 100.7 177.3 L 87.0 173.1 L 75.5 167.9 L 66.4 161.6 L 59.8 154.2 L 56.0 145.9 L 55.386426734924314 139.83244218826295 L 52.6 147.7 L 48.2 156.6 L 43.0 164.8 L 36.9 172.1 L 29.9 178.6 L 22.1 184.1 L 13.4 188.7 L 12.5 187.2 L 19.8 181.1 L 26.2 174.7 L 31.9 167.9 L 36.7 160.6 L 40.7 152.8 L 43.9 144.4 L 46.3 135.5 L 48.0 126.0 L 48.9 115.8 L 49.0 105.0 L 49.0 102.6 L 61.0 105.0 L 64.0 107.0 L 60.72905521392822 108.96256685256958 L 60.2 116.7 L 58.6 127.7 L 56.29154930114746 136.93380279541014 L 56.9 136.9 L 59.9 144.3 L 64.5 150.5 L 70.9 155.8 L 79.3 160.4 L 90.0 164.3 L 100.0 166.70310077667236 L 100.0 87.0 L 112.0 89.0 L 115.0 91.0 L 112.0 92.8 L 112.0 119.0 L 159.0 119.0 L 169.0 109.0 L 181.0 119.0 L 181.0 123.0 L 112.0 123.0 L 112.0 168.708496761322 L 118.2 169.6 L 135.7 171.1 L 155.6 171.6 L 177.8 171.4 L 189.5 171.2 L 178.1 184.5 L 155.3 184.2 Z M 92.0 69.0 L 89.7 66.8 L 87.1 64.6 L 84.1 62.2 L 80.8 59.8 L 77.2 57.3 L 69.1 51.9 L 64.71181182861328 49.32432432174683 L 60.2 57.1 L 54.9 64.8 L 49.2 72.0 L 43.0 78.6 L 36.3 84.6 L 29.1 90.0 L 21.5 94.7 L 20.4 93.2 L 26.7 87.1 L 32.6 80.7 L 38.1 74.2 L 43.2 67.3 L 47.9 60.1 L 52.1 52.5 L 55.9 44.5 L 59.3 36.2 L 62.3 27.4 L 64.64050340652466 19.20823802947998 L 64.6 19.2 L 65.4 16.6 L 76.4 21.6 L 78.8 24.3 L 75.14086799621582 25.262929439544678 L 73.1 31.2 L 69.2 40.3 L 65.58630294799805 47.61143350601196 L 70.4 49.0 L 75.3 50.4 L 79.9 52.0 L 84.2 53.6 L 88.2 55.3 L 91.9 57.0 L 95.3 58.8 L 98.5 60.7 L 101.4 62.6 L 104.1 64.6 L 105.8 68.8 L 104.1 73.1 L 99.8 74.8 L 95.6 73.1 L 94.0 71.1 Z M 169.2 73.0 L 166.2 69.8 L 162.9 66.6 L 159.4 63.4 L 155.7 60.2 L 151.7 57.1 L 147.5 53.9 L 143.1 50.6 L 141.8488510131836 49.67523775100708 L 138.7 54.7 L 133.3 61.8 L 127.2 68.3 L 120.4 74.1 L 113.1 79.4 L 105.0 83.9 L 96.4 87.7 L 95.5 86.2 L 103.0 80.7 L 109.9 75.1 L 116.1 69.2 L 121.6 63.1 L 126.5 56.6 L 130.8 49.8 L 134.5 42.6 L 137.6 35.0 L 140.0 27.0 L 141.78823528289794 19.18823528289795 L 142.3 16.8 L 153.6 21.2 L 156.1 23.8 L 152.4688145637512 25.054409503936768 L 150.9 30.4 L 147.5 39.0 L 143.5410852432251 46.91782941818237 L 144.8 47.3 L 150.1 49.2 L 155.1 51.5 L 159.9 54.0 L 164.4 56.6 L 168.7 59.3 L 172.8 62.2 L 176.6 65.3 L 180.2 68.5 L 183.6 71.8 L 184.9 76.2 L 182.9 80.2 L 178.5 81.6 L 174.4 79.5 L 171.9 76.2 Z " />
</g>
</svg>
