<svg xmlns="http://www.w3.org/2000/svg" xmlns:xlink="http://www.w3.org/1999/xlink" version="1.1" baseProfile="full" viewBox="0 0 200 200" width="200" height="200">
<g fill="black">
<path d="M 26.0 170.0 L 66.0 170.0 L 66.0 88.0 L 26.0 88.0 L 26.0 84.0 L 66.0 84.0 L 66.0 19.0 L 78.0 21.0 L 81.0 23.0 L 78.0 24.8 L 78.0 84.0 L 118.0 84.0 L 118.0 19.0 L 130.0 21.0 L 133.0 23.0 L 130.0 24.8 L 130.0 84.0 L 162.0 84.0 L 168.0 79.0 L 179.0 88.0 L 174.0 92.0 L 174.0 178.0 L 162.0 184.0 L 162.0 174.0 L 26.0 174.0 Z M 78.0 88.0 L 78.0 170.0 L 118.0 170.0 L 118.0 88.0 Z M 130.0 88.0 L 130.0 170.0 L 162.0 170.0 L 162.0 88.0 Z " />
</g>
</svg>
