<svg xmlns="http://www.w3.org/2000/svg" xmlns:xlink="http://www.w3.org/1999/xlink" version="1.1" baseProfile="full" viewBox="0 0 200 200" width="200" height="200">
<g fill="black">
<path d="M 120.1 172.7 L 141.3 172.7 L 142.2 172.5 L 142.8 172.3 L 143.1 172.1 L 143.3 172.0 L 143.5 171.8 L 143.7 171.5 L 143.8 170.9 L 144.0 170.0 L 144.1 168.7 L 144.1 136.83734941482544 L 136.5 140.5 L 128.3 144.2 L 120.1 147.6 L 111.9 150.6 L 103.8 153.4 L 95.7 156.0 L 87.7 158.4 L 79.8 160.5 L 72.0 162.5 L 68.2281847000122 163.32206230163575 L 66.7 166.8 L 64.2 164.2 L 60.2 152.7 L 62.1 152.4 L 69.8 151.3 L 77.5 150.0 L 85.4 148.6 L 93.4 147.0 L 101.5 145.2 L 109.7 143.3 L 118.1 141.3 L 126.6 139.1 L 135.3 137.0 L 144.1 134.8 L 144.1 108.9 L 58.8 108.9 L 58.8 136.5 L 58.669565200805664 136.6956521987915 L 58.8 136.7 L 58.1 143.4 L 57.1 149.7 L 55.7 155.7 L 53.8 161.2 L 51.6 166.4 L 49.0 171.1 L 46.0 175.3 L 42.7 179.0 L 38.9 182.1 L 34.7 184.5 L 33.6 183.1 L 36.2 179.4 L 38.5 175.6 L 40.5 171.8 L 42.3 167.6 L 43.7 163.2 L 44.9 158.5 L 45.9 153.5 L 46.5 148.1 L 46.8 142.4 L 46.8 98.9 L 58.8 104.9 L 144.1 104.9 L 150.1 99.9 L 161.1 108.9 L 156.1 112.9 L 156.1 168.7 L 155.9 171.3 L 155.5 173.8 L 154.7 176.2 L 153.5 178.5 L 151.8 180.5 L 149.8 182.1 L 147.5 183.4 L 145.1 184.2 L 142.6 184.6 L 140.1 184.7 L 140.1 178.7 L 120.1 175.7 Z M 103.1 135.1 L 100.1 133.6 L 96.4 132.2 L 92.0 130.7 L 87.0 129.2 L 81.2 127.8 L 74.9 126.4 L 67.9 124.8 L 60.3 123.1 L 60.4 121.3 L 68.3 121.0 L 75.5 121.0 L 82.2 121.3 L 88.3 121.8 L 93.8 122.4 L 98.8 123.2 L 103.3 124.1 L 107.2 125.2 L 110.8 126.5 L 113.9 128.2 L 116.2 132.2 L 115.1 136.6 L 111.1 138.9 L 106.6 137.7 L 105.3 136.5 Z M 39.8 88.8 L 105.6 88.8 L 105.6 60.6 L 65.67948713302613 60.6 L 63.5 63.1 L 55.7 70.3 L 47.0 77.0 L 37.3 83.1 L 26.6 88.6 L 14.9 93.5 L 14.2 91.9 L 24.8 85.3 L 34.4 78.6 L 43.0 71.8 L 50.6 64.7 L 57.2 57.4 L 62.8 49.9 L 67.4 42.1 L 69.2 38.1 L 22.3 38.1 L 22.3 34.1 L 71.0 34.1 L 73.7 25.8 L 75.20450954437256 18.10045099258423 L 75.2 18.1 L 75.28275861740113 17.7 L 75.4 17.1 L 75.40664043426514 17.10123805999756 L 75.8 15.2 L 87.2 19.3 L 89.8 21.8 L 86.15706825256348 23.190937519073486 L 84.6 29.0 L 82.51612901687622 34.1 L 156.5 34.1 L 166.5 24.1 L 178.5 34.1 L 178.5 38.1 L 80.88172044754029 38.1 L 80.8 38.3 L 76.1 47.1 L 70.3 55.3 L 69.16666669845581 56.6 L 142.9 56.6 L 152.9 46.6 L 164.9 56.6 L 164.9 60.6 L 117.6 60.6 L 117.6 88.8 L 165.11818180084228 88.8 L 173.3 79.8 L 183.3 88.8 L 183.3 92.8 L 39.8 92.8 Z " />
</g>
</svg>
