<svg xmlns="http://www.w3.org/2000/svg" xmlns:xlink="http://www.w3.org/1999/xlink" version="1.1" baseProfile="full" viewBox="0 0 200 200" width="200" height="200">
<g fill="black">
<path d="M 106.0 13.9 L 109.0 15.9 L 106.0 17.7 L 106.0 47.5 L 144.6 47.5 L 150.6 42.5 L 161.6 51.5 L 156.6 55.5 L 156.6 81.6 L 159.8 81.6 L 169.8 71.6 L 181.8 81.6 L 181.8 85.6 L 156.6 85.6 L 156.6 127.9 L 144.6 133.9 L 144.6 121.9 L 106.0 121.9 L 106.0 182.0 L 94.0 188.0 L 94.0 121.9 L 40.2 121.9 L 40.2 117.9 L 94.0 117.9 L 94.0 85.6 L 21.8 85.6 L 21.8 81.6 L 94.0 81.6 L 94.0 51.5 L 42.0 51.5 L 42.0 47.5 L 94.0 47.5 L 94.0 11.9 Z M 106.0 85.6 L 106.0 117.9 L 144.6 117.9 L 144.6 85.6 Z M 106.0 51.5 L 106.0 81.6 L 144.6 81.6 L 144.6 51.5 Z " />
</g>
</svg>
