<svg xmlns="http://www.w3.org/2000/svg" xmlns:xlink="http://www.w3.org/1999/xlink" version="1.1" baseProfile="full" viewBox="0 0 200 200" width="200" height="200">
<g fill="black">
<path d="M 107.0 16.0 L 110.0 18.0 L 107.0 19.8 L 107.0 183.0 L 95.0 189.0 L 95.0 14.0 Z M 18.0 143.2 L 21.7 141.6 L 25.9 139.7 L 30.7 137.5 L 36.2 135.1 L 42.2 132.3 L 48.8 129.3 L 56.0 126.1 L 63.8 122.6 L 72.3 118.9 L 81.5 115.2 L 82.4 116.7 L 74.1 122.3 L 66.4 127.3 L 59.1 131.9 L 52.4 136.0 L 46.2 139.8 L 40.5 143.3 L 35.5 146.4 L 31.0 149.2 L 27.190265464782716 151.4858407020569 L 26.8 155.5 L 23.6 153.8 L 16.3 144.1 Z M 168.8 141.6 L 165.4 138.3 L 161.2 135.0 L 156.3 131.6 L 150.6 128.2 L 144.1 124.8 L 137.0 121.4 L 129.2 117.8 L 120.7 114.1 L 121.2 112.4 L 130.4 114.2 L 138.9 116.4 L 146.7 118.8 L 153.8 121.4 L 160.3 124.2 L 166.2 127.1 L 171.4 130.3 L 176.0 133.6 L 180.0 137.2 L 183.3 141.2 L 184.1 145.7 L 181.6 149.5 L 177.1 150.2 L 173.3 147.7 L 171.4 144.7 Z M 65.4 73.4 L 62.8 70.7 L 59.4 67.8 L 55.3 64.8 L 50.3 61.7 L 44.7 58.5 L 38.4 55.3 L 31.3 51.8 L 23.6 48.1 L 24.2 46.4 L 32.6 48.2 L 40.3 50.3 L 47.3 52.5 L 53.7 54.9 L 59.4 57.4 L 64.5 60.0 L 69.0 62.8 L 72.9 65.8 L 76.2 69.0 L 78.8 72.5 L 79.2 77.0 L 76.4 80.6 L 71.8 81.0 L 68.2 78.1 L 67.2 75.9 Z M 178.77975463867188 49.81472396850586 L 180.9 52.2 L 181.0 55.8 L 177.48911542892455 54.304623222351076 L 175.7 55.4 L 170.7 58.2 L 165.4 61.0 L 160.0 63.8 L 154.3 66.6 L 148.4 69.2 L 142.3 71.8 L 135.9 74.3 L 129.3 76.7 L 122.3 78.8 L 121.6 77.1 L 127.6 73.2 L 133.5 69.5 L 139.3 66.0 L 144.8 62.5 L 150.2 59.1 L 155.3 55.8 L 160.3 52.4 L 165.0 49.1 L 169.4 45.9 L 172.90711097717286 43.20849618911743 L 172.9 43.2 L 172.90737323760987 43.20829496383667 L 173.7 42.6 Z " />
</g>
</svg>
