<svg xmlns="http://www.w3.org/2000/svg" xmlns:xlink="http://www.w3.org/1999/xlink" version="1.1" baseProfile="full" viewBox="0 0 200 200" width="200" height="200">
<g fill="black">
<path d="M 158.6 182.1 L 156.7 183.5 L 154.7 184.7 L 152.5 185.7 L 150.3 186.5 L 148.1 187.1 L 145.7 187.6 L 143.4 187.9 L 141.0 188.0 L 141.0 182.0 L 121.0 179.0 L 121.0 176.0 L 141.0 176.0 L 142.5 175.9 L 145.3 175.5 L 146.6 175.1 L 149.0 174.1 L 150.2 173.4 L 151.3 172.6 L 152.5 171.6 L 153.6 170.6 L 156.3 166.8 L 159.1 161.0 L 161.7 153.1 L 164.0 143.3 L 166.0 131.6 L 167.6 117.9 L 168.8 102.5 L 169.6 85.1 L 169.9 66.0 L 169.99047622680663 47.0 L 58.35 47.0 L 53.5 56.7 L 48.1 66.2 L 42.2 75.6 L 35.9 84.7 L 29.0 93.6 L 21.6 102.2 L 13.6 110.5 L 12.3 109.4 L 18.6 99.9 L 24.7 90.5 L 30.4 81.1 L 35.7 71.7 L 40.7 62.2 L 45.2 52.6 L 49.2 42.9 L 52.9 33.1 L 56.1 23.2 L 58.61892242431641 14.20384864807129 L 58.6 14.2 L 58.8222222328186 13.477777767181397 L 58.9 13.2 L 58.907050895690915 13.202084636688232 L 59.4 11.6 L 70.4 16.6 L 72.8 19.3 L 69.15673398971558 20.25875425338745 L 66.9 26.9 L 62.9 37.0 L 60.172727298736575 43.0 L 170.0 43.0 L 176.0 38.0 L 187.0 47.0 L 182.0 50.0 L 181.9 50.04166669845581 L 181.9 66.1 L 181.5 85.5 L 180.7 103.2 L 179.5 119.1 L 177.9 133.2 L 175.8 145.6 L 173.3 156.4 L 170.3 165.4 L 166.7 172.9 L 162.2 178.9 L 160.5 180.6 Z M 137.3 154.6 L 135.5 151.2 L 134.49864864349365 149.4081081390381 L 127.4 150.8 L 117.3 152.6 L 107.3 154.1 L 97.4 155.5 L 87.6 156.8 L 77.9 158.0 L 68.3 159.2 L 58.9 160.3 L 49.5 161.3 L 44.38353290557861 161.85613775253296 L 42.5 165.1 L 40.3 162.3 L 37.5 150.4 L 39.5 150.3 L 48.7 149.9 L 58.1 149.6 L 67.5 149.2 L 77.1 148.8 L 88.0 148.35510206222534 L 88.0 116.8 L 58.5 116.8 L 58.5 128.8 L 46.5 134.8 L 46.5 72.3 L 58.5 78.3 L 88.0 78.3 L 88.0 51.4 L 100.0 53.4 L 103.0 55.4 L 100.0 57.2 L 100.0 78.3 L 129.4 78.3 L 135.4 73.3 L 146.4 82.3 L 141.4 86.3 L 141.4 116.8 L 129.4 122.8 L 129.4 116.8 L 100.0 116.8 L 100.0 147.86800003051758 L 106.7 147.6 L 116.8 147.2 L 127.0 147.0 L 133.105882358551 147.0 L 131.5 144.4 L 129.3 141.1 L 124.3 134.5 L 121.6 131.1 L 118.7 127.8 L 119.8 126.4 L 123.7 128.6 L 127.5 130.9 L 131.1 133.5 L 134.5 136.3 L 137.7 139.3 L 140.8 142.4 L 143.6 145.6 L 146.3 149.0 L 148.8 152.5 L 151.1 156.2 L 151.3 160.8 L 148.3 164.2 L 143.7 164.5 L 140.3 161.5 L 138.9 158.0 Z M 58.5 82.3 L 58.5 112.8 L 88.0 112.8 L 88.0 82.3 Z M 100.0 82.3 L 100.0 112.8 L 129.4 112.8 L 129.4 82.3 Z " />
</g>
</svg>
