<svg xmlns="http://www.w3.org/2000/svg" xmlns:xlink="http://www.w3.org/1999/xlink" version="1.1" baseProfile="full" viewBox="0 0 200 200" width="200" height="200">
<g fill="black">
<path d="M 137.0 176.7 L 157.0 176.7 L 158.2 176.6 L 159.1 176.4 L 160.0 176.1 L 160.4 175.7 L 160.7 174.8 L 160.9 173.9 L 161.0 172.7 L 161.0 134.0 L 128.0 134.0 L 128.0 175.1 L 116.0 181.1 L 116.0 134.0 L 84.0 134.0 L 84.0 175.1 L 72.0 181.1 L 72.0 134.0 L 39.0 134.0 L 39.0 181.6 L 27.0 187.6 L 27.0 79.1 L 39.0 85.1 L 161.0 85.1 L 167.0 80.1 L 178.0 89.1 L 173.0 93.1 L 173.0 172.7 L 172.8 175.2 L 172.4 177.7 L 171.6 180.1 L 170.3 182.4 L 168.7 184.4 L 166.7 186.0 L 164.4 187.3 L 162.0 188.1 L 159.5 188.5 L 157.0 188.7 L 157.0 182.7 L 137.0 179.7 Z M 39.0 89.1 L 39.0 130.0 L 72.0 130.0 L 72.0 89.1 Z M 84.0 89.1 L 84.0 130.0 L 116.0 130.0 L 116.0 89.1 Z M 128.0 89.1 L 128.0 130.0 L 161.0 130.0 L 161.0 89.1 Z M 54.9 25.6 L 145.0 25.6 L 151.0 20.6 L 162.0 29.6 L 157.0 33.6 L 157.0 68.3 L 145.0 74.3 L 145.0 66.3 L 54.9 66.3 L 54.9 69.3 L 42.9 75.3 L 42.9 19.6 Z M 54.9 29.6 L 54.9 62.3 L 145.0 62.3 L 145.0 29.6 Z " />
</g>
</svg>
