<svg xmlns="http://www.w3.org/2000/svg" xmlns:xlink="http://www.w3.org/1999/xlink" version="1.1" baseProfile="full" viewBox="0 0 200 200" width="200" height="200">
<g fill="black">
<path d="M 48.9 150.2 L 48.1 155.3 L 46.7 160.2 L 44.8 164.7 L 42.3 169.0 L 39.3 172.9 L 35.8 176.4 L 31.9 179.6 L 27.5 182.4 L 22.6 184.7 L 17.4 186.7 L 16.5 185.2 L 20.8 181.8 L 24.5 178.3 L 27.7 174.9 L 30.4 171.5 L 32.6 168.0 L 34.3 164.5 L 35.6 161.0 L 36.5 157.3 L 36.9 153.6 L 37.0 149.7 L 37.0 133.0 L 16.0 133.0 L 16.0 129.0 L 77.0 129.0 L 77.0 112.0 L 43.0 112.0 L 43.0 115.0 L 31.0 121.0 L 31.0 33.0 L 43.0 35.0 L 46.0 37.0 L 43.0 38.8 L 43.0 108.0 L 77.0 108.0 L 83.0 103.0 L 94.0 112.0 L 89.0 116.0 L 89.0 182.0 L 77.0 188.0 L 77.0 133.0 L 49.0 133.0 L 49.0 150.0 L 48.86757497787475 150.19863758087158 Z M 168.0 35.0 L 171.0 37.0 L 168.0 38.8 L 168.0 114.0 L 156.0 120.0 L 156.0 112.0 L 123.0 112.0 L 123.0 129.0 L 163.0 129.0 L 173.0 119.0 L 185.0 129.0 L 185.0 133.0 L 164.0 133.0 L 164.0 180.0 L 152.0 186.0 L 152.0 133.0 L 123.0 133.0 L 123.0 182.0 L 111.0 188.0 L 111.0 102.0 L 123.0 108.0 L 156.0 108.0 L 156.0 33.0 Z " />
</g>
</svg>
