<svg xmlns="http://www.w3.org/2000/svg" xmlns:xlink="http://www.w3.org/1999/xlink" version="1.1" baseProfile="full" viewBox="0 0 200 200" width="200" height="200">
<g fill="black">
<path d="M 155.6 163.2 L 145.8 151.6 L 138.97746829986573 141.71909208297728 L 127.9 146.3 L 114.7 151.4 L 101.7 156.3 L 89.0 161.0 L 76.5 165.4 L 64.2 169.7 L 52.2 173.9 L 40.4 177.9 L 28.9 181.7 L 21.487393188476563 184.1271367073059 L 20.4 187.7 L 17.6 185.4 L 12.3 174.5 L 14.2 173.9 L 25.6 170.8 L 37.3 167.6 L 48.0 164.63277311325072 L 48.0 44.0 L 59.46086959838867 49.730434799194335 L 66.2 48.1 L 78.3 45.2 L 89.9 42.1 L 101.2 38.9 L 112.0 35.5 L 122.5 31.9 L 132.6 28.0 L 142.2 23.9 L 151.5 19.6 L 160.4 15.0 L 161.65864944458008 17.564795112609865 L 168.7 24.3 L 168.9 27.5 L 165.2439538002014 26.001620388031007 L 156.2 30.0 L 146.3 33.8 L 136.0 37.4 L 125.4 40.7 L 114.4 43.6 L 109.48787908554077 44.77369260787964 L 113.4 60.6 L 118.3 77.3 L 124.0 92.9 L 130.4 107.5 L 137.6 121.0 L 145.6 133.4 L 154.4 144.7 L 164.0 155.0 L 174.5 164.3 L 185.7 172.5 L 189.2 174.9 L 178.2 183.4 L 166.4 173.8 Z M 103.1 46.3 L 91.4 48.5 L 79.3 50.4 L 66.9 51.9 L 60.0 52.38515625 L 60.0 161.29016389846802 L 61.4 160.9 L 73.9 157.3 L 86.7 153.7 L 99.7 150.1 L 113.0 146.3 L 126.7 142.7 L 137.70144424438476 139.87105722427367 L 137.1 139.0 L 129.4 125.4 L 122.7 110.9 L 117.2 95.4 L 112.6 78.9 L 109.3 61.5 L 107.44668292999268 45.26141204833984 Z " />
</g>
</svg>
