<svg xmlns="http://www.w3.org/2000/svg" xmlns:xlink="http://www.w3.org/1999/xlink" version="1.1" baseProfile="full" viewBox="0 0 200 200" width="200" height="200">
<g fill="black">
<path d="M 136.0 161.0 L 148.0 161.0 L 149.2 160.9 L 150.1 160.7 L 151.0 160.4 L 151.4 160.0 L 151.7 159.1 L 151.9 158.2 L 152.0 157.0 L 152.0 114.0 L 106.0 114.0 L 106.0 182.0 L 94.0 188.0 L 94.0 114.0 L 48.0 114.0 L 48.0 167.0 L 36.0 173.0 L 36.0 104.0 L 48.0 110.0 L 94.0 110.0 L 94.0 85.0 L 19.0 85.0 L 19.0 81.0 L 94.0 81.0 L 94.0 48.0 L 51.60943393707275 48.0 L 49.7 50.3 L 44.9 55.4 L 39.9 60.3 L 34.5 65.0 L 28.7 69.5 L 22.5 73.6 L 21.4 72.3 L 26.1 66.7 L 30.7 61.2 L 35.0 55.9 L 39.2 50.5 L 43.0 45.1 L 46.6 39.6 L 49.9 34.1 L 52.9 28.6 L 55.6 23.0 L 57.70452547073364 18.201681995391844 L 57.7 18.2 L 57.90769233703613 17.7384614944458 L 58.1 17.3 L 58.10413036346436 17.301932525634765 L 58.6 16.2 L 69.0 22.4 L 70.8 25.5 L 67.04906949996948 25.888027286529542 L 65.7 28.3 L 62.1 34.0 L 58.3 39.6 L 54.8777777671814 44.0 L 94.0 44.0 L 94.0 14.0 L 106.0 16.0 L 109.0 18.0 L 106.0 19.8 L 106.0 44.0 L 146.0 44.0 L 156.0 34.0 L 168.0 44.0 L 168.0 48.0 L 106.0 48.0 L 106.0 81.0 L 159.0 81.0 L 169.0 71.0 L 181.0 81.0 L 181.0 85.0 L 106.0 85.0 L 106.0 110.0 L 152.0 110.0 L 158.0 105.0 L 169.0 114.0 L 164.0 118.0 L 164.0 157.0 L 163.8 159.5 L 163.4 162.0 L 162.6 164.4 L 161.3 166.7 L 159.7 168.7 L 157.7 170.3 L 155.4 171.6 L 153.0 172.4 L 150.5 172.8 L 148.0 173.0 L 148.0 167.0 L 136.0 164.0 Z " />
</g>
</svg>
