<svg xmlns="http://www.w3.org/2000/svg" xmlns:xlink="http://www.w3.org/1999/xlink" version="1.1" baseProfile="full" viewBox="0 0 200 200" width="200" height="200">
<g fill="black">
<path d="M 50.0 100.0 L 50.0 103.0 L 38.0 109.0 L 38.0 64.0 L 50.0 70.0 L 94.0 70.0 L 94.0 56.0 L 75.0 56.0 L 63.0 62.0 L 63.0 35.0 L 13.0 35.0 L 13.0 31.0 L 63.0 31.0 L 63.0 12.0 L 75.0 14.0 L 78.0 16.0 L 75.0 17.8 L 75.0 31.0 L 125.0 31.0 L 125.0 12.0 L 137.0 14.0 L 140.0 16.0 L 137.0 17.8 L 137.0 31.0 L 165.0 31.0 L 175.0 21.0 L 187.0 31.0 L 187.0 35.0 L 137.0 35.0 L 137.0 56.0 L 125.0 62.0 L 125.0 56.0 L 106.0 56.0 L 109.0 58.0 L 106.0 59.8 L 106.0 70.0 L 150.0 70.0 L 156.0 65.0 L 167.0 74.0 L 162.0 78.0 L 162.0 102.0 L 150.0 108.0 L 150.0 100.0 L 106.0 100.0 L 106.0 114.0 L 105.69767446517945 117.0 L 151.8181818008423 117.0 L 160.0 108.0 L 170.0 117.0 L 170.0 121.0 L 105.29457368850709 121.0 L 104.7 126.9 L 101.78389825820923 138.0 L 160.0 138.0 L 170.0 128.0 L 182.0 138.0 L 182.0 142.0 L 100.0579439163208 142.0 L 96.6 149.4 L 89.8 158.8 L 81.2 166.9 L 71.0 173.7 L 59.1 179.2 L 45.7 183.4 L 30.7 186.3 L 14.1 187.8 L 13.8 186.1 L 29.9 182.6 L 44.1 178.3 L 56.5 173.2 L 67.0 167.2 L 75.7 160.5 L 82.6 152.9 L 87.8 144.6 L 88.81739130020142 142.0 L 18.0 142.0 L 18.0 138.0 L 90.38260869979858 138.0 L 91.4 135.4 L 93.5 125.2 L 93.6875 121.0 L 30.0 121.0 L 30.0 117.0 L 93.86607141494751 117.0 L 94.0 114.0 L 94.0 100.0 Z M 161.9 176.2 L 156.6 172.9 L 150.8 169.6 L 144.5 166.5 L 137.7 163.4 L 130.4 160.3 L 122.6 157.3 L 114.4 154.2 L 105.7 151.1 L 106.1 149.3 L 115.4 150.6 L 124.1 152.2 L 132.4 154.1 L 140.3 156.3 L 147.7 158.6 L 154.7 161.2 L 161.2 163.9 L 167.3 166.9 L 173.0 170.0 L 178.2 173.4 L 180.4 177.3 L 179.3 181.8 L 175.4 184.0 L 170.9 182.9 L 166.7 179.5 Z M 50.0 74.0 L 50.0 96.0 L 94.0 96.0 L 94.0 74.0 Z M 106.0 74.0 L 106.0 96.0 L 150.0 96.0 L 150.0 74.0 Z M 75.0 35.0 L 75.0 52.0 L 125.0 52.0 L 125.0 35.0 Z " />
</g>
</svg>
