<svg xmlns="http://www.w3.org/2000/svg" xmlns:xlink="http://www.w3.org/1999/xlink" version="1.1" baseProfile="full" viewBox="0 0 200 200" width="200" height="200">
<g fill="black">
<path d="M 80.4 50.6 L 82.8 53.3 L 79.1705512046814 54.25511808395386 L 76.7 61.6 L 72.4 72.2 L 67.7 82.6 L 65.38888893127441 87.0 L 162.0 87.0 L 162.45348834991455 86.62209300994873 L 162.5 86.5 L 162.5649582862854 86.52920141220093 L 168.0 82.0 L 179.0 91.0 L 174.0 94.0 L 170.79359998703003 95.33599996566772 L 169.5 97.1 L 166.9 100.4 L 163.9 104.2 L 160.3 108.3 L 156.3 112.8 L 151.8 117.7 L 146.7 123.0 L 141.0 128.6 L 134.6 134.5 L 133.3 133.4 L 142.5 119.6 L 146.6 113.6 L 150.3 108.1 L 153.6 103.1 L 156.3 98.7 L 158.6 94.8 L 160.4 91.4 L 160.58571424484253 91.0 L 63.287878799438474 91.0 L 62.5 92.5 L 56.8 102.1 L 50.6 111.3 L 43.9 120.0 L 36.7 128.4 L 28.9 136.3 L 20.6 143.6 L 19.3 142.3 L 26.1 133.7 L 32.5 125.0 L 38.6 116.2 L 44.2 107.1 L 49.5 97.8 L 54.2 88.2 L 58.6 78.4 L 62.5 68.3 L 65.9 57.9 L 68.64281826019287 48.20870876312256 L 68.6 48.2 L 69.4 45.6 Z " />
</g>
</svg>
