<svg xmlns="http://www.w3.org/2000/svg" xmlns:xlink="http://www.w3.org/1999/xlink" version="1.1" baseProfile="full" viewBox="0 0 200 200" width="200" height="200">
<g fill="black">
<path d="M 52.0 102.9 L 57.0 102.4 L 58.5455662727356 102.1996488571167 L 60.9 94.8 L 63.6 86.2 L 66.2 77.8 L 68.6 69.4 L 70.9 61.2 L 72.9 53.0 L 74.7 44.9 L 76.3 36.8 L 77.7 28.8 L 78.74750003814697 21.903958320617676 L 78.7 21.9 L 79.2 19.0 L 90.7 22.9 L 93.3 25.4 L 89.85733337402344 26.73881483078003 L 88.9 31.1 L 86.8 39.2 L 84.4 47.4 L 81.8 55.5 L 79.0 63.7 L 75.8 71.9 L 72.3 80.1 L 68.6 88.2 L 64.4 96.3 L 61.20600299835205 101.85477743148803 L 62.4 101.7 L 68.2 101.0 L 74.4 100.2 L 81.1 99.3 L 88.2 98.3 L 95.7 97.2 L 103.6 96.1 L 111.9 95.0 L 120.8 94.1 L 121.07437601089478 95.65479755401611 L 124.9 85.4 L 130.3 64.5 L 134.0 41.9 L 135.9 17.6 L 135.93119316101075 17.601819610595705 L 136.0 15.4 L 147.9 18.3 L 150.8 20.4 L 147.4819128036499 22.18666229248047 L 145.2 43.4 L 140.8 66.9 L 134.4 88.6 L 126.2 108.5 L 116.1 126.7 L 104.1 143.0 L 90.3 157.4 L 74.8 169.9 L 57.4 180.3 L 38.3 188.8 L 37.6 187.1 L 55.5 177.0 L 71.5 165.6 L 85.8 152.6 L 98.2 138.2 L 108.8 122.2 L 117.7 104.7 L 121.00824775695801 95.83205795288086 L 112.8 98.7 L 104.7 101.3 L 97.0 103.6 L 89.7 105.7 L 82.8 107.6 L 76.2 109.3 L 70.1 110.9 L 64.3 112.3 L 58.9 113.6 L 57.93030300140381 113.81333332061767 L 56.3 117.4 L 53.9 114.7 L 50.0 103.2 Z " />
</g>
</svg>
