<svg xmlns="http://www.w3.org/2000/svg" xmlns:xlink="http://www.w3.org/1999/xlink" version="1.1" baseProfile="full" viewBox="0 0 200 200" width="200" height="200">
<g fill="black">
<path d="M 151.3 49.2 L 153.6 52.0 L 149.93023433685303 52.83696413040161 L 148.4 56.9 L 145.3 64.8 L 142.0 72.7 L 138.5 80.7 L 134.8 88.7 L 130.9 96.8 L 126.8 105.0 L 122.5 113.2 L 117.8 121.4 L 114.219753074646 127.2 L 166.0 127.2 L 176.0 117.2 L 188.0 127.2 L 188.0 131.2 L 12.0 131.2 L 12.0 127.2 L 111.68021974563598 127.2 L 114.4 119.7 L 117.6 110.9 L 120.8 102.3 L 123.9 93.8 L 126.9 85.5 L 129.8 77.2 L 132.6 69.1 L 135.2 61.1 L 137.6 53.2 L 139.60479021072388 46.40114641189575 L 139.6 46.4 L 139.6653060913086 46.19591836929321 L 139.9 45.4 L 139.91807231903076 45.406024074554445 L 140.4 43.9 Z M 63.7 97.0 L 62.0 91.3 L 60.0 85.5 L 57.8 79.6 L 55.4 73.5 L 52.7 67.3 L 49.8 61.0 L 46.8 54.5 L 43.7 47.7 L 45.2 46.7 L 50.1 52.5 L 54.5 58.3 L 58.5 64.2 L 62.1 70.1 L 65.5 76.0 L 68.6 81.8 L 71.3 87.7 L 73.8 93.5 L 76.1 99.2 L 78.0 104.9 L 77.3 109.4 L 73.7 112.3 L 69.2 111.6 L 66.4 108.0 L 65.2 102.5 Z " />
</g>
</svg>
