<svg xmlns="http://www.w3.org/2000/svg" xmlns:xlink="http://www.w3.org/1999/xlink" version="1.1" baseProfile="full" viewBox="0 0 200 200" width="200" height="200">
<g fill="black">
<path d="M 53.0 181.0 L 41.0 187.0 L 41.0 73.0 L 53.0 79.0 L 94.0 79.0 L 94.0 53.0 L 20.0 53.0 L 20.0 49.0 L 94.0 49.0 L 94.0 15.0 L 106.0 17.0 L 109.0 19.0 L 106.0 20.8 L 106.0 49.0 L 160.0 49.0 L 170.0 39.0 L 182.0 49.0 L 182.0 53.0 L 106.0 53.0 L 106.0 79.0 L 147.0 79.0 L 153.0 74.0 L 164.0 83.0 L 159.0 87.0 L 159.0 175.0 L 147.0 181.0 L 147.0 169.0 L 53.0 169.0 Z M 53.0 124.0 L 53.0 165.0 L 94.0 165.0 L 94.0 124.0 Z M 106.0 124.0 L 106.0 165.0 L 147.0 165.0 L 147.0 124.0 Z M 53.0 83.0 L 53.0 120.0 L 94.0 120.0 L 94.0 83.0 Z M 106.0 83.0 L 106.0 120.0 L 147.0 120.0 L 147.0 83.0 Z " />
</g>
</svg>
