<svg xmlns="http://www.w3.org/2000/svg" xmlns:xlink="http://www.w3.org/1999/xlink" version="1.1" baseProfile="full" viewBox="0 0 200 200" width="200" height="200">
<g fill="black">
<path d="M 14.1 150.9 L 19.9 149.4 L 26.0 147.7 L 32.5 145.8 L 39.3 143.7 L 44.0 142.17746477127076 L 44.0 72.0 L 15.0 72.0 L 15.0 68.0 L 44.0 68.0 L 44.0 17.0 L 56.0 19.0 L 59.0 21.0 L 56.0 22.8 L 56.0 68.0 L 65.0 68.0 L 75.0 58.0 L 87.0 68.0 L 87.0 72.0 L 56.0 72.0 L 56.0 138.3088607788086 L 61.8 136.4 L 70.0 133.7 L 78.6 130.9 L 87.6 128.1 L 88.3 129.8 L 80.0 134.4 L 72.0 138.6 L 64.2 142.5 L 56.7 146.0 L 49.5 149.3 L 42.5 152.4 L 35.9 155.2 L 29.5 157.8 L 23.4 160.2 L 21.585633850097658 160.90028171539308 L 20.5 164.7 L 17.7 162.4 L 12.2 151.5 Z " />
</g>
</svg>
