<svg xmlns="http://www.w3.org/2000/svg" xmlns:xlink="http://www.w3.org/1999/xlink" version="1.1" baseProfile="full" viewBox="0 0 200 200" width="200" height="200">
<g fill="black">
<path d="M 85.2 130.3 L 86.4 133.7 L 82.66515150070191 133.37803030014038 L 79.6 137.1 L 73.8 143.6 L 67.8 150.0 L 61.5 156.2 L 55.0 162.2 L 48.3 168.0 L 41.3 173.6 L 34.0 178.9 L 26.4 184.0 L 18.5 188.7 L 17.4 187.2 L 24.1 181.0 L 30.6 174.8 L 36.9 168.6 L 43.1 162.4 L 49.1 156.1 L 54.8 149.7 L 60.3 143.3 L 65.6 136.7 L 70.7 130.0 L 74.92465095520019 124.01507778167725 L 74.9 124.0 L 75.2473684310913 123.55789470672607 L 75.5 123.2 L 75.5181393623352 123.21327724456788 L 76.0 122.6 Z M 152.1 168.2 L 148.0 162.1 L 143.7 156.3 L 139.0 150.6 L 134.1 145.2 L 128.8 140.0 L 123.3 135.0 L 117.5 130.1 L 111.4 125.2 L 112.3 123.7 L 119.5 126.9 L 126.4 130.7 L 133.0 134.9 L 139.2 139.6 L 145.1 144.7 L 150.7 150.1 L 155.9 156.0 L 160.9 162.1 L 165.5 168.6 L 169.8 175.5 L 170.2 180.0 L 167.4 183.6 L 162.8 184.0 L 159.2 181.2 L 155.8 174.6 Z " />
</g>
</svg>
