<svg xmlns="http://www.w3.org/2000/svg" xmlns:xlink="http://www.w3.org/1999/xlink" version="1.1" baseProfile="full" viewBox="0 0 200 200" width="200" height="200">
<g fill="black">
<path d="M 107.1 19.1 L 109.2 22.1 L 105.12432432174683 22.732432460784914 L 104.0 24.7 L 102.3 27.5 L 100.5 30.4 L 98.6 33.3 L 96.7 36.3 L 94.6 39.3 L 92.4 42.3 L 90.0 45.2 L 89.425 46.0 L 147.0 46.0 L 153.0 41.0 L 164.0 50.0 L 159.0 54.0 L 159.0 102.0 L 147.0 108.0 L 147.0 96.0 L 55.0 96.0 L 55.0 124.0 L 152.0 124.0 L 158.0 119.0 L 169.0 128.0 L 164.0 132.0 L 164.0 181.0 L 152.0 187.0 L 152.0 177.0 L 55.0 177.0 L 55.0 184.0 L 43.0 190.0 L 43.0 40.0 L 55.0 46.0 L 86.74166669845582 46.0 L 87.5 43.9 L 88.5 40.3 L 89.5 36.8 L 90.6 33.3 L 91.6 30.0 L 92.6 26.8 L 93.5 23.6 L 94.4 20.6 L 95.2 17.6 L 95.73997230529785 15.64260025024414 L 95.6 15.6 L 96.5 13.3 Z M 55.0 128.0 L 55.0 173.0 L 152.0 173.0 L 152.0 128.0 Z M 55.0 50.0 L 55.0 92.0 L 147.0 92.0 L 147.0 50.0 Z " />
</g>
</svg>
