<svg xmlns="http://www.w3.org/2000/svg" xmlns:xlink="http://www.w3.org/1999/xlink" version="1.1" baseProfile="full" viewBox="0 0 200 200" width="200" height="200">
<g fill="black">
<path d="M 51.8 20.2 L 56.4 20.3 L 59.6 23.5 L 62.6 32.7 L 67.1 46.8 L 68.5 51.7 L 69.9 56.5 L 71.2 61.5 L 72.4 66.5 L 73.4 71.7 L 71.7 72.4 L 68.9 67.9 L 66.3 63.5 L 63.8 59.0 L 59.2 50.0 L 57.0 45.5 L 54.8 41.1 L 50.6 32.3 L 48.5 28.0 L 48.6 23.4 Z M 25.8 20.2 L 30.4 20.3 L 33.6 23.5 L 36.6 32.7 L 41.1 46.8 L 42.5 51.7 L 43.9 56.5 L 45.2 61.5 L 46.4 66.5 L 47.4 71.7 L 45.7 72.4 L 42.9 67.9 L 40.3 63.5 L 37.8 59.0 L 33.2 50.0 L 31.0 45.5 L 28.8 41.1 L 24.6 32.3 L 22.5 28.0 L 22.6 23.4 Z " />
</g>
</svg>
