<svg xmlns="http://www.w3.org/2000/svg" xmlns:xlink="http://www.w3.org/1999/xlink" version="1.1" baseProfile="full" viewBox="0 0 200 200" width="200" height="200">
<g fill="black">
<path d="M 137.0 172.0 L 157.0 172.0 L 158.2 171.9 L 159.1 171.7 L 160.0 171.4 L 160.4 171.0 L 160.7 170.1 L 160.9 169.2 L 161.0 168.0 L 161.0 102.0 L 128.0 102.0 L 128.0 168.0 L 116.0 174.0 L 116.0 102.0 L 84.0 102.0 L 84.0 168.0 L 72.0 174.0 L 72.0 102.0 L 39.0 102.0 L 39.0 178.0 L 27.0 184.0 L 27.0 23.0 L 39.0 29.0 L 161.0 29.0 L 167.0 24.0 L 178.0 33.0 L 173.0 37.0 L 173.0 168.0 L 172.8 170.5 L 172.4 173.0 L 171.6 175.4 L 170.3 177.7 L 168.7 179.7 L 166.7 181.3 L 164.4 182.6 L 162.0 183.4 L 159.5 183.8 L 157.0 184.0 L 157.0 178.0 L 137.0 175.0 Z M 39.0 33.0 L 39.0 98.0 L 72.0 98.0 L 72.0 33.0 Z M 84.0 33.0 L 84.0 98.0 L 116.0 98.0 L 116.0 33.0 Z M 128.0 33.0 L 128.0 98.0 L 161.0 98.0 L 161.0 33.0 Z " />
</g>
</svg>
