<svg xmlns="http://www.w3.org/2000/svg" xmlns:xlink="http://www.w3.org/1999/xlink" version="1.1" baseProfile="full" viewBox="0 0 200 200" width="200" height="200">
<g fill="black">
<path d="M 174.0 31.0 L 177.0 33.0 L 174.0 34.8 L 174.0 178.0 L 162.0 184.0 L 162.0 172.0 L 38.0 172.0 L 38.0 184.0 L 26.0 190.0 L 26.0 29.0 L 38.0 31.0 L 41.0 33.0 L 38.0 34.8 L 38.0 168.0 L 162.0 168.0 L 162.0 29.0 Z M 119.7 124.0 L 111.5 112.9 L 103.2 102.3 L 102.1508334159851 101.0699426651001 L 98.9 105.5 L 88.4 118.6 L 77.5 131.0 L 66.1 142.5 L 54.3 153.2 L 41.9 163.0 L 40.8 161.6 L 51.6 150.5 L 62.2 138.8 L 72.5 126.7 L 82.5 113.9 L 92.1 100.5 L 96.26227045059204 94.16611022949219 L 94.5 92.1 L 85.6 82.3 L 76.4 72.9 L 67.0 63.9 L 57.5 55.1 L 47.7 46.6 L 48.7 45.1 L 59.8 52.1 L 70.5 59.8 L 80.9 68.1 L 90.9 76.9 L 100.7 86.3 L 101.13413066864014 86.75240983963013 L 101.3 86.5 L 110.2 71.8 L 118.7 56.5 L 126.9 40.4 L 134.6 23.8 L 134.6234492301941 23.810756587982176 L 135.2 22.6 L 145.5 28.8 L 147.4 31.9 L 143.7399827003479 32.278622436523435 L 137.0 45.6 L 128.1 61.7 L 118.8 77.0 L 109.1 91.6 L 107.66386728286743 93.55708274841308 L 110.2 96.2 L 119.4 106.6 L 128.3 117.5 L 136.9 128.9 L 145.3 140.8 L 146.0 145.3 L 143.5 149.1 L 139.0 149.9 L 135.2 147.3 L 127.6 135.4 Z M 100.8 150.2 L 99.5 147.6 L 98.0 145.1 L 96.4 142.7 L 94.7 140.3 L 92.8 137.9 L 90.8 135.6 L 88.6 133.2 L 86.0 131.2 L 86.9 129.6 L 90.0 130.9 L 93.2 132.1 L 96.2 133.6 L 99.2 135.4 L 101.9 137.3 L 104.6 139.5 L 107.1 141.9 L 109.5 144.5 L 111.7 147.3 L 113.7 150.3 L 114.0 154.9 L 111.0 158.4 L 106.5 158.6 L 103.0 155.7 L 101.9 152.9 Z M 64.3 102.2 L 62.8 99.2 L 61.3 96.4 L 59.6 93.6 L 57.8 90.9 L 55.8 88.2 L 51.6 83.0 L 49.1 80.6 L 50.0 79.1 L 53.2 80.7 L 56.5 82.2 L 59.6 84.1 L 62.6 86.2 L 65.4 88.5 L 68.1 91.0 L 70.7 93.7 L 73.1 96.6 L 75.4 99.8 L 77.6 103.0 L 77.8 107.6 L 74.8 111.1 L 70.3 111.3 L 66.8 108.3 L 65.6 105.2 Z M 136.3 99.2 L 135.1 96.3 L 133.8 93.5 L 132.4 90.9 L 131.0 88.4 L 129.5 86.1 L 127.9 83.8 L 126.2 81.6 L 124.2 79.8 L 125.1 78.2 L 127.7 79.4 L 130.5 80.6 L 133.2 82.1 L 135.9 84.0 L 138.4 86.1 L 140.8 88.6 L 143.1 91.2 L 145.4 94.2 L 147.5 97.3 L 149.5 100.7 L 149.5 105.3 L 146.4 108.6 L 141.8 108.7 L 138.5 105.5 L 137.4 102.3 Z M 96.1 54.9 L 94.5 51.6 L 90.9 45.2 L 88.9 42.1 L 86.8 39.0 L 84.6 36.0 L 82.3 32.9 L 79.8 30.0 L 80.9 28.6 L 84.3 30.6 L 87.8 32.6 L 91.0 34.9 L 94.1 37.5 L 97.1 40.2 L 99.9 43.1 L 102.6 46.3 L 105.1 49.5 L 107.5 53.0 L 109.8 56.6 L 110.0 61.1 L 107.0 64.6 L 102.4 64.8 L 99.0 61.8 L 97.6 58.3 Z " />
</g>
</svg>
