<svg xmlns="http://www.w3.org/2000/svg" xmlns:xlink="http://www.w3.org/1999/xlink" version="1.1" baseProfile="full" viewBox="0 0 200 200" width="200" height="200">
<g fill="black">
<path d="M 65.4 176.8 L 62.9 176.4 L 60.5 175.6 L 58.2 174.3 L 56.2 172.7 L 54.6 170.7 L 53.3 168.4 L 52.5 166.0 L 52.1 163.5 L 52.0 161.0 L 52.0 106.24807691574097 L 49.7 107.0 L 33.7 111.3 L 17.2 114.8 L 16.7 113.1 L 32.6 107.6 L 48.0 101.9 L 52.0 100.23557043075562 L 52.0 24.0 L 64.0 26.0 L 67.0 28.0 L 64.0 29.8 L 64.0 95.19931030273438 L 77.4 89.1 L 91.4 82.1 L 104.9 74.5 L 118.0 66.4 L 130.5 57.8 L 142.7 48.6 L 154.3 39.0 L 154.32816390991212 39.03365030288696 L 154.5 38.9 L 162.0 48.2 L 162.4 51.8 L 158.86842107772827 50.58000001907349 L 149.5 57.7 L 136.6 66.6 L 123.2 74.9 L 109.4 82.6 L 95.1 89.7 L 80.4 96.1 L 65.3 101.9 L 64.0 102.325 L 64.0 162.2 L 64.2 163.1 L 64.5 164.0 L 64.9 164.4 L 65.8 164.7 L 66.7 164.9 L 68.0 165.0 L 163.0 165.0 L 169.0 140.0 L 171.0 140.0 L 169.0 165.0 L 172.6 167.4 L 175.0 171.0 L 172.6 174.6 L 169.0 177.0 L 68.0 177.0 Z " />
</g>
</svg>
