<svg xmlns="http://www.w3.org/2000/svg" xmlns:xlink="http://www.w3.org/1999/xlink" version="1.1" baseProfile="full" viewBox="0 0 200 200" width="200" height="200">
<g fill="black">
<path d="M 40.0 26.0 L 166.0 26.0 L 176.0 16.0 L 188.0 26.0 L 188.0 30.0 L 40.0 30.0 L 40.0 91.0 L 39.4 105.1 L 38.4 118.3 L 37.0 130.6 L 35.0 141.9 L 32.6 152.4 L 29.7 161.9 L 26.2 170.4 L 22.3 177.9 L 17.7 184.3 L 12.6 189.5 L 11.3 188.4 L 14.5 182.3 L 17.5 175.5 L 20.1 168.0 L 22.4 159.7 L 24.3 150.5 L 25.8 140.4 L 27.0 129.4 L 27.7 117.5 L 28.0 104.7 L 28.0 20.0 Z M 166.2 147.6 L 162.2 140.0 L 158.7 132.1 L 155.5 123.9 L 152.8 115.4 L 150.6 106.98260869979859 L 150.6 183.0 L 138.6 189.0 L 138.6 109.37894735336303 L 138.4 109.9 L 134.3 119.3 L 129.9 128.2 L 125.1 136.6 L 120.0 144.4 L 114.5 151.7 L 108.7 158.4 L 102.4 164.3 L 101.0 163.2 L 105.7 156.0 L 110.1 148.6 L 114.4 141.0 L 118.4 132.9 L 122.2 124.5 L 125.8 115.7 L 129.0 106.4 L 132.0 96.7 L 134.8 86.6 L 136.36521739959716 79.4 L 116.5 79.4 L 116.5 75.4 L 138.6 75.4 L 138.6 38.8 L 150.6 40.8 L 153.6 42.8 L 150.6 44.6 L 150.6 75.4 L 160.0 75.4 L 170.0 65.4 L 182.0 75.4 L 182.0 79.4 L 150.6 79.4 L 150.6 84.11428575515747 L 151.6 87.4 L 154.5 96.1 L 157.5 104.5 L 160.7 112.6 L 164.2 120.3 L 167.9 127.7 L 171.9 134.7 L 176.2 141.4 L 180.8 147.7 L 185.7 153.7 L 186.0 154.1 L 175.3 161.9 L 170.5 154.9 Z M 99.2 119.8 L 97.3 116.8 L 95.3 113.9 L 93.3 111.1 L 91.1 108.4 L 87.4 104.02727270126343 L 87.4 183.0 L 75.4 189.0 L 75.4 118.76000003814697 L 74.7 120.5 L 70.9 128.9 L 66.9 136.7 L 62.6 144.2 L 58.0 151.2 L 53.1 157.6 L 47.8 163.4 L 46.4 162.4 L 49.9 155.5 L 53.4 148.4 L 56.8 141.1 L 60.0 133.5 L 63.1 125.5 L 66.0 117.2 L 68.6 108.6 L 71.2 99.5 L 73.5 90.1 L 75.4 81.23333330154419 L 75.4 80.3 L 49.4 80.3 L 49.4 76.3 L 75.4 76.3 L 75.4 39.6 L 87.4 41.6 L 90.4 43.6 L 87.4 45.4 L 87.4 76.3 L 90.6 76.3 L 100.6 66.3 L 112.6 76.3 L 112.6 80.3 L 87.4 80.3 L 87.4 98.79393939971924 L 89.3 99.6 L 92.6 101.4 L 95.7 103.3 L 98.8 105.5 L 101.8 107.9 L 104.7 110.5 L 107.5 113.3 L 110.2 116.3 L 112.8 119.5 L 113.7 124.0 L 111.1 127.8 L 106.7 128.6 L 102.8 126.1 L 101.1 122.9 Z " />
</g>
</svg>
