<svg xmlns="http://www.w3.org/2000/svg" xmlns:xlink="http://www.w3.org/1999/xlink" version="1.1" baseProfile="full" viewBox="0 0 200 200" width="200" height="200">
<g fill="black">
<path d="M 88.3 83.7 L 85.5 88.3 L 82.7 92.8 L 79.7 97.2 L 76.7 101.7 L 73.6 106.2 L 70.3 110.6 L 67.0 114.9 L 63.4 119.2 L 60.20829210281372 122.82301979064941 L 67.8 122.1 L 80.2 120.9 L 92.4 119.7 L 104.3 118.6 L 116.0 117.5 L 127.5 116.5 L 138.8 115.7 L 143.6086220741272 115.43771152496338 L 140.4 111.9 L 136.4 107.7 L 132.2 103.6 L 127.8 99.4 L 123.3 95.2 L 124.3 93.7 L 130.0 96.3 L 135.5 99.3 L 140.6 102.6 L 145.6 106.3 L 150.3 110.2 L 154.8 114.4 L 159.0 118.7 L 163.1 123.4 L 166.9 128.2 L 170.5 133.3 L 171.2 137.8 L 168.5 141.5 L 164.0 142.2 L 160.3 139.5 L 157.5 134.6 L 154.5 129.8 L 151.3 125.1 L 147.9 120.6 L 145.66455698013306 117.86779184341431 L 139.3 119.4 L 128.2 121.8 L 116.9 124.0 L 105.3 126.1 L 93.5 128.1 L 81.4 130.1 L 69.1 132.1 L 56.5 134.0 L 43.7 135.9 L 34.693110656738284 137.21639156341553 L 33.0 140.5 L 30.7 137.8 L 27.2 126.1 L 29.2 125.9 L 42.3 124.6 L 55.2 123.3 L 55.61590242385864 123.26039028167725 L 56.5 121.3 L 59.0 116.3 L 61.4 111.4 L 63.9 106.5 L 66.3 101.7 L 68.7 97.0 L 71.0 92.3 L 73.3 87.5 L 75.40638294219971 83.0 L 15.0 83.0 L 15.0 79.0 L 94.0 79.0 L 94.0 50.0 L 106.0 52.0 L 109.0 54.0 L 106.0 55.8 L 106.0 79.0 L 163.0 79.0 L 173.0 69.0 L 185.0 79.0 L 185.0 83.0 L 88.71481485366822 83.0 Z " />
</g>
</svg>
