<svg xmlns="http://www.w3.org/2000/svg" xmlns:xlink="http://www.w3.org/1999/xlink" version="1.1" baseProfile="full" viewBox="0 0 200 200" width="200" height="200">
<g fill="black">
<path d="M 14.0 169.0 L 94.0 169.0 L 94.0 103.0 L 29.0 103.0 L 29.0 99.0 L 94.0 99.0 L 94.0 44.60283689498901 L 81.0 47.0 L 66.5 49.2 L 51.5 51.2 L 36.0 52.7 L 20.1 53.8 L 19.8 52.1 L 35.5 49.0 L 50.6 45.9 L 65.3 42.8 L 79.5 39.5 L 93.3 36.1 L 106.6 32.6 L 119.4 28.9 L 131.7 25.0 L 143.6 20.9 L 155.0 16.6 L 155.66926317214967 18.444554710388182 L 164.4 26.0 L 164.7 29.1 L 160.64661922454835 27.345551586151124 L 159.1 27.9 L 147.2 31.7 L 134.8 35.3 L 122.0 38.6 L 108.8 41.6 L 106.0 42.17226276397705 L 106.0 99.0 L 149.0 99.0 L 159.0 89.0 L 171.0 99.0 L 171.0 103.0 L 106.0 103.0 L 106.0 169.0 L 164.0 169.0 L 174.0 159.0 L 186.0 169.0 L 186.0 173.0 L 14.0 173.0 Z " />
</g>
</svg>
