<svg xmlns="http://www.w3.org/2000/svg" xmlns:xlink="http://www.w3.org/1999/xlink" version="1.1" baseProfile="full" viewBox="0 0 200 200" width="200" height="200">
<g fill="black">
<path d="M 162.9 180.2 L 157.0 176.1 L 151.3 171.5 L 145.7 166.1 L 140.2 160.1 L 134.8 153.5 L 129.6 146.2 L 124.5 138.1 L 120.17386360168457 130.0 L 84.62307691574097 130.0 L 84.3 130.6 L 80.0 138.1 L 75.1 145.2 L 69.6 151.9 L 63.6 158.3 L 57.1 164.3 L 50.0 169.9 L 42.4 175.1 L 34.3 179.8 L 25.6 184.1 L 16.3 187.8 L 15.6 186.1 L 23.8 180.7 L 31.4 175.3 L 38.6 169.7 L 45.2 164.0 L 51.3 158.1 L 56.8 152.0 L 61.8 145.7 L 66.2 139.1 L 70.2 132.3 L 71.26976747512818 130.0 L 17.0 130.0 L 17.0 126.0 L 71.0 126.0 L 71.0 102.0 L 35.0 102.0 L 35.0 98.0 L 71.0 98.0 L 71.0 75.0 L 38.0 75.0 L 38.0 71.0 L 71.0 71.0 L 71.0 48.0 L 83.0 50.0 L 86.0 52.0 L 83.0 53.8 L 83.0 71.0 L 117.0 71.0 L 117.0 48.0 L 129.0 50.0 L 132.0 52.0 L 129.0 53.8 L 129.0 71.0 L 140.0 71.0 L 150.0 61.0 L 155.47358493804933 65.56132078170776 L 157.7 62.5 L 159.6 59.2 L 161.5 56.0 L 163.3 53.1 L 165.0 50.3 L 166.5 47.6 L 167.8 45.1 L 168.37391300201415 44.0 L 33.1 44.0 L 33.1 46.6 L 32.8 51.0 L 32.1 55.2 L 30.9 59.1 L 29.3 62.8 L 27.2 66.1 L 24.6 69.1 L 21.5 71.7 L 17.0 72.2 L 13.3 69.5 L 12.8 64.9 L 15.6 61.3 L 17.6 60.4 L 19.5 59.1 L 21.3 57.4 L 23.0 55.2 L 24.6 52.6 L 26.1 49.4 L 27.4 45.7 L 28.5 41.4 L 29.5 36.7 L 30.1 31.5 L 31.9 31.5 L 32.5 36.8 L 32.88400001525879 40.0 L 94.0 40.0 L 94.0 13.9 L 106.0 15.9 L 109.0 17.9 L 106.0 19.7 L 106.0 40.0 L 170.0 40.0 L 170.56999998092653 39.525 L 170.9 38.7 L 171.27240219116212 38.93966484069824 L 176.0 35.0 L 187.0 44.0 L 182.0 47.0 L 177.37142858505248 48.92857141494751 L 173.3 53.0 L 170.9 55.1 L 168.4 57.3 L 165.7 59.6 L 162.8 62.0 L 159.7 64.4 L 156.95205049514772 66.79337539672852 L 162.0 71.0 L 162.0 75.0 L 129.0 75.0 L 129.0 98.0 L 143.0 98.0 L 153.0 88.0 L 165.0 98.0 L 165.0 102.0 L 129.0 102.0 L 129.0 126.0 L 161.0 126.0 L 171.0 116.0 L 183.0 126.0 L 183.0 130.0 L 122.81621618270874 130.0 L 127.9 135.7 L 134.2 142.5 L 140.2 148.7 L 146.2 154.3 L 152.0 159.2 L 157.6 163.4 L 163.2 167.0 L 168.6 169.9 L 173.9 172.1 L 179.0 173.7 L 186.5 176.1 L 174.9 186.2 L 168.8 183.6 Z M 83.0 102.0 L 83.0 126.0 L 117.0 126.0 L 117.0 102.0 Z M 83.0 75.0 L 83.0 98.0 L 117.0 98.0 L 117.0 75.0 Z " />
</g>
</svg>
