<svg xmlns="http://www.w3.org/2000/svg" xmlns:xlink="http://www.w3.org/1999/xlink" version="1.1" baseProfile="full" viewBox="0 0 200 200" width="200" height="200">
<g fill="black">
<path d="M 17.4 174.9 L 94.0 174.9 L 94.0 127.0 L 32.8 127.0 L 32.8 123.0 L 145.2 123.0 L 155.2 113.0 L 167.2 123.0 L 167.2 127.0 L 106.0 127.0 L 106.0 174.9 L 160.5 174.9 L 170.5 164.9 L 182.5 174.9 L 182.5 178.9 L 17.4 178.9 Z M 161.7 102.0 L 155.6 98.0 L 149.2 94.2 L 142.5 90.4 L 135.5 86.7 L 128.2 83.0 L 120.6 79.4 L 112.8 75.8 L 108.31361951828003 73.72094564437866 L 107.1 74.7 L 94.3 83.3 L 80.5 91.1 L 65.8 98.0 L 50.2 104.0 L 33.6 108.9 L 16.2 112.9 L 15.7 111.1 L 32.5 105.3 L 48.3 99.0 L 63.0 92.1 L 76.8 84.5 L 89.6 76.2 L 101.4 67.3 L 112.2 57.7 L 122.1 47.4 L 131.0 36.4 L 135.3888889312744 29.9 L 42.0 29.9 L 42.0 25.9 L 138.0 25.9 L 138.20521173477172 25.728990268707275 L 138.9 24.7 L 139.20469274520875 24.896089363098145 L 144.0 20.9 L 155.0 29.9 L 150.0 32.9 L 146.74556217193603 34.25601577758789 L 140.0 43.4 L 130.0 54.7 L 119.0 65.1 L 111.0014754295349 71.55259132385254 L 114.0 72.2 L 122.5 74.4 L 130.7 76.9 L 138.6 79.7 L 146.2 82.7 L 153.5 85.9 L 160.5 89.3 L 167.3 92.9 L 173.8 96.6 L 180.0 100.5 L 182.4 104.5 L 181.4 108.9 L 177.5 111.3 L 173.0 110.3 L 167.5 106.1 Z " />
</g>
</svg>
