<svg xmlns="http://www.w3.org/2000/svg" xmlns:xlink="http://www.w3.org/1999/xlink" version="1.1" baseProfile="full" viewBox="0 0 200 200" width="200" height="200">
<g fill="black">
<path d="M 146.6 182.3 L 144.6 183.4 L 142.5 184.3 L 140.3 185.1 L 138.1 185.8 L 135.9 186.3 L 133.6 186.7 L 131.3 186.9 L 129.0 187.0 L 129.0 181.0 L 109.0 178.0 L 109.0 175.0 L 129.0 175.0 L 130.6 174.9 L 132.1 174.8 L 135.1 174.2 L 136.6 173.8 L 138.0 173.2 L 139.3 172.6 L 140.7 171.9 L 142.0 171.1 L 143.4 170.2 L 146.3 167.4 L 149.2 163.5 L 151.9 158.5 L 154.4 152.2 L 156.6 144.7 L 158.6 136.0 L 160.2 126.2 L 161.5 115.2 L 162.4 103.0 L 162.9 92.0 L 41.68951969146728 92.0 L 40.1 100.0 L 27.1 103.5 L 38.6 45.9 L 47.66746988296509 53.0 L 151.0 53.0 L 151.0 22.0 L 37.0 22.0 L 37.0 18.0 L 151.0 18.0 L 157.0 13.0 L 168.0 22.0 L 163.0 26.0 L 163.0 63.0 L 151.0 69.0 L 151.0 57.0 L 48.64366807937622 57.0 L 42.48427944183349 88.0 L 163.0 88.0 L 169.0 83.0 L 180.0 92.0 L 175.0 95.0 L 174.7168622970581 95.11797409057617 L 174.4 103.8 L 173.4 116.3 L 172.1 127.8 L 170.4 138.3 L 168.3 147.7 L 165.7 156.1 L 162.8 163.5 L 159.3 170.0 L 155.3 175.4 L 150.6 179.8 L 148.6 181.1 Z M 146.5 149.7 L 146.5 153.7 L 18.4 153.7 L 18.4 149.7 L 124.5 149.7 L 134.5 139.7 Z M 133.1 116.8 L 133.1 120.8 L 31.8 120.8 L 31.8 116.8 L 111.1 116.8 L 121.1 106.8 Z " />
</g>
</svg>
