<svg xmlns="http://www.w3.org/2000/svg" xmlns:xlink="http://www.w3.org/1999/xlink" version="1.1" baseProfile="full" viewBox="0 0 200 200" width="200" height="200">
<g fill="black">
<path d="M 126.12765960693359 17.723404216766358 L 127.2 49.0 L 129.80666666030885 72.0 L 166.0 72.0 L 176.0 62.0 L 188.0 72.0 L 188.0 76.0 L 130.26000003814698 76.0 L 130.6 79.0 L 135.7 104.3 L 142.2 125.2 L 145.87323417663575 133.6688455581665 L 146.9 132.2 L 153.6 120.9 L 159.6 108.7 L 164.62321853637695 96.60706653594971 L 164.6 96.6 L 165.5 94.3 L 176.1 100.1 L 178.2 103.1 L 174.4683765411377 103.67904500961303 L 169.9 113.7 L 162.9 126.3 L 155.2 137.8 L 150.5540410041809 143.7333933830261 L 157.1 154.7 L 164.6 163.9 L 171.5 170.0 L 175.64285717010497 172.21428575515748 L 181.0 149.0 L 183.0 149.0 L 181.07446804046631 174.0319149017334 L 185.2 175.8 L 187.0 180.0 L 185.2 184.2 L 181.0 186.0 L 173.0 184.3 L 164.6 179.8 L 156.0 172.3 L 147.2 161.5 L 142.27851829528808 153.27823066711426 L 137.9 157.9 L 128.2 166.3 L 117.9 173.7 L 107.0 180.0 L 95.4 185.0 L 83.2 188.8 L 82.7 187.1 L 93.8 181.5 L 104.3 175.3 L 114.1 168.3 L 123.3 160.6 L 131.8 152.0 L 137.67514562606812 144.93495149612426 L 130.9 129.3 L 124.1 107.3 L 118.7 80.9 L 118.14677419662476 76.0 L 12.0 76.0 L 12.0 72.0 L 56.0 72.0 L 56.0 45.0 L 19.0 45.0 L 19.0 41.0 L 56.0 41.0 L 56.0 12.0 L 68.0 14.0 L 71.0 16.0 L 68.0 17.8 L 68.0 41.0 L 84.0 41.0 L 94.0 31.0 L 106.0 41.0 L 106.0 45.0 L 68.0 45.0 L 68.0 72.0 L 117.69516124725342 72.0 L 115.2 49.9 L 114.03333330154419 14.997222232818604 L 114.0 15.0 L 114.0 11.6 L 126.0 14.0 L 129.0 16.0 Z M 157.2 43.6 L 155.4 40.8 L 153.4 38.0 L 151.3 35.3 L 149.1 32.6 L 146.7 30.0 L 144.1 27.3 L 141.4 24.7 L 138.4 22.2 L 139.3 20.6 L 142.9 22.1 L 146.6 23.6 L 150.2 25.4 L 153.5 27.4 L 156.7 29.6 L 159.8 31.9 L 162.7 34.5 L 165.5 37.3 L 168.1 40.2 L 170.5 43.3 L 171.2 47.8 L 168.5 51.5 L 164.0 52.2 L 160.3 49.5 L 158.8 46.5 Z " />
</g>
</svg>
