<svg xmlns="http://www.w3.org/2000/svg" xmlns:xlink="http://www.w3.org/1999/xlink" version="1.1" baseProfile="full" viewBox="0 0 200 200" width="200" height="200">
<g fill="black">
<path d="M 34.0 184.0 L 22.0 190.0 L 22.0 131.0 L 34.0 133.0 L 37.0 135.0 L 34.0 136.8 L 34.0 168.0 L 51.0 168.0 L 51.0 125.0 L 11.0 125.0 L 11.0 121.0 L 51.0 121.0 L 51.0 103.0 L 35.0 103.0 L 35.0 106.0 L 23.0 112.0 L 23.0 45.0 L 35.0 51.0 L 51.0 51.0 L 51.0 35.0 L 14.0 35.0 L 14.0 31.0 L 51.0 31.0 L 51.0 13.0 L 63.0 15.0 L 66.0 17.0 L 63.0 18.8 L 63.0 31.0 L 78.0 31.0 L 88.0 21.0 L 100.0 31.0 L 100.0 35.0 L 63.0 35.0 L 63.0 51.0 L 79.0 51.0 L 85.0 46.0 L 96.0 55.0 L 91.0 59.0 L 91.0 105.0 L 79.0 111.0 L 79.0 103.0 L 63.0 103.0 L 63.0 121.0 L 81.0 121.0 L 91.0 111.0 L 103.0 121.0 L 103.0 125.0 L 63.0 125.0 L 63.0 168.0 L 80.0 168.0 L 80.0 131.0 L 92.0 133.0 L 95.0 135.0 L 92.0 136.8 L 92.0 172.0 L 80.0 178.0 L 80.0 172.0 L 34.0 172.0 Z M 158.2 176.1 L 149.6 170.5 L 142.0 164.0 L 140.7906816482544 162.6462854385376 L 132.7 169.9 L 123.2 176.5 L 112.9 181.9 L 101.9 186.0 L 90.1 188.8 L 89.6 187.1 L 100.5 182.5 L 110.4 177.1 L 119.5 171.0 L 127.7 164.1 L 135.1 156.3 L 135.1339331626892 156.25526990890503 L 129.6 148.1 L 124.9 138.8 L 121.3 128.7 L 118.7 117.8 L 117.31538457870484 107.0 L 107.8 107.0 L 107.8 103.0 L 160.3 103.0 L 166.3 98.0 L 177.3 107.0 L 172.3 110.0 L 170.71290321350097 110.66129035949707 L 167.7 119.7 L 162.4 131.9 L 156.2 143.1 L 149.2 153.1 L 147.4427586555481 155.12758617401124 L 148.8 156.4 L 155.9 161.5 L 163.6 165.7 L 172.0 169.0 L 181.2 171.6 L 189.7 173.7 L 177.9 184.3 L 167.6 180.7 Z M 119.40733947753907 107.0 L 122.7 116.7 L 126.8 126.7 L 131.4 135.6 L 136.6 143.5 L 140.91556253433228 148.63403129577637 L 141.7 147.6 L 147.6 138.0 L 152.6 127.5 L 157.0 115.9 L 159.4920000076294 107.0 Z M 127.9 26.0 L 151.7 26.0 L 157.7 21.0 L 168.7 30.0 L 163.7 34.0 L 163.7 74.2 L 163.8 75.1 L 163.9 75.8 L 164.1 76.6 L 164.3 76.9 L 164.7 77.2 L 165.4 77.5 L 166.4 77.8 L 167.7 78.0 L 177.7 78.0 L 182.7 61.0 L 184.7 61.0 L 182.7 78.0 L 185.7 80.0 L 187.7 83.0 L 185.7 86.0 L 182.7 88.0 L 167.7 88.0 L 165.3 87.9 L 162.9 87.6 L 160.5 86.9 L 158.3 85.8 L 156.3 84.3 L 154.7 82.5 L 153.4 80.3 L 152.5 78.0 L 152.0 75.5 L 151.7 73.0 L 151.7 30.0 L 127.9 30.0 L 127.9 52.0 L 127.3 58.0 L 126.2 63.8 L 124.5 69.4 L 122.3 74.8 L 119.6 79.9 L 116.4 84.7 L 112.6 89.2 L 108.4 93.4 L 103.6 97.2 L 98.2 100.6 L 97.1 99.3 L 101.0 94.5 L 104.4 89.8 L 107.4 85.2 L 109.9 80.7 L 112.0 76.0 L 113.7 71.4 L 114.8 66.7 L 115.6 61.9 L 115.9 57.0 L 115.9 20.0 Z M 35.0 78.0 L 35.0 99.0 L 51.0 99.0 L 51.0 78.0 Z M 63.0 78.0 L 63.0 99.0 L 79.0 99.0 L 79.0 78.0 Z M 35.0 55.0 L 35.0 74.0 L 51.0 74.0 L 51.0 55.0 Z M 63.0 55.0 L 63.0 74.0 L 79.0 74.0 L 79.0 55.0 Z " />
</g>
</svg>
