<svg xmlns="http://www.w3.org/2000/svg" xmlns:xlink="http://www.w3.org/1999/xlink" version="1.1" baseProfile="full" viewBox="0 0 200 200" width="200" height="200">
<g fill="black">
<path d="M 55.0 16.0 L 58.0 18.0 L 55.0 19.8 L 55.0 67.0 L 82.0 67.0 L 82.0 14.0 L 94.0 16.0 L 97.0 18.0 L 94.0 19.8 L 94.0 75.0 L 82.0 81.0 L 82.0 71.0 L 55.0 71.0 L 55.0 93.0 L 162.0 93.0 L 162.0 70.0 L 130.0 70.0 L 130.0 77.0 L 118.0 83.0 L 118.0 14.0 L 130.0 16.0 L 133.0 18.0 L 130.0 19.8 L 130.0 66.0 L 162.0 66.0 L 162.0 14.0 L 174.0 16.0 L 177.0 18.0 L 174.0 19.8 L 174.0 177.0 L 162.0 183.0 L 162.0 123.0 L 130.0 123.0 L 130.0 175.0 L 118.0 181.0 L 118.0 113.0 L 130.0 119.0 L 162.0 119.0 L 162.0 97.0 L 55.0 97.0 L 55.0 118.0 L 82.0 118.0 L 88.0 113.0 L 99.0 122.0 L 94.0 126.0 L 94.0 175.0 L 82.0 181.0 L 82.0 122.0 L 54.93069305419922 122.0 L 54.3 131.1 L 53.1 140.6 L 51.1 149.3 L 48.6 157.3 L 45.3 164.5 L 41.4 170.8 L 36.8 176.3 L 31.5 180.9 L 25.7 184.4 L 19.3 186.8 L 18.6 185.1 L 23.6 181.2 L 28.0 176.9 L 31.7 172.1 L 34.9 166.8 L 37.6 160.9 L 39.7 154.4 L 41.4 147.1 L 42.4 139.1 L 43.0 130.4 L 43.0 14.0 Z " />
</g>
</svg>
