<svg xmlns="http://www.w3.org/2000/svg" xmlns:xlink="http://www.w3.org/1999/xlink" version="1.1" baseProfile="full" viewBox="0 0 200 200" width="200" height="200">
<g fill="black">
<path d="M 19.1 183.6 L 19.3 179.0 L 22.6 175.9 L 25.5 175.0 L 28.1 174.0 L 30.5 172.7 L 32.7 171.2 L 34.7 169.3 L 36.6 167.1 L 38.3 164.6 L 39.8 161.7 L 41.2 158.3 L 42.0 154.5 L 43.8 154.6 L 43.9 158.7 L 44.0 162.6 L 43.5 166.5 L 42.5 170.1 L 41.1 173.6 L 39.1 176.9 L 36.7 179.9 L 33.9 182.6 L 30.6 185.0 L 26.9 187.1 L 22.3 186.9 Z M 168.8 177.7 L 167.5 175.4 L 165.9 172.9 L 163.8 170.2 L 161.3 167.5 L 158.4 164.7 L 155.1 161.7 L 151.5 158.5 L 147.4 155.5 L 148.3 153.9 L 153.0 155.9 L 157.6 157.8 L 161.8 159.9 L 165.6 162.1 L 169.0 164.3 L 172.2 166.7 L 175.0 169.2 L 177.5 171.8 L 179.6 174.6 L 181.4 177.5 L 181.3 182.1 L 178.1 185.3 L 173.5 185.2 L 170.3 181.9 L 169.7 179.9 Z M 121.5 175.6 L 121.0 173.7 L 120.1 171.5 L 118.9 169.2 L 117.4 166.8 L 115.4 164.3 L 113.1 161.6 L 110.5 158.8 L 107.3 156.2 L 108.3 154.7 L 112.0 156.6 L 115.7 158.3 L 119.0 160.1 L 122.0 162.1 L 124.7 164.2 L 127.1 166.5 L 129.2 168.9 L 131.0 171.5 L 132.4 174.4 L 133.5 177.4 L 132.3 181.8 L 128.4 184.1 L 124.0 182.9 L 121.6 179.0 L 121.7 177.4 Z M 80.5 184.1 L 76.6 181.8 L 75.4 177.4 L 76.0 175.8 L 76.3 174.2 L 76.4 172.4 L 76.3 170.5 L 76.0 168.5 L 75.3 166.2 L 74.3 163.9 L 73.0 161.3 L 71.4 158.7 L 69.1 156.3 L 70.3 154.9 L 73.0 156.9 L 75.9 158.7 L 78.4 160.7 L 80.6 162.8 L 82.5 165.1 L 84.2 167.5 L 85.5 170.2 L 86.5 173.0 L 87.1 175.9 L 87.3 179.0 L 84.9 182.9 Z M 16.0 148.3 L 94.0 148.3 L 94.0 132.2 L 34.0 132.2 L 34.0 128.2 L 94.0 128.2 L 94.0 108.6 L 51.0 108.6 L 51.0 111.6 L 39.0 117.6 L 39.0 55.8 L 51.0 61.8 L 94.0 61.8 L 94.0 47.3 L 18.0 47.3 L 18.0 43.3 L 94.0 43.3 L 94.0 30.988524627685546 L 83.0 31.8 L 70.5 32.6 L 57.7 33.2 L 44.5 33.6 L 31.0 33.6 L 30.9 31.8 L 44.2 29.8 L 57.2 27.9 L 69.9 26.1 L 82.2 24.3 L 94.2 22.5 L 105.8 20.6 L 117.1 18.7 L 128.1 16.8 L 138.7 14.8 L 147.90149002075196 12.905575561523438 L 147.9 12.9 L 147.9057357788086 12.904701423645019 L 148.9 12.7 L 149.1124593734741 13.89381914138794 L 160.1 22.9 L 160.5 25.9 L 156.00128812789916 23.620652675628662 L 151.0 24.5 L 140.5 26.0 L 129.7 27.4 L 118.5 28.7 L 107.0 29.8 L 106.0 29.893220329284667 L 106.0 43.3 L 159.0 43.3 L 169.0 33.3 L 181.0 43.3 L 181.0 47.3 L 106.0 47.3 L 106.0 61.8 L 149.0 61.8 L 155.0 56.8 L 166.0 65.8 L 161.0 69.8 L 161.0 110.6 L 149.0 116.6 L 149.0 108.6 L 106.0 108.6 L 106.0 128.2 L 151.8181818008423 128.2 L 160.0 119.2 L 170.0 128.2 L 170.0 132.2 L 106.0 132.2 L 106.0 148.3 L 161.0 148.3 L 171.0 138.3 L 183.0 148.3 L 183.0 152.3 L 16.0 152.3 Z M 51.0 87.6 L 51.0 104.6 L 94.0 104.6 L 94.0 87.6 Z M 106.0 87.6 L 106.0 104.6 L 149.0 104.6 L 149.0 87.6 Z M 51.0 65.8 L 51.0 83.6 L 94.0 83.6 L 94.0 65.8 Z M 106.0 65.8 L 106.0 83.6 L 149.0 83.6 L 149.0 65.8 Z " />
</g>
</svg>
