<svg xmlns="http://www.w3.org/2000/svg" xmlns:xlink="http://www.w3.org/1999/xlink" version="1.1" baseProfile="full" viewBox="0 0 200 200" width="200" height="200">
<g fill="black">
<path d="M 125.7 175.8 L 145.7 175.8 L 146.9 175.7 L 147.8 175.5 L 148.4 175.4 L 148.8 175.2 L 148.9 175.0 L 149.1 174.8 L 149.3 174.5 L 149.5 173.9 L 149.6 173.0 L 149.7 171.8 L 149.7 146.7 L 111.5 146.7 L 111.5 175.3 L 99.5 181.3 L 99.5 146.7 L 61.2 146.7 L 61.2 181.1 L 49.2 187.1 L 49.2 104.0 L 45.2 108.8 L 39.7 114.5 L 34.0 119.7 L 27.9 124.6 L 21.3 128.9 L 14.5 132.7 L 13.4 131.2 L 19.0 125.9 L 24.3 120.5 L 29.4 115.0 L 34.1 109.4 L 38.5 103.5 L 42.7 97.4 L 46.5 91.1 L 50.0 84.5 L 53.2 77.7 L 55.41666669845581 72.0 L 14.0 72.0 L 14.0 68.0 L 66.0 68.0 L 66.0 42.0 L 24.0 42.0 L 24.0 38.0 L 66.0 38.0 L 66.0 13.0 L 78.0 15.0 L 81.0 17.0 L 78.0 18.8 L 78.0 38.0 L 122.0 38.0 L 122.0 13.0 L 134.0 15.0 L 137.0 17.0 L 134.0 18.8 L 134.0 38.0 L 154.0 38.0 L 164.0 28.0 L 176.0 38.0 L 176.0 42.0 L 134.0 42.0 L 134.0 68.0 L 164.0 68.0 L 174.0 58.0 L 186.0 68.0 L 186.0 72.0 L 61.405084705352785 72.0 L 67.1 75.2 L 69.1 78.2 L 65.340740776062 78.7185185432434 L 63.4 82.6 L 59.4 89.7 L 58.608988761901855 90.90449438095092 L 61.2 92.2 L 149.7 92.2 L 155.7 87.2 L 166.7 96.2 L 161.7 100.2 L 161.7 171.8 L 161.6 174.3 L 161.1 176.8 L 160.3 179.2 L 159.1 181.5 L 157.4 183.5 L 155.4 185.2 L 153.2 186.4 L 150.7 187.2 L 148.3 187.6 L 145.7 187.8 L 145.7 181.8 L 125.7 178.8 Z M 61.2 121.1 L 61.2 142.7 L 99.5 142.7 L 99.5 121.1 Z M 111.5 121.1 L 111.5 142.7 L 149.7 142.7 L 149.7 121.1 Z M 61.2 96.2 L 61.2 117.1 L 99.5 117.1 L 99.5 96.2 Z M 111.5 96.2 L 111.5 117.1 L 149.7 117.1 L 149.7 96.2 Z M 78.0 42.0 L 78.0 68.0 L 122.0 68.0 L 122.0 42.0 Z " />
</g>
</svg>
