<svg xmlns="http://www.w3.org/2000/svg" xmlns:xlink="http://www.w3.org/1999/xlink" version="1.1" baseProfile="full" viewBox="0 0 200 200" width="200" height="200">
<g fill="black">
<path d="M 12.2 177.3 L 38.9 177.3 L 38.9 111.5 L 50.9 117.5 L 149.0 117.5 L 155.0 112.5 L 166.0 121.5 L 161.0 125.5 L 161.0 177.3 L 165.7 177.3 L 175.7 167.3 L 187.7 177.3 L 187.7 181.3 L 12.2 181.3 Z M 50.9 121.5 L 50.9 177.3 L 75.6 177.3 L 75.6 121.5 Z M 87.6 121.5 L 87.6 177.3 L 112.3 177.3 L 112.3 121.5 Z M 124.3 121.5 L 124.3 177.3 L 149.0 177.3 L 149.0 121.5 Z M 56.1 24.3 L 142.8 24.3 L 148.8 19.3 L 159.8 28.3 L 154.8 32.3 L 154.8 100.7 L 142.8 106.7 L 142.8 96.7 L 56.1 96.7 L 56.1 103.7 L 44.1 109.7 L 44.1 18.3 Z M 56.1 28.3 L 56.1 92.7 L 142.8 92.7 L 142.8 28.3 Z M 108.354252243042 40.66744871139527 L 108.0 43.9 L 106.4 50.8 L 104.0 57.4 L 102.59432048797608 59.998377323150635 L 103.3 60.2 L 108.0 61.7 L 112.5 63.4 L 116.6 65.3 L 120.5 67.3 L 124.2 69.5 L 127.7 71.8 L 130.9 74.3 L 133.8 76.9 L 136.5 79.6 L 137.6 84.1 L 135.4 88.0 L 130.9 89.1 L 127.0 86.9 L 125.3 84.3 L 123.4 81.7 L 121.2 79.1 L 118.7 76.5 L 115.9 73.9 L 112.8 71.3 L 109.5 68.6 L 105.8 65.9 L 101.9 63.2 L 101.13006086349488 62.70503911972046 L 100.7 63.5 L 96.6 69.1 L 91.7 74.2 L 86.0 78.8 L 79.7 82.8 L 72.6 86.3 L 64.7 89.2 L 64.0 87.5 L 70.7 83.0 L 76.7 78.4 L 81.8 73.7 L 86.2 69.0 L 89.7 64.0 L 92.5 58.9 L 94.6 53.7 L 96.0 48.2 L 96.7 42.5 L 96.8 36.6 L 96.8 34.2 L 108.8 36.6 L 111.8 38.6 Z " />
</g>
</svg>
