<svg xmlns="http://www.w3.org/2000/svg" xmlns:xlink="http://www.w3.org/1999/xlink" version="1.1" baseProfile="full" viewBox="0 0 200 200" width="200" height="200">
<g fill="black">
<path d="M 164.9 176.1 L 162.1 172.1 L 159.0 168.2 L 156.84408597946168 165.79769582748412 L 147.5 167.8 L 134.5 170.2 L 121.3 172.3 L 107.8 174.2 L 94.1 175.9 L 80.0 177.5 L 65.7 179.0 L 51.2 180.3 L 36.3 181.5 L 25.342037677764893 182.2982621192932 L 23.4 185.5 L 21.2 182.6 L 18.7 170.8 L 20.7 170.7 L 35.7 170.2 L 50.5 169.6 L 65.0 169.0 L 79.3 168.3 L 93.3 167.5 L 94.0 167.45434780120848 L 94.0 137.5 L 51.0 137.5 L 51.0 149.5 L 39.0 155.5 L 39.0 97.5 L 51.0 103.5 L 94.0 103.5 L 94.0 85.7 L 106.0 87.7 L 109.0 89.7 L 106.0 91.5 L 106.0 103.5 L 149.0 103.5 L 155.0 98.5 L 166.0 107.5 L 161.0 111.5 L 161.0 137.5 L 149.0 143.5 L 149.0 137.5 L 106.0 137.5 L 106.0 166.6717391014099 L 107.1 166.6 L 120.6 165.7 L 133.9 164.8 L 147.0 164.0 L 154.7567451477051 163.5758029937744 L 151.6 160.5 L 147.4 156.8 L 142.8 153.1 L 137.8 149.3 L 132.5 145.4 L 133.2 143.8 L 139.6 146.0 L 145.5 148.5 L 151.1 151.4 L 156.3 154.5 L 161.1 158.0 L 165.6 161.6 L 169.7 165.6 L 173.5 169.7 L 176.9 174.1 L 179.9 178.8 L 180.2 183.3 L 177.3 186.9 L 172.8 187.2 L 169.2 184.3 L 167.2 180.2 Z M 51.0 107.5 L 51.0 133.5 L 94.0 133.5 L 94.0 107.5 Z M 106.0 107.5 L 106.0 133.5 L 149.0 133.5 L 149.0 107.5 Z M 140.2 89.5 L 126.2 84.4 L 113.3 78.3 L 101.4 71.3 L 101.26506185531616 71.20096282958984 L 100.1 71.9 L 86.3 78.4 L 71.3 83.9 L 55.1 88.4 L 37.7 91.8 L 19.1 94.1 L 18.8 92.3 L 36.9 88.1 L 53.7 83.2 L 69.1 77.7 L 83.1 71.5 L 93.70689153671265 65.65368185043334 L 90.5 63.3 L 80.8 54.5 L 72.1 44.6 L 64.7 33.9 L 59.31538457870484 23.4 L 34.0 23.4 L 34.0 19.4 L 139.0 19.4 L 139.33394498825072 19.121712493896485 L 139.7 18.5 L 139.9301037788391 18.624913501739503 L 145.0 14.4 L 156.0 23.4 L 151.0 26.4 L 147.99882583618165 27.650489234924315 L 142.8 35.8 L 134.0 46.3 L 123.9 55.8 L 112.6 64.4 L 110.71889762878418 65.52866144180298 L 117.8 69.1 L 130.2 74.0 L 143.5 78.1 L 157.7 81.3 L 172.9 83.7 L 182.9 85.2 L 171.0 96.8 L 155.1 93.6 Z M 61.8264705657959 23.4 L 68.1 31.5 L 76.6 40.7 L 85.7 49.1 L 95.6 56.7 L 101.74046821594239 60.48757848739624 L 107.2 56.8 L 117.3 48.3 L 126.0 39.1 L 133.4 29.2 L 136.81495323181153 23.4 Z " />
</g>
</svg>
