<svg xmlns="http://www.w3.org/2000/svg" xmlns:xlink="http://www.w3.org/1999/xlink" version="1.1" baseProfile="full" viewBox="0 0 200 200" width="200" height="200">
<g fill="black">
<path d="M 51.0 185.0 L 39.0 191.0 L 39.0 139.0 L 51.0 141.0 L 54.0 143.0 L 51.0 144.8 L 51.0 178.0 L 94.0 178.0 L 94.0 132.0 L 14.0 132.0 L 14.0 128.0 L 94.0 128.0 L 94.0 108.0 L 53.0 108.0 L 53.0 111.0 L 41.0 117.0 L 41.0 47.0 L 53.0 53.0 L 94.0 53.0 L 94.0 36.0 L 19.0 36.0 L 19.0 32.0 L 94.0 32.0 L 94.0 12.0 L 106.0 14.0 L 109.0 16.0 L 106.0 17.8 L 106.0 32.0 L 159.0 32.0 L 169.0 22.0 L 181.0 32.0 L 181.0 36.0 L 106.0 36.0 L 106.0 53.0 L 147.0 53.0 L 153.0 48.0 L 164.0 57.0 L 159.0 61.0 L 159.0 110.0 L 147.0 116.0 L 147.0 108.0 L 106.0 108.0 L 106.0 128.0 L 164.0 128.0 L 174.0 118.0 L 186.0 128.0 L 186.0 132.0 L 106.0 132.0 L 106.0 178.0 L 149.0 178.0 L 149.0 139.0 L 161.0 141.0 L 164.0 143.0 L 161.0 144.8 L 161.0 184.0 L 149.0 190.0 L 149.0 182.0 L 51.0 182.0 Z M 53.0 82.0 L 53.0 104.0 L 94.0 104.0 L 94.0 82.0 Z M 106.0 82.0 L 106.0 104.0 L 147.0 104.0 L 147.0 82.0 Z M 53.0 57.0 L 53.0 78.0 L 94.0 78.0 L 94.0 57.0 Z M 106.0 57.0 L 106.0 78.0 L 147.0 78.0 L 147.0 57.0 Z " />
</g>
</svg>
