<svg xmlns="http://www.w3.org/2000/svg" xmlns:xlink="http://www.w3.org/1999/xlink" version="1.1" baseProfile="full" viewBox="0 0 200 200" width="200" height="200">
<g fill="black">
<path d="M 182.0 69.0 L 177.0 72.0 L 174.30416145324708 73.12326612472535 L 166.5 86.9 L 155.3 103.1 L 142.6 118.1 L 128.5 131.8 L 113.0 144.3 L 96.2 155.6 L 78.0 165.6 L 58.4 174.4 L 37.5 181.8 L 15.2 187.8 L 14.7 186.1 L 36.2 178.2 L 56.3 169.5 L 74.9 159.8 L 92.1 149.2 L 107.9 137.6 L 122.2 125.0 L 135.1 111.4 L 146.6 96.7 L 156.8 81.0 L 163.12335329055787 69.0 L 21.0 69.0 L 21.0 65.0 L 165.0 65.0 L 165.41209964752198 64.65658359527588 L 165.6 64.3 L 165.75052757263182 64.37456035614014 L 171.0 60.0 Z M 100.5 43.3 L 98.8 40.3 L 96.7 37.0 L 94.0 33.6 L 90.8 30.1 L 87.1 26.4 L 83.0 22.5 L 78.4 18.5 L 73.3 14.2 L 74.3 12.7 L 80.4 15.4 L 86.0 18.3 L 91.1 21.3 L 95.7 24.4 L 99.9 27.6 L 103.6 30.9 L 106.8 34.3 L 109.6 37.8 L 111.9 41.5 L 113.8 45.3 L 113.3 49.8 L 109.9 52.8 L 105.3 52.4 L 102.3 48.9 L 101.6 46.2 Z " />
</g>
</svg>
