<svg xmlns="http://www.w3.org/2000/svg" xmlns:xlink="http://www.w3.org/1999/xlink" version="1.1" baseProfile="full" viewBox="0 0 200 200" width="200" height="200">
<g fill="black">
<path d="M 154.8 183.6 L 145.5 180.7 L 137.0 177.3 L 129.2 173.2 L 122.2 168.7 L 115.9 163.5 L 110.5 157.8 L 106.1 151.5 L 102.7 144.7 L 102.85 144.6 L 97.36881723403931 144.6 L 91.4 153.7 L 83.8 161.8 L 74.9 168.8 L 64.8 174.7 L 53.4 179.4 L 40.8 183.0 L 27.0 185.4 L 12.1 186.6 L 11.8 184.9 L 26.3 181.7 L 39.4 177.8 L 51.0 173.3 L 61.2 168.0 L 69.9 162.0 L 77.3 155.2 L 83.3 147.7 L 85.0554217338562 144.6 L 12.0 144.6 L 12.0 140.6 L 87.32048196792603 140.6 L 88.0 139.4 L 91.6 130.4 L 93.80416669845582 120.8166666984558 L 94.2 118.6 L 105.6 122.7 L 108.2 125.3 L 104.47485380172729 126.58686866760254 L 102.3 134.1 L 99.27087383270263 140.6 L 165.0 140.6 L 175.0 130.6 L 187.0 140.6 L 187.0 144.6 L 105.08269233703614 144.6 L 109.3 148.9 L 114.7 153.6 L 120.4 157.9 L 126.7 161.6 L 133.4 164.9 L 140.8 167.8 L 148.8 170.1 L 157.4 172.1 L 166.7 173.5 L 176.6 174.5 L 187.2 175.6 L 175.3 187.6 L 164.7 185.9 Z M 52.0 60.5 L 148.0 60.5 L 154.0 55.5 L 165.0 64.5 L 160.0 68.5 L 160.0 121.6 L 148.0 127.6 L 148.0 117.6 L 52.0 117.6 L 52.0 124.6 L 40.0 130.6 L 40.0 54.5 Z M 52.0 99.2 L 52.0 113.6 L 148.0 113.6 L 148.0 99.2 Z M 52.0 81.8 L 52.0 95.2 L 148.0 95.2 L 148.0 81.8 Z M 52.0 64.5 L 52.0 77.8 L 148.0 77.8 L 148.0 64.5 Z M 66.8 49.7 L 65.7 47.8 L 64.2 45.9 L 62.4 43.9 L 60.2 41.9 L 57.8 39.8 L 55.0 37.6 L 52.0 35.4 L 49.9 34.2 L 45.18000001907349 34.2 L 42.3 37.8 L 38.3 42.2 L 34.0 46.3 L 29.2 50.2 L 24.1 53.9 L 18.5 57.3 L 12.4 60.3 L 11.5 58.8 L 16.2 54.2 L 20.7 49.8 L 24.8 45.4 L 28.5 41.1 L 31.9 36.7 L 34.9 32.3 L 37.4 27.9 L 39.7 23.4 L 41.5 19.0 L 42.668209838867185 15.417489719390868 L 42.6 15.4 L 43.5 13.0 L 54.3 18.4 L 56.4 21.3 L 52.591479778289795 22.10179376602173 L 51.9 23.6 L 49.1 28.5 L 47.96666669845581 30.2 L 84.0 30.2 L 94.0 20.2 L 106.0 30.2 L 106.0 34.2 L 57.854545497894286 34.2 L 60.4 35.0 L 63.7 36.3 L 66.8 37.7 L 69.6 39.3 L 72.2 41.0 L 74.6 42.8 L 76.8 44.9 L 78.7 47.1 L 79.2 51.7 L 76.4 55.3 L 71.9 55.8 L 68.3 53.0 L 67.7 51.4 Z M 145.8 49.7 L 144.7 47.8 L 143.2 45.9 L 141.4 43.9 L 139.2 41.9 L 136.8 39.8 L 134.0 37.6 L 131.0 35.4 L 128.9 34.2 L 123.65454549789429 34.2 L 121.2 37.2 L 117.2 41.2 L 112.9 45.0 L 108.1 48.6 L 103.0 51.8 L 97.4 54.7 L 91.4 57.2 L 90.5 55.6 L 95.3 51.5 L 99.8 47.5 L 103.9 43.5 L 107.6 39.5 L 111.0 35.5 L 113.9 31.4 L 116.5 27.3 L 118.7 23.0 L 120.5 18.8 L 121.68517189025879 15.323495674133301 L 121.6 15.3 L 122.5 13.0 L 133.2 18.5 L 135.4 21.4 L 131.5217173576355 22.148440551757812 L 130.9 23.5 L 128.1 28.3 L 126.70666666030884 30.2 L 164.0 30.2 L 174.0 20.2 L 186.0 30.2 L 186.0 34.2 L 136.8545454978943 34.2 L 139.4 35.0 L 142.7 36.3 L 145.8 37.7 L 148.6 39.3 L 151.2 41.0 L 153.6 42.8 L 155.8 44.9 L 157.7 47.1 L 158.2 51.7 L 155.4 55.3 L 150.9 55.8 L 147.3 53.0 L 146.7 51.4 Z " />
</g>
</svg>
