<svg xmlns="http://www.w3.org/2000/svg" xmlns:xlink="http://www.w3.org/1999/xlink" version="1.1" baseProfile="full" viewBox="0 0 200 200" width="200" height="200">
<g fill="black">
<path d="M 40.0 26.0 L 166.0 26.0 L 176.0 16.0 L 188.0 26.0 L 188.0 30.0 L 40.0 30.0 L 40.0 91.0 L 39.4 105.1 L 38.4 118.3 L 37.0 130.6 L 35.0 141.9 L 32.6 152.4 L 29.7 161.9 L 26.2 170.4 L 22.3 177.9 L 17.7 184.3 L 12.6 189.5 L 11.3 188.4 L 14.5 182.3 L 17.5 175.5 L 20.1 168.0 L 22.4 159.7 L 24.3 150.5 L 25.8 140.4 L 27.0 129.4 L 27.7 117.5 L 28.0 104.7 L 28.0 20.0 Z M 153.1 170.4 L 143.7 160.6 L 135.7 149.3 L 129.1 136.7 L 123.9 122.7 L 120.1 107.5 L 117.6 90.9 L 117.16149654388428 83.09463872909546 L 116.8 86.0 L 112.5 105.7 L 106.6 123.6 L 99.0 139.5 L 89.8 153.4 L 79.0 165.2 L 66.6 174.9 L 52.7 182.4 L 37.4 187.6 L 36.9 185.9 L 51.0 179.0 L 63.5 170.6 L 74.3 160.6 L 83.6 148.9 L 91.5 135.5 L 97.8 120.3 L 102.8 103.3 L 106.2 84.4 L 108.1 63.5 L 108.6 40.8 L 108.6 38.4 L 120.6 40.8 L 123.6 42.8 L 120.41698770523071 44.70980739593506 L 119.65963802337646 60.889552211761476 L 120.8 72.8 L 123.5 90.1 L 127.1 105.8 L 129.52162551879883 113.11640062332154 L 131.5 111.0 L 135.7 106.5 L 139.9 102.1 L 144.0 97.7 L 152.0 89.1 L 155.8 84.8 L 159.5 80.5 L 163.1 76.1 L 166.0187726020813 72.5140793800354 L 166.0 72.5 L 166.2888889312744 72.18222217559814 L 166.6 71.8 L 166.6202247619629 71.81775283813477 L 167.0 71.4 L 175.6 79.7 L 176.6 83.2 L 172.81739130020142 82.48260869979859 L 171.5 83.8 L 167.3 87.9 L 162.9 91.9 L 158.5 95.8 L 149.1 103.4 L 144.2 107.0 L 139.1 110.6 L 133.9 113.9 L 130.43612518310547 115.87935705184937 L 131.8 120.0 L 137.5 132.6 L 144.2 143.7 L 152.0 153.3 L 160.8 161.5 L 170.6 168.2 L 181.5 173.7 L 187.5 176.4 L 176.1 185.7 L 164.0 178.8 Z M 54.0 126.8 L 53.2 122.3 L 55.7 118.5 L 59.1 116.3 L 62.2 113.6 L 65.0 110.4 L 67.6 106.5 L 69.9 102.0 L 71.8 96.9 L 73.5 91.1 L 74.8 84.7 L 75.9 77.6 L 76.8 69.9 L 78.6 69.8 L 79.7 77.7 L 80.2 85.1 L 80.0 92.1 L 79.2 98.7 L 77.9 104.8 L 76.0 110.5 L 73.5 115.8 L 70.4 120.6 L 66.6 124.8 L 62.3 128.5 L 57.8 129.3 Z " />
</g>
</svg>
