<svg xmlns="http://www.w3.org/2000/svg" xmlns:xlink="http://www.w3.org/1999/xlink" version="1.1" baseProfile="full" viewBox="0 0 200 200" width="200" height="200">
<g fill="black">
<path d="M 13.6 133.9 L 12.4 129.5 L 14.5 125.5 L 16.6 123.9 L 18.6 121.6 L 20.6 118.7 L 22.5 115.1 L 24.2 110.8 L 25.7 105.8 L 27.0 100.1 L 28.1 93.8 L 29.1 86.9 L 30.1 79.3 L 31.9 79.3 L 32.9 87.0 L 33.38169012069702 92.7 L 126.21129035949707 92.7 L 128.5 88.4 L 131.6 82.6 L 134.6 77.2 L 137.5 72.2 L 140.0 67.5 L 142.4 63.2 L 144.5 59.1 L 146.3 55.5 L 147.9 52.1 L 148.79264039993285 50.040060710906985 L 148.7 50.0 L 149.7 48.1 L 159.8 54.8 L 161.5 57.9 L 157.46673984527587 58.17815589904785 L 155.5 61.0 L 153.0 64.4 L 150.2 68.2 L 147.1 72.2 L 143.7 76.4 L 140.0 80.9 L 136.0 85.7 L 131.6 90.6 L 129.58235292434694 92.7 L 170.0 92.7 L 176.0 87.7 L 187.0 96.7 L 182.0 99.7 L 179.15415019989013 100.88577079772949 L 177.9 102.8 L 175.9 105.7 L 173.8 108.8 L 171.4 112.1 L 168.9 115.5 L 166.2 119.0 L 163.2 122.6 L 160.0 126.4 L 156.7 130.3 L 155.2 129.3 L 157.3 124.7 L 159.2 120.2 L 161.1 115.9 L 162.8 111.9 L 164.5 108.1 L 166.0 104.5 L 167.3 101.1 L 168.5 98.0 L 168.97666664123534 96.7 L 33.5 96.7 L 33.5 100.8 L 33.1 107.1 L 32.4 112.8 L 31.3 118.1 L 29.7 123.0 L 27.7 127.4 L 25.2 131.3 L 22.1 134.8 L 17.7 136.0 Z M 57.2 76.6 L 56.2 73.9 L 55.0 71.1 L 53.4 68.3 L 51.6 65.4 L 49.5 62.5 L 47.1 59.5 L 44.4 56.4 L 41.3 53.5 L 42.3 52.0 L 46.1 54.0 L 49.9 56.1 L 53.4 58.3 L 56.6 60.7 L 59.5 63.3 L 62.2 66.1 L 64.5 69.1 L 66.6 72.2 L 68.4 75.4 L 69.9 78.8 L 69.3 83.4 L 65.7 86.2 L 61.2 85.6 L 58.4 82.0 L 57.9 79.3 Z M 96.6 73.3 L 95.7 70.3 L 94.6 67.3 L 93.3 64.3 L 91.6 61.3 L 89.7 58.3 L 87.6 55.2 L 85.1 52.1 L 82.2 49.2 L 83.3 47.7 L 87.0 49.8 L 90.6 51.9 L 93.9 54.3 L 97.0 56.9 L 99.7 59.8 L 102.2 62.9 L 104.4 66.1 L 106.4 69.6 L 108.0 73.3 L 109.3 77.1 L 108.3 81.5 L 104.5 84.1 L 100.1 83.2 L 97.5 79.4 L 97.1 76.3 Z " />
</g>
</svg>
