<svg xmlns="http://www.w3.org/2000/svg" xmlns:xlink="http://www.w3.org/1999/xlink" version="1.1" baseProfile="full" viewBox="0 0 200 200" width="200" height="200">
<g fill="black">
<path d="M 138.0 174.0 L 158.0 174.0 L 159.2 173.9 L 160.1 173.7 L 161.0 173.4 L 161.4 173.0 L 161.7 172.1 L 161.9 171.2 L 162.0 170.0 L 162.0 61.0 L 38.0 61.0 L 38.0 181.0 L 26.0 187.0 L 26.0 51.0 L 38.0 57.0 L 72.0583333015442 57.0 L 73.9 53.6 L 76.5 49.0 L 79.1 44.6 L 81.7 40.4 L 84.2 36.2 L 86.6 32.1 L 88.9 28.1 L 91.2 24.2 L 93.3 20.4 L 94.86189737319947 17.432394886016844 L 94.8 17.4 L 95.13673467636109 16.910204124450683 L 95.3 16.6 L 95.33493146896362 16.621917819976808 L 95.9 15.8 L 105.5 23.0 L 107.0 26.3 L 103.07489538192749 26.23347282409668 L 100.1 30.2 L 97.2 33.8 L 94.1 37.4 L 91.0 41.1 L 87.7 44.8 L 84.2 48.6 L 80.6 52.3 L 76.7 55.9 L 75.4472222328186 57.0 L 162.0 57.0 L 168.0 52.0 L 179.0 61.0 L 174.0 65.0 L 174.0 170.0 L 173.8 172.5 L 173.4 175.0 L 172.6 177.4 L 171.3 179.7 L 169.7 181.7 L 167.7 183.3 L 165.4 184.6 L 163.0 185.4 L 160.5 185.8 L 158.0 186.0 L 158.0 180.0 L 138.0 177.0 Z " />
</g>
</svg>
