<svg xmlns="http://www.w3.org/2000/svg" xmlns:xlink="http://www.w3.org/1999/xlink" version="1.1" baseProfile="full" viewBox="0 0 200 200" width="200" height="200">
<g fill="black">
<path d="M 159.5 95.1 L 156.6 92.5 L 153.3 89.9 L 149.8 87.3 L 146.0 84.6 L 142.0 82.0 L 137.7 79.2 L 133.3 76.3 L 132.17881479263306 75.62261724472046 L 130.7 77.7 L 125.9 83.4 L 120.7 88.8 L 115.0 94.0 L 108.7 98.9 L 101.9 103.5 L 101.6102409362793 103.66837348937989 L 106.0 104.4 L 109.0 106.4 L 106.0 108.2 L 106.0 125.7 L 160.0 125.7 L 170.0 115.7 L 182.0 125.7 L 182.0 129.7 L 108.78461542129517 129.7 L 113.1 133.0 L 119.9 138.1 L 126.9 143.0 L 134.0 147.7 L 141.4 152.1 L 149.0 156.3 L 156.9 160.2 L 165.1 163.8 L 173.5 167.2 L 182.3 170.2 L 189.2 172.8 L 177.6 182.6 L 168.7 178.7 L 160.1 174.5 L 151.8 169.9 L 143.9 165.1 L 136.3 160.0 L 129.2 154.5 L 122.4 148.7 L 116.0 142.6 L 110.2 136.0 L 106.0 130.42692308425904 L 106.0 185.2 L 94.0 191.2 L 94.0 136.9290322303772 L 92.6 138.6 L 85.9 145.5 L 78.7 152.0 L 70.9 158.0 L 62.6 163.6 L 53.8 168.7 L 44.4 173.3 L 34.6 177.5 L 24.2 181.0 L 13.2 184.0 L 12.7 182.3 L 22.8 177.5 L 32.4 172.6 L 41.4 167.5 L 49.9 162.2 L 57.8 156.5 L 65.2 150.7 L 72.0 144.5 L 78.2 138.0 L 83.9 131.2 L 84.9714285850525 129.7 L 18.0 129.7 L 18.0 125.7 L 94.0 125.7 L 94.0 107.11818180084228 L 93.4 106.3 L 94.0 105.73934421539306 L 94.0 102.4 L 97.0327543258667 102.90545902252197 L 99.5 100.6 L 105.2 94.9 L 110.4 89.3 L 115.1 83.7 L 119.3 78.1 L 123.0 72.4 L 126.2 66.7 L 128.9 61.0 L 131.2 55.1 L 132.63401041030883 50.20749378204346 L 132.6 50.2 L 133.4 47.7 L 144.4 52.8 L 146.7 55.6 L 142.86968088150024 56.54078016281128 L 141.7 59.4 L 138.6 65.7 L 134.9 71.8 L 134.0858596801758 72.94367332458496 L 134.7 73.1 L 139.9 74.6 L 144.8 76.3 L 149.5 78.2 L 154.0 80.1 L 158.2 82.1 L 162.1 84.3 L 165.9 86.5 L 169.4 88.8 L 172.7 91.2 L 174.7 95.4 L 173.2 99.7 L 169.0 101.6 L 164.7 100.1 L 162.3 97.6 Z M 82.3 91.8 L 79.8 89.4 L 77.0 87.0 L 74.0 84.6 L 70.8 82.1 L 67.3 79.6 L 63.6 77.0 L 60.181707286834715 74.63348970413207 L 59.0 76.3 L 54.4 81.7 L 49.4 86.8 L 43.7 91.7 L 37.6 96.3 L 30.8 100.5 L 23.4 104.4 L 22.5 102.9 L 28.6 97.5 L 34.2 92.1 L 39.3 86.9 L 43.8 81.6 L 47.8 76.4 L 51.3 71.1 L 54.2 65.7 L 56.6 60.4 L 58.5 55.0 L 59.64350051879883 50.50767660140991 L 59.6 50.5 L 60.3 47.9 L 71.5 52.6 L 73.9 55.3 L 70.11999998092651 56.380000019073485 L 69.2 58.9 L 66.4 64.9 L 62.9 70.8 L 62.23276195526123 71.7409767150879 L 65.7 72.7 L 70.1 74.3 L 74.3 75.9 L 78.2 77.7 L 82.0 79.5 L 85.5 81.5 L 88.9 83.5 L 92.0 85.7 L 95.0 87.9 L 96.7 92.1 L 95.1 96.4 L 90.9 98.1 L 86.6 96.5 L 84.6 94.2 Z M 19.2 41.2 L 94.0 41.2 L 94.0 14.8 L 106.0 16.8 L 109.0 18.8 L 106.0 20.6 L 106.0 41.2 L 158.7 41.2 L 168.7 31.2 L 180.7 41.2 L 180.7 45.2 L 19.2 45.2 Z " />
</g>
</svg>
