<svg xmlns="http://www.w3.org/2000/svg" xmlns:xlink="http://www.w3.org/1999/xlink" version="1.1" baseProfile="full" viewBox="0 0 200 200" width="200" height="200">
<g fill="black">
<path d="M 99.23333330154419 94.0 L 98.7 93.2 L 98.0 92.1 L 97.25127725601196 91.0705062866211 L 96.6 91.6 L 83.2 101.4 L 68.9 110.8 L 53.7 119.5 L 37.8 127.2 L 21.3 133.8 L 20.6 132.1 L 36.1 123.8 L 51.0 114.8 L 65.3 105.3 L 78.7 95.3 L 91.3 85.0 L 102.7 74.7 L 113.0 64.5 L 121.8 54.6 L 129.2 45.3 L 134.33473873138428 37.552850341796876 L 134.3 37.4 L 133.6 35.4 L 133.0 33.7 L 132.2 32.1 L 131.4 30.7 L 130.4 29.4 L 129.2 28.3 L 127.7 27.2 L 126.0 26.9 L 126.0 25.1 L 128.1 25.0 L 130.3 24.8 L 132.6 25.0 L 134.9 25.7 L 137.2 26.9 L 139.3 28.4 L 141.4 30.4 L 143.3 32.6 L 145.0 35.2 L 146.6 38.1 L 146.3 42.7 L 143.33571424484253 45.40273113250733 L 138.2 52.2 L 129.9 61.7 L 120.1 71.6 L 108.9 81.6 L 101.96667928695679 87.23684606552123 L 102.8 87.5 L 104.8 88.3 L 106.7 89.4 L 108.6 90.8 L 110.4 92.3 L 112.3 94.1 L 113.1 98.6 L 111.0 101.7920000076294 L 111.0 178.0 L 109.2 182.2 L 105.0 184.0 L 100.8 182.2 L 99.0 178.0 L 99.0 94.0 Z " />
</g>
</svg>
